<?xml version="1.0" encoding="utf-8" standalone="no"?>
<!DOCTYPE svg PUBLIC "-//W3C//DTD SVG 1.1//EN"
  "http://www.w3.org/Graphics/SVG/1.1/DTD/svg11.dtd">
<!-- Created with matplotlib (https://matplotlib.org/) -->
<svg height="214.038317pt" version="1.1" viewBox="0 0 605.815213 214.038317" width="605.815213pt" xmlns="http://www.w3.org/2000/svg" xmlns:xlink="http://www.w3.org/1999/xlink">
 <defs>
  <style type="text/css">
*{stroke-linecap:butt;stroke-linejoin:round;}
  </style>
 </defs>
 <g id="figure_1">
  <g id="patch_1">
   <path d="M -0 214.038317 
L 605.815213 214.038317 
L 605.815213 0 
L -0 0 
z
" style="fill:#ffffff;"/>
  </g>
  <g id="axes_1">
   <g id="patch_2">
    <path d="M 37.115213 177.02 
L 285.115213 177.02 
L 285.115213 10.7 
L 37.115213 10.7 
z
" style="fill:#ffffff;"/>
   </g>
   <g id="matplotlib.axis_1">
    <g id="xtick_1">
     <g id="line2d_1">
      <path clip-path="url(#p082c387129)" d="M 48.38794 177.02 
L 48.38794 10.7 
" style="fill:none;stroke:#b0b0b0;stroke-dasharray:0.8,1.32;stroke-dashoffset:0;stroke-width:0.8;"/>
     </g>
     <g id="line2d_2">
      <defs>
       <path d="M 0 0 
L 0 3.5 
" id="m1d16170370" style="stroke:#000000;stroke-width:0.8;"/>
      </defs>
      <g>
       <use style="stroke:#000000;stroke-width:0.8;" x="48.38794" xlink:href="#m1d16170370" y="177.02"/>
      </g>
     </g>
     <g id="text_1">
      <!-- $2^{0}$ -->
      <defs>
       <path d="M 41.703125 15.46875 
L 39.90625 15.46875 
C 38.90625 8.390625 38.09375 7.1875 37.703125 6.59375 
C 37.203125 5.796875 30 5.796875 28.59375 5.796875 
L 9.40625 5.796875 
C 13 9.6875 20 16.765625 28.5 24.9375 
C 34.59375 30.71875 41.703125 37.5 41.703125 47.390625 
C 41.703125 59.1875 32.296875 66 21.796875 66 
C 10.796875 66 4.09375 56.296875 4.09375 47.296875 
C 4.09375 43.390625 7 42.890625 8.203125 42.890625 
C 9.203125 42.890625 12.203125 43.484375 12.203125 46.984375 
C 12.203125 50.09375 9.59375 51 8.203125 51 
C 7.59375 51 7 50.890625 6.59375 50.6875 
C 8.5 59.1875 14.296875 63.390625 20.40625 63.390625 
C 29.09375 63.390625 34.796875 56.5 34.796875 47.390625 
C 34.796875 38.703125 29.703125 31.21875 24 24.734375 
L 4.09375 2.296875 
L 4.09375 0 
L 39.296875 0 
z
" id="CMR17-50"/>
       <path d="M 42 31.84375 
C 42 37.96875 41.90625 48.421875 37.703125 56.453125 
C 34 63.484375 28.09375 66 22.90625 66 
C 18.09375 66 12 63.78125 8.203125 56.5625 
C 4.203125 49.015625 3.796875 39.671875 3.796875 31.84375 
C 3.796875 26.109375 3.90625 17.375 7 9.734375 
C 11.296875 -0.609375 19 -2 22.90625 -2 
C 27.5 -2 34.5 -0.109375 38.59375 9.4375 
C 41.59375 16.375 42 24.5 42 31.84375 
z
M 22.90625 -0.40625 
C 16.5 -0.40625 12.703125 5.125 11.296875 12.75 
C 10.203125 18.6875 10.203125 27.328125 10.203125 32.953125 
C 10.203125 40.6875 10.203125 47.109375 11.5 53.234375 
C 13.40625 61.78125 19 64.390625 22.90625 64.390625 
C 27 64.390625 32.296875 61.671875 34.203125 53.4375 
C 35.5 47.71875 35.59375 40.984375 35.59375 32.953125 
C 35.59375 26.421875 35.59375 18.375 34.40625 12.453125 
C 32.296875 1.5 26.40625 -0.40625 22.90625 -0.40625 
z
" id="CMR17-48"/>
      </defs>
      <g transform="translate(43.911654 190.938498)scale(0.1 -0.1)">
       <use transform="scale(0.996264)" xlink:href="#CMR17-50"/>
       <use transform="translate(45.690477 36.153639)scale(0.697382)" xlink:href="#CMR17-48"/>
      </g>
     </g>
    </g>
    <g id="xtick_2">
     <g id="line2d_3">
      <path clip-path="url(#p082c387129)" d="M 93.478849 177.02 
L 93.478849 10.7 
" style="fill:none;stroke:#b0b0b0;stroke-dasharray:0.8,1.32;stroke-dashoffset:0;stroke-width:0.8;"/>
     </g>
     <g id="line2d_4">
      <g>
       <use style="stroke:#000000;stroke-width:0.8;" x="93.478849" xlink:href="#m1d16170370" y="177.02"/>
      </g>
     </g>
     <g id="text_2">
      <!-- $2^{1}$ -->
      <defs>
       <path d="M 26.59375 63.796875 
C 26.59375 65.890625 26.5 66 25.09375 66 
C 21.203125 61.359375 15.296875 59.890625 9.703125 59.6875 
C 9.40625 59.6875 8.90625 59.6875 8.796875 59.5 
C 8.703125 59.296875 8.703125 59.09375 8.703125 57 
C 11.796875 57 17 57.59375 21 59.984375 
L 21 7.296875 
C 21 3.796875 20.796875 2.59375 12.203125 2.59375 
L 9.203125 2.59375 
L 9.203125 0 
C 14 0.09375 19 0.1875 23.796875 0.1875 
C 28.59375 0.1875 33.59375 0.09375 38.40625 0 
L 38.40625 2.59375 
L 35.40625 2.59375 
C 26.796875 2.59375 26.59375 3.6875 26.59375 7.296875 
z
" id="CMR17-49"/>
      </defs>
      <g transform="translate(89.002563 190.938498)scale(0.1 -0.1)">
       <use transform="scale(0.996264)" xlink:href="#CMR17-50"/>
       <use transform="translate(45.690477 36.153639)scale(0.697382)" xlink:href="#CMR17-49"/>
      </g>
     </g>
    </g>
    <g id="xtick_3">
     <g id="line2d_5">
      <path clip-path="url(#p082c387129)" d="M 138.569758 177.02 
L 138.569758 10.7 
" style="fill:none;stroke:#b0b0b0;stroke-dasharray:0.8,1.32;stroke-dashoffset:0;stroke-width:0.8;"/>
     </g>
     <g id="line2d_6">
      <g>
       <use style="stroke:#000000;stroke-width:0.8;" x="138.569758" xlink:href="#m1d16170370" y="177.02"/>
      </g>
     </g>
     <g id="text_3">
      <!-- $2^{2}$ -->
      <g transform="translate(134.093472 190.938498)scale(0.1 -0.1)">
       <use transform="scale(0.996264)" xlink:href="#CMR17-50"/>
       <use transform="translate(45.690477 36.153639)scale(0.697382)" xlink:href="#CMR17-50"/>
      </g>
     </g>
    </g>
    <g id="xtick_4">
     <g id="line2d_7">
      <path clip-path="url(#p082c387129)" d="M 183.660668 177.02 
L 183.660668 10.7 
" style="fill:none;stroke:#b0b0b0;stroke-dasharray:0.8,1.32;stroke-dashoffset:0;stroke-width:0.8;"/>
     </g>
     <g id="line2d_8">
      <g>
       <use style="stroke:#000000;stroke-width:0.8;" x="183.660668" xlink:href="#m1d16170370" y="177.02"/>
      </g>
     </g>
     <g id="text_4">
      <!-- $2^{3}$ -->
      <defs>
       <path d="M 22.09375 34 
C 31 34 34.90625 26.140625 34.90625 17.09375 
C 34.90625 5.03125 28.5 0.390625 22.703125 0.390625 
C 17.40625 0.390625 8.796875 3.015625 6.09375 10.796875 
C 6.59375 10.59375 7.09375 10.59375 7.59375 10.59375 
C 10 10.59375 11.796875 12.1875 11.796875 14.796875 
C 11.796875 17.6875 9.59375 19 7.59375 19 
C 5.90625 19 3.296875 18.1875 3.296875 14.484375 
C 3.296875 5.234375 12.296875 -2 22.90625 -2 
C 34 -2 42.5 6.75 42.5 16.984375 
C 42.5 26.84375 34.5 34 25 35.09375 
C 32.59375 36.671875 39.90625 43.375 39.90625 52.390625 
C 39.90625 60.25 32 66 23 66 
C 13.90625 66 5.90625 60.34375 5.90625 52.296875 
C 5.90625 48.796875 8.5 48.1875 9.796875 48.1875 
C 11.90625 48.1875 13.703125 49.484375 13.703125 52.09375 
C 13.703125 54.6875 11.90625 56 9.796875 56 
C 9.40625 56 8.90625 56 8.5 55.796875 
C 11.40625 62.484375 19.296875 63.6875 22.796875 63.6875 
C 26.296875 63.6875 32.90625 61.96875 32.90625 52.296875 
C 32.90625 49.484375 32.5 44.546875 29.09375 40.21875 
C 26.09375 36.390625 22.703125 36.1875 19.40625 35.890625 
C 18.90625 35.890625 16.59375 35.6875 16.203125 35.6875 
C 15.5 35.59375 15.09375 35.5 15.09375 34.796875 
C 15.09375 34.09375 15.203125 34 17.203125 34 
z
" id="CMR17-51"/>
      </defs>
      <g transform="translate(179.184381 190.938498)scale(0.1 -0.1)">
       <use transform="scale(0.996264)" xlink:href="#CMR17-50"/>
       <use transform="translate(45.690477 36.153639)scale(0.697382)" xlink:href="#CMR17-51"/>
      </g>
     </g>
    </g>
    <g id="xtick_5">
     <g id="line2d_9">
      <path clip-path="url(#p082c387129)" d="M 228.751577 177.02 
L 228.751577 10.7 
" style="fill:none;stroke:#b0b0b0;stroke-dasharray:0.8,1.32;stroke-dashoffset:0;stroke-width:0.8;"/>
     </g>
     <g id="line2d_10">
      <g>
       <use style="stroke:#000000;stroke-width:0.8;" x="228.751577" xlink:href="#m1d16170370" y="177.02"/>
      </g>
     </g>
     <g id="text_5">
      <!-- $2^{4}$ -->
      <defs>
       <path d="M 33.59375 64.796875 
C 33.59375 66.890625 33.5 67 31.703125 67 
L 2 19.59375 
L 2 17 
L 27.796875 17 
L 27.796875 7.1875 
C 27.796875 3.59375 27.59375 2.59375 20.59375 2.59375 
L 18.703125 2.59375 
L 18.703125 0 
C 21.90625 0.1875 27.296875 0.1875 30.703125 0.1875 
C 34.09375 0.1875 39.5 0.1875 42.703125 0 
L 42.703125 2.59375 
L 40.796875 2.59375 
C 33.796875 2.59375 33.59375 3.59375 33.59375 7.1875 
L 33.59375 17 
L 43.796875 17 
L 43.796875 19.59375 
L 33.59375 19.59375 
z
M 28.09375 58.171875 
L 28.09375 19.59375 
L 4 19.59375 
z
" id="CMR17-52"/>
      </defs>
      <g transform="translate(224.27529 190.938498)scale(0.1 -0.1)">
       <use transform="scale(0.996264)" xlink:href="#CMR17-50"/>
       <use transform="translate(45.690477 36.153639)scale(0.697382)" xlink:href="#CMR17-52"/>
      </g>
     </g>
    </g>
    <g id="xtick_6">
     <g id="line2d_11">
      <path clip-path="url(#p082c387129)" d="M 273.842486 177.02 
L 273.842486 10.7 
" style="fill:none;stroke:#b0b0b0;stroke-dasharray:0.8,1.32;stroke-dashoffset:0;stroke-width:0.8;"/>
     </g>
     <g id="line2d_12">
      <g>
       <use style="stroke:#000000;stroke-width:0.8;" x="273.842486" xlink:href="#m1d16170370" y="177.02"/>
      </g>
     </g>
     <g id="text_6">
      <!-- $2^{5}$ -->
      <defs>
       <path d="M 11.40625 58.59375 
C 12.40625 58.1875 16.5 56.890625 20.703125 56.890625 
C 30 56.890625 35.09375 61.890625 38 64.6875 
C 38 65.484375 38 66 37.40625 66 
C 37.296875 66 37.09375 66 36.296875 65.59375 
C 32.796875 64.09375 28.703125 63 23.703125 63 
C 20.703125 63 16.203125 63.359375 11.296875 65.484375 
C 10.203125 66 10 66 9.90625 66 
C 9.40625 66 9.296875 65.890625 9.296875 63.90625 
L 9.296875 34.859375 
C 9.296875 33.015625 9.296875 32.5 10.296875 32.5 
C 10.796875 32.5 11 32.703125 11.5 33.421875 
C 14.703125 38.046875 19.09375 40 24.09375 40 
C 27.59375 40 35.09375 37.734375 35.09375 20.203125 
C 35.09375 16.984375 35.09375 11.1875 32.09375 6.59375 
C 29.59375 2.484375 25.703125 0.390625 21.40625 0.390625 
C 14.796875 0.390625 8.09375 4.984375 6.296875 12.6875 
C 6.703125 12.59375 7.5 12.390625 7.90625 12.390625 
C 9.203125 12.390625 11.703125 13.09375 11.703125 16.1875 
C 11.703125 18.890625 9.796875 20 7.90625 20 
C 5.59375 20 4.09375 18.59375 4.09375 15.796875 
C 4.09375 7.09375 11 -2 21.59375 -2 
C 31.90625 -2 41.703125 6.890625 41.703125 19.796875 
C 41.703125 32.09375 33.90625 41.59375 24.203125 41.59375 
C 19.09375 41.59375 14.796875 39.6875 11.40625 36 
z
" id="CMR17-53"/>
      </defs>
      <g transform="translate(269.366199 190.938498)scale(0.1 -0.1)">
       <use transform="scale(0.996264)" xlink:href="#CMR17-50"/>
       <use transform="translate(45.690477 36.153639)scale(0.697382)" xlink:href="#CMR17-53"/>
      </g>
     </g>
    </g>
    <g id="text_7">
     <!-- number of nodes ($\times 14$ MPI processes/node) -->
     <defs>
      <path d="M 41.5 30.53125 
C 41.5 35.65625 40.5 44 28.703125 44 
C 20.796875 44 16.703125 37.875 15.203125 33.84375 
L 15.09375 33.84375 
L 15.09375 44 
L 3.296875 42.890625 
L 3.296875 40.28125 
C 9.203125 40.28125 10.09375 39.6875 10.09375 34.859375 
L 10.09375 6.921875 
C 10.09375 3.09375 9.703125 2.59375 3.296875 2.59375 
L 3.296875 0 
C 5.703125 0.1875 10.09375 0.1875 12.703125 0.1875 
C 15.296875 0.1875 19.796875 0.1875 22.203125 0 
L 22.203125 2.59375 
C 15.796875 2.59375 15.40625 3 15.40625 6.921875 
L 15.40625 26.21875 
C 15.40625 35.453125 21 42.390625 28 42.390625 
C 35.40625 42.390625 36.203125 35.765625 36.203125 30.9375 
L 36.203125 6.921875 
C 36.203125 3.09375 35.796875 2.59375 29.40625 2.59375 
L 29.40625 0 
C 31.796875 0.1875 36.203125 0.1875 38.796875 0.1875 
C 41.40625 0.1875 45.90625 0.1875 48.296875 0 
L 48.296875 2.59375 
C 41.90625 2.59375 41.5 3 41.5 6.921875 
z
" id="CMR17-110"/>
      <path d="M 29.40625 42.890625 
L 29.40625 40.296875 
C 35.296875 40.296875 36.203125 39.6875 36.203125 34.828125 
L 36.203125 16.453125 
C 36.203125 7.96875 31.703125 0.59375 24.296875 0.59375 
C 16.09375 0.59375 15.40625 5.546875 15.40625 10.796875 
L 15.40625 44 
L 3.296875 42.890625 
L 3.296875 40.296875 
C 7.296875 40.296875 10 40.296875 10.09375 36.25 
L 10.09375 16.859375 
C 10.09375 10.09375 10.09375 5.75 12.703125 2.921875 
C 14 1.609375 16.5 -1 23.703125 -1 
C 32.203125 -1 35.5 6.25 36.296875 8.375 
L 36.40625 8.375 
L 36.40625 -1 
L 48.296875 -0.203125 
L 48.296875 2.40625 
C 42.40625 2.40625 41.5 3.015625 41.5 7.859375 
L 41.5 44 
z
" id="CMR17-117"/>
      <path d="M 67.59375 30.53125 
C 67.59375 35.5625 66.703125 44 54.796875 44 
C 48 44 43.296875 39.375 41.5 33.953125 
L 41.40625 33.953125 
C 40.203125 42.1875 34.296875 44 28.703125 44 
C 20.796875 44 16.703125 37.875 15.203125 33.84375 
L 15.09375 33.84375 
L 15.09375 44 
L 3.296875 42.890625 
L 3.296875 40.28125 
C 9.203125 40.28125 10.09375 39.6875 10.09375 34.859375 
L 10.09375 6.921875 
C 10.09375 3.09375 9.703125 2.59375 3.296875 2.59375 
L 3.296875 0 
C 5.703125 0.1875 10.09375 0.1875 12.703125 0.1875 
C 15.296875 0.1875 19.796875 0.1875 22.203125 0 
L 22.203125 2.59375 
C 15.796875 2.59375 15.40625 3 15.40625 6.921875 
L 15.40625 26.21875 
C 15.40625 35.453125 21 42.390625 28 42.390625 
C 35.40625 42.390625 36.203125 35.765625 36.203125 30.9375 
L 36.203125 6.921875 
C 36.203125 3.09375 35.796875 2.59375 29.40625 2.59375 
L 29.40625 0 
C 31.796875 0.1875 36.203125 0.1875 38.796875 0.1875 
C 41.40625 0.1875 45.90625 0.1875 48.296875 0 
L 48.296875 2.59375 
C 41.90625 2.59375 41.5 3 41.5 6.921875 
L 41.5 26.21875 
C 41.5 35.453125 47.09375 42.390625 54.09375 42.390625 
C 61.5 42.390625 62.296875 35.765625 62.296875 30.9375 
L 62.296875 6.921875 
C 62.296875 3.09375 61.90625 2.59375 55.5 2.59375 
L 55.5 0 
C 57.90625 0.1875 62.296875 0.1875 64.90625 0.1875 
C 67.5 0.1875 72 0.1875 74.40625 0 
L 74.40625 2.59375 
C 68 2.59375 67.59375 3 67.59375 6.921875 
z
" id="CMR17-109"/>
      <path d="M 15 69 
L 3.09375 67.890625 
L 3.09375 65.296875 
C 9 65.296875 9.90625 64.703125 9.90625 60.046875 
L 9.90625 -0.203125 
L 11.703125 -0.203125 
L 14.59375 6.953125 
C 17.5 2.203125 21.796875 -1 27.59375 -1 
C 37.59375 -1 47.703125 7.859375 47.703125 21.59375 
C 47.703125 34.515625 38.703125 44 28.59375 44 
C 22.40625 44 18 40.671875 15 36.734375 
z
M 15.203125 31.59375 
C 15.203125 33.40625 15.203125 33.703125 16.59375 35.828125 
C 20.5 41.890625 26.09375 42.390625 28 42.390625 
C 31 42.390625 41.296875 40.78125 41.296875 21.6875 
C 41.296875 1.703125 29.5 0.59375 27.09375 0.59375 
C 24 0.59375 19.5 1.796875 16.296875 7.65625 
C 15.203125 9.578125 15.203125 9.78125 15.203125 11.59375 
z
" id="CMR17-98"/>
      <path d="M 38.09375 23.484375 
C 38.5 23.890625 38.5 24.09375 38.5 25.09375 
C 38.5 35.171875 33.09375 44 21.703125 44 
C 11.09375 44 2.703125 33.984375 2.703125 21.78125 
C 2.703125 8.65625 12.203125 -1 22.796875 -1 
C 34 -1 38.40625 9.671875 38.40625 11.796875 
C 38.40625 12.5 37.796875 12.5 37.59375 12.5 
C 36.90625 12.5 36.796875 12.296875 36.40625 11.078125 
C 34.203125 4.21875 28.703125 0.796875 23.5 0.796875 
C 19.203125 0.796875 14.90625 3.21875 12.203125 7.65625 
C 9.09375 12.796875 9.09375 18.75 9.09375 23.484375 
z
M 9.203125 25 
C 9.90625 39.234375 17.59375 42.390625 21.59375 42.390625 
C 28.40625 42.390625 33 36.0625 33.09375 25 
z
" id="CMR17-101"/>
      <path d="M 15 23.703125 
C 15 33.34375 19.09375 42.390625 26.59375 42.390625 
C 27.296875 42.390625 28 42.296875 28.703125 41.984375 
C 28.703125 41.984375 26.5 41.28125 26.5 38.671875 
C 26.5 36.265625 28.40625 35.265625 29.90625 35.265625 
C 31.09375 35.265625 33.296875 35.96875 33.296875 38.78125 
C 33.296875 41.984375 30.09375 44 26.703125 44 
C 19.09375 44 15.796875 36.5625 14.796875 33.046875 
L 14.703125 33.046875 
L 14.703125 44 
L 3.09375 42.890625 
L 3.09375 40.28125 
C 9 40.28125 9.90625 39.6875 9.90625 34.859375 
L 9.90625 6.921875 
C 9.90625 3.09375 9.5 2.59375 3.09375 2.59375 
L 3.09375 0 
C 5.5 0.1875 10.09375 0.1875 12.703125 0.1875 
C 15.59375 0.1875 20.703125 0.1875 23.40625 0 
L 23.40625 2.59375 
C 16.203125 2.59375 15 2.59375 15 7.109375 
z
" id="CMR17-114"/>
      <path d="M 43.09375 21.1875 
C 43.09375 34 33.796875 44 22.90625 44 
C 12 44 2.703125 34 2.703125 21.1875 
C 2.703125 8.59375 12 -1 22.90625 -1 
C 33.796875 -1 43.09375 8.59375 43.09375 21.1875 
z
M 22.90625 0.796875 
C 18.203125 0.796875 14.203125 3.59375 11.90625 7.5 
C 9.40625 12 9.09375 17.59375 9.09375 22 
C 9.09375 26.1875 9.296875 31.390625 11.90625 35.890625 
C 13.90625 39.1875 17.796875 42.390625 22.90625 42.390625 
C 27.40625 42.390625 31.203125 39.890625 33.59375 36.390625 
C 36.703125 31.6875 36.703125 25.09375 36.703125 22 
C 36.703125 18.09375 36.5 12.09375 33.796875 7.296875 
C 31 2.6875 26.703125 0.796875 22.90625 0.796875 
z
" id="CMR17-111"/>
      <path d="M 15.296875 40.390625 
L 26.703125 40.390625 
L 26.703125 43 
L 15.09375 43 
L 15.09375 55.296875 
C 15.09375 63.6875 19.296875 68.390625 23.59375 68.390625 
C 24.90625 68.390625 26.40625 68.171875 27.40625 67.796875 
C 26.59375 67.59375 24.5 66.890625 24.5 64.390625 
C 24.5 61.796875 26.5 61 27.90625 61 
C 29.296875 61 31.296875 61.796875 31.296875 64.390625 
C 31.296875 68.015625 27.703125 70 23.703125 70 
C 18 70 10.203125 65.796875 10.203125 55.09375 
L 10.203125 43 
L 2.203125 43 
L 2.203125 40.390625 
L 10.203125 40.390625 
L 10.203125 6.890625 
C 10.203125 3.09375 9.796875 2.59375 3.40625 2.59375 
L 3.40625 0 
C 5.796875 0.1875 10.40625 0.1875 13 0.1875 
C 15.90625 0.1875 21 0.1875 23.703125 0 
L 23.703125 2.59375 
C 16.5 2.59375 15.296875 2.59375 15.296875 7.09375 
z
" id="CMR17-102"/>
      <path d="M 29.203125 67.890625 
L 29.203125 65.296875 
C 35.09375 65.296875 36 64.703125 36 60.046875 
L 36 37.046875 
C 35.59375 37.546875 31.5 44 23.40625 44 
C 13.203125 44 3.296875 34.8125 3.296875 21.5 
C 3.296875 8.265625 12.59375 -1 22.40625 -1 
C 30.90625 -1 35.296875 5.640625 35.796875 6.34375 
L 35.796875 -1 
L 47.90625 -0.203125 
L 47.90625 2.40625 
C 42 2.40625 41.09375 3.015625 41.09375 7.859375 
L 41.09375 69 
z
M 35.796875 11.90625 
C 35.796875 8.875 34 6.140625 31.703125 4.125 
C 28.296875 1.09375 24.90625 0.59375 23 0.59375 
C 20.09375 0.59375 9.703125 2.109375 9.703125 21.390625 
C 9.703125 41.1875 21.296875 42.390625 23.90625 42.390625 
C 28.5 42.390625 32.203125 39.765625 34.5 36.140625 
C 35.796875 34.015625 35.796875 33.703125 35.796875 31.890625 
z
" id="CMR17-100"/>
      <path d="M 30.90625 42 
C 30.90625 43.796875 30.796875 43.890625 30.203125 43.890625 
C 29.796875 43.890625 29.703125 43.796875 28.5 42.296875 
C 28.203125 41.890625 27.296875 40.890625 27 40.5 
C 23.796875 43.890625 19.296875 44 17.59375 44 
C 6.5 44 2.5 38.1875 2.5 32.390625 
C 2.5 23.390625 12.703125 21.296875 15.59375 20.6875 
C 21.90625 19.390625 24.09375 19 26.203125 17.1875 
C 27.5 16 29.703125 13.796875 29.703125 10.1875 
C 29.703125 6 27.296875 0.59375 18.09375 0.59375 
C 9.40625 0.59375 6.296875 7.1875 4.5 16 
C 4.203125 17.390625 4.203125 17.5 3.40625 17.5 
C 2.59375 17.5 2.5 17.390625 2.5 15.390625 
L 2.5 1 
C 2.5 -0.8125 2.59375 -0.90625 3.203125 -0.90625 
C 3.703125 -0.90625 3.796875 -0.8125 4.296875 0 
C 4.90625 0.890625 6.40625 3.296875 7 4.296875 
C 9 1.59375 12.5 -1 18.09375 -1 
C 28 -1 33.296875 4.390625 33.296875 12.1875 
C 33.296875 17.296875 30.59375 20 29.296875 21.1875 
C 26.296875 24.296875 22.796875 25 18.59375 25.796875 
C 13.09375 27 6.09375 28.390625 6.09375 34.5 
C 6.09375 37.09375 7.5 42.59375 17.59375 42.59375 
C 28.296875 42.59375 28.90625 32.59375 29.09375 29.390625 
C 29.203125 28.890625 29.703125 28.796875 30 28.796875 
C 30.90625 28.796875 30.90625 29.09375 30.90625 30.796875 
z
" id="CMR17-115"/>
      <path d="M 30.59375 -24.40625 
C 30.59375 -24.3125 30.59375 -24.109375 30.296875 -23.8125 
C 25.703125 -19.109375 13.40625 -6.296875 13.40625 24.9375 
C 13.40625 56.171875 25.5 68.875 30.40625 73.890625 
C 30.40625 73.984375 30.59375 74.1875 30.59375 74.484375 
C 30.59375 74.796875 30.296875 75 29.90625 75 
C 28.796875 75 20.296875 67.578125 15.40625 56.5625 
C 10.40625 45.453125 9 34.65625 9 25.046875 
C 9 17.828125 9.703125 5.625 15.703125 -7.296875 
C 20.5 -17.703125 28.703125 -25 29.90625 -25 
C 30.40625 -25 30.59375 -24.8125 30.59375 -24.40625 
z
" id="CMR17-40"/>
      <path d="M 38.90625 27.734375 
L 18.90625 47.59375 
C 17.703125 48.796875 17.5 49 16.703125 49 
C 15.703125 49 14.703125 48.09375 14.703125 47 
C 14.703125 46.296875 14.90625 46.09375 16 45 
L 36 24.9375 
L 16 4.890625 
C 14.90625 3.796875 14.703125 3.59375 14.703125 2.890625 
C 14.703125 1.796875 15.703125 0.890625 16.703125 0.890625 
C 17.5 0.890625 17.703125 1.09375 18.90625 2.296875 
L 38.796875 22.15625 
L 59.5 1.484375 
C 59.703125 1.390625 60.40625 0.890625 61 0.890625 
C 62.203125 0.890625 63 1.796875 63 2.890625 
C 63 3.09375 63 3.484375 62.703125 3.984375 
C 62.59375 4.1875 46.703125 19.859375 41.703125 24.9375 
L 60 43.203125 
C 60.5 43.796875 62 45.09375 62.5 45.703125 
C 62.59375 45.890625 63 46.296875 63 47 
C 63 48.09375 62.203125 49 61 49 
C 60.203125 49 59.796875 48.59375 58.703125 47.5 
z
" id="CMSY10-2"/>
      <path d="M 20.90625 66.390625 
C 20.296875 67.890625 20.203125 68 18.09375 68 
L 5.296875 68 
L 5.296875 65.390625 
C 12.203125 65.390625 13.296875 65.390625 13.296875 60.90625 
L 13.296875 9.75 
C 13.296875 7.265625 13.296875 2.59375 5.296875 2.59375 
L 5.296875 0 
C 7.59375 0.1875 11.796875 0.1875 14.296875 0.1875 
C 16.796875 0.1875 21 0.1875 23.296875 0 
L 23.296875 2.59375 
C 15.296875 2.59375 15.296875 7.265625 15.296875 9.75 
L 15.296875 64.984375 
L 15.40625 64.984375 
L 38.90625 1.59375 
C 39.296875 0.59375 39.5 0 40.296875 0 
C 41.09375 0 41.296875 0.59375 41.703125 1.59375 
L 65.40625 65.484375 
L 65.5 65.484375 
L 65.5 7.078125 
C 65.5 2.59375 64.40625 2.59375 57.5 2.59375 
L 57.5 0 
C 60.203125 0.1875 65.59375 0.1875 68.5 0.1875 
C 71.40625 0.1875 76.90625 0.1875 79.59375 0 
L 79.59375 2.59375 
C 72.703125 2.59375 71.59375 2.59375 71.59375 7.078125 
L 71.59375 60.90625 
C 71.59375 65.390625 72.703125 65.390625 79.59375 65.390625 
L 79.59375 68 
L 66.90625 68 
C 64.796875 68 64.703125 67.890625 64.09375 66.390625 
L 42.5 8.0625 
z
" id="CMR17-77"/>
      <path d="M 19.796875 32 
L 35.796875 32 
C 48.703125 32 58.09375 40.359375 58.09375 49.796875 
C 58.09375 59.234375 48.90625 68 35.796875 68 
L 5.203125 68 
L 5.203125 65.390625 
C 12.09375 65.390625 13.203125 65.390625 13.203125 60.921875 
L 13.203125 7.078125 
C 13.203125 2.59375 12.09375 2.59375 5.203125 2.59375 
L 5.203125 0 
C 8.09375 0.1875 13.40625 0.1875 16.5 0.1875 
C 19.59375 0.1875 24.90625 0.1875 27.796875 0 
L 27.796875 2.59375 
C 20.90625 2.59375 19.796875 2.59375 19.796875 7.078125 
z
M 19.59375 34.09375 
L 19.59375 61.515625 
C 19.59375 64.890625 19.796875 65.390625 23.796875 65.390625 
L 33.90625 65.390625 
C 46.796875 65.390625 50.5 58.046875 50.5 49.796875 
C 50.5 40.75 46.09375 34.09375 33.90625 34.09375 
z
" id="CMR17-80"/>
      <path d="M 19.703125 60.90625 
C 19.703125 65.390625 20.90625 65.390625 28.09375 65.390625 
L 28.09375 68 
C 24.90625 67.796875 19.796875 67.796875 16.40625 67.796875 
C 13 67.796875 7.90625 67.796875 4.703125 68 
L 4.703125 65.390625 
C 11.90625 65.390625 13.09375 65.390625 13.09375 60.90625 
L 13.09375 7.078125 
C 13.09375 2.59375 11.90625 2.59375 4.703125 2.59375 
L 4.703125 0 
C 7.90625 0.1875 13 0.1875 16.40625 0.1875 
C 19.796875 0.1875 24.90625 0.1875 28.09375 0 
L 28.09375 2.59375 
C 20.90625 2.59375 19.703125 2.59375 19.703125 7.078125 
z
" id="CMR17-73"/>
      <path d="M 22 -17.40625 
C 15.59375 -17.40625 15.203125 -17 15.203125 -13.03125 
L 15.203125 5.9375 
C 18.09375 1.703125 22.296875 -1 27.59375 -1 
C 37.59375 -1 47.703125 7.859375 47.703125 21.59375 
C 47.703125 34.3125 39 44 28.703125 44 
C 22.703125 44 17.796875 40.671875 15 36.640625 
L 15 44 
L 3.09375 42.890625 
L 3.09375 40.265625 
C 9 40.265625 9.90625 39.671875 9.90625 34.8125 
L 9.90625 -13.03125 
C 9.90625 -16.890625 9.5 -17.40625 3.09375 -17.40625 
L 3.09375 -20 
C 5.5 -19.8125 9.90625 -19.8125 12.5 -19.8125 
C 15.09375 -19.8125 19.59375 -19.8125 22 -20 
z
M 15.203125 31.484375 
C 15.203125 32.90625 15.203125 35.015625 19.09375 38.765625 
C 19.59375 39.15625 23 42.1875 28 42.1875 
C 35.296875 42.1875 41.296875 33 41.296875 21.5 
C 41.296875 9.984375 34.90625 0.59375 27 0.59375 
C 23.40625 0.59375 19.5 2.3125 16.5 7.046875 
C 15.203125 9.28125 15.203125 9.875 15.203125 11.5 
z
" id="CMR17-112"/>
      <path d="M 34.90625 35 
C 33 35 30.203125 35 30.203125 31.484375 
C 30.203125 28.6875 32.5 27.890625 33.796875 27.890625 
C 34.5 27.890625 37.40625 28.1875 37.40625 31.6875 
C 37.40625 38.6875 30.59375 44 22.90625 44 
C 12.296875 44 3.296875 34.390625 3.296875 21.546875 
C 3.296875 8.140625 12.703125 -1 22.90625 -1 
C 35.296875 -1 38.40625 10.5625 38.40625 11.671875 
C 38.40625 12.078125 38.296875 12.375 37.59375 12.375 
C 36.90625 12.375 36.796875 12.28125 36.40625 10.96875 
C 33.796875 2.8125 28.09375 0.796875 23.796875 0.796875 
C 17.40625 0.796875 9.703125 6.734375 9.703125 21.640625 
C 9.703125 36.84375 17.09375 42.1875 23 42.1875 
C 26.90625 42.1875 32.703125 40.34375 34.90625 35 
z
" id="CMR17-99"/>
      <path d="M 40.703125 71.484375 
C 41.203125 72.78125 41.203125 72.984375 41.203125 73.1875 
C 41.203125 74.390625 40.296875 75 39.5 75 
C 38.296875 75 37.90625 74.1875 37.5 72.984375 
L 5.09375 -21.5 
C 4.59375 -22.8125 4.59375 -23 4.59375 -23.203125 
C 4.59375 -24.40625 5.5 -25 6.296875 -25 
C 7.5 -25 7.90625 -24.203125 8.296875 -23 
z
" id="CMR17-47"/>
      <path d="M 26.296875 24.9375 
C 26.296875 32.140625 25.59375 44.359375 19.59375 57.265625 
C 14.796875 67.6875 6.59375 75 5.40625 75 
C 5.09375 75 4.703125 74.890625 4.703125 74.390625 
C 4.703125 74.1875 4.796875 74.09375 4.90625 73.890625 
C 9.703125 68.875 21.90625 56.171875 21.90625 25.046875 
C 21.90625 -6.1875 9.796875 -18.90625 4.90625 -23.90625 
C 4.796875 -24.109375 4.703125 -24.203125 4.703125 -24.40625 
C 4.703125 -24.90625 5.09375 -25 5.40625 -25 
C 6.5 -25 15 -17.609375 19.90625 -6.59375 
C 24.90625 4.515625 26.296875 15.328125 26.296875 24.9375 
z
" id="CMR17-41"/>
     </defs>
     <g transform="translate(64.740329 204.347657)scale(0.1 -0.1)">
      <use transform="scale(0.996264)" xlink:href="#CMR17-110"/>
      <use transform="translate(48.292916 0)scale(0.996264)" xlink:href="#CMR17-117"/>
      <use transform="translate(99.188286 0)scale(0.996264)" xlink:href="#CMR17-109"/>
      <use transform="translate(173.505422 0)scale(0.996264)" xlink:href="#CMR17-98"/>
      <use transform="translate(227.00323 0)scale(0.996264)" xlink:href="#CMR17-101"/>
      <use transform="translate(267.488891 0)scale(0.996264)" xlink:href="#CMR17-114"/>
      <use transform="translate(332.845625 0)scale(0.996264)" xlink:href="#CMR17-111"/>
      <use transform="translate(378.536102 0)scale(0.996264)" xlink:href="#CMR17-102"/>
      <use transform="translate(436.085581 0)scale(0.996264)" xlink:href="#CMR17-110"/>
      <use transform="translate(486.98095 0)scale(0.996264)" xlink:href="#CMR17-111"/>
      <use transform="translate(535.273866 0)scale(0.996264)" xlink:href="#CMR17-100"/>
      <use transform="translate(586.169236 0)scale(0.996264)" xlink:href="#CMR17-101"/>
      <use transform="translate(626.654896 0)scale(0.996264)" xlink:href="#CMR17-115"/>
      <use transform="translate(692.5322 0)scale(0.996264)" xlink:href="#CMR17-40"/>
      <use transform="translate(727.812968 0)scale(0.996264)" xlink:href="#CMSY10-2"/>
      <use transform="translate(805.300436 0)scale(0.996264)" xlink:href="#CMR17-49"/>
      <use transform="translate(850.990913 0)scale(0.996264)" xlink:href="#CMR17-52"/>
      <use transform="translate(926.757356 0)scale(0.996264)" xlink:href="#CMR17-77"/>
      <use transform="translate(1011.444297 0)scale(0.996264)" xlink:href="#CMR17-80"/>
      <use transform="translate(1074.030598 0)scale(0.996264)" xlink:href="#CMR17-73"/>
      <use transform="translate(1136.744973 0)scale(0.996264)" xlink:href="#CMR17-112"/>
      <use transform="translate(1187.640343 0)scale(0.996264)" xlink:href="#CMR17-114"/>
      <use transform="translate(1222.921111 0)scale(0.996264)" xlink:href="#CMR17-111"/>
      <use transform="translate(1271.214027 0)scale(0.996264)" xlink:href="#CMR17-99"/>
      <use transform="translate(1311.699687 0)scale(0.996264)" xlink:href="#CMR17-101"/>
      <use transform="translate(1352.185347 0)scale(0.996264)" xlink:href="#CMR17-115"/>
      <use transform="translate(1387.986685 0)scale(0.996264)" xlink:href="#CMR17-115"/>
      <use transform="translate(1423.788023 0)scale(0.996264)" xlink:href="#CMR17-101"/>
      <use transform="translate(1464.273683 0)scale(0.996264)" xlink:href="#CMR17-115"/>
      <use transform="translate(1500.075021 0)scale(0.996264)" xlink:href="#CMR17-47"/>
      <use transform="translate(1545.765498 0)scale(0.996264)" xlink:href="#CMR17-110"/>
      <use transform="translate(1596.660868 0)scale(0.996264)" xlink:href="#CMR17-111"/>
      <use transform="translate(1644.953784 0)scale(0.996264)" xlink:href="#CMR17-100"/>
      <use transform="translate(1695.849153 0)scale(0.996264)" xlink:href="#CMR17-101"/>
      <use transform="translate(1736.334814 0)scale(0.996264)" xlink:href="#CMR17-41"/>
     </g>
    </g>
   </g>
   <g id="matplotlib.axis_2">
    <g id="ytick_1">
     <g id="line2d_13">
      <path clip-path="url(#p082c387129)" d="M 37.115213 149.157111 
L 285.115213 149.157111 
" style="fill:none;stroke:#b0b0b0;stroke-dasharray:0.8,1.32;stroke-dashoffset:0;stroke-width:0.8;"/>
     </g>
     <g id="line2d_14">
      <defs>
       <path d="M 0 0 
L -3.5 0 
" id="mee02b53323" style="stroke:#000000;stroke-width:0.8;"/>
      </defs>
      <g>
       <use style="stroke:#000000;stroke-width:0.8;" x="37.115213" xlink:href="#mee02b53323" y="149.157111"/>
      </g>
     </g>
     <g id="text_8">
      <!-- $2^{2}$ -->
      <g transform="translate(21.16264 152.61636)scale(0.1 -0.1)">
       <use transform="scale(0.996264)" xlink:href="#CMR17-50"/>
       <use transform="translate(45.690477 36.153639)scale(0.697382)" xlink:href="#CMR17-50"/>
      </g>
     </g>
    </g>
    <g id="ytick_2">
     <g id="line2d_15">
      <path clip-path="url(#p082c387129)" d="M 37.115213 112.260039 
L 285.115213 112.260039 
" style="fill:none;stroke:#b0b0b0;stroke-dasharray:0.8,1.32;stroke-dashoffset:0;stroke-width:0.8;"/>
     </g>
     <g id="line2d_16">
      <g>
       <use style="stroke:#000000;stroke-width:0.8;" x="37.115213" xlink:href="#mee02b53323" y="112.260039"/>
      </g>
     </g>
     <g id="text_9">
      <!-- $2^{3}$ -->
      <g transform="translate(21.16264 115.719288)scale(0.1 -0.1)">
       <use transform="scale(0.996264)" xlink:href="#CMR17-50"/>
       <use transform="translate(45.690477 36.153639)scale(0.697382)" xlink:href="#CMR17-51"/>
      </g>
     </g>
    </g>
    <g id="ytick_3">
     <g id="line2d_17">
      <path clip-path="url(#p082c387129)" d="M 37.115213 75.362967 
L 285.115213 75.362967 
" style="fill:none;stroke:#b0b0b0;stroke-dasharray:0.8,1.32;stroke-dashoffset:0;stroke-width:0.8;"/>
     </g>
     <g id="line2d_18">
      <g>
       <use style="stroke:#000000;stroke-width:0.8;" x="37.115213" xlink:href="#mee02b53323" y="75.362967"/>
      </g>
     </g>
     <g id="text_10">
      <!-- $2^{4}$ -->
      <g transform="translate(21.16264 78.822217)scale(0.1 -0.1)">
       <use transform="scale(0.996264)" xlink:href="#CMR17-50"/>
       <use transform="translate(45.690477 36.153639)scale(0.697382)" xlink:href="#CMR17-52"/>
      </g>
     </g>
    </g>
    <g id="ytick_4">
     <g id="line2d_19">
      <path clip-path="url(#p082c387129)" d="M 37.115213 38.465896 
L 285.115213 38.465896 
" style="fill:none;stroke:#b0b0b0;stroke-dasharray:0.8,1.32;stroke-dashoffset:0;stroke-width:0.8;"/>
     </g>
     <g id="line2d_20">
      <g>
       <use style="stroke:#000000;stroke-width:0.8;" x="37.115213" xlink:href="#mee02b53323" y="38.465896"/>
      </g>
     </g>
     <g id="text_11">
      <!-- $2^{5}$ -->
      <g transform="translate(21.16264 41.925145)scale(0.1 -0.1)">
       <use transform="scale(0.996264)" xlink:href="#CMR17-50"/>
       <use transform="translate(45.690477 36.153639)scale(0.697382)" xlink:href="#CMR17-53"/>
      </g>
     </g>
    </g>
    <g id="text_12">
     <!-- runtime (seconds) -->
     <defs>
      <path d="M 15.09375 40.390625 
L 29.09375 40.390625 
L 29.09375 43 
L 15.09375 43 
L 15.09375 62 
L 13.296875 62 
C 13.09375 51.4375 9.59375 42.1875 1.09375 41.984375 
L 1.09375 40.390625 
L 9.796875 40.390625 
L 9.796875 12.15625 
C 9.796875 10.234375 9.796875 -1 21.40625 -1 
C 27.296875 -1 30.703125 4.8125 30.703125 12.25 
L 30.703125 17.984375 
L 28.90625 17.984375 
L 28.90625 12.34375 
C 28.90625 5.421875 26.203125 0.796875 22 0.796875 
C 19.09375 0.796875 15.09375 2.796875 15.09375 11.953125 
z
" id="CMR17-116"/>
      <path d="M 15.5 61.890625 
C 15.5 64.09375 13.703125 66 11.40625 66 
C 9.203125 66 7.296875 64.1875 7.296875 61.890625 
C 7.296875 59.6875 9.09375 57.796875 11.40625 57.796875 
C 13.59375 57.796875 15.5 59.59375 15.5 61.890625 
z
M 3.796875 42.890625 
L 3.796875 40.296875 
C 9.40625 40.296875 10.203125 39.6875 10.203125 34.859375 
L 10.203125 6.921875 
C 10.203125 3.09375 9.796875 2.59375 3.40625 2.59375 
L 3.40625 0 
C 5.796875 0.1875 10.09375 0.1875 12.59375 0.1875 
C 15 0.1875 19.09375 0.1875 21.40625 0 
L 21.40625 2.59375 
C 15.5 2.59375 15.296875 3.203125 15.296875 6.8125 
L 15.296875 44 
z
" id="CMR17-105"/>
     </defs>
     <g transform="translate(14.67198 132.811223)rotate(-90)scale(0.1 -0.1)">
      <use transform="scale(0.996264)" xlink:href="#CMR17-114"/>
      <use transform="translate(35.280768 0)scale(0.996264)" xlink:href="#CMR17-117"/>
      <use transform="translate(86.176138 0)scale(0.996264)" xlink:href="#CMR17-110"/>
      <use transform="translate(134.469053 0)scale(0.996264)" xlink:href="#CMR17-116"/>
      <use transform="translate(169.749821 0)scale(0.996264)" xlink:href="#CMR17-105"/>
      <use transform="translate(194.62088 0)scale(0.996264)" xlink:href="#CMR17-109"/>
      <use transform="translate(271.54047 0)scale(0.996264)" xlink:href="#CMR17-101"/>
      <use transform="translate(342.102096 0)scale(0.996264)" xlink:href="#CMR17-40"/>
      <use transform="translate(377.382864 0)scale(0.996264)" xlink:href="#CMR17-115"/>
      <use transform="translate(413.184202 0)scale(0.996264)" xlink:href="#CMR17-101"/>
      <use transform="translate(453.669862 0)scale(0.996264)" xlink:href="#CMR17-99"/>
      <use transform="translate(494.155523 0)scale(0.996264)" xlink:href="#CMR17-111"/>
      <use transform="translate(539.846 0)scale(0.996264)" xlink:href="#CMR17-110"/>
      <use transform="translate(590.74137 0)scale(0.996264)" xlink:href="#CMR17-100"/>
      <use transform="translate(641.636739 0)scale(0.996264)" xlink:href="#CMR17-115"/>
      <use transform="translate(677.438077 0)scale(0.996264)" xlink:href="#CMR17-41"/>
     </g>
    </g>
   </g>
   <g id="line2d_21">
    <path clip-path="url(#p082c387129)" d="M 48.38794 51.134859 
L 93.478849 80.754474 
L 119.85534 96.99354 
L 138.569758 108.629491 
L 153.085789 117.774011 
L 164.946249 120.942771 
L 174.974126 120.564853 
L 183.660668 121.333609 
L 198.176698 120.171762 
L 210.037158 116.935392 
L 220.065035 117.993956 
L 228.751577 122.387105 
L 243.267607 117.513878 
L 255.128068 117.441412 
L 265.155944 115.307989 
L 273.842486 116.574774 
" style="fill:none;stroke:#93a1a1;stroke-linecap:square;stroke-width:1.5;"/>
    <defs>
     <path d="M 0 3 
C 0.795609 3 1.55874 2.683901 2.12132 2.12132 
C 2.683901 1.55874 3 0.795609 3 0 
C 3 -0.795609 2.683901 -1.55874 2.12132 -2.12132 
C 1.55874 -2.683901 0.795609 -3 0 -3 
C -0.795609 -3 -1.55874 -2.683901 -2.12132 -2.12132 
C -2.683901 -1.55874 -3 -0.795609 -3 0 
C -3 0.795609 -2.683901 1.55874 -2.12132 2.12132 
C -1.55874 2.683901 -0.795609 3 0 3 
z
" id="mcefcaded89" style="stroke:#93a1a1;"/>
    </defs>
    <g clip-path="url(#p082c387129)">
     <use style="fill:#93a1a1;stroke:#93a1a1;" x="48.38794" xlink:href="#mcefcaded89" y="51.134859"/>
     <use style="fill:#93a1a1;stroke:#93a1a1;" x="93.478849" xlink:href="#mcefcaded89" y="80.754474"/>
     <use style="fill:#93a1a1;stroke:#93a1a1;" x="119.85534" xlink:href="#mcefcaded89" y="96.99354"/>
     <use style="fill:#93a1a1;stroke:#93a1a1;" x="138.569758" xlink:href="#mcefcaded89" y="108.629491"/>
     <use style="fill:#93a1a1;stroke:#93a1a1;" x="153.085789" xlink:href="#mcefcaded89" y="117.774011"/>
     <use style="fill:#93a1a1;stroke:#93a1a1;" x="164.946249" xlink:href="#mcefcaded89" y="120.942771"/>
     <use style="fill:#93a1a1;stroke:#93a1a1;" x="174.974126" xlink:href="#mcefcaded89" y="120.564853"/>
     <use style="fill:#93a1a1;stroke:#93a1a1;" x="183.660668" xlink:href="#mcefcaded89" y="121.333609"/>
     <use style="fill:#93a1a1;stroke:#93a1a1;" x="198.176698" xlink:href="#mcefcaded89" y="120.171762"/>
     <use style="fill:#93a1a1;stroke:#93a1a1;" x="210.037158" xlink:href="#mcefcaded89" y="116.935392"/>
     <use style="fill:#93a1a1;stroke:#93a1a1;" x="220.065035" xlink:href="#mcefcaded89" y="117.993956"/>
     <use style="fill:#93a1a1;stroke:#93a1a1;" x="228.751577" xlink:href="#mcefcaded89" y="122.387105"/>
     <use style="fill:#93a1a1;stroke:#93a1a1;" x="243.267607" xlink:href="#mcefcaded89" y="117.513878"/>
     <use style="fill:#93a1a1;stroke:#93a1a1;" x="255.128068" xlink:href="#mcefcaded89" y="117.441412"/>
     <use style="fill:#93a1a1;stroke:#93a1a1;" x="265.155944" xlink:href="#mcefcaded89" y="115.307989"/>
     <use style="fill:#93a1a1;stroke:#93a1a1;" x="273.842486" xlink:href="#mcefcaded89" y="116.574774"/>
    </g>
   </g>
   <g id="line2d_22">
    <path clip-path="url(#p082c387129)" d="M 48.38794 47.104477 
L 93.478849 87.495893 
L 119.85534 95.124501 
L 138.569758 107.43495 
L 153.085789 113.937054 
L 164.946249 123.053278 
L 174.974126 130.670716 
L 183.660668 134.071457 
L 198.176698 138.84045 
L 210.037158 137.95469 
L 220.065035 140.138984 
L 228.751577 140.472223 
L 243.267607 137.382564 
L 255.128068 136.039668 
L 265.155944 138.366469 
L 273.842486 138.992012 
" style="fill:none;stroke:#073642;stroke-dasharray:1.5,2.475;stroke-dashoffset:0;stroke-width:1.5;"/>
    <defs>
     <path d="M 0 1.5 
C 0.397805 1.5 0.77937 1.341951 1.06066 1.06066 
C 1.341951 0.77937 1.5 0.397805 1.5 0 
C 1.5 -0.397805 1.341951 -0.77937 1.06066 -1.06066 
C 0.77937 -1.341951 0.397805 -1.5 0 -1.5 
C -0.397805 -1.5 -0.77937 -1.341951 -1.06066 -1.06066 
C -1.341951 -0.77937 -1.5 -0.397805 -1.5 0 
C -1.5 0.397805 -1.341951 0.77937 -1.06066 1.06066 
C -0.77937 1.341951 -0.397805 1.5 0 1.5 
z
" id="m6e9fa843ae" style="stroke:#073642;"/>
    </defs>
    <g clip-path="url(#p082c387129)">
     <use style="fill:#073642;stroke:#073642;" x="48.38794" xlink:href="#m6e9fa843ae" y="47.104477"/>
     <use style="fill:#073642;stroke:#073642;" x="93.478849" xlink:href="#m6e9fa843ae" y="87.495893"/>
     <use style="fill:#073642;stroke:#073642;" x="119.85534" xlink:href="#m6e9fa843ae" y="95.124501"/>
     <use style="fill:#073642;stroke:#073642;" x="138.569758" xlink:href="#m6e9fa843ae" y="107.43495"/>
     <use style="fill:#073642;stroke:#073642;" x="153.085789" xlink:href="#m6e9fa843ae" y="113.937054"/>
     <use style="fill:#073642;stroke:#073642;" x="164.946249" xlink:href="#m6e9fa843ae" y="123.053278"/>
     <use style="fill:#073642;stroke:#073642;" x="174.974126" xlink:href="#m6e9fa843ae" y="130.670716"/>
     <use style="fill:#073642;stroke:#073642;" x="183.660668" xlink:href="#m6e9fa843ae" y="134.071457"/>
     <use style="fill:#073642;stroke:#073642;" x="198.176698" xlink:href="#m6e9fa843ae" y="138.84045"/>
     <use style="fill:#073642;stroke:#073642;" x="210.037158" xlink:href="#m6e9fa843ae" y="137.95469"/>
     <use style="fill:#073642;stroke:#073642;" x="220.065035" xlink:href="#m6e9fa843ae" y="140.138984"/>
     <use style="fill:#073642;stroke:#073642;" x="228.751577" xlink:href="#m6e9fa843ae" y="140.472223"/>
     <use style="fill:#073642;stroke:#073642;" x="243.267607" xlink:href="#m6e9fa843ae" y="137.382564"/>
     <use style="fill:#073642;stroke:#073642;" x="255.128068" xlink:href="#m6e9fa843ae" y="136.039668"/>
     <use style="fill:#073642;stroke:#073642;" x="265.155944" xlink:href="#m6e9fa843ae" y="138.366469"/>
     <use style="fill:#073642;stroke:#073642;" x="273.842486" xlink:href="#m6e9fa843ae" y="138.992012"/>
    </g>
   </g>
   <g id="line2d_23">
    <path clip-path="url(#p082c387129)" d="M 48.38794 45.534351 
L 93.478849 83.016481 
L 119.85534 96.854804 
L 138.569758 105.008596 
L 153.085789 119.63238 
L 164.946249 125.834636 
L 174.974126 136.725074 
L 183.660668 139.062456 
L 198.176698 151.047163 
L 210.037158 155.388467 
L 220.065035 162.652855 
L 228.751577 169.46 
L 243.267607 160.148787 
L 255.128068 150.382586 
L 265.155944 153.088352 
L 273.842486 147.812814 
" style="fill:none;stroke:#93a1a1;stroke-linecap:square;stroke-width:1.5;"/>
    <defs>
     <path d="M -3 3 
L 3 3 
L 3 -3 
L -3 -3 
z
" id="m5be989713d" style="stroke:#93a1a1;stroke-linejoin:miter;"/>
    </defs>
    <g clip-path="url(#p082c387129)">
     <use style="fill:#93a1a1;stroke:#93a1a1;stroke-linejoin:miter;" x="48.38794" xlink:href="#m5be989713d" y="45.534351"/>
     <use style="fill:#93a1a1;stroke:#93a1a1;stroke-linejoin:miter;" x="93.478849" xlink:href="#m5be989713d" y="83.016481"/>
     <use style="fill:#93a1a1;stroke:#93a1a1;stroke-linejoin:miter;" x="119.85534" xlink:href="#m5be989713d" y="96.854804"/>
     <use style="fill:#93a1a1;stroke:#93a1a1;stroke-linejoin:miter;" x="138.569758" xlink:href="#m5be989713d" y="105.008596"/>
     <use style="fill:#93a1a1;stroke:#93a1a1;stroke-linejoin:miter;" x="153.085789" xlink:href="#m5be989713d" y="119.63238"/>
     <use style="fill:#93a1a1;stroke:#93a1a1;stroke-linejoin:miter;" x="164.946249" xlink:href="#m5be989713d" y="125.834636"/>
     <use style="fill:#93a1a1;stroke:#93a1a1;stroke-linejoin:miter;" x="174.974126" xlink:href="#m5be989713d" y="136.725074"/>
     <use style="fill:#93a1a1;stroke:#93a1a1;stroke-linejoin:miter;" x="183.660668" xlink:href="#m5be989713d" y="139.062456"/>
     <use style="fill:#93a1a1;stroke:#93a1a1;stroke-linejoin:miter;" x="198.176698" xlink:href="#m5be989713d" y="151.047163"/>
     <use style="fill:#93a1a1;stroke:#93a1a1;stroke-linejoin:miter;" x="210.037158" xlink:href="#m5be989713d" y="155.388467"/>
     <use style="fill:#93a1a1;stroke:#93a1a1;stroke-linejoin:miter;" x="220.065035" xlink:href="#m5be989713d" y="162.652855"/>
     <use style="fill:#93a1a1;stroke:#93a1a1;stroke-linejoin:miter;" x="228.751577" xlink:href="#m5be989713d" y="169.46"/>
     <use style="fill:#93a1a1;stroke:#93a1a1;stroke-linejoin:miter;" x="243.267607" xlink:href="#m5be989713d" y="160.148787"/>
     <use style="fill:#93a1a1;stroke:#93a1a1;stroke-linejoin:miter;" x="255.128068" xlink:href="#m5be989713d" y="150.382586"/>
     <use style="fill:#93a1a1;stroke:#93a1a1;stroke-linejoin:miter;" x="265.155944" xlink:href="#m5be989713d" y="153.088352"/>
     <use style="fill:#93a1a1;stroke:#93a1a1;stroke-linejoin:miter;" x="273.842486" xlink:href="#m5be989713d" y="147.812814"/>
    </g>
   </g>
   <g id="line2d_24">
    <path clip-path="url(#p082c387129)" d="M 48.38794 47.677752 
L 93.478849 83.736149 
L 119.85534 95.090402 
L 138.569758 107.896124 
L 153.085789 116.029578 
L 164.946249 123.389989 
L 174.974126 131.540034 
L 183.660668 138.272192 
L 198.176698 148.219132 
L 210.037158 158.597977 
L 220.065035 162.575111 
L 228.751577 161.744719 
L 243.267607 155.611005 
L 255.128068 152.892593 
L 265.155944 147.441598 
L 273.842486 141.576905 
" style="fill:none;stroke:#073642;stroke-dasharray:5.55,2.4;stroke-dashoffset:0;stroke-width:1.5;"/>
    <g clip-path="url(#p082c387129)">
     <use style="fill:#073642;stroke:#073642;" x="48.38794" xlink:href="#m6e9fa843ae" y="47.677752"/>
     <use style="fill:#073642;stroke:#073642;" x="93.478849" xlink:href="#m6e9fa843ae" y="83.736149"/>
     <use style="fill:#073642;stroke:#073642;" x="119.85534" xlink:href="#m6e9fa843ae" y="95.090402"/>
     <use style="fill:#073642;stroke:#073642;" x="138.569758" xlink:href="#m6e9fa843ae" y="107.896124"/>
     <use style="fill:#073642;stroke:#073642;" x="153.085789" xlink:href="#m6e9fa843ae" y="116.029578"/>
     <use style="fill:#073642;stroke:#073642;" x="164.946249" xlink:href="#m6e9fa843ae" y="123.389989"/>
     <use style="fill:#073642;stroke:#073642;" x="174.974126" xlink:href="#m6e9fa843ae" y="131.540034"/>
     <use style="fill:#073642;stroke:#073642;" x="183.660668" xlink:href="#m6e9fa843ae" y="138.272192"/>
     <use style="fill:#073642;stroke:#073642;" x="198.176698" xlink:href="#m6e9fa843ae" y="148.219132"/>
     <use style="fill:#073642;stroke:#073642;" x="210.037158" xlink:href="#m6e9fa843ae" y="158.597977"/>
     <use style="fill:#073642;stroke:#073642;" x="220.065035" xlink:href="#m6e9fa843ae" y="162.575111"/>
     <use style="fill:#073642;stroke:#073642;" x="228.751577" xlink:href="#m6e9fa843ae" y="161.744719"/>
     <use style="fill:#073642;stroke:#073642;" x="243.267607" xlink:href="#m6e9fa843ae" y="155.611005"/>
     <use style="fill:#073642;stroke:#073642;" x="255.128068" xlink:href="#m6e9fa843ae" y="152.892593"/>
     <use style="fill:#073642;stroke:#073642;" x="265.155944" xlink:href="#m6e9fa843ae" y="147.441598"/>
     <use style="fill:#073642;stroke:#073642;" x="273.842486" xlink:href="#m6e9fa843ae" y="141.576905"/>
    </g>
   </g>
   <g id="line2d_25">
    <path clip-path="url(#p082c387129)" d="M 48.38794 18.26 
L 93.478849 50.484024 
L 119.85534 64.06874 
L 138.569758 78.726466 
L 153.085789 88.326492 
L 164.946249 96.569274 
L 174.974126 108.613011 
L 183.660668 115.137502 
L 198.176698 131.010024 
L 210.037158 137.607226 
L 220.065035 144.726211 
L 228.751577 149.879589 
L 243.267607 144.196422 
L 255.128068 145.632513 
L 265.155944 146.482113 
L 273.842486 142.360214 
" style="fill:none;stroke:#073642;stroke-linecap:square;stroke-width:1.5;"/>
    <g clip-path="url(#p082c387129)">
     <use style="fill:#073642;stroke:#073642;" x="48.38794" xlink:href="#m6e9fa843ae" y="18.26"/>
     <use style="fill:#073642;stroke:#073642;" x="93.478849" xlink:href="#m6e9fa843ae" y="50.484024"/>
     <use style="fill:#073642;stroke:#073642;" x="119.85534" xlink:href="#m6e9fa843ae" y="64.06874"/>
     <use style="fill:#073642;stroke:#073642;" x="138.569758" xlink:href="#m6e9fa843ae" y="78.726466"/>
     <use style="fill:#073642;stroke:#073642;" x="153.085789" xlink:href="#m6e9fa843ae" y="88.326492"/>
     <use style="fill:#073642;stroke:#073642;" x="164.946249" xlink:href="#m6e9fa843ae" y="96.569274"/>
     <use style="fill:#073642;stroke:#073642;" x="174.974126" xlink:href="#m6e9fa843ae" y="108.613011"/>
     <use style="fill:#073642;stroke:#073642;" x="183.660668" xlink:href="#m6e9fa843ae" y="115.137502"/>
     <use style="fill:#073642;stroke:#073642;" x="198.176698" xlink:href="#m6e9fa843ae" y="131.010024"/>
     <use style="fill:#073642;stroke:#073642;" x="210.037158" xlink:href="#m6e9fa843ae" y="137.607226"/>
     <use style="fill:#073642;stroke:#073642;" x="220.065035" xlink:href="#m6e9fa843ae" y="144.726211"/>
     <use style="fill:#073642;stroke:#073642;" x="228.751577" xlink:href="#m6e9fa843ae" y="149.879589"/>
     <use style="fill:#073642;stroke:#073642;" x="243.267607" xlink:href="#m6e9fa843ae" y="144.196422"/>
     <use style="fill:#073642;stroke:#073642;" x="255.128068" xlink:href="#m6e9fa843ae" y="145.632513"/>
     <use style="fill:#073642;stroke:#073642;" x="265.155944" xlink:href="#m6e9fa843ae" y="146.482113"/>
     <use style="fill:#073642;stroke:#073642;" x="273.842486" xlink:href="#m6e9fa843ae" y="142.360214"/>
    </g>
   </g>
   <g id="patch_3">
    <path d="M 37.115213 177.02 
L 37.115213 10.7 
" style="fill:none;stroke:#000000;stroke-linecap:square;stroke-linejoin:miter;stroke-width:0.8;"/>
   </g>
   <g id="patch_4">
    <path d="M 285.115213 177.02 
L 285.115213 10.7 
" style="fill:none;stroke:#000000;stroke-linecap:square;stroke-linejoin:miter;stroke-width:0.8;"/>
   </g>
   <g id="patch_5">
    <path d="M 37.115213 177.02 
L 285.115213 177.02 
" style="fill:none;stroke:#000000;stroke-linecap:square;stroke-linejoin:miter;stroke-width:0.8;"/>
   </g>
   <g id="patch_6">
    <path d="M 37.115213 10.7 
L 285.115213 10.7 
" style="fill:none;stroke:#000000;stroke-linecap:square;stroke-linejoin:miter;stroke-width:0.8;"/>
   </g>
   <g id="legend_1">
    <g id="patch_7">
     <path d="M 187.233754 88.385892 
L 278.115213 88.385892 
Q 280.115213 88.385892 280.115213 86.385892 
L 280.115213 17.7 
Q 280.115213 15.7 278.115213 15.7 
L 187.233754 15.7 
Q 185.233754 15.7 185.233754 17.7 
L 185.233754 86.385892 
Q 185.233754 88.385892 187.233754 88.385892 
z
" style="fill:#ffffff;opacity:0.8;stroke:#cccccc;stroke-linejoin:miter;"/>
    </g>
    <g id="line2d_26">
     <path d="M 189.233754 23.2 
L 209.233754 23.2 
" style="fill:none;stroke:#073642;stroke-linecap:square;stroke-width:1.5;"/>
    </g>
    <g id="line2d_27">
     <g>
      <use style="fill:#073642;stroke:#073642;" x="199.233754" xlink:href="#m6e9fa843ae" y="23.2"/>
     </g>
    </g>
    <g id="text_13">
     <!-- \textsc{pipe-PR-CG} -->
     <defs>
      <path d="M 32.296875 23 
C 42.296875 23 50.703125 29.296875 50.703125 36.890625 
C 50.703125 44.09375 43.09375 51 31.59375 51 
L 4.5 51 
L 4.5 48.484375 
C 11.203125 48.484375 11.703125 47.890625 11.703125 43.796875 
L 11.703125 7.109375 
C 11.703125 3.078125 11.203125 2.5 4.5 2.5 
L 4.5 0 
C 7.40625 0.09375 13.09375 0.296875 15.296875 0.296875 
C 17.5 0.296875 23.09375 0.09375 26.09375 0 
L 26.09375 2.5 
C 19.40625 2.5 18.90625 3.078125 18.90625 7.109375 
L 18.90625 23 
z
M 18.59375 44.1875 
C 18.59375 48.1875 19.09375 48.484375 22.59375 48.484375 
L 29.5 48.484375 
C 42.09375 48.484375 42.09375 40.890625 42.09375 36.890625 
C 42.09375 33 42.09375 25.296875 29.5 25.296875 
L 18.59375 25.296875 
z
" id="CMCSC10-112"/>
      <path d="M 18.703125 43.734375 
C 18.703125 48 19.203125 48.484375 26.296875 48.484375 
L 26.296875 51 
C 22.90625 50.890625 17.703125 50.6875 15.09375 50.6875 
C 12.5 50.6875 7.296875 50.890625 3.90625 51 
L 3.90625 48.484375 
C 11 48.484375 11.5 48 11.5 43.734375 
L 11.5 7.25 
C 11.5 2.984375 11 2.5 3.90625 2.5 
L 3.90625 0 
C 7.296875 0.09375 12.5 0.296875 15.09375 0.296875 
C 17.703125 0.296875 22.90625 0.09375 26.296875 0 
L 26.296875 2.5 
C 19.203125 2.5 18.703125 2.984375 18.703125 7.25 
z
" id="CMCSC10-105"/>
      <path d="M 48.796875 50.6875 
L 4.296875 50.6875 
L 4.296875 48.1875 
C 11 48.1875 11.5 47.59375 11.5 43.515625 
L 11.5 7.125 
C 11.5 3.078125 11 2.5 4.296875 2.5 
L 4.296875 0 
L 50 0 
L 52.90625 19.171875 
L 50.40625 19.171875 
C 48.703125 7.234375 46.296875 2.5 33.5 2.5 
L 22.703125 2.5 
C 19.203125 2.5 18.703125 2.78125 18.703125 6.734375 
L 18.703125 25 
L 25.703125 25 
C 33.09375 25 34.296875 23.015625 34.296875 16.40625 
L 36.796875 16.40625 
L 36.796875 36.15625 
L 34.296875 36.15625 
C 34.296875 29.484375 33.09375 27.5 25.703125 27.5 
L 18.703125 27.5 
L 18.703125 43.90625 
C 18.703125 47.890625 19.203125 48.1875 22.703125 48.1875 
L 32.90625 48.1875 
C 44.5 48.1875 47.09375 44.703125 48.203125 33.859375 
L 50.703125 33.859375 
z
" id="CMCSC10-101"/>
      <path d="M 30.5 19 
L 30.5 24.796875 
L 2.59375 24.796875 
L 2.59375 19 
z
" id="CMCSC10-45"/>
      <path d="M 43 31.390625 
C 55.203125 31.390625 66.90625 39.171875 66.90625 49.4375 
C 66.90625 59.3125 56.296875 68 42.203125 68 
L 5.703125 68 
L 5.703125 64.890625 
L 8.09375 64.890625 
C 15.796875 64.890625 16 63.796875 16 60.203125 
L 16 7.765625 
C 16 4.1875 15.796875 3.09375 8.09375 3.09375 
L 5.703125 3.09375 
L 5.703125 0 
C 9.203125 0.296875 16.59375 0.296875 20.40625 0.296875 
C 24.203125 0.296875 31.703125 0.296875 35.203125 0 
L 35.203125 3.09375 
L 32.796875 3.09375 
C 25.09375 3.09375 24.90625 4.1875 24.90625 7.765625 
L 24.90625 31.390625 
z
M 24.59375 60.90625 
C 24.59375 64.1875 24.796875 64.890625 29.5 64.890625 
L 39.59375 64.890625 
C 56.59375 64.890625 56.59375 53.921875 56.59375 49.4375 
C 56.59375 45.15625 56.59375 34 39.59375 34 
L 24.59375 34 
z
" id="CMCSC10-80"/>
      <path d="M 24.59375 35.1875 
L 24.59375 60.921875 
C 24.59375 63.609375 24.796875 64.5 27.203125 64.796875 
C 28.09375 64.890625 31.203125 64.890625 33.203125 64.890625 
C 41.90625 64.890625 55.09375 64.890625 55.09375 50.09375 
C 55.09375 39.46875 48 35.1875 36.703125 35.1875 
z
M 47 33.890625 
C 59 36.78125 65.40625 43.34375 65.40625 50.09375 
C 65.40625 59.734375 53.203125 68 38.09375 68 
L 5.703125 68 
L 5.703125 64.890625 
L 8.09375 64.890625 
C 15.796875 64.890625 16 63.796875 16 60.21875 
L 16 7.921875 
C 16 4.359375 15.796875 3.265625 8.09375 3.265625 
L 5.703125 3.265625 
L 5.703125 0.1875 
C 9.296875 0.484375 16.40625 0.484375 20.296875 0.484375 
C 24.203125 0.484375 31.296875 0.484375 34.90625 0.1875 
L 34.90625 3.265625 
L 32.5 3.265625 
C 24.796875 3.265625 24.59375 4.359375 24.59375 7.921875 
L 24.59375 33 
L 37.09375 33 
C 42.5 33 45.703125 31.015625 47.40625 29.421875 
C 51.203125 25.75 51.203125 23.28125 51.203125 16.34375 
C 51.203125 9.5 51.203125 5.9375 55.5 2.078125 
C 59.203125 -1.109375 64.796875 -2 68.296875 -2 
C 76.296875 -2 78.203125 6.140625 78.203125 8.90625 
C 78.203125 9.5 78.203125 10.59375 76.90625 10.59375 
C 75.796875 10.59375 75.796875 9.703125 75.703125 9.015625 
C 74.90625 1.28125 70.796875 0.1875 68.703125 0.1875 
C 63.40625 0.1875 62.703125 4.65625 60.90625 16.140625 
C 59.796875 23.078125 59.40625 25.5625 56.203125 28.734375 
C 54.09375 30.90625 50.90625 32.796875 47 33.890625 
z
" id="CMCSC10-82"/>
      <path d="M 63.40625 62.0625 
C 60.09375 65.484375 54 71 43.703125 71 
C 24 71 7.203125 54.9375 7.203125 34.546875 
C 7.203125 14.046875 24 -2 43.796875 -2 
C 60.703125 -2 71.296875 11.640625 71.296875 23.59375 
C 71.296875 24.59375 71.296875 25.296875 70 25.296875 
C 68.90625 25.296875 68.90625 24.703125 68.796875 23.6875 
C 68 9.125 56.296875 1.09375 45.09375 1.09375 
C 36.296875 1.09375 17.5 6.3125 17.5 34.4375 
C 17.5 64.078125 38 67.890625 44.90625 67.890625 
C 55.59375 67.890625 65.796875 59.546875 68.09375 44.078125 
C 68.296875 42.671875 68.40625 42.375 69.703125 42.375 
C 71.296875 42.375 71.296875 42.671875 71.296875 44.78125 
L 71.296875 68.59375 
C 71.296875 70.296875 71.296875 71 70.203125 71 
C 69.796875 71 69.40625 71 68.59375 69.796875 
z
" id="CMCSC10-67"/>
      <path d="M 71.203125 68.59375 
C 71.203125 70.296875 71.203125 71 70.09375 71 
C 69.703125 71 69.296875 71 68.5 69.796875 
L 63.296875 62.125 
C 60.203125 65.109375 54.296875 71 43.703125 71 
C 23.796875 71 7.203125 54.859375 7.203125 34.859375 
C 7.203125 14.578125 23.59375 -2 43.90625 -2 
C 51.796875 -2 60.40625 0.59375 63.90625 6.609375 
C 65.203125 4.359375 69.203125 0.296875 70.296875 0.296875 
C 71.203125 0.296875 71.203125 1.09375 71.203125 2.625 
L 71.203125 20.390625 
C 71.203125 24.890625 72.296875 24.890625 78.5 24.890625 
L 78.5 28 
C 73.703125 27.796875 70.09375 27.6875 65.796875 27.6875 
C 61.703125 27.6875 52.796875 27.6875 49.203125 28 
L 49.203125 24.890625 
L 52.703125 24.890625 
C 62.296875 24.890625 62.296875 23.46875 62.296875 19.984375 
L 62.296875 13.453125 
C 62.296875 1.09375 46.796875 1.09375 45.59375 1.09375 
C 36.5 1.09375 17.5 6.40625 17.5 34.859375 
C 17.5 63.015625 36.703125 67.890625 44.90625 67.890625 
C 55.5 67.890625 65.703125 59.734375 68 44.3125 
C 68.203125 42.921875 68.296875 42.625 69.59375 42.625 
C 71.203125 42.625 71.203125 42.921875 71.203125 45 
z
" id="CMCSC10-71"/>
     </defs>
     <g transform="translate(217.233754 26.7)scale(0.1 -0.1)">
      <use transform="scale(0.996264)" xlink:href="#CMCSC10-112"/>
      <use transform="translate(55.569158 0)scale(0.996264)" xlink:href="#CMCSC10-105"/>
      <use transform="translate(85.67837 0)scale(0.996264)" xlink:href="#CMCSC10-112"/>
      <use transform="translate(141.247528 0)scale(0.996264)" xlink:href="#CMCSC10-101"/>
      <use transform="translate(196.816686 0)scale(0.996264)" xlink:href="#CMCSC10-45"/>
      <use transform="translate(234.45297 0)scale(0.996264)" xlink:href="#CMCSC10-80"/>
      <use transform="translate(308.341796 0)scale(0.996264)" xlink:href="#CMCSC10-82"/>
      <use transform="translate(388.042172 0)scale(0.996264)" xlink:href="#CMCSC10-45"/>
      <use transform="translate(425.678456 0)scale(0.996264)" xlink:href="#CMCSC10-67"/>
      <use transform="translate(503.99518 0)scale(0.996264)" xlink:href="#CMCSC10-71"/>
     </g>
    </g>
    <g id="line2d_28">
     <path d="M 189.233754 37.137178 
L 209.233754 37.137178 
" style="fill:none;stroke:#073642;stroke-dasharray:5.55,2.4;stroke-dashoffset:0;stroke-width:1.5;"/>
    </g>
    <g id="line2d_29">
     <g>
      <use style="fill:#073642;stroke:#073642;" x="199.233754" xlink:href="#m6e9fa843ae" y="37.137178"/>
     </g>
    </g>
    <g id="text_14">
     <!-- \textsc{pipe-P-CG} -->
     <g transform="translate(217.233754 40.637178)scale(0.1 -0.1)">
      <use transform="scale(0.996264)" xlink:href="#CMCSC10-112"/>
      <use transform="translate(55.569158 0)scale(0.996264)" xlink:href="#CMCSC10-105"/>
      <use transform="translate(85.67837 0)scale(0.996264)" xlink:href="#CMCSC10-112"/>
      <use transform="translate(141.247528 0)scale(0.996264)" xlink:href="#CMCSC10-101"/>
      <use transform="translate(196.816686 0)scale(0.996264)" xlink:href="#CMCSC10-45"/>
      <use transform="translate(234.45297 0)scale(0.996264)" xlink:href="#CMCSC10-80"/>
      <use transform="translate(308.341796 0)scale(0.996264)" xlink:href="#CMCSC10-45"/>
      <use transform="translate(345.97808 0)scale(0.996264)" xlink:href="#CMCSC10-67"/>
      <use transform="translate(424.294805 0)scale(0.996264)" xlink:href="#CMCSC10-71"/>
     </g>
    </g>
    <g id="line2d_30">
     <path d="M 189.233754 51.074357 
L 209.233754 51.074357 
" style="fill:none;stroke:#93a1a1;stroke-linecap:square;stroke-width:1.5;"/>
    </g>
    <g id="line2d_31">
     <g>
      <use style="fill:#93a1a1;stroke:#93a1a1;stroke-linejoin:miter;" x="199.233754" xlink:href="#m5be989713d" y="51.074357"/>
     </g>
    </g>
    <g id="text_15">
     <!-- GV-CG -->
     <defs>
      <path d="M 62.09375 19.65625 
C 62.09375 23.484375 62.40625 24 68.59375 24 
L 68.59375 26.59375 
C 66.203125 26.390625 60.796875 26.390625 58.09375 26.390625 
C 55.296875 26.390625 47.5 26.5 43.703125 26.59375 
L 43.703125 24 
L 46.703125 24 
C 55.296875 24 55.5 22.875 55.5 19.25 
L 55.5 12.59375 
C 55.5 1.5 42.5 0.59375 39.40625 0.59375 
C 29.09375 0.59375 12.203125 7.75 12.203125 34.046875 
C 12.203125 60.34375 28.796875 67.390625 38.5 67.390625 
C 49.796875 67.390625 58 57.515625 59.90625 43.515625 
C 60.09375 42.3125 60.09375 42.109375 61 42.109375 
C 62.09375 42.109375 62.09375 42.3125 62.09375 44.125 
L 62.09375 67.984375 
C 62.09375 69.796875 62 69.890625 61.40625 69.890625 
C 61 69.890625 60.90625 69.796875 60.203125 68.59375 
L 55.796875 60.140625 
C 50.90625 66.390625 44.90625 70 37.203125 70 
C 20.09375 70 4.59375 54.796875 4.59375 34.046875 
C 4.59375 13.40625 19.796875 -2 37.40625 -2 
C 45.5 -2 53.40625 0.890625 56.5 6.640625 
C 58.203125 2.515625 61 -0.3125 61.5 -0.3125 
C 62 -0.3125 62.09375 -0.203125 62.09375 1.59375 
z
" id="CMR17-71"/>
      <path d="M 59 58.78125 
C 59.90625 60.984375 61.5 65.296875 68.203125 65.390625 
L 68.203125 68 
C 65.90625 67.796875 63.296875 67.796875 60.796875 67.796875 
C 58.40625 67.796875 54.296875 67.796875 52 68 
L 52 65.390625 
C 57 65.09375 57.203125 61.59375 57.203125 60.984375 
C 57.203125 59.890625 56.90625 59.1875 56.59375 58.390625 
L 36.90625 7 
L 16.296875 60.984375 
C 16 61.6875 15.796875 62.1875 15.796875 62.6875 
C 15.796875 65.390625 19.796875 65.390625 21.90625 65.390625 
L 21.90625 68 
C 18.703125 67.796875 14 67.796875 10.703125 67.796875 
C 8.09375 67.796875 3.40625 67.796875 1 68 
L 1 65.390625 
C 6.796875 65.390625 7.90625 65 9.09375 61.796875 
L 32.90625 -0.40625 
C 33.40625 -1.8125 33.5 -2 34.59375 -2 
C 35.703125 -2 35.796875 -1.8125 36.296875 -0.40625 
z
" id="CMR17-86"/>
      <path d="M 25.5 19.59375 
L 25.5 24 
L 0.40625 24 
L 0.40625 19.59375 
z
" id="CMR17-45"/>
      <path d="M 62.09375 67.984375 
C 62.09375 69.796875 62 69.890625 61.40625 69.890625 
C 61 69.890625 60.90625 69.796875 60.203125 68.59375 
L 55.796875 60.140625 
C 50.90625 66.390625 44.90625 70 37.203125 70 
C 20.09375 70 4.59375 54.796875 4.59375 34.046875 
C 4.59375 13.078125 20.09375 -2 37.296875 -2 
C 52.59375 -2 62.09375 11.578125 62.09375 23.15625 
C 62.09375 24.171875 62.09375 24.578125 61.203125 24.578125 
C 60.40625 24.578125 60.40625 24.265625 60.296875 23.359375 
C 59.5 9.25 49.5 0.59375 38.703125 0.59375 
C 28.5 0.59375 12.203125 7.84375 12.203125 34.046875 
C 12.203125 60.34375 28.796875 67.390625 38.5 67.390625 
C 49.796875 67.390625 58 57.515625 59.90625 43.515625 
C 60.09375 42.296875 60.09375 42.109375 61 42.109375 
C 62.09375 42.109375 62.09375 42.296875 62.09375 44.125 
z
" id="CMR17-67"/>
     </defs>
     <g transform="translate(217.233754 54.574357)scale(0.1 -0.1)">
      <use transform="scale(0.996264)" xlink:href="#CMR17-71"/>
      <use transform="translate(72.355346 0)scale(0.996264)" xlink:href="#CMR17-86"/>
      <use transform="translate(141.427776 0)scale(0.996264)" xlink:href="#CMR17-45"/>
      <use transform="translate(171.503742 0)scale(0.996264)" xlink:href="#CMR17-67"/>
      <use transform="translate(238.013623 0)scale(0.996264)" xlink:href="#CMR17-71"/>
     </g>
    </g>
    <g id="line2d_32">
     <path d="M 189.233754 65.011535 
L 209.233754 65.011535 
" style="fill:none;stroke:#073642;stroke-dasharray:1.5,2.475;stroke-dashoffset:0;stroke-width:1.5;"/>
    </g>
    <g id="line2d_33">
     <g>
      <use style="fill:#073642;stroke:#073642;" x="199.233754" xlink:href="#m6e9fa843ae" y="65.011535"/>
     </g>
    </g>
    <g id="text_16">
     <!-- PR-CG -->
     <defs>
      <path d="M 39.203125 33.6875 
C 48.703125 35.59375 56.703125 42.015625 56.703125 50.046875 
C 56.703125 59.46875 46.09375 68 32.09375 68 
L 5.203125 68 
L 5.203125 65.390625 
C 12.09375 65.390625 13.203125 65.390625 13.203125 60.875 
L 13.203125 6.6875 
C 13.203125 2.1875 12.09375 2.1875 5.203125 2.1875 
L 5.203125 -0.40625 
C 8.09375 -0.203125 13.296875 -0.203125 16.40625 -0.203125 
C 19.5 -0.203125 24.703125 -0.203125 27.59375 -0.40625 
L 27.59375 2.1875 
C 20.703125 2.1875 19.59375 2.1875 19.59375 6.6875 
L 19.59375 33 
L 31.296875 33 
C 37 33 40.203125 30.6875 41.59375 29.390625 
C 45.59375 25.5 45.59375 22.796875 45.59375 16 
C 45.59375 9.296875 45.59375 5.890625 48.59375 2.5 
C 52.40625 -1.609375 57.5 -2 59.703125 -2 
C 67.09375 -2 68.203125 6.296875 68.203125 8 
C 68.203125 8.59375 68.203125 9.296875 67.296875 9.296875 
C 66.5 9.296875 66.40625 8.6875 66.40625 8.296875 
C 65.90625 1.796875 63 -0.40625 59.90625 -0.40625 
C 54.40625 -0.40625 53.796875 5.890625 53.203125 12 
C 52.90625 14.09375 52.703125 15.59375 52.5 17.796875 
C 51.90625 22.796875 51.09375 30.09375 39.203125 33.6875 
z
M 31 34.59375 
L 19.59375 34.59375 
L 19.59375 61.484375 
C 19.59375 64.890625 19.796875 65.390625 23.796875 65.390625 
L 31.09375 65.390625 
C 39.40625 65.390625 49.09375 62.484375 49.09375 50.046875 
C 49.09375 37.09375 38.5 34.59375 31 34.59375 
z
" id="CMR17-82"/>
     </defs>
     <g transform="translate(217.233754 68.511535)scale(0.1 -0.1)">
      <use transform="scale(0.996264)" xlink:href="#CMR17-80"/>
      <use transform="translate(62.586301 0)scale(0.996264)" xlink:href="#CMR17-82"/>
      <use transform="translate(130.377402 0)scale(0.996264)" xlink:href="#CMR17-45"/>
      <use transform="translate(160.453369 0)scale(0.996264)" xlink:href="#CMR17-67"/>
      <use transform="translate(226.963249 0)scale(0.996264)" xlink:href="#CMR17-71"/>
     </g>
    </g>
    <g id="line2d_34">
     <path d="M 189.233754 78.948713 
L 209.233754 78.948713 
" style="fill:none;stroke:#93a1a1;stroke-linecap:square;stroke-width:1.5;"/>
    </g>
    <g id="line2d_35">
     <g>
      <use style="fill:#93a1a1;stroke:#93a1a1;" x="199.233754" xlink:href="#mcefcaded89" y="78.948713"/>
     </g>
    </g>
    <g id="text_17">
     <!-- HS-CG -->
     <defs>
      <path d="M 56.09375 60.90625 
C 56.09375 65.390625 57.203125 65.390625 64.09375 65.390625 
L 64.09375 68 
C 61.203125 67.796875 55.90625 67.796875 52.796875 67.796875 
C 49.703125 67.796875 44.40625 67.796875 41.5 68 
L 41.5 65.390625 
C 48.40625 65.390625 49.5 65.390625 49.5 60.90625 
L 49.5 36.59375 
L 19.703125 36.59375 
L 19.703125 60.90625 
C 19.703125 65.390625 20.796875 65.390625 27.703125 65.390625 
L 27.703125 68 
C 24.796875 67.796875 19.5 67.796875 16.40625 67.796875 
C 13.296875 67.796875 8 67.796875 5.09375 68 
L 5.09375 65.390625 
C 12 65.390625 13.09375 65.390625 13.09375 60.90625 
L 13.09375 7.0625 
C 13.09375 2.59375 12 2.59375 5.09375 2.59375 
L 5.09375 0 
C 8 0.1875 13.296875 0.1875 16.40625 0.1875 
C 19.5 0.1875 24.796875 0.1875 27.703125 0 
L 27.703125 2.59375 
C 20.796875 2.59375 19.703125 2.59375 19.703125 7.0625 
L 19.703125 34 
L 49.5 34 
L 49.5 7.0625 
C 49.5 2.59375 48.40625 2.59375 41.5 2.59375 
L 41.5 0 
C 44.40625 0.1875 49.703125 0.1875 52.796875 0.1875 
C 55.90625 0.1875 61.203125 0.1875 64.09375 0 
L 64.09375 2.59375 
C 57.203125 2.59375 56.09375 2.59375 56.09375 7.0625 
z
" id="CMR17-72"/>
      <path d="M 43.796875 67.984375 
C 43.796875 69.796875 43.703125 69.890625 43.09375 69.890625 
C 42.5 69.890625 42.296875 69.484375 41.90625 68.59375 
L 38.90625 61.953125 
C 35.09375 67.5 29.296875 70 23 70 
C 12.796875 70 4.59375 61.84375 4.59375 51.578125 
C 4.59375 48.453125 5.296875 44.015625 8.703125 39.78125 
C 12.40625 35.15625 15.90625 34.34375 23.90625 32.234375 
C 26.90625 31.421875 31.90625 30.109375 32.90625 29.703125 
C 38.59375 27.296875 41.59375 21.25 41.59375 15.609375 
C 41.59375 8.34375 36.5 0.59375 27.796875 0.59375 
C 17.09375 0.59375 7.09375 6.640625 6.40625 20.75 
C 6.296875 22.359375 6.203125 22.453125 5.5 22.453125 
C 4.703125 22.453125 4.59375 22.359375 4.59375 20.34375 
L 4.59375 0 
C 4.59375 -1.8125 4.703125 -1.90625 5.296875 -1.90625 
C 6 -1.90625 6.203125 -1.40625 7.59375 1.703125 
C 7.703125 2 7.703125 2.203125 9.59375 6.03125 
C 14.59375 -0.609375 23 -2 27.796875 -2 
C 38.703125 -2 46.40625 7.140625 46.40625 17.828125 
C 46.40625 23.0625 44.5 27.09375 43.40625 28.90625 
C 39.203125 35.359375 34.703125 36.5625 29.90625 37.765625 
C 29.203125 38.078125 29 38.078125 23.40625 39.484375 
C 18 40.890625 15.703125 41.59375 13.203125 44.3125 
C 10.40625 47.4375 9.40625 50.671875 9.40625 53.890625 
C 9.40625 60.4375 14.59375 67.59375 23.09375 67.59375 
C 33.703125 67.59375 40.296875 60.03125 41.796875 47.4375 
C 42.09375 45.625 42.203125 45.53125 42.90625 45.53125 
C 43.796875 45.53125 43.796875 45.828125 43.796875 47.546875 
z
" id="CMR17-83"/>
     </defs>
     <g transform="translate(217.233754 82.448713)scale(0.1 -0.1)">
      <use transform="scale(0.996264)" xlink:href="#CMR17-72"/>
      <use transform="translate(69.07243 0)scale(0.996264)" xlink:href="#CMR17-83"/>
      <use transform="translate(119.9678 0)scale(0.996264)" xlink:href="#CMR17-45"/>
      <use transform="translate(150.043766 0)scale(0.996264)" xlink:href="#CMR17-67"/>
      <use transform="translate(216.553646 0)scale(0.996264)" xlink:href="#CMR17-71"/>
     </g>
    </g>
   </g>
  </g>
  <g id="axes_2">
   <g id="patch_8">
    <path d="M 347.115213 177.02 
L 595.115213 177.02 
L 595.115213 10.7 
L 347.115213 10.7 
z
" style="fill:#ffffff;"/>
   </g>
   <g id="matplotlib.axis_3">
    <g id="xtick_7">
     <g id="line2d_36">
      <path clip-path="url(#pcbed8103f7)" d="M 358.38794 177.02 
L 358.38794 10.7 
" style="fill:none;stroke:#b0b0b0;stroke-dasharray:0.8,1.32;stroke-dashoffset:0;stroke-width:0.8;"/>
     </g>
     <g id="line2d_37">
      <g>
       <use style="stroke:#000000;stroke-width:0.8;" x="358.38794" xlink:href="#m1d16170370" y="177.02"/>
      </g>
     </g>
     <g id="text_18">
      <!-- $2^{0}$ -->
      <g transform="translate(353.911654 190.938498)scale(0.1 -0.1)">
       <use transform="scale(0.996264)" xlink:href="#CMR17-50"/>
       <use transform="translate(45.690477 36.153639)scale(0.697382)" xlink:href="#CMR17-48"/>
      </g>
     </g>
    </g>
    <g id="xtick_8">
     <g id="line2d_38">
      <path clip-path="url(#pcbed8103f7)" d="M 403.478849 177.02 
L 403.478849 10.7 
" style="fill:none;stroke:#b0b0b0;stroke-dasharray:0.8,1.32;stroke-dashoffset:0;stroke-width:0.8;"/>
     </g>
     <g id="line2d_39">
      <g>
       <use style="stroke:#000000;stroke-width:0.8;" x="403.478849" xlink:href="#m1d16170370" y="177.02"/>
      </g>
     </g>
     <g id="text_19">
      <!-- $2^{1}$ -->
      <g transform="translate(399.002563 190.938498)scale(0.1 -0.1)">
       <use transform="scale(0.996264)" xlink:href="#CMR17-50"/>
       <use transform="translate(45.690477 36.153639)scale(0.697382)" xlink:href="#CMR17-49"/>
      </g>
     </g>
    </g>
    <g id="xtick_9">
     <g id="line2d_40">
      <path clip-path="url(#pcbed8103f7)" d="M 448.569758 177.02 
L 448.569758 10.7 
" style="fill:none;stroke:#b0b0b0;stroke-dasharray:0.8,1.32;stroke-dashoffset:0;stroke-width:0.8;"/>
     </g>
     <g id="line2d_41">
      <g>
       <use style="stroke:#000000;stroke-width:0.8;" x="448.569758" xlink:href="#m1d16170370" y="177.02"/>
      </g>
     </g>
     <g id="text_20">
      <!-- $2^{2}$ -->
      <g transform="translate(444.093472 190.938498)scale(0.1 -0.1)">
       <use transform="scale(0.996264)" xlink:href="#CMR17-50"/>
       <use transform="translate(45.690477 36.153639)scale(0.697382)" xlink:href="#CMR17-50"/>
      </g>
     </g>
    </g>
    <g id="xtick_10">
     <g id="line2d_42">
      <path clip-path="url(#pcbed8103f7)" d="M 493.660668 177.02 
L 493.660668 10.7 
" style="fill:none;stroke:#b0b0b0;stroke-dasharray:0.8,1.32;stroke-dashoffset:0;stroke-width:0.8;"/>
     </g>
     <g id="line2d_43">
      <g>
       <use style="stroke:#000000;stroke-width:0.8;" x="493.660668" xlink:href="#m1d16170370" y="177.02"/>
      </g>
     </g>
     <g id="text_21">
      <!-- $2^{3}$ -->
      <g transform="translate(489.184381 190.938498)scale(0.1 -0.1)">
       <use transform="scale(0.996264)" xlink:href="#CMR17-50"/>
       <use transform="translate(45.690477 36.153639)scale(0.697382)" xlink:href="#CMR17-51"/>
      </g>
     </g>
    </g>
    <g id="xtick_11">
     <g id="line2d_44">
      <path clip-path="url(#pcbed8103f7)" d="M 538.751577 177.02 
L 538.751577 10.7 
" style="fill:none;stroke:#b0b0b0;stroke-dasharray:0.8,1.32;stroke-dashoffset:0;stroke-width:0.8;"/>
     </g>
     <g id="line2d_45">
      <g>
       <use style="stroke:#000000;stroke-width:0.8;" x="538.751577" xlink:href="#m1d16170370" y="177.02"/>
      </g>
     </g>
     <g id="text_22">
      <!-- $2^{4}$ -->
      <g transform="translate(534.27529 190.938498)scale(0.1 -0.1)">
       <use transform="scale(0.996264)" xlink:href="#CMR17-50"/>
       <use transform="translate(45.690477 36.153639)scale(0.697382)" xlink:href="#CMR17-52"/>
      </g>
     </g>
    </g>
    <g id="xtick_12">
     <g id="line2d_46">
      <path clip-path="url(#pcbed8103f7)" d="M 583.842486 177.02 
L 583.842486 10.7 
" style="fill:none;stroke:#b0b0b0;stroke-dasharray:0.8,1.32;stroke-dashoffset:0;stroke-width:0.8;"/>
     </g>
     <g id="line2d_47">
      <g>
       <use style="stroke:#000000;stroke-width:0.8;" x="583.842486" xlink:href="#m1d16170370" y="177.02"/>
      </g>
     </g>
     <g id="text_23">
      <!-- $2^{5}$ -->
      <g transform="translate(579.366199 190.938498)scale(0.1 -0.1)">
       <use transform="scale(0.996264)" xlink:href="#CMR17-50"/>
       <use transform="translate(45.690477 36.153639)scale(0.697382)" xlink:href="#CMR17-53"/>
      </g>
     </g>
    </g>
    <g id="text_24">
     <!-- number of nodes ($\times 14$ MPI processes/node) -->
     <g transform="translate(374.740329 204.347657)scale(0.1 -0.1)">
      <use transform="scale(0.996264)" xlink:href="#CMR17-110"/>
      <use transform="translate(48.292916 0)scale(0.996264)" xlink:href="#CMR17-117"/>
      <use transform="translate(99.188286 0)scale(0.996264)" xlink:href="#CMR17-109"/>
      <use transform="translate(173.505422 0)scale(0.996264)" xlink:href="#CMR17-98"/>
      <use transform="translate(227.00323 0)scale(0.996264)" xlink:href="#CMR17-101"/>
      <use transform="translate(267.488891 0)scale(0.996264)" xlink:href="#CMR17-114"/>
      <use transform="translate(332.845625 0)scale(0.996264)" xlink:href="#CMR17-111"/>
      <use transform="translate(378.536102 0)scale(0.996264)" xlink:href="#CMR17-102"/>
      <use transform="translate(436.085581 0)scale(0.996264)" xlink:href="#CMR17-110"/>
      <use transform="translate(486.98095 0)scale(0.996264)" xlink:href="#CMR17-111"/>
      <use transform="translate(535.273866 0)scale(0.996264)" xlink:href="#CMR17-100"/>
      <use transform="translate(586.169236 0)scale(0.996264)" xlink:href="#CMR17-101"/>
      <use transform="translate(626.654896 0)scale(0.996264)" xlink:href="#CMR17-115"/>
      <use transform="translate(692.5322 0)scale(0.996264)" xlink:href="#CMR17-40"/>
      <use transform="translate(727.812968 0)scale(0.996264)" xlink:href="#CMSY10-2"/>
      <use transform="translate(805.300436 0)scale(0.996264)" xlink:href="#CMR17-49"/>
      <use transform="translate(850.990913 0)scale(0.996264)" xlink:href="#CMR17-52"/>
      <use transform="translate(926.757356 0)scale(0.996264)" xlink:href="#CMR17-77"/>
      <use transform="translate(1011.444297 0)scale(0.996264)" xlink:href="#CMR17-80"/>
      <use transform="translate(1074.030598 0)scale(0.996264)" xlink:href="#CMR17-73"/>
      <use transform="translate(1136.744973 0)scale(0.996264)" xlink:href="#CMR17-112"/>
      <use transform="translate(1187.640343 0)scale(0.996264)" xlink:href="#CMR17-114"/>
      <use transform="translate(1222.921111 0)scale(0.996264)" xlink:href="#CMR17-111"/>
      <use transform="translate(1271.214027 0)scale(0.996264)" xlink:href="#CMR17-99"/>
      <use transform="translate(1311.699687 0)scale(0.996264)" xlink:href="#CMR17-101"/>
      <use transform="translate(1352.185347 0)scale(0.996264)" xlink:href="#CMR17-115"/>
      <use transform="translate(1387.986685 0)scale(0.996264)" xlink:href="#CMR17-115"/>
      <use transform="translate(1423.788023 0)scale(0.996264)" xlink:href="#CMR17-101"/>
      <use transform="translate(1464.273683 0)scale(0.996264)" xlink:href="#CMR17-115"/>
      <use transform="translate(1500.075021 0)scale(0.996264)" xlink:href="#CMR17-47"/>
      <use transform="translate(1545.765498 0)scale(0.996264)" xlink:href="#CMR17-110"/>
      <use transform="translate(1596.660868 0)scale(0.996264)" xlink:href="#CMR17-111"/>
      <use transform="translate(1644.953784 0)scale(0.996264)" xlink:href="#CMR17-100"/>
      <use transform="translate(1695.849153 0)scale(0.996264)" xlink:href="#CMR17-101"/>
      <use transform="translate(1736.334814 0)scale(0.996264)" xlink:href="#CMR17-41"/>
     </g>
    </g>
   </g>
   <g id="matplotlib.axis_4">
    <g id="ytick_5">
     <g id="line2d_48">
      <path clip-path="url(#pcbed8103f7)" d="M 347.115213 162.858655 
L 595.115213 162.858655 
" style="fill:none;stroke:#b0b0b0;stroke-dasharray:0.8,1.32;stroke-dashoffset:0;stroke-width:0.8;"/>
     </g>
     <g id="line2d_49">
      <g>
       <use style="stroke:#000000;stroke-width:0.8;" x="347.115213" xlink:href="#mee02b53323" y="162.858655"/>
      </g>
     </g>
     <g id="text_25">
      <!-- $2^{0}$ -->
      <g transform="translate(331.16264 166.317905)scale(0.1 -0.1)">
       <use transform="scale(0.996264)" xlink:href="#CMR17-50"/>
       <use transform="translate(45.690477 36.153639)scale(0.697382)" xlink:href="#CMR17-48"/>
      </g>
     </g>
    </g>
    <g id="ytick_6">
     <g id="line2d_50">
      <path clip-path="url(#pcbed8103f7)" d="M 347.115213 128.738017 
L 595.115213 128.738017 
" style="fill:none;stroke:#b0b0b0;stroke-dasharray:0.8,1.32;stroke-dashoffset:0;stroke-width:0.8;"/>
     </g>
     <g id="line2d_51">
      <g>
       <use style="stroke:#000000;stroke-width:0.8;" x="347.115213" xlink:href="#mee02b53323" y="128.738017"/>
      </g>
     </g>
     <g id="text_26">
      <!-- $2^{1}$ -->
      <g transform="translate(331.16264 132.197266)scale(0.1 -0.1)">
       <use transform="scale(0.996264)" xlink:href="#CMR17-50"/>
       <use transform="translate(45.690477 36.153639)scale(0.697382)" xlink:href="#CMR17-49"/>
      </g>
     </g>
    </g>
    <g id="ytick_7">
     <g id="line2d_52">
      <path clip-path="url(#pcbed8103f7)" d="M 347.115213 94.617378 
L 595.115213 94.617378 
" style="fill:none;stroke:#b0b0b0;stroke-dasharray:0.8,1.32;stroke-dashoffset:0;stroke-width:0.8;"/>
     </g>
     <g id="line2d_53">
      <g>
       <use style="stroke:#000000;stroke-width:0.8;" x="347.115213" xlink:href="#mee02b53323" y="94.617378"/>
      </g>
     </g>
     <g id="text_27">
      <!-- $2^{2}$ -->
      <g transform="translate(331.16264 98.076627)scale(0.1 -0.1)">
       <use transform="scale(0.996264)" xlink:href="#CMR17-50"/>
       <use transform="translate(45.690477 36.153639)scale(0.697382)" xlink:href="#CMR17-50"/>
      </g>
     </g>
    </g>
    <g id="ytick_8">
     <g id="line2d_54">
      <path clip-path="url(#pcbed8103f7)" d="M 347.115213 60.496739 
L 595.115213 60.496739 
" style="fill:none;stroke:#b0b0b0;stroke-dasharray:0.8,1.32;stroke-dashoffset:0;stroke-width:0.8;"/>
     </g>
     <g id="line2d_55">
      <g>
       <use style="stroke:#000000;stroke-width:0.8;" x="347.115213" xlink:href="#mee02b53323" y="60.496739"/>
      </g>
     </g>
     <g id="text_28">
      <!-- $2^{3}$ -->
      <g transform="translate(331.16264 63.955988)scale(0.1 -0.1)">
       <use transform="scale(0.996264)" xlink:href="#CMR17-50"/>
       <use transform="translate(45.690477 36.153639)scale(0.697382)" xlink:href="#CMR17-51"/>
      </g>
     </g>
    </g>
    <g id="ytick_9">
     <g id="line2d_56">
      <path clip-path="url(#pcbed8103f7)" d="M 347.115213 26.3761 
L 595.115213 26.3761 
" style="fill:none;stroke:#b0b0b0;stroke-dasharray:0.8,1.32;stroke-dashoffset:0;stroke-width:0.8;"/>
     </g>
     <g id="line2d_57">
      <g>
       <use style="stroke:#000000;stroke-width:0.8;" x="347.115213" xlink:href="#mee02b53323" y="26.3761"/>
      </g>
     </g>
     <g id="text_29">
      <!-- $2^{4}$ -->
      <g transform="translate(331.16264 29.835349)scale(0.1 -0.1)">
       <use transform="scale(0.996264)" xlink:href="#CMR17-50"/>
       <use transform="translate(45.690477 36.153639)scale(0.697382)" xlink:href="#CMR17-52"/>
      </g>
     </g>
    </g>
    <g id="text_30">
     <!-- $\times$ speedup over single node -->
     <defs>
      <path d="M 39.09375 33.953125 
C 40 36.171875 41.59375 40.1875 47.40625 40.390625 
L 47.40625 43 
C 45.5 42.890625 43 42.796875 41.09375 42.796875 
C 39 42.796875 35.703125 42.796875 33.703125 43 
L 33.703125 40.390625 
C 36.203125 40.1875 37.59375 38.984375 37.59375 36.375 
C 37.59375 35.46875 37.59375 35.265625 37 33.859375 
L 26 5.921875 
L 14.09375 36.0625 
C 13.5 37.375 13.5 37.578125 13.5 37.984375 
C 13.5 40.390625 16.796875 40.390625 18.296875 40.390625 
L 18.296875 43 
C 15.90625 42.796875 11.5 42.796875 9 42.796875 
C 6.296875 42.796875 3.203125 42.796875 1 43 
L 1 40.390625 
C 4.796875 40.390625 6.90625 40.390625 8.09375 37.28125 
L 22.59375 0.6875 
C 23.203125 -0.8125 23.296875 -1 24.203125 -1 
C 25.09375 -1 25.203125 -0.8125 25.796875 0.6875 
z
" id="CMR17-118"/>
      <path d="M 11.09375 18.203125 
C 13 16.6875 16.296875 15 20.296875 15 
C 28.203125 15 35 21.234375 35 29.609375 
C 35 32.234375 34.203125 36.265625 31.203125 39.390625 
C 34 42.390625 38.09375 43.390625 40.40625 43.390625 
C 40.796875 43.390625 41.40625 43.390625 41.90625 43.09375 
C 41.5 42.984375 40.59375 42.59375 40.59375 40.984375 
C 40.59375 39.6875 41.5 38.796875 42.796875 38.796875 
C 44.296875 38.796875 45.09375 39.796875 45.09375 41.09375 
C 45.09375 42.984375 43.59375 45 40.40625 45 
C 36.40625 45 32.90625 43.09375 30.09375 40.484375 
C 27.09375 43.1875 23.5 44.1875 20.296875 44.1875 
C 12.40625 44.1875 5.59375 37.984375 5.59375 29.609375 
C 5.59375 23.859375 8.90625 20.21875 9.90625 19.21875 
C 6.90625 15.6875 6.90625 11.59375 6.90625 11.09375 
C 6.90625 8.5 7.90625 4.6875 11.296875 2.59375 
C 6.09375 1.28125 2 -2.875 2 -8.078125 
C 2 -15.5625 11.5 -21 22.90625 -21 
C 33.90625 -21 43.796875 -15.765625 43.796875 -7.96875 
C 43.796875 6 29 6 21.296875 6 
C 19 6 14.90625 6 14.40625 6.09375 
C 11.296875 6.59375 9.203125 9.390625 9.203125 12.890625 
C 9.203125 13.796875 9.203125 16 11.09375 18.203125 
z
M 20.296875 16.6875 
C 11.5 16.6875 11.5 27.59375 11.5 29.609375 
C 11.5 31.625 11.5 42.484375 20.296875 42.484375 
C 29.09375 42.484375 29.09375 31.625 29.09375 29.609375 
C 29.09375 27.59375 29.09375 16.6875 20.296875 16.6875 
z
M 22.90625 -19.3125 
C 12.90625 -19.3125 6 -13.796875 6 -8.078125 
C 6 -4.859375 7.703125 -1.84375 9.90625 -0.171875 
C 12.40625 1.59375 13.40625 1.59375 20.203125 1.59375 
C 28.40625 1.59375 39.796875 1.59375 39.796875 -8.078125 
C 39.796875 -13.796875 32.90625 -19.3125 22.90625 -19.3125 
z
" id="CMR17-103"/>
      <path d="M 15.296875 69 
L 3.40625 67.890625 
L 3.40625 65.296875 
C 9.296875 65.296875 10.203125 64.703125 10.203125 59.921875 
L 10.203125 6.859375 
C 10.203125 3.09375 9.796875 2.59375 3.40625 2.59375 
L 3.40625 0 
C 5.796875 0.1875 10.203125 0.1875 12.703125 0.1875 
C 15.296875 0.1875 19.703125 0.1875 22.09375 0 
L 22.09375 2.59375 
C 15.703125 2.59375 15.296875 2.984375 15.296875 6.859375 
z
" id="CMR17-108"/>
     </defs>
     <g transform="translate(325.225462 153.566756)rotate(-90)scale(0.1 -0.1)">
      <use transform="scale(0.996264)" xlink:href="#CMSY10-2"/>
      <use transform="translate(107.563434 0)scale(0.996264)" xlink:href="#CMR17-115"/>
      <use transform="translate(143.364772 0)scale(0.996264)" xlink:href="#CMR17-112"/>
      <use transform="translate(196.86258 0)scale(0.996264)" xlink:href="#CMR17-101"/>
      <use transform="translate(237.348241 0)scale(0.996264)" xlink:href="#CMR17-101"/>
      <use transform="translate(277.833901 0)scale(0.996264)" xlink:href="#CMR17-100"/>
      <use transform="translate(328.729271 0)scale(0.996264)" xlink:href="#CMR17-117"/>
      <use transform="translate(379.624641 0)scale(0.996264)" xlink:href="#CMR17-112"/>
      <use transform="translate(460.595977 0)scale(0.996264)" xlink:href="#CMR17-111"/>
      <use transform="translate(503.684 0)scale(0.996264)" xlink:href="#CMR17-118"/>
      <use transform="translate(549.374462 0)scale(0.996264)" xlink:href="#CMR17-101"/>
      <use transform="translate(589.860122 0)scale(0.996264)" xlink:href="#CMR17-114"/>
      <use transform="translate(655.216856 0)scale(0.996264)" xlink:href="#CMR17-115"/>
      <use transform="translate(691.018194 0)scale(0.996264)" xlink:href="#CMR17-105"/>
      <use transform="translate(715.889253 0)scale(0.996264)" xlink:href="#CMR17-110"/>
      <use transform="translate(766.784622 0)scale(0.996264)" xlink:href="#CMR17-103"/>
      <use transform="translate(812.475099 0)scale(0.996264)" xlink:href="#CMR17-108"/>
      <use transform="translate(837.346158 0)scale(0.996264)" xlink:href="#CMR17-101"/>
      <use transform="translate(907.907785 0)scale(0.996264)" xlink:href="#CMR17-110"/>
      <use transform="translate(958.803155 0)scale(0.996264)" xlink:href="#CMR17-111"/>
      <use transform="translate(1007.09607 0)scale(0.996264)" xlink:href="#CMR17-100"/>
      <use transform="translate(1057.99144 0)scale(0.996264)" xlink:href="#CMR17-101"/>
     </g>
    </g>
   </g>
   <g id="line2d_58">
    <path clip-path="url(#pcbed8103f7)" d="M 358.38794 162.858655 
L 403.478849 135.467859 
L 429.85534 120.450752 
L 448.569758 109.690383 
L 463.085789 101.233971 
L 474.946249 98.303653 
L 484.974126 98.653134 
L 493.660668 97.942225 
L 508.176698 99.016645 
L 520.037158 102.009485 
L 530.065035 101.030576 
L 538.751577 96.968003 
L 553.267607 101.474529 
L 565.128068 101.541542 
L 575.155944 103.514429 
L 583.842486 102.342967 
" style="fill:none;stroke:#93a1a1;stroke-linecap:square;stroke-width:1.5;"/>
    <g clip-path="url(#pcbed8103f7)">
     <use style="fill:#93a1a1;stroke:#93a1a1;" x="358.38794" xlink:href="#mcefcaded89" y="162.858655"/>
     <use style="fill:#93a1a1;stroke:#93a1a1;" x="403.478849" xlink:href="#mcefcaded89" y="135.467859"/>
     <use style="fill:#93a1a1;stroke:#93a1a1;" x="429.85534" xlink:href="#mcefcaded89" y="120.450752"/>
     <use style="fill:#93a1a1;stroke:#93a1a1;" x="448.569758" xlink:href="#mcefcaded89" y="109.690383"/>
     <use style="fill:#93a1a1;stroke:#93a1a1;" x="463.085789" xlink:href="#mcefcaded89" y="101.233971"/>
     <use style="fill:#93a1a1;stroke:#93a1a1;" x="474.946249" xlink:href="#mcefcaded89" y="98.303653"/>
     <use style="fill:#93a1a1;stroke:#93a1a1;" x="484.974126" xlink:href="#mcefcaded89" y="98.653134"/>
     <use style="fill:#93a1a1;stroke:#93a1a1;" x="493.660668" xlink:href="#mcefcaded89" y="97.942225"/>
     <use style="fill:#93a1a1;stroke:#93a1a1;" x="508.176698" xlink:href="#mcefcaded89" y="99.016645"/>
     <use style="fill:#93a1a1;stroke:#93a1a1;" x="520.037158" xlink:href="#mcefcaded89" y="102.009485"/>
     <use style="fill:#93a1a1;stroke:#93a1a1;" x="530.065035" xlink:href="#mcefcaded89" y="101.030576"/>
     <use style="fill:#93a1a1;stroke:#93a1a1;" x="538.751577" xlink:href="#mcefcaded89" y="96.968003"/>
     <use style="fill:#93a1a1;stroke:#93a1a1;" x="553.267607" xlink:href="#mcefcaded89" y="101.474529"/>
     <use style="fill:#93a1a1;stroke:#93a1a1;" x="565.128068" xlink:href="#mcefcaded89" y="101.541542"/>
     <use style="fill:#93a1a1;stroke:#93a1a1;" x="575.155944" xlink:href="#mcefcaded89" y="103.514429"/>
     <use style="fill:#93a1a1;stroke:#93a1a1;" x="583.842486" xlink:href="#mcefcaded89" y="102.342967"/>
    </g>
   </g>
   <g id="line2d_59">
    <path clip-path="url(#pcbed8103f7)" d="M 358.38794 162.858655 
L 403.478849 125.506615 
L 429.85534 118.452045 
L 448.569758 107.067933 
L 463.085789 101.0551 
L 474.946249 92.624854 
L 484.974126 85.580614 
L 493.660668 82.435772 
L 508.176698 78.025636 
L 520.037158 78.844744 
L 530.065035 76.824814 
L 538.751577 76.516651 
L 553.267607 79.373819 
L 565.128068 80.615665 
L 575.155944 78.463951 
L 583.842486 77.885479 
" style="fill:none;stroke:#073642;stroke-dasharray:1.5,2.475;stroke-dashoffset:0;stroke-width:1.5;"/>
    <g clip-path="url(#pcbed8103f7)">
     <use style="fill:#073642;stroke:#073642;" x="358.38794" xlink:href="#m6e9fa843ae" y="162.858655"/>
     <use style="fill:#073642;stroke:#073642;" x="403.478849" xlink:href="#m6e9fa843ae" y="125.506615"/>
     <use style="fill:#073642;stroke:#073642;" x="429.85534" xlink:href="#m6e9fa843ae" y="118.452045"/>
     <use style="fill:#073642;stroke:#073642;" x="448.569758" xlink:href="#m6e9fa843ae" y="107.067933"/>
     <use style="fill:#073642;stroke:#073642;" x="463.085789" xlink:href="#m6e9fa843ae" y="101.0551"/>
     <use style="fill:#073642;stroke:#073642;" x="474.946249" xlink:href="#m6e9fa843ae" y="92.624854"/>
     <use style="fill:#073642;stroke:#073642;" x="484.974126" xlink:href="#m6e9fa843ae" y="85.580614"/>
     <use style="fill:#073642;stroke:#073642;" x="493.660668" xlink:href="#m6e9fa843ae" y="82.435772"/>
     <use style="fill:#073642;stroke:#073642;" x="508.176698" xlink:href="#m6e9fa843ae" y="78.025636"/>
     <use style="fill:#073642;stroke:#073642;" x="520.037158" xlink:href="#m6e9fa843ae" y="78.844744"/>
     <use style="fill:#073642;stroke:#073642;" x="530.065035" xlink:href="#m6e9fa843ae" y="76.824814"/>
     <use style="fill:#073642;stroke:#073642;" x="538.751577" xlink:href="#m6e9fa843ae" y="76.516651"/>
     <use style="fill:#073642;stroke:#073642;" x="553.267607" xlink:href="#m6e9fa843ae" y="79.373819"/>
     <use style="fill:#073642;stroke:#073642;" x="565.128068" xlink:href="#m6e9fa843ae" y="80.615665"/>
     <use style="fill:#073642;stroke:#073642;" x="575.155944" xlink:href="#m6e9fa843ae" y="78.463951"/>
     <use style="fill:#073642;stroke:#073642;" x="583.842486" xlink:href="#m6e9fa843ae" y="77.885479"/>
    </g>
   </g>
   <g id="line2d_60">
    <path clip-path="url(#pcbed8103f7)" d="M 358.38794 162.858655 
L 403.478849 128.196984 
L 429.85534 115.399967 
L 448.569758 107.859732 
L 463.085789 94.336359 
L 474.946249 88.600811 
L 484.974126 78.529857 
L 493.660668 76.368359 
L 508.176698 65.285478 
L 520.037158 61.270849 
L 530.065035 54.553092 
L 538.751577 48.258171 
L 553.267607 56.868734 
L 565.128068 65.900047 
L 575.155944 63.397885 
L 583.842486 68.276448 
" style="fill:none;stroke:#93a1a1;stroke-linecap:square;stroke-width:1.5;"/>
    <g clip-path="url(#pcbed8103f7)">
     <use style="fill:#93a1a1;stroke:#93a1a1;stroke-linejoin:miter;" x="358.38794" xlink:href="#m5be989713d" y="162.858655"/>
     <use style="fill:#93a1a1;stroke:#93a1a1;stroke-linejoin:miter;" x="403.478849" xlink:href="#m5be989713d" y="128.196984"/>
     <use style="fill:#93a1a1;stroke:#93a1a1;stroke-linejoin:miter;" x="429.85534" xlink:href="#m5be989713d" y="115.399967"/>
     <use style="fill:#93a1a1;stroke:#93a1a1;stroke-linejoin:miter;" x="448.569758" xlink:href="#m5be989713d" y="107.859732"/>
     <use style="fill:#93a1a1;stroke:#93a1a1;stroke-linejoin:miter;" x="463.085789" xlink:href="#m5be989713d" y="94.336359"/>
     <use style="fill:#93a1a1;stroke:#93a1a1;stroke-linejoin:miter;" x="474.946249" xlink:href="#m5be989713d" y="88.600811"/>
     <use style="fill:#93a1a1;stroke:#93a1a1;stroke-linejoin:miter;" x="484.974126" xlink:href="#m5be989713d" y="78.529857"/>
     <use style="fill:#93a1a1;stroke:#93a1a1;stroke-linejoin:miter;" x="493.660668" xlink:href="#m5be989713d" y="76.368359"/>
     <use style="fill:#93a1a1;stroke:#93a1a1;stroke-linejoin:miter;" x="508.176698" xlink:href="#m5be989713d" y="65.285478"/>
     <use style="fill:#93a1a1;stroke:#93a1a1;stroke-linejoin:miter;" x="520.037158" xlink:href="#m5be989713d" y="61.270849"/>
     <use style="fill:#93a1a1;stroke:#93a1a1;stroke-linejoin:miter;" x="530.065035" xlink:href="#m5be989713d" y="54.553092"/>
     <use style="fill:#93a1a1;stroke:#93a1a1;stroke-linejoin:miter;" x="538.751577" xlink:href="#m5be989713d" y="48.258171"/>
     <use style="fill:#93a1a1;stroke:#93a1a1;stroke-linejoin:miter;" x="553.267607" xlink:href="#m5be989713d" y="56.868734"/>
     <use style="fill:#93a1a1;stroke:#93a1a1;stroke-linejoin:miter;" x="565.128068" xlink:href="#m5be989713d" y="65.900047"/>
     <use style="fill:#93a1a1;stroke:#93a1a1;stroke-linejoin:miter;" x="575.155944" xlink:href="#m5be989713d" y="63.397885"/>
     <use style="fill:#93a1a1;stroke:#93a1a1;stroke-linejoin:miter;" x="583.842486" xlink:href="#m5be989713d" y="68.276448"/>
    </g>
   </g>
   <g id="line2d_61">
    <path clip-path="url(#pcbed8103f7)" d="M 358.38794 162.858655 
L 403.478849 129.513583 
L 429.85534 119.013716 
L 448.569758 107.171599 
L 463.085789 99.650171 
L 474.946249 92.843617 
L 484.974126 85.306847 
L 493.660668 79.081272 
L 508.176698 69.882819 
L 520.037158 60.284962 
L 530.065035 56.6071 
L 538.751577 57.375006 
L 553.267607 63.047171 
L 565.128068 65.561027 
L 575.155944 70.601845 
L 583.842486 76.025232 
" style="fill:none;stroke:#073642;stroke-dasharray:5.55,2.4;stroke-dashoffset:0;stroke-width:1.5;"/>
    <g clip-path="url(#pcbed8103f7)">
     <use style="fill:#073642;stroke:#073642;" x="358.38794" xlink:href="#m6e9fa843ae" y="162.858655"/>
     <use style="fill:#073642;stroke:#073642;" x="403.478849" xlink:href="#m6e9fa843ae" y="129.513583"/>
     <use style="fill:#073642;stroke:#073642;" x="429.85534" xlink:href="#m6e9fa843ae" y="119.013716"/>
     <use style="fill:#073642;stroke:#073642;" x="448.569758" xlink:href="#m6e9fa843ae" y="107.171599"/>
     <use style="fill:#073642;stroke:#073642;" x="463.085789" xlink:href="#m6e9fa843ae" y="99.650171"/>
     <use style="fill:#073642;stroke:#073642;" x="474.946249" xlink:href="#m6e9fa843ae" y="92.843617"/>
     <use style="fill:#073642;stroke:#073642;" x="484.974126" xlink:href="#m6e9fa843ae" y="85.306847"/>
     <use style="fill:#073642;stroke:#073642;" x="493.660668" xlink:href="#m6e9fa843ae" y="79.081272"/>
     <use style="fill:#073642;stroke:#073642;" x="508.176698" xlink:href="#m6e9fa843ae" y="69.882819"/>
     <use style="fill:#073642;stroke:#073642;" x="520.037158" xlink:href="#m6e9fa843ae" y="60.284962"/>
     <use style="fill:#073642;stroke:#073642;" x="530.065035" xlink:href="#m6e9fa843ae" y="56.6071"/>
     <use style="fill:#073642;stroke:#073642;" x="538.751577" xlink:href="#m6e9fa843ae" y="57.375006"/>
     <use style="fill:#073642;stroke:#073642;" x="553.267607" xlink:href="#m6e9fa843ae" y="63.047171"/>
     <use style="fill:#073642;stroke:#073642;" x="565.128068" xlink:href="#m6e9fa843ae" y="65.561027"/>
     <use style="fill:#073642;stroke:#073642;" x="575.155944" xlink:href="#m6e9fa843ae" y="70.601845"/>
     <use style="fill:#073642;stroke:#073642;" x="583.842486" xlink:href="#m6e9fa843ae" y="76.025232"/>
    </g>
   </g>
   <g id="line2d_62">
    <path clip-path="url(#pcbed8103f7)" d="M 358.38794 162.858655 
L 403.478849 133.059427 
L 429.85534 120.496935 
L 448.569758 106.942174 
L 463.085789 98.064531 
L 474.946249 90.442002 
L 484.974126 79.304533 
L 493.660668 73.270997 
L 508.176698 58.592852 
L 520.037158 52.492077 
L 530.065035 45.908782 
L 538.751577 41.143185 
L 553.267607 46.398705 
L 565.128068 45.070676 
L 575.155944 44.285008 
L 583.842486 48.096741 
" style="fill:none;stroke:#073642;stroke-linecap:square;stroke-width:1.5;"/>
    <g clip-path="url(#pcbed8103f7)">
     <use style="fill:#073642;stroke:#073642;" x="358.38794" xlink:href="#m6e9fa843ae" y="162.858655"/>
     <use style="fill:#073642;stroke:#073642;" x="403.478849" xlink:href="#m6e9fa843ae" y="133.059427"/>
     <use style="fill:#073642;stroke:#073642;" x="429.85534" xlink:href="#m6e9fa843ae" y="120.496935"/>
     <use style="fill:#073642;stroke:#073642;" x="448.569758" xlink:href="#m6e9fa843ae" y="106.942174"/>
     <use style="fill:#073642;stroke:#073642;" x="463.085789" xlink:href="#m6e9fa843ae" y="98.064531"/>
     <use style="fill:#073642;stroke:#073642;" x="474.946249" xlink:href="#m6e9fa843ae" y="90.442002"/>
     <use style="fill:#073642;stroke:#073642;" x="484.974126" xlink:href="#m6e9fa843ae" y="79.304533"/>
     <use style="fill:#073642;stroke:#073642;" x="493.660668" xlink:href="#m6e9fa843ae" y="73.270997"/>
     <use style="fill:#073642;stroke:#073642;" x="508.176698" xlink:href="#m6e9fa843ae" y="58.592852"/>
     <use style="fill:#073642;stroke:#073642;" x="520.037158" xlink:href="#m6e9fa843ae" y="52.492077"/>
     <use style="fill:#073642;stroke:#073642;" x="530.065035" xlink:href="#m6e9fa843ae" y="45.908782"/>
     <use style="fill:#073642;stroke:#073642;" x="538.751577" xlink:href="#m6e9fa843ae" y="41.143185"/>
     <use style="fill:#073642;stroke:#073642;" x="553.267607" xlink:href="#m6e9fa843ae" y="46.398705"/>
     <use style="fill:#073642;stroke:#073642;" x="565.128068" xlink:href="#m6e9fa843ae" y="45.070676"/>
     <use style="fill:#073642;stroke:#073642;" x="575.155944" xlink:href="#m6e9fa843ae" y="44.285008"/>
     <use style="fill:#073642;stroke:#073642;" x="583.842486" xlink:href="#m6e9fa843ae" y="48.096741"/>
    </g>
   </g>
   <g id="patch_9">
    <path d="M 347.115213 177.02 
L 347.115213 10.7 
" style="fill:none;stroke:#000000;stroke-linecap:square;stroke-linejoin:miter;stroke-width:0.8;"/>
   </g>
   <g id="patch_10">
    <path d="M 595.115213 177.02 
L 595.115213 10.7 
" style="fill:none;stroke:#000000;stroke-linecap:square;stroke-linejoin:miter;stroke-width:0.8;"/>
   </g>
   <g id="patch_11">
    <path d="M 347.115213 177.02 
L 595.115213 177.02 
" style="fill:none;stroke:#000000;stroke-linecap:square;stroke-linejoin:miter;stroke-width:0.8;"/>
   </g>
   <g id="patch_12">
    <path d="M 347.115213 10.7 
L 595.115213 10.7 
" style="fill:none;stroke:#000000;stroke-linecap:square;stroke-linejoin:miter;stroke-width:0.8;"/>
   </g>
  </g>
 </g>
 <defs>
  <clipPath id="p082c387129">
   <rect height="166.32" width="248" x="37.115213" y="10.7"/>
  </clipPath>
  <clipPath id="pcbed8103f7">
   <rect height="166.32" width="248" x="347.115213" y="10.7"/>
  </clipPath>
 </defs>
</svg>
