<?xml version="1.0" encoding="utf-8" standalone="no"?>
<!DOCTYPE svg PUBLIC "-//W3C//DTD SVG 1.1//EN"
  "http://www.w3.org/Graphics/SVG/1.1/DTD/svg11.dtd">
<!-- Created with matplotlib (https://matplotlib.org/) -->
<svg height="268.371353pt" version="1.1" viewBox="0 0 507.791371 268.371353" width="507.791371pt" xmlns="http://www.w3.org/2000/svg" xmlns:xlink="http://www.w3.org/1999/xlink">
 <defs>
  <style type="text/css">
*{stroke-linecap:butt;stroke-linejoin:round;}
  </style>
 </defs>
 <g id="figure_1">
  <g id="patch_1">
   <path d="M -0 268.371353 
L 507.791371 268.371353 
L 507.791371 0 
L -0 0 
z
" style="fill:#ffffff;"/>
  </g>
  <g id="axes_1">
   <g id="patch_2">
    <path d="M 52.294451 232.46 
L 387.094451 232.46 
L 387.094451 10.7 
L 52.294451 10.7 
z
" style="fill:#ffffff;"/>
   </g>
   <g id="matplotlib.axis_1">
    <g id="xtick_1">
     <g id="line2d_1">
      <path clip-path="url(#p307d7ce947)" d="M 67.512633 232.46 
L 67.512633 10.7 
" style="fill:none;stroke:#b0b0b0;stroke-dasharray:0.8,1.32;stroke-dashoffset:0;stroke-width:0.8;"/>
     </g>
     <g id="line2d_2">
      <defs>
       <path d="M 0 0 
L 0 3.5 
" id="m3ca770ad3c" style="stroke:#000000;stroke-width:0.8;"/>
      </defs>
      <g>
       <use style="stroke:#000000;stroke-width:0.8;" x="67.512633" xlink:href="#m3ca770ad3c" y="232.46"/>
      </g>
     </g>
     <g id="text_1">
      <!-- $0$ -->
      <defs>
       <path d="M 42 31.84375 
C 42 37.96875 41.90625 48.421875 37.703125 56.453125 
C 34 63.484375 28.09375 66 22.90625 66 
C 18.09375 66 12 63.78125 8.203125 56.5625 
C 4.203125 49.015625 3.796875 39.671875 3.796875 31.84375 
C 3.796875 26.109375 3.90625 17.375 7 9.734375 
C 11.296875 -0.609375 19 -2 22.90625 -2 
C 27.5 -2 34.5 -0.109375 38.59375 9.4375 
C 41.59375 16.375 42 24.5 42 31.84375 
z
M 22.90625 -0.40625 
C 16.5 -0.40625 12.703125 5.125 11.296875 12.75 
C 10.203125 18.6875 10.203125 27.328125 10.203125 32.953125 
C 10.203125 40.6875 10.203125 47.109375 11.5 53.234375 
C 13.40625 61.78125 19 64.390625 22.90625 64.390625 
C 27 64.390625 32.296875 61.671875 34.203125 53.4375 
C 35.5 47.71875 35.59375 40.984375 35.59375 32.953125 
C 35.59375 26.421875 35.59375 18.375 34.40625 12.453125 
C 32.296875 1.5 26.40625 -0.40625 22.90625 -0.40625 
z
" id="CMR17-48"/>
      </defs>
      <g transform="translate(65.021965 246.378498)scale(0.1 -0.1)">
       <use transform="scale(0.996264)" xlink:href="#CMR17-48"/>
      </g>
     </g>
    </g>
    <g id="xtick_2">
     <g id="line2d_3">
      <path clip-path="url(#p307d7ce947)" d="M 107.666147 232.46 
L 107.666147 10.7 
" style="fill:none;stroke:#b0b0b0;stroke-dasharray:0.8,1.32;stroke-dashoffset:0;stroke-width:0.8;"/>
     </g>
     <g id="line2d_4">
      <g>
       <use style="stroke:#000000;stroke-width:0.8;" x="107.666147" xlink:href="#m3ca770ad3c" y="232.46"/>
      </g>
     </g>
     <g id="text_2">
      <!-- $50$ -->
      <defs>
       <path d="M 11.40625 58.59375 
C 12.40625 58.1875 16.5 56.890625 20.703125 56.890625 
C 30 56.890625 35.09375 61.890625 38 64.6875 
C 38 65.484375 38 66 37.40625 66 
C 37.296875 66 37.09375 66 36.296875 65.59375 
C 32.796875 64.09375 28.703125 63 23.703125 63 
C 20.703125 63 16.203125 63.359375 11.296875 65.484375 
C 10.203125 66 10 66 9.90625 66 
C 9.40625 66 9.296875 65.890625 9.296875 63.90625 
L 9.296875 34.859375 
C 9.296875 33.015625 9.296875 32.5 10.296875 32.5 
C 10.796875 32.5 11 32.703125 11.5 33.421875 
C 14.703125 38.046875 19.09375 40 24.09375 40 
C 27.59375 40 35.09375 37.734375 35.09375 20.203125 
C 35.09375 16.984375 35.09375 11.1875 32.09375 6.59375 
C 29.59375 2.484375 25.703125 0.390625 21.40625 0.390625 
C 14.796875 0.390625 8.09375 4.984375 6.296875 12.6875 
C 6.703125 12.59375 7.5 12.390625 7.90625 12.390625 
C 9.203125 12.390625 11.703125 13.09375 11.703125 16.1875 
C 11.703125 18.890625 9.796875 20 7.90625 20 
C 5.59375 20 4.09375 18.59375 4.09375 15.796875 
C 4.09375 7.09375 11 -2 21.59375 -2 
C 31.90625 -2 41.703125 6.890625 41.703125 19.796875 
C 41.703125 32.09375 33.90625 41.59375 24.203125 41.59375 
C 19.09375 41.59375 14.796875 39.6875 11.40625 36 
z
" id="CMR17-53"/>
      </defs>
      <g transform="translate(102.684812 246.378498)scale(0.1 -0.1)">
       <use transform="scale(0.996264)" xlink:href="#CMR17-53"/>
       <use transform="translate(45.690477 0)scale(0.996264)" xlink:href="#CMR17-48"/>
      </g>
     </g>
    </g>
    <g id="xtick_3">
     <g id="line2d_5">
      <path clip-path="url(#p307d7ce947)" d="M 147.819661 232.46 
L 147.819661 10.7 
" style="fill:none;stroke:#b0b0b0;stroke-dasharray:0.8,1.32;stroke-dashoffset:0;stroke-width:0.8;"/>
     </g>
     <g id="line2d_6">
      <g>
       <use style="stroke:#000000;stroke-width:0.8;" x="147.819661" xlink:href="#m3ca770ad3c" y="232.46"/>
      </g>
     </g>
     <g id="text_3">
      <!-- $100$ -->
      <defs>
       <path d="M 26.59375 63.796875 
C 26.59375 65.890625 26.5 66 25.09375 66 
C 21.203125 61.359375 15.296875 59.890625 9.703125 59.6875 
C 9.40625 59.6875 8.90625 59.6875 8.796875 59.5 
C 8.703125 59.296875 8.703125 59.09375 8.703125 57 
C 11.796875 57 17 57.59375 21 59.984375 
L 21 7.296875 
C 21 3.796875 20.796875 2.59375 12.203125 2.59375 
L 9.203125 2.59375 
L 9.203125 0 
C 14 0.09375 19 0.1875 23.796875 0.1875 
C 28.59375 0.1875 33.59375 0.09375 38.40625 0 
L 38.40625 2.59375 
L 35.40625 2.59375 
C 26.796875 2.59375 26.59375 3.6875 26.59375 7.296875 
z
" id="CMR17-49"/>
      </defs>
      <g transform="translate(140.347658 246.378498)scale(0.1 -0.1)">
       <use transform="scale(0.996264)" xlink:href="#CMR17-49"/>
       <use transform="translate(45.690477 0)scale(0.996264)" xlink:href="#CMR17-48"/>
       <use transform="translate(91.380954 0)scale(0.996264)" xlink:href="#CMR17-48"/>
      </g>
     </g>
    </g>
    <g id="xtick_4">
     <g id="line2d_7">
      <path clip-path="url(#p307d7ce947)" d="M 187.973175 232.46 
L 187.973175 10.7 
" style="fill:none;stroke:#b0b0b0;stroke-dasharray:0.8,1.32;stroke-dashoffset:0;stroke-width:0.8;"/>
     </g>
     <g id="line2d_8">
      <g>
       <use style="stroke:#000000;stroke-width:0.8;" x="187.973175" xlink:href="#m3ca770ad3c" y="232.46"/>
      </g>
     </g>
     <g id="text_4">
      <!-- $150$ -->
      <g transform="translate(180.501172 246.378498)scale(0.1 -0.1)">
       <use transform="scale(0.996264)" xlink:href="#CMR17-49"/>
       <use transform="translate(45.690477 0)scale(0.996264)" xlink:href="#CMR17-53"/>
       <use transform="translate(91.380954 0)scale(0.996264)" xlink:href="#CMR17-48"/>
      </g>
     </g>
    </g>
    <g id="xtick_5">
     <g id="line2d_9">
      <path clip-path="url(#p307d7ce947)" d="M 228.126689 232.46 
L 228.126689 10.7 
" style="fill:none;stroke:#b0b0b0;stroke-dasharray:0.8,1.32;stroke-dashoffset:0;stroke-width:0.8;"/>
     </g>
     <g id="line2d_10">
      <g>
       <use style="stroke:#000000;stroke-width:0.8;" x="228.126689" xlink:href="#m3ca770ad3c" y="232.46"/>
      </g>
     </g>
     <g id="text_5">
      <!-- $200$ -->
      <defs>
       <path d="M 41.703125 15.46875 
L 39.90625 15.46875 
C 38.90625 8.390625 38.09375 7.1875 37.703125 6.59375 
C 37.203125 5.796875 30 5.796875 28.59375 5.796875 
L 9.40625 5.796875 
C 13 9.6875 20 16.765625 28.5 24.9375 
C 34.59375 30.71875 41.703125 37.5 41.703125 47.390625 
C 41.703125 59.1875 32.296875 66 21.796875 66 
C 10.796875 66 4.09375 56.296875 4.09375 47.296875 
C 4.09375 43.390625 7 42.890625 8.203125 42.890625 
C 9.203125 42.890625 12.203125 43.484375 12.203125 46.984375 
C 12.203125 50.09375 9.59375 51 8.203125 51 
C 7.59375 51 7 50.890625 6.59375 50.6875 
C 8.5 59.1875 14.296875 63.390625 20.40625 63.390625 
C 29.09375 63.390625 34.796875 56.5 34.796875 47.390625 
C 34.796875 38.703125 29.703125 31.21875 24 24.734375 
L 4.09375 2.296875 
L 4.09375 0 
L 39.296875 0 
z
" id="CMR17-50"/>
      </defs>
      <g transform="translate(220.654686 246.378498)scale(0.1 -0.1)">
       <use transform="scale(0.996264)" xlink:href="#CMR17-50"/>
       <use transform="translate(45.690477 0)scale(0.996264)" xlink:href="#CMR17-48"/>
       <use transform="translate(91.380954 0)scale(0.996264)" xlink:href="#CMR17-48"/>
      </g>
     </g>
    </g>
    <g id="xtick_6">
     <g id="line2d_11">
      <path clip-path="url(#p307d7ce947)" d="M 268.280203 232.46 
L 268.280203 10.7 
" style="fill:none;stroke:#b0b0b0;stroke-dasharray:0.8,1.32;stroke-dashoffset:0;stroke-width:0.8;"/>
     </g>
     <g id="line2d_12">
      <g>
       <use style="stroke:#000000;stroke-width:0.8;" x="268.280203" xlink:href="#m3ca770ad3c" y="232.46"/>
      </g>
     </g>
     <g id="text_6">
      <!-- $250$ -->
      <g transform="translate(260.8082 246.378498)scale(0.1 -0.1)">
       <use transform="scale(0.996264)" xlink:href="#CMR17-50"/>
       <use transform="translate(45.690477 0)scale(0.996264)" xlink:href="#CMR17-53"/>
       <use transform="translate(91.380954 0)scale(0.996264)" xlink:href="#CMR17-48"/>
      </g>
     </g>
    </g>
    <g id="xtick_7">
     <g id="line2d_13">
      <path clip-path="url(#p307d7ce947)" d="M 308.433717 232.46 
L 308.433717 10.7 
" style="fill:none;stroke:#b0b0b0;stroke-dasharray:0.8,1.32;stroke-dashoffset:0;stroke-width:0.8;"/>
     </g>
     <g id="line2d_14">
      <g>
       <use style="stroke:#000000;stroke-width:0.8;" x="308.433717" xlink:href="#m3ca770ad3c" y="232.46"/>
      </g>
     </g>
     <g id="text_7">
      <!-- $300$ -->
      <defs>
       <path d="M 22.09375 34 
C 31 34 34.90625 26.140625 34.90625 17.09375 
C 34.90625 5.03125 28.5 0.390625 22.703125 0.390625 
C 17.40625 0.390625 8.796875 3.015625 6.09375 10.796875 
C 6.59375 10.59375 7.09375 10.59375 7.59375 10.59375 
C 10 10.59375 11.796875 12.1875 11.796875 14.796875 
C 11.796875 17.6875 9.59375 19 7.59375 19 
C 5.90625 19 3.296875 18.1875 3.296875 14.484375 
C 3.296875 5.234375 12.296875 -2 22.90625 -2 
C 34 -2 42.5 6.75 42.5 16.984375 
C 42.5 26.84375 34.5 34 25 35.09375 
C 32.59375 36.671875 39.90625 43.375 39.90625 52.390625 
C 39.90625 60.25 32 66 23 66 
C 13.90625 66 5.90625 60.34375 5.90625 52.296875 
C 5.90625 48.796875 8.5 48.1875 9.796875 48.1875 
C 11.90625 48.1875 13.703125 49.484375 13.703125 52.09375 
C 13.703125 54.6875 11.90625 56 9.796875 56 
C 9.40625 56 8.90625 56 8.5 55.796875 
C 11.40625 62.484375 19.296875 63.6875 22.796875 63.6875 
C 26.296875 63.6875 32.90625 61.96875 32.90625 52.296875 
C 32.90625 49.484375 32.5 44.546875 29.09375 40.21875 
C 26.09375 36.390625 22.703125 36.1875 19.40625 35.890625 
C 18.90625 35.890625 16.59375 35.6875 16.203125 35.6875 
C 15.5 35.59375 15.09375 35.5 15.09375 34.796875 
C 15.09375 34.09375 15.203125 34 17.203125 34 
z
" id="CMR17-51"/>
      </defs>
      <g transform="translate(300.961714 246.378498)scale(0.1 -0.1)">
       <use transform="scale(0.996264)" xlink:href="#CMR17-51"/>
       <use transform="translate(45.690477 0)scale(0.996264)" xlink:href="#CMR17-48"/>
       <use transform="translate(91.380954 0)scale(0.996264)" xlink:href="#CMR17-48"/>
      </g>
     </g>
    </g>
    <g id="xtick_8">
     <g id="line2d_15">
      <path clip-path="url(#p307d7ce947)" d="M 348.587231 232.46 
L 348.587231 10.7 
" style="fill:none;stroke:#b0b0b0;stroke-dasharray:0.8,1.32;stroke-dashoffset:0;stroke-width:0.8;"/>
     </g>
     <g id="line2d_16">
      <g>
       <use style="stroke:#000000;stroke-width:0.8;" x="348.587231" xlink:href="#m3ca770ad3c" y="232.46"/>
      </g>
     </g>
     <g id="text_8">
      <!-- $350$ -->
      <g transform="translate(341.115228 246.378498)scale(0.1 -0.1)">
       <use transform="scale(0.996264)" xlink:href="#CMR17-51"/>
       <use transform="translate(45.690477 0)scale(0.996264)" xlink:href="#CMR17-53"/>
       <use transform="translate(91.380954 0)scale(0.996264)" xlink:href="#CMR17-48"/>
      </g>
     </g>
    </g>
    <g id="text_9">
     <!-- iteration $k$ -->
     <defs>
      <path d="M 15.5 61.890625 
C 15.5 64.09375 13.703125 66 11.40625 66 
C 9.203125 66 7.296875 64.1875 7.296875 61.890625 
C 7.296875 59.6875 9.09375 57.796875 11.40625 57.796875 
C 13.59375 57.796875 15.5 59.59375 15.5 61.890625 
z
M 3.796875 42.890625 
L 3.796875 40.296875 
C 9.40625 40.296875 10.203125 39.6875 10.203125 34.859375 
L 10.203125 6.921875 
C 10.203125 3.09375 9.796875 2.59375 3.40625 2.59375 
L 3.40625 0 
C 5.796875 0.1875 10.09375 0.1875 12.59375 0.1875 
C 15 0.1875 19.09375 0.1875 21.40625 0 
L 21.40625 2.59375 
C 15.5 2.59375 15.296875 3.203125 15.296875 6.8125 
L 15.296875 44 
z
" id="CMR17-105"/>
      <path d="M 15.09375 40.390625 
L 29.09375 40.390625 
L 29.09375 43 
L 15.09375 43 
L 15.09375 62 
L 13.296875 62 
C 13.09375 51.4375 9.59375 42.1875 1.09375 41.984375 
L 1.09375 40.390625 
L 9.796875 40.390625 
L 9.796875 12.15625 
C 9.796875 10.234375 9.796875 -1 21.40625 -1 
C 27.296875 -1 30.703125 4.8125 30.703125 12.25 
L 30.703125 17.984375 
L 28.90625 17.984375 
L 28.90625 12.34375 
C 28.90625 5.421875 26.203125 0.796875 22 0.796875 
C 19.09375 0.796875 15.09375 2.796875 15.09375 11.953125 
z
" id="CMR17-116"/>
      <path d="M 38.09375 23.484375 
C 38.5 23.890625 38.5 24.09375 38.5 25.09375 
C 38.5 35.171875 33.09375 44 21.703125 44 
C 11.09375 44 2.703125 33.984375 2.703125 21.78125 
C 2.703125 8.65625 12.203125 -1 22.796875 -1 
C 34 -1 38.40625 9.671875 38.40625 11.796875 
C 38.40625 12.5 37.796875 12.5 37.59375 12.5 
C 36.90625 12.5 36.796875 12.296875 36.40625 11.078125 
C 34.203125 4.21875 28.703125 0.796875 23.5 0.796875 
C 19.203125 0.796875 14.90625 3.21875 12.203125 7.65625 
C 9.09375 12.796875 9.09375 18.75 9.09375 23.484375 
z
M 9.203125 25 
C 9.90625 39.234375 17.59375 42.390625 21.59375 42.390625 
C 28.40625 42.390625 33 36.0625 33.09375 25 
z
" id="CMR17-101"/>
      <path d="M 15 23.703125 
C 15 33.34375 19.09375 42.390625 26.59375 42.390625 
C 27.296875 42.390625 28 42.296875 28.703125 41.984375 
C 28.703125 41.984375 26.5 41.28125 26.5 38.671875 
C 26.5 36.265625 28.40625 35.265625 29.90625 35.265625 
C 31.09375 35.265625 33.296875 35.96875 33.296875 38.78125 
C 33.296875 41.984375 30.09375 44 26.703125 44 
C 19.09375 44 15.796875 36.5625 14.796875 33.046875 
L 14.703125 33.046875 
L 14.703125 44 
L 3.09375 42.890625 
L 3.09375 40.28125 
C 9 40.28125 9.90625 39.6875 9.90625 34.859375 
L 9.90625 6.921875 
C 9.90625 3.09375 9.5 2.59375 3.09375 2.59375 
L 3.09375 0 
C 5.5 0.1875 10.09375 0.1875 12.703125 0.1875 
C 15.59375 0.1875 20.703125 0.1875 23.40625 0 
L 23.40625 2.59375 
C 16.203125 2.59375 15 2.59375 15 7.109375 
z
" id="CMR17-114"/>
      <path d="M 36 25.875 
C 36 32 36 35.546875 31.796875 39.59375 
C 28.09375 42.984375 23.796875 44 20.40625 44 
C 12.5 44 6.796875 37.625 6.796875 30.890625 
C 6.796875 27.1875 9.796875 27 10.40625 27 
C 11.703125 27 14 27.796875 14 30.59375 
C 14 33.09375 12.09375 34.1875 10.40625 34.1875 
C 10 34.1875 9.5 34.09375 9.203125 34 
C 11.296875 40.53125 16.703125 42.390625 20.203125 42.390625 
C 25.203125 42.390625 30.703125 37.828125 30.703125 29.296875 
L 30.703125 25.5 
C 24.796875 25.296875 17.703125 24.5 12.09375 21.453125 
C 5.796875 17.921875 4 12.84375 4 9 
C 4 1.203125 13 -1 18.296875 -1 
C 23.796875 -1 28.90625 2.109375 31.09375 7.890625 
C 31.296875 3.421875 34.09375 -0.609375 38.5 -0.609375 
C 40.59375 -0.609375 45.90625 0.796875 45.90625 8.796875 
L 45.90625 14.46875 
L 44.09375 14.46875 
L 44.09375 8.703125 
C 44.09375 2.515625 41.40625 1.703125 40.09375 1.703125 
C 36 1.703125 36 6.96875 36 11.4375 
z
M 30.703125 13.859375 
C 30.703125 5.046875 24.5 0.59375 19 0.59375 
C 14 0.59375 10.09375 4.34375 10.09375 9 
C 10.09375 12.046875 11.40625 17.40625 17.203125 20.65625 
C 22 23.390625 27.5 23.796875 30.703125 24 
z
" id="CMR17-97"/>
      <path d="M 43.09375 21.1875 
C 43.09375 34 33.796875 44 22.90625 44 
C 12 44 2.703125 34 2.703125 21.1875 
C 2.703125 8.59375 12 -1 22.90625 -1 
C 33.796875 -1 43.09375 8.59375 43.09375 21.1875 
z
M 22.90625 0.796875 
C 18.203125 0.796875 14.203125 3.59375 11.90625 7.5 
C 9.40625 12 9.09375 17.59375 9.09375 22 
C 9.09375 26.1875 9.296875 31.390625 11.90625 35.890625 
C 13.90625 39.1875 17.796875 42.390625 22.90625 42.390625 
C 27.40625 42.390625 31.203125 39.890625 33.59375 36.390625 
C 36.703125 31.6875 36.703125 25.09375 36.703125 22 
C 36.703125 18.09375 36.5 12.09375 33.796875 7.296875 
C 31 2.6875 26.703125 0.796875 22.90625 0.796875 
z
" id="CMR17-111"/>
      <path d="M 41.5 30.53125 
C 41.5 35.65625 40.5 44 28.703125 44 
C 20.796875 44 16.703125 37.875 15.203125 33.84375 
L 15.09375 33.84375 
L 15.09375 44 
L 3.296875 42.890625 
L 3.296875 40.28125 
C 9.203125 40.28125 10.09375 39.6875 10.09375 34.859375 
L 10.09375 6.921875 
C 10.09375 3.09375 9.703125 2.59375 3.296875 2.59375 
L 3.296875 0 
C 5.703125 0.1875 10.09375 0.1875 12.703125 0.1875 
C 15.296875 0.1875 19.796875 0.1875 22.203125 0 
L 22.203125 2.59375 
C 15.796875 2.59375 15.40625 3 15.40625 6.921875 
L 15.40625 26.21875 
C 15.40625 35.453125 21 42.390625 28 42.390625 
C 35.40625 42.390625 36.203125 35.765625 36.203125 30.9375 
L 36.203125 6.921875 
C 36.203125 3.09375 35.796875 2.59375 29.40625 2.59375 
L 29.40625 0 
C 31.796875 0.1875 36.203125 0.1875 38.796875 0.1875 
C 41.40625 0.1875 45.90625 0.1875 48.296875 0 
L 48.296875 2.59375 
C 41.90625 2.59375 41.5 3 41.5 6.921875 
z
" id="CMR17-110"/>
      <path d="M 28.09375 66.484375 
C 28.203125 66.890625 28.40625 67.484375 28.40625 67.984375 
C 28.40625 69 27.40625 69 27.203125 69 
C 27.09375 69 23.5 68.6875 21.703125 68.484375 
C 20 68.390625 18.5 68.1875 16.703125 68.09375 
C 14.296875 67.890625 13.59375 67.796875 13.59375 65.984375 
C 13.59375 64.984375 14.59375 64.984375 15.59375 64.984375 
C 20.703125 64.984375 20.703125 64.109375 20.703125 63.125 
C 20.703125 62.71875 20.703125 62.53125 20.203125 60.75 
L 5.90625 3.90625 
C 5.5 2.390625 5.5 2.203125 5.5 1.59375 
C 5.5 -0.609375 7.203125 -1 8.203125 -1 
C 11 -1 11.59375 1.1875 12.40625 4.296875 
L 17.09375 23.0625 
C 24.296875 22.265625 28.59375 19.25 28.59375 14.4375 
C 28.59375 13.828125 28.59375 13.4375 28.296875 11.921875 
C 27.90625 10.421875 27.90625 9.21875 27.90625 8.71875 
C 27.90625 2.890625 31.703125 -1 36.796875 -1 
C 41.40625 -1 43.796875 3.203125 44.59375 4.609375 
C 46.703125 8.3125 48 13.9375 48 14.328125 
C 48 14.828125 47.59375 15.234375 47 15.234375 
C 46.09375 15.234375 46 14.828125 45.59375 13.234375 
C 44.203125 8.015625 42.09375 1 37 1 
C 35 1 33.703125 2 33.703125 5.8125 
C 33.703125 7.71875 34.09375 9.921875 34.5 11.421875 
C 34.90625 13.234375 34.90625 13.328125 34.90625 14.53125 
C 34.90625 20.453125 29.59375 23.765625 20.40625 24.96875 
C 24 27.171875 27.59375 31.078125 29 32.59375 
C 34.703125 38.984375 38.59375 41.984375 43.203125 41.984375 
C 45.5 41.984375 46.09375 41.484375 46.796875 41 
C 43.09375 40.59375 41.703125 37.984375 41.703125 35.984375 
C 41.703125 33.59375 43.59375 32.796875 45 32.796875 
C 47.703125 32.796875 50.09375 35.09375 50.09375 38.296875 
C 50.09375 41.15625 47.796875 44 43.296875 44 
C 37.796875 44 33.296875 40.296875 26.203125 32.296875 
C 25.203125 31.078125 21.5 27.28125 17.796875 25.875 
z
" id="CMMI12-107"/>
     </defs>
     <g transform="translate(196.885256 259.234175)scale(0.1 -0.1)">
      <use transform="scale(0.996264)" xlink:href="#CMR17-105"/>
      <use transform="translate(24.871058 0)scale(0.996264)" xlink:href="#CMR17-116"/>
      <use transform="translate(60.151826 0)scale(0.996264)" xlink:href="#CMR17-101"/>
      <use transform="translate(100.637487 0)scale(0.996264)" xlink:href="#CMR17-114"/>
      <use transform="translate(135.918255 0)scale(0.996264)" xlink:href="#CMR17-97"/>
      <use transform="translate(181.608732 0)scale(0.996264)" xlink:href="#CMR17-116"/>
      <use transform="translate(216.889499 0)scale(0.996264)" xlink:href="#CMR17-105"/>
      <use transform="translate(241.760558 0)scale(0.996264)" xlink:href="#CMR17-111"/>
      <use transform="translate(287.451035 0)scale(0.996264)" xlink:href="#CMR17-110"/>
      <use transform="translate(368.422371 0)scale(0.996264)" xlink:href="#CMMI12-107"/>
     </g>
    </g>
   </g>
   <g id="matplotlib.axis_2">
    <g id="ytick_1">
     <g id="line2d_17">
      <path clip-path="url(#p307d7ce947)" d="M 52.294451 232.46 
L 387.094451 232.46 
" style="fill:none;stroke:#b0b0b0;stroke-dasharray:0.8,1.32;stroke-dashoffset:0;stroke-width:0.8;"/>
     </g>
     <g id="line2d_18">
      <defs>
       <path d="M 0 0 
L -3.5 0 
" id="m317d8addf6" style="stroke:#000000;stroke-width:0.8;"/>
      </defs>
      <g>
       <use style="stroke:#000000;stroke-width:0.8;" x="52.294451" xlink:href="#m317d8addf6" y="232.46"/>
      </g>
     </g>
     <g id="text_10">
      <!-- $10^{-16}$ -->
      <defs>
       <path d="M 65.90625 23 
C 67.59375 23 69.40625 23 69.40625 25 
C 69.40625 27 67.59375 27 65.90625 27 
L 11.796875 27 
C 10.09375 27 8.296875 27 8.296875 25 
C 8.296875 23 10.09375 23 11.796875 23 
z
" id="CMSY10-0"/>
       <path d="M 10.59375 34.34375 
C 10.59375 58 21.796875 63.6875 28.296875 63.6875 
C 30.40625 63.6875 35.5 63.265625 37.5 59.09375 
C 35.90625 59.09375 32.90625 59.09375 32.90625 55.59375 
C 32.90625 52.890625 35.09375 52 36.5 52 
C 37.40625 52 40.09375 52.390625 40.09375 55.796875 
C 40.09375 62.296875 35.09375 66 28.203125 66 
C 16.296875 66 3.796875 53.296875 3.796875 31.421875 
C 3.796875 4.015625 15.09375 -2 23.09375 -2 
C 32.796875 -2 42 6.734375 42 20.234375 
C 42 32.828125 33.90625 42 23.703125 42 
C 17.59375 42 13.09375 37.96875 10.59375 30.921875 
z
M 23.09375 0.390625 
C 10.796875 0.390625 10.796875 18.9375 10.796875 22.65625 
C 10.796875 29.90625 14.203125 40.390625 23.5 40.390625 
C 25.203125 40.390625 30.09375 40.390625 33.40625 33.4375 
C 35.203125 29.515625 35.203125 25.375 35.203125 20.34375 
C 35.203125 14.90625 35.203125 10.875 33.09375 6.84375 
C 30.90625 2.703125 27.703125 0.390625 23.09375 0.390625 
z
" id="CMR17-54"/>
      </defs>
      <g transform="translate(21.16264 235.919249)scale(0.1 -0.1)">
       <use transform="scale(0.996264)" xlink:href="#CMR17-49"/>
       <use transform="translate(45.690477 0)scale(0.996264)" xlink:href="#CMR17-48"/>
       <use transform="translate(91.380954 36.153639)scale(0.697382)" xlink:href="#CMSY10-0"/>
       <use transform="translate(145.621947 36.153639)scale(0.697382)" xlink:href="#CMR17-49"/>
       <use transform="translate(177.605129 36.153639)scale(0.697382)" xlink:href="#CMR17-54"/>
      </g>
     </g>
    </g>
    <g id="ytick_2">
     <g id="line2d_19">
      <path clip-path="url(#p307d7ce947)" d="M 52.294451 205.900278 
L 387.094451 205.900278 
" style="fill:none;stroke:#b0b0b0;stroke-dasharray:0.8,1.32;stroke-dashoffset:0;stroke-width:0.8;"/>
     </g>
     <g id="line2d_20">
      <g>
       <use style="stroke:#000000;stroke-width:0.8;" x="52.294451" xlink:href="#m317d8addf6" y="205.900278"/>
      </g>
     </g>
     <g id="text_11">
      <!-- $10^{-14}$ -->
      <defs>
       <path d="M 33.59375 64.796875 
C 33.59375 66.890625 33.5 67 31.703125 67 
L 2 19.59375 
L 2 17 
L 27.796875 17 
L 27.796875 7.1875 
C 27.796875 3.59375 27.59375 2.59375 20.59375 2.59375 
L 18.703125 2.59375 
L 18.703125 0 
C 21.90625 0.1875 27.296875 0.1875 30.703125 0.1875 
C 34.09375 0.1875 39.5 0.1875 42.703125 0 
L 42.703125 2.59375 
L 40.796875 2.59375 
C 33.796875 2.59375 33.59375 3.59375 33.59375 7.1875 
L 33.59375 17 
L 43.796875 17 
L 43.796875 19.59375 
L 33.59375 19.59375 
z
M 28.09375 58.171875 
L 28.09375 19.59375 
L 4 19.59375 
z
" id="CMR17-52"/>
      </defs>
      <g transform="translate(21.16264 209.359527)scale(0.1 -0.1)">
       <use transform="scale(0.996264)" xlink:href="#CMR17-49"/>
       <use transform="translate(45.690477 0)scale(0.996264)" xlink:href="#CMR17-48"/>
       <use transform="translate(91.380954 36.153639)scale(0.697382)" xlink:href="#CMSY10-0"/>
       <use transform="translate(145.621947 36.153639)scale(0.697382)" xlink:href="#CMR17-49"/>
       <use transform="translate(177.605129 36.153639)scale(0.697382)" xlink:href="#CMR17-52"/>
      </g>
     </g>
    </g>
    <g id="ytick_3">
     <g id="line2d_21">
      <path clip-path="url(#p307d7ce947)" d="M 52.294451 179.340556 
L 387.094451 179.340556 
" style="fill:none;stroke:#b0b0b0;stroke-dasharray:0.8,1.32;stroke-dashoffset:0;stroke-width:0.8;"/>
     </g>
     <g id="line2d_22">
      <g>
       <use style="stroke:#000000;stroke-width:0.8;" x="52.294451" xlink:href="#m317d8addf6" y="179.340556"/>
      </g>
     </g>
     <g id="text_12">
      <!-- $10^{-12}$ -->
      <g transform="translate(21.16264 182.799805)scale(0.1 -0.1)">
       <use transform="scale(0.996264)" xlink:href="#CMR17-49"/>
       <use transform="translate(45.690477 0)scale(0.996264)" xlink:href="#CMR17-48"/>
       <use transform="translate(91.380954 36.153639)scale(0.697382)" xlink:href="#CMSY10-0"/>
       <use transform="translate(145.621947 36.153639)scale(0.697382)" xlink:href="#CMR17-49"/>
       <use transform="translate(177.605129 36.153639)scale(0.697382)" xlink:href="#CMR17-50"/>
      </g>
     </g>
    </g>
    <g id="ytick_4">
     <g id="line2d_23">
      <path clip-path="url(#p307d7ce947)" d="M 52.294451 152.780834 
L 387.094451 152.780834 
" style="fill:none;stroke:#b0b0b0;stroke-dasharray:0.8,1.32;stroke-dashoffset:0;stroke-width:0.8;"/>
     </g>
     <g id="line2d_24">
      <g>
       <use style="stroke:#000000;stroke-width:0.8;" x="52.294451" xlink:href="#m317d8addf6" y="152.780834"/>
      </g>
     </g>
     <g id="text_13">
      <!-- $10^{-10}$ -->
      <g transform="translate(21.16264 156.240083)scale(0.1 -0.1)">
       <use transform="scale(0.996264)" xlink:href="#CMR17-49"/>
       <use transform="translate(45.690477 0)scale(0.996264)" xlink:href="#CMR17-48"/>
       <use transform="translate(91.380954 36.153639)scale(0.697382)" xlink:href="#CMSY10-0"/>
       <use transform="translate(145.621947 36.153639)scale(0.697382)" xlink:href="#CMR17-49"/>
       <use transform="translate(177.605129 36.153639)scale(0.697382)" xlink:href="#CMR17-48"/>
      </g>
     </g>
    </g>
    <g id="ytick_5">
     <g id="line2d_25">
      <path clip-path="url(#p307d7ce947)" d="M 52.294451 126.221112 
L 387.094451 126.221112 
" style="fill:none;stroke:#b0b0b0;stroke-dasharray:0.8,1.32;stroke-dashoffset:0;stroke-width:0.8;"/>
     </g>
     <g id="line2d_26">
      <g>
       <use style="stroke:#000000;stroke-width:0.8;" x="52.294451" xlink:href="#m317d8addf6" y="126.221112"/>
      </g>
     </g>
     <g id="text_14">
      <!-- $10^{-8}$ -->
      <defs>
       <path d="M 27.203125 35.765625 
C 33.5 38.96875 39.90625 43.796875 39.90625 51.53125 
C 39.90625 60.6875 31.09375 66 23 66 
C 13.90625 66 5.90625 59.375 5.90625 50.234375 
C 5.90625 47.71875 6.5 43.390625 10.40625 39.578125 
C 11.40625 38.578125 15.59375 35.5625 18.296875 33.65625 
C 13.796875 31.34375 3.296875 25.8125 3.296875 14.765625 
C 3.296875 4.40625 13.09375 -2 22.796875 -2 
C 33.5 -2 42.5 5.71875 42.5 15.96875 
C 42.5 25.109375 36.40625 29.328125 32.40625 32.046875 
z
M 14.09375 44.609375 
C 13.296875 45.109375 9.296875 48.21875 9.296875 52.9375 
C 9.296875 59.078125 15.59375 63.6875 22.796875 63.6875 
C 30.703125 63.6875 36.5 58.0625 36.5 51.53125 
C 36.5 42.1875 26.09375 36.859375 25.59375 36.859375 
C 25.5 36.859375 25.40625 36.859375 24.59375 37.46875 
z
M 32.5 24 
C 34 22.90625 38.796875 19.578125 38.796875 13.453125 
C 38.796875 6.015625 31.40625 0.390625 23 0.390625 
C 13.90625 0.390625 7 6.921875 7 14.859375 
C 7 22.796875 13.09375 29.4375 20 32.546875 
z
" id="CMR17-56"/>
      </defs>
      <g transform="translate(25.133878 129.680361)scale(0.1 -0.1)">
       <use transform="scale(0.996264)" xlink:href="#CMR17-49"/>
       <use transform="translate(45.690477 0)scale(0.996264)" xlink:href="#CMR17-48"/>
       <use transform="translate(91.380954 36.153639)scale(0.697382)" xlink:href="#CMSY10-0"/>
       <use transform="translate(145.621947 36.153639)scale(0.697382)" xlink:href="#CMR17-56"/>
      </g>
     </g>
    </g>
    <g id="ytick_6">
     <g id="line2d_27">
      <path clip-path="url(#p307d7ce947)" d="M 52.294451 99.66139 
L 387.094451 99.66139 
" style="fill:none;stroke:#b0b0b0;stroke-dasharray:0.8,1.32;stroke-dashoffset:0;stroke-width:0.8;"/>
     </g>
     <g id="line2d_28">
      <g>
       <use style="stroke:#000000;stroke-width:0.8;" x="52.294451" xlink:href="#m317d8addf6" y="99.66139"/>
      </g>
     </g>
     <g id="text_15">
      <!-- $10^{-6}$ -->
      <g transform="translate(25.133878 103.120639)scale(0.1 -0.1)">
       <use transform="scale(0.996264)" xlink:href="#CMR17-49"/>
       <use transform="translate(45.690477 0)scale(0.996264)" xlink:href="#CMR17-48"/>
       <use transform="translate(91.380954 36.153639)scale(0.697382)" xlink:href="#CMSY10-0"/>
       <use transform="translate(145.621947 36.153639)scale(0.697382)" xlink:href="#CMR17-54"/>
      </g>
     </g>
    </g>
    <g id="ytick_7">
     <g id="line2d_29">
      <path clip-path="url(#p307d7ce947)" d="M 52.294451 73.101668 
L 387.094451 73.101668 
" style="fill:none;stroke:#b0b0b0;stroke-dasharray:0.8,1.32;stroke-dashoffset:0;stroke-width:0.8;"/>
     </g>
     <g id="line2d_30">
      <g>
       <use style="stroke:#000000;stroke-width:0.8;" x="52.294451" xlink:href="#m317d8addf6" y="73.101668"/>
      </g>
     </g>
     <g id="text_16">
      <!-- $10^{-4}$ -->
      <g transform="translate(25.133878 76.560918)scale(0.1 -0.1)">
       <use transform="scale(0.996264)" xlink:href="#CMR17-49"/>
       <use transform="translate(45.690477 0)scale(0.996264)" xlink:href="#CMR17-48"/>
       <use transform="translate(91.380954 36.153639)scale(0.697382)" xlink:href="#CMSY10-0"/>
       <use transform="translate(145.621947 36.153639)scale(0.697382)" xlink:href="#CMR17-52"/>
      </g>
     </g>
    </g>
    <g id="ytick_8">
     <g id="line2d_31">
      <path clip-path="url(#p307d7ce947)" d="M 52.294451 46.541946 
L 387.094451 46.541946 
" style="fill:none;stroke:#b0b0b0;stroke-dasharray:0.8,1.32;stroke-dashoffset:0;stroke-width:0.8;"/>
     </g>
     <g id="line2d_32">
      <g>
       <use style="stroke:#000000;stroke-width:0.8;" x="52.294451" xlink:href="#m317d8addf6" y="46.541946"/>
      </g>
     </g>
     <g id="text_17">
      <!-- $10^{-2}$ -->
      <g transform="translate(25.133878 50.001196)scale(0.1 -0.1)">
       <use transform="scale(0.996264)" xlink:href="#CMR17-49"/>
       <use transform="translate(45.690477 0)scale(0.996264)" xlink:href="#CMR17-48"/>
       <use transform="translate(91.380954 36.153639)scale(0.697382)" xlink:href="#CMSY10-0"/>
       <use transform="translate(145.621947 36.153639)scale(0.697382)" xlink:href="#CMR17-50"/>
      </g>
     </g>
    </g>
    <g id="ytick_9">
     <g id="line2d_33">
      <path clip-path="url(#p307d7ce947)" d="M 52.294451 19.982224 
L 387.094451 19.982224 
" style="fill:none;stroke:#b0b0b0;stroke-dasharray:0.8,1.32;stroke-dashoffset:0;stroke-width:0.8;"/>
     </g>
     <g id="line2d_34">
      <g>
       <use style="stroke:#000000;stroke-width:0.8;" x="52.294451" xlink:href="#m317d8addf6" y="19.982224"/>
      </g>
     </g>
     <g id="text_18">
      <!-- $10^{0}$ -->
      <g transform="translate(31.360543 23.441474)scale(0.1 -0.1)">
       <use transform="scale(0.996264)" xlink:href="#CMR17-49"/>
       <use transform="translate(45.690477 0)scale(0.996264)" xlink:href="#CMR17-48"/>
       <use transform="translate(91.380954 36.153639)scale(0.697382)" xlink:href="#CMR17-48"/>
      </g>
     </g>
    </g>
    <g id="text_19">
     <!-- $\mathbf{A}$-norm of error: $\| \mathbf{x}-\mathbf{x}_k \|_\mathbf{A}$ -->
     <defs>
      <path d="M 45.796875 67.703125 
C 45.09375 69.5 44.90625 70 42.5 70 
C 40 70 39.796875 69.5 39.09375 67.703125 
L 14.296875 6.703125 
C 13.59375 5.09375 13.59375 4.890625 10.796875 4.59375 
C 8.296875 4.296875 7.90625 4.296875 5.703125 4.296875 
L 3.90625 4.296875 
L 3.90625 0 
C 6.5 0.1875 12.5 0.1875 15.40625 0.1875 
C 18.09375 0.1875 25.40625 0.1875 27.703125 0 
L 27.703125 4.296875 
C 25.5 4.296875 21.703125 4.296875 18.90625 5.40625 
C 19.203125 6.3125 19.203125 6.5 19.40625 6.90625 
L 24.703125 20 
L 51.5 20 
L 57.796875 4.296875 
L 48.40625 4.296875 
L 48.40625 0 
C 51.59375 0.1875 61.296875 0.1875 65.09375 0.1875 
C 68.296875 0.1875 78.5 0.1875 81 0 
L 81 4.296875 
L 71.5 4.296875 
z
M 38.09375 53.03125 
L 49.703125 24.296875 
L 26.40625 24.296875 
z
" id="CMBX12-65"/>
      <path d="M 25.5 19.59375 
L 25.5 24 
L 0.40625 24 
L 0.40625 19.59375 
z
" id="CMR17-45"/>
      <path d="M 67.59375 30.53125 
C 67.59375 35.5625 66.703125 44 54.796875 44 
C 48 44 43.296875 39.375 41.5 33.953125 
L 41.40625 33.953125 
C 40.203125 42.1875 34.296875 44 28.703125 44 
C 20.796875 44 16.703125 37.875 15.203125 33.84375 
L 15.09375 33.84375 
L 15.09375 44 
L 3.296875 42.890625 
L 3.296875 40.28125 
C 9.203125 40.28125 10.09375 39.6875 10.09375 34.859375 
L 10.09375 6.921875 
C 10.09375 3.09375 9.703125 2.59375 3.296875 2.59375 
L 3.296875 0 
C 5.703125 0.1875 10.09375 0.1875 12.703125 0.1875 
C 15.296875 0.1875 19.796875 0.1875 22.203125 0 
L 22.203125 2.59375 
C 15.796875 2.59375 15.40625 3 15.40625 6.921875 
L 15.40625 26.21875 
C 15.40625 35.453125 21 42.390625 28 42.390625 
C 35.40625 42.390625 36.203125 35.765625 36.203125 30.9375 
L 36.203125 6.921875 
C 36.203125 3.09375 35.796875 2.59375 29.40625 2.59375 
L 29.40625 0 
C 31.796875 0.1875 36.203125 0.1875 38.796875 0.1875 
C 41.40625 0.1875 45.90625 0.1875 48.296875 0 
L 48.296875 2.59375 
C 41.90625 2.59375 41.5 3 41.5 6.921875 
L 41.5 26.21875 
C 41.5 35.453125 47.09375 42.390625 54.09375 42.390625 
C 61.5 42.390625 62.296875 35.765625 62.296875 30.9375 
L 62.296875 6.921875 
C 62.296875 3.09375 61.90625 2.59375 55.5 2.59375 
L 55.5 0 
C 57.90625 0.1875 62.296875 0.1875 64.90625 0.1875 
C 67.5 0.1875 72 0.1875 74.40625 0 
L 74.40625 2.59375 
C 68 2.59375 67.59375 3 67.59375 6.921875 
z
" id="CMR17-109"/>
      <path d="M 15.296875 40.390625 
L 26.703125 40.390625 
L 26.703125 43 
L 15.09375 43 
L 15.09375 55.296875 
C 15.09375 63.6875 19.296875 68.390625 23.59375 68.390625 
C 24.90625 68.390625 26.40625 68.171875 27.40625 67.796875 
C 26.59375 67.59375 24.5 66.890625 24.5 64.390625 
C 24.5 61.796875 26.5 61 27.90625 61 
C 29.296875 61 31.296875 61.796875 31.296875 64.390625 
C 31.296875 68.015625 27.703125 70 23.703125 70 
C 18 70 10.203125 65.796875 10.203125 55.09375 
L 10.203125 43 
L 2.203125 43 
L 2.203125 40.390625 
L 10.203125 40.390625 
L 10.203125 6.890625 
C 10.203125 3.09375 9.796875 2.59375 3.40625 2.59375 
L 3.40625 0 
C 5.796875 0.1875 10.40625 0.1875 13 0.1875 
C 15.90625 0.1875 21 0.1875 23.703125 0 
L 23.703125 2.59375 
C 16.5 2.59375 15.296875 2.59375 15.296875 7.09375 
z
" id="CMR17-102"/>
      <path d="M 16.59375 38.890625 
C 16.59375 41.390625 14.59375 43 12.5 43 
C 10.5 43 8.40625 41.390625 8.40625 38.890625 
C 8.40625 36.390625 10.40625 34.796875 12.5 34.796875 
C 14.5 34.796875 16.59375 36.390625 16.59375 38.890625 
z
M 16.59375 4.09375 
C 16.59375 6.59375 14.59375 8.1875 12.5 8.1875 
C 10.5 8.1875 8.40625 6.59375 8.40625 4.09375 
C 8.40625 1.59375 10.40625 0 12.5 0 
C 14.5 0 16.59375 1.59375 16.59375 4.09375 
z
" id="CMR17-58"/>
      <path d="M 17.203125 71.59375 
C 17.203125 73.1875 17.203125 75 15.203125 75 
C 13.203125 75 13.203125 72.796875 13.203125 71.296875 
L 13.203125 -21.3125 
C 13.203125 -22.90625 13.203125 -25 15.203125 -25 
C 17.203125 -25 17.203125 -23.203125 17.203125 -21.609375 
z
M 36.703125 71.296875 
C 36.703125 72.890625 36.703125 75 34.703125 75 
C 32.703125 75 32.703125 73.1875 32.703125 71.59375 
L 32.703125 -21.609375 
C 32.703125 -23.203125 32.703125 -25 34.703125 -25 
C 36.703125 -25 36.703125 -22.8125 36.703125 -21.3125 
z
" id="CMSY10-107"/>
      <path d="M 33.703125 24.46875 
L 45.296875 37.609375 
C 46.40625 38.90625 47.296875 39.6875 55.59375 39.6875 
L 55.59375 44 
C 50 43.796875 49.796875 43.796875 46.40625 43.796875 
C 43.5 43.796875 39.203125 43.796875 36.40625 44 
L 36.40625 39.6875 
C 38.296875 39.6875 40.40625 39.203125 40.40625 38.5 
C 40.40625 38.3125 39.90625 37.609375 39.703125 37.421875 
L 31 27.71875 
L 21.09375 39.6875 
L 25.296875 39.6875 
L 25.296875 44 
C 23 43.796875 16.203125 43.796875 13.5 43.796875 
C 10.5 43.796875 5.09375 43.796875 2.296875 44 
L 2.296875 39.6875 
L 9.40625 39.6875 
L 25 20.90625 
L 12 6.375 
C 10.796875 4.984375 10.09375 4.296875 1.796875 4.296875 
L 1.796875 0 
C 7.796875 0.1875 8 0.1875 11.09375 0.1875 
C 14 0.1875 18.203125 0.1875 21 0 
L 21 4.296875 
C 19.09375 4.296875 17 4.78125 17 5.484375 
C 17 5.578125 17 5.671875 17.703125 6.46875 
L 27.703125 17.640625 
L 38.796875 4.296875 
L 34.59375 4.296875 
L 34.59375 0 
C 37 0.1875 43.703125 0.1875 46.5 0.1875 
C 49.5 0.1875 54.796875 0.1875 57.59375 0 
L 57.59375 4.296875 
L 50.59375 4.296875 
z
" id="CMBX12-120"/>
     </defs>
     <g transform="translate(15.225462 183.362537)rotate(-90)scale(0.1 -0.1)">
      <use transform="translate(0 14.943915)scale(0.996264)" xlink:href="#CMBX12-65"/>
      <use transform="translate(84.636395 14.943915)scale(0.996264)" xlink:href="#CMR17-45"/>
      <use transform="translate(114.712361 14.943915)scale(0.996264)" xlink:href="#CMR17-110"/>
      <use transform="translate(165.607731 14.943915)scale(0.996264)" xlink:href="#CMR17-111"/>
      <use transform="translate(211.298208 14.943915)scale(0.996264)" xlink:href="#CMR17-114"/>
      <use transform="translate(246.578976 14.943915)scale(0.996264)" xlink:href="#CMR17-109"/>
      <use transform="translate(353.574532 14.943915)scale(0.996264)" xlink:href="#CMR17-111"/>
      <use transform="translate(399.265009 14.943915)scale(0.996264)" xlink:href="#CMR17-102"/>
      <use transform="translate(456.814488 14.943915)scale(0.996264)" xlink:href="#CMR17-101"/>
      <use transform="translate(497.300148 14.943915)scale(0.996264)" xlink:href="#CMR17-114"/>
      <use transform="translate(532.580916 14.943915)scale(0.996264)" xlink:href="#CMR17-114"/>
      <use transform="translate(567.861684 14.943915)scale(0.996264)" xlink:href="#CMR17-111"/>
      <use transform="translate(613.552161 14.943915)scale(0.996264)" xlink:href="#CMR17-114"/>
      <use transform="translate(648.832929 14.943915)scale(0.996264)" xlink:href="#CMR17-58"/>
      <use transform="translate(714.189648 14.943915)scale(0.996264)" xlink:href="#CMSY10-107"/>
      <use transform="translate(764.003031 14.943915)scale(0.996264)" xlink:href="#CMBX12-120"/>
      <use transform="translate(845.295413 14.943915)scale(0.996264)" xlink:href="#CMSY10-0"/>
      <use transform="translate(944.922088 14.943915)scale(0.996264)" xlink:href="#CMBX12-120"/>
      <use transform="translate(1004.075263 0)scale(0.697382)" xlink:href="#CMMI12-107"/>
      <use transform="translate(1042.428646 14.943915)scale(0.996264)" xlink:href="#CMSY10-107"/>
      <use transform="translate(1092.242029 0)scale(0.697382)" xlink:href="#CMBX12-65"/>
     </g>
    </g>
   </g>
   <g id="line2d_35">
    <path clip-path="url(#p307d7ce947)" d="M 67.512633 19.982224 
L 68.315703 15.505705 
L 69.118773 15.484064 
L 69.921844 16.131917 
L 71.527984 18.248711 
L 72.331055 18.95984 
L 73.134125 19.435036 
L 73.937195 20.048888 
L 74.740265 20.833223 
L 75.543336 21.419331 
L 76.346406 21.806443 
L 77.952547 22.380487 
L 79.558687 23.161424 
L 81.164828 23.620788 
L 82.770968 23.828284 
L 84.377109 24.265145 
L 87.58939 25.433626 
L 90.801671 26.145442 
L 92.407812 26.46949 
L 96.423163 28.133809 
L 99.635444 29.909412 
L 101.241585 30.507305 
L 103.650796 31.143106 
L 106.863077 31.510378 
L 114.893779 32.476275 
L 117.30299 32.971585 
L 119.712201 33.714397 
L 121.318342 34.497898 
L 122.924482 35.45279 
L 124.530623 36.10196 
L 128.545974 38.153958 
L 130.152115 38.676678 
L 132.561326 39.200908 
L 138.182818 40.162008 
L 142.198169 41.366287 
L 145.41045 42.573454 
L 147.016591 43.060356 
L 148.622731 43.777446 
L 151.835012 45.553408 
L 154.244223 46.958099 
L 160.668785 49.458618 
L 163.881067 50.369381 
L 167.093348 51.361665 
L 171.108699 52.482546 
L 174.32098 53.47669 
L 180.745542 55.879599 
L 182.351683 56.388335 
L 183.957824 57.06264 
L 186.367034 58.277961 
L 191.185456 60.89637 
L 196.003878 64.76276 
L 197.610018 65.972257 
L 200.019229 68.617728 
L 201.62537 69.847339 
L 203.23151 71.417666 
L 204.837651 73.271046 
L 209.656073 78.374063 
L 210.459143 79.501053 
L 211.262213 80.430776 
L 213.671424 82.533678 
L 218.489846 85.30287 
L 221.702127 86.298205 
L 228.126689 87.693781 
L 229.73283 88.280375 
L 232.14204 89.529095 
L 232.945111 89.996155 
L 235.354322 92.115679 
L 238.566603 95.815832 
L 239.369673 96.52819 
L 240.975814 98.4866 
L 242.581954 100.347119 
L 244.991165 103.117612 
L 246.597306 104.65859 
L 251.415727 110.005097 
L 253.824938 113.113842 
L 254.628008 114.052168 
L 255.431079 114.683042 
L 257.037219 116.415906 
L 258.64336 117.929851 
L 260.2495 119.340483 
L 261.855641 121.461379 
L 266.674063 126.130301 
L 270.689414 130.817407 
L 273.098625 132.806712 
L 274.704765 134.580371 
L 276.310906 136.675621 
L 277.917046 138.290381 
L 282.735468 143.823298 
L 284.341609 145.373781 
L 286.75082 148.124962 
L 288.35696 149.901469 
L 289.16003 150.581453 
L 291.569241 153.311113 
L 293.175382 154.958362 
L 295.584593 157.570305 
L 297.190733 159.655534 
L 302.009155 164.975425 
L 306.827577 169.947637 
L 308.433717 171.374931 
L 310.039858 173.363912 
L 310.842928 174.541272 
L 311.645998 175.512042 
L 312.449069 176.263975 
L 314.055209 178.217231 
L 316.46442 180.540063 
L 321.282842 185.670472 
L 322.085912 186.397298 
L 323.692052 188.511397 
L 326.101263 191.065472 
L 327.707404 192.940586 
L 328.510474 194.07611 
L 332.525826 198.506851 
L 334.935036 200.739885 
L 336.541177 201.756113 
L 339.753458 203.27602 
L 342.162669 203.667767 
L 344.57188 203.869082 
L 349.390301 204.039581 
L 356.617934 204.097748 
L 371.876269 204.084636 
L 371.876269 204.084636 
" style="fill:none;stroke:#93a1a1;stroke-linecap:square;stroke-width:1.5;"/>
    <defs>
     <path d="M 0 3 
C 0.795609 3 1.55874 2.683901 2.12132 2.12132 
C 2.683901 1.55874 3 0.795609 3 0 
C 3 -0.795609 2.683901 -1.55874 2.12132 -2.12132 
C 1.55874 -2.683901 0.795609 -3 0 -3 
C -0.795609 -3 -1.55874 -2.683901 -2.12132 -2.12132 
C -2.683901 -1.55874 -3 -0.795609 -3 0 
C -3 0.795609 -2.683901 1.55874 -2.12132 2.12132 
C -1.55874 2.683901 -0.795609 3 0 3 
z
" id="m8677b8315e" style="stroke:#93a1a1;"/>
    </defs>
    <g clip-path="url(#p307d7ce947)">
     <use style="fill:#93a1a1;stroke:#93a1a1;" x="67.512633" xlink:href="#m8677b8315e" y="19.982224"/>
     <use style="fill:#93a1a1;stroke:#93a1a1;" x="128.545974" xlink:href="#m8677b8315e" y="38.153958"/>
     <use style="fill:#93a1a1;stroke:#93a1a1;" x="189.579316" xlink:href="#m8677b8315e" y="60.020666"/>
     <use style="fill:#93a1a1;stroke:#93a1a1;" x="250.612657" xlink:href="#m8677b8315e" y="109.109887"/>
     <use style="fill:#93a1a1;stroke:#93a1a1;" x="311.645998" xlink:href="#m8677b8315e" y="175.512042"/>
    </g>
   </g>
   <g id="line2d_36">
    <path clip-path="url(#p307d7ce947)" d="M 67.512633 19.982224 
L 68.315703 15.505705 
L 69.118773 15.484064 
L 69.921844 16.131917 
L 71.527984 18.248711 
L 72.331055 18.95984 
L 73.134125 19.435036 
L 73.937195 20.048888 
L 74.740265 20.833223 
L 75.543336 21.419331 
L 76.346406 21.806443 
L 77.952547 22.380487 
L 79.558687 23.161424 
L 81.164828 23.620788 
L 82.770968 23.828284 
L 84.377109 24.265145 
L 87.58939 25.433626 
L 90.801671 26.145442 
L 92.407812 26.46949 
L 96.423163 28.133809 
L 99.635444 29.909412 
L 101.241585 30.507305 
L 103.650796 31.143106 
L 106.863077 31.510378 
L 114.893779 32.476275 
L 117.30299 32.971585 
L 119.712201 33.714408 
L 121.318342 34.498342 
L 122.924482 35.465554 
L 125.333693 36.531128 
L 126.939834 37.445512 
L 128.545974 38.153974 
L 130.152115 38.676681 
L 132.561326 39.200058 
L 138.182818 40.16301 
L 141.395099 41.143839 
L 143.001239 41.703866 
L 144.60738 42.330852 
L 147.819661 43.389546 
L 150.228872 44.59734 
L 154.244223 46.973095 
L 158.259575 48.501376 
L 163.077996 50.183279 
L 165.487207 50.84509 
L 175.124051 53.935294 
L 177.533261 54.819783 
L 179.139402 55.307278 
L 180.745542 55.864466 
L 182.351683 56.381663 
L 185.563964 57.70886 
L 190.382386 60.528245 
L 193.594667 63.110514 
L 195.200808 64.189992 
L 197.610018 66.000355 
L 200.019229 68.648793 
L 203.23151 71.409107 
L 204.837651 73.15529 
L 205.640721 73.929762 
L 208.049932 76.701791 
L 208.853002 77.441246 
L 212.065283 80.891633 
L 214.474494 82.866433 
L 215.277565 83.362454 
L 216.883705 84.071168 
L 218.489846 85.116178 
L 220.095986 85.803851 
L 222.505197 86.444377 
L 228.929759 87.936091 
L 230.5359 88.65616 
L 232.945111 89.995087 
L 235.354322 92.111078 
L 244.991165 103.111612 
L 246.597306 104.644306 
L 248.203446 106.303464 
L 250.612657 109.085306 
L 252.218797 110.739568 
L 253.021868 111.788194 
L 255.431079 114.484339 
L 256.234149 115.413842 
L 257.840289 116.92309 
L 260.2495 119.207682 
L 261.855641 121.481945 
L 266.674063 126.10517 
L 269.886344 129.849307 
L 270.689414 130.677024 
L 272.295554 131.993861 
L 273.098625 132.668805 
L 274.704765 134.549038 
L 276.310906 136.509257 
L 282.735468 143.459689 
L 284.341609 145.278505 
L 285.144679 145.994195 
L 286.75082 147.960487 
L 288.35696 149.795846 
L 289.16003 150.502486 
L 290.766171 152.476707 
L 296.387663 158.247958 
L 297.993803 160.216988 
L 299.599944 161.83882 
L 302.009155 164.444782 
L 305.221436 168.007793 
L 306.827577 169.705099 
L 308.433717 171.332626 
L 310.842928 174.295224 
L 311.645998 175.089031 
L 314.858279 178.911729 
L 317.26749 181.270892 
L 322.085912 186.228169 
L 322.888982 187.359381 
L 325.298193 189.993894 
L 329.313544 194.206064 
L 330.919685 195.670519 
L 332.525826 196.646488 
L 334.131966 197.285148 
L 336.541177 197.926624 
L 338.950388 198.246835 
L 341.359599 198.388558 
L 351.799512 198.446622 
L 371.876269 198.43746 
L 371.876269 198.43746 
" style="fill:none;stroke:#93a1a1;stroke-linecap:square;stroke-width:1.5;"/>
    <defs>
     <path d="M 0 -3 
L -3 3 
L 3 3 
z
" id="m9bb9b51233" style="stroke:#93a1a1;stroke-linejoin:miter;"/>
    </defs>
    <g clip-path="url(#p307d7ce947)">
     <use style="fill:#93a1a1;stroke:#93a1a1;stroke-linejoin:miter;" x="82.770968" xlink:href="#m9bb9b51233" y="23.828284"/>
     <use style="fill:#93a1a1;stroke:#93a1a1;stroke-linejoin:miter;" x="143.80431" xlink:href="#m9bb9b51233" y="42.0443"/>
     <use style="fill:#93a1a1;stroke:#93a1a1;stroke-linejoin:miter;" x="204.837651" xlink:href="#m9bb9b51233" y="73.15529"/>
     <use style="fill:#93a1a1;stroke:#93a1a1;stroke-linejoin:miter;" x="265.870992" xlink:href="#m9bb9b51233" y="125.213976"/>
     <use style="fill:#93a1a1;stroke:#93a1a1;stroke-linejoin:miter;" x="326.904334" xlink:href="#m9bb9b51233" y="191.724059"/>
    </g>
   </g>
   <g id="line2d_37">
    <path clip-path="url(#p307d7ce947)" d="M 67.512633 19.982224 
L 68.315703 15.505705 
L 69.118773 15.484064 
L 69.921844 16.131917 
L 71.527984 18.248711 
L 72.331055 18.95984 
L 73.134125 19.435036 
L 73.937195 20.048888 
L 74.740265 20.833223 
L 75.543336 21.419331 
L 76.346406 21.806443 
L 77.952547 22.380487 
L 79.558687 23.161424 
L 81.164828 23.620788 
L 82.770968 23.828284 
L 84.377109 24.265145 
L 87.58939 25.433626 
L 90.801671 26.145442 
L 92.407812 26.46949 
L 96.423163 28.133809 
L 99.635444 29.909412 
L 101.241585 30.507305 
L 103.650796 31.143106 
L 106.863077 31.510378 
L 114.893779 32.476275 
L 117.30299 32.971585 
L 119.712201 33.714404 
L 121.318342 34.497981 
L 122.924482 35.453933 
L 124.530623 36.10281 
L 128.545974 38.153877 
L 130.152115 38.675623 
L 132.561326 39.177418 
L 137.379747 39.955795 
L 140.592028 40.879596 
L 143.80431 42.044313 
L 148.622731 43.783864 
L 151.835012 45.552059 
L 154.244223 46.940252 
L 160.668785 49.458847 
L 168.699488 51.873471 
L 172.71484 52.947787 
L 175.124051 53.787739 
L 177.533261 54.767943 
L 182.351683 56.375543 
L 185.563964 57.763806 
L 188.776245 59.57066 
L 191.185456 60.948528 
L 193.594667 62.928705 
L 195.200808 64.166985 
L 197.610018 65.909898 
L 199.216159 67.676388 
L 200.8223 69.068213 
L 203.23151 71.416178 
L 204.837651 73.175173 
L 205.640721 73.8452 
L 207.246862 75.646448 
L 209.656073 77.875743 
L 211.262213 79.8103 
L 214.474494 82.726134 
L 218.489846 85.108289 
L 220.095986 85.691854 
L 222.505197 86.344166 
L 227.323619 87.430233 
L 229.73283 88.181567 
L 232.945111 89.909431 
L 233.748181 90.380757 
L 234.551251 91.056693 
L 237.763532 94.435567 
L 239.369673 96.051994 
L 240.975814 97.99938 
L 241.778884 99.010769 
L 243.385024 100.621116 
L 244.991165 102.52096 
L 246.597306 104.135141 
L 250.612657 108.565575 
L 252.218797 109.90706 
L 255.431079 113.97015 
L 257.037219 115.755697 
L 257.840289 116.429626 
L 259.44643 118.138924 
L 260.2495 118.744092 
L 262.658711 121.59182 
L 264.264852 123.059944 
L 266.674063 125.167425 
L 268.280203 126.939342 
L 269.886344 128.988737 
L 276.310906 135.534712 
L 277.113976 136.571715 
L 280.326257 139.794128 
L 281.932398 141.683461 
L 284.341609 144.257568 
L 285.947749 145.692846 
L 293.175382 153.788818 
L 294.781522 155.312379 
L 296.387663 157.112482 
L 297.190733 157.943547 
L 297.993803 159.067366 
L 301.206085 162.440623 
L 302.009155 163.16917 
L 303.615295 164.898667 
L 306.024506 167.174644 
L 308.433717 169.931229 
L 310.039858 171.425148 
L 311.645998 173.156486 
L 314.858279 176.959764 
L 315.66135 178.075742 
L 316.46442 178.945742 
L 318.07056 180.35599 
L 318.873631 181.29847 
L 319.676701 182.007455 
L 321.282842 183.832201 
L 322.888982 185.29108 
L 324.495123 186.994756 
L 326.904334 189.618778 
L 328.510474 191.153449 
L 330.116615 192.61873 
L 330.919685 193.478188 
L 332.525826 195.36245 
L 336.541177 199.722841 
L 339.753458 202.11056 
L 342.162669 203.182422 
L 343.768809 203.743618 
L 346.17802 204.059377 
L 348.587231 204.222973 
L 352.602583 204.357864 
L 364.648637 204.402937 
L 371.876269 204.40248 
L 371.876269 204.40248 
" style="fill:none;stroke:#93a1a1;stroke-linecap:square;stroke-width:1.5;"/>
    <defs>
     <path d="M -0 3 
L 3 -3 
L -3 -3 
z
" id="mb4b85caaa6" style="stroke:#93a1a1;stroke-linejoin:miter;"/>
    </defs>
    <g clip-path="url(#p307d7ce947)">
     <use style="fill:#93a1a1;stroke:#93a1a1;stroke-linejoin:miter;" x="98.029304" xlink:href="#mb4b85caaa6" y="29.10807"/>
     <use style="fill:#93a1a1;stroke:#93a1a1;stroke-linejoin:miter;" x="159.062645" xlink:href="#mb4b85caaa6" y="48.795211"/>
     <use style="fill:#93a1a1;stroke:#93a1a1;stroke-linejoin:miter;" x="220.095986" xlink:href="#mb4b85caaa6" y="85.691854"/>
     <use style="fill:#93a1a1;stroke:#93a1a1;stroke-linejoin:miter;" x="281.129328" xlink:href="#mb4b85caaa6" y="140.790251"/>
     <use style="fill:#93a1a1;stroke:#93a1a1;stroke-linejoin:miter;" x="342.162669" xlink:href="#mb4b85caaa6" y="203.182422"/>
    </g>
   </g>
   <g id="line2d_38">
    <path clip-path="url(#p307d7ce947)" d="M 67.512633 19.982224 
L 68.315703 15.505705 
L 69.118773 15.484064 
L 69.921844 16.131917 
L 71.527984 18.248711 
L 72.331055 18.95984 
L 73.134125 19.435036 
L 73.937195 20.048888 
L 74.740265 20.833223 
L 75.543336 21.419331 
L 76.346406 21.806443 
L 77.952547 22.380487 
L 79.558687 23.161424 
L 81.164828 23.620788 
L 82.770968 23.828284 
L 84.377109 24.265145 
L 87.58939 25.433626 
L 90.801671 26.145442 
L 92.407812 26.46949 
L 96.423163 28.133809 
L 99.635444 29.909412 
L 101.241585 30.507305 
L 103.650796 31.143106 
L 106.863077 31.510378 
L 114.893779 32.476275 
L 117.30299 32.971585 
L 119.712201 33.714406 
L 121.318342 34.498111 
L 122.924482 35.457628 
L 125.333693 36.525794 
L 126.939834 37.445296 
L 128.545974 38.153952 
L 130.152115 38.67662 
L 132.561326 39.198533 
L 138.182818 40.160806 
L 141.395099 41.073315 
L 148.622731 43.778399 
L 152.638083 46.018333 
L 154.244223 46.918009 
L 158.259575 48.499299 
L 162.274926 49.893473 
L 167.093348 51.26743 
L 171.911769 52.680018 
L 177.533261 54.653912 
L 181.548613 56.034538 
L 186.367034 58.149973 
L 187.973175 59.091533 
L 189.579316 59.815644 
L 191.185456 60.819109 
L 193.594667 62.879778 
L 198.413089 66.609014 
L 200.8223 68.938299 
L 202.42844 70.173166 
L 203.23151 70.928756 
L 204.837651 72.790754 
L 208.049932 76.196334 
L 208.853002 77.033429 
L 209.656073 77.63515 
L 210.459143 78.464112 
L 212.065283 80.414159 
L 213.671424 81.868401 
L 215.277565 83.107521 
L 217.686775 84.28042 
L 218.489846 84.795779 
L 220.899057 85.783597 
L 223.308267 86.430618 
L 228.929759 87.830758 
L 230.5359 88.425855 
L 233.748181 90.117444 
L 236.157392 92.025723 
L 239.369673 95.489417 
L 245.794235 103.01254 
L 248.203446 105.194258 
L 249.006516 106.021338 
L 250.612657 108.006501 
L 253.021868 110.096699 
L 254.628008 112.259426 
L 255.431079 113.322945 
L 259.44643 117.585721 
L 261.052571 118.990087 
L 263.461781 121.910419 
L 265.870992 124.110723 
L 266.674063 124.961697 
L 268.280203 126.419312 
L 269.886344 128.061731 
L 270.689414 129.077337 
L 273.098625 131.40023 
L 274.704765 132.759924 
L 278.720117 137.345666 
L 280.326257 138.980371 
L 282.735468 141.366464 
L 285.144679 143.197121 
L 285.947749 143.755992 
L 289.16003 145.235222 
L 290.766171 145.631731 
L 292.372312 145.882232 
L 297.190733 146.010931 
L 306.024506 145.859032 
L 319.676701 145.47751 
L 323.692052 145.030659 
L 333.328896 143.447598 
L 338.147318 143.112545 
L 345.37495 142.561896 
L 352.602583 141.869479 
L 358.224075 141.403483 
L 364.648637 140.760786 
L 371.876269 139.814036 
L 371.876269 139.814036 
" style="fill:none;stroke:#93a1a1;stroke-linecap:square;stroke-width:1.5;"/>
    <defs>
     <path d="M -3 3 
L 3 3 
L 3 -3 
L -3 -3 
z
" id="mebdad36d0d" style="stroke:#93a1a1;stroke-linejoin:miter;"/>
    </defs>
    <g clip-path="url(#p307d7ce947)">
     <use style="fill:#93a1a1;stroke:#93a1a1;stroke-linejoin:miter;" x="113.287639" xlink:href="#mebdad36d0d" y="32.261563"/>
     <use style="fill:#93a1a1;stroke:#93a1a1;stroke-linejoin:miter;" x="174.32098" xlink:href="#mebdad36d0d" y="53.482925"/>
     <use style="fill:#93a1a1;stroke:#93a1a1;stroke-linejoin:miter;" x="235.354322" xlink:href="#mebdad36d0d" y="91.330038"/>
     <use style="fill:#93a1a1;stroke:#93a1a1;stroke-linejoin:miter;" x="296.387663" xlink:href="#mebdad36d0d" y="146.020988"/>
     <use style="fill:#93a1a1;stroke:#93a1a1;stroke-linejoin:miter;" x="357.421004" xlink:href="#mebdad36d0d" y="141.466825"/>
    </g>
   </g>
   <g id="line2d_39">
    <path clip-path="url(#p307d7ce947)" d="M 67.512633 19.982224 
L 68.315703 15.505705 
L 69.118773 15.484064 
L 69.921844 16.131917 
L 71.527984 18.248711 
L 72.331055 18.95984 
L 73.134125 19.435036 
L 73.937195 20.048888 
L 74.740265 20.833223 
L 75.543336 21.419331 
L 76.346406 21.806443 
L 77.952547 22.380487 
L 79.558687 23.161424 
L 81.164828 23.620788 
L 82.770968 23.828284 
L 84.377109 24.265145 
L 87.58939 25.433626 
L 90.801671 26.145442 
L 92.407812 26.46949 
L 96.423163 28.133809 
L 99.635444 29.909412 
L 101.241585 30.507305 
L 103.650796 31.143106 
L 106.863077 31.510378 
L 114.893779 32.476275 
L 117.30299 32.971585 
L 119.712201 33.714411 
L 121.318342 34.498486 
L 122.924482 35.470167 
L 125.333693 36.537658 
L 126.939834 37.44567 
L 128.545974 38.152124 
L 130.152115 38.655878 
L 134.167466 39.425723 
L 138.182818 40.083637 
L 141.395099 41.045672 
L 143.001239 41.576047 
L 145.41045 42.493522 
L 147.819661 43.351898 
L 152.638083 45.867777 
L 154.244223 46.885412 
L 156.653434 47.859851 
L 161.471856 49.609544 
L 166.290277 50.968022 
L 168.699488 51.695035 
L 175.927121 53.973126 
L 178.336332 54.902461 
L 180.745542 55.616563 
L 183.957824 56.741607 
L 186.367034 57.881347 
L 187.973175 58.782729 
L 191.185456 60.520981 
L 193.594667 62.308808 
L 195.200808 63.678117 
L 198.413089 65.879111 
L 202.42844 69.788824 
L 204.034581 71.332851 
L 207.246862 74.803993 
L 210.459143 77.798845 
L 213.671424 81.327624 
L 215.277565 82.671164 
L 216.883705 83.615587 
L 220.899057 85.647765 
L 222.505197 86.126029 
L 224.914408 86.661144 
L 228.126689 87.314222 
L 231.33897 88.311965 
L 233.748181 89.621431 
L 234.551251 90.076013 
L 236.157392 91.423732 
L 237.763532 92.936848 
L 239.369673 94.809372 
L 242.581954 98.013262 
L 244.188095 100.004504 
L 247.400376 103.624625 
L 249.006516 105.094527 
L 250.612657 106.760084 
L 251.415727 107.732677 
L 253.021868 109.153699 
L 253.824938 109.857356 
L 258.64336 115.478877 
L 261.052571 117.812215 
L 261.855641 118.482963 
L 262.658711 119.371276 
L 264.264852 121.465228 
L 265.870992 122.941847 
L 267.477133 124.312635 
L 269.886344 126.850959 
L 273.901695 131.124223 
L 276.310906 133.106433 
L 280.326257 137.619102 
L 281.129328 138.291272 
L 285.144679 142.778753 
L 286.75082 144.532779 
L 288.35696 146.250275 
L 292.372312 150.045719 
L 294.781522 152.090202 
L 297.993803 154.168006 
L 299.599944 154.980586 
L 301.206085 155.745349 
L 302.812225 156.191934 
L 304.418366 156.509116 
L 306.827577 156.743209 
L 310.842928 156.859094 
L 367.860918 156.857494 
L 371.876269 156.857494 
L 371.876269 156.857494 
" style="fill:none;stroke:#6c71c4;stroke-linecap:square;stroke-width:1.5;"/>
   </g>
   <g id="line2d_40">
    <path clip-path="url(#p307d7ce947)" d="M 67.512633 19.982224 
L 68.315703 15.505705 
L 69.118773 15.484064 
L 69.921844 16.131917 
L 71.527984 18.248711 
L 72.331055 18.95984 
L 73.134125 19.435036 
L 73.937195 20.048888 
L 74.740265 20.833223 
L 75.543336 21.419331 
L 76.346406 21.806443 
L 77.952547 22.380487 
L 79.558687 23.161424 
L 81.164828 23.620788 
L 82.770968 23.828284 
L 84.377109 24.265145 
L 87.58939 25.433626 
L 90.801671 26.145442 
L 92.407812 26.46949 
L 96.423163 28.133809 
L 99.635444 29.909412 
L 101.241585 30.507305 
L 103.650796 31.143106 
L 106.863077 31.510378 
L 114.893779 32.476275 
L 117.30299 32.971585 
L 119.712201 33.71441 
L 121.318342 34.49831 
L 122.924482 35.463636 
L 125.333693 36.528886 
L 126.939834 37.445407 
L 128.545974 38.153967 
L 130.152115 38.67666 
L 132.561326 39.199111 
L 138.182818 40.1619 
L 142.198169 41.366282 
L 145.41045 42.580781 
L 147.016591 43.1047 
L 149.425802 44.207544 
L 151.031942 45.096233 
L 155.047294 47.256085 
L 159.062645 48.795065 
L 161.471856 49.704554 
L 175.124051 53.786678 
L 177.533261 54.768398 
L 183.957824 56.932077 
L 185.563964 57.659298 
L 187.973175 58.970702 
L 190.382386 60.264033 
L 191.185456 60.819235 
L 193.594667 62.924094 
L 195.200808 64.056029 
L 196.806948 65.121281 
L 198.413089 66.565014 
L 201.62537 69.798036 
L 203.23151 71.002102 
L 205.640721 73.59355 
L 208.853002 76.97801 
L 209.656073 77.55903 
L 210.459143 78.435331 
L 212.065283 80.408177 
L 213.671424 81.866313 
L 215.277565 83.162507 
L 219.292916 85.296128 
L 220.899057 85.850361 
L 224.914408 86.80056 
L 228.126689 87.579253 
L 230.5359 88.394211 
L 233.748181 90.124658 
L 235.354322 91.39849 
L 236.960462 93.004231 
L 237.763532 94.038762 
L 241.778884 98.320425 
L 243.385024 100.197085 
L 244.991165 102.27423 
L 245.794235 103.142017 
L 247.400376 104.629564 
L 253.021868 110.544152 
L 254.628008 112.62019 
L 256.234149 114.328888 
L 257.840289 115.834023 
L 261.855641 119.76466 
L 264.264852 122.630259 
L 265.870992 124.121272 
L 269.886344 128.456915 
L 273.098625 131.655662 
L 274.704765 132.977401 
L 276.310906 134.844054 
L 277.113976 135.909214 
L 278.720117 137.5492 
L 281.932398 141.193307 
L 285.144679 144.803245 
L 290.766171 150.502586 
L 294.781522 154.63489 
L 296.387663 156.485385 
L 298.796874 159.007963 
L 299.599944 160.072781 
L 301.206085 161.608543 
L 303.615295 164.283757 
L 306.024506 166.48839 
L 307.630647 168.273615 
L 312.449069 173.148642 
L 314.055209 175.152251 
L 315.66135 177.107344 
L 325.298193 186.57854 
L 326.904334 188.413736 
L 329.313544 190.079738 
L 330.919685 191.028256 
L 333.328896 192.106808 
L 336.541177 192.626596 
L 339.753458 192.726295 
L 346.981091 192.747978 
L 371.876269 192.739172 
L 371.876269 192.739172 
" style="fill:none;stroke:#859900;stroke-dasharray:1.5,2.475;stroke-dashoffset:0;stroke-width:1.5;"/>
   </g>
   <g id="line2d_41">
    <path clip-path="url(#p307d7ce947)" d="M 67.512633 19.982224 
L 68.315703 15.505705 
L 69.118773 15.484064 
L 69.921844 16.131917 
L 71.527984 18.248711 
L 72.331055 18.95984 
L 73.134125 19.435036 
L 73.937195 20.048888 
L 74.740265 20.833223 
L 75.543336 21.419331 
L 76.346406 21.806443 
L 77.952547 22.380487 
L 79.558687 23.161424 
L 81.164828 23.620788 
L 82.770968 23.828284 
L 84.377109 24.265145 
L 87.58939 25.433626 
L 90.801671 26.145442 
L 92.407812 26.46949 
L 96.423163 28.133809 
L 99.635444 29.909412 
L 101.241585 30.507305 
L 103.650796 31.143106 
L 106.863077 31.510378 
L 114.893779 32.476275 
L 117.30299 32.971585 
L 119.712201 33.714336 
L 121.318342 34.495302 
L 122.924482 35.402636 
L 124.530623 36.083459 
L 128.545974 38.15285 
L 130.152115 38.662157 
L 134.167466 39.426887 
L 137.379747 39.955755 
L 141.395099 41.104694 
L 143.001239 41.697949 
L 144.60738 42.3265 
L 147.819661 43.368347 
L 151.031942 45.095989 
L 155.047294 47.255348 
L 159.062645 48.794435 
L 160.668785 49.449747 
L 172.71484 52.991977 
L 177.533261 54.712258 
L 179.942472 55.459632 
L 184.760894 57.289667 
L 186.367034 58.150218 
L 187.973175 59.13791 
L 190.382386 60.275864 
L 191.185456 60.820903 
L 193.594667 62.917793 
L 195.200808 64.039547 
L 197.610018 65.713443 
L 198.413089 66.45095 
L 200.8223 69.050211 
L 201.62537 69.767069 
L 203.23151 70.957056 
L 204.837651 72.771094 
L 206.443791 74.390038 
L 208.853002 77.078183 
L 209.656073 77.820914 
L 212.868354 81.351137 
L 213.671424 82.126931 
L 215.277565 83.182936 
L 219.292916 85.293414 
L 221.702127 86.042292 
L 223.308267 86.463399 
L 227.323619 87.358063 
L 229.73283 88.14134 
L 232.14204 89.407131 
L 232.945111 89.774013 
L 233.748181 90.265087 
L 235.354322 91.578384 
L 240.172743 96.811516 
L 241.778884 98.564129 
L 245.794235 103.22171 
L 248.203446 105.561419 
L 249.809587 107.646661 
L 251.415727 109.173261 
L 253.021868 110.875839 
L 253.824938 111.778763 
L 254.628008 112.888057 
L 257.840289 116.146431 
L 258.64336 116.749695 
L 260.2495 118.369645 
L 261.052571 119.058569 
L 262.658711 121.381283 
L 263.461781 122.226728 
L 265.067922 123.689606 
L 267.477133 125.987852 
L 269.083273 127.754917 
L 269.886344 128.528939 
L 271.492484 130.277989 
L 273.098625 131.851371 
L 273.901695 132.44516 
L 274.704765 133.229969 
L 276.310906 135.21464 
L 278.720117 137.834063 
L 279.523187 138.550046 
L 287.55389 147.538392 
L 288.35696 148.173557 
L 294.781522 155.039432 
L 297.993803 158.430865 
L 298.796874 159.63681 
L 299.599944 160.515777 
L 300.403014 161.182852 
L 304.418366 165.408427 
L 305.221436 166.086604 
L 306.827577 168.007531 
L 313.252139 174.586637 
L 317.26749 179.097269 
L 318.873631 180.509457 
L 322.888982 184.740953 
L 323.692052 185.428554 
L 329.313544 191.372368 
L 330.919685 192.93485 
L 334.935036 197.538465 
L 338.950388 200.89485 
L 340.556528 201.89391 
L 342.965739 202.986053 
L 343.768809 203.330603 
L 345.37495 203.659217 
L 348.587231 204.02255 
L 352.602583 204.252327 
L 361.436356 204.344594 
L 371.876269 204.344596 
L 371.876269 204.344596 
" style="fill:none;stroke:#073642;stroke-dasharray:1.5,2.475;stroke-dashoffset:0;stroke-width:1.5;"/>
   </g>
   <g id="line2d_42">
    <path clip-path="url(#p307d7ce947)" d="M 67.512633 19.982224 
L 68.315703 15.505705 
L 69.118773 15.484064 
L 69.921844 16.131917 
L 71.527984 18.248711 
L 72.331055 18.95984 
L 73.134125 19.435036 
L 73.937195 20.048888 
L 74.740265 20.833223 
L 75.543336 21.419331 
L 76.346406 21.806443 
L 77.952547 22.380487 
L 79.558687 23.161424 
L 81.164828 23.620788 
L 82.770968 23.828284 
L 84.377109 24.265145 
L 87.58939 25.433626 
L 90.801671 26.145442 
L 92.407812 26.46949 
L 96.423163 28.133809 
L 99.635444 29.909412 
L 101.241585 30.507305 
L 103.650796 31.143106 
L 106.863077 31.510378 
L 114.893779 32.476275 
L 117.30299 32.971585 
L 119.712201 33.714419 
L 121.318342 34.498743 
L 122.924482 35.478465 
L 125.333693 36.649431 
L 127.742904 37.866036 
L 130.152115 38.677886 
L 132.561326 39.16626 
L 138.182818 40.084849 
L 140.592028 40.764947 
L 145.41045 42.49491 
L 147.819661 43.353087 
L 152.638083 45.867805 
L 154.244223 46.884134 
L 156.653434 47.84595 
L 161.471856 49.620328 
L 164.684137 50.519766 
L 175.124051 53.617848 
L 177.533261 54.585124 
L 179.942472 55.305572 
L 185.563964 57.479671 
L 187.973175 58.699127 
L 191.988526 61.114239 
L 195.200808 63.560547 
L 196.003878 63.993808 
L 199.216159 66.439011 
L 200.8223 68.223442 
L 202.42844 69.764706 
L 204.034581 71.091701 
L 206.443791 73.589565 
L 207.246862 74.368769 
L 208.853002 76.167579 
L 211.262213 78.406603 
L 212.065283 79.49819 
L 214.474494 81.822453 
L 215.277565 82.532826 
L 217.686775 83.815599 
L 220.899057 85.479235 
L 222.505197 86.026986 
L 226.520548 86.870027 
L 228.929759 87.427858 
L 231.33897 88.276667 
L 232.945111 89.034896 
L 235.354322 90.37976 
L 236.960462 91.860159 
L 237.763532 92.800099 
L 238.566603 93.542042 
L 240.172743 95.236348 
L 241.778884 96.942636 
L 244.188095 99.70453 
L 246.597306 102.418467 
L 248.203446 103.928309 
L 250.612657 106.162143 
L 253.021868 108.952977 
L 254.628008 110.356339 
L 258.64336 115.161442 
L 263.461781 119.931926 
L 264.264852 120.978292 
L 266.674063 123.298384 
L 268.280203 124.662348 
L 269.083273 125.545362 
L 270.689414 127.0683 
L 273.901695 130.556817 
L 277.113976 133.366108 
L 280.326257 137.263061 
L 283.538538 140.48668 
L 288.35696 145.602239 
L 289.16003 146.239129 
L 293.175382 150.23271 
L 293.978452 150.834165 
L 295.584593 152.195006 
L 297.993803 153.617118 
L 299.599944 154.417793 
L 302.009155 155.323249 
L 304.418366 155.75258 
L 306.827577 155.951521 
L 311.645998 156.067913 
L 335.738107 156.062495 
L 371.876269 156.062562 
L 371.876269 156.062562 
" style="fill:none;stroke:#2aa198;stroke-linecap:square;stroke-width:1.5;"/>
   </g>
   <g id="line2d_43">
    <path clip-path="url(#p307d7ce947)" d="M 67.512633 19.982224 
L 68.315703 15.505705 
L 69.118773 15.484064 
L 69.921844 16.131917 
L 71.527984 18.248711 
L 72.331055 18.95984 
L 73.134125 19.435036 
L 73.937195 20.048888 
L 74.740265 20.833223 
L 75.543336 21.419331 
L 76.346406 21.806443 
L 77.952547 22.380487 
L 79.558687 23.161424 
L 81.164828 23.620788 
L 82.770968 23.828284 
L 84.377109 24.265145 
L 87.58939 25.433626 
L 90.801671 26.145442 
L 92.407812 26.46949 
L 96.423163 28.133809 
L 99.635444 29.909412 
L 101.241585 30.507305 
L 103.650796 31.143106 
L 106.863077 31.510378 
L 114.893779 32.476275 
L 117.30299 32.971585 
L 119.712201 33.714414 
L 121.318342 34.498606 
L 122.924482 35.473984 
L 125.333693 36.550307 
L 126.939834 37.446308 
L 128.545974 38.153759 
L 130.152115 38.672692 
L 133.364396 39.289208 
L 138.985888 40.321892 
L 140.592028 40.766696 
L 149.425802 44.208946 
L 151.031942 45.096906 
L 155.047294 47.268611 
L 159.062645 48.795211 
L 161.471856 49.708236 
L 167.093348 51.310263 
L 168.699488 51.734436 
L 170.305629 52.208205 
L 172.71484 52.885722 
L 178.336332 54.912461 
L 180.745542 55.752941 
L 184.760894 57.273139 
L 186.367034 58.102944 
L 187.973175 59.044316 
L 190.382386 60.266185 
L 191.185456 60.818866 
L 192.791597 62.177624 
L 194.397737 63.420689 
L 196.003878 64.548694 
L 198.413089 66.44259 
L 200.019229 68.221996 
L 200.8223 69.001531 
L 202.42844 70.185485 
L 204.034581 71.753036 
L 206.443791 74.331471 
L 208.049932 76.183812 
L 208.853002 76.987245 
L 209.656073 77.609728 
L 212.065283 80.314064 
L 215.277565 83.028052 
L 217.686775 84.279297 
L 218.489846 84.803928 
L 220.899057 85.792084 
L 224.914408 86.780417 
L 227.323619 87.314162 
L 230.5359 88.331344 
L 232.14204 89.190528 
L 233.748181 89.994081 
L 235.354322 91.097632 
L 236.157392 91.808757 
L 238.566603 94.501423 
L 240.975814 97.316721 
L 242.581954 99.179523 
L 244.991165 102.069339 
L 246.597306 103.606323 
L 248.203446 105.078332 
L 251.415727 108.564741 
L 253.021868 110.193883 
L 256.234149 114.288588 
L 261.052571 118.951043 
L 263.461781 121.835629 
L 267.477133 125.390588 
L 268.280203 126.291057 
L 269.083273 126.973708 
L 273.098625 131.333403 
L 273.901695 131.897375 
L 274.704765 132.648756 
L 280.326257 139.100429 
L 283.538538 142.563745 
L 287.55389 146.687981 
L 288.35696 147.690166 
L 289.16003 148.472691 
L 290.766171 150.230486 
L 297.993803 157.631119 
L 300.403014 160.596772 
L 303.615295 163.687037 
L 306.024506 166.294114 
L 306.827577 167.306672 
L 314.055209 174.483114 
L 316.46442 177.387 
L 318.07056 178.923664 
L 319.676701 180.41961 
L 321.282842 182.024229 
L 322.888982 183.817487 
L 326.101263 186.749397 
L 326.904334 187.662119 
L 328.510474 188.897829 
L 331.722755 190.811843 
L 334.935036 192.27287 
L 336.541177 192.683347 
L 339.753458 193.092463 
L 342.965739 193.290635 
L 348.587231 193.470032 
L 357.421004 193.507263 
L 371.876269 193.50569 
L 371.876269 193.50569 
" style="fill:none;stroke:#073642;stroke-linecap:square;stroke-width:1.5;"/>
   </g>
   <g id="patch_3">
    <path d="M 52.294451 232.46 
L 52.294451 10.7 
" style="fill:none;stroke:#000000;stroke-linecap:square;stroke-linejoin:miter;stroke-width:0.8;"/>
   </g>
   <g id="patch_4">
    <path d="M 387.094451 232.46 
L 387.094451 10.7 
" style="fill:none;stroke:#000000;stroke-linecap:square;stroke-linejoin:miter;stroke-width:0.8;"/>
   </g>
   <g id="patch_5">
    <path d="M 52.294451 232.46 
L 387.094451 232.46 
" style="fill:none;stroke:#000000;stroke-linecap:square;stroke-linejoin:miter;stroke-width:0.8;"/>
   </g>
   <g id="patch_6">
    <path d="M 52.294451 10.7 
L 387.094451 10.7 
" style="fill:none;stroke:#000000;stroke-linecap:square;stroke-linejoin:miter;stroke-width:0.8;"/>
   </g>
   <g id="legend_1">
    <g id="patch_7">
     <path d="M 394.094451 144.134605 
L 498.591371 144.134605 
Q 500.591371 144.134605 500.591371 142.134605 
L 500.591371 17.7 
Q 500.591371 15.7 498.591371 15.7 
L 394.094451 15.7 
Q 392.094451 15.7 392.094451 17.7 
L 392.094451 142.134605 
Q 392.094451 144.134605 394.094451 144.134605 
z
" style="fill:#ffffff;opacity:0.8;stroke:#cccccc;stroke-linejoin:miter;"/>
    </g>
    <g id="line2d_44">
     <path d="M 396.094451 23.2 
L 416.094451 23.2 
" style="fill:none;stroke:#073642;stroke-linecap:square;stroke-width:1.5;"/>
    </g>
    <g id="line2d_45"/>
    <g id="text_20">
     <!-- \textsc{pipe-PR-CG} -->
     <defs>
      <path d="M 32.296875 23 
C 42.296875 23 50.703125 29.296875 50.703125 36.890625 
C 50.703125 44.09375 43.09375 51 31.59375 51 
L 4.5 51 
L 4.5 48.484375 
C 11.203125 48.484375 11.703125 47.890625 11.703125 43.796875 
L 11.703125 7.109375 
C 11.703125 3.078125 11.203125 2.5 4.5 2.5 
L 4.5 0 
C 7.40625 0.09375 13.09375 0.296875 15.296875 0.296875 
C 17.5 0.296875 23.09375 0.09375 26.09375 0 
L 26.09375 2.5 
C 19.40625 2.5 18.90625 3.078125 18.90625 7.109375 
L 18.90625 23 
z
M 18.59375 44.1875 
C 18.59375 48.1875 19.09375 48.484375 22.59375 48.484375 
L 29.5 48.484375 
C 42.09375 48.484375 42.09375 40.890625 42.09375 36.890625 
C 42.09375 33 42.09375 25.296875 29.5 25.296875 
L 18.59375 25.296875 
z
" id="CMCSC10-112"/>
      <path d="M 18.703125 43.734375 
C 18.703125 48 19.203125 48.484375 26.296875 48.484375 
L 26.296875 51 
C 22.90625 50.890625 17.703125 50.6875 15.09375 50.6875 
C 12.5 50.6875 7.296875 50.890625 3.90625 51 
L 3.90625 48.484375 
C 11 48.484375 11.5 48 11.5 43.734375 
L 11.5 7.25 
C 11.5 2.984375 11 2.5 3.90625 2.5 
L 3.90625 0 
C 7.296875 0.09375 12.5 0.296875 15.09375 0.296875 
C 17.703125 0.296875 22.90625 0.09375 26.296875 0 
L 26.296875 2.5 
C 19.203125 2.5 18.703125 2.984375 18.703125 7.25 
z
" id="CMCSC10-105"/>
      <path d="M 48.796875 50.6875 
L 4.296875 50.6875 
L 4.296875 48.1875 
C 11 48.1875 11.5 47.59375 11.5 43.515625 
L 11.5 7.125 
C 11.5 3.078125 11 2.5 4.296875 2.5 
L 4.296875 0 
L 50 0 
L 52.90625 19.171875 
L 50.40625 19.171875 
C 48.703125 7.234375 46.296875 2.5 33.5 2.5 
L 22.703125 2.5 
C 19.203125 2.5 18.703125 2.78125 18.703125 6.734375 
L 18.703125 25 
L 25.703125 25 
C 33.09375 25 34.296875 23.015625 34.296875 16.40625 
L 36.796875 16.40625 
L 36.796875 36.15625 
L 34.296875 36.15625 
C 34.296875 29.484375 33.09375 27.5 25.703125 27.5 
L 18.703125 27.5 
L 18.703125 43.90625 
C 18.703125 47.890625 19.203125 48.1875 22.703125 48.1875 
L 32.90625 48.1875 
C 44.5 48.1875 47.09375 44.703125 48.203125 33.859375 
L 50.703125 33.859375 
z
" id="CMCSC10-101"/>
      <path d="M 30.5 19 
L 30.5 24.796875 
L 2.59375 24.796875 
L 2.59375 19 
z
" id="CMCSC10-45"/>
      <path d="M 43 31.390625 
C 55.203125 31.390625 66.90625 39.171875 66.90625 49.4375 
C 66.90625 59.3125 56.296875 68 42.203125 68 
L 5.703125 68 
L 5.703125 64.890625 
L 8.09375 64.890625 
C 15.796875 64.890625 16 63.796875 16 60.203125 
L 16 7.765625 
C 16 4.1875 15.796875 3.09375 8.09375 3.09375 
L 5.703125 3.09375 
L 5.703125 0 
C 9.203125 0.296875 16.59375 0.296875 20.40625 0.296875 
C 24.203125 0.296875 31.703125 0.296875 35.203125 0 
L 35.203125 3.09375 
L 32.796875 3.09375 
C 25.09375 3.09375 24.90625 4.1875 24.90625 7.765625 
L 24.90625 31.390625 
z
M 24.59375 60.90625 
C 24.59375 64.1875 24.796875 64.890625 29.5 64.890625 
L 39.59375 64.890625 
C 56.59375 64.890625 56.59375 53.921875 56.59375 49.4375 
C 56.59375 45.15625 56.59375 34 39.59375 34 
L 24.59375 34 
z
" id="CMCSC10-80"/>
      <path d="M 24.59375 35.1875 
L 24.59375 60.921875 
C 24.59375 63.609375 24.796875 64.5 27.203125 64.796875 
C 28.09375 64.890625 31.203125 64.890625 33.203125 64.890625 
C 41.90625 64.890625 55.09375 64.890625 55.09375 50.09375 
C 55.09375 39.46875 48 35.1875 36.703125 35.1875 
z
M 47 33.890625 
C 59 36.78125 65.40625 43.34375 65.40625 50.09375 
C 65.40625 59.734375 53.203125 68 38.09375 68 
L 5.703125 68 
L 5.703125 64.890625 
L 8.09375 64.890625 
C 15.796875 64.890625 16 63.796875 16 60.21875 
L 16 7.921875 
C 16 4.359375 15.796875 3.265625 8.09375 3.265625 
L 5.703125 3.265625 
L 5.703125 0.1875 
C 9.296875 0.484375 16.40625 0.484375 20.296875 0.484375 
C 24.203125 0.484375 31.296875 0.484375 34.90625 0.1875 
L 34.90625 3.265625 
L 32.5 3.265625 
C 24.796875 3.265625 24.59375 4.359375 24.59375 7.921875 
L 24.59375 33 
L 37.09375 33 
C 42.5 33 45.703125 31.015625 47.40625 29.421875 
C 51.203125 25.75 51.203125 23.28125 51.203125 16.34375 
C 51.203125 9.5 51.203125 5.9375 55.5 2.078125 
C 59.203125 -1.109375 64.796875 -2 68.296875 -2 
C 76.296875 -2 78.203125 6.140625 78.203125 8.90625 
C 78.203125 9.5 78.203125 10.59375 76.90625 10.59375 
C 75.796875 10.59375 75.796875 9.703125 75.703125 9.015625 
C 74.90625 1.28125 70.796875 0.1875 68.703125 0.1875 
C 63.40625 0.1875 62.703125 4.65625 60.90625 16.140625 
C 59.796875 23.078125 59.40625 25.5625 56.203125 28.734375 
C 54.09375 30.90625 50.90625 32.796875 47 33.890625 
z
" id="CMCSC10-82"/>
      <path d="M 63.40625 62.0625 
C 60.09375 65.484375 54 71 43.703125 71 
C 24 71 7.203125 54.9375 7.203125 34.546875 
C 7.203125 14.046875 24 -2 43.796875 -2 
C 60.703125 -2 71.296875 11.640625 71.296875 23.59375 
C 71.296875 24.59375 71.296875 25.296875 70 25.296875 
C 68.90625 25.296875 68.90625 24.703125 68.796875 23.6875 
C 68 9.125 56.296875 1.09375 45.09375 1.09375 
C 36.296875 1.09375 17.5 6.3125 17.5 34.4375 
C 17.5 64.078125 38 67.890625 44.90625 67.890625 
C 55.59375 67.890625 65.796875 59.546875 68.09375 44.078125 
C 68.296875 42.671875 68.40625 42.375 69.703125 42.375 
C 71.296875 42.375 71.296875 42.671875 71.296875 44.78125 
L 71.296875 68.59375 
C 71.296875 70.296875 71.296875 71 70.203125 71 
C 69.796875 71 69.40625 71 68.59375 69.796875 
z
" id="CMCSC10-67"/>
      <path d="M 71.203125 68.59375 
C 71.203125 70.296875 71.203125 71 70.09375 71 
C 69.703125 71 69.296875 71 68.5 69.796875 
L 63.296875 62.125 
C 60.203125 65.109375 54.296875 71 43.703125 71 
C 23.796875 71 7.203125 54.859375 7.203125 34.859375 
C 7.203125 14.578125 23.59375 -2 43.90625 -2 
C 51.796875 -2 60.40625 0.59375 63.90625 6.609375 
C 65.203125 4.359375 69.203125 0.296875 70.296875 0.296875 
C 71.203125 0.296875 71.203125 1.09375 71.203125 2.625 
L 71.203125 20.390625 
C 71.203125 24.890625 72.296875 24.890625 78.5 24.890625 
L 78.5 28 
C 73.703125 27.796875 70.09375 27.6875 65.796875 27.6875 
C 61.703125 27.6875 52.796875 27.6875 49.203125 28 
L 49.203125 24.890625 
L 52.703125 24.890625 
C 62.296875 24.890625 62.296875 23.46875 62.296875 19.984375 
L 62.296875 13.453125 
C 62.296875 1.09375 46.796875 1.09375 45.59375 1.09375 
C 36.5 1.09375 17.5 6.40625 17.5 34.859375 
C 17.5 63.015625 36.703125 67.890625 44.90625 67.890625 
C 55.5 67.890625 65.703125 59.734375 68 44.3125 
C 68.203125 42.921875 68.296875 42.625 69.59375 42.625 
C 71.203125 42.625 71.203125 42.921875 71.203125 45 
z
" id="CMCSC10-71"/>
     </defs>
     <g transform="translate(424.094451 26.7)scale(0.1 -0.1)">
      <use transform="scale(0.996264)" xlink:href="#CMCSC10-112"/>
      <use transform="translate(55.569158 0)scale(0.996264)" xlink:href="#CMCSC10-105"/>
      <use transform="translate(85.67837 0)scale(0.996264)" xlink:href="#CMCSC10-112"/>
      <use transform="translate(141.247528 0)scale(0.996264)" xlink:href="#CMCSC10-101"/>
      <use transform="translate(196.816686 0)scale(0.996264)" xlink:href="#CMCSC10-45"/>
      <use transform="translate(234.45297 0)scale(0.996264)" xlink:href="#CMCSC10-80"/>
      <use transform="translate(308.341796 0)scale(0.996264)" xlink:href="#CMCSC10-82"/>
      <use transform="translate(388.042172 0)scale(0.996264)" xlink:href="#CMCSC10-45"/>
      <use transform="translate(425.678456 0)scale(0.996264)" xlink:href="#CMCSC10-67"/>
      <use transform="translate(503.99518 0)scale(0.996264)" xlink:href="#CMCSC10-71"/>
     </g>
    </g>
    <g id="line2d_46">
     <path d="M 396.094451 37.137178 
L 416.094451 37.137178 
" style="fill:none;stroke:#2aa198;stroke-linecap:square;stroke-width:1.5;"/>
    </g>
    <g id="line2d_47"/>
    <g id="text_21">
     <!-- \textsc{pipe-P-CG} -->
     <g transform="translate(424.094451 40.637178)scale(0.1 -0.1)">
      <use transform="scale(0.996264)" xlink:href="#CMCSC10-112"/>
      <use transform="translate(55.569158 0)scale(0.996264)" xlink:href="#CMCSC10-105"/>
      <use transform="translate(85.67837 0)scale(0.996264)" xlink:href="#CMCSC10-112"/>
      <use transform="translate(141.247528 0)scale(0.996264)" xlink:href="#CMCSC10-101"/>
      <use transform="translate(196.816686 0)scale(0.996264)" xlink:href="#CMCSC10-45"/>
      <use transform="translate(234.45297 0)scale(0.996264)" xlink:href="#CMCSC10-80"/>
      <use transform="translate(308.341796 0)scale(0.996264)" xlink:href="#CMCSC10-45"/>
      <use transform="translate(345.97808 0)scale(0.996264)" xlink:href="#CMCSC10-67"/>
      <use transform="translate(424.294805 0)scale(0.996264)" xlink:href="#CMCSC10-71"/>
     </g>
    </g>
    <g id="line2d_48">
     <path d="M 396.094451 51.074357 
L 416.094451 51.074357 
" style="fill:none;stroke:#073642;stroke-dasharray:1.5,2.475;stroke-dashoffset:0;stroke-width:1.5;"/>
    </g>
    <g id="line2d_49"/>
    <g id="text_22">
     <!-- PR-CG -->
     <defs>
      <path d="M 19.796875 32 
L 35.796875 32 
C 48.703125 32 58.09375 40.359375 58.09375 49.796875 
C 58.09375 59.234375 48.90625 68 35.796875 68 
L 5.203125 68 
L 5.203125 65.390625 
C 12.09375 65.390625 13.203125 65.390625 13.203125 60.921875 
L 13.203125 7.078125 
C 13.203125 2.59375 12.09375 2.59375 5.203125 2.59375 
L 5.203125 0 
C 8.09375 0.1875 13.40625 0.1875 16.5 0.1875 
C 19.59375 0.1875 24.90625 0.1875 27.796875 0 
L 27.796875 2.59375 
C 20.90625 2.59375 19.796875 2.59375 19.796875 7.078125 
z
M 19.59375 34.09375 
L 19.59375 61.515625 
C 19.59375 64.890625 19.796875 65.390625 23.796875 65.390625 
L 33.90625 65.390625 
C 46.796875 65.390625 50.5 58.046875 50.5 49.796875 
C 50.5 40.75 46.09375 34.09375 33.90625 34.09375 
z
" id="CMR17-80"/>
      <path d="M 39.203125 33.6875 
C 48.703125 35.59375 56.703125 42.015625 56.703125 50.046875 
C 56.703125 59.46875 46.09375 68 32.09375 68 
L 5.203125 68 
L 5.203125 65.390625 
C 12.09375 65.390625 13.203125 65.390625 13.203125 60.875 
L 13.203125 6.6875 
C 13.203125 2.1875 12.09375 2.1875 5.203125 2.1875 
L 5.203125 -0.40625 
C 8.09375 -0.203125 13.296875 -0.203125 16.40625 -0.203125 
C 19.5 -0.203125 24.703125 -0.203125 27.59375 -0.40625 
L 27.59375 2.1875 
C 20.703125 2.1875 19.59375 2.1875 19.59375 6.6875 
L 19.59375 33 
L 31.296875 33 
C 37 33 40.203125 30.6875 41.59375 29.390625 
C 45.59375 25.5 45.59375 22.796875 45.59375 16 
C 45.59375 9.296875 45.59375 5.890625 48.59375 2.5 
C 52.40625 -1.609375 57.5 -2 59.703125 -2 
C 67.09375 -2 68.203125 6.296875 68.203125 8 
C 68.203125 8.59375 68.203125 9.296875 67.296875 9.296875 
C 66.5 9.296875 66.40625 8.6875 66.40625 8.296875 
C 65.90625 1.796875 63 -0.40625 59.90625 -0.40625 
C 54.40625 -0.40625 53.796875 5.890625 53.203125 12 
C 52.90625 14.09375 52.703125 15.59375 52.5 17.796875 
C 51.90625 22.796875 51.09375 30.09375 39.203125 33.6875 
z
M 31 34.59375 
L 19.59375 34.59375 
L 19.59375 61.484375 
C 19.59375 64.890625 19.796875 65.390625 23.796875 65.390625 
L 31.09375 65.390625 
C 39.40625 65.390625 49.09375 62.484375 49.09375 50.046875 
C 49.09375 37.09375 38.5 34.59375 31 34.59375 
z
" id="CMR17-82"/>
      <path d="M 62.09375 67.984375 
C 62.09375 69.796875 62 69.890625 61.40625 69.890625 
C 61 69.890625 60.90625 69.796875 60.203125 68.59375 
L 55.796875 60.140625 
C 50.90625 66.390625 44.90625 70 37.203125 70 
C 20.09375 70 4.59375 54.796875 4.59375 34.046875 
C 4.59375 13.078125 20.09375 -2 37.296875 -2 
C 52.59375 -2 62.09375 11.578125 62.09375 23.15625 
C 62.09375 24.171875 62.09375 24.578125 61.203125 24.578125 
C 60.40625 24.578125 60.40625 24.265625 60.296875 23.359375 
C 59.5 9.25 49.5 0.59375 38.703125 0.59375 
C 28.5 0.59375 12.203125 7.84375 12.203125 34.046875 
C 12.203125 60.34375 28.796875 67.390625 38.5 67.390625 
C 49.796875 67.390625 58 57.515625 59.90625 43.515625 
C 60.09375 42.296875 60.09375 42.109375 61 42.109375 
C 62.09375 42.109375 62.09375 42.296875 62.09375 44.125 
z
" id="CMR17-67"/>
      <path d="M 62.09375 19.65625 
C 62.09375 23.484375 62.40625 24 68.59375 24 
L 68.59375 26.59375 
C 66.203125 26.390625 60.796875 26.390625 58.09375 26.390625 
C 55.296875 26.390625 47.5 26.5 43.703125 26.59375 
L 43.703125 24 
L 46.703125 24 
C 55.296875 24 55.5 22.875 55.5 19.25 
L 55.5 12.59375 
C 55.5 1.5 42.5 0.59375 39.40625 0.59375 
C 29.09375 0.59375 12.203125 7.75 12.203125 34.046875 
C 12.203125 60.34375 28.796875 67.390625 38.5 67.390625 
C 49.796875 67.390625 58 57.515625 59.90625 43.515625 
C 60.09375 42.3125 60.09375 42.109375 61 42.109375 
C 62.09375 42.109375 62.09375 42.3125 62.09375 44.125 
L 62.09375 67.984375 
C 62.09375 69.796875 62 69.890625 61.40625 69.890625 
C 61 69.890625 60.90625 69.796875 60.203125 68.59375 
L 55.796875 60.140625 
C 50.90625 66.390625 44.90625 70 37.203125 70 
C 20.09375 70 4.59375 54.796875 4.59375 34.046875 
C 4.59375 13.40625 19.796875 -2 37.40625 -2 
C 45.5 -2 53.40625 0.890625 56.5 6.640625 
C 58.203125 2.515625 61 -0.3125 61.5 -0.3125 
C 62 -0.3125 62.09375 -0.203125 62.09375 1.59375 
z
" id="CMR17-71"/>
     </defs>
     <g transform="translate(424.094451 54.574357)scale(0.1 -0.1)">
      <use transform="scale(0.996264)" xlink:href="#CMR17-80"/>
      <use transform="translate(62.586301 0)scale(0.996264)" xlink:href="#CMR17-82"/>
      <use transform="translate(130.377402 0)scale(0.996264)" xlink:href="#CMR17-45"/>
      <use transform="translate(160.453369 0)scale(0.996264)" xlink:href="#CMR17-67"/>
      <use transform="translate(226.963249 0)scale(0.996264)" xlink:href="#CMR17-71"/>
     </g>
    </g>
    <g id="line2d_50">
     <path d="M 396.094451 65.011535 
L 416.094451 65.011535 
" style="fill:none;stroke:#859900;stroke-dasharray:1.5,2.475;stroke-dashoffset:0;stroke-width:1.5;"/>
    </g>
    <g id="line2d_51"/>
    <g id="text_23">
     <!-- \textsc{pipe-PR-M-CG} -->
     <defs>
      <path d="M 74.40625 65.09375 
L 74.5 64.984375 
L 74.5 7.765625 
C 74.5 4.1875 74.296875 3.09375 66.59375 3.09375 
L 64.203125 3.09375 
L 64.203125 0 
C 67.90625 0.296875 74.703125 0.296875 78.59375 0.296875 
C 82.5 0.296875 89.203125 0.296875 92.90625 0 
L 92.90625 3.09375 
L 90.5 3.09375 
C 82.796875 3.09375 82.59375 4.1875 82.59375 7.765625 
L 82.59375 60.21875 
C 82.59375 63.796875 82.796875 64.890625 90.5 64.890625 
L 92.90625 64.890625 
L 92.90625 68 
L 76 68 
C 73.703125 68 73.40625 68 72.59375 66.09375 
L 49.40625 9.46875 
L 26.203125 66.1875 
C 25.5 68 24.90625 68 22.796875 68 
L 5.90625 68 
L 5.90625 64.890625 
L 8.296875 64.890625 
C 16 64.890625 16.203125 63.796875 16.203125 60.21875 
L 16.203125 10.453125 
C 16.203125 7.765625 16.203125 3.09375 5.90625 3.09375 
L 5.90625 0 
C 9.40625 0.09375 14.296875 0.296875 17.59375 0.296875 
C 20.90625 0.296875 25.796875 0.09375 29.296875 0 
L 29.296875 3.09375 
C 19 3.09375 19 7.765625 19 10.453125 
L 19 64.296875 
L 19.09375 64.390625 
L 44.703125 1.796875 
C 45.09375 0.890625 45.59375 0 46.59375 0 
C 47.59375 0 48.09375 0.890625 48.5 1.796875 
z
" id="CMCSC10-77"/>
     </defs>
     <g transform="translate(424.094451 68.511535)scale(0.1 -0.1)">
      <use transform="scale(0.996264)" xlink:href="#CMCSC10-112"/>
      <use transform="translate(55.569158 0)scale(0.996264)" xlink:href="#CMCSC10-105"/>
      <use transform="translate(85.67837 0)scale(0.996264)" xlink:href="#CMCSC10-112"/>
      <use transform="translate(141.247528 0)scale(0.996264)" xlink:href="#CMCSC10-101"/>
      <use transform="translate(196.816686 0)scale(0.996264)" xlink:href="#CMCSC10-45"/>
      <use transform="translate(234.45297 0)scale(0.996264)" xlink:href="#CMCSC10-80"/>
      <use transform="translate(308.341796 0)scale(0.996264)" xlink:href="#CMCSC10-82"/>
      <use transform="translate(388.042172 0)scale(0.996264)" xlink:href="#CMCSC10-45"/>
      <use transform="translate(425.678456 0)scale(0.996264)" xlink:href="#CMCSC10-77"/>
      <use transform="translate(524.19692 0)scale(0.996264)" xlink:href="#CMCSC10-45"/>
      <use transform="translate(561.833204 0)scale(0.996264)" xlink:href="#CMCSC10-67"/>
      <use transform="translate(640.149929 0)scale(0.996264)" xlink:href="#CMCSC10-71"/>
     </g>
    </g>
    <g id="line2d_52">
     <path d="M 396.094451 78.948713 
L 416.094451 78.948713 
" style="fill:none;stroke:#6c71c4;stroke-linecap:square;stroke-width:1.5;"/>
    </g>
    <g id="line2d_53"/>
    <g id="text_24">
     <!-- \textsc{pipe-P-M-CG} -->
     <g transform="translate(424.094451 82.448713)scale(0.1 -0.1)">
      <use transform="scale(0.996264)" xlink:href="#CMCSC10-112"/>
      <use transform="translate(55.569158 0)scale(0.996264)" xlink:href="#CMCSC10-105"/>
      <use transform="translate(85.67837 0)scale(0.996264)" xlink:href="#CMCSC10-112"/>
      <use transform="translate(141.247528 0)scale(0.996264)" xlink:href="#CMCSC10-101"/>
      <use transform="translate(196.816686 0)scale(0.996264)" xlink:href="#CMCSC10-45"/>
      <use transform="translate(234.45297 0)scale(0.996264)" xlink:href="#CMCSC10-80"/>
      <use transform="translate(308.341796 0)scale(0.996264)" xlink:href="#CMCSC10-45"/>
      <use transform="translate(345.97808 0)scale(0.996264)" xlink:href="#CMCSC10-77"/>
      <use transform="translate(444.496544 0)scale(0.996264)" xlink:href="#CMCSC10-45"/>
      <use transform="translate(482.132828 0)scale(0.996264)" xlink:href="#CMCSC10-67"/>
      <use transform="translate(560.449553 0)scale(0.996264)" xlink:href="#CMCSC10-71"/>
     </g>
    </g>
    <g id="line2d_54">
     <path d="M 396.094451 92.885892 
L 416.094451 92.885892 
" style="fill:none;stroke:#93a1a1;stroke-linecap:square;stroke-width:1.5;"/>
    </g>
    <g id="line2d_55">
     <g>
      <use style="fill:#93a1a1;stroke:#93a1a1;stroke-linejoin:miter;" x="406.094451" xlink:href="#mebdad36d0d" y="92.885892"/>
     </g>
    </g>
    <g id="text_25">
     <!-- GV-CG -->
     <defs>
      <path d="M 59 58.78125 
C 59.90625 60.984375 61.5 65.296875 68.203125 65.390625 
L 68.203125 68 
C 65.90625 67.796875 63.296875 67.796875 60.796875 67.796875 
C 58.40625 67.796875 54.296875 67.796875 52 68 
L 52 65.390625 
C 57 65.09375 57.203125 61.59375 57.203125 60.984375 
C 57.203125 59.890625 56.90625 59.1875 56.59375 58.390625 
L 36.90625 7 
L 16.296875 60.984375 
C 16 61.6875 15.796875 62.1875 15.796875 62.6875 
C 15.796875 65.390625 19.796875 65.390625 21.90625 65.390625 
L 21.90625 68 
C 18.703125 67.796875 14 67.796875 10.703125 67.796875 
C 8.09375 67.796875 3.40625 67.796875 1 68 
L 1 65.390625 
C 6.796875 65.390625 7.90625 65 9.09375 61.796875 
L 32.90625 -0.40625 
C 33.40625 -1.8125 33.5 -2 34.59375 -2 
C 35.703125 -2 35.796875 -1.8125 36.296875 -0.40625 
z
" id="CMR17-86"/>
     </defs>
     <g transform="translate(424.094451 96.385892)scale(0.1 -0.1)">
      <use transform="scale(0.996264)" xlink:href="#CMR17-71"/>
      <use transform="translate(72.355346 0)scale(0.996264)" xlink:href="#CMR17-86"/>
      <use transform="translate(141.427776 0)scale(0.996264)" xlink:href="#CMR17-45"/>
      <use transform="translate(171.503742 0)scale(0.996264)" xlink:href="#CMR17-67"/>
      <use transform="translate(238.013623 0)scale(0.996264)" xlink:href="#CMR17-71"/>
     </g>
    </g>
    <g id="line2d_56">
     <path d="M 396.094451 106.82307 
L 416.094451 106.82307 
" style="fill:none;stroke:#93a1a1;stroke-linecap:square;stroke-width:1.5;"/>
    </g>
    <g id="line2d_57">
     <g>
      <use style="fill:#93a1a1;stroke:#93a1a1;stroke-linejoin:miter;" x="406.094451" xlink:href="#mb4b85caaa6" y="106.82307"/>
     </g>
    </g>
    <g id="text_26">
     <!-- M-CG -->
     <defs>
      <path d="M 20.90625 66.390625 
C 20.296875 67.890625 20.203125 68 18.09375 68 
L 5.296875 68 
L 5.296875 65.390625 
C 12.203125 65.390625 13.296875 65.390625 13.296875 60.90625 
L 13.296875 9.75 
C 13.296875 7.265625 13.296875 2.59375 5.296875 2.59375 
L 5.296875 0 
C 7.59375 0.1875 11.796875 0.1875 14.296875 0.1875 
C 16.796875 0.1875 21 0.1875 23.296875 0 
L 23.296875 2.59375 
C 15.296875 2.59375 15.296875 7.265625 15.296875 9.75 
L 15.296875 64.984375 
L 15.40625 64.984375 
L 38.90625 1.59375 
C 39.296875 0.59375 39.5 0 40.296875 0 
C 41.09375 0 41.296875 0.59375 41.703125 1.59375 
L 65.40625 65.484375 
L 65.5 65.484375 
L 65.5 7.078125 
C 65.5 2.59375 64.40625 2.59375 57.5 2.59375 
L 57.5 0 
C 60.203125 0.1875 65.59375 0.1875 68.5 0.1875 
C 71.40625 0.1875 76.90625 0.1875 79.59375 0 
L 79.59375 2.59375 
C 72.703125 2.59375 71.59375 2.59375 71.59375 7.078125 
L 71.59375 60.90625 
C 71.59375 65.390625 72.703125 65.390625 79.59375 65.390625 
L 79.59375 68 
L 66.90625 68 
C 64.796875 68 64.703125 67.890625 64.09375 66.390625 
L 42.5 8.0625 
z
" id="CMR17-77"/>
     </defs>
     <g transform="translate(424.094451 110.32307)scale(0.1 -0.1)">
      <use transform="scale(0.996264)" xlink:href="#CMR17-77"/>
      <use transform="translate(84.686941 0)scale(0.996264)" xlink:href="#CMR17-45"/>
      <use transform="translate(114.762907 0)scale(0.996264)" xlink:href="#CMR17-67"/>
      <use transform="translate(181.272787 0)scale(0.996264)" xlink:href="#CMR17-71"/>
     </g>
    </g>
    <g id="line2d_58">
     <path d="M 396.094451 120.760248 
L 416.094451 120.760248 
" style="fill:none;stroke:#93a1a1;stroke-linecap:square;stroke-width:1.5;"/>
    </g>
    <g id="line2d_59">
     <g>
      <use style="fill:#93a1a1;stroke:#93a1a1;stroke-linejoin:miter;" x="406.094451" xlink:href="#m9bb9b51233" y="120.760248"/>
     </g>
    </g>
    <g id="text_27">
     <!-- CG-CG -->
     <g transform="translate(424.094451 124.260248)scale(0.1 -0.1)">
      <use transform="scale(0.996264)" xlink:href="#CMR17-67"/>
      <use transform="translate(66.509881 0)scale(0.996264)" xlink:href="#CMR17-71"/>
      <use transform="translate(138.865226 0)scale(0.996264)" xlink:href="#CMR17-45"/>
      <use transform="translate(168.941193 0)scale(0.996264)" xlink:href="#CMR17-67"/>
      <use transform="translate(235.451073 0)scale(0.996264)" xlink:href="#CMR17-71"/>
     </g>
    </g>
    <g id="line2d_60">
     <path d="M 396.094451 134.697427 
L 416.094451 134.697427 
" style="fill:none;stroke:#93a1a1;stroke-linecap:square;stroke-width:1.5;"/>
    </g>
    <g id="line2d_61">
     <g>
      <use style="fill:#93a1a1;stroke:#93a1a1;" x="406.094451" xlink:href="#m8677b8315e" y="134.697427"/>
     </g>
    </g>
    <g id="text_28">
     <!-- HS-CG -->
     <defs>
      <path d="M 56.09375 60.90625 
C 56.09375 65.390625 57.203125 65.390625 64.09375 65.390625 
L 64.09375 68 
C 61.203125 67.796875 55.90625 67.796875 52.796875 67.796875 
C 49.703125 67.796875 44.40625 67.796875 41.5 68 
L 41.5 65.390625 
C 48.40625 65.390625 49.5 65.390625 49.5 60.90625 
L 49.5 36.59375 
L 19.703125 36.59375 
L 19.703125 60.90625 
C 19.703125 65.390625 20.796875 65.390625 27.703125 65.390625 
L 27.703125 68 
C 24.796875 67.796875 19.5 67.796875 16.40625 67.796875 
C 13.296875 67.796875 8 67.796875 5.09375 68 
L 5.09375 65.390625 
C 12 65.390625 13.09375 65.390625 13.09375 60.90625 
L 13.09375 7.0625 
C 13.09375 2.59375 12 2.59375 5.09375 2.59375 
L 5.09375 0 
C 8 0.1875 13.296875 0.1875 16.40625 0.1875 
C 19.5 0.1875 24.796875 0.1875 27.703125 0 
L 27.703125 2.59375 
C 20.796875 2.59375 19.703125 2.59375 19.703125 7.0625 
L 19.703125 34 
L 49.5 34 
L 49.5 7.0625 
C 49.5 2.59375 48.40625 2.59375 41.5 2.59375 
L 41.5 0 
C 44.40625 0.1875 49.703125 0.1875 52.796875 0.1875 
C 55.90625 0.1875 61.203125 0.1875 64.09375 0 
L 64.09375 2.59375 
C 57.203125 2.59375 56.09375 2.59375 56.09375 7.0625 
z
" id="CMR17-72"/>
      <path d="M 43.796875 67.984375 
C 43.796875 69.796875 43.703125 69.890625 43.09375 69.890625 
C 42.5 69.890625 42.296875 69.484375 41.90625 68.59375 
L 38.90625 61.953125 
C 35.09375 67.5 29.296875 70 23 70 
C 12.796875 70 4.59375 61.84375 4.59375 51.578125 
C 4.59375 48.453125 5.296875 44.015625 8.703125 39.78125 
C 12.40625 35.15625 15.90625 34.34375 23.90625 32.234375 
C 26.90625 31.421875 31.90625 30.109375 32.90625 29.703125 
C 38.59375 27.296875 41.59375 21.25 41.59375 15.609375 
C 41.59375 8.34375 36.5 0.59375 27.796875 0.59375 
C 17.09375 0.59375 7.09375 6.640625 6.40625 20.75 
C 6.296875 22.359375 6.203125 22.453125 5.5 22.453125 
C 4.703125 22.453125 4.59375 22.359375 4.59375 20.34375 
L 4.59375 0 
C 4.59375 -1.8125 4.703125 -1.90625 5.296875 -1.90625 
C 6 -1.90625 6.203125 -1.40625 7.59375 1.703125 
C 7.703125 2 7.703125 2.203125 9.59375 6.03125 
C 14.59375 -0.609375 23 -2 27.796875 -2 
C 38.703125 -2 46.40625 7.140625 46.40625 17.828125 
C 46.40625 23.0625 44.5 27.09375 43.40625 28.90625 
C 39.203125 35.359375 34.703125 36.5625 29.90625 37.765625 
C 29.203125 38.078125 29 38.078125 23.40625 39.484375 
C 18 40.890625 15.703125 41.59375 13.203125 44.3125 
C 10.40625 47.4375 9.40625 50.671875 9.40625 53.890625 
C 9.40625 60.4375 14.59375 67.59375 23.09375 67.59375 
C 33.703125 67.59375 40.296875 60.03125 41.796875 47.4375 
C 42.09375 45.625 42.203125 45.53125 42.90625 45.53125 
C 43.796875 45.53125 43.796875 45.828125 43.796875 47.546875 
z
" id="CMR17-83"/>
     </defs>
     <g transform="translate(424.094451 138.197427)scale(0.1 -0.1)">
      <use transform="scale(0.996264)" xlink:href="#CMR17-72"/>
      <use transform="translate(69.07243 0)scale(0.996264)" xlink:href="#CMR17-83"/>
      <use transform="translate(119.9678 0)scale(0.996264)" xlink:href="#CMR17-45"/>
      <use transform="translate(150.043766 0)scale(0.996264)" xlink:href="#CMR17-67"/>
      <use transform="translate(216.553646 0)scale(0.996264)" xlink:href="#CMR17-71"/>
     </g>
    </g>
   </g>
  </g>
 </g>
 <defs>
  <clipPath id="p307d7ce947">
   <rect height="221.76" width="334.8" x="52.294451" y="10.7"/>
  </clipPath>
 </defs>
</svg>
