<?xml version="1.0" encoding="utf-8" standalone="no"?>
<!DOCTYPE svg PUBLIC "-//W3C//DTD SVG 1.1//EN"
  "http://www.w3.org/Graphics/SVG/1.1/DTD/svg11.dtd">
<!-- Created with matplotlib (https://matplotlib.org/) -->
<svg height="268.371353pt" version="1.1" viewBox="0 0 494.350183 268.371353" width="494.350183pt" xmlns="http://www.w3.org/2000/svg" xmlns:xlink="http://www.w3.org/1999/xlink">
 <defs>
  <style type="text/css">
*{stroke-linecap:butt;stroke-linejoin:round;}
  </style>
 </defs>
 <g id="figure_1">
  <g id="patch_1">
   <path d="M -0 268.371353 
L 494.350183 268.371353 
L 494.350183 0 
L -0 0 
z
" style="fill:#ffffff;"/>
  </g>
  <g id="axes_1">
   <g id="patch_2">
    <path d="M 52.294451 232.46 
L 387.094451 232.46 
L 387.094451 10.7 
L 52.294451 10.7 
z
" style="fill:#ffffff;"/>
   </g>
   <g id="matplotlib.axis_1">
    <g id="xtick_1">
     <g id="line2d_1">
      <path clip-path="url(#p85803f3dc8)" d="M 67.512633 232.46 
L 67.512633 10.7 
" style="fill:none;stroke:#b0b0b0;stroke-dasharray:0.8,1.32;stroke-dashoffset:0;stroke-width:0.8;"/>
     </g>
     <g id="line2d_2">
      <defs>
       <path d="M 0 0 
L 0 3.5 
" id="m819806779f" style="stroke:#000000;stroke-width:0.8;"/>
      </defs>
      <g>
       <use style="stroke:#000000;stroke-width:0.8;" x="67.512633" xlink:href="#m819806779f" y="232.46"/>
      </g>
     </g>
     <g id="text_1">
      <!-- $0$ -->
      <defs>
       <path d="M 42 31.84375 
C 42 37.96875 41.90625 48.421875 37.703125 56.453125 
C 34 63.484375 28.09375 66 22.90625 66 
C 18.09375 66 12 63.78125 8.203125 56.5625 
C 4.203125 49.015625 3.796875 39.671875 3.796875 31.84375 
C 3.796875 26.109375 3.90625 17.375 7 9.734375 
C 11.296875 -0.609375 19 -2 22.90625 -2 
C 27.5 -2 34.5 -0.109375 38.59375 9.4375 
C 41.59375 16.375 42 24.5 42 31.84375 
z
M 22.90625 -0.40625 
C 16.5 -0.40625 12.703125 5.125 11.296875 12.75 
C 10.203125 18.6875 10.203125 27.328125 10.203125 32.953125 
C 10.203125 40.6875 10.203125 47.109375 11.5 53.234375 
C 13.40625 61.78125 19 64.390625 22.90625 64.390625 
C 27 64.390625 32.296875 61.671875 34.203125 53.4375 
C 35.5 47.71875 35.59375 40.984375 35.59375 32.953125 
C 35.59375 26.421875 35.59375 18.375 34.40625 12.453125 
C 32.296875 1.5 26.40625 -0.40625 22.90625 -0.40625 
z
" id="CMR17-48"/>
      </defs>
      <g transform="translate(65.021965 246.378498)scale(0.1 -0.1)">
       <use transform="scale(0.996264)" xlink:href="#CMR17-48"/>
      </g>
     </g>
    </g>
    <g id="xtick_2">
     <g id="line2d_3">
      <path clip-path="url(#p85803f3dc8)" d="M 107.666147 232.46 
L 107.666147 10.7 
" style="fill:none;stroke:#b0b0b0;stroke-dasharray:0.8,1.32;stroke-dashoffset:0;stroke-width:0.8;"/>
     </g>
     <g id="line2d_4">
      <g>
       <use style="stroke:#000000;stroke-width:0.8;" x="107.666147" xlink:href="#m819806779f" y="232.46"/>
      </g>
     </g>
     <g id="text_2">
      <!-- $50$ -->
      <defs>
       <path d="M 11.40625 58.59375 
C 12.40625 58.1875 16.5 56.890625 20.703125 56.890625 
C 30 56.890625 35.09375 61.890625 38 64.6875 
C 38 65.484375 38 66 37.40625 66 
C 37.296875 66 37.09375 66 36.296875 65.59375 
C 32.796875 64.09375 28.703125 63 23.703125 63 
C 20.703125 63 16.203125 63.359375 11.296875 65.484375 
C 10.203125 66 10 66 9.90625 66 
C 9.40625 66 9.296875 65.890625 9.296875 63.90625 
L 9.296875 34.859375 
C 9.296875 33.015625 9.296875 32.5 10.296875 32.5 
C 10.796875 32.5 11 32.703125 11.5 33.421875 
C 14.703125 38.046875 19.09375 40 24.09375 40 
C 27.59375 40 35.09375 37.734375 35.09375 20.203125 
C 35.09375 16.984375 35.09375 11.1875 32.09375 6.59375 
C 29.59375 2.484375 25.703125 0.390625 21.40625 0.390625 
C 14.796875 0.390625 8.09375 4.984375 6.296875 12.6875 
C 6.703125 12.59375 7.5 12.390625 7.90625 12.390625 
C 9.203125 12.390625 11.703125 13.09375 11.703125 16.1875 
C 11.703125 18.890625 9.796875 20 7.90625 20 
C 5.59375 20 4.09375 18.59375 4.09375 15.796875 
C 4.09375 7.09375 11 -2 21.59375 -2 
C 31.90625 -2 41.703125 6.890625 41.703125 19.796875 
C 41.703125 32.09375 33.90625 41.59375 24.203125 41.59375 
C 19.09375 41.59375 14.796875 39.6875 11.40625 36 
z
" id="CMR17-53"/>
      </defs>
      <g transform="translate(102.684812 246.378498)scale(0.1 -0.1)">
       <use transform="scale(0.996264)" xlink:href="#CMR17-53"/>
       <use transform="translate(45.690477 0)scale(0.996264)" xlink:href="#CMR17-48"/>
      </g>
     </g>
    </g>
    <g id="xtick_3">
     <g id="line2d_5">
      <path clip-path="url(#p85803f3dc8)" d="M 147.819661 232.46 
L 147.819661 10.7 
" style="fill:none;stroke:#b0b0b0;stroke-dasharray:0.8,1.32;stroke-dashoffset:0;stroke-width:0.8;"/>
     </g>
     <g id="line2d_6">
      <g>
       <use style="stroke:#000000;stroke-width:0.8;" x="147.819661" xlink:href="#m819806779f" y="232.46"/>
      </g>
     </g>
     <g id="text_3">
      <!-- $100$ -->
      <defs>
       <path d="M 26.59375 63.796875 
C 26.59375 65.890625 26.5 66 25.09375 66 
C 21.203125 61.359375 15.296875 59.890625 9.703125 59.6875 
C 9.40625 59.6875 8.90625 59.6875 8.796875 59.5 
C 8.703125 59.296875 8.703125 59.09375 8.703125 57 
C 11.796875 57 17 57.59375 21 59.984375 
L 21 7.296875 
C 21 3.796875 20.796875 2.59375 12.203125 2.59375 
L 9.203125 2.59375 
L 9.203125 0 
C 14 0.09375 19 0.1875 23.796875 0.1875 
C 28.59375 0.1875 33.59375 0.09375 38.40625 0 
L 38.40625 2.59375 
L 35.40625 2.59375 
C 26.796875 2.59375 26.59375 3.6875 26.59375 7.296875 
z
" id="CMR17-49"/>
      </defs>
      <g transform="translate(140.347658 246.378498)scale(0.1 -0.1)">
       <use transform="scale(0.996264)" xlink:href="#CMR17-49"/>
       <use transform="translate(45.690477 0)scale(0.996264)" xlink:href="#CMR17-48"/>
       <use transform="translate(91.380954 0)scale(0.996264)" xlink:href="#CMR17-48"/>
      </g>
     </g>
    </g>
    <g id="xtick_4">
     <g id="line2d_7">
      <path clip-path="url(#p85803f3dc8)" d="M 187.973175 232.46 
L 187.973175 10.7 
" style="fill:none;stroke:#b0b0b0;stroke-dasharray:0.8,1.32;stroke-dashoffset:0;stroke-width:0.8;"/>
     </g>
     <g id="line2d_8">
      <g>
       <use style="stroke:#000000;stroke-width:0.8;" x="187.973175" xlink:href="#m819806779f" y="232.46"/>
      </g>
     </g>
     <g id="text_4">
      <!-- $150$ -->
      <g transform="translate(180.501172 246.378498)scale(0.1 -0.1)">
       <use transform="scale(0.996264)" xlink:href="#CMR17-49"/>
       <use transform="translate(45.690477 0)scale(0.996264)" xlink:href="#CMR17-53"/>
       <use transform="translate(91.380954 0)scale(0.996264)" xlink:href="#CMR17-48"/>
      </g>
     </g>
    </g>
    <g id="xtick_5">
     <g id="line2d_9">
      <path clip-path="url(#p85803f3dc8)" d="M 228.126689 232.46 
L 228.126689 10.7 
" style="fill:none;stroke:#b0b0b0;stroke-dasharray:0.8,1.32;stroke-dashoffset:0;stroke-width:0.8;"/>
     </g>
     <g id="line2d_10">
      <g>
       <use style="stroke:#000000;stroke-width:0.8;" x="228.126689" xlink:href="#m819806779f" y="232.46"/>
      </g>
     </g>
     <g id="text_5">
      <!-- $200$ -->
      <defs>
       <path d="M 41.703125 15.46875 
L 39.90625 15.46875 
C 38.90625 8.390625 38.09375 7.1875 37.703125 6.59375 
C 37.203125 5.796875 30 5.796875 28.59375 5.796875 
L 9.40625 5.796875 
C 13 9.6875 20 16.765625 28.5 24.9375 
C 34.59375 30.71875 41.703125 37.5 41.703125 47.390625 
C 41.703125 59.1875 32.296875 66 21.796875 66 
C 10.796875 66 4.09375 56.296875 4.09375 47.296875 
C 4.09375 43.390625 7 42.890625 8.203125 42.890625 
C 9.203125 42.890625 12.203125 43.484375 12.203125 46.984375 
C 12.203125 50.09375 9.59375 51 8.203125 51 
C 7.59375 51 7 50.890625 6.59375 50.6875 
C 8.5 59.1875 14.296875 63.390625 20.40625 63.390625 
C 29.09375 63.390625 34.796875 56.5 34.796875 47.390625 
C 34.796875 38.703125 29.703125 31.21875 24 24.734375 
L 4.09375 2.296875 
L 4.09375 0 
L 39.296875 0 
z
" id="CMR17-50"/>
      </defs>
      <g transform="translate(220.654686 246.378498)scale(0.1 -0.1)">
       <use transform="scale(0.996264)" xlink:href="#CMR17-50"/>
       <use transform="translate(45.690477 0)scale(0.996264)" xlink:href="#CMR17-48"/>
       <use transform="translate(91.380954 0)scale(0.996264)" xlink:href="#CMR17-48"/>
      </g>
     </g>
    </g>
    <g id="xtick_6">
     <g id="line2d_11">
      <path clip-path="url(#p85803f3dc8)" d="M 268.280203 232.46 
L 268.280203 10.7 
" style="fill:none;stroke:#b0b0b0;stroke-dasharray:0.8,1.32;stroke-dashoffset:0;stroke-width:0.8;"/>
     </g>
     <g id="line2d_12">
      <g>
       <use style="stroke:#000000;stroke-width:0.8;" x="268.280203" xlink:href="#m819806779f" y="232.46"/>
      </g>
     </g>
     <g id="text_6">
      <!-- $250$ -->
      <g transform="translate(260.8082 246.378498)scale(0.1 -0.1)">
       <use transform="scale(0.996264)" xlink:href="#CMR17-50"/>
       <use transform="translate(45.690477 0)scale(0.996264)" xlink:href="#CMR17-53"/>
       <use transform="translate(91.380954 0)scale(0.996264)" xlink:href="#CMR17-48"/>
      </g>
     </g>
    </g>
    <g id="xtick_7">
     <g id="line2d_13">
      <path clip-path="url(#p85803f3dc8)" d="M 308.433717 232.46 
L 308.433717 10.7 
" style="fill:none;stroke:#b0b0b0;stroke-dasharray:0.8,1.32;stroke-dashoffset:0;stroke-width:0.8;"/>
     </g>
     <g id="line2d_14">
      <g>
       <use style="stroke:#000000;stroke-width:0.8;" x="308.433717" xlink:href="#m819806779f" y="232.46"/>
      </g>
     </g>
     <g id="text_7">
      <!-- $300$ -->
      <defs>
       <path d="M 22.09375 34 
C 31 34 34.90625 26.140625 34.90625 17.09375 
C 34.90625 5.03125 28.5 0.390625 22.703125 0.390625 
C 17.40625 0.390625 8.796875 3.015625 6.09375 10.796875 
C 6.59375 10.59375 7.09375 10.59375 7.59375 10.59375 
C 10 10.59375 11.796875 12.1875 11.796875 14.796875 
C 11.796875 17.6875 9.59375 19 7.59375 19 
C 5.90625 19 3.296875 18.1875 3.296875 14.484375 
C 3.296875 5.234375 12.296875 -2 22.90625 -2 
C 34 -2 42.5 6.75 42.5 16.984375 
C 42.5 26.84375 34.5 34 25 35.09375 
C 32.59375 36.671875 39.90625 43.375 39.90625 52.390625 
C 39.90625 60.25 32 66 23 66 
C 13.90625 66 5.90625 60.34375 5.90625 52.296875 
C 5.90625 48.796875 8.5 48.1875 9.796875 48.1875 
C 11.90625 48.1875 13.703125 49.484375 13.703125 52.09375 
C 13.703125 54.6875 11.90625 56 9.796875 56 
C 9.40625 56 8.90625 56 8.5 55.796875 
C 11.40625 62.484375 19.296875 63.6875 22.796875 63.6875 
C 26.296875 63.6875 32.90625 61.96875 32.90625 52.296875 
C 32.90625 49.484375 32.5 44.546875 29.09375 40.21875 
C 26.09375 36.390625 22.703125 36.1875 19.40625 35.890625 
C 18.90625 35.890625 16.59375 35.6875 16.203125 35.6875 
C 15.5 35.59375 15.09375 35.5 15.09375 34.796875 
C 15.09375 34.09375 15.203125 34 17.203125 34 
z
" id="CMR17-51"/>
      </defs>
      <g transform="translate(300.961714 246.378498)scale(0.1 -0.1)">
       <use transform="scale(0.996264)" xlink:href="#CMR17-51"/>
       <use transform="translate(45.690477 0)scale(0.996264)" xlink:href="#CMR17-48"/>
       <use transform="translate(91.380954 0)scale(0.996264)" xlink:href="#CMR17-48"/>
      </g>
     </g>
    </g>
    <g id="xtick_8">
     <g id="line2d_15">
      <path clip-path="url(#p85803f3dc8)" d="M 348.587231 232.46 
L 348.587231 10.7 
" style="fill:none;stroke:#b0b0b0;stroke-dasharray:0.8,1.32;stroke-dashoffset:0;stroke-width:0.8;"/>
     </g>
     <g id="line2d_16">
      <g>
       <use style="stroke:#000000;stroke-width:0.8;" x="348.587231" xlink:href="#m819806779f" y="232.46"/>
      </g>
     </g>
     <g id="text_8">
      <!-- $350$ -->
      <g transform="translate(341.115228 246.378498)scale(0.1 -0.1)">
       <use transform="scale(0.996264)" xlink:href="#CMR17-51"/>
       <use transform="translate(45.690477 0)scale(0.996264)" xlink:href="#CMR17-53"/>
       <use transform="translate(91.380954 0)scale(0.996264)" xlink:href="#CMR17-48"/>
      </g>
     </g>
    </g>
    <g id="text_9">
     <!-- iteration $k$ -->
     <defs>
      <path d="M 15.5 61.890625 
C 15.5 64.09375 13.703125 66 11.40625 66 
C 9.203125 66 7.296875 64.1875 7.296875 61.890625 
C 7.296875 59.6875 9.09375 57.796875 11.40625 57.796875 
C 13.59375 57.796875 15.5 59.59375 15.5 61.890625 
z
M 3.796875 42.890625 
L 3.796875 40.296875 
C 9.40625 40.296875 10.203125 39.6875 10.203125 34.859375 
L 10.203125 6.921875 
C 10.203125 3.09375 9.796875 2.59375 3.40625 2.59375 
L 3.40625 0 
C 5.796875 0.1875 10.09375 0.1875 12.59375 0.1875 
C 15 0.1875 19.09375 0.1875 21.40625 0 
L 21.40625 2.59375 
C 15.5 2.59375 15.296875 3.203125 15.296875 6.8125 
L 15.296875 44 
z
" id="CMR17-105"/>
      <path d="M 15.09375 40.390625 
L 29.09375 40.390625 
L 29.09375 43 
L 15.09375 43 
L 15.09375 62 
L 13.296875 62 
C 13.09375 51.4375 9.59375 42.1875 1.09375 41.984375 
L 1.09375 40.390625 
L 9.796875 40.390625 
L 9.796875 12.15625 
C 9.796875 10.234375 9.796875 -1 21.40625 -1 
C 27.296875 -1 30.703125 4.8125 30.703125 12.25 
L 30.703125 17.984375 
L 28.90625 17.984375 
L 28.90625 12.34375 
C 28.90625 5.421875 26.203125 0.796875 22 0.796875 
C 19.09375 0.796875 15.09375 2.796875 15.09375 11.953125 
z
" id="CMR17-116"/>
      <path d="M 38.09375 23.484375 
C 38.5 23.890625 38.5 24.09375 38.5 25.09375 
C 38.5 35.171875 33.09375 44 21.703125 44 
C 11.09375 44 2.703125 33.984375 2.703125 21.78125 
C 2.703125 8.65625 12.203125 -1 22.796875 -1 
C 34 -1 38.40625 9.671875 38.40625 11.796875 
C 38.40625 12.5 37.796875 12.5 37.59375 12.5 
C 36.90625 12.5 36.796875 12.296875 36.40625 11.078125 
C 34.203125 4.21875 28.703125 0.796875 23.5 0.796875 
C 19.203125 0.796875 14.90625 3.21875 12.203125 7.65625 
C 9.09375 12.796875 9.09375 18.75 9.09375 23.484375 
z
M 9.203125 25 
C 9.90625 39.234375 17.59375 42.390625 21.59375 42.390625 
C 28.40625 42.390625 33 36.0625 33.09375 25 
z
" id="CMR17-101"/>
      <path d="M 15 23.703125 
C 15 33.34375 19.09375 42.390625 26.59375 42.390625 
C 27.296875 42.390625 28 42.296875 28.703125 41.984375 
C 28.703125 41.984375 26.5 41.28125 26.5 38.671875 
C 26.5 36.265625 28.40625 35.265625 29.90625 35.265625 
C 31.09375 35.265625 33.296875 35.96875 33.296875 38.78125 
C 33.296875 41.984375 30.09375 44 26.703125 44 
C 19.09375 44 15.796875 36.5625 14.796875 33.046875 
L 14.703125 33.046875 
L 14.703125 44 
L 3.09375 42.890625 
L 3.09375 40.28125 
C 9 40.28125 9.90625 39.6875 9.90625 34.859375 
L 9.90625 6.921875 
C 9.90625 3.09375 9.5 2.59375 3.09375 2.59375 
L 3.09375 0 
C 5.5 0.1875 10.09375 0.1875 12.703125 0.1875 
C 15.59375 0.1875 20.703125 0.1875 23.40625 0 
L 23.40625 2.59375 
C 16.203125 2.59375 15 2.59375 15 7.109375 
z
" id="CMR17-114"/>
      <path d="M 36 25.875 
C 36 32 36 35.546875 31.796875 39.59375 
C 28.09375 42.984375 23.796875 44 20.40625 44 
C 12.5 44 6.796875 37.625 6.796875 30.890625 
C 6.796875 27.1875 9.796875 27 10.40625 27 
C 11.703125 27 14 27.796875 14 30.59375 
C 14 33.09375 12.09375 34.1875 10.40625 34.1875 
C 10 34.1875 9.5 34.09375 9.203125 34 
C 11.296875 40.53125 16.703125 42.390625 20.203125 42.390625 
C 25.203125 42.390625 30.703125 37.828125 30.703125 29.296875 
L 30.703125 25.5 
C 24.796875 25.296875 17.703125 24.5 12.09375 21.453125 
C 5.796875 17.921875 4 12.84375 4 9 
C 4 1.203125 13 -1 18.296875 -1 
C 23.796875 -1 28.90625 2.109375 31.09375 7.890625 
C 31.296875 3.421875 34.09375 -0.609375 38.5 -0.609375 
C 40.59375 -0.609375 45.90625 0.796875 45.90625 8.796875 
L 45.90625 14.46875 
L 44.09375 14.46875 
L 44.09375 8.703125 
C 44.09375 2.515625 41.40625 1.703125 40.09375 1.703125 
C 36 1.703125 36 6.96875 36 11.4375 
z
M 30.703125 13.859375 
C 30.703125 5.046875 24.5 0.59375 19 0.59375 
C 14 0.59375 10.09375 4.34375 10.09375 9 
C 10.09375 12.046875 11.40625 17.40625 17.203125 20.65625 
C 22 23.390625 27.5 23.796875 30.703125 24 
z
" id="CMR17-97"/>
      <path d="M 43.09375 21.1875 
C 43.09375 34 33.796875 44 22.90625 44 
C 12 44 2.703125 34 2.703125 21.1875 
C 2.703125 8.59375 12 -1 22.90625 -1 
C 33.796875 -1 43.09375 8.59375 43.09375 21.1875 
z
M 22.90625 0.796875 
C 18.203125 0.796875 14.203125 3.59375 11.90625 7.5 
C 9.40625 12 9.09375 17.59375 9.09375 22 
C 9.09375 26.1875 9.296875 31.390625 11.90625 35.890625 
C 13.90625 39.1875 17.796875 42.390625 22.90625 42.390625 
C 27.40625 42.390625 31.203125 39.890625 33.59375 36.390625 
C 36.703125 31.6875 36.703125 25.09375 36.703125 22 
C 36.703125 18.09375 36.5 12.09375 33.796875 7.296875 
C 31 2.6875 26.703125 0.796875 22.90625 0.796875 
z
" id="CMR17-111"/>
      <path d="M 41.5 30.53125 
C 41.5 35.65625 40.5 44 28.703125 44 
C 20.796875 44 16.703125 37.875 15.203125 33.84375 
L 15.09375 33.84375 
L 15.09375 44 
L 3.296875 42.890625 
L 3.296875 40.28125 
C 9.203125 40.28125 10.09375 39.6875 10.09375 34.859375 
L 10.09375 6.921875 
C 10.09375 3.09375 9.703125 2.59375 3.296875 2.59375 
L 3.296875 0 
C 5.703125 0.1875 10.09375 0.1875 12.703125 0.1875 
C 15.296875 0.1875 19.796875 0.1875 22.203125 0 
L 22.203125 2.59375 
C 15.796875 2.59375 15.40625 3 15.40625 6.921875 
L 15.40625 26.21875 
C 15.40625 35.453125 21 42.390625 28 42.390625 
C 35.40625 42.390625 36.203125 35.765625 36.203125 30.9375 
L 36.203125 6.921875 
C 36.203125 3.09375 35.796875 2.59375 29.40625 2.59375 
L 29.40625 0 
C 31.796875 0.1875 36.203125 0.1875 38.796875 0.1875 
C 41.40625 0.1875 45.90625 0.1875 48.296875 0 
L 48.296875 2.59375 
C 41.90625 2.59375 41.5 3 41.5 6.921875 
z
" id="CMR17-110"/>
      <path d="M 28.09375 66.484375 
C 28.203125 66.890625 28.40625 67.484375 28.40625 67.984375 
C 28.40625 69 27.40625 69 27.203125 69 
C 27.09375 69 23.5 68.6875 21.703125 68.484375 
C 20 68.390625 18.5 68.1875 16.703125 68.09375 
C 14.296875 67.890625 13.59375 67.796875 13.59375 65.984375 
C 13.59375 64.984375 14.59375 64.984375 15.59375 64.984375 
C 20.703125 64.984375 20.703125 64.109375 20.703125 63.125 
C 20.703125 62.71875 20.703125 62.53125 20.203125 60.75 
L 5.90625 3.90625 
C 5.5 2.390625 5.5 2.203125 5.5 1.59375 
C 5.5 -0.609375 7.203125 -1 8.203125 -1 
C 11 -1 11.59375 1.1875 12.40625 4.296875 
L 17.09375 23.0625 
C 24.296875 22.265625 28.59375 19.25 28.59375 14.4375 
C 28.59375 13.828125 28.59375 13.4375 28.296875 11.921875 
C 27.90625 10.421875 27.90625 9.21875 27.90625 8.71875 
C 27.90625 2.890625 31.703125 -1 36.796875 -1 
C 41.40625 -1 43.796875 3.203125 44.59375 4.609375 
C 46.703125 8.3125 48 13.9375 48 14.328125 
C 48 14.828125 47.59375 15.234375 47 15.234375 
C 46.09375 15.234375 46 14.828125 45.59375 13.234375 
C 44.203125 8.015625 42.09375 1 37 1 
C 35 1 33.703125 2 33.703125 5.8125 
C 33.703125 7.71875 34.09375 9.921875 34.5 11.421875 
C 34.90625 13.234375 34.90625 13.328125 34.90625 14.53125 
C 34.90625 20.453125 29.59375 23.765625 20.40625 24.96875 
C 24 27.171875 27.59375 31.078125 29 32.59375 
C 34.703125 38.984375 38.59375 41.984375 43.203125 41.984375 
C 45.5 41.984375 46.09375 41.484375 46.796875 41 
C 43.09375 40.59375 41.703125 37.984375 41.703125 35.984375 
C 41.703125 33.59375 43.59375 32.796875 45 32.796875 
C 47.703125 32.796875 50.09375 35.09375 50.09375 38.296875 
C 50.09375 41.15625 47.796875 44 43.296875 44 
C 37.796875 44 33.296875 40.296875 26.203125 32.296875 
C 25.203125 31.078125 21.5 27.28125 17.796875 25.875 
z
" id="CMMI12-107"/>
     </defs>
     <g transform="translate(196.885256 259.234175)scale(0.1 -0.1)">
      <use transform="scale(0.996264)" xlink:href="#CMR17-105"/>
      <use transform="translate(24.871058 0)scale(0.996264)" xlink:href="#CMR17-116"/>
      <use transform="translate(60.151826 0)scale(0.996264)" xlink:href="#CMR17-101"/>
      <use transform="translate(100.637487 0)scale(0.996264)" xlink:href="#CMR17-114"/>
      <use transform="translate(135.918255 0)scale(0.996264)" xlink:href="#CMR17-97"/>
      <use transform="translate(181.608732 0)scale(0.996264)" xlink:href="#CMR17-116"/>
      <use transform="translate(216.889499 0)scale(0.996264)" xlink:href="#CMR17-105"/>
      <use transform="translate(241.760558 0)scale(0.996264)" xlink:href="#CMR17-111"/>
      <use transform="translate(287.451035 0)scale(0.996264)" xlink:href="#CMR17-110"/>
      <use transform="translate(368.422371 0)scale(0.996264)" xlink:href="#CMMI12-107"/>
     </g>
    </g>
   </g>
   <g id="matplotlib.axis_2">
    <g id="ytick_1">
     <g id="line2d_17">
      <path clip-path="url(#p85803f3dc8)" d="M 52.294451 232.46 
L 387.094451 232.46 
" style="fill:none;stroke:#b0b0b0;stroke-dasharray:0.8,1.32;stroke-dashoffset:0;stroke-width:0.8;"/>
     </g>
     <g id="line2d_18">
      <defs>
       <path d="M 0 0 
L -3.5 0 
" id="maa7d45ca74" style="stroke:#000000;stroke-width:0.8;"/>
      </defs>
      <g>
       <use style="stroke:#000000;stroke-width:0.8;" x="52.294451" xlink:href="#maa7d45ca74" y="232.46"/>
      </g>
     </g>
     <g id="text_10">
      <!-- $10^{-16}$ -->
      <defs>
       <path d="M 65.90625 23 
C 67.59375 23 69.40625 23 69.40625 25 
C 69.40625 27 67.59375 27 65.90625 27 
L 11.796875 27 
C 10.09375 27 8.296875 27 8.296875 25 
C 8.296875 23 10.09375 23 11.796875 23 
z
" id="CMSY10-0"/>
       <path d="M 10.59375 34.34375 
C 10.59375 58 21.796875 63.6875 28.296875 63.6875 
C 30.40625 63.6875 35.5 63.265625 37.5 59.09375 
C 35.90625 59.09375 32.90625 59.09375 32.90625 55.59375 
C 32.90625 52.890625 35.09375 52 36.5 52 
C 37.40625 52 40.09375 52.390625 40.09375 55.796875 
C 40.09375 62.296875 35.09375 66 28.203125 66 
C 16.296875 66 3.796875 53.296875 3.796875 31.421875 
C 3.796875 4.015625 15.09375 -2 23.09375 -2 
C 32.796875 -2 42 6.734375 42 20.234375 
C 42 32.828125 33.90625 42 23.703125 42 
C 17.59375 42 13.09375 37.96875 10.59375 30.921875 
z
M 23.09375 0.390625 
C 10.796875 0.390625 10.796875 18.9375 10.796875 22.65625 
C 10.796875 29.90625 14.203125 40.390625 23.5 40.390625 
C 25.203125 40.390625 30.09375 40.390625 33.40625 33.4375 
C 35.203125 29.515625 35.203125 25.375 35.203125 20.34375 
C 35.203125 14.90625 35.203125 10.875 33.09375 6.84375 
C 30.90625 2.703125 27.703125 0.390625 23.09375 0.390625 
z
" id="CMR17-54"/>
      </defs>
      <g transform="translate(21.16264 235.919249)scale(0.1 -0.1)">
       <use transform="scale(0.996264)" xlink:href="#CMR17-49"/>
       <use transform="translate(45.690477 0)scale(0.996264)" xlink:href="#CMR17-48"/>
       <use transform="translate(91.380954 36.153639)scale(0.697382)" xlink:href="#CMSY10-0"/>
       <use transform="translate(145.621947 36.153639)scale(0.697382)" xlink:href="#CMR17-49"/>
       <use transform="translate(177.605129 36.153639)scale(0.697382)" xlink:href="#CMR17-54"/>
      </g>
     </g>
    </g>
    <g id="ytick_2">
     <g id="line2d_19">
      <path clip-path="url(#p85803f3dc8)" d="M 52.294451 205.900278 
L 387.094451 205.900278 
" style="fill:none;stroke:#b0b0b0;stroke-dasharray:0.8,1.32;stroke-dashoffset:0;stroke-width:0.8;"/>
     </g>
     <g id="line2d_20">
      <g>
       <use style="stroke:#000000;stroke-width:0.8;" x="52.294451" xlink:href="#maa7d45ca74" y="205.900278"/>
      </g>
     </g>
     <g id="text_11">
      <!-- $10^{-14}$ -->
      <defs>
       <path d="M 33.59375 64.796875 
C 33.59375 66.890625 33.5 67 31.703125 67 
L 2 19.59375 
L 2 17 
L 27.796875 17 
L 27.796875 7.1875 
C 27.796875 3.59375 27.59375 2.59375 20.59375 2.59375 
L 18.703125 2.59375 
L 18.703125 0 
C 21.90625 0.1875 27.296875 0.1875 30.703125 0.1875 
C 34.09375 0.1875 39.5 0.1875 42.703125 0 
L 42.703125 2.59375 
L 40.796875 2.59375 
C 33.796875 2.59375 33.59375 3.59375 33.59375 7.1875 
L 33.59375 17 
L 43.796875 17 
L 43.796875 19.59375 
L 33.59375 19.59375 
z
M 28.09375 58.171875 
L 28.09375 19.59375 
L 4 19.59375 
z
" id="CMR17-52"/>
      </defs>
      <g transform="translate(21.16264 209.359527)scale(0.1 -0.1)">
       <use transform="scale(0.996264)" xlink:href="#CMR17-49"/>
       <use transform="translate(45.690477 0)scale(0.996264)" xlink:href="#CMR17-48"/>
       <use transform="translate(91.380954 36.153639)scale(0.697382)" xlink:href="#CMSY10-0"/>
       <use transform="translate(145.621947 36.153639)scale(0.697382)" xlink:href="#CMR17-49"/>
       <use transform="translate(177.605129 36.153639)scale(0.697382)" xlink:href="#CMR17-52"/>
      </g>
     </g>
    </g>
    <g id="ytick_3">
     <g id="line2d_21">
      <path clip-path="url(#p85803f3dc8)" d="M 52.294451 179.340556 
L 387.094451 179.340556 
" style="fill:none;stroke:#b0b0b0;stroke-dasharray:0.8,1.32;stroke-dashoffset:0;stroke-width:0.8;"/>
     </g>
     <g id="line2d_22">
      <g>
       <use style="stroke:#000000;stroke-width:0.8;" x="52.294451" xlink:href="#maa7d45ca74" y="179.340556"/>
      </g>
     </g>
     <g id="text_12">
      <!-- $10^{-12}$ -->
      <g transform="translate(21.16264 182.799805)scale(0.1 -0.1)">
       <use transform="scale(0.996264)" xlink:href="#CMR17-49"/>
       <use transform="translate(45.690477 0)scale(0.996264)" xlink:href="#CMR17-48"/>
       <use transform="translate(91.380954 36.153639)scale(0.697382)" xlink:href="#CMSY10-0"/>
       <use transform="translate(145.621947 36.153639)scale(0.697382)" xlink:href="#CMR17-49"/>
       <use transform="translate(177.605129 36.153639)scale(0.697382)" xlink:href="#CMR17-50"/>
      </g>
     </g>
    </g>
    <g id="ytick_4">
     <g id="line2d_23">
      <path clip-path="url(#p85803f3dc8)" d="M 52.294451 152.780834 
L 387.094451 152.780834 
" style="fill:none;stroke:#b0b0b0;stroke-dasharray:0.8,1.32;stroke-dashoffset:0;stroke-width:0.8;"/>
     </g>
     <g id="line2d_24">
      <g>
       <use style="stroke:#000000;stroke-width:0.8;" x="52.294451" xlink:href="#maa7d45ca74" y="152.780834"/>
      </g>
     </g>
     <g id="text_13">
      <!-- $10^{-10}$ -->
      <g transform="translate(21.16264 156.240083)scale(0.1 -0.1)">
       <use transform="scale(0.996264)" xlink:href="#CMR17-49"/>
       <use transform="translate(45.690477 0)scale(0.996264)" xlink:href="#CMR17-48"/>
       <use transform="translate(91.380954 36.153639)scale(0.697382)" xlink:href="#CMSY10-0"/>
       <use transform="translate(145.621947 36.153639)scale(0.697382)" xlink:href="#CMR17-49"/>
       <use transform="translate(177.605129 36.153639)scale(0.697382)" xlink:href="#CMR17-48"/>
      </g>
     </g>
    </g>
    <g id="ytick_5">
     <g id="line2d_25">
      <path clip-path="url(#p85803f3dc8)" d="M 52.294451 126.221112 
L 387.094451 126.221112 
" style="fill:none;stroke:#b0b0b0;stroke-dasharray:0.8,1.32;stroke-dashoffset:0;stroke-width:0.8;"/>
     </g>
     <g id="line2d_26">
      <g>
       <use style="stroke:#000000;stroke-width:0.8;" x="52.294451" xlink:href="#maa7d45ca74" y="126.221112"/>
      </g>
     </g>
     <g id="text_14">
      <!-- $10^{-8}$ -->
      <defs>
       <path d="M 27.203125 35.765625 
C 33.5 38.96875 39.90625 43.796875 39.90625 51.53125 
C 39.90625 60.6875 31.09375 66 23 66 
C 13.90625 66 5.90625 59.375 5.90625 50.234375 
C 5.90625 47.71875 6.5 43.390625 10.40625 39.578125 
C 11.40625 38.578125 15.59375 35.5625 18.296875 33.65625 
C 13.796875 31.34375 3.296875 25.8125 3.296875 14.765625 
C 3.296875 4.40625 13.09375 -2 22.796875 -2 
C 33.5 -2 42.5 5.71875 42.5 15.96875 
C 42.5 25.109375 36.40625 29.328125 32.40625 32.046875 
z
M 14.09375 44.609375 
C 13.296875 45.109375 9.296875 48.21875 9.296875 52.9375 
C 9.296875 59.078125 15.59375 63.6875 22.796875 63.6875 
C 30.703125 63.6875 36.5 58.0625 36.5 51.53125 
C 36.5 42.1875 26.09375 36.859375 25.59375 36.859375 
C 25.5 36.859375 25.40625 36.859375 24.59375 37.46875 
z
M 32.5 24 
C 34 22.90625 38.796875 19.578125 38.796875 13.453125 
C 38.796875 6.015625 31.40625 0.390625 23 0.390625 
C 13.90625 0.390625 7 6.921875 7 14.859375 
C 7 22.796875 13.09375 29.4375 20 32.546875 
z
" id="CMR17-56"/>
      </defs>
      <g transform="translate(25.133878 129.680361)scale(0.1 -0.1)">
       <use transform="scale(0.996264)" xlink:href="#CMR17-49"/>
       <use transform="translate(45.690477 0)scale(0.996264)" xlink:href="#CMR17-48"/>
       <use transform="translate(91.380954 36.153639)scale(0.697382)" xlink:href="#CMSY10-0"/>
       <use transform="translate(145.621947 36.153639)scale(0.697382)" xlink:href="#CMR17-56"/>
      </g>
     </g>
    </g>
    <g id="ytick_6">
     <g id="line2d_27">
      <path clip-path="url(#p85803f3dc8)" d="M 52.294451 99.66139 
L 387.094451 99.66139 
" style="fill:none;stroke:#b0b0b0;stroke-dasharray:0.8,1.32;stroke-dashoffset:0;stroke-width:0.8;"/>
     </g>
     <g id="line2d_28">
      <g>
       <use style="stroke:#000000;stroke-width:0.8;" x="52.294451" xlink:href="#maa7d45ca74" y="99.66139"/>
      </g>
     </g>
     <g id="text_15">
      <!-- $10^{-6}$ -->
      <g transform="translate(25.133878 103.120639)scale(0.1 -0.1)">
       <use transform="scale(0.996264)" xlink:href="#CMR17-49"/>
       <use transform="translate(45.690477 0)scale(0.996264)" xlink:href="#CMR17-48"/>
       <use transform="translate(91.380954 36.153639)scale(0.697382)" xlink:href="#CMSY10-0"/>
       <use transform="translate(145.621947 36.153639)scale(0.697382)" xlink:href="#CMR17-54"/>
      </g>
     </g>
    </g>
    <g id="ytick_7">
     <g id="line2d_29">
      <path clip-path="url(#p85803f3dc8)" d="M 52.294451 73.101668 
L 387.094451 73.101668 
" style="fill:none;stroke:#b0b0b0;stroke-dasharray:0.8,1.32;stroke-dashoffset:0;stroke-width:0.8;"/>
     </g>
     <g id="line2d_30">
      <g>
       <use style="stroke:#000000;stroke-width:0.8;" x="52.294451" xlink:href="#maa7d45ca74" y="73.101668"/>
      </g>
     </g>
     <g id="text_16">
      <!-- $10^{-4}$ -->
      <g transform="translate(25.133878 76.560918)scale(0.1 -0.1)">
       <use transform="scale(0.996264)" xlink:href="#CMR17-49"/>
       <use transform="translate(45.690477 0)scale(0.996264)" xlink:href="#CMR17-48"/>
       <use transform="translate(91.380954 36.153639)scale(0.697382)" xlink:href="#CMSY10-0"/>
       <use transform="translate(145.621947 36.153639)scale(0.697382)" xlink:href="#CMR17-52"/>
      </g>
     </g>
    </g>
    <g id="ytick_8">
     <g id="line2d_31">
      <path clip-path="url(#p85803f3dc8)" d="M 52.294451 46.541946 
L 387.094451 46.541946 
" style="fill:none;stroke:#b0b0b0;stroke-dasharray:0.8,1.32;stroke-dashoffset:0;stroke-width:0.8;"/>
     </g>
     <g id="line2d_32">
      <g>
       <use style="stroke:#000000;stroke-width:0.8;" x="52.294451" xlink:href="#maa7d45ca74" y="46.541946"/>
      </g>
     </g>
     <g id="text_17">
      <!-- $10^{-2}$ -->
      <g transform="translate(25.133878 50.001196)scale(0.1 -0.1)">
       <use transform="scale(0.996264)" xlink:href="#CMR17-49"/>
       <use transform="translate(45.690477 0)scale(0.996264)" xlink:href="#CMR17-48"/>
       <use transform="translate(91.380954 36.153639)scale(0.697382)" xlink:href="#CMSY10-0"/>
       <use transform="translate(145.621947 36.153639)scale(0.697382)" xlink:href="#CMR17-50"/>
      </g>
     </g>
    </g>
    <g id="ytick_9">
     <g id="line2d_33">
      <path clip-path="url(#p85803f3dc8)" d="M 52.294451 19.982224 
L 387.094451 19.982224 
" style="fill:none;stroke:#b0b0b0;stroke-dasharray:0.8,1.32;stroke-dashoffset:0;stroke-width:0.8;"/>
     </g>
     <g id="line2d_34">
      <g>
       <use style="stroke:#000000;stroke-width:0.8;" x="52.294451" xlink:href="#maa7d45ca74" y="19.982224"/>
      </g>
     </g>
     <g id="text_18">
      <!-- $10^{0}$ -->
      <g transform="translate(31.360543 23.441474)scale(0.1 -0.1)">
       <use transform="scale(0.996264)" xlink:href="#CMR17-49"/>
       <use transform="translate(45.690477 0)scale(0.996264)" xlink:href="#CMR17-48"/>
       <use transform="translate(91.380954 36.153639)scale(0.697382)" xlink:href="#CMR17-48"/>
      </g>
     </g>
    </g>
    <g id="text_19">
     <!-- $A$-norm of error: $\| x-x_k \|_A$ -->
     <defs>
      <path d="M 17 11.25 
C 13.5 5.234375 10.09375 3.203125 5.296875 2.890625 
C 4.203125 2.796875 3.40625 2.796875 3.40625 1 
C 3.40625 0.390625 3.90625 0 4.59375 0 
C 6.40625 0 10.90625 0.1875 12.703125 0.1875 
C 15.59375 0.1875 18.796875 0 21.59375 0 
C 22.203125 0 23.40625 0 23.40625 1.890625 
C 23.40625 2.796875 22.59375 2.890625 22 2.890625 
C 19.703125 3.09375 17.796875 3.90625 17.796875 6.359375 
C 17.796875 7.78125 18.40625 8.90625 19.703125 11.15625 
L 27.296875 24 
L 52.796875 24 
C 52.90625 23.078125 52.90625 22.265625 53 21.34375 
C 53.296875 18.6875 54.5 8.09375 54.5 6.15625 
C 54.5 3.09375 49.40625 2.890625 47.796875 2.890625 
C 46.703125 2.890625 45.59375 2.890625 45.59375 1.09375 
C 45.59375 0 46.5 0 47.09375 0 
C 48.796875 0 50.796875 0.1875 52.5 0.1875 
L 58.203125 0.1875 
C 64.296875 0.1875 68.703125 0 68.796875 0 
C 69.5 0 70.59375 0 70.59375 1.890625 
C 70.59375 2.890625 69.703125 2.890625 68.203125 2.890625 
C 62.703125 2.890625 62.59375 3.8125 62.296875 6.875 
L 56.203125 68.796875 
C 56 70.796875 55.59375 71 54.5 71 
C 53.5 71 52.90625 70.796875 52 69.296875 
z
M 29 26.890625 
L 49.09375 59.859375 
L 52.5 26.890625 
z
" id="CMMI12-65"/>
      <path d="M 25.5 19.59375 
L 25.5 24 
L 0.40625 24 
L 0.40625 19.59375 
z
" id="CMR17-45"/>
      <path d="M 67.59375 30.53125 
C 67.59375 35.5625 66.703125 44 54.796875 44 
C 48 44 43.296875 39.375 41.5 33.953125 
L 41.40625 33.953125 
C 40.203125 42.1875 34.296875 44 28.703125 44 
C 20.796875 44 16.703125 37.875 15.203125 33.84375 
L 15.09375 33.84375 
L 15.09375 44 
L 3.296875 42.890625 
L 3.296875 40.28125 
C 9.203125 40.28125 10.09375 39.6875 10.09375 34.859375 
L 10.09375 6.921875 
C 10.09375 3.09375 9.703125 2.59375 3.296875 2.59375 
L 3.296875 0 
C 5.703125 0.1875 10.09375 0.1875 12.703125 0.1875 
C 15.296875 0.1875 19.796875 0.1875 22.203125 0 
L 22.203125 2.59375 
C 15.796875 2.59375 15.40625 3 15.40625 6.921875 
L 15.40625 26.21875 
C 15.40625 35.453125 21 42.390625 28 42.390625 
C 35.40625 42.390625 36.203125 35.765625 36.203125 30.9375 
L 36.203125 6.921875 
C 36.203125 3.09375 35.796875 2.59375 29.40625 2.59375 
L 29.40625 0 
C 31.796875 0.1875 36.203125 0.1875 38.796875 0.1875 
C 41.40625 0.1875 45.90625 0.1875 48.296875 0 
L 48.296875 2.59375 
C 41.90625 2.59375 41.5 3 41.5 6.921875 
L 41.5 26.21875 
C 41.5 35.453125 47.09375 42.390625 54.09375 42.390625 
C 61.5 42.390625 62.296875 35.765625 62.296875 30.9375 
L 62.296875 6.921875 
C 62.296875 3.09375 61.90625 2.59375 55.5 2.59375 
L 55.5 0 
C 57.90625 0.1875 62.296875 0.1875 64.90625 0.1875 
C 67.5 0.1875 72 0.1875 74.40625 0 
L 74.40625 2.59375 
C 68 2.59375 67.59375 3 67.59375 6.921875 
z
" id="CMR17-109"/>
      <path d="M 15.296875 40.390625 
L 26.703125 40.390625 
L 26.703125 43 
L 15.09375 43 
L 15.09375 55.296875 
C 15.09375 63.6875 19.296875 68.390625 23.59375 68.390625 
C 24.90625 68.390625 26.40625 68.171875 27.40625 67.796875 
C 26.59375 67.59375 24.5 66.890625 24.5 64.390625 
C 24.5 61.796875 26.5 61 27.90625 61 
C 29.296875 61 31.296875 61.796875 31.296875 64.390625 
C 31.296875 68.015625 27.703125 70 23.703125 70 
C 18 70 10.203125 65.796875 10.203125 55.09375 
L 10.203125 43 
L 2.203125 43 
L 2.203125 40.390625 
L 10.203125 40.390625 
L 10.203125 6.890625 
C 10.203125 3.09375 9.796875 2.59375 3.40625 2.59375 
L 3.40625 0 
C 5.796875 0.1875 10.40625 0.1875 13 0.1875 
C 15.90625 0.1875 21 0.1875 23.703125 0 
L 23.703125 2.59375 
C 16.5 2.59375 15.296875 2.59375 15.296875 7.09375 
z
" id="CMR17-102"/>
      <path d="M 16.59375 38.890625 
C 16.59375 41.390625 14.59375 43 12.5 43 
C 10.5 43 8.40625 41.390625 8.40625 38.890625 
C 8.40625 36.390625 10.40625 34.796875 12.5 34.796875 
C 14.5 34.796875 16.59375 36.390625 16.59375 38.890625 
z
M 16.59375 4.09375 
C 16.59375 6.59375 14.59375 8.1875 12.5 8.1875 
C 10.5 8.1875 8.40625 6.59375 8.40625 4.09375 
C 8.40625 1.59375 10.40625 0 12.5 0 
C 14.5 0 16.59375 1.59375 16.59375 4.09375 
z
" id="CMR17-58"/>
      <path d="M 17.203125 71.59375 
C 17.203125 73.1875 17.203125 75 15.203125 75 
C 13.203125 75 13.203125 72.796875 13.203125 71.296875 
L 13.203125 -21.3125 
C 13.203125 -22.90625 13.203125 -25 15.203125 -25 
C 17.203125 -25 17.203125 -23.203125 17.203125 -21.609375 
z
M 36.703125 71.296875 
C 36.703125 72.890625 36.703125 75 34.703125 75 
C 32.703125 75 32.703125 73.1875 32.703125 71.59375 
L 32.703125 -21.609375 
C 32.703125 -23.203125 32.703125 -25 34.703125 -25 
C 36.703125 -25 36.703125 -22.8125 36.703125 -21.3125 
z
" id="CMSY10-107"/>
      <path d="M 47.40625 41 
C 44.203125 40.390625 43 37.984375 43 36.09375 
C 43 33.6875 44.90625 32.890625 46.296875 32.890625 
C 49.296875 32.890625 51.40625 35.484375 51.40625 38.1875 
C 51.40625 42.09375 46.59375 44 42.40625 44 
C 36.296875 44 32.90625 38.296875 32 36.390625 
C 29.703125 43.59375 23.5 44 21.703125 44 
C 11.5 44 6.09375 31.140625 6.09375 28.890625 
C 6.09375 28.484375 6.5 27.96875 7.203125 27.96875 
C 8 27.96875 8.203125 28.578125 8.40625 28.984375 
C 11.796875 40.1875 18.5 41.984375 21.40625 41.984375 
C 25.90625 41.984375 26.796875 38.09375 26.796875 35.6875 
C 26.796875 33.484375 26.203125 31.140625 25 26.21875 
L 21.59375 12.15625 
C 20.09375 6.09375 17.203125 1 11.90625 1 
C 11.40625 1 8.90625 1 6.796875 1.96875 
C 10.40625 2.59375 11.203125 5.59375 11.203125 6.796875 
C 11.203125 8.796875 9.703125 10 7.796875 10 
C 5.40625 10 2.796875 7.890625 2.796875 4.6875 
C 2.796875 0.890625 7.5 -1 11.796875 -1 
C 16.59375 -1 20 2.390625 22.09375 6.484375 
C 23.703125 1 28.703125 -1 32.40625 -1 
C 42.59375 -1 48 11.734375 48 14 
C 48 14.515625 47.59375 14.921875 47 14.921875 
C 46.09375 14.921875 46 14.40625 45.703125 13.59375 
C 43 4.6875 37.203125 1 32.703125 1 
C 29.203125 1 27.296875 3.1875 27.296875 7.296875 
C 27.296875 9.484375 27.703125 11.125 29.296875 17.90625 
L 32.796875 31.859375 
C 34.296875 37.890625 37.703125 41.984375 42.296875 41.984375 
C 42.5 41.984375 45.296875 41.984375 47.40625 41 
z
" id="CMMI12-120"/>
     </defs>
     <g transform="translate(15.225462 182.035642)rotate(-90)scale(0.1 -0.1)">
      <use transform="translate(0 14.943915)scale(0.996264)" xlink:href="#CMMI12-65"/>
      <use transform="translate(73.127885 14.943915)scale(0.996264)" xlink:href="#CMR17-45"/>
      <use transform="translate(103.203852 14.943915)scale(0.996264)" xlink:href="#CMR17-110"/>
      <use transform="translate(154.099221 14.943915)scale(0.996264)" xlink:href="#CMR17-111"/>
      <use transform="translate(199.789699 14.943915)scale(0.996264)" xlink:href="#CMR17-114"/>
      <use transform="translate(235.070466 14.943915)scale(0.996264)" xlink:href="#CMR17-109"/>
      <use transform="translate(342.066023 14.943915)scale(0.996264)" xlink:href="#CMR17-111"/>
      <use transform="translate(387.7565 14.943915)scale(0.996264)" xlink:href="#CMR17-102"/>
      <use transform="translate(445.305978 14.943915)scale(0.996264)" xlink:href="#CMR17-101"/>
      <use transform="translate(485.791639 14.943915)scale(0.996264)" xlink:href="#CMR17-114"/>
      <use transform="translate(521.072407 14.943915)scale(0.996264)" xlink:href="#CMR17-114"/>
      <use transform="translate(556.353174 14.943915)scale(0.996264)" xlink:href="#CMR17-111"/>
      <use transform="translate(602.043652 14.943915)scale(0.996264)" xlink:href="#CMR17-114"/>
      <use transform="translate(637.324419 14.943915)scale(0.996264)" xlink:href="#CMR17-58"/>
      <use transform="translate(702.681138 14.943915)scale(0.996264)" xlink:href="#CMSY10-107"/>
      <use transform="translate(752.494521 14.943915)scale(0.996264)" xlink:href="#CMMI12-120"/>
      <use transform="translate(830.067788 14.943915)scale(0.996264)" xlink:href="#CMSY10-0"/>
      <use transform="translate(929.694462 14.943915)scale(0.996264)" xlink:href="#CMMI12-120"/>
      <use transform="translate(985.128522 0)scale(0.697382)" xlink:href="#CMMI12-107"/>
      <use transform="translate(1023.481904 14.943915)scale(0.996264)" xlink:href="#CMSY10-107"/>
      <use transform="translate(1073.295287 0)scale(0.697382)" xlink:href="#CMMI12-65"/>
     </g>
    </g>
   </g>
   <g id="line2d_35">
    <path clip-path="url(#p85803f3dc8)" d="M 67.512633 19.982224 
L 68.315703 23.906901 
L 69.118773 25.373484 
L 70.724914 26.953212 
L 72.331055 28.290244 
L 73.937195 29.247521 
L 75.543336 30.398838 
L 79.558687 32.606078 
L 81.164828 33.4316 
L 82.770968 34.118896 
L 86.78632 35.354147 
L 94.013952 37.71579 
L 95.620093 38.520823 
L 97.226233 39.617393 
L 98.832374 41.009828 
L 101.241585 42.821406 
L 104.453866 44.781315 
L 106.863077 45.564043 
L 108.469217 45.972952 
L 114.893779 47.027335 
L 117.30299 47.482446 
L 120.515271 48.347728 
L 121.318342 48.662069 
L 125.333693 50.919919 
L 126.939834 52.044794 
L 128.545974 52.988555 
L 130.152115 53.651683 
L 132.561326 54.293563 
L 135.773607 54.860119 
L 138.985888 55.588216 
L 142.198169 56.52926 
L 144.60738 57.308966 
L 146.21352 57.775877 
L 149.425802 59.140523 
L 151.031942 59.931232 
L 155.047294 62.468133 
L 157.456504 63.65108 
L 159.062645 64.383115 
L 167.896418 67.489435 
L 170.305629 68.289007 
L 173.51791 69.412573 
L 177.533261 70.824221 
L 183.154753 72.955476 
L 187.973175 75.394453 
L 190.382386 77.198372 
L 192.791597 79.047766 
L 196.806948 82.910384 
L 199.216159 85.149519 
L 203.23151 89.595165 
L 208.049932 95.932843 
L 212.065283 99.337717 
L 213.671424 100.346032 
L 215.277565 101.123997 
L 218.489846 102.155374 
L 220.899057 102.961862 
L 224.111338 104.529262 
L 225.717478 105.657154 
L 227.323619 107.2228 
L 231.33897 111.695035 
L 236.960462 118.740864 
L 238.566603 120.901301 
L 240.172743 122.892525 
L 244.188095 128.338201 
L 254.628008 141.102528 
L 256.234149 143.232379 
L 259.44643 147.130163 
L 265.870992 155.547024 
L 268.280203 158.771108 
L 271.492484 162.829674 
L 272.295554 163.967398 
L 273.098625 164.867448 
L 282.735468 177.899977 
L 290.766171 188.308299 
L 293.175382 191.675081 
L 298.796874 199.271793 
L 301.206085 202.67903 
L 304.418366 206.568225 
L 310.039858 213.948098 
L 311.645998 215.341944 
L 313.252139 216.444256 
L 314.858279 217.206654 
L 316.46442 217.63147 
L 318.873631 218.009505 
L 322.085912 218.113742 
L 335.738107 218.098203 
L 371.876269 218.097582 
L 371.876269 218.097582 
" style="fill:none;stroke:#93a1a1;stroke-dasharray:1.5,2.475;stroke-dashoffset:0;stroke-width:1.5;"/>
   </g>
   <g id="line2d_36">
    <path clip-path="url(#p85803f3dc8)" d="M 67.512633 19.982224 
L 68.315703 23.906901 
L 69.118773 25.373484 
L 70.724914 26.953212 
L 72.331055 28.290244 
L 73.937195 29.247521 
L 75.543336 30.398838 
L 79.558687 32.606078 
L 81.164828 33.4316 
L 82.770968 34.118896 
L 86.78632 35.354147 
L 94.013952 37.71579 
L 95.620093 38.520823 
L 97.226233 39.617393 
L 98.832374 41.009828 
L 101.241585 42.821406 
L 104.453866 44.781315 
L 106.863077 45.564043 
L 108.469217 45.972952 
L 114.893779 47.027335 
L 117.30299 47.482446 
L 120.515271 48.347621 
L 122.121412 49.093061 
L 123.727553 49.849595 
L 125.333693 50.705617 
L 127.742904 52.399296 
L 130.152115 53.555265 
L 132.561326 54.212284 
L 141.395099 55.992672 
L 147.016591 57.659523 
L 148.622731 58.257701 
L 152.638083 60.155783 
L 155.850364 62.097163 
L 158.259575 63.254886 
L 162.274926 64.885182 
L 169.502559 67.291189 
L 174.32098 68.622203 
L 179.139402 70.304371 
L 180.745542 70.864857 
L 183.957824 71.823393 
L 186.367034 72.704152 
L 191.988526 75.218927 
L 193.594667 76.289186 
L 196.003878 78.010281 
L 197.610018 79.025321 
L 200.8223 81.93092 
L 202.42844 83.12904 
L 204.034581 84.578586 
L 206.443791 86.773965 
L 209.656073 90.24401 
L 211.262213 92.429591 
L 214.474494 95.76216 
L 218.489846 99.027145 
L 221.702127 100.723312 
L 224.914408 101.684911 
L 228.929759 102.674227 
L 231.33897 103.601846 
L 232.945111 104.333824 
L 235.354322 105.835139 
L 236.157392 106.483522 
L 238.566603 108.767991 
L 239.369673 109.383957 
L 240.975814 111.042992 
L 242.581954 112.656115 
L 249.809587 120.584098 
L 252.218797 123.439361 
L 257.037219 128.807188 
L 260.2495 131.726602 
L 261.855641 133.648978 
L 263.461781 135.321781 
L 265.067922 137.012772 
L 265.870992 137.660196 
L 269.083273 141.192112 
L 270.689414 143.153603 
L 273.901695 146.011674 
L 275.507836 147.872912 
L 276.310906 148.840526 
L 277.917046 150.440369 
L 282.735468 156.081263 
L 283.538538 156.849354 
L 286.75082 160.512975 
L 288.35696 162.210488 
L 289.16003 162.86619 
L 292.372312 166.294798 
L 296.387663 170.783381 
L 302.812225 178.303126 
L 305.221436 180.640367 
L 310.039858 185.793463 
L 310.842928 186.88512 
L 321.282842 198.263794 
L 322.085912 198.993473 
L 325.298193 202.792568 
L 330.919685 209.011151 
L 332.525826 210.427912 
L 333.328896 211.26257 
L 334.131966 211.926823 
L 336.541177 213.261303 
L 339.753458 214.279524 
L 342.162669 214.547339 
L 344.57188 214.688257 
L 350.996442 214.7614 
L 371.876269 214.724658 
L 371.876269 214.724658 
" style="fill:none;stroke:#93a1a1;stroke-linecap:square;stroke-width:1.5;"/>
    <defs>
     <path d="M 0 3 
C 0.795609 3 1.55874 2.683901 2.12132 2.12132 
C 2.683901 1.55874 3 0.795609 3 0 
C 3 -0.795609 2.683901 -1.55874 2.12132 -2.12132 
C 1.55874 -2.683901 0.795609 -3 0 -3 
C -0.795609 -3 -1.55874 -2.683901 -2.12132 -2.12132 
C -2.683901 -1.55874 -3 -0.795609 -3 0 
C -3 0.795609 -2.683901 1.55874 -2.12132 2.12132 
C -1.55874 2.683901 -0.795609 3 0 3 
z
" id="m1700309399" style="stroke:#93a1a1;"/>
    </defs>
    <g clip-path="url(#p85803f3dc8)">
     <use style="fill:#93a1a1;stroke:#93a1a1;" x="67.512633" xlink:href="#m1700309399" y="19.982224"/>
     <use style="fill:#93a1a1;stroke:#93a1a1;" x="128.545974" xlink:href="#m1700309399" y="52.817184"/>
     <use style="fill:#93a1a1;stroke:#93a1a1;" x="189.579316" xlink:href="#m1700309399" y="74.101561"/>
     <use style="fill:#93a1a1;stroke:#93a1a1;" x="250.612657" xlink:href="#m1700309399" y="121.578189"/>
     <use style="fill:#93a1a1;stroke:#93a1a1;" x="311.645998" xlink:href="#m1700309399" y="187.768612"/>
    </g>
   </g>
   <g id="line2d_37">
    <path clip-path="url(#p85803f3dc8)" d="M 67.512633 19.982224 
L 68.315703 23.906901 
L 69.118773 25.373484 
L 70.724914 26.953212 
L 72.331055 28.290244 
L 73.937195 29.247521 
L 75.543336 30.398838 
L 79.558687 32.606078 
L 81.164828 33.4316 
L 82.770968 34.118896 
L 86.78632 35.354147 
L 94.013952 37.71579 
L 95.620093 38.520823 
L 97.226233 39.617393 
L 98.832374 41.009828 
L 101.241585 42.821406 
L 104.453866 44.781315 
L 106.863077 45.564043 
L 108.469217 45.972952 
L 114.893779 47.027335 
L 117.30299 47.482446 
L 120.515271 48.347677 
L 121.318342 48.661754 
L 123.727553 49.878444 
L 125.333693 50.712478 
L 127.742904 52.399355 
L 130.152115 53.555241 
L 132.561326 54.211361 
L 140.592028 55.83446 
L 143.80431 56.757606 
L 149.425802 58.616664 
L 151.031942 59.338444 
L 152.638083 60.159395 
L 155.850364 62.13557 
L 159.062645 63.605364 
L 160.668785 64.335654 
L 170.305629 67.522203 
L 174.32098 68.71483 
L 177.533261 69.812608 
L 179.942472 70.603679 
L 186.367034 72.619055 
L 191.185456 74.944353 
L 196.806948 78.533292 
L 197.610018 79.046709 
L 200.8223 82.027794 
L 202.42844 83.133063 
L 205.640721 85.862418 
L 211.262213 92.056819 
L 214.474494 95.563322 
L 215.277565 96.333302 
L 216.883705 97.379845 
L 218.489846 98.747495 
L 220.095986 99.919673 
L 221.702127 100.670639 
L 224.111338 101.48839 
L 228.126689 102.443243 
L 229.73283 102.940657 
L 232.14204 103.958456 
L 233.748181 104.821052 
L 235.354322 105.83205 
L 236.157392 106.482991 
L 241.778884 111.986767 
L 242.581954 112.709137 
L 246.597306 116.980705 
L 249.006516 119.495719 
L 250.612657 121.54742 
L 253.824938 124.851273 
L 257.840289 129.362667 
L 258.64336 130.157686 
L 259.44643 130.77844 
L 260.2495 131.615524 
L 261.855641 133.670976 
L 263.461781 135.304285 
L 265.067922 136.887265 
L 265.870992 137.592821 
L 270.689414 142.993744 
L 273.098625 145.147492 
L 274.704765 146.853023 
L 277.113976 149.538379 
L 279.523187 151.938131 
L 281.129328 153.820718 
L 282.735468 155.724868 
L 284.341609 157.680164 
L 285.144679 158.427438 
L 287.55389 161.330368 
L 289.16003 162.809703 
L 290.766171 164.640698 
L 294.781522 168.818898 
L 298.796874 173.16647 
L 300.403014 175.042076 
L 302.009155 176.891737 
L 306.024506 181.334752 
L 308.433717 183.86562 
L 310.842928 186.644313 
L 311.645998 187.387931 
L 315.66135 192.099881 
L 316.46442 192.797373 
L 318.07056 194.520715 
L 318.873631 195.310767 
L 320.479771 197.207507 
L 321.282842 197.935401 
L 326.904334 204.379875 
L 330.919685 208.085073 
L 333.328896 209.522685 
L 334.935036 210.213091 
L 335.738107 210.51244 
L 338.147318 210.940587 
L 342.162669 211.196846 
L 346.17802 211.270201 
L 359.027145 211.268899 
L 371.876269 211.263977 
L 371.876269 211.263977 
" style="fill:none;stroke:#93a1a1;stroke-linecap:square;stroke-width:1.5;"/>
    <defs>
     <path d="M 0 -3 
L -3 3 
L 3 3 
z
" id="ma265741514" style="stroke:#93a1a1;stroke-linejoin:miter;"/>
    </defs>
    <g clip-path="url(#p85803f3dc8)">
     <use style="fill:#93a1a1;stroke:#93a1a1;stroke-linejoin:miter;" x="82.770968" xlink:href="#ma265741514" y="34.118896"/>
     <use style="fill:#93a1a1;stroke:#93a1a1;stroke-linejoin:miter;" x="143.80431" xlink:href="#ma265741514" y="56.757606"/>
     <use style="fill:#93a1a1;stroke:#93a1a1;stroke-linejoin:miter;" x="204.837651" xlink:href="#ma265741514" y="85.209126"/>
     <use style="fill:#93a1a1;stroke:#93a1a1;stroke-linejoin:miter;" x="265.870992" xlink:href="#ma265741514" y="137.592821"/>
     <use style="fill:#93a1a1;stroke:#93a1a1;stroke-linejoin:miter;" x="326.904334" xlink:href="#ma265741514" y="204.379875"/>
    </g>
   </g>
   <g id="line2d_38">
    <path clip-path="url(#p85803f3dc8)" d="M 67.512633 19.982224 
L 68.315703 23.906901 
L 69.118773 25.373484 
L 70.724914 26.953212 
L 72.331055 28.290244 
L 73.937195 29.247521 
L 75.543336 30.398838 
L 79.558687 32.606078 
L 81.164828 33.4316 
L 82.770968 34.118896 
L 86.78632 35.354147 
L 94.013952 37.71579 
L 95.620093 38.520823 
L 97.226233 39.617393 
L 98.832374 41.009828 
L 101.241585 42.821406 
L 104.453866 44.781315 
L 106.863077 45.564043 
L 108.469217 45.972952 
L 114.893779 47.027335 
L 117.30299 47.482446 
L 120.515271 48.347624 
L 122.121412 49.093184 
L 123.727553 49.850768 
L 125.333693 50.705808 
L 127.742904 52.399263 
L 130.152115 53.553724 
L 131.758255 54.01262 
L 134.970536 54.622303 
L 137.379747 55.041261 
L 143.001239 56.48077 
L 145.41045 57.243272 
L 147.819661 57.948038 
L 150.228872 58.938207 
L 153.441153 60.651721 
L 155.047294 61.667998 
L 159.062645 63.604813 
L 160.668785 64.335652 
L 169.502559 67.247147 
L 171.108699 67.639724 
L 175.124051 68.883291 
L 178.336332 70.01974 
L 180.745542 70.74347 
L 187.170105 73.004018 
L 189.579316 74.105176 
L 191.988526 75.226044 
L 193.594667 76.28862 
L 196.003878 77.955637 
L 197.610018 78.97745 
L 199.216159 80.476603 
L 201.62537 82.474725 
L 205.640721 85.786246 
L 208.853002 89.005333 
L 209.656073 89.766079 
L 213.671424 94.49829 
L 215.277565 96.081766 
L 219.292916 99.271331 
L 221.702127 100.514807 
L 224.914408 101.5349 
L 229.73283 102.871822 
L 233.748181 104.614615 
L 234.551251 105.096546 
L 238.566603 108.257047 
L 240.172743 109.768183 
L 242.581954 112.196979 
L 243.385024 112.906247 
L 244.991165 114.757739 
L 249.006516 118.967386 
L 250.612657 120.914996 
L 252.218797 122.398967 
L 258.64336 129.770723 
L 259.44643 130.613689 
L 260.2495 131.188579 
L 262.658711 133.776173 
L 265.067922 136.148802 
L 265.870992 136.932637 
L 266.674063 137.554078 
L 268.280203 139.315768 
L 271.492484 143.055298 
L 273.098625 144.719488 
L 273.901695 145.372491 
L 274.704765 146.227974 
L 276.310906 147.740082 
L 277.113976 148.732913 
L 279.523187 151.164098 
L 281.129328 152.911443 
L 284.341609 156.550474 
L 285.947749 158.126448 
L 291.569241 164.274 
L 292.372312 165.027902 
L 293.175382 165.978124 
L 294.781522 167.52226 
L 296.387663 169.331325 
L 297.190733 170.124671 
L 298.796874 172.046268 
L 303.615295 177.356687 
L 306.827577 180.51835 
L 308.433717 182.381918 
L 310.039858 183.962692 
L 311.645998 185.616491 
L 314.055209 188.144081 
L 316.46442 191.270204 
L 318.07056 192.823412 
L 318.873631 193.732813 
L 319.676701 194.454218 
L 321.282842 196.352608 
L 323.692052 198.696596 
L 328.510474 203.741777 
L 330.919685 205.83149 
L 332.525826 207.535078 
L 336.541177 211.565079 
L 338.950388 213.022205 
L 341.359599 213.929466 
L 345.37495 214.608927 
L 359.027145 214.757828 
L 371.876269 214.750008 
L 371.876269 214.750008 
" style="fill:none;stroke:#93a1a1;stroke-linecap:square;stroke-width:1.5;"/>
    <defs>
     <path d="M -0 3 
L 3 -3 
L -3 -3 
z
" id="m8e22fd4881" style="stroke:#93a1a1;stroke-linejoin:miter;"/>
    </defs>
    <g clip-path="url(#p85803f3dc8)">
     <use style="fill:#93a1a1;stroke:#93a1a1;stroke-linejoin:miter;" x="98.029304" xlink:href="#m8e22fd4881" y="40.351051"/>
     <use style="fill:#93a1a1;stroke:#93a1a1;stroke-linejoin:miter;" x="159.062645" xlink:href="#m8e22fd4881" y="63.604813"/>
     <use style="fill:#93a1a1;stroke:#93a1a1;stroke-linejoin:miter;" x="220.095986" xlink:href="#m8e22fd4881" y="99.699527"/>
     <use style="fill:#93a1a1;stroke:#93a1a1;stroke-linejoin:miter;" x="281.129328" xlink:href="#m8e22fd4881" y="152.911443"/>
     <use style="fill:#93a1a1;stroke:#93a1a1;stroke-linejoin:miter;" x="342.162669" xlink:href="#m8e22fd4881" y="214.070626"/>
    </g>
   </g>
   <g id="line2d_39">
    <path clip-path="url(#p85803f3dc8)" d="M 67.512633 19.982224 
L 68.315703 23.906901 
L 69.118773 25.373484 
L 70.724914 26.953212 
L 72.331055 28.290244 
L 73.937195 29.247521 
L 75.543336 30.398838 
L 79.558687 32.606078 
L 81.164828 33.4316 
L 82.770968 34.118896 
L 86.78632 35.354147 
L 94.013952 37.71579 
L 95.620093 38.520823 
L 97.226233 39.617393 
L 98.832374 41.009828 
L 101.241585 42.821406 
L 104.453866 44.781315 
L 106.863077 45.564043 
L 108.469217 45.972952 
L 114.893779 47.027335 
L 117.30299 47.482446 
L 120.515271 48.347641 
L 122.121412 49.093873 
L 123.727553 49.857978 
L 125.333693 50.707102 
L 127.742904 52.399307 
L 130.152115 53.555184 
L 132.561326 54.209334 
L 140.592028 55.757885 
L 147.819661 57.925752 
L 151.031942 59.337216 
L 152.638083 60.133482 
L 156.653434 62.498833 
L 160.668785 64.321004 
L 168.699488 66.886993 
L 170.305629 67.401892 
L 176.730191 69.406896 
L 179.942472 70.453981 
L 183.957824 71.774579 
L 185.563964 72.257752 
L 191.185456 74.691384 
L 197.610018 78.927437 
L 199.216159 80.204512 
L 200.8223 81.666423 
L 202.42844 82.78352 
L 204.034581 84.17229 
L 207.246862 87.154809 
L 208.853002 88.911212 
L 209.656073 89.524468 
L 210.459143 90.329651 
L 212.065283 92.414955 
L 215.277565 95.923272 
L 217.686775 97.655385 
L 218.489846 98.307454 
L 220.095986 99.314475 
L 221.702127 100.305045 
L 224.111338 101.232785 
L 226.520548 101.946809 
L 229.73283 102.817934 
L 231.33897 103.400119 
L 234.551251 104.848167 
L 236.157392 105.772335 
L 237.763532 107.074985 
L 239.369673 108.502827 
L 243.385024 112.523454 
L 244.991165 114.414442 
L 247.400376 116.832811 
L 249.006516 118.315032 
L 250.612657 120.243515 
L 252.218797 121.884013 
L 253.021868 122.567399 
L 254.628008 124.502023 
L 256.234149 126.424759 
L 258.64336 129.123767 
L 259.44643 130.059131 
L 261.052571 131.415443 
L 263.461781 134.096229 
L 265.870992 136.542612 
L 266.674063 137.36106 
L 267.477133 137.990372 
L 269.886344 140.366689 
L 271.492484 142.179527 
L 277.113976 147.630354 
L 278.720117 149.530752 
L 279.523187 150.239528 
L 281.932398 152.796342 
L 283.538538 154.35098 
L 284.341609 154.934001 
L 285.144679 155.695287 
L 286.75082 156.776542 
L 289.16003 157.956224 
L 290.766171 158.327882 
L 292.372312 158.607093 
L 295.584593 158.799579 
L 300.403014 158.767128 
L 318.07056 158.402279 
L 321.282842 158.1808 
L 324.495123 157.727617 
L 329.313544 156.816192 
L 334.131966 156.222719 
L 351.799512 154.802243 
L 367.057848 153.289443 
L 370.270129 152.860793 
L 371.876269 152.685527 
L 371.876269 152.685527 
" style="fill:none;stroke:#93a1a1;stroke-linecap:square;stroke-width:1.5;"/>
    <defs>
     <path d="M -3 3 
L 3 3 
L 3 -3 
L -3 -3 
z
" id="mc7c04a0b23" style="stroke:#93a1a1;stroke-linejoin:miter;"/>
    </defs>
    <g clip-path="url(#p85803f3dc8)">
     <use style="fill:#93a1a1;stroke:#93a1a1;stroke-linejoin:miter;" x="113.287639" xlink:href="#mc7c04a0b23" y="46.786582"/>
     <use style="fill:#93a1a1;stroke:#93a1a1;stroke-linejoin:miter;" x="174.32098" xlink:href="#mc7c04a0b23" y="68.627345"/>
     <use style="fill:#93a1a1;stroke:#93a1a1;stroke-linejoin:miter;" x="235.354322" xlink:href="#mc7c04a0b23" y="105.287112"/>
     <use style="fill:#93a1a1;stroke:#93a1a1;stroke-linejoin:miter;" x="296.387663" xlink:href="#mc7c04a0b23" y="158.810759"/>
     <use style="fill:#93a1a1;stroke:#93a1a1;stroke-linejoin:miter;" x="357.421004" xlink:href="#mc7c04a0b23" y="154.327482"/>
    </g>
   </g>
   <g id="line2d_40">
    <path clip-path="url(#p85803f3dc8)" d="M 67.512633 19.982224 
L 68.315703 23.906901 
L 69.118773 25.373484 
L 70.724914 26.953212 
L 72.331055 28.290244 
L 73.937195 29.247521 
L 75.543336 30.398838 
L 79.558687 32.606078 
L 81.164828 33.4316 
L 82.770968 34.118896 
L 86.78632 35.354147 
L 94.013952 37.71579 
L 95.620093 38.520823 
L 97.226233 39.617393 
L 98.832374 41.009828 
L 101.241585 42.821406 
L 104.453866 44.781315 
L 106.863077 45.564043 
L 108.469217 45.972952 
L 114.893779 47.027335 
L 117.30299 47.482446 
L 120.515271 48.347284 
L 122.121412 49.080502 
L 125.333693 50.700609 
L 126.939834 51.852343 
L 128.545974 52.81547 
L 130.152115 53.533513 
L 132.561326 54.160472 
L 140.592028 55.813256 
L 143.001239 56.476365 
L 145.41045 57.227468 
L 147.819661 57.911521 
L 151.835012 59.712935 
L 153.441153 60.626802 
L 155.047294 61.653035 
L 158.259575 63.254185 
L 161.471856 64.577951 
L 164.684137 65.635206 
L 167.093348 66.462514 
L 169.502559 67.184786 
L 171.911769 67.885511 
L 174.32098 68.692614 
L 176.730191 69.446516 
L 186.367034 72.609658 
L 188.776245 73.712967 
L 190.382386 74.295824 
L 191.988526 75.211358 
L 193.594667 76.279114 
L 195.200808 77.327039 
L 198.413089 79.410802 
L 201.62537 82.424388 
L 203.23151 83.443212 
L 207.246862 87.147103 
L 212.868354 93.531905 
L 213.671424 94.504653 
L 216.080635 96.715478 
L 217.686775 97.869011 
L 220.095986 99.48955 
L 222.505197 100.711229 
L 225.717478 101.731508 
L 229.73283 102.840163 
L 234.551251 104.996842 
L 235.354322 105.460285 
L 238.566603 108.07893 
L 244.188095 113.615527 
L 246.597306 116.334149 
L 248.203446 117.884462 
L 250.612657 120.807957 
L 256.234149 126.761348 
L 257.840289 128.525982 
L 258.64336 129.168294 
L 260.2495 130.833737 
L 261.052571 131.47711 
L 263.461781 134.433147 
L 267.477133 138.347312 
L 269.083273 140.055684 
L 269.886344 140.802106 
L 271.492484 142.590021 
L 273.098625 144.309559 
L 274.704765 145.657345 
L 276.310906 147.433818 
L 281.932398 153.419045 
L 285.144679 157.255372 
L 288.35696 160.562387 
L 295.584593 168.126809 
L 296.387663 169.068717 
L 297.993803 170.563082 
L 298.796874 171.725558 
L 299.599944 172.667723 
L 300.403014 173.418995 
L 303.615295 177.091143 
L 313.252139 186.914678 
L 315.66135 189.571072 
L 316.46442 190.603309 
L 326.904334 201.460349 
L 328.510474 203.23336 
L 333.328896 207.795321 
L 334.935036 209.553899 
L 338.950388 212.710072 
L 340.556528 213.597604 
L 342.965739 214.310749 
L 343.768809 214.53478 
L 348.587231 215.015936 
L 358.224075 215.12591 
L 371.876269 215.112992 
L 371.876269 215.112992 
" style="fill:none;stroke:#073642;stroke-dasharray:1.5,2.475;stroke-dashoffset:0;stroke-width:1.5;"/>
   </g>
   <g id="line2d_41">
    <path clip-path="url(#p85803f3dc8)" d="M 67.512633 19.982224 
L 68.315703 23.906901 
L 69.118773 25.373484 
L 70.724914 26.953212 
L 72.331055 28.290244 
L 73.937195 29.247521 
L 75.543336 30.398838 
L 79.558687 32.606078 
L 81.164828 33.4316 
L 82.770968 34.118896 
L 86.78632 35.354147 
L 94.013952 37.71579 
L 95.620093 38.520823 
L 97.226233 39.617393 
L 98.832374 41.009828 
L 101.241585 42.821406 
L 104.453866 44.781315 
L 106.863077 45.564043 
L 108.469217 45.972952 
L 114.893779 47.027335 
L 117.30299 47.482446 
L 120.515271 48.347695 
L 121.318342 48.661867 
L 123.727553 49.893213 
L 125.333693 50.719468 
L 127.742904 52.398504 
L 130.152115 53.524595 
L 132.561326 54.159661 
L 136.576677 54.835507 
L 138.182818 55.163274 
L 143.001239 56.380998 
L 151.031942 59.171781 
L 152.638083 59.993376 
L 156.653434 62.482465 
L 160.668785 64.224082 
L 167.896418 66.623343 
L 172.71484 68.04842 
L 174.32098 68.53542 
L 175.927121 69.03814 
L 179.139402 70.114667 
L 181.548613 70.872763 
L 187.973175 73.096609 
L 191.988526 74.885723 
L 193.594667 75.790489 
L 196.003878 77.4855 
L 197.610018 78.393634 
L 199.216159 79.601179 
L 200.8223 81.006251 
L 202.42844 82.446446 
L 206.443791 85.808466 
L 208.049932 87.349402 
L 209.656073 88.912067 
L 211.262213 90.533431 
L 212.868354 92.517057 
L 214.474494 94.393282 
L 216.080635 96.051057 
L 218.489846 97.991067 
L 220.095986 99.085772 
L 221.702127 100.121399 
L 224.111338 101.064968 
L 227.323619 101.901389 
L 230.5359 102.704415 
L 232.14204 103.363361 
L 235.354322 104.834551 
L 237.763532 106.416562 
L 244.188095 112.3703 
L 244.991165 113.171536 
L 247.400376 115.922186 
L 249.006516 117.423692 
L 250.612657 118.997308 
L 252.218797 120.824648 
L 254.628008 123.222001 
L 256.234149 125.007376 
L 257.840289 126.985953 
L 261.855641 130.955476 
L 262.658711 131.754463 
L 264.264852 133.658398 
L 269.886344 139.194642 
L 274.704765 144.192045 
L 277.113976 146.359481 
L 278.720117 147.967103 
L 279.523187 148.995506 
L 281.932398 151.351543 
L 284.341609 154.094505 
L 286.75082 156.869523 
L 288.35696 158.675729 
L 294.781522 164.300302 
L 297.993803 166.572718 
L 299.599944 167.436885 
L 302.009155 168.483243 
L 303.615295 168.884075 
L 306.024506 169.190391 
L 310.039858 169.352415 
L 326.101263 169.366258 
L 371.876269 169.366259 
L 371.876269 169.366259 
" style="fill:none;stroke:#6c71c4;stroke-linecap:square;stroke-width:1.5;"/>
   </g>
   <g id="line2d_42">
    <path clip-path="url(#p85803f3dc8)" d="M 67.512633 19.982224 
L 68.315703 23.906901 
L 69.118773 25.373484 
L 70.724914 26.953212 
L 72.331055 28.290244 
L 73.937195 29.247521 
L 75.543336 30.398838 
L 79.558687 32.606078 
L 81.164828 33.4316 
L 82.770968 34.118896 
L 86.78632 35.354147 
L 94.013952 37.71579 
L 95.620093 38.520823 
L 97.226233 39.617393 
L 98.832374 41.009828 
L 101.241585 42.821406 
L 104.453866 44.781315 
L 106.863077 45.564043 
L 108.469217 45.972952 
L 114.893779 47.027335 
L 117.30299 47.482446 
L 120.515271 48.347725 
L 121.318342 48.662052 
L 126.136763 51.388935 
L 129.349045 53.232753 
L 130.955185 53.802303 
L 134.167466 54.482295 
L 139.788958 55.542399 
L 143.001239 56.436111 
L 147.819661 57.898966 
L 152.638083 59.993348 
L 155.850364 62.044375 
L 158.259575 63.195357 
L 163.881067 65.341091 
L 167.093348 66.368114 
L 171.108699 67.528435 
L 173.51791 68.204513 
L 178.336332 69.803505 
L 185.563964 72.124833 
L 187.973175 73.030943 
L 190.382386 74.126589 
L 191.988526 74.900236 
L 194.397737 76.354222 
L 199.216159 79.401229 
L 201.62537 81.770515 
L 203.23151 83.013445 
L 204.034581 83.55416 
L 208.049932 87.160214 
L 209.656073 88.792829 
L 211.262213 90.27871 
L 212.868354 92.294148 
L 214.474494 94.118104 
L 215.277565 95.060531 
L 217.686775 97.016732 
L 220.095986 98.771754 
L 222.505197 100.301811 
L 225.717478 101.380682 
L 231.33897 102.949218 
L 232.945111 103.55904 
L 235.354322 104.614433 
L 236.960462 105.665642 
L 240.975814 108.987552 
L 244.188095 112.099492 
L 249.809587 117.733129 
L 250.612657 118.441908 
L 253.824938 122.067875 
L 255.431079 123.672206 
L 261.052571 129.968748 
L 261.855641 130.78096 
L 262.658711 131.431464 
L 267.477133 136.384476 
L 269.886344 138.607452 
L 272.295554 141.071542 
L 273.901695 142.888535 
L 278.720117 147.460433 
L 281.129328 150.180012 
L 281.932398 150.843801 
L 285.144679 154.497028 
L 288.35696 157.967095 
L 289.963101 159.423134 
L 291.569241 160.958909 
L 292.372312 161.869338 
L 295.584593 164.45086 
L 297.993803 166.012494 
L 299.599944 166.869065 
L 302.812225 167.963884 
L 305.221436 168.333554 
L 309.236787 168.540672 
L 314.858279 168.58159 
L 371.876269 168.572253 
L 371.876269 168.572253 
" style="fill:none;stroke:#2aa198;stroke-linecap:square;stroke-width:1.5;"/>
   </g>
   <g id="line2d_43">
    <path clip-path="url(#p85803f3dc8)" d="M 67.512633 19.982224 
L 68.315703 23.906901 
L 69.118773 25.373484 
L 70.724914 26.953212 
L 72.331055 28.290244 
L 73.937195 29.247521 
L 75.543336 30.398838 
L 79.558687 32.606078 
L 81.164828 33.4316 
L 82.770968 34.118896 
L 86.78632 35.354147 
L 94.013952 37.71579 
L 95.620093 38.520823 
L 97.226233 39.617393 
L 98.832374 41.009828 
L 101.241585 42.821406 
L 104.453866 44.781315 
L 106.863077 45.564043 
L 108.469217 45.972952 
L 114.893779 47.027335 
L 117.30299 47.482446 
L 120.515271 48.347667 
L 122.121412 49.094943 
L 123.727553 49.872074 
L 125.333693 50.710449 
L 127.742904 52.399337 
L 130.152115 53.555209 
L 132.561326 54.210199 
L 140.592028 55.769586 
L 143.80431 56.756402 
L 149.425802 58.618546 
L 151.031942 59.337684 
L 152.638083 60.140349 
L 156.653434 62.49966 
L 160.668785 64.334221 
L 167.896418 66.647478 
L 175.124051 68.882454 
L 178.336332 70.023174 
L 183.957824 71.729034 
L 186.367034 72.596181 
L 190.382386 74.287446 
L 191.988526 75.211451 
L 193.594667 76.284484 
L 195.200808 77.340836 
L 197.610018 78.867727 
L 199.216159 80.225993 
L 201.62537 82.454597 
L 204.034581 84.182754 
L 207.246862 87.14871 
L 208.853002 88.845879 
L 209.656073 89.454079 
L 210.459143 90.303441 
L 212.065283 92.406417 
L 215.277565 96.020384 
L 217.686775 97.991267 
L 219.292916 99.019473 
L 220.899057 99.98987 
L 223.308267 101.001366 
L 226.520548 101.926987 
L 228.929759 102.572271 
L 230.5359 103.042087 
L 234.551251 104.856512 
L 236.157392 105.902384 
L 236.960462 106.463053 
L 238.566603 107.964119 
L 239.369673 108.55277 
L 242.581954 111.69681 
L 244.188095 113.532835 
L 245.794235 115.412915 
L 247.400376 116.950016 
L 253.021868 122.983172 
L 255.431079 125.692473 
L 256.234149 126.603857 
L 257.840289 128.191999 
L 260.2495 130.584213 
L 262.658711 132.992963 
L 264.264852 134.889549 
L 266.674063 137.423868 
L 268.280203 139.120768 
L 270.689414 141.545569 
L 273.098625 144.092363 
L 275.507836 146.195445 
L 278.720117 149.715263 
L 281.129328 152.238962 
L 282.735468 154.304815 
L 287.55389 159.578435 
L 290.766171 162.798146 
L 293.175382 165.174786 
L 294.781522 166.868252 
L 296.387663 168.718816 
L 298.796874 171.105112 
L 299.599944 172.176389 
L 302.009155 174.934035 
L 303.615295 176.685974 
L 308.433717 181.493158 
L 310.039858 183.158958 
L 310.842928 183.855605 
L 314.055209 187.475485 
L 315.66135 189.289794 
L 316.46442 190.077767 
L 317.26749 191.073421 
L 322.888982 196.765918 
L 324.495123 198.384992 
L 325.298193 199.136337 
L 326.904334 200.878574 
L 329.313544 202.770693 
L 330.116615 203.294195 
L 333.328896 204.716234 
L 336.541177 205.400028 
L 338.950388 205.609356 
L 342.162669 205.722905 
L 352.602583 205.771418 
L 371.876269 205.770471 
L 371.876269 205.770471 
" style="fill:none;stroke:#859900;stroke-dasharray:1.5,2.475;stroke-dashoffset:0;stroke-width:1.5;"/>
   </g>
   <g id="line2d_44">
    <path clip-path="url(#p85803f3dc8)" d="M 67.512633 19.982224 
L 68.315703 23.906901 
L 69.118773 25.373484 
L 70.724914 26.953212 
L 72.331055 28.290244 
L 73.937195 29.247521 
L 75.543336 30.398838 
L 79.558687 32.606078 
L 81.164828 33.4316 
L 82.770968 34.118896 
L 86.78632 35.354147 
L 94.013952 37.71579 
L 95.620093 38.520823 
L 97.226233 39.617393 
L 98.832374 41.009828 
L 101.241585 42.821406 
L 104.453866 44.781315 
L 106.863077 45.564043 
L 108.469217 45.972952 
L 114.893779 47.027335 
L 117.30299 47.482446 
L 120.515271 48.34771 
L 121.318342 48.661956 
L 126.136763 51.321838 
L 128.545974 52.816832 
L 130.152115 53.549185 
L 132.561326 54.167618 
L 140.592028 55.74412 
L 148.622731 58.274756 
L 151.835012 59.715727 
L 153.441153 60.65685 
L 155.047294 61.672673 
L 159.062645 63.604808 
L 160.668785 64.335361 
L 167.093348 66.438926 
L 171.911769 67.837732 
L 175.124051 68.875843 
L 184.760894 71.975203 
L 186.367034 72.574398 
L 191.988526 75.206109 
L 195.200808 77.237402 
L 197.610018 78.832789 
L 198.413089 79.403259 
L 200.8223 81.730228 
L 202.42844 82.792641 
L 204.837651 84.721379 
L 206.443791 86.214563 
L 208.853002 88.859443 
L 209.656073 89.505228 
L 210.459143 90.378983 
L 211.262213 91.430265 
L 213.671424 94.034057 
L 214.474494 95.030481 
L 216.080635 96.419479 
L 217.686775 97.653546 
L 218.489846 98.320594 
L 221.702127 100.2723 
L 224.914408 101.473819 
L 229.73283 102.696387 
L 232.945111 103.96586 
L 235.354322 105.124815 
L 236.960462 106.231849 
L 237.763532 106.847517 
L 243.385024 112.50834 
L 244.991165 114.293456 
L 247.400376 116.652781 
L 249.006516 118.270796 
L 254.628008 124.530408 
L 256.234149 126.57266 
L 268.280203 138.637581 
L 269.083273 139.314666 
L 275.507836 145.987828 
L 277.917046 148.673928 
L 278.720117 149.653711 
L 280.326257 151.232281 
L 282.735468 153.901007 
L 285.144679 156.625576 
L 286.75082 158.344784 
L 287.55389 159.090453 
L 289.16003 160.876427 
L 290.766171 162.523104 
L 297.993803 169.838435 
L 299.599944 171.769019 
L 300.403014 172.772423 
L 304.418366 176.978043 
L 310.039858 183.022682 
L 314.055209 186.810489 
L 315.66135 188.715035 
L 322.085912 195.422268 
L 322.888982 196.366018 
L 328.510474 201.547151 
L 330.116615 202.655628 
L 330.919685 203.164523 
L 334.935036 205.002989 
L 337.344247 205.616109 
L 339.753458 205.953945 
L 342.965739 206.160987 
L 349.390301 206.339782 
L 365.451707 206.359212 
L 371.876269 206.359212 
L 371.876269 206.359212 
" style="fill:none;stroke:#073642;stroke-linecap:square;stroke-width:1.5;"/>
   </g>
   <g id="patch_3">
    <path d="M 52.294451 232.46 
L 52.294451 10.7 
" style="fill:none;stroke:#000000;stroke-linecap:square;stroke-linejoin:miter;stroke-width:0.8;"/>
   </g>
   <g id="patch_4">
    <path d="M 387.094451 232.46 
L 387.094451 10.7 
" style="fill:none;stroke:#000000;stroke-linecap:square;stroke-linejoin:miter;stroke-width:0.8;"/>
   </g>
   <g id="patch_5">
    <path d="M 52.294451 232.46 
L 387.094451 232.46 
" style="fill:none;stroke:#000000;stroke-linecap:square;stroke-linejoin:miter;stroke-width:0.8;"/>
   </g>
   <g id="patch_6">
    <path d="M 52.294451 10.7 
L 387.094451 10.7 
" style="fill:none;stroke:#000000;stroke-linecap:square;stroke-linejoin:miter;stroke-width:0.8;"/>
   </g>
   <g id="legend_1">
    <g id="patch_7">
     <path d="M 394.094451 158.071783 
L 485.150183 158.071783 
Q 487.150183 158.071783 487.150183 156.071783 
L 487.150183 17.7 
Q 487.150183 15.7 485.150183 15.7 
L 394.094451 15.7 
Q 392.094451 15.7 392.094451 17.7 
L 392.094451 156.071783 
Q 392.094451 158.071783 394.094451 158.071783 
z
" style="fill:#ffffff;opacity:0.8;stroke:#cccccc;stroke-linejoin:miter;"/>
    </g>
    <g id="line2d_45">
     <path d="M 396.094451 23.2 
L 416.094451 23.2 
" style="fill:none;stroke:#073642;stroke-linecap:square;stroke-width:1.5;"/>
    </g>
    <g id="line2d_46"/>
    <g id="text_20">
     <!-- \textsc{{PPR-CG}} -->
     <defs>
      <path d="M 43 31.390625 
C 55.203125 31.390625 66.90625 39.171875 66.90625 49.4375 
C 66.90625 59.3125 56.296875 68 42.203125 68 
L 5.703125 68 
L 5.703125 64.890625 
L 8.09375 64.890625 
C 15.796875 64.890625 16 63.796875 16 60.203125 
L 16 7.765625 
C 16 4.1875 15.796875 3.09375 8.09375 3.09375 
L 5.703125 3.09375 
L 5.703125 0 
C 9.203125 0.296875 16.59375 0.296875 20.40625 0.296875 
C 24.203125 0.296875 31.703125 0.296875 35.203125 0 
L 35.203125 3.09375 
L 32.796875 3.09375 
C 25.09375 3.09375 24.90625 4.1875 24.90625 7.765625 
L 24.90625 31.390625 
z
M 24.59375 60.90625 
C 24.59375 64.1875 24.796875 64.890625 29.5 64.890625 
L 39.59375 64.890625 
C 56.59375 64.890625 56.59375 53.921875 56.59375 49.4375 
C 56.59375 45.15625 56.59375 34 39.59375 34 
L 24.59375 34 
z
" id="CMCSC10-80"/>
      <path d="M 24.59375 35.1875 
L 24.59375 60.921875 
C 24.59375 63.609375 24.796875 64.5 27.203125 64.796875 
C 28.09375 64.890625 31.203125 64.890625 33.203125 64.890625 
C 41.90625 64.890625 55.09375 64.890625 55.09375 50.09375 
C 55.09375 39.46875 48 35.1875 36.703125 35.1875 
z
M 47 33.890625 
C 59 36.78125 65.40625 43.34375 65.40625 50.09375 
C 65.40625 59.734375 53.203125 68 38.09375 68 
L 5.703125 68 
L 5.703125 64.890625 
L 8.09375 64.890625 
C 15.796875 64.890625 16 63.796875 16 60.21875 
L 16 7.921875 
C 16 4.359375 15.796875 3.265625 8.09375 3.265625 
L 5.703125 3.265625 
L 5.703125 0.1875 
C 9.296875 0.484375 16.40625 0.484375 20.296875 0.484375 
C 24.203125 0.484375 31.296875 0.484375 34.90625 0.1875 
L 34.90625 3.265625 
L 32.5 3.265625 
C 24.796875 3.265625 24.59375 4.359375 24.59375 7.921875 
L 24.59375 33 
L 37.09375 33 
C 42.5 33 45.703125 31.015625 47.40625 29.421875 
C 51.203125 25.75 51.203125 23.28125 51.203125 16.34375 
C 51.203125 9.5 51.203125 5.9375 55.5 2.078125 
C 59.203125 -1.109375 64.796875 -2 68.296875 -2 
C 76.296875 -2 78.203125 6.140625 78.203125 8.90625 
C 78.203125 9.5 78.203125 10.59375 76.90625 10.59375 
C 75.796875 10.59375 75.796875 9.703125 75.703125 9.015625 
C 74.90625 1.28125 70.796875 0.1875 68.703125 0.1875 
C 63.40625 0.1875 62.703125 4.65625 60.90625 16.140625 
C 59.796875 23.078125 59.40625 25.5625 56.203125 28.734375 
C 54.09375 30.90625 50.90625 32.796875 47 33.890625 
z
" id="CMCSC10-82"/>
      <path d="M 30.5 19 
L 30.5 24.796875 
L 2.59375 24.796875 
L 2.59375 19 
z
" id="CMCSC10-45"/>
      <path d="M 63.40625 62.0625 
C 60.09375 65.484375 54 71 43.703125 71 
C 24 71 7.203125 54.9375 7.203125 34.546875 
C 7.203125 14.046875 24 -2 43.796875 -2 
C 60.703125 -2 71.296875 11.640625 71.296875 23.59375 
C 71.296875 24.59375 71.296875 25.296875 70 25.296875 
C 68.90625 25.296875 68.90625 24.703125 68.796875 23.6875 
C 68 9.125 56.296875 1.09375 45.09375 1.09375 
C 36.296875 1.09375 17.5 6.3125 17.5 34.4375 
C 17.5 64.078125 38 67.890625 44.90625 67.890625 
C 55.59375 67.890625 65.796875 59.546875 68.09375 44.078125 
C 68.296875 42.671875 68.40625 42.375 69.703125 42.375 
C 71.296875 42.375 71.296875 42.671875 71.296875 44.78125 
L 71.296875 68.59375 
C 71.296875 70.296875 71.296875 71 70.203125 71 
C 69.796875 71 69.40625 71 68.59375 69.796875 
z
" id="CMCSC10-67"/>
      <path d="M 71.203125 68.59375 
C 71.203125 70.296875 71.203125 71 70.09375 71 
C 69.703125 71 69.296875 71 68.5 69.796875 
L 63.296875 62.125 
C 60.203125 65.109375 54.296875 71 43.703125 71 
C 23.796875 71 7.203125 54.859375 7.203125 34.859375 
C 7.203125 14.578125 23.59375 -2 43.90625 -2 
C 51.796875 -2 60.40625 0.59375 63.90625 6.609375 
C 65.203125 4.359375 69.203125 0.296875 70.296875 0.296875 
C 71.203125 0.296875 71.203125 1.09375 71.203125 2.625 
L 71.203125 20.390625 
C 71.203125 24.890625 72.296875 24.890625 78.5 24.890625 
L 78.5 28 
C 73.703125 27.796875 70.09375 27.6875 65.796875 27.6875 
C 61.703125 27.6875 52.796875 27.6875 49.203125 28 
L 49.203125 24.890625 
L 52.703125 24.890625 
C 62.296875 24.890625 62.296875 23.46875 62.296875 19.984375 
L 62.296875 13.453125 
C 62.296875 1.09375 46.796875 1.09375 45.59375 1.09375 
C 36.5 1.09375 17.5 6.40625 17.5 34.859375 
C 17.5 63.015625 36.703125 67.890625 44.90625 67.890625 
C 55.5 67.890625 65.703125 59.734375 68 44.3125 
C 68.203125 42.921875 68.296875 42.625 69.59375 42.625 
C 71.203125 42.625 71.203125 42.921875 71.203125 45 
z
" id="CMCSC10-71"/>
     </defs>
     <g transform="translate(424.094451 26.7)scale(0.1 -0.1)">
      <use transform="scale(0.996264)" xlink:href="#CMCSC10-80"/>
      <use transform="translate(73.888826 0)scale(0.996264)" xlink:href="#CMCSC10-80"/>
      <use transform="translate(147.777651 0)scale(0.996264)" xlink:href="#CMCSC10-82"/>
      <use transform="translate(227.478027 0)scale(0.996264)" xlink:href="#CMCSC10-45"/>
      <use transform="translate(265.114311 0)scale(0.996264)" xlink:href="#CMCSC10-67"/>
      <use transform="translate(343.431036 0)scale(0.996264)" xlink:href="#CMCSC10-71"/>
     </g>
    </g>
    <g id="line2d_47">
     <path d="M 396.094451 37.137178 
L 416.094451 37.137178 
" style="fill:none;stroke:#859900;stroke-dasharray:1.5,2.475;stroke-dashoffset:0;stroke-width:1.5;"/>
    </g>
    <g id="line2d_48"/>
    <g id="text_21">
     <!-- \textsc{{PPR-M-CG}} -->
     <defs>
      <path d="M 74.40625 65.09375 
L 74.5 64.984375 
L 74.5 7.765625 
C 74.5 4.1875 74.296875 3.09375 66.59375 3.09375 
L 64.203125 3.09375 
L 64.203125 0 
C 67.90625 0.296875 74.703125 0.296875 78.59375 0.296875 
C 82.5 0.296875 89.203125 0.296875 92.90625 0 
L 92.90625 3.09375 
L 90.5 3.09375 
C 82.796875 3.09375 82.59375 4.1875 82.59375 7.765625 
L 82.59375 60.21875 
C 82.59375 63.796875 82.796875 64.890625 90.5 64.890625 
L 92.90625 64.890625 
L 92.90625 68 
L 76 68 
C 73.703125 68 73.40625 68 72.59375 66.09375 
L 49.40625 9.46875 
L 26.203125 66.1875 
C 25.5 68 24.90625 68 22.796875 68 
L 5.90625 68 
L 5.90625 64.890625 
L 8.296875 64.890625 
C 16 64.890625 16.203125 63.796875 16.203125 60.21875 
L 16.203125 10.453125 
C 16.203125 7.765625 16.203125 3.09375 5.90625 3.09375 
L 5.90625 0 
C 9.40625 0.09375 14.296875 0.296875 17.59375 0.296875 
C 20.90625 0.296875 25.796875 0.09375 29.296875 0 
L 29.296875 3.09375 
C 19 3.09375 19 7.765625 19 10.453125 
L 19 64.296875 
L 19.09375 64.390625 
L 44.703125 1.796875 
C 45.09375 0.890625 45.59375 0 46.59375 0 
C 47.59375 0 48.09375 0.890625 48.5 1.796875 
z
" id="CMCSC10-77"/>
     </defs>
     <g transform="translate(424.094451 40.637178)scale(0.1 -0.1)">
      <use transform="scale(0.996264)" xlink:href="#CMCSC10-80"/>
      <use transform="translate(73.888826 0)scale(0.996264)" xlink:href="#CMCSC10-80"/>
      <use transform="translate(147.777651 0)scale(0.996264)" xlink:href="#CMCSC10-82"/>
      <use transform="translate(227.478027 0)scale(0.996264)" xlink:href="#CMCSC10-45"/>
      <use transform="translate(265.114311 0)scale(0.996264)" xlink:href="#CMCSC10-77"/>
      <use transform="translate(363.632776 0)scale(0.996264)" xlink:href="#CMCSC10-45"/>
      <use transform="translate(401.26906 0)scale(0.996264)" xlink:href="#CMCSC10-67"/>
      <use transform="translate(479.585785 0)scale(0.996264)" xlink:href="#CMCSC10-71"/>
     </g>
    </g>
    <g id="line2d_49">
     <path d="M 396.094451 51.074357 
L 416.094451 51.074357 
" style="fill:none;stroke:#2aa198;stroke-linecap:square;stroke-width:1.5;"/>
    </g>
    <g id="line2d_50"/>
    <g id="text_22">
     <!-- \textsc{{PP-CG}} -->
     <g transform="translate(424.094451 54.574357)scale(0.1 -0.1)">
      <use transform="scale(0.996264)" xlink:href="#CMCSC10-80"/>
      <use transform="translate(73.888826 0)scale(0.996264)" xlink:href="#CMCSC10-80"/>
      <use transform="translate(147.777651 0)scale(0.996264)" xlink:href="#CMCSC10-45"/>
      <use transform="translate(185.413935 0)scale(0.996264)" xlink:href="#CMCSC10-67"/>
      <use transform="translate(263.73066 0)scale(0.996264)" xlink:href="#CMCSC10-71"/>
     </g>
    </g>
    <g id="line2d_51">
     <path d="M 396.094451 65.011535 
L 416.094451 65.011535 
" style="fill:none;stroke:#6c71c4;stroke-linecap:square;stroke-width:1.5;"/>
    </g>
    <g id="line2d_52"/>
    <g id="text_23">
     <!-- \textsc{{P-M-CG}} -->
     <g transform="translate(424.094451 68.511535)scale(0.1 -0.1)">
      <use transform="scale(0.996264)" xlink:href="#CMCSC10-80"/>
      <use transform="translate(73.888826 0)scale(0.996264)" xlink:href="#CMCSC10-45"/>
      <use transform="translate(111.52511 0)scale(0.996264)" xlink:href="#CMCSC10-77"/>
      <use transform="translate(210.043574 0)scale(0.996264)" xlink:href="#CMCSC10-45"/>
      <use transform="translate(247.679858 0)scale(0.996264)" xlink:href="#CMCSC10-67"/>
      <use transform="translate(325.996583 0)scale(0.996264)" xlink:href="#CMCSC10-71"/>
     </g>
    </g>
    <g id="line2d_53">
     <path d="M 396.094451 78.948713 
L 416.094451 78.948713 
" style="fill:none;stroke:#073642;stroke-dasharray:1.5,2.475;stroke-dashoffset:0;stroke-width:1.5;"/>
    </g>
    <g id="line2d_54"/>
    <g id="text_24">
     <!-- \textsc{{PR-CG}} -->
     <g transform="translate(424.094451 82.448713)scale(0.1 -0.1)">
      <use transform="scale(0.996264)" xlink:href="#CMCSC10-80"/>
      <use transform="translate(73.888826 0)scale(0.996264)" xlink:href="#CMCSC10-82"/>
      <use transform="translate(153.589202 0)scale(0.996264)" xlink:href="#CMCSC10-45"/>
      <use transform="translate(191.225486 0)scale(0.996264)" xlink:href="#CMCSC10-67"/>
      <use transform="translate(269.54221 0)scale(0.996264)" xlink:href="#CMCSC10-71"/>
     </g>
    </g>
    <g id="line2d_55">
     <path d="M 396.094451 92.885892 
L 416.094451 92.885892 
" style="fill:none;stroke:#93a1a1;stroke-linecap:square;stroke-width:1.5;"/>
    </g>
    <g id="line2d_56">
     <g>
      <use style="fill:#93a1a1;stroke:#93a1a1;stroke-linejoin:miter;" x="406.094451" xlink:href="#mc7c04a0b23" y="92.885892"/>
     </g>
    </g>
    <g id="text_25">
     <!-- \textsc{GV-CG} -->
     <defs>
      <path d="M 22.90625 60.328125 
C 22.703125 60.71875 22.40625 61.609375 22.40625 62.015625 
C 22.40625 64.890625 27.703125 64.890625 30.5 64.890625 
L 30.5 68 
C 27 67.6875 19.90625 67.6875 16.09375 67.6875 
C 11.296875 67.6875 7 67.890625 3.40625 68 
L 3.40625 64.890625 
C 11.09375 64.890625 11.90625 64.484375 13.296875 61.125 
L 38.203125 0 
C 38.796875 -1.40625 39 -2 40.59375 -2 
C 42.296875 -2 42.5 -1.5 43.09375 0 
L 66.796875 58.4375 
C 69.40625 64.890625 76 64.890625 77.90625 64.890625 
L 77.90625 68 
C 74.796875 67.796875 70.796875 67.6875 68.203125 67.6875 
C 65.203125 67.6875 59.40625 67.890625 56.796875 68 
L 56.796875 64.890625 
C 62.5 64.78125 63.90625 61.8125 63.90625 60.03125 
C 63.90625 59.53125 63.90625 59.328125 63.296875 58.046875 
L 43.59375 9.421875 
z
" id="CMCSC10-86"/>
     </defs>
     <g transform="translate(424.094451 96.385892)scale(0.1 -0.1)">
      <use transform="scale(0.996264)" xlink:href="#CMCSC10-71"/>
      <use transform="translate(84.820047 0)scale(0.996264)" xlink:href="#CMCSC10-86"/>
      <use transform="translate(165.904074 0)scale(0.996264)" xlink:href="#CMCSC10-45"/>
      <use transform="translate(203.540358 0)scale(0.996264)" xlink:href="#CMCSC10-67"/>
      <use transform="translate(281.857083 0)scale(0.996264)" xlink:href="#CMCSC10-71"/>
     </g>
    </g>
    <g id="line2d_57">
     <path d="M 396.094451 106.82307 
L 416.094451 106.82307 
" style="fill:none;stroke:#93a1a1;stroke-linecap:square;stroke-width:1.5;"/>
    </g>
    <g id="line2d_58">
     <g>
      <use style="fill:#93a1a1;stroke:#93a1a1;stroke-linejoin:miter;" x="406.094451" xlink:href="#m8e22fd4881" y="106.82307"/>
     </g>
    </g>
    <g id="text_26">
     <!-- \textsc{M-CG} -->
     <g transform="translate(424.094451 110.32307)scale(0.1 -0.1)">
      <use transform="scale(0.996264)" xlink:href="#CMCSC10-77"/>
      <use transform="translate(98.518465 0)scale(0.996264)" xlink:href="#CMCSC10-45"/>
      <use transform="translate(136.154749 0)scale(0.996264)" xlink:href="#CMCSC10-67"/>
      <use transform="translate(214.471474 0)scale(0.996264)" xlink:href="#CMCSC10-71"/>
     </g>
    </g>
    <g id="line2d_59">
     <path d="M 396.094451 120.760248 
L 416.094451 120.760248 
" style="fill:none;stroke:#93a1a1;stroke-linecap:square;stroke-width:1.5;"/>
    </g>
    <g id="line2d_60">
     <g>
      <use style="fill:#93a1a1;stroke:#93a1a1;stroke-linejoin:miter;" x="406.094451" xlink:href="#ma265741514" y="120.760248"/>
     </g>
    </g>
    <g id="text_27">
     <!-- \textsc{CG-CG} -->
     <g transform="translate(424.094451 124.260248)scale(0.1 -0.1)">
      <use transform="scale(0.996264)" xlink:href="#CMCSC10-67"/>
      <use transform="translate(78.316725 0)scale(0.996264)" xlink:href="#CMCSC10-71"/>
      <use transform="translate(163.136772 0)scale(0.996264)" xlink:href="#CMCSC10-45"/>
      <use transform="translate(200.773056 0)scale(0.996264)" xlink:href="#CMCSC10-67"/>
      <use transform="translate(279.089781 0)scale(0.996264)" xlink:href="#CMCSC10-71"/>
     </g>
    </g>
    <g id="line2d_61">
     <path d="M 396.094451 134.697427 
L 416.094451 134.697427 
" style="fill:none;stroke:#93a1a1;stroke-linecap:square;stroke-width:1.5;"/>
    </g>
    <g id="line2d_62">
     <g>
      <use style="fill:#93a1a1;stroke:#93a1a1;" x="406.094451" xlink:href="#m1700309399" y="134.697427"/>
     </g>
    </g>
    <g id="text_28">
     <!-- \textsc{HS-CG} -->
     <defs>
      <path d="M 56.59375 37 
L 24.703125 37 
L 24.703125 60.21875 
C 24.703125 63.796875 24.90625 64.890625 32.59375 64.890625 
L 35 64.890625 
L 35 68 
C 31.5 67.6875 24.09375 67.6875 20.296875 67.6875 
C 16.5 67.6875 9 67.6875 5.5 68 
L 5.5 64.890625 
L 7.90625 64.890625 
C 15.59375 64.890625 15.796875 63.796875 15.796875 60.21875 
L 15.796875 7.78125 
C 15.796875 4.1875 15.59375 3.09375 7.90625 3.09375 
L 5.5 3.09375 
L 5.5 0 
C 9 0.296875 16.40625 0.296875 20.203125 0.296875 
C 24 0.296875 31.5 0.296875 35 0 
L 35 3.09375 
L 32.59375 3.09375 
C 24.90625 3.09375 24.703125 4.1875 24.703125 7.78125 
L 24.703125 33.890625 
L 56.59375 33.890625 
L 56.59375 7.78125 
C 56.59375 4.1875 56.40625 3.09375 48.703125 3.09375 
L 46.296875 3.09375 
L 46.296875 0 
C 49.796875 0.296875 57.203125 0.296875 61 0.296875 
C 64.796875 0.296875 72.296875 0.296875 75.796875 0 
L 75.796875 3.09375 
L 73.40625 3.09375 
C 65.703125 3.09375 65.5 4.1875 65.5 7.78125 
L 65.5 60.21875 
C 65.5 63.796875 65.703125 64.890625 73.40625 64.890625 
L 75.796875 64.890625 
L 75.796875 68 
C 72.296875 67.6875 64.90625 67.6875 61.09375 67.6875 
C 57.296875 67.6875 49.796875 67.6875 46.296875 68 
L 46.296875 64.890625 
L 48.703125 64.890625 
C 56.40625 64.890625 56.59375 63.796875 56.59375 60.21875 
z
" id="CMCSC10-72"/>
      <path d="M 24.40625 42.375 
C 15.703125 44.484375 13.59375 51.421875 13.59375 55.03125 
C 13.59375 61.859375 19.296875 68.1875 27.796875 68.1875 
C 41.59375 68.1875 46.90625 58.046875 48.296875 47.796875 
C 48.5 46.5 48.5 46 49.59375 46 
C 50.90625 46 50.90625 46.5 50.90625 48.40625 
L 50.90625 68.59375 
C 50.90625 70.296875 50.90625 71 49.796875 71 
C 49.09375 71 49.09375 70.890625 48.296875 69.6875 
L 44.59375 63.765625 
C 41.90625 66.484375 37.296875 71 27.703125 71 
C 16.09375 71 7.203125 62.171875 7.203125 51.515625 
C 7.203125 45.09375 10.59375 40.5625 11.90625 39.0625 
C 16.59375 34.140625 19.59375 33.4375 27.90625 31.421875 
C 29.5 31.03125 31.203125 30.71875 32.796875 30.328125 
C 38.703125 28.921875 40.703125 28.421875 43.796875 25 
C 44.40625 24.296875 47.40625 20.875 47.40625 15.453125 
C 47.40625 8.328125 42.09375 1.09375 33 1.09375 
C 28.796875 1.09375 22.09375 1.890625 16.59375 6.21875 
C 10.09375 11.34375 9.796875 18.671875 9.703125 22.09375 
C 9.59375 22.796875 9 22.984375 8.5 22.984375 
C 7.203125 22.984375 7.203125 22.28125 7.203125 20.484375 
L 7.203125 0.390625 
C 7.203125 -1.3125 7.203125 -2 8.296875 -2 
C 9 -2 9.203125 -1.703125 9.796875 -0.8125 
L 13.5 5.203125 
C 16.296875 2.296875 22.796875 -2 33.09375 -2 
C 45.59375 -2 53.796875 8.125 53.796875 18.765625 
C 53.796875 26.8125 49 36.34375 38 39.0625 
z
" id="CMCSC10-83"/>
     </defs>
     <g transform="translate(424.094451 138.197427)scale(0.1 -0.1)">
      <use transform="scale(0.996264)" xlink:href="#CMCSC10-72"/>
      <use transform="translate(81.084027 0)scale(0.996264)" xlink:href="#CMCSC10-83"/>
      <use transform="translate(141.966208 0)scale(0.996264)" xlink:href="#CMCSC10-45"/>
      <use transform="translate(179.602492 0)scale(0.996264)" xlink:href="#CMCSC10-67"/>
      <use transform="translate(257.919217 0)scale(0.996264)" xlink:href="#CMCSC10-71"/>
     </g>
    </g>
    <g id="line2d_63">
     <path d="M 396.094451 148.634605 
L 416.094451 148.634605 
" style="fill:none;stroke:#93a1a1;stroke-dasharray:1.5,2.475;stroke-dashoffset:0;stroke-width:1.5;"/>
    </g>
    <g id="line2d_64"/>
    <g id="text_29">
     <!-- \textsc{EXACT-CG} -->
     <defs>
      <path d="M 64.09375 67.6875 
L 5.5 67.6875 
L 5.5 64.59375 
L 7.90625 64.59375 
C 15.59375 64.59375 15.796875 63.515625 15.796875 59.953125 
L 15.796875 7.8125 
C 15.796875 4.203125 15.59375 3.09375 7.90625 3.09375 
L 5.5 3.09375 
L 5.5 0 
L 65.59375 0 
L 69.796875 25.859375 
L 67.296875 25.859375 
C 64.796875 10.515625 62.40625 3.09375 44.703125 3.09375 
L 29.59375 3.09375 
C 24.90625 3.09375 24.703125 3.796875 24.703125 7.109375 
L 24.703125 33.890625 
L 34.5 33.890625 
C 44.40625 33.890625 45.796875 30.890625 45.796875 22.15625 
L 48.296875 22.15625 
L 48.296875 48.53125 
L 45.796875 48.53125 
C 45.796875 39.953125 44.40625 37 34.5 37 
L 24.703125 37 
L 24.703125 60.65625 
C 24.703125 63.90625 24.90625 64.59375 29.59375 64.59375 
L 43.90625 64.59375 
C 59.59375 64.59375 62.796875 59.5625 64.40625 45.46875 
L 66.90625 45.46875 
z
" id="CMCSC10-69"/>
      <path d="M 58.203125 58.625 
C 62.703125 64.890625 71 64.890625 73 64.890625 
L 73 68 
C 69.40625 67.890625 65.203125 67.6875 61.90625 67.6875 
C 58.203125 67.6875 52.703125 67.6875 49.09375 68 
L 49.09375 64.890625 
C 53.296875 64.796875 55 62.40625 55 60.515625 
C 55 60.015625 55 59.3125 53.90625 57.828125 
L 41.59375 40.90625 
L 27.5 60.515625 
C 26.796875 61.40625 26.796875 61.90625 26.796875 62 
C 26.796875 63.296875 29.296875 64.890625 33.09375 64.890625 
L 33.09375 68 
C 29.5 67.6875 22.203125 67.6875 18.296875 67.6875 
C 14.09375 67.6875 9.5 67.796875 5.296875 68 
L 5.296875 64.890625 
L 7.203125 64.890625 
C 13.40625 64.890625 14.90625 64 16.703125 61.40625 
L 36.40625 33.84375 
L 18.796875 9.46875 
C 14.296875 3.1875 6.40625 3.09375 3.90625 3.09375 
L 3.90625 0 
C 7.5 0.09375 11.703125 0.296875 15 0.296875 
C 19 0.296875 23.796875 0.296875 27.796875 0 
L 27.796875 3.09375 
C 23.296875 3.296875 21.90625 5.875 21.90625 7.46875 
C 21.90625 8.359375 22.203125 8.96875 22.90625 9.953125 
L 38.296875 31.15625 
L 55.09375 7.46875 
C 55.90625 6.375 55.90625 6.171875 55.90625 5.984375 
C 55.90625 5.078125 54.203125 3.1875 49.703125 3.09375 
L 49.703125 0 
C 53.203125 0.296875 60.59375 0.296875 64.40625 0.296875 
C 67.5 0.296875 73.703125 0.1875 77.40625 0 
L 77.40625 3.09375 
L 75.5 3.09375 
C 70.5 3.09375 68.203125 3.484375 65.90625 6.671875 
L 43.5 38.21875 
z
" id="CMCSC10-88"/>
      <path d="M 43.09375 69.796875 
C 42.40625 71.59375 42.296875 72 40.59375 72 
C 39 72 38.796875 71.390625 38.296875 70.09375 
L 16.203125 9.953125 
C 15.296875 7.671875 13.703125 3.1875 4.796875 3.09375 
L 4.796875 0 
C 6.90625 0.09375 10.90625 0.296875 14.90625 0.296875 
C 19.09375 0.296875 24.796875 0.09375 26.5 0 
L 26.5 3.09375 
C 21.40625 3.09375 19.09375 5.671875 19.09375 8.0625 
C 19.09375 8.671875 19.09375 8.859375 19.59375 10.0625 
L 24.40625 23 
L 51 23 
L 56.703125 7.765625 
C 57.203125 6.46875 57.203125 6.28125 57.203125 5.984375 
C 57.203125 3.09375 51.59375 3.09375 49 3.09375 
L 49 0 
C 52.59375 0.296875 59.59375 0.296875 63.40625 0.296875 
C 67.703125 0.296875 72.296875 0.1875 76.5 0 
L 76.5 3.09375 
L 74.703125 3.09375 
C 68.296875 3.09375 67.296875 3.984375 66.296875 6.78125 
z
M 49.90625 26.09375 
L 25.5 26.09375 
L 37.703125 59.46875 
z
" id="CMCSC10-65"/>
      <path d="M 71.40625 67.390625 
L 7.09375 67.390625 
L 5.203125 44.984375 
L 7.703125 44.984375 
C 9.09375 61.703125 11.09375 64.296875 26.796875 64.296875 
C 28.703125 64.296875 31.59375 64.296875 32.59375 64.09375 
C 34.796875 63.796875 34.796875 62.609375 34.796875 60.3125 
L 34.796875 7.875 
C 34.796875 4.484375 34.796875 3.09375 24.296875 3.09375 
L 20.296875 3.09375 
L 20.296875 0 
C 24.40625 0.296875 34.59375 0.296875 39.203125 0.296875 
C 43.796875 0.296875 54.09375 0.296875 58.203125 0 
L 58.203125 3.09375 
L 54.203125 3.09375 
C 43.703125 3.09375 43.703125 4.484375 43.703125 7.875 
L 43.703125 60.3125 
C 43.703125 62.609375 43.703125 63.796875 45.90625 64.09375 
C 46.90625 64.296875 49.796875 64.296875 51.703125 64.296875 
C 67.296875 64.296875 69.40625 61.703125 70.796875 44.984375 
L 73.296875 44.984375 
z
" id="CMCSC10-84"/>
     </defs>
     <g transform="translate(424.094451 152.134605)scale(0.1 -0.1)">
      <use transform="scale(0.996264)" xlink:href="#CMCSC10-69"/>
      <use transform="translate(73.888826 0)scale(0.996264)" xlink:href="#CMCSC10-88"/>
      <use transform="translate(154.972853 0)scale(0.996264)" xlink:href="#CMCSC10-65"/>
      <use transform="translate(233.151059 0)scale(0.996264)" xlink:href="#CMCSC10-67"/>
      <use transform="translate(311.467784 0)scale(0.996264)" xlink:href="#CMCSC10-84"/>
      <use transform="translate(389.784509 0)scale(0.996264)" xlink:href="#CMCSC10-45"/>
      <use transform="translate(427.420793 0)scale(0.996264)" xlink:href="#CMCSC10-67"/>
      <use transform="translate(505.737518 0)scale(0.996264)" xlink:href="#CMCSC10-71"/>
     </g>
    </g>
   </g>
  </g>
 </g>
 <defs>
  <clipPath id="p85803f3dc8">
   <rect height="221.76" width="334.8" x="52.294451" y="10.7"/>
  </clipPath>
 </defs>
</svg>
