<?xml version="1.0" encoding="utf-8" standalone="no"?>
<!DOCTYPE svg PUBLIC "-//W3C//DTD SVG 1.1//EN"
  "http://www.w3.org/Graphics/SVG/1.1/DTD/svg11.dtd">
<!-- Created with matplotlib (https://matplotlib.org/) -->
<svg height="268.371353pt" version="1.1" viewBox="0 0 507.791371 268.371353" width="507.791371pt" xmlns="http://www.w3.org/2000/svg" xmlns:xlink="http://www.w3.org/1999/xlink">
 <defs>
  <style type="text/css">
*{stroke-linecap:butt;stroke-linejoin:round;}
  </style>
 </defs>
 <g id="figure_1">
  <g id="patch_1">
   <path d="M -0 268.371353 
L 507.791371 268.371353 
L 507.791371 0 
L -0 0 
z
" style="fill:#ffffff;"/>
  </g>
  <g id="axes_1">
   <g id="patch_2">
    <path d="M 52.294451 232.46 
L 387.094451 232.46 
L 387.094451 10.7 
L 52.294451 10.7 
z
" style="fill:#ffffff;"/>
   </g>
   <g id="matplotlib.axis_1">
    <g id="xtick_1">
     <g id="line2d_1">
      <path clip-path="url(#pad512acd03)" d="M 67.512633 232.46 
L 67.512633 10.7 
" style="fill:none;stroke:#b0b0b0;stroke-dasharray:0.8,1.32;stroke-dashoffset:0;stroke-width:0.8;"/>
     </g>
     <g id="line2d_2">
      <defs>
       <path d="M 0 0 
L 0 3.5 
" id="m943bc8ff4b" style="stroke:#000000;stroke-width:0.8;"/>
      </defs>
      <g>
       <use style="stroke:#000000;stroke-width:0.8;" x="67.512633" xlink:href="#m943bc8ff4b" y="232.46"/>
      </g>
     </g>
     <g id="text_1">
      <!-- $0$ -->
      <defs>
       <path d="M 42 31.84375 
C 42 37.96875 41.90625 48.421875 37.703125 56.453125 
C 34 63.484375 28.09375 66 22.90625 66 
C 18.09375 66 12 63.78125 8.203125 56.5625 
C 4.203125 49.015625 3.796875 39.671875 3.796875 31.84375 
C 3.796875 26.109375 3.90625 17.375 7 9.734375 
C 11.296875 -0.609375 19 -2 22.90625 -2 
C 27.5 -2 34.5 -0.109375 38.59375 9.4375 
C 41.59375 16.375 42 24.5 42 31.84375 
z
M 22.90625 -0.40625 
C 16.5 -0.40625 12.703125 5.125 11.296875 12.75 
C 10.203125 18.6875 10.203125 27.328125 10.203125 32.953125 
C 10.203125 40.6875 10.203125 47.109375 11.5 53.234375 
C 13.40625 61.78125 19 64.390625 22.90625 64.390625 
C 27 64.390625 32.296875 61.671875 34.203125 53.4375 
C 35.5 47.71875 35.59375 40.984375 35.59375 32.953125 
C 35.59375 26.421875 35.59375 18.375 34.40625 12.453125 
C 32.296875 1.5 26.40625 -0.40625 22.90625 -0.40625 
z
" id="CMR17-48"/>
      </defs>
      <g transform="translate(65.021965 246.378498)scale(0.1 -0.1)">
       <use transform="scale(0.996264)" xlink:href="#CMR17-48"/>
      </g>
     </g>
    </g>
    <g id="xtick_2">
     <g id="line2d_3">
      <path clip-path="url(#pad512acd03)" d="M 123.918051 232.46 
L 123.918051 10.7 
" style="fill:none;stroke:#b0b0b0;stroke-dasharray:0.8,1.32;stroke-dashoffset:0;stroke-width:0.8;"/>
     </g>
     <g id="line2d_4">
      <g>
       <use style="stroke:#000000;stroke-width:0.8;" x="123.918051" xlink:href="#m943bc8ff4b" y="232.46"/>
      </g>
     </g>
     <g id="text_2">
      <!-- $500$ -->
      <defs>
       <path d="M 11.40625 58.59375 
C 12.40625 58.1875 16.5 56.890625 20.703125 56.890625 
C 30 56.890625 35.09375 61.890625 38 64.6875 
C 38 65.484375 38 66 37.40625 66 
C 37.296875 66 37.09375 66 36.296875 65.59375 
C 32.796875 64.09375 28.703125 63 23.703125 63 
C 20.703125 63 16.203125 63.359375 11.296875 65.484375 
C 10.203125 66 10 66 9.90625 66 
C 9.40625 66 9.296875 65.890625 9.296875 63.90625 
L 9.296875 34.859375 
C 9.296875 33.015625 9.296875 32.5 10.296875 32.5 
C 10.796875 32.5 11 32.703125 11.5 33.421875 
C 14.703125 38.046875 19.09375 40 24.09375 40 
C 27.59375 40 35.09375 37.734375 35.09375 20.203125 
C 35.09375 16.984375 35.09375 11.1875 32.09375 6.59375 
C 29.59375 2.484375 25.703125 0.390625 21.40625 0.390625 
C 14.796875 0.390625 8.09375 4.984375 6.296875 12.6875 
C 6.703125 12.59375 7.5 12.390625 7.90625 12.390625 
C 9.203125 12.390625 11.703125 13.09375 11.703125 16.1875 
C 11.703125 18.890625 9.796875 20 7.90625 20 
C 5.59375 20 4.09375 18.59375 4.09375 15.796875 
C 4.09375 7.09375 11 -2 21.59375 -2 
C 31.90625 -2 41.703125 6.890625 41.703125 19.796875 
C 41.703125 32.09375 33.90625 41.59375 24.203125 41.59375 
C 19.09375 41.59375 14.796875 39.6875 11.40625 36 
z
" id="CMR17-53"/>
      </defs>
      <g transform="translate(116.446048 246.378498)scale(0.1 -0.1)">
       <use transform="scale(0.996264)" xlink:href="#CMR17-53"/>
       <use transform="translate(45.690477 0)scale(0.996264)" xlink:href="#CMR17-48"/>
       <use transform="translate(91.380954 0)scale(0.996264)" xlink:href="#CMR17-48"/>
      </g>
     </g>
    </g>
    <g id="xtick_3">
     <g id="line2d_5">
      <path clip-path="url(#pad512acd03)" d="M 180.323469 232.46 
L 180.323469 10.7 
" style="fill:none;stroke:#b0b0b0;stroke-dasharray:0.8,1.32;stroke-dashoffset:0;stroke-width:0.8;"/>
     </g>
     <g id="line2d_6">
      <g>
       <use style="stroke:#000000;stroke-width:0.8;" x="180.323469" xlink:href="#m943bc8ff4b" y="232.46"/>
      </g>
     </g>
     <g id="text_3">
      <!-- $1000$ -->
      <defs>
       <path d="M 26.59375 63.796875 
C 26.59375 65.890625 26.5 66 25.09375 66 
C 21.203125 61.359375 15.296875 59.890625 9.703125 59.6875 
C 9.40625 59.6875 8.90625 59.6875 8.796875 59.5 
C 8.703125 59.296875 8.703125 59.09375 8.703125 57 
C 11.796875 57 17 57.59375 21 59.984375 
L 21 7.296875 
C 21 3.796875 20.796875 2.59375 12.203125 2.59375 
L 9.203125 2.59375 
L 9.203125 0 
C 14 0.09375 19 0.1875 23.796875 0.1875 
C 28.59375 0.1875 33.59375 0.09375 38.40625 0 
L 38.40625 2.59375 
L 35.40625 2.59375 
C 26.796875 2.59375 26.59375 3.6875 26.59375 7.296875 
z
" id="CMR17-49"/>
      </defs>
      <g transform="translate(170.360799 246.378498)scale(0.1 -0.1)">
       <use transform="scale(0.996264)" xlink:href="#CMR17-49"/>
       <use transform="translate(45.690477 0)scale(0.996264)" xlink:href="#CMR17-48"/>
       <use transform="translate(91.380954 0)scale(0.996264)" xlink:href="#CMR17-48"/>
       <use transform="translate(137.071431 0)scale(0.996264)" xlink:href="#CMR17-48"/>
      </g>
     </g>
    </g>
    <g id="xtick_4">
     <g id="line2d_7">
      <path clip-path="url(#pad512acd03)" d="M 236.728887 232.46 
L 236.728887 10.7 
" style="fill:none;stroke:#b0b0b0;stroke-dasharray:0.8,1.32;stroke-dashoffset:0;stroke-width:0.8;"/>
     </g>
     <g id="line2d_8">
      <g>
       <use style="stroke:#000000;stroke-width:0.8;" x="236.728887" xlink:href="#m943bc8ff4b" y="232.46"/>
      </g>
     </g>
     <g id="text_4">
      <!-- $1500$ -->
      <g transform="translate(226.766217 246.378498)scale(0.1 -0.1)">
       <use transform="scale(0.996264)" xlink:href="#CMR17-49"/>
       <use transform="translate(45.690477 0)scale(0.996264)" xlink:href="#CMR17-53"/>
       <use transform="translate(91.380954 0)scale(0.996264)" xlink:href="#CMR17-48"/>
       <use transform="translate(137.071431 0)scale(0.996264)" xlink:href="#CMR17-48"/>
      </g>
     </g>
    </g>
    <g id="xtick_5">
     <g id="line2d_9">
      <path clip-path="url(#pad512acd03)" d="M 293.134306 232.46 
L 293.134306 10.7 
" style="fill:none;stroke:#b0b0b0;stroke-dasharray:0.8,1.32;stroke-dashoffset:0;stroke-width:0.8;"/>
     </g>
     <g id="line2d_10">
      <g>
       <use style="stroke:#000000;stroke-width:0.8;" x="293.134306" xlink:href="#m943bc8ff4b" y="232.46"/>
      </g>
     </g>
     <g id="text_5">
      <!-- $2000$ -->
      <defs>
       <path d="M 41.703125 15.46875 
L 39.90625 15.46875 
C 38.90625 8.390625 38.09375 7.1875 37.703125 6.59375 
C 37.203125 5.796875 30 5.796875 28.59375 5.796875 
L 9.40625 5.796875 
C 13 9.6875 20 16.765625 28.5 24.9375 
C 34.59375 30.71875 41.703125 37.5 41.703125 47.390625 
C 41.703125 59.1875 32.296875 66 21.796875 66 
C 10.796875 66 4.09375 56.296875 4.09375 47.296875 
C 4.09375 43.390625 7 42.890625 8.203125 42.890625 
C 9.203125 42.890625 12.203125 43.484375 12.203125 46.984375 
C 12.203125 50.09375 9.59375 51 8.203125 51 
C 7.59375 51 7 50.890625 6.59375 50.6875 
C 8.5 59.1875 14.296875 63.390625 20.40625 63.390625 
C 29.09375 63.390625 34.796875 56.5 34.796875 47.390625 
C 34.796875 38.703125 29.703125 31.21875 24 24.734375 
L 4.09375 2.296875 
L 4.09375 0 
L 39.296875 0 
z
" id="CMR17-50"/>
      </defs>
      <g transform="translate(283.171635 246.378498)scale(0.1 -0.1)">
       <use transform="scale(0.996264)" xlink:href="#CMR17-50"/>
       <use transform="translate(45.690477 0)scale(0.996264)" xlink:href="#CMR17-48"/>
       <use transform="translate(91.380954 0)scale(0.996264)" xlink:href="#CMR17-48"/>
       <use transform="translate(137.071431 0)scale(0.996264)" xlink:href="#CMR17-48"/>
      </g>
     </g>
    </g>
    <g id="xtick_6">
     <g id="line2d_11">
      <path clip-path="url(#pad512acd03)" d="M 349.539724 232.46 
L 349.539724 10.7 
" style="fill:none;stroke:#b0b0b0;stroke-dasharray:0.8,1.32;stroke-dashoffset:0;stroke-width:0.8;"/>
     </g>
     <g id="line2d_12">
      <g>
       <use style="stroke:#000000;stroke-width:0.8;" x="349.539724" xlink:href="#m943bc8ff4b" y="232.46"/>
      </g>
     </g>
     <g id="text_6">
      <!-- $2500$ -->
      <g transform="translate(339.577053 246.378498)scale(0.1 -0.1)">
       <use transform="scale(0.996264)" xlink:href="#CMR17-50"/>
       <use transform="translate(45.690477 0)scale(0.996264)" xlink:href="#CMR17-53"/>
       <use transform="translate(91.380954 0)scale(0.996264)" xlink:href="#CMR17-48"/>
       <use transform="translate(137.071431 0)scale(0.996264)" xlink:href="#CMR17-48"/>
      </g>
     </g>
    </g>
    <g id="text_7">
     <!-- iteration $k$ -->
     <defs>
      <path d="M 15.5 61.890625 
C 15.5 64.09375 13.703125 66 11.40625 66 
C 9.203125 66 7.296875 64.1875 7.296875 61.890625 
C 7.296875 59.6875 9.09375 57.796875 11.40625 57.796875 
C 13.59375 57.796875 15.5 59.59375 15.5 61.890625 
z
M 3.796875 42.890625 
L 3.796875 40.296875 
C 9.40625 40.296875 10.203125 39.6875 10.203125 34.859375 
L 10.203125 6.921875 
C 10.203125 3.09375 9.796875 2.59375 3.40625 2.59375 
L 3.40625 0 
C 5.796875 0.1875 10.09375 0.1875 12.59375 0.1875 
C 15 0.1875 19.09375 0.1875 21.40625 0 
L 21.40625 2.59375 
C 15.5 2.59375 15.296875 3.203125 15.296875 6.8125 
L 15.296875 44 
z
" id="CMR17-105"/>
      <path d="M 15.09375 40.390625 
L 29.09375 40.390625 
L 29.09375 43 
L 15.09375 43 
L 15.09375 62 
L 13.296875 62 
C 13.09375 51.4375 9.59375 42.1875 1.09375 41.984375 
L 1.09375 40.390625 
L 9.796875 40.390625 
L 9.796875 12.15625 
C 9.796875 10.234375 9.796875 -1 21.40625 -1 
C 27.296875 -1 30.703125 4.8125 30.703125 12.25 
L 30.703125 17.984375 
L 28.90625 17.984375 
L 28.90625 12.34375 
C 28.90625 5.421875 26.203125 0.796875 22 0.796875 
C 19.09375 0.796875 15.09375 2.796875 15.09375 11.953125 
z
" id="CMR17-116"/>
      <path d="M 38.09375 23.484375 
C 38.5 23.890625 38.5 24.09375 38.5 25.09375 
C 38.5 35.171875 33.09375 44 21.703125 44 
C 11.09375 44 2.703125 33.984375 2.703125 21.78125 
C 2.703125 8.65625 12.203125 -1 22.796875 -1 
C 34 -1 38.40625 9.671875 38.40625 11.796875 
C 38.40625 12.5 37.796875 12.5 37.59375 12.5 
C 36.90625 12.5 36.796875 12.296875 36.40625 11.078125 
C 34.203125 4.21875 28.703125 0.796875 23.5 0.796875 
C 19.203125 0.796875 14.90625 3.21875 12.203125 7.65625 
C 9.09375 12.796875 9.09375 18.75 9.09375 23.484375 
z
M 9.203125 25 
C 9.90625 39.234375 17.59375 42.390625 21.59375 42.390625 
C 28.40625 42.390625 33 36.0625 33.09375 25 
z
" id="CMR17-101"/>
      <path d="M 15 23.703125 
C 15 33.34375 19.09375 42.390625 26.59375 42.390625 
C 27.296875 42.390625 28 42.296875 28.703125 41.984375 
C 28.703125 41.984375 26.5 41.28125 26.5 38.671875 
C 26.5 36.265625 28.40625 35.265625 29.90625 35.265625 
C 31.09375 35.265625 33.296875 35.96875 33.296875 38.78125 
C 33.296875 41.984375 30.09375 44 26.703125 44 
C 19.09375 44 15.796875 36.5625 14.796875 33.046875 
L 14.703125 33.046875 
L 14.703125 44 
L 3.09375 42.890625 
L 3.09375 40.28125 
C 9 40.28125 9.90625 39.6875 9.90625 34.859375 
L 9.90625 6.921875 
C 9.90625 3.09375 9.5 2.59375 3.09375 2.59375 
L 3.09375 0 
C 5.5 0.1875 10.09375 0.1875 12.703125 0.1875 
C 15.59375 0.1875 20.703125 0.1875 23.40625 0 
L 23.40625 2.59375 
C 16.203125 2.59375 15 2.59375 15 7.109375 
z
" id="CMR17-114"/>
      <path d="M 36 25.875 
C 36 32 36 35.546875 31.796875 39.59375 
C 28.09375 42.984375 23.796875 44 20.40625 44 
C 12.5 44 6.796875 37.625 6.796875 30.890625 
C 6.796875 27.1875 9.796875 27 10.40625 27 
C 11.703125 27 14 27.796875 14 30.59375 
C 14 33.09375 12.09375 34.1875 10.40625 34.1875 
C 10 34.1875 9.5 34.09375 9.203125 34 
C 11.296875 40.53125 16.703125 42.390625 20.203125 42.390625 
C 25.203125 42.390625 30.703125 37.828125 30.703125 29.296875 
L 30.703125 25.5 
C 24.796875 25.296875 17.703125 24.5 12.09375 21.453125 
C 5.796875 17.921875 4 12.84375 4 9 
C 4 1.203125 13 -1 18.296875 -1 
C 23.796875 -1 28.90625 2.109375 31.09375 7.890625 
C 31.296875 3.421875 34.09375 -0.609375 38.5 -0.609375 
C 40.59375 -0.609375 45.90625 0.796875 45.90625 8.796875 
L 45.90625 14.46875 
L 44.09375 14.46875 
L 44.09375 8.703125 
C 44.09375 2.515625 41.40625 1.703125 40.09375 1.703125 
C 36 1.703125 36 6.96875 36 11.4375 
z
M 30.703125 13.859375 
C 30.703125 5.046875 24.5 0.59375 19 0.59375 
C 14 0.59375 10.09375 4.34375 10.09375 9 
C 10.09375 12.046875 11.40625 17.40625 17.203125 20.65625 
C 22 23.390625 27.5 23.796875 30.703125 24 
z
" id="CMR17-97"/>
      <path d="M 43.09375 21.1875 
C 43.09375 34 33.796875 44 22.90625 44 
C 12 44 2.703125 34 2.703125 21.1875 
C 2.703125 8.59375 12 -1 22.90625 -1 
C 33.796875 -1 43.09375 8.59375 43.09375 21.1875 
z
M 22.90625 0.796875 
C 18.203125 0.796875 14.203125 3.59375 11.90625 7.5 
C 9.40625 12 9.09375 17.59375 9.09375 22 
C 9.09375 26.1875 9.296875 31.390625 11.90625 35.890625 
C 13.90625 39.1875 17.796875 42.390625 22.90625 42.390625 
C 27.40625 42.390625 31.203125 39.890625 33.59375 36.390625 
C 36.703125 31.6875 36.703125 25.09375 36.703125 22 
C 36.703125 18.09375 36.5 12.09375 33.796875 7.296875 
C 31 2.6875 26.703125 0.796875 22.90625 0.796875 
z
" id="CMR17-111"/>
      <path d="M 41.5 30.53125 
C 41.5 35.65625 40.5 44 28.703125 44 
C 20.796875 44 16.703125 37.875 15.203125 33.84375 
L 15.09375 33.84375 
L 15.09375 44 
L 3.296875 42.890625 
L 3.296875 40.28125 
C 9.203125 40.28125 10.09375 39.6875 10.09375 34.859375 
L 10.09375 6.921875 
C 10.09375 3.09375 9.703125 2.59375 3.296875 2.59375 
L 3.296875 0 
C 5.703125 0.1875 10.09375 0.1875 12.703125 0.1875 
C 15.296875 0.1875 19.796875 0.1875 22.203125 0 
L 22.203125 2.59375 
C 15.796875 2.59375 15.40625 3 15.40625 6.921875 
L 15.40625 26.21875 
C 15.40625 35.453125 21 42.390625 28 42.390625 
C 35.40625 42.390625 36.203125 35.765625 36.203125 30.9375 
L 36.203125 6.921875 
C 36.203125 3.09375 35.796875 2.59375 29.40625 2.59375 
L 29.40625 0 
C 31.796875 0.1875 36.203125 0.1875 38.796875 0.1875 
C 41.40625 0.1875 45.90625 0.1875 48.296875 0 
L 48.296875 2.59375 
C 41.90625 2.59375 41.5 3 41.5 6.921875 
z
" id="CMR17-110"/>
      <path d="M 28.09375 66.484375 
C 28.203125 66.890625 28.40625 67.484375 28.40625 67.984375 
C 28.40625 69 27.40625 69 27.203125 69 
C 27.09375 69 23.5 68.6875 21.703125 68.484375 
C 20 68.390625 18.5 68.1875 16.703125 68.09375 
C 14.296875 67.890625 13.59375 67.796875 13.59375 65.984375 
C 13.59375 64.984375 14.59375 64.984375 15.59375 64.984375 
C 20.703125 64.984375 20.703125 64.109375 20.703125 63.125 
C 20.703125 62.71875 20.703125 62.53125 20.203125 60.75 
L 5.90625 3.90625 
C 5.5 2.390625 5.5 2.203125 5.5 1.59375 
C 5.5 -0.609375 7.203125 -1 8.203125 -1 
C 11 -1 11.59375 1.1875 12.40625 4.296875 
L 17.09375 23.0625 
C 24.296875 22.265625 28.59375 19.25 28.59375 14.4375 
C 28.59375 13.828125 28.59375 13.4375 28.296875 11.921875 
C 27.90625 10.421875 27.90625 9.21875 27.90625 8.71875 
C 27.90625 2.890625 31.703125 -1 36.796875 -1 
C 41.40625 -1 43.796875 3.203125 44.59375 4.609375 
C 46.703125 8.3125 48 13.9375 48 14.328125 
C 48 14.828125 47.59375 15.234375 47 15.234375 
C 46.09375 15.234375 46 14.828125 45.59375 13.234375 
C 44.203125 8.015625 42.09375 1 37 1 
C 35 1 33.703125 2 33.703125 5.8125 
C 33.703125 7.71875 34.09375 9.921875 34.5 11.421875 
C 34.90625 13.234375 34.90625 13.328125 34.90625 14.53125 
C 34.90625 20.453125 29.59375 23.765625 20.40625 24.96875 
C 24 27.171875 27.59375 31.078125 29 32.59375 
C 34.703125 38.984375 38.59375 41.984375 43.203125 41.984375 
C 45.5 41.984375 46.09375 41.484375 46.796875 41 
C 43.09375 40.59375 41.703125 37.984375 41.703125 35.984375 
C 41.703125 33.59375 43.59375 32.796875 45 32.796875 
C 47.703125 32.796875 50.09375 35.09375 50.09375 38.296875 
C 50.09375 41.15625 47.796875 44 43.296875 44 
C 37.796875 44 33.296875 40.296875 26.203125 32.296875 
C 25.203125 31.078125 21.5 27.28125 17.796875 25.875 
z
" id="CMMI12-107"/>
     </defs>
     <g transform="translate(196.885256 259.234175)scale(0.1 -0.1)">
      <use transform="scale(0.996264)" xlink:href="#CMR17-105"/>
      <use transform="translate(24.871058 0)scale(0.996264)" xlink:href="#CMR17-116"/>
      <use transform="translate(60.151826 0)scale(0.996264)" xlink:href="#CMR17-101"/>
      <use transform="translate(100.637487 0)scale(0.996264)" xlink:href="#CMR17-114"/>
      <use transform="translate(135.918255 0)scale(0.996264)" xlink:href="#CMR17-97"/>
      <use transform="translate(181.608732 0)scale(0.996264)" xlink:href="#CMR17-116"/>
      <use transform="translate(216.889499 0)scale(0.996264)" xlink:href="#CMR17-105"/>
      <use transform="translate(241.760558 0)scale(0.996264)" xlink:href="#CMR17-111"/>
      <use transform="translate(287.451035 0)scale(0.996264)" xlink:href="#CMR17-110"/>
      <use transform="translate(368.422371 0)scale(0.996264)" xlink:href="#CMMI12-107"/>
     </g>
    </g>
   </g>
   <g id="matplotlib.axis_2">
    <g id="ytick_1">
     <g id="line2d_13">
      <path clip-path="url(#pad512acd03)" d="M 52.294451 232.46 
L 387.094451 232.46 
" style="fill:none;stroke:#b0b0b0;stroke-dasharray:0.8,1.32;stroke-dashoffset:0;stroke-width:0.8;"/>
     </g>
     <g id="line2d_14">
      <defs>
       <path d="M 0 0 
L -3.5 0 
" id="mb636645518" style="stroke:#000000;stroke-width:0.8;"/>
      </defs>
      <g>
       <use style="stroke:#000000;stroke-width:0.8;" x="52.294451" xlink:href="#mb636645518" y="232.46"/>
      </g>
     </g>
     <g id="text_8">
      <!-- $10^{-16}$ -->
      <defs>
       <path d="M 65.90625 23 
C 67.59375 23 69.40625 23 69.40625 25 
C 69.40625 27 67.59375 27 65.90625 27 
L 11.796875 27 
C 10.09375 27 8.296875 27 8.296875 25 
C 8.296875 23 10.09375 23 11.796875 23 
z
" id="CMSY10-0"/>
       <path d="M 10.59375 34.34375 
C 10.59375 58 21.796875 63.6875 28.296875 63.6875 
C 30.40625 63.6875 35.5 63.265625 37.5 59.09375 
C 35.90625 59.09375 32.90625 59.09375 32.90625 55.59375 
C 32.90625 52.890625 35.09375 52 36.5 52 
C 37.40625 52 40.09375 52.390625 40.09375 55.796875 
C 40.09375 62.296875 35.09375 66 28.203125 66 
C 16.296875 66 3.796875 53.296875 3.796875 31.421875 
C 3.796875 4.015625 15.09375 -2 23.09375 -2 
C 32.796875 -2 42 6.734375 42 20.234375 
C 42 32.828125 33.90625 42 23.703125 42 
C 17.59375 42 13.09375 37.96875 10.59375 30.921875 
z
M 23.09375 0.390625 
C 10.796875 0.390625 10.796875 18.9375 10.796875 22.65625 
C 10.796875 29.90625 14.203125 40.390625 23.5 40.390625 
C 25.203125 40.390625 30.09375 40.390625 33.40625 33.4375 
C 35.203125 29.515625 35.203125 25.375 35.203125 20.34375 
C 35.203125 14.90625 35.203125 10.875 33.09375 6.84375 
C 30.90625 2.703125 27.703125 0.390625 23.09375 0.390625 
z
" id="CMR17-54"/>
      </defs>
      <g transform="translate(21.16264 235.919249)scale(0.1 -0.1)">
       <use transform="scale(0.996264)" xlink:href="#CMR17-49"/>
       <use transform="translate(45.690477 0)scale(0.996264)" xlink:href="#CMR17-48"/>
       <use transform="translate(91.380954 36.153639)scale(0.697382)" xlink:href="#CMSY10-0"/>
       <use transform="translate(145.621947 36.153639)scale(0.697382)" xlink:href="#CMR17-49"/>
       <use transform="translate(177.605129 36.153639)scale(0.697382)" xlink:href="#CMR17-54"/>
      </g>
     </g>
    </g>
    <g id="ytick_2">
     <g id="line2d_15">
      <path clip-path="url(#pad512acd03)" d="M 52.294451 205.900278 
L 387.094451 205.900278 
" style="fill:none;stroke:#b0b0b0;stroke-dasharray:0.8,1.32;stroke-dashoffset:0;stroke-width:0.8;"/>
     </g>
     <g id="line2d_16">
      <g>
       <use style="stroke:#000000;stroke-width:0.8;" x="52.294451" xlink:href="#mb636645518" y="205.900278"/>
      </g>
     </g>
     <g id="text_9">
      <!-- $10^{-14}$ -->
      <defs>
       <path d="M 33.59375 64.796875 
C 33.59375 66.890625 33.5 67 31.703125 67 
L 2 19.59375 
L 2 17 
L 27.796875 17 
L 27.796875 7.1875 
C 27.796875 3.59375 27.59375 2.59375 20.59375 2.59375 
L 18.703125 2.59375 
L 18.703125 0 
C 21.90625 0.1875 27.296875 0.1875 30.703125 0.1875 
C 34.09375 0.1875 39.5 0.1875 42.703125 0 
L 42.703125 2.59375 
L 40.796875 2.59375 
C 33.796875 2.59375 33.59375 3.59375 33.59375 7.1875 
L 33.59375 17 
L 43.796875 17 
L 43.796875 19.59375 
L 33.59375 19.59375 
z
M 28.09375 58.171875 
L 28.09375 19.59375 
L 4 19.59375 
z
" id="CMR17-52"/>
      </defs>
      <g transform="translate(21.16264 209.359527)scale(0.1 -0.1)">
       <use transform="scale(0.996264)" xlink:href="#CMR17-49"/>
       <use transform="translate(45.690477 0)scale(0.996264)" xlink:href="#CMR17-48"/>
       <use transform="translate(91.380954 36.153639)scale(0.697382)" xlink:href="#CMSY10-0"/>
       <use transform="translate(145.621947 36.153639)scale(0.697382)" xlink:href="#CMR17-49"/>
       <use transform="translate(177.605129 36.153639)scale(0.697382)" xlink:href="#CMR17-52"/>
      </g>
     </g>
    </g>
    <g id="ytick_3">
     <g id="line2d_17">
      <path clip-path="url(#pad512acd03)" d="M 52.294451 179.340556 
L 387.094451 179.340556 
" style="fill:none;stroke:#b0b0b0;stroke-dasharray:0.8,1.32;stroke-dashoffset:0;stroke-width:0.8;"/>
     </g>
     <g id="line2d_18">
      <g>
       <use style="stroke:#000000;stroke-width:0.8;" x="52.294451" xlink:href="#mb636645518" y="179.340556"/>
      </g>
     </g>
     <g id="text_10">
      <!-- $10^{-12}$ -->
      <g transform="translate(21.16264 182.799805)scale(0.1 -0.1)">
       <use transform="scale(0.996264)" xlink:href="#CMR17-49"/>
       <use transform="translate(45.690477 0)scale(0.996264)" xlink:href="#CMR17-48"/>
       <use transform="translate(91.380954 36.153639)scale(0.697382)" xlink:href="#CMSY10-0"/>
       <use transform="translate(145.621947 36.153639)scale(0.697382)" xlink:href="#CMR17-49"/>
       <use transform="translate(177.605129 36.153639)scale(0.697382)" xlink:href="#CMR17-50"/>
      </g>
     </g>
    </g>
    <g id="ytick_4">
     <g id="line2d_19">
      <path clip-path="url(#pad512acd03)" d="M 52.294451 152.780834 
L 387.094451 152.780834 
" style="fill:none;stroke:#b0b0b0;stroke-dasharray:0.8,1.32;stroke-dashoffset:0;stroke-width:0.8;"/>
     </g>
     <g id="line2d_20">
      <g>
       <use style="stroke:#000000;stroke-width:0.8;" x="52.294451" xlink:href="#mb636645518" y="152.780834"/>
      </g>
     </g>
     <g id="text_11">
      <!-- $10^{-10}$ -->
      <g transform="translate(21.16264 156.240083)scale(0.1 -0.1)">
       <use transform="scale(0.996264)" xlink:href="#CMR17-49"/>
       <use transform="translate(45.690477 0)scale(0.996264)" xlink:href="#CMR17-48"/>
       <use transform="translate(91.380954 36.153639)scale(0.697382)" xlink:href="#CMSY10-0"/>
       <use transform="translate(145.621947 36.153639)scale(0.697382)" xlink:href="#CMR17-49"/>
       <use transform="translate(177.605129 36.153639)scale(0.697382)" xlink:href="#CMR17-48"/>
      </g>
     </g>
    </g>
    <g id="ytick_5">
     <g id="line2d_21">
      <path clip-path="url(#pad512acd03)" d="M 52.294451 126.221112 
L 387.094451 126.221112 
" style="fill:none;stroke:#b0b0b0;stroke-dasharray:0.8,1.32;stroke-dashoffset:0;stroke-width:0.8;"/>
     </g>
     <g id="line2d_22">
      <g>
       <use style="stroke:#000000;stroke-width:0.8;" x="52.294451" xlink:href="#mb636645518" y="126.221112"/>
      </g>
     </g>
     <g id="text_12">
      <!-- $10^{-8}$ -->
      <defs>
       <path d="M 27.203125 35.765625 
C 33.5 38.96875 39.90625 43.796875 39.90625 51.53125 
C 39.90625 60.6875 31.09375 66 23 66 
C 13.90625 66 5.90625 59.375 5.90625 50.234375 
C 5.90625 47.71875 6.5 43.390625 10.40625 39.578125 
C 11.40625 38.578125 15.59375 35.5625 18.296875 33.65625 
C 13.796875 31.34375 3.296875 25.8125 3.296875 14.765625 
C 3.296875 4.40625 13.09375 -2 22.796875 -2 
C 33.5 -2 42.5 5.71875 42.5 15.96875 
C 42.5 25.109375 36.40625 29.328125 32.40625 32.046875 
z
M 14.09375 44.609375 
C 13.296875 45.109375 9.296875 48.21875 9.296875 52.9375 
C 9.296875 59.078125 15.59375 63.6875 22.796875 63.6875 
C 30.703125 63.6875 36.5 58.0625 36.5 51.53125 
C 36.5 42.1875 26.09375 36.859375 25.59375 36.859375 
C 25.5 36.859375 25.40625 36.859375 24.59375 37.46875 
z
M 32.5 24 
C 34 22.90625 38.796875 19.578125 38.796875 13.453125 
C 38.796875 6.015625 31.40625 0.390625 23 0.390625 
C 13.90625 0.390625 7 6.921875 7 14.859375 
C 7 22.796875 13.09375 29.4375 20 32.546875 
z
" id="CMR17-56"/>
      </defs>
      <g transform="translate(25.133878 129.680361)scale(0.1 -0.1)">
       <use transform="scale(0.996264)" xlink:href="#CMR17-49"/>
       <use transform="translate(45.690477 0)scale(0.996264)" xlink:href="#CMR17-48"/>
       <use transform="translate(91.380954 36.153639)scale(0.697382)" xlink:href="#CMSY10-0"/>
       <use transform="translate(145.621947 36.153639)scale(0.697382)" xlink:href="#CMR17-56"/>
      </g>
     </g>
    </g>
    <g id="ytick_6">
     <g id="line2d_23">
      <path clip-path="url(#pad512acd03)" d="M 52.294451 99.66139 
L 387.094451 99.66139 
" style="fill:none;stroke:#b0b0b0;stroke-dasharray:0.8,1.32;stroke-dashoffset:0;stroke-width:0.8;"/>
     </g>
     <g id="line2d_24">
      <g>
       <use style="stroke:#000000;stroke-width:0.8;" x="52.294451" xlink:href="#mb636645518" y="99.66139"/>
      </g>
     </g>
     <g id="text_13">
      <!-- $10^{-6}$ -->
      <g transform="translate(25.133878 103.120639)scale(0.1 -0.1)">
       <use transform="scale(0.996264)" xlink:href="#CMR17-49"/>
       <use transform="translate(45.690477 0)scale(0.996264)" xlink:href="#CMR17-48"/>
       <use transform="translate(91.380954 36.153639)scale(0.697382)" xlink:href="#CMSY10-0"/>
       <use transform="translate(145.621947 36.153639)scale(0.697382)" xlink:href="#CMR17-54"/>
      </g>
     </g>
    </g>
    <g id="ytick_7">
     <g id="line2d_25">
      <path clip-path="url(#pad512acd03)" d="M 52.294451 73.101668 
L 387.094451 73.101668 
" style="fill:none;stroke:#b0b0b0;stroke-dasharray:0.8,1.32;stroke-dashoffset:0;stroke-width:0.8;"/>
     </g>
     <g id="line2d_26">
      <g>
       <use style="stroke:#000000;stroke-width:0.8;" x="52.294451" xlink:href="#mb636645518" y="73.101668"/>
      </g>
     </g>
     <g id="text_14">
      <!-- $10^{-4}$ -->
      <g transform="translate(25.133878 76.560918)scale(0.1 -0.1)">
       <use transform="scale(0.996264)" xlink:href="#CMR17-49"/>
       <use transform="translate(45.690477 0)scale(0.996264)" xlink:href="#CMR17-48"/>
       <use transform="translate(91.380954 36.153639)scale(0.697382)" xlink:href="#CMSY10-0"/>
       <use transform="translate(145.621947 36.153639)scale(0.697382)" xlink:href="#CMR17-52"/>
      </g>
     </g>
    </g>
    <g id="ytick_8">
     <g id="line2d_27">
      <path clip-path="url(#pad512acd03)" d="M 52.294451 46.541946 
L 387.094451 46.541946 
" style="fill:none;stroke:#b0b0b0;stroke-dasharray:0.8,1.32;stroke-dashoffset:0;stroke-width:0.8;"/>
     </g>
     <g id="line2d_28">
      <g>
       <use style="stroke:#000000;stroke-width:0.8;" x="52.294451" xlink:href="#mb636645518" y="46.541946"/>
      </g>
     </g>
     <g id="text_15">
      <!-- $10^{-2}$ -->
      <g transform="translate(25.133878 50.001196)scale(0.1 -0.1)">
       <use transform="scale(0.996264)" xlink:href="#CMR17-49"/>
       <use transform="translate(45.690477 0)scale(0.996264)" xlink:href="#CMR17-48"/>
       <use transform="translate(91.380954 36.153639)scale(0.697382)" xlink:href="#CMSY10-0"/>
       <use transform="translate(145.621947 36.153639)scale(0.697382)" xlink:href="#CMR17-50"/>
      </g>
     </g>
    </g>
    <g id="ytick_9">
     <g id="line2d_29">
      <path clip-path="url(#pad512acd03)" d="M 52.294451 19.982224 
L 387.094451 19.982224 
" style="fill:none;stroke:#b0b0b0;stroke-dasharray:0.8,1.32;stroke-dashoffset:0;stroke-width:0.8;"/>
     </g>
     <g id="line2d_30">
      <g>
       <use style="stroke:#000000;stroke-width:0.8;" x="52.294451" xlink:href="#mb636645518" y="19.982224"/>
      </g>
     </g>
     <g id="text_16">
      <!-- $10^{0}$ -->
      <g transform="translate(31.360543 23.441474)scale(0.1 -0.1)">
       <use transform="scale(0.996264)" xlink:href="#CMR17-49"/>
       <use transform="translate(45.690477 0)scale(0.996264)" xlink:href="#CMR17-48"/>
       <use transform="translate(91.380954 36.153639)scale(0.697382)" xlink:href="#CMR17-48"/>
      </g>
     </g>
    </g>
    <g id="text_17">
     <!-- $\mathbf{A}$-norm of error: $\| \mathbf{x}-\mathbf{x}_k \|_\mathbf{A}$ -->
     <defs>
      <path d="M 45.796875 67.703125 
C 45.09375 69.5 44.90625 70 42.5 70 
C 40 70 39.796875 69.5 39.09375 67.703125 
L 14.296875 6.703125 
C 13.59375 5.09375 13.59375 4.890625 10.796875 4.59375 
C 8.296875 4.296875 7.90625 4.296875 5.703125 4.296875 
L 3.90625 4.296875 
L 3.90625 0 
C 6.5 0.1875 12.5 0.1875 15.40625 0.1875 
C 18.09375 0.1875 25.40625 0.1875 27.703125 0 
L 27.703125 4.296875 
C 25.5 4.296875 21.703125 4.296875 18.90625 5.40625 
C 19.203125 6.3125 19.203125 6.5 19.40625 6.90625 
L 24.703125 20 
L 51.5 20 
L 57.796875 4.296875 
L 48.40625 4.296875 
L 48.40625 0 
C 51.59375 0.1875 61.296875 0.1875 65.09375 0.1875 
C 68.296875 0.1875 78.5 0.1875 81 0 
L 81 4.296875 
L 71.5 4.296875 
z
M 38.09375 53.03125 
L 49.703125 24.296875 
L 26.40625 24.296875 
z
" id="CMBX12-65"/>
      <path d="M 25.5 19.59375 
L 25.5 24 
L 0.40625 24 
L 0.40625 19.59375 
z
" id="CMR17-45"/>
      <path d="M 67.59375 30.53125 
C 67.59375 35.5625 66.703125 44 54.796875 44 
C 48 44 43.296875 39.375 41.5 33.953125 
L 41.40625 33.953125 
C 40.203125 42.1875 34.296875 44 28.703125 44 
C 20.796875 44 16.703125 37.875 15.203125 33.84375 
L 15.09375 33.84375 
L 15.09375 44 
L 3.296875 42.890625 
L 3.296875 40.28125 
C 9.203125 40.28125 10.09375 39.6875 10.09375 34.859375 
L 10.09375 6.921875 
C 10.09375 3.09375 9.703125 2.59375 3.296875 2.59375 
L 3.296875 0 
C 5.703125 0.1875 10.09375 0.1875 12.703125 0.1875 
C 15.296875 0.1875 19.796875 0.1875 22.203125 0 
L 22.203125 2.59375 
C 15.796875 2.59375 15.40625 3 15.40625 6.921875 
L 15.40625 26.21875 
C 15.40625 35.453125 21 42.390625 28 42.390625 
C 35.40625 42.390625 36.203125 35.765625 36.203125 30.9375 
L 36.203125 6.921875 
C 36.203125 3.09375 35.796875 2.59375 29.40625 2.59375 
L 29.40625 0 
C 31.796875 0.1875 36.203125 0.1875 38.796875 0.1875 
C 41.40625 0.1875 45.90625 0.1875 48.296875 0 
L 48.296875 2.59375 
C 41.90625 2.59375 41.5 3 41.5 6.921875 
L 41.5 26.21875 
C 41.5 35.453125 47.09375 42.390625 54.09375 42.390625 
C 61.5 42.390625 62.296875 35.765625 62.296875 30.9375 
L 62.296875 6.921875 
C 62.296875 3.09375 61.90625 2.59375 55.5 2.59375 
L 55.5 0 
C 57.90625 0.1875 62.296875 0.1875 64.90625 0.1875 
C 67.5 0.1875 72 0.1875 74.40625 0 
L 74.40625 2.59375 
C 68 2.59375 67.59375 3 67.59375 6.921875 
z
" id="CMR17-109"/>
      <path d="M 15.296875 40.390625 
L 26.703125 40.390625 
L 26.703125 43 
L 15.09375 43 
L 15.09375 55.296875 
C 15.09375 63.6875 19.296875 68.390625 23.59375 68.390625 
C 24.90625 68.390625 26.40625 68.171875 27.40625 67.796875 
C 26.59375 67.59375 24.5 66.890625 24.5 64.390625 
C 24.5 61.796875 26.5 61 27.90625 61 
C 29.296875 61 31.296875 61.796875 31.296875 64.390625 
C 31.296875 68.015625 27.703125 70 23.703125 70 
C 18 70 10.203125 65.796875 10.203125 55.09375 
L 10.203125 43 
L 2.203125 43 
L 2.203125 40.390625 
L 10.203125 40.390625 
L 10.203125 6.890625 
C 10.203125 3.09375 9.796875 2.59375 3.40625 2.59375 
L 3.40625 0 
C 5.796875 0.1875 10.40625 0.1875 13 0.1875 
C 15.90625 0.1875 21 0.1875 23.703125 0 
L 23.703125 2.59375 
C 16.5 2.59375 15.296875 2.59375 15.296875 7.09375 
z
" id="CMR17-102"/>
      <path d="M 16.59375 38.890625 
C 16.59375 41.390625 14.59375 43 12.5 43 
C 10.5 43 8.40625 41.390625 8.40625 38.890625 
C 8.40625 36.390625 10.40625 34.796875 12.5 34.796875 
C 14.5 34.796875 16.59375 36.390625 16.59375 38.890625 
z
M 16.59375 4.09375 
C 16.59375 6.59375 14.59375 8.1875 12.5 8.1875 
C 10.5 8.1875 8.40625 6.59375 8.40625 4.09375 
C 8.40625 1.59375 10.40625 0 12.5 0 
C 14.5 0 16.59375 1.59375 16.59375 4.09375 
z
" id="CMR17-58"/>
      <path d="M 17.203125 71.59375 
C 17.203125 73.1875 17.203125 75 15.203125 75 
C 13.203125 75 13.203125 72.796875 13.203125 71.296875 
L 13.203125 -21.3125 
C 13.203125 -22.90625 13.203125 -25 15.203125 -25 
C 17.203125 -25 17.203125 -23.203125 17.203125 -21.609375 
z
M 36.703125 71.296875 
C 36.703125 72.890625 36.703125 75 34.703125 75 
C 32.703125 75 32.703125 73.1875 32.703125 71.59375 
L 32.703125 -21.609375 
C 32.703125 -23.203125 32.703125 -25 34.703125 -25 
C 36.703125 -25 36.703125 -22.8125 36.703125 -21.3125 
z
" id="CMSY10-107"/>
      <path d="M 33.703125 24.46875 
L 45.296875 37.609375 
C 46.40625 38.90625 47.296875 39.6875 55.59375 39.6875 
L 55.59375 44 
C 50 43.796875 49.796875 43.796875 46.40625 43.796875 
C 43.5 43.796875 39.203125 43.796875 36.40625 44 
L 36.40625 39.6875 
C 38.296875 39.6875 40.40625 39.203125 40.40625 38.5 
C 40.40625 38.3125 39.90625 37.609375 39.703125 37.421875 
L 31 27.71875 
L 21.09375 39.6875 
L 25.296875 39.6875 
L 25.296875 44 
C 23 43.796875 16.203125 43.796875 13.5 43.796875 
C 10.5 43.796875 5.09375 43.796875 2.296875 44 
L 2.296875 39.6875 
L 9.40625 39.6875 
L 25 20.90625 
L 12 6.375 
C 10.796875 4.984375 10.09375 4.296875 1.796875 4.296875 
L 1.796875 0 
C 7.796875 0.1875 8 0.1875 11.09375 0.1875 
C 14 0.1875 18.203125 0.1875 21 0 
L 21 4.296875 
C 19.09375 4.296875 17 4.78125 17 5.484375 
C 17 5.578125 17 5.671875 17.703125 6.46875 
L 27.703125 17.640625 
L 38.796875 4.296875 
L 34.59375 4.296875 
L 34.59375 0 
C 37 0.1875 43.703125 0.1875 46.5 0.1875 
C 49.5 0.1875 54.796875 0.1875 57.59375 0 
L 57.59375 4.296875 
L 50.59375 4.296875 
z
" id="CMBX12-120"/>
     </defs>
     <g transform="translate(15.225462 183.362537)rotate(-90)scale(0.1 -0.1)">
      <use transform="translate(0 14.943915)scale(0.996264)" xlink:href="#CMBX12-65"/>
      <use transform="translate(84.636395 14.943915)scale(0.996264)" xlink:href="#CMR17-45"/>
      <use transform="translate(114.712361 14.943915)scale(0.996264)" xlink:href="#CMR17-110"/>
      <use transform="translate(165.607731 14.943915)scale(0.996264)" xlink:href="#CMR17-111"/>
      <use transform="translate(211.298208 14.943915)scale(0.996264)" xlink:href="#CMR17-114"/>
      <use transform="translate(246.578976 14.943915)scale(0.996264)" xlink:href="#CMR17-109"/>
      <use transform="translate(353.574532 14.943915)scale(0.996264)" xlink:href="#CMR17-111"/>
      <use transform="translate(399.265009 14.943915)scale(0.996264)" xlink:href="#CMR17-102"/>
      <use transform="translate(456.814488 14.943915)scale(0.996264)" xlink:href="#CMR17-101"/>
      <use transform="translate(497.300148 14.943915)scale(0.996264)" xlink:href="#CMR17-114"/>
      <use transform="translate(532.580916 14.943915)scale(0.996264)" xlink:href="#CMR17-114"/>
      <use transform="translate(567.861684 14.943915)scale(0.996264)" xlink:href="#CMR17-111"/>
      <use transform="translate(613.552161 14.943915)scale(0.996264)" xlink:href="#CMR17-114"/>
      <use transform="translate(648.832929 14.943915)scale(0.996264)" xlink:href="#CMR17-58"/>
      <use transform="translate(714.189648 14.943915)scale(0.996264)" xlink:href="#CMSY10-107"/>
      <use transform="translate(764.003031 14.943915)scale(0.996264)" xlink:href="#CMBX12-120"/>
      <use transform="translate(845.295413 14.943915)scale(0.996264)" xlink:href="#CMSY10-0"/>
      <use transform="translate(944.922088 14.943915)scale(0.996264)" xlink:href="#CMBX12-120"/>
      <use transform="translate(1004.075263 0)scale(0.697382)" xlink:href="#CMMI12-107"/>
      <use transform="translate(1042.428646 14.943915)scale(0.996264)" xlink:href="#CMSY10-107"/>
      <use transform="translate(1092.242029 0)scale(0.697382)" xlink:href="#CMBX12-65"/>
     </g>
    </g>
   </g>
   <g id="line2d_31">
    <path clip-path="url(#pad512acd03)" d="M 67.512633 19.982224 
L 67.738255 29.752574 
L 68.189498 36.704879 
L 68.866363 42.214652 
L 69.317606 45.029189 
L 69.76885 47.131453 
L 70.896958 50.803123 
L 72.025066 53.374117 
L 72.701931 54.463775 
L 74.281283 56.695229 
L 75.409391 57.69935 
L 77.214365 59.015618 
L 85.562367 63.871089 
L 88.495448 65.198759 
L 92.78226 66.868584 
L 93.910369 67.447099 
L 96.166585 68.619741 
L 99.55091 70.439623 
L 102.483992 71.655455 
L 109.478264 75.60269 
L 113.539454 78.109165 
L 114.893184 78.681292 
L 117.149401 79.432991 
L 120.984969 80.831132 
L 124.820538 83.573258 
L 126.851133 85.377792 
L 128.656106 86.993522 
L 130.009836 87.971828 
L 132.266053 89.306434 
L 133.394161 89.77787 
L 136.327243 90.896912 
L 139.485946 92.271133 
L 141.967785 93.441204 
L 143.99838 94.405499 
L 147.157083 95.872471 
L 148.962057 96.560727 
L 155.053842 98.862597 
L 158.663789 100.327198 
L 165.206817 102.589235 
L 166.786169 103.508439 
L 169.944872 105.494555 
L 172.426711 107.867822 
L 173.780441 109.200817 
L 174.908549 110.542313 
L 176.713522 112.149931 
L 177.841631 113.038121 
L 178.969739 113.927052 
L 180.549091 115.334213 
L 181.451578 116.09876 
L 183.482173 117.562789 
L 189.799579 121.038027 
L 194.312013 122.903259 
L 195.665743 123.390041 
L 208.074935 127.784646 
L 210.782395 128.589529 
L 214.16672 130.27292 
L 220.032884 134.034419 
L 224.094074 136.259306 
L 225.899047 137.448113 
L 227.027155 138.426871 
L 228.155264 139.356939 
L 230.185859 140.930854 
L 233.118941 143.680209 
L 234.247049 144.60329 
L 237.405752 147.108726 
L 240.564456 149.142182 
L 244.174403 150.54586 
L 248.235593 151.948183 
L 250.266188 152.791034 
L 251.619918 153.402394 
L 253.199269 154.23511 
L 255.004243 155.531946 
L 257.034838 156.945749 
L 264.931596 161.342917 
L 273.053977 166.753892 
L 275.310193 167.859878 
L 278.468897 169.591248 
L 281.853222 171.556067 
L 282.755709 172.120644 
L 283.883817 172.983853 
L 285.463169 174.368915 
L 288.621872 177.358132 
L 289.975602 178.470117 
L 292.908684 180.398164 
L 296.518631 182.686766 
L 299.677334 185.130024 
L 301.256686 186.58071 
L 304.641011 189.230308 
L 308.702201 191.647213 
L 311.860904 193.181115 
L 315.245229 195.447488 
L 316.824581 196.735308 
L 318.403933 198.406737 
L 319.080798 199.105935 
L 320.66015 200.686965 
L 321.788258 201.542622 
L 327.880043 206.082971 
L 329.459395 207.358256 
L 332.84372 209.433388 
L 335.776802 210.821642 
L 339.386748 212.525411 
L 340.740478 212.895501 
L 343.447939 213.264954 
L 345.929777 213.371209 
L 352.698427 213.48536 
L 371.876269 213.500437 
L 371.876269 213.500437 
" style="fill:none;stroke:#93a1a1;stroke-linecap:square;stroke-width:1.5;"/>
    <defs>
     <path d="M 0 3 
C 0.795609 3 1.55874 2.683901 2.12132 2.12132 
C 2.683901 1.55874 3 0.795609 3 0 
C 3 -0.795609 2.683901 -1.55874 2.12132 -2.12132 
C 1.55874 -2.683901 0.795609 -3 0 -3 
C -0.795609 -3 -1.55874 -2.683901 -2.12132 -2.12132 
C -2.683901 -1.55874 -3 -0.795609 -3 0 
C -3 0.795609 -2.683901 1.55874 -2.12132 2.12132 
C -1.55874 2.683901 -0.795609 3 0 3 
z
" id="m769cbc1868" style="stroke:#93a1a1;"/>
    </defs>
    <g clip-path="url(#pad512acd03)">
     <use style="fill:#93a1a1;stroke:#93a1a1;" x="67.512633" xlink:href="#m769cbc1868" y="19.982224"/>
     <use style="fill:#93a1a1;stroke:#93a1a1;" x="128.430485" xlink:href="#m769cbc1868" y="86.778191"/>
     <use style="fill:#93a1a1;stroke:#93a1a1;" x="189.348336" xlink:href="#m769cbc1868" y="120.850071"/>
     <use style="fill:#93a1a1;stroke:#93a1a1;" x="250.266188" xlink:href="#m769cbc1868" y="152.791034"/>
     <use style="fill:#93a1a1;stroke:#93a1a1;" x="311.184039" xlink:href="#m769cbc1868" y="192.847261"/>
    </g>
   </g>
   <g id="line2d_32">
    <path clip-path="url(#pad512acd03)" d="M 67.512633 19.982224 
L 67.738255 29.752574 
L 68.189498 36.704879 
L 68.866363 42.214652 
L 69.317606 45.029189 
L 69.76885 47.131453 
L 70.896958 50.803123 
L 72.025066 53.374117 
L 72.701931 54.463775 
L 74.281283 56.688795 
L 75.18377 57.508369 
L 77.214365 59.012716 
L 83.983015 62.990195 
L 85.111123 63.657452 
L 89.172313 65.425604 
L 90.977287 66.049113 
L 92.556639 66.7314 
L 94.13599 67.550809 
L 95.48972 68.245499 
L 97.971559 69.648984 
L 98.874045 70.125461 
L 101.807127 71.338862 
L 103.612101 72.270979 
L 105.191452 73.104546 
L 109.252642 75.428327 
L 111.057616 76.567038 
L 112.862589 77.637516 
L 113.990697 78.319161 
L 116.021293 79.081405 
L 119.179996 80.03664 
L 120.984969 80.84098 
L 124.594916 83.344275 
L 126.625511 85.135381 
L 128.204863 86.525917 
L 129.784215 87.764126 
L 132.266053 89.269022 
L 133.394161 89.759974 
L 137.680973 91.41656 
L 139.485946 92.252724 
L 141.065298 92.996094 
L 146.70584 95.621332 
L 149.638922 96.777979 
L 152.346382 97.739463 
L 154.151355 98.432678 
L 156.18195 99.286056 
L 159.566275 100.564894 
L 165.206817 102.527935 
L 166.560547 103.291106 
L 170.170494 105.59164 
L 174.231684 109.58455 
L 176.487901 111.933918 
L 179.420983 114.156246 
L 180.323469 114.938406 
L 182.128443 116.507498 
L 184.159038 117.890455 
L 187.317741 119.650711 
L 189.122714 120.679959 
L 195.2145 123.206106 
L 198.373203 124.26054 
L 206.495583 127.305373 
L 210.556773 128.413761 
L 212.81299 129.430076 
L 213.941098 130.067075 
L 216.422937 131.566209 
L 219.130397 133.498277 
L 220.484127 134.180021 
L 222.2891 135.1354 
L 226.575912 137.864712 
L 227.929642 139.053515 
L 229.734616 140.487912 
L 231.313967 141.84531 
L 235.600779 145.56916 
L 237.405752 146.932375 
L 238.533861 147.806314 
L 240.338834 148.946199 
L 241.918186 149.666784 
L 251.394296 153.213097 
L 252.973648 154.032146 
L 255.229865 155.586966 
L 257.937325 157.375991 
L 261.772893 159.432574 
L 263.577866 160.408521 
L 270.346517 164.853555 
L 271.474625 165.741082 
L 273.730842 166.972692 
L 275.310193 167.754641 
L 277.115167 168.703311 
L 278.017653 169.193217 
L 284.33506 173.16441 
L 290.652467 178.81952 
L 293.811171 180.792976 
L 295.390522 181.688847 
L 296.518631 182.487827 
L 298.097982 183.607441 
L 299.226091 184.445621 
L 300.128577 185.298376 
L 304.866633 189.209149 
L 309.379066 191.835488 
L 311.184039 192.713135 
L 312.763391 193.576142 
L 315.019608 195.056055 
L 315.922094 195.715467 
L 317.050203 196.7165 
L 319.532041 199.229315 
L 322.239501 201.70598 
L 325.623826 204.101338 
L 326.977556 205.081145 
L 331.038747 208.172023 
L 334.874315 210.239106 
L 339.837992 212.365013 
L 341.642965 212.718824 
L 343.899182 212.915171 
L 347.057885 213.006651 
L 361.497672 213.09736 
L 371.876269 213.100144 
L 371.876269 213.100144 
" style="fill:none;stroke:#93a1a1;stroke-linecap:square;stroke-width:1.5;"/>
    <defs>
     <path d="M 0 -3 
L -3 3 
L 3 3 
z
" id="m07baf60107" style="stroke:#93a1a1;stroke-linejoin:miter;"/>
    </defs>
    <g clip-path="url(#pad512acd03)">
     <use style="fill:#93a1a1;stroke:#93a1a1;stroke-linejoin:miter;" x="82.629285" xlink:href="#m07baf60107" y="62.196163"/>
     <use style="fill:#93a1a1;stroke:#93a1a1;stroke-linejoin:miter;" x="143.547137" xlink:href="#m07baf60107" y="94.124364"/>
     <use style="fill:#93a1a1;stroke:#93a1a1;stroke-linejoin:miter;" x="204.464988" xlink:href="#m07baf60107" y="126.555088"/>
     <use style="fill:#93a1a1;stroke:#93a1a1;stroke-linejoin:miter;" x="265.38284" xlink:href="#m07baf60107" y="161.510684"/>
     <use style="fill:#93a1a1;stroke:#93a1a1;stroke-linejoin:miter;" x="326.300691" xlink:href="#m07baf60107" y="204.584378"/>
    </g>
   </g>
   <g id="line2d_33">
    <path clip-path="url(#pad512acd03)" d="M 67.512633 19.982224 
L 67.738255 29.752574 
L 68.189498 36.704879 
L 68.866363 42.214652 
L 69.317606 45.029189 
L 69.76885 47.131453 
L 70.896958 50.803123 
L 72.025066 53.374117 
L 72.701931 54.463775 
L 74.281283 56.690541 
L 75.18377 57.504146 
L 77.214365 58.996322 
L 79.470582 60.273846 
L 80.373068 60.791532 
L 85.111123 63.634369 
L 89.623557 65.5663 
L 92.331017 66.580583 
L 96.392207 68.676014 
L 98.874045 70.052337 
L 100.90464 70.901944 
L 103.837722 72.308057 
L 108.801399 74.976604 
L 110.606372 76.13774 
L 114.667563 78.509406 
L 118.051888 79.612864 
L 119.856861 80.219444 
L 121.210591 80.786315 
L 122.113078 81.36473 
L 126.174268 84.38362 
L 128.204863 86.285517 
L 130.009836 87.685278 
L 131.363566 88.57832 
L 134.296648 89.971256 
L 138.357838 91.554462 
L 140.162812 92.357934 
L 146.254597 95.196482 
L 148.285192 96.063178 
L 150.090165 96.730225 
L 161.145627 100.839654 
L 163.176222 101.440747 
L 165.658061 102.361518 
L 167.688656 103.479313 
L 170.847359 105.434541 
L 172.426711 106.85107 
L 176.262279 110.847213 
L 177.841631 112.198517 
L 179.420983 113.423172 
L 181.902821 115.4621 
L 183.482173 116.705043 
L 185.287146 117.896124 
L 191.604553 121.225095 
L 197.696338 123.574919 
L 204.69061 126.043314 
L 208.074935 127.283416 
L 210.331152 127.91103 
L 212.81299 128.645267 
L 214.617963 129.458207 
L 218.453532 131.692328 
L 220.93537 133.42787 
L 222.514722 134.208907 
L 224.545317 135.281076 
L 228.380886 137.573401 
L 229.960237 138.931476 
L 231.990832 140.507253 
L 234.021427 142.281571 
L 236.728887 144.593892 
L 240.113212 147.16043 
L 242.595051 148.817376 
L 244.400024 149.628388 
L 248.461214 151.011378 
L 250.040566 151.523156 
L 252.748026 152.593374 
L 254.553 153.357065 
L 257.486081 155.029889 
L 258.61419 155.831361 
L 260.193541 156.901749 
L 262.449758 158.163485 
L 269.669652 162.067077 
L 271.700247 163.328069 
L 273.956463 164.895079 
L 275.761437 166.165573 
L 282.530087 169.555515 
L 285.011925 170.974961 
L 287.268142 172.289751 
L 288.170629 172.936871 
L 289.073115 173.646172 
L 295.164901 178.912558 
L 296.744252 179.972287 
L 300.354199 181.927185 
L 304.641011 184.94287 
L 306.445984 186.555612 
L 309.153444 188.711348 
L 314.117121 191.565468 
L 316.598959 192.669872 
L 318.178311 193.501959 
L 322.239501 196.246364 
L 323.36761 197.25875 
L 324.270096 198.178509 
L 328.556908 201.901014 
L 329.459395 202.542922 
L 332.392477 204.548795 
L 337.581775 208.406915 
L 340.740478 210.105068 
L 344.124804 211.576261 
L 345.478534 212.177595 
L 346.606642 212.624134 
L 348.862859 213.14492 
L 350.44221 213.330197 
L 356.533996 213.435058 
L 361.723294 213.43053 
L 361.723294 213.43053 
" style="fill:none;stroke:#93a1a1;stroke-linecap:square;stroke-width:1.5;"/>
    <defs>
     <path d="M -0 3 
L 3 -3 
L -3 -3 
z
" id="m183ecdcdbc" style="stroke:#93a1a1;stroke-linejoin:miter;"/>
    </defs>
    <g clip-path="url(#pad512acd03)">
     <use style="fill:#93a1a1;stroke:#93a1a1;stroke-linejoin:miter;" x="97.971559" xlink:href="#m183ecdcdbc" y="69.580965"/>
     <use style="fill:#93a1a1;stroke:#93a1a1;stroke-linejoin:miter;" x="158.88941" xlink:href="#m183ecdcdbc" y="100.13129"/>
     <use style="fill:#93a1a1;stroke:#93a1a1;stroke-linejoin:miter;" x="219.807262" xlink:href="#m183ecdcdbc" y="132.699249"/>
     <use style="fill:#93a1a1;stroke:#93a1a1;stroke-linejoin:miter;" x="280.725114" xlink:href="#m183ecdcdbc" y="168.610184"/>
     <use style="fill:#93a1a1;stroke:#93a1a1;stroke-linejoin:miter;" x="341.642965" xlink:href="#m183ecdcdbc" y="210.491234"/>
    </g>
   </g>
   <g id="line2d_34">
    <path clip-path="url(#pad512acd03)" d="M 67.512633 19.982224 
L 67.738255 29.752574 
L 68.189498 36.704879 
L 68.866363 42.214652 
L 69.317606 45.029189 
L 69.76885 47.131453 
L 70.896958 50.803123 
L 72.025066 53.374117 
L 72.701931 54.463775 
L 74.281283 56.688714 
L 75.18377 57.505671 
L 76.988743 58.865823 
L 86.01361 64.083739 
L 90.0748 65.702493 
L 92.556639 66.67268 
L 97.520315 69.256132 
L 99.776532 70.411311 
L 101.130262 70.98014 
L 102.483992 71.547818 
L 109.252642 75.193515 
L 110.155129 75.816596 
L 113.313832 77.71745 
L 114.441941 78.362256 
L 116.698158 79.147473 
L 120.082483 80.231716 
L 121.661834 80.95324 
L 123.466808 82.127591 
L 131.589188 88.576855 
L 133.394161 89.505494 
L 137.22973 90.949336 
L 139.711568 92.036674 
L 149.638922 96.464792 
L 152.12076 97.334221 
L 160.920005 100.655205 
L 165.206817 101.973558 
L 166.786169 102.705624 
L 168.139899 103.471461 
L 169.944872 104.549886 
L 172.201089 106.22995 
L 174.006062 107.924532 
L 178.067253 111.970121 
L 181.451578 114.555811 
L 183.030929 115.946639 
L 185.738389 117.829825 
L 189.573958 119.973111 
L 190.927688 120.672704 
L 193.86077 121.900861 
L 196.56823 122.979707 
L 197.92196 123.45242 
L 201.98315 124.773944 
L 203.788123 125.433619 
L 209.428665 127.447646 
L 211.910503 128.096067 
L 213.264233 128.497442 
L 215.746072 129.590048 
L 219.58164 131.751714 
L 221.612235 133.059214 
L 223.64283 133.949161 
L 225.447804 134.844615 
L 229.734616 137.212719 
L 231.539589 138.402686 
L 232.667697 139.013048 
L 235.149536 140.213519 
L 237.631374 141.052154 
L 240.113212 141.573407 
L 243.271916 142.008171 
L 245.753754 142.099342 
L 250.266188 142.051044 
L 280.048249 140.997354 
L 282.078844 140.57425 
L 283.432574 140.079425 
L 284.109439 139.618721 
L 284.560682 139.089863 
L 285.011925 138.417736 
L 285.463169 137.336913 
L 285.914412 135.301531 
L 286.140034 133.446743 
L 286.591277 124.57628 
L 286.816899 135.198897 
L 287.493764 147.324871 
L 287.719385 149.154288 
L 287.945007 148.584937 
L 288.39625 146.320131 
L 288.847494 145.119133 
L 289.298737 144.413739 
L 289.975602 143.828821 
L 290.878089 143.364619 
L 292.457441 142.958452 
L 295.616144 142.584048 
L 298.323604 142.202216 
L 300.128577 141.740311 
L 301.256686 141.238903 
L 302.384794 140.406753 
L 303.512902 139.204843 
L 303.964146 138.372915 
L 304.415389 136.716798 
L 304.641011 135.401607 
L 304.866633 132.665135 
L 305.092254 123.048313 
L 305.543498 138.931165 
L 305.994741 147.401294 
L 306.220363 149.698555 
L 306.445984 149.032179 
L 307.122849 146.272909 
L 307.799714 144.998395 
L 308.476579 144.266441 
L 309.379066 143.613642 
L 310.281553 143.170689 
L 311.860904 142.750488 
L 314.342743 142.347427 
L 317.275825 141.868925 
L 318.403933 141.532736 
L 319.30642 141.048768 
L 319.983285 140.372451 
L 320.434528 139.558234 
L 320.885771 138.154151 
L 321.111393 136.911879 
L 321.337015 134.484749 
L 321.562636 123.151599 
L 321.788258 137.283911 
L 322.239501 149.989553 
L 322.465123 149.531008 
L 322.690745 147.453295 
L 323.141988 145.768043 
L 323.593231 144.990412 
L 324.044475 144.553372 
L 324.946961 143.982488 
L 326.07507 143.54953 
L 329.233773 142.543799 
L 331.48999 141.758163 
L 332.84372 141.03486 
L 333.746207 140.292691 
L 334.19745 139.744164 
L 334.648693 138.953505 
L 335.099937 137.646832 
L 335.325558 136.668683 
L 335.776802 132.928944 
L 336.002423 127.236471 
L 336.228045 128.726867 
L 336.679288 139.194945 
L 337.581775 151.362796 
L 337.807397 151.940781 
L 338.709883 147.421751 
L 339.386748 145.883714 
L 340.063613 145.033843 
L 340.9661 144.298851 
L 342.545452 143.432675 
L 343.67356 143.042374 
L 347.509129 141.976337 
L 348.637237 141.360456 
L 349.539724 140.484419 
L 349.990967 139.834183 
L 350.44221 138.734142 
L 350.893454 136.8537 
L 351.119075 135.025724 
L 351.344697 130.087867 
L 351.570319 129.892226 
L 352.021562 142.400311 
L 352.698427 153.311731 
L 353.600914 147.786792 
L 354.277779 146.361314 
L 354.954644 145.594993 
L 355.631509 145.086107 
L 356.985239 144.339525 
L 358.564591 143.739859 
L 360.143942 143.309459 
L 363.302646 142.359 
L 364.881997 141.545192 
L 365.558862 140.949252 
L 366.010106 140.275668 
L 366.461349 139.248251 
L 366.686971 138.504391 
L 366.912592 137.170932 
L 367.138214 135.102204 
L 367.363836 129.872852 
L 367.589458 129.879745 
L 368.040701 142.113642 
L 368.717566 154.345157 
L 369.168809 150.289477 
L 369.620053 148.244343 
L 370.071296 147.320296 
L 370.748161 146.54245 
L 371.650648 145.929121 
L 371.876269 145.824216 
L 371.876269 145.824216 
" style="fill:none;stroke:#93a1a1;stroke-linecap:square;stroke-width:1.5;"/>
    <defs>
     <path d="M -3 3 
L 3 3 
L 3 -3 
L -3 -3 
z
" id="m0201317555" style="stroke:#93a1a1;stroke-linejoin:miter;"/>
    </defs>
    <g clip-path="url(#pad512acd03)">
     <use style="fill:#93a1a1;stroke:#93a1a1;stroke-linejoin:miter;" x="113.088211" xlink:href="#m0201317555" y="77.587597"/>
     <use style="fill:#93a1a1;stroke:#93a1a1;stroke-linejoin:miter;" x="174.006062" xlink:href="#m0201317555" y="107.924532"/>
     <use style="fill:#93a1a1;stroke:#93a1a1;stroke-linejoin:miter;" x="234.923914" xlink:href="#m0201317555" y="140.114164"/>
     <use style="fill:#93a1a1;stroke:#93a1a1;stroke-linejoin:miter;" x="295.841766" xlink:href="#m0201317555" y="142.560836"/>
     <use style="fill:#93a1a1;stroke:#93a1a1;stroke-linejoin:miter;" x="356.759617" xlink:href="#m0201317555" y="144.437276"/>
    </g>
   </g>
   <g id="line2d_35">
    <path clip-path="url(#pad512acd03)" d="M 67.512633 19.982224 
L 67.738255 29.752574 
L 68.189498 36.704879 
L 68.866363 42.214652 
L 69.317606 45.029189 
L 69.76885 47.131453 
L 70.896958 50.803123 
L 72.025066 53.374117 
L 72.701931 54.463775 
L 74.281283 56.677949 
L 76.311878 58.355233 
L 77.439987 59.135634 
L 86.916097 64.429555 
L 90.0748 65.643057 
L 92.78226 66.694816 
L 95.48972 68.018427 
L 97.294694 69.003681 
L 100.002154 70.375532 
L 104.740209 72.521515 
L 108.124534 74.298186 
L 109.703886 75.192593 
L 110.831994 75.936265 
L 115.795671 78.677408 
L 118.503131 79.521375 
L 121.436213 80.494789 
L 122.338699 80.969989 
L 123.918051 81.98596 
L 125.271781 82.959598 
L 126.625511 83.915595 
L 128.430485 85.596701 
L 130.235458 87.082077 
L 131.363566 87.85091 
L 133.16854 88.967846 
L 135.199135 89.861284 
L 137.004108 90.527082 
L 140.839677 92.0813 
L 150.76703 96.415355 
L 156.633194 98.475993 
L 162.9506 100.818666 
L 166.334926 101.815212 
L 168.139899 102.584928 
L 172.877954 105.342939 
L 173.780441 106.115191 
L 180.323469 112.254758 
L 181.902821 113.402127 
L 183.933416 115.060926 
L 185.287146 116.154777 
L 187.543363 117.70786 
L 191.604553 119.896809 
L 192.732661 120.515486 
L 196.116986 121.91014 
L 199.050068 123.030473 
L 200.403798 123.479211 
L 205.593097 125.147475 
L 208.7518 126.351639 
L 213.264233 127.778131 
L 216.648559 128.726122 
L 219.807262 130.233806 
L 222.514722 131.801764 
L 225.447804 133.661246 
L 228.832129 135.288565 
L 233.118941 137.730959 
L 235.826401 139.706025 
L 237.405752 140.7877 
L 239.887591 142.6724 
L 242.369429 144.146351 
L 245.302511 145.444442 
L 247.333106 146.045937 
L 250.266188 146.422471 
L 253.424891 146.626328 
L 260.193541 146.792479 
L 280.27387 146.806811 
L 280.27387 146.806811 
" style="fill:none;stroke:#6c71c4;stroke-linecap:square;stroke-width:1.5;"/>
   </g>
   <g id="line2d_36">
    <path clip-path="url(#pad512acd03)" d="M 67.512633 19.982224 
L 67.738255 29.752574 
L 68.189498 36.704879 
L 68.866363 42.214652 
L 69.317606 45.029189 
L 69.76885 47.131453 
L 70.896958 50.803123 
L 72.025066 53.374117 
L 72.701931 54.463775 
L 74.281283 56.690236 
L 75.18377 57.504675 
L 77.214365 58.998576 
L 79.470582 60.265017 
L 80.59869 60.928222 
L 86.239232 64.200352 
L 93.910369 67.386625 
L 95.48972 68.175419 
L 98.648424 69.923013 
L 105.191452 72.960504 
L 109.252642 75.243573 
L 111.283237 76.509199 
L 114.216319 78.292963 
L 116.246914 79.050697 
L 119.631239 80.093354 
L 121.661834 81.006526 
L 123.241186 82.045485 
L 124.594916 83.069727 
L 126.174268 84.294952 
L 129.10735 86.909438 
L 130.686701 88.056091 
L 132.491675 89.129094 
L 133.394161 89.56792 
L 138.357838 91.460616 
L 142.64465 93.429652 
L 144.224002 94.152331 
L 146.931462 95.428765 
L 150.76703 96.895913 
L 153.700112 97.938844 
L 156.858815 99.210582 
L 160.694384 100.659563 
L 165.883682 102.38239 
L 168.816764 104.008178 
L 171.524224 105.838676 
L 175.359792 109.648486 
L 176.939144 111.260026 
L 178.067253 112.19544 
L 179.195361 112.995781 
L 180.323469 113.850279 
L 181.902821 115.211351 
L 183.030929 116.174499 
L 185.287146 117.744807 
L 190.476445 120.616441 
L 197.696338 123.474432 
L 201.306285 124.649906 
L 202.885636 125.226327 
L 204.69061 125.927124 
L 208.7518 127.378356 
L 213.715477 128.861757 
L 217.099802 130.645703 
L 219.130397 131.878733 
L 220.93537 133.187258 
L 222.063479 133.799137 
L 225.222182 135.431842 
L 227.027155 136.448063 
L 228.380886 137.273018 
L 229.508994 138.178987 
L 231.765211 139.99967 
L 233.118941 141.054814 
L 237.631374 144.931131 
L 242.369429 148.367968 
L 243.948781 149.250673 
L 248.009971 150.721388 
L 252.071161 152.103154 
L 255.681108 153.637198 
L 258.162946 155.113504 
L 260.644785 156.827268 
L 266.059705 159.672759 
L 268.315922 160.913808 
L 270.346517 162.125426 
L 274.407707 164.796155 
L 276.663923 166.318728 
L 283.658195 169.870588 
L 285.463169 170.871201 
L 288.39625 172.62328 
L 290.201224 174.061129 
L 291.780576 175.532599 
L 292.908684 176.534476 
L 294.939279 178.259026 
L 297.421117 179.954428 
L 301.482307 182.192615 
L 302.610416 182.988801 
L 304.189768 183.988595 
L 305.092254 184.699082 
L 306.671606 186.100351 
L 309.830309 188.618728 
L 313.214634 190.685586 
L 315.019608 191.573631 
L 319.532041 193.801701 
L 320.885771 194.640451 
L 322.239501 195.505846 
L 324.044475 196.959309 
L 325.398205 198.320674 
L 328.78253 201.312228 
L 330.587503 202.555619 
L 335.099937 205.532137 
L 337.581775 207.149276 
L 339.161127 207.833651 
L 342.094209 208.832486 
L 345.929777 209.579483 
L 348.637237 209.834465 
L 351.570319 209.883378 
L 362.400159 209.905184 
L 362.400159 209.905184 
" style="fill:none;stroke:#859900;stroke-dasharray:1.5,2.475;stroke-dashoffset:0;stroke-width:1.5;"/>
   </g>
   <g id="line2d_37">
    <path clip-path="url(#pad512acd03)" d="M 67.512633 19.982224 
L 67.738255 29.752574 
L 68.189498 36.704879 
L 68.866363 42.214652 
L 69.317606 45.029189 
L 69.76885 47.131453 
L 70.896958 50.803123 
L 72.025066 53.374117 
L 72.701931 54.463775 
L 74.281283 56.688099 
L 75.18377 57.503762 
L 77.214365 58.994876 
L 79.24496 60.159714 
L 80.373068 60.790945 
L 83.983015 62.957761 
L 85.111123 63.634276 
L 89.397935 65.46859 
L 92.105395 66.471036 
L 93.910369 67.387065 
L 96.84345 68.905823 
L 101.130262 70.98978 
L 103.386479 72.002993 
L 105.417074 73.0932 
L 110.155129 75.827434 
L 114.216319 78.268148 
L 116.923779 79.255427 
L 119.631239 80.07473 
L 121.887456 81.143975 
L 125.723024 83.905405 
L 127.75362 85.701875 
L 130.235458 87.739562 
L 132.942918 89.348934 
L 135.199135 90.264481 
L 138.357838 91.459715 
L 143.095893 93.598386 
L 145.35211 94.651033 
L 147.157083 95.535522 
L 157.761302 99.564599 
L 160.017519 100.427299 
L 165.432439 102.149089 
L 167.463034 103.190321 
L 171.524224 105.770744 
L 173.103576 107.265126 
L 174.457306 108.533938 
L 177.390387 111.647117 
L 181.225956 114.542017 
L 183.482173 116.482616 
L 185.061524 117.579142 
L 191.15331 120.899384 
L 196.342608 122.988794 
L 199.952555 124.213357 
L 202.885636 125.176604 
L 205.593097 126.262037 
L 210.556773 127.862186 
L 213.038612 128.561732 
L 215.52045 129.731422 
L 218.679154 131.560335 
L 219.807262 132.387598 
L 220.93537 133.167723 
L 222.514722 134.008316 
L 224.545317 135.009009 
L 229.057751 137.737176 
L 231.088346 139.46875 
L 233.570184 141.396759 
L 236.954509 144.390442 
L 239.436347 146.316296 
L 243.723159 149.1029 
L 245.076889 149.694897 
L 246.881863 150.363125 
L 251.619918 151.914804 
L 255.455486 153.513985 
L 257.486081 154.620656 
L 258.61419 155.410821 
L 259.742298 156.174853 
L 263.352245 158.304403 
L 266.73657 159.960975 
L 270.346517 162.089664 
L 273.956463 164.433013 
L 276.889545 166.378929 
L 278.92014 167.331292 
L 280.499492 168.149632 
L 285.463169 170.830106 
L 288.847494 172.89359 
L 290.652467 174.404076 
L 295.164901 178.343859 
L 296.293009 179.171075 
L 297.872361 180.138794 
L 301.482307 182.140473 
L 305.994741 185.42262 
L 308.025336 187.171757 
L 311.860904 189.843026 
L 314.568364 191.374612 
L 319.080798 193.470508 
L 323.593231 196.555289 
L 324.495718 197.412811 
L 325.398205 198.290971 
L 327.203178 199.969096 
L 328.331286 200.966898 
L 334.874315 205.550055 
L 337.807397 207.747647 
L 340.9661 209.520826 
L 347.283507 212.191723 
L 349.539724 212.777657 
L 351.570319 213.065344 
L 354.729022 213.198407 
L 371.876269 213.24652 
L 371.876269 213.24652 
" style="fill:none;stroke:#073642;stroke-dasharray:1.5,2.475;stroke-dashoffset:0;stroke-width:1.5;"/>
   </g>
   <g id="line2d_38">
    <path clip-path="url(#pad512acd03)" d="M 67.512633 19.982224 
L 67.738255 29.752574 
L 68.189498 36.704879 
L 68.866363 42.214652 
L 69.317606 45.029189 
L 69.76885 47.131453 
L 70.896958 50.803123 
L 72.025066 53.374117 
L 72.701931 54.463775 
L 74.055661 56.409694 
L 75.409391 57.648172 
L 78.116852 59.514136 
L 86.690475 64.315356 
L 89.397935 65.398354 
L 91.879774 66.257037 
L 93.684747 67.120958 
L 94.812855 67.662144 
L 97.520315 69.07826 
L 100.679019 70.644734 
L 103.837722 72.005087 
L 109.478264 74.959104 
L 115.118806 78.348592 
L 117.826266 79.274132 
L 121.661834 80.516253 
L 122.564321 80.998364 
L 124.594916 82.338912 
L 127.076754 84.15086 
L 129.558593 86.370633 
L 130.912323 87.452781 
L 134.52227 89.532143 
L 142.64465 92.758004 
L 144.224002 93.481499 
L 148.05957 95.211098 
L 149.864543 95.968486 
L 164.078709 101.024992 
L 167.011791 101.920983 
L 169.268007 102.966082 
L 173.780441 105.683266 
L 178.518496 110.24804 
L 180.097848 111.744528 
L 183.933416 114.584988 
L 186.415254 116.597803 
L 189.348336 118.379993 
L 194.086391 120.834249 
L 198.824446 122.69488 
L 201.531906 123.63598 
L 209.428665 126.365283 
L 211.910503 127.246739 
L 218.22791 129.103462 
L 220.484127 130.203453 
L 224.545317 132.612326 
L 226.124669 133.469422 
L 230.637102 135.531087 
L 233.344562 136.919092 
L 234.472671 137.693843 
L 236.052022 138.702526 
L 241.918186 141.900954 
L 243.497538 142.479978 
L 245.302511 142.945139 
L 247.784349 143.324481 
L 250.491809 143.456077 
L 257.486081 143.470424 
L 307.799714 143.467462 
L 371.876269 143.467456 
L 371.876269 143.467456 
" style="fill:none;stroke:#2aa198;stroke-linecap:square;stroke-width:1.5;"/>
   </g>
   <g id="line2d_39">
    <path clip-path="url(#pad512acd03)" d="M 67.512633 19.982224 
L 67.738255 29.752574 
L 68.189498 36.704879 
L 68.866363 42.214652 
L 69.317606 45.029189 
L 69.76885 47.131453 
L 70.896958 50.803123 
L 72.025066 53.374117 
L 72.701931 54.463775 
L 74.281283 56.687891 
L 75.18377 57.501958 
L 77.89123 59.384213 
L 86.916097 64.470729 
L 88.946692 65.316388 
L 92.556639 66.654264 
L 94.587234 67.680353 
L 100.679019 70.804833 
L 103.612101 72.099993 
L 106.770804 73.804543 
L 111.960102 76.925211 
L 114.216319 78.270163 
L 116.472536 79.103309 
L 120.308104 80.318738 
L 121.436213 80.864199 
L 124.820538 83.144121 
L 126.399889 84.464813 
L 128.204863 86.097521 
L 130.686701 88.003335 
L 132.040431 88.849815 
L 133.619783 89.624838 
L 138.58346 91.539168 
L 148.285192 95.956853 
L 150.992652 96.935589 
L 155.730707 98.707719 
L 157.310059 99.355139 
L 159.340654 100.158664 
L 161.59687 100.871988 
L 163.401844 101.402606 
L 165.432439 102.102149 
L 167.237412 103.009409 
L 171.524224 105.668627 
L 174.457306 108.505892 
L 177.616009 111.717792 
L 181.902821 115.116846 
L 183.256551 116.205389 
L 184.835903 117.379235 
L 191.604553 121.03692 
L 197.696338 123.416657 
L 206.721205 126.636908 
L 208.7518 127.333725 
L 214.16672 128.961052 
L 215.971694 129.873465 
L 217.776667 130.92842 
L 219.356019 131.926687 
L 222.063479 133.739626 
L 224.545317 134.920845 
L 229.057751 137.596673 
L 229.960237 138.353593 
L 230.862724 139.142462 
L 233.570184 141.262653 
L 237.405752 144.595877 
L 239.210726 145.961554 
L 240.338834 146.828864 
L 242.820673 148.514086 
L 245.076889 149.605596 
L 247.333106 150.444417 
L 250.717431 151.49331 
L 255.229865 153.289231 
L 257.034838 154.182733 
L 260.644785 156.620381 
L 261.998515 157.42413 
L 270.346517 161.896813 
L 273.50522 163.905624 
L 276.438302 166.010972 
L 285.914412 170.915365 
L 288.170629 172.223921 
L 290.652467 174.093357 
L 292.683062 176.03155 
L 296.744252 179.2408 
L 298.097982 180.094005 
L 301.707929 182.080271 
L 303.061659 183.013733 
L 304.641011 184.032542 
L 306.897228 185.931699 
L 309.830309 188.329997 
L 310.958418 189.072614 
L 315.470851 191.615012 
L 319.757663 193.668856 
L 321.562636 194.796232 
L 322.690745 195.511804 
L 324.495718 196.940941 
L 325.849448 198.289436 
L 327.4288 199.741133 
L 328.78253 200.905295 
L 331.038747 202.467337 
L 338.484262 207.000866 
L 341.191722 208.10251 
L 344.576047 209.08525 
L 346.832264 209.569618 
L 349.765345 209.826159 
L 353.826535 209.87939 
L 371.876269 209.88365 
L 371.876269 209.88365 
" style="fill:none;stroke:#073642;stroke-linecap:square;stroke-width:1.5;"/>
   </g>
   <g id="patch_3">
    <path d="M 52.294451 232.46 
L 52.294451 10.7 
" style="fill:none;stroke:#000000;stroke-linecap:square;stroke-linejoin:miter;stroke-width:0.8;"/>
   </g>
   <g id="patch_4">
    <path d="M 387.094451 232.46 
L 387.094451 10.7 
" style="fill:none;stroke:#000000;stroke-linecap:square;stroke-linejoin:miter;stroke-width:0.8;"/>
   </g>
   <g id="patch_5">
    <path d="M 52.294451 232.46 
L 387.094451 232.46 
" style="fill:none;stroke:#000000;stroke-linecap:square;stroke-linejoin:miter;stroke-width:0.8;"/>
   </g>
   <g id="patch_6">
    <path d="M 52.294451 10.7 
L 387.094451 10.7 
" style="fill:none;stroke:#000000;stroke-linecap:square;stroke-linejoin:miter;stroke-width:0.8;"/>
   </g>
   <g id="legend_1">
    <g id="patch_7">
     <path d="M 394.094451 144.134605 
L 498.591371 144.134605 
Q 500.591371 144.134605 500.591371 142.134605 
L 500.591371 17.7 
Q 500.591371 15.7 498.591371 15.7 
L 394.094451 15.7 
Q 392.094451 15.7 392.094451 17.7 
L 392.094451 142.134605 
Q 392.094451 144.134605 394.094451 144.134605 
z
" style="fill:#ffffff;opacity:0.8;stroke:#cccccc;stroke-linejoin:miter;"/>
    </g>
    <g id="line2d_40">
     <path d="M 396.094451 23.2 
L 416.094451 23.2 
" style="fill:none;stroke:#073642;stroke-linecap:square;stroke-width:1.5;"/>
    </g>
    <g id="line2d_41"/>
    <g id="text_18">
     <!-- \textsc{pipe-PR-CG} -->
     <defs>
      <path d="M 32.296875 23 
C 42.296875 23 50.703125 29.296875 50.703125 36.890625 
C 50.703125 44.09375 43.09375 51 31.59375 51 
L 4.5 51 
L 4.5 48.484375 
C 11.203125 48.484375 11.703125 47.890625 11.703125 43.796875 
L 11.703125 7.109375 
C 11.703125 3.078125 11.203125 2.5 4.5 2.5 
L 4.5 0 
C 7.40625 0.09375 13.09375 0.296875 15.296875 0.296875 
C 17.5 0.296875 23.09375 0.09375 26.09375 0 
L 26.09375 2.5 
C 19.40625 2.5 18.90625 3.078125 18.90625 7.109375 
L 18.90625 23 
z
M 18.59375 44.1875 
C 18.59375 48.1875 19.09375 48.484375 22.59375 48.484375 
L 29.5 48.484375 
C 42.09375 48.484375 42.09375 40.890625 42.09375 36.890625 
C 42.09375 33 42.09375 25.296875 29.5 25.296875 
L 18.59375 25.296875 
z
" id="CMCSC10-112"/>
      <path d="M 18.703125 43.734375 
C 18.703125 48 19.203125 48.484375 26.296875 48.484375 
L 26.296875 51 
C 22.90625 50.890625 17.703125 50.6875 15.09375 50.6875 
C 12.5 50.6875 7.296875 50.890625 3.90625 51 
L 3.90625 48.484375 
C 11 48.484375 11.5 48 11.5 43.734375 
L 11.5 7.25 
C 11.5 2.984375 11 2.5 3.90625 2.5 
L 3.90625 0 
C 7.296875 0.09375 12.5 0.296875 15.09375 0.296875 
C 17.703125 0.296875 22.90625 0.09375 26.296875 0 
L 26.296875 2.5 
C 19.203125 2.5 18.703125 2.984375 18.703125 7.25 
z
" id="CMCSC10-105"/>
      <path d="M 48.796875 50.6875 
L 4.296875 50.6875 
L 4.296875 48.1875 
C 11 48.1875 11.5 47.59375 11.5 43.515625 
L 11.5 7.125 
C 11.5 3.078125 11 2.5 4.296875 2.5 
L 4.296875 0 
L 50 0 
L 52.90625 19.171875 
L 50.40625 19.171875 
C 48.703125 7.234375 46.296875 2.5 33.5 2.5 
L 22.703125 2.5 
C 19.203125 2.5 18.703125 2.78125 18.703125 6.734375 
L 18.703125 25 
L 25.703125 25 
C 33.09375 25 34.296875 23.015625 34.296875 16.40625 
L 36.796875 16.40625 
L 36.796875 36.15625 
L 34.296875 36.15625 
C 34.296875 29.484375 33.09375 27.5 25.703125 27.5 
L 18.703125 27.5 
L 18.703125 43.90625 
C 18.703125 47.890625 19.203125 48.1875 22.703125 48.1875 
L 32.90625 48.1875 
C 44.5 48.1875 47.09375 44.703125 48.203125 33.859375 
L 50.703125 33.859375 
z
" id="CMCSC10-101"/>
      <path d="M 30.5 19 
L 30.5 24.796875 
L 2.59375 24.796875 
L 2.59375 19 
z
" id="CMCSC10-45"/>
      <path d="M 43 31.390625 
C 55.203125 31.390625 66.90625 39.171875 66.90625 49.4375 
C 66.90625 59.3125 56.296875 68 42.203125 68 
L 5.703125 68 
L 5.703125 64.890625 
L 8.09375 64.890625 
C 15.796875 64.890625 16 63.796875 16 60.203125 
L 16 7.765625 
C 16 4.1875 15.796875 3.09375 8.09375 3.09375 
L 5.703125 3.09375 
L 5.703125 0 
C 9.203125 0.296875 16.59375 0.296875 20.40625 0.296875 
C 24.203125 0.296875 31.703125 0.296875 35.203125 0 
L 35.203125 3.09375 
L 32.796875 3.09375 
C 25.09375 3.09375 24.90625 4.1875 24.90625 7.765625 
L 24.90625 31.390625 
z
M 24.59375 60.90625 
C 24.59375 64.1875 24.796875 64.890625 29.5 64.890625 
L 39.59375 64.890625 
C 56.59375 64.890625 56.59375 53.921875 56.59375 49.4375 
C 56.59375 45.15625 56.59375 34 39.59375 34 
L 24.59375 34 
z
" id="CMCSC10-80"/>
      <path d="M 24.59375 35.1875 
L 24.59375 60.921875 
C 24.59375 63.609375 24.796875 64.5 27.203125 64.796875 
C 28.09375 64.890625 31.203125 64.890625 33.203125 64.890625 
C 41.90625 64.890625 55.09375 64.890625 55.09375 50.09375 
C 55.09375 39.46875 48 35.1875 36.703125 35.1875 
z
M 47 33.890625 
C 59 36.78125 65.40625 43.34375 65.40625 50.09375 
C 65.40625 59.734375 53.203125 68 38.09375 68 
L 5.703125 68 
L 5.703125 64.890625 
L 8.09375 64.890625 
C 15.796875 64.890625 16 63.796875 16 60.21875 
L 16 7.921875 
C 16 4.359375 15.796875 3.265625 8.09375 3.265625 
L 5.703125 3.265625 
L 5.703125 0.1875 
C 9.296875 0.484375 16.40625 0.484375 20.296875 0.484375 
C 24.203125 0.484375 31.296875 0.484375 34.90625 0.1875 
L 34.90625 3.265625 
L 32.5 3.265625 
C 24.796875 3.265625 24.59375 4.359375 24.59375 7.921875 
L 24.59375 33 
L 37.09375 33 
C 42.5 33 45.703125 31.015625 47.40625 29.421875 
C 51.203125 25.75 51.203125 23.28125 51.203125 16.34375 
C 51.203125 9.5 51.203125 5.9375 55.5 2.078125 
C 59.203125 -1.109375 64.796875 -2 68.296875 -2 
C 76.296875 -2 78.203125 6.140625 78.203125 8.90625 
C 78.203125 9.5 78.203125 10.59375 76.90625 10.59375 
C 75.796875 10.59375 75.796875 9.703125 75.703125 9.015625 
C 74.90625 1.28125 70.796875 0.1875 68.703125 0.1875 
C 63.40625 0.1875 62.703125 4.65625 60.90625 16.140625 
C 59.796875 23.078125 59.40625 25.5625 56.203125 28.734375 
C 54.09375 30.90625 50.90625 32.796875 47 33.890625 
z
" id="CMCSC10-82"/>
      <path d="M 63.40625 62.0625 
C 60.09375 65.484375 54 71 43.703125 71 
C 24 71 7.203125 54.9375 7.203125 34.546875 
C 7.203125 14.046875 24 -2 43.796875 -2 
C 60.703125 -2 71.296875 11.640625 71.296875 23.59375 
C 71.296875 24.59375 71.296875 25.296875 70 25.296875 
C 68.90625 25.296875 68.90625 24.703125 68.796875 23.6875 
C 68 9.125 56.296875 1.09375 45.09375 1.09375 
C 36.296875 1.09375 17.5 6.3125 17.5 34.4375 
C 17.5 64.078125 38 67.890625 44.90625 67.890625 
C 55.59375 67.890625 65.796875 59.546875 68.09375 44.078125 
C 68.296875 42.671875 68.40625 42.375 69.703125 42.375 
C 71.296875 42.375 71.296875 42.671875 71.296875 44.78125 
L 71.296875 68.59375 
C 71.296875 70.296875 71.296875 71 70.203125 71 
C 69.796875 71 69.40625 71 68.59375 69.796875 
z
" id="CMCSC10-67"/>
      <path d="M 71.203125 68.59375 
C 71.203125 70.296875 71.203125 71 70.09375 71 
C 69.703125 71 69.296875 71 68.5 69.796875 
L 63.296875 62.125 
C 60.203125 65.109375 54.296875 71 43.703125 71 
C 23.796875 71 7.203125 54.859375 7.203125 34.859375 
C 7.203125 14.578125 23.59375 -2 43.90625 -2 
C 51.796875 -2 60.40625 0.59375 63.90625 6.609375 
C 65.203125 4.359375 69.203125 0.296875 70.296875 0.296875 
C 71.203125 0.296875 71.203125 1.09375 71.203125 2.625 
L 71.203125 20.390625 
C 71.203125 24.890625 72.296875 24.890625 78.5 24.890625 
L 78.5 28 
C 73.703125 27.796875 70.09375 27.6875 65.796875 27.6875 
C 61.703125 27.6875 52.796875 27.6875 49.203125 28 
L 49.203125 24.890625 
L 52.703125 24.890625 
C 62.296875 24.890625 62.296875 23.46875 62.296875 19.984375 
L 62.296875 13.453125 
C 62.296875 1.09375 46.796875 1.09375 45.59375 1.09375 
C 36.5 1.09375 17.5 6.40625 17.5 34.859375 
C 17.5 63.015625 36.703125 67.890625 44.90625 67.890625 
C 55.5 67.890625 65.703125 59.734375 68 44.3125 
C 68.203125 42.921875 68.296875 42.625 69.59375 42.625 
C 71.203125 42.625 71.203125 42.921875 71.203125 45 
z
" id="CMCSC10-71"/>
     </defs>
     <g transform="translate(424.094451 26.7)scale(0.1 -0.1)">
      <use transform="scale(0.996264)" xlink:href="#CMCSC10-112"/>
      <use transform="translate(55.569158 0)scale(0.996264)" xlink:href="#CMCSC10-105"/>
      <use transform="translate(85.67837 0)scale(0.996264)" xlink:href="#CMCSC10-112"/>
      <use transform="translate(141.247528 0)scale(0.996264)" xlink:href="#CMCSC10-101"/>
      <use transform="translate(196.816686 0)scale(0.996264)" xlink:href="#CMCSC10-45"/>
      <use transform="translate(234.45297 0)scale(0.996264)" xlink:href="#CMCSC10-80"/>
      <use transform="translate(308.341796 0)scale(0.996264)" xlink:href="#CMCSC10-82"/>
      <use transform="translate(388.042172 0)scale(0.996264)" xlink:href="#CMCSC10-45"/>
      <use transform="translate(425.678456 0)scale(0.996264)" xlink:href="#CMCSC10-67"/>
      <use transform="translate(503.99518 0)scale(0.996264)" xlink:href="#CMCSC10-71"/>
     </g>
    </g>
    <g id="line2d_42">
     <path d="M 396.094451 37.137178 
L 416.094451 37.137178 
" style="fill:none;stroke:#2aa198;stroke-linecap:square;stroke-width:1.5;"/>
    </g>
    <g id="line2d_43"/>
    <g id="text_19">
     <!-- \textsc{pipe-P-CG} -->
     <g transform="translate(424.094451 40.637178)scale(0.1 -0.1)">
      <use transform="scale(0.996264)" xlink:href="#CMCSC10-112"/>
      <use transform="translate(55.569158 0)scale(0.996264)" xlink:href="#CMCSC10-105"/>
      <use transform="translate(85.67837 0)scale(0.996264)" xlink:href="#CMCSC10-112"/>
      <use transform="translate(141.247528 0)scale(0.996264)" xlink:href="#CMCSC10-101"/>
      <use transform="translate(196.816686 0)scale(0.996264)" xlink:href="#CMCSC10-45"/>
      <use transform="translate(234.45297 0)scale(0.996264)" xlink:href="#CMCSC10-80"/>
      <use transform="translate(308.341796 0)scale(0.996264)" xlink:href="#CMCSC10-45"/>
      <use transform="translate(345.97808 0)scale(0.996264)" xlink:href="#CMCSC10-67"/>
      <use transform="translate(424.294805 0)scale(0.996264)" xlink:href="#CMCSC10-71"/>
     </g>
    </g>
    <g id="line2d_44">
     <path d="M 396.094451 51.074357 
L 416.094451 51.074357 
" style="fill:none;stroke:#073642;stroke-dasharray:1.5,2.475;stroke-dashoffset:0;stroke-width:1.5;"/>
    </g>
    <g id="line2d_45"/>
    <g id="text_20">
     <!-- PR-CG -->
     <defs>
      <path d="M 19.796875 32 
L 35.796875 32 
C 48.703125 32 58.09375 40.359375 58.09375 49.796875 
C 58.09375 59.234375 48.90625 68 35.796875 68 
L 5.203125 68 
L 5.203125 65.390625 
C 12.09375 65.390625 13.203125 65.390625 13.203125 60.921875 
L 13.203125 7.078125 
C 13.203125 2.59375 12.09375 2.59375 5.203125 2.59375 
L 5.203125 0 
C 8.09375 0.1875 13.40625 0.1875 16.5 0.1875 
C 19.59375 0.1875 24.90625 0.1875 27.796875 0 
L 27.796875 2.59375 
C 20.90625 2.59375 19.796875 2.59375 19.796875 7.078125 
z
M 19.59375 34.09375 
L 19.59375 61.515625 
C 19.59375 64.890625 19.796875 65.390625 23.796875 65.390625 
L 33.90625 65.390625 
C 46.796875 65.390625 50.5 58.046875 50.5 49.796875 
C 50.5 40.75 46.09375 34.09375 33.90625 34.09375 
z
" id="CMR17-80"/>
      <path d="M 39.203125 33.6875 
C 48.703125 35.59375 56.703125 42.015625 56.703125 50.046875 
C 56.703125 59.46875 46.09375 68 32.09375 68 
L 5.203125 68 
L 5.203125 65.390625 
C 12.09375 65.390625 13.203125 65.390625 13.203125 60.875 
L 13.203125 6.6875 
C 13.203125 2.1875 12.09375 2.1875 5.203125 2.1875 
L 5.203125 -0.40625 
C 8.09375 -0.203125 13.296875 -0.203125 16.40625 -0.203125 
C 19.5 -0.203125 24.703125 -0.203125 27.59375 -0.40625 
L 27.59375 2.1875 
C 20.703125 2.1875 19.59375 2.1875 19.59375 6.6875 
L 19.59375 33 
L 31.296875 33 
C 37 33 40.203125 30.6875 41.59375 29.390625 
C 45.59375 25.5 45.59375 22.796875 45.59375 16 
C 45.59375 9.296875 45.59375 5.890625 48.59375 2.5 
C 52.40625 -1.609375 57.5 -2 59.703125 -2 
C 67.09375 -2 68.203125 6.296875 68.203125 8 
C 68.203125 8.59375 68.203125 9.296875 67.296875 9.296875 
C 66.5 9.296875 66.40625 8.6875 66.40625 8.296875 
C 65.90625 1.796875 63 -0.40625 59.90625 -0.40625 
C 54.40625 -0.40625 53.796875 5.890625 53.203125 12 
C 52.90625 14.09375 52.703125 15.59375 52.5 17.796875 
C 51.90625 22.796875 51.09375 30.09375 39.203125 33.6875 
z
M 31 34.59375 
L 19.59375 34.59375 
L 19.59375 61.484375 
C 19.59375 64.890625 19.796875 65.390625 23.796875 65.390625 
L 31.09375 65.390625 
C 39.40625 65.390625 49.09375 62.484375 49.09375 50.046875 
C 49.09375 37.09375 38.5 34.59375 31 34.59375 
z
" id="CMR17-82"/>
      <path d="M 62.09375 67.984375 
C 62.09375 69.796875 62 69.890625 61.40625 69.890625 
C 61 69.890625 60.90625 69.796875 60.203125 68.59375 
L 55.796875 60.140625 
C 50.90625 66.390625 44.90625 70 37.203125 70 
C 20.09375 70 4.59375 54.796875 4.59375 34.046875 
C 4.59375 13.078125 20.09375 -2 37.296875 -2 
C 52.59375 -2 62.09375 11.578125 62.09375 23.15625 
C 62.09375 24.171875 62.09375 24.578125 61.203125 24.578125 
C 60.40625 24.578125 60.40625 24.265625 60.296875 23.359375 
C 59.5 9.25 49.5 0.59375 38.703125 0.59375 
C 28.5 0.59375 12.203125 7.84375 12.203125 34.046875 
C 12.203125 60.34375 28.796875 67.390625 38.5 67.390625 
C 49.796875 67.390625 58 57.515625 59.90625 43.515625 
C 60.09375 42.296875 60.09375 42.109375 61 42.109375 
C 62.09375 42.109375 62.09375 42.296875 62.09375 44.125 
z
" id="CMR17-67"/>
      <path d="M 62.09375 19.65625 
C 62.09375 23.484375 62.40625 24 68.59375 24 
L 68.59375 26.59375 
C 66.203125 26.390625 60.796875 26.390625 58.09375 26.390625 
C 55.296875 26.390625 47.5 26.5 43.703125 26.59375 
L 43.703125 24 
L 46.703125 24 
C 55.296875 24 55.5 22.875 55.5 19.25 
L 55.5 12.59375 
C 55.5 1.5 42.5 0.59375 39.40625 0.59375 
C 29.09375 0.59375 12.203125 7.75 12.203125 34.046875 
C 12.203125 60.34375 28.796875 67.390625 38.5 67.390625 
C 49.796875 67.390625 58 57.515625 59.90625 43.515625 
C 60.09375 42.3125 60.09375 42.109375 61 42.109375 
C 62.09375 42.109375 62.09375 42.3125 62.09375 44.125 
L 62.09375 67.984375 
C 62.09375 69.796875 62 69.890625 61.40625 69.890625 
C 61 69.890625 60.90625 69.796875 60.203125 68.59375 
L 55.796875 60.140625 
C 50.90625 66.390625 44.90625 70 37.203125 70 
C 20.09375 70 4.59375 54.796875 4.59375 34.046875 
C 4.59375 13.40625 19.796875 -2 37.40625 -2 
C 45.5 -2 53.40625 0.890625 56.5 6.640625 
C 58.203125 2.515625 61 -0.3125 61.5 -0.3125 
C 62 -0.3125 62.09375 -0.203125 62.09375 1.59375 
z
" id="CMR17-71"/>
     </defs>
     <g transform="translate(424.094451 54.574357)scale(0.1 -0.1)">
      <use transform="scale(0.996264)" xlink:href="#CMR17-80"/>
      <use transform="translate(62.586301 0)scale(0.996264)" xlink:href="#CMR17-82"/>
      <use transform="translate(130.377402 0)scale(0.996264)" xlink:href="#CMR17-45"/>
      <use transform="translate(160.453369 0)scale(0.996264)" xlink:href="#CMR17-67"/>
      <use transform="translate(226.963249 0)scale(0.996264)" xlink:href="#CMR17-71"/>
     </g>
    </g>
    <g id="line2d_46">
     <path d="M 396.094451 65.011535 
L 416.094451 65.011535 
" style="fill:none;stroke:#859900;stroke-dasharray:1.5,2.475;stroke-dashoffset:0;stroke-width:1.5;"/>
    </g>
    <g id="line2d_47"/>
    <g id="text_21">
     <!-- \textsc{pipe-PR-M-CG} -->
     <defs>
      <path d="M 74.40625 65.09375 
L 74.5 64.984375 
L 74.5 7.765625 
C 74.5 4.1875 74.296875 3.09375 66.59375 3.09375 
L 64.203125 3.09375 
L 64.203125 0 
C 67.90625 0.296875 74.703125 0.296875 78.59375 0.296875 
C 82.5 0.296875 89.203125 0.296875 92.90625 0 
L 92.90625 3.09375 
L 90.5 3.09375 
C 82.796875 3.09375 82.59375 4.1875 82.59375 7.765625 
L 82.59375 60.21875 
C 82.59375 63.796875 82.796875 64.890625 90.5 64.890625 
L 92.90625 64.890625 
L 92.90625 68 
L 76 68 
C 73.703125 68 73.40625 68 72.59375 66.09375 
L 49.40625 9.46875 
L 26.203125 66.1875 
C 25.5 68 24.90625 68 22.796875 68 
L 5.90625 68 
L 5.90625 64.890625 
L 8.296875 64.890625 
C 16 64.890625 16.203125 63.796875 16.203125 60.21875 
L 16.203125 10.453125 
C 16.203125 7.765625 16.203125 3.09375 5.90625 3.09375 
L 5.90625 0 
C 9.40625 0.09375 14.296875 0.296875 17.59375 0.296875 
C 20.90625 0.296875 25.796875 0.09375 29.296875 0 
L 29.296875 3.09375 
C 19 3.09375 19 7.765625 19 10.453125 
L 19 64.296875 
L 19.09375 64.390625 
L 44.703125 1.796875 
C 45.09375 0.890625 45.59375 0 46.59375 0 
C 47.59375 0 48.09375 0.890625 48.5 1.796875 
z
" id="CMCSC10-77"/>
     </defs>
     <g transform="translate(424.094451 68.511535)scale(0.1 -0.1)">
      <use transform="scale(0.996264)" xlink:href="#CMCSC10-112"/>
      <use transform="translate(55.569158 0)scale(0.996264)" xlink:href="#CMCSC10-105"/>
      <use transform="translate(85.67837 0)scale(0.996264)" xlink:href="#CMCSC10-112"/>
      <use transform="translate(141.247528 0)scale(0.996264)" xlink:href="#CMCSC10-101"/>
      <use transform="translate(196.816686 0)scale(0.996264)" xlink:href="#CMCSC10-45"/>
      <use transform="translate(234.45297 0)scale(0.996264)" xlink:href="#CMCSC10-80"/>
      <use transform="translate(308.341796 0)scale(0.996264)" xlink:href="#CMCSC10-82"/>
      <use transform="translate(388.042172 0)scale(0.996264)" xlink:href="#CMCSC10-45"/>
      <use transform="translate(425.678456 0)scale(0.996264)" xlink:href="#CMCSC10-77"/>
      <use transform="translate(524.19692 0)scale(0.996264)" xlink:href="#CMCSC10-45"/>
      <use transform="translate(561.833204 0)scale(0.996264)" xlink:href="#CMCSC10-67"/>
      <use transform="translate(640.149929 0)scale(0.996264)" xlink:href="#CMCSC10-71"/>
     </g>
    </g>
    <g id="line2d_48">
     <path d="M 396.094451 78.948713 
L 416.094451 78.948713 
" style="fill:none;stroke:#6c71c4;stroke-linecap:square;stroke-width:1.5;"/>
    </g>
    <g id="line2d_49"/>
    <g id="text_22">
     <!-- \textsc{pipe-P-M-CG} -->
     <g transform="translate(424.094451 82.448713)scale(0.1 -0.1)">
      <use transform="scale(0.996264)" xlink:href="#CMCSC10-112"/>
      <use transform="translate(55.569158 0)scale(0.996264)" xlink:href="#CMCSC10-105"/>
      <use transform="translate(85.67837 0)scale(0.996264)" xlink:href="#CMCSC10-112"/>
      <use transform="translate(141.247528 0)scale(0.996264)" xlink:href="#CMCSC10-101"/>
      <use transform="translate(196.816686 0)scale(0.996264)" xlink:href="#CMCSC10-45"/>
      <use transform="translate(234.45297 0)scale(0.996264)" xlink:href="#CMCSC10-80"/>
      <use transform="translate(308.341796 0)scale(0.996264)" xlink:href="#CMCSC10-45"/>
      <use transform="translate(345.97808 0)scale(0.996264)" xlink:href="#CMCSC10-77"/>
      <use transform="translate(444.496544 0)scale(0.996264)" xlink:href="#CMCSC10-45"/>
      <use transform="translate(482.132828 0)scale(0.996264)" xlink:href="#CMCSC10-67"/>
      <use transform="translate(560.449553 0)scale(0.996264)" xlink:href="#CMCSC10-71"/>
     </g>
    </g>
    <g id="line2d_50">
     <path d="M 396.094451 92.885892 
L 416.094451 92.885892 
" style="fill:none;stroke:#93a1a1;stroke-linecap:square;stroke-width:1.5;"/>
    </g>
    <g id="line2d_51">
     <g>
      <use style="fill:#93a1a1;stroke:#93a1a1;stroke-linejoin:miter;" x="406.094451" xlink:href="#m0201317555" y="92.885892"/>
     </g>
    </g>
    <g id="text_23">
     <!-- GV-CG -->
     <defs>
      <path d="M 59 58.78125 
C 59.90625 60.984375 61.5 65.296875 68.203125 65.390625 
L 68.203125 68 
C 65.90625 67.796875 63.296875 67.796875 60.796875 67.796875 
C 58.40625 67.796875 54.296875 67.796875 52 68 
L 52 65.390625 
C 57 65.09375 57.203125 61.59375 57.203125 60.984375 
C 57.203125 59.890625 56.90625 59.1875 56.59375 58.390625 
L 36.90625 7 
L 16.296875 60.984375 
C 16 61.6875 15.796875 62.1875 15.796875 62.6875 
C 15.796875 65.390625 19.796875 65.390625 21.90625 65.390625 
L 21.90625 68 
C 18.703125 67.796875 14 67.796875 10.703125 67.796875 
C 8.09375 67.796875 3.40625 67.796875 1 68 
L 1 65.390625 
C 6.796875 65.390625 7.90625 65 9.09375 61.796875 
L 32.90625 -0.40625 
C 33.40625 -1.8125 33.5 -2 34.59375 -2 
C 35.703125 -2 35.796875 -1.8125 36.296875 -0.40625 
z
" id="CMR17-86"/>
     </defs>
     <g transform="translate(424.094451 96.385892)scale(0.1 -0.1)">
      <use transform="scale(0.996264)" xlink:href="#CMR17-71"/>
      <use transform="translate(72.355346 0)scale(0.996264)" xlink:href="#CMR17-86"/>
      <use transform="translate(141.427776 0)scale(0.996264)" xlink:href="#CMR17-45"/>
      <use transform="translate(171.503742 0)scale(0.996264)" xlink:href="#CMR17-67"/>
      <use transform="translate(238.013623 0)scale(0.996264)" xlink:href="#CMR17-71"/>
     </g>
    </g>
    <g id="line2d_52">
     <path d="M 396.094451 106.82307 
L 416.094451 106.82307 
" style="fill:none;stroke:#93a1a1;stroke-linecap:square;stroke-width:1.5;"/>
    </g>
    <g id="line2d_53">
     <g>
      <use style="fill:#93a1a1;stroke:#93a1a1;stroke-linejoin:miter;" x="406.094451" xlink:href="#m183ecdcdbc" y="106.82307"/>
     </g>
    </g>
    <g id="text_24">
     <!-- M-CG -->
     <defs>
      <path d="M 20.90625 66.390625 
C 20.296875 67.890625 20.203125 68 18.09375 68 
L 5.296875 68 
L 5.296875 65.390625 
C 12.203125 65.390625 13.296875 65.390625 13.296875 60.90625 
L 13.296875 9.75 
C 13.296875 7.265625 13.296875 2.59375 5.296875 2.59375 
L 5.296875 0 
C 7.59375 0.1875 11.796875 0.1875 14.296875 0.1875 
C 16.796875 0.1875 21 0.1875 23.296875 0 
L 23.296875 2.59375 
C 15.296875 2.59375 15.296875 7.265625 15.296875 9.75 
L 15.296875 64.984375 
L 15.40625 64.984375 
L 38.90625 1.59375 
C 39.296875 0.59375 39.5 0 40.296875 0 
C 41.09375 0 41.296875 0.59375 41.703125 1.59375 
L 65.40625 65.484375 
L 65.5 65.484375 
L 65.5 7.078125 
C 65.5 2.59375 64.40625 2.59375 57.5 2.59375 
L 57.5 0 
C 60.203125 0.1875 65.59375 0.1875 68.5 0.1875 
C 71.40625 0.1875 76.90625 0.1875 79.59375 0 
L 79.59375 2.59375 
C 72.703125 2.59375 71.59375 2.59375 71.59375 7.078125 
L 71.59375 60.90625 
C 71.59375 65.390625 72.703125 65.390625 79.59375 65.390625 
L 79.59375 68 
L 66.90625 68 
C 64.796875 68 64.703125 67.890625 64.09375 66.390625 
L 42.5 8.0625 
z
" id="CMR17-77"/>
     </defs>
     <g transform="translate(424.094451 110.32307)scale(0.1 -0.1)">
      <use transform="scale(0.996264)" xlink:href="#CMR17-77"/>
      <use transform="translate(84.686941 0)scale(0.996264)" xlink:href="#CMR17-45"/>
      <use transform="translate(114.762907 0)scale(0.996264)" xlink:href="#CMR17-67"/>
      <use transform="translate(181.272787 0)scale(0.996264)" xlink:href="#CMR17-71"/>
     </g>
    </g>
    <g id="line2d_54">
     <path d="M 396.094451 120.760248 
L 416.094451 120.760248 
" style="fill:none;stroke:#93a1a1;stroke-linecap:square;stroke-width:1.5;"/>
    </g>
    <g id="line2d_55">
     <g>
      <use style="fill:#93a1a1;stroke:#93a1a1;stroke-linejoin:miter;" x="406.094451" xlink:href="#m07baf60107" y="120.760248"/>
     </g>
    </g>
    <g id="text_25">
     <!-- CG-CG -->
     <g transform="translate(424.094451 124.260248)scale(0.1 -0.1)">
      <use transform="scale(0.996264)" xlink:href="#CMR17-67"/>
      <use transform="translate(66.509881 0)scale(0.996264)" xlink:href="#CMR17-71"/>
      <use transform="translate(138.865226 0)scale(0.996264)" xlink:href="#CMR17-45"/>
      <use transform="translate(168.941193 0)scale(0.996264)" xlink:href="#CMR17-67"/>
      <use transform="translate(235.451073 0)scale(0.996264)" xlink:href="#CMR17-71"/>
     </g>
    </g>
    <g id="line2d_56">
     <path d="M 396.094451 134.697427 
L 416.094451 134.697427 
" style="fill:none;stroke:#93a1a1;stroke-linecap:square;stroke-width:1.5;"/>
    </g>
    <g id="line2d_57">
     <g>
      <use style="fill:#93a1a1;stroke:#93a1a1;" x="406.094451" xlink:href="#m769cbc1868" y="134.697427"/>
     </g>
    </g>
    <g id="text_26">
     <!-- HS-CG -->
     <defs>
      <path d="M 56.09375 60.90625 
C 56.09375 65.390625 57.203125 65.390625 64.09375 65.390625 
L 64.09375 68 
C 61.203125 67.796875 55.90625 67.796875 52.796875 67.796875 
C 49.703125 67.796875 44.40625 67.796875 41.5 68 
L 41.5 65.390625 
C 48.40625 65.390625 49.5 65.390625 49.5 60.90625 
L 49.5 36.59375 
L 19.703125 36.59375 
L 19.703125 60.90625 
C 19.703125 65.390625 20.796875 65.390625 27.703125 65.390625 
L 27.703125 68 
C 24.796875 67.796875 19.5 67.796875 16.40625 67.796875 
C 13.296875 67.796875 8 67.796875 5.09375 68 
L 5.09375 65.390625 
C 12 65.390625 13.09375 65.390625 13.09375 60.90625 
L 13.09375 7.0625 
C 13.09375 2.59375 12 2.59375 5.09375 2.59375 
L 5.09375 0 
C 8 0.1875 13.296875 0.1875 16.40625 0.1875 
C 19.5 0.1875 24.796875 0.1875 27.703125 0 
L 27.703125 2.59375 
C 20.796875 2.59375 19.703125 2.59375 19.703125 7.0625 
L 19.703125 34 
L 49.5 34 
L 49.5 7.0625 
C 49.5 2.59375 48.40625 2.59375 41.5 2.59375 
L 41.5 0 
C 44.40625 0.1875 49.703125 0.1875 52.796875 0.1875 
C 55.90625 0.1875 61.203125 0.1875 64.09375 0 
L 64.09375 2.59375 
C 57.203125 2.59375 56.09375 2.59375 56.09375 7.0625 
z
" id="CMR17-72"/>
      <path d="M 43.796875 67.984375 
C 43.796875 69.796875 43.703125 69.890625 43.09375 69.890625 
C 42.5 69.890625 42.296875 69.484375 41.90625 68.59375 
L 38.90625 61.953125 
C 35.09375 67.5 29.296875 70 23 70 
C 12.796875 70 4.59375 61.84375 4.59375 51.578125 
C 4.59375 48.453125 5.296875 44.015625 8.703125 39.78125 
C 12.40625 35.15625 15.90625 34.34375 23.90625 32.234375 
C 26.90625 31.421875 31.90625 30.109375 32.90625 29.703125 
C 38.59375 27.296875 41.59375 21.25 41.59375 15.609375 
C 41.59375 8.34375 36.5 0.59375 27.796875 0.59375 
C 17.09375 0.59375 7.09375 6.640625 6.40625 20.75 
C 6.296875 22.359375 6.203125 22.453125 5.5 22.453125 
C 4.703125 22.453125 4.59375 22.359375 4.59375 20.34375 
L 4.59375 0 
C 4.59375 -1.8125 4.703125 -1.90625 5.296875 -1.90625 
C 6 -1.90625 6.203125 -1.40625 7.59375 1.703125 
C 7.703125 2 7.703125 2.203125 9.59375 6.03125 
C 14.59375 -0.609375 23 -2 27.796875 -2 
C 38.703125 -2 46.40625 7.140625 46.40625 17.828125 
C 46.40625 23.0625 44.5 27.09375 43.40625 28.90625 
C 39.203125 35.359375 34.703125 36.5625 29.90625 37.765625 
C 29.203125 38.078125 29 38.078125 23.40625 39.484375 
C 18 40.890625 15.703125 41.59375 13.203125 44.3125 
C 10.40625 47.4375 9.40625 50.671875 9.40625 53.890625 
C 9.40625 60.4375 14.59375 67.59375 23.09375 67.59375 
C 33.703125 67.59375 40.296875 60.03125 41.796875 47.4375 
C 42.09375 45.625 42.203125 45.53125 42.90625 45.53125 
C 43.796875 45.53125 43.796875 45.828125 43.796875 47.546875 
z
" id="CMR17-83"/>
     </defs>
     <g transform="translate(424.094451 138.197427)scale(0.1 -0.1)">
      <use transform="scale(0.996264)" xlink:href="#CMR17-72"/>
      <use transform="translate(69.07243 0)scale(0.996264)" xlink:href="#CMR17-83"/>
      <use transform="translate(119.9678 0)scale(0.996264)" xlink:href="#CMR17-45"/>
      <use transform="translate(150.043766 0)scale(0.996264)" xlink:href="#CMR17-67"/>
      <use transform="translate(216.553646 0)scale(0.996264)" xlink:href="#CMR17-71"/>
     </g>
    </g>
   </g>
  </g>
 </g>
 <defs>
  <clipPath id="pad512acd03">
   <rect height="221.76" width="334.8" x="52.294451" y="10.7"/>
  </clipPath>
 </defs>
</svg>
