<?xml version="1.0" encoding="utf-8" standalone="no"?>
<!DOCTYPE svg PUBLIC "-//W3C//DTD SVG 1.1//EN"
  "http://www.w3.org/Graphics/SVG/1.1/DTD/svg11.dtd">
<!-- Created with matplotlib (https://matplotlib.org/) -->
<svg height="268.371353pt" version="1.1" viewBox="0 0 507.791371 268.371353" width="507.791371pt" xmlns="http://www.w3.org/2000/svg" xmlns:xlink="http://www.w3.org/1999/xlink">
 <defs>
  <style type="text/css">
*{stroke-linecap:butt;stroke-linejoin:round;}
  </style>
 </defs>
 <g id="figure_1">
  <g id="patch_1">
   <path d="M -0 268.371353 
L 507.791371 268.371353 
L 507.791371 0 
L -0 0 
z
" style="fill:#ffffff;"/>
  </g>
  <g id="axes_1">
   <g id="patch_2">
    <path d="M 52.294451 232.46 
L 387.094451 232.46 
L 387.094451 10.7 
L 52.294451 10.7 
z
" style="fill:#ffffff;"/>
   </g>
   <g id="matplotlib.axis_1">
    <g id="xtick_1">
     <g id="line2d_1">
      <path clip-path="url(#p78c09869e4)" d="M 67.512633 232.46 
L 67.512633 10.7 
" style="fill:none;stroke:#b0b0b0;stroke-dasharray:0.8,1.32;stroke-dashoffset:0;stroke-width:0.8;"/>
     </g>
     <g id="line2d_2">
      <defs>
       <path d="M 0 0 
L 0 3.5 
" id="m1e55a6377d" style="stroke:#000000;stroke-width:0.8;"/>
      </defs>
      <g>
       <use style="stroke:#000000;stroke-width:0.8;" x="67.512633" xlink:href="#m1e55a6377d" y="232.46"/>
      </g>
     </g>
     <g id="text_1">
      <!-- $0$ -->
      <defs>
       <path d="M 42 31.84375 
C 42 37.96875 41.90625 48.421875 37.703125 56.453125 
C 34 63.484375 28.09375 66 22.90625 66 
C 18.09375 66 12 63.78125 8.203125 56.5625 
C 4.203125 49.015625 3.796875 39.671875 3.796875 31.84375 
C 3.796875 26.109375 3.90625 17.375 7 9.734375 
C 11.296875 -0.609375 19 -2 22.90625 -2 
C 27.5 -2 34.5 -0.109375 38.59375 9.4375 
C 41.59375 16.375 42 24.5 42 31.84375 
z
M 22.90625 -0.40625 
C 16.5 -0.40625 12.703125 5.125 11.296875 12.75 
C 10.203125 18.6875 10.203125 27.328125 10.203125 32.953125 
C 10.203125 40.6875 10.203125 47.109375 11.5 53.234375 
C 13.40625 61.78125 19 64.390625 22.90625 64.390625 
C 27 64.390625 32.296875 61.671875 34.203125 53.4375 
C 35.5 47.71875 35.59375 40.984375 35.59375 32.953125 
C 35.59375 26.421875 35.59375 18.375 34.40625 12.453125 
C 32.296875 1.5 26.40625 -0.40625 22.90625 -0.40625 
z
" id="CMR17-48"/>
      </defs>
      <g transform="translate(65.021965 246.378498)scale(0.1 -0.1)">
       <use transform="scale(0.996264)" xlink:href="#CMR17-48"/>
      </g>
     </g>
    </g>
    <g id="xtick_2">
     <g id="line2d_3">
      <path clip-path="url(#p78c09869e4)" d="M 128.629829 232.46 
L 128.629829 10.7 
" style="fill:none;stroke:#b0b0b0;stroke-dasharray:0.8,1.32;stroke-dashoffset:0;stroke-width:0.8;"/>
     </g>
     <g id="line2d_4">
      <g>
       <use style="stroke:#000000;stroke-width:0.8;" x="128.629829" xlink:href="#m1e55a6377d" y="232.46"/>
      </g>
     </g>
     <g id="text_2">
      <!-- $50$ -->
      <defs>
       <path d="M 11.40625 58.59375 
C 12.40625 58.1875 16.5 56.890625 20.703125 56.890625 
C 30 56.890625 35.09375 61.890625 38 64.6875 
C 38 65.484375 38 66 37.40625 66 
C 37.296875 66 37.09375 66 36.296875 65.59375 
C 32.796875 64.09375 28.703125 63 23.703125 63 
C 20.703125 63 16.203125 63.359375 11.296875 65.484375 
C 10.203125 66 10 66 9.90625 66 
C 9.40625 66 9.296875 65.890625 9.296875 63.90625 
L 9.296875 34.859375 
C 9.296875 33.015625 9.296875 32.5 10.296875 32.5 
C 10.796875 32.5 11 32.703125 11.5 33.421875 
C 14.703125 38.046875 19.09375 40 24.09375 40 
C 27.59375 40 35.09375 37.734375 35.09375 20.203125 
C 35.09375 16.984375 35.09375 11.1875 32.09375 6.59375 
C 29.59375 2.484375 25.703125 0.390625 21.40625 0.390625 
C 14.796875 0.390625 8.09375 4.984375 6.296875 12.6875 
C 6.703125 12.59375 7.5 12.390625 7.90625 12.390625 
C 9.203125 12.390625 11.703125 13.09375 11.703125 16.1875 
C 11.703125 18.890625 9.796875 20 7.90625 20 
C 5.59375 20 4.09375 18.59375 4.09375 15.796875 
C 4.09375 7.09375 11 -2 21.59375 -2 
C 31.90625 -2 41.703125 6.890625 41.703125 19.796875 
C 41.703125 32.09375 33.90625 41.59375 24.203125 41.59375 
C 19.09375 41.59375 14.796875 39.6875 11.40625 36 
z
" id="CMR17-53"/>
      </defs>
      <g transform="translate(123.648494 246.378498)scale(0.1 -0.1)">
       <use transform="scale(0.996264)" xlink:href="#CMR17-53"/>
       <use transform="translate(45.690477 0)scale(0.996264)" xlink:href="#CMR17-48"/>
      </g>
     </g>
    </g>
    <g id="xtick_3">
     <g id="line2d_5">
      <path clip-path="url(#p78c09869e4)" d="M 189.747025 232.46 
L 189.747025 10.7 
" style="fill:none;stroke:#b0b0b0;stroke-dasharray:0.8,1.32;stroke-dashoffset:0;stroke-width:0.8;"/>
     </g>
     <g id="line2d_6">
      <g>
       <use style="stroke:#000000;stroke-width:0.8;" x="189.747025" xlink:href="#m1e55a6377d" y="232.46"/>
      </g>
     </g>
     <g id="text_3">
      <!-- $100$ -->
      <defs>
       <path d="M 26.59375 63.796875 
C 26.59375 65.890625 26.5 66 25.09375 66 
C 21.203125 61.359375 15.296875 59.890625 9.703125 59.6875 
C 9.40625 59.6875 8.90625 59.6875 8.796875 59.5 
C 8.703125 59.296875 8.703125 59.09375 8.703125 57 
C 11.796875 57 17 57.59375 21 59.984375 
L 21 7.296875 
C 21 3.796875 20.796875 2.59375 12.203125 2.59375 
L 9.203125 2.59375 
L 9.203125 0 
C 14 0.09375 19 0.1875 23.796875 0.1875 
C 28.59375 0.1875 33.59375 0.09375 38.40625 0 
L 38.40625 2.59375 
L 35.40625 2.59375 
C 26.796875 2.59375 26.59375 3.6875 26.59375 7.296875 
z
" id="CMR17-49"/>
      </defs>
      <g transform="translate(182.275022 246.378498)scale(0.1 -0.1)">
       <use transform="scale(0.996264)" xlink:href="#CMR17-49"/>
       <use transform="translate(45.690477 0)scale(0.996264)" xlink:href="#CMR17-48"/>
       <use transform="translate(91.380954 0)scale(0.996264)" xlink:href="#CMR17-48"/>
      </g>
     </g>
    </g>
    <g id="xtick_4">
     <g id="line2d_7">
      <path clip-path="url(#p78c09869e4)" d="M 250.864221 232.46 
L 250.864221 10.7 
" style="fill:none;stroke:#b0b0b0;stroke-dasharray:0.8,1.32;stroke-dashoffset:0;stroke-width:0.8;"/>
     </g>
     <g id="line2d_8">
      <g>
       <use style="stroke:#000000;stroke-width:0.8;" x="250.864221" xlink:href="#m1e55a6377d" y="232.46"/>
      </g>
     </g>
     <g id="text_4">
      <!-- $150$ -->
      <g transform="translate(243.392218 246.378498)scale(0.1 -0.1)">
       <use transform="scale(0.996264)" xlink:href="#CMR17-49"/>
       <use transform="translate(45.690477 0)scale(0.996264)" xlink:href="#CMR17-53"/>
       <use transform="translate(91.380954 0)scale(0.996264)" xlink:href="#CMR17-48"/>
      </g>
     </g>
    </g>
    <g id="xtick_5">
     <g id="line2d_9">
      <path clip-path="url(#p78c09869e4)" d="M 311.981417 232.46 
L 311.981417 10.7 
" style="fill:none;stroke:#b0b0b0;stroke-dasharray:0.8,1.32;stroke-dashoffset:0;stroke-width:0.8;"/>
     </g>
     <g id="line2d_10">
      <g>
       <use style="stroke:#000000;stroke-width:0.8;" x="311.981417" xlink:href="#m1e55a6377d" y="232.46"/>
      </g>
     </g>
     <g id="text_5">
      <!-- $200$ -->
      <defs>
       <path d="M 41.703125 15.46875 
L 39.90625 15.46875 
C 38.90625 8.390625 38.09375 7.1875 37.703125 6.59375 
C 37.203125 5.796875 30 5.796875 28.59375 5.796875 
L 9.40625 5.796875 
C 13 9.6875 20 16.765625 28.5 24.9375 
C 34.59375 30.71875 41.703125 37.5 41.703125 47.390625 
C 41.703125 59.1875 32.296875 66 21.796875 66 
C 10.796875 66 4.09375 56.296875 4.09375 47.296875 
C 4.09375 43.390625 7 42.890625 8.203125 42.890625 
C 9.203125 42.890625 12.203125 43.484375 12.203125 46.984375 
C 12.203125 50.09375 9.59375 51 8.203125 51 
C 7.59375 51 7 50.890625 6.59375 50.6875 
C 8.5 59.1875 14.296875 63.390625 20.40625 63.390625 
C 29.09375 63.390625 34.796875 56.5 34.796875 47.390625 
C 34.796875 38.703125 29.703125 31.21875 24 24.734375 
L 4.09375 2.296875 
L 4.09375 0 
L 39.296875 0 
z
" id="CMR17-50"/>
      </defs>
      <g transform="translate(304.509414 246.378498)scale(0.1 -0.1)">
       <use transform="scale(0.996264)" xlink:href="#CMR17-50"/>
       <use transform="translate(45.690477 0)scale(0.996264)" xlink:href="#CMR17-48"/>
       <use transform="translate(91.380954 0)scale(0.996264)" xlink:href="#CMR17-48"/>
      </g>
     </g>
    </g>
    <g id="xtick_6">
     <g id="line2d_11">
      <path clip-path="url(#p78c09869e4)" d="M 373.098613 232.46 
L 373.098613 10.7 
" style="fill:none;stroke:#b0b0b0;stroke-dasharray:0.8,1.32;stroke-dashoffset:0;stroke-width:0.8;"/>
     </g>
     <g id="line2d_12">
      <g>
       <use style="stroke:#000000;stroke-width:0.8;" x="373.098613" xlink:href="#m1e55a6377d" y="232.46"/>
      </g>
     </g>
     <g id="text_6">
      <!-- $250$ -->
      <g transform="translate(365.62661 246.378498)scale(0.1 -0.1)">
       <use transform="scale(0.996264)" xlink:href="#CMR17-50"/>
       <use transform="translate(45.690477 0)scale(0.996264)" xlink:href="#CMR17-53"/>
       <use transform="translate(91.380954 0)scale(0.996264)" xlink:href="#CMR17-48"/>
      </g>
     </g>
    </g>
    <g id="text_7">
     <!-- iteration $k$ -->
     <defs>
      <path d="M 15.5 61.890625 
C 15.5 64.09375 13.703125 66 11.40625 66 
C 9.203125 66 7.296875 64.1875 7.296875 61.890625 
C 7.296875 59.6875 9.09375 57.796875 11.40625 57.796875 
C 13.59375 57.796875 15.5 59.59375 15.5 61.890625 
z
M 3.796875 42.890625 
L 3.796875 40.296875 
C 9.40625 40.296875 10.203125 39.6875 10.203125 34.859375 
L 10.203125 6.921875 
C 10.203125 3.09375 9.796875 2.59375 3.40625 2.59375 
L 3.40625 0 
C 5.796875 0.1875 10.09375 0.1875 12.59375 0.1875 
C 15 0.1875 19.09375 0.1875 21.40625 0 
L 21.40625 2.59375 
C 15.5 2.59375 15.296875 3.203125 15.296875 6.8125 
L 15.296875 44 
z
" id="CMR17-105"/>
      <path d="M 15.09375 40.390625 
L 29.09375 40.390625 
L 29.09375 43 
L 15.09375 43 
L 15.09375 62 
L 13.296875 62 
C 13.09375 51.4375 9.59375 42.1875 1.09375 41.984375 
L 1.09375 40.390625 
L 9.796875 40.390625 
L 9.796875 12.15625 
C 9.796875 10.234375 9.796875 -1 21.40625 -1 
C 27.296875 -1 30.703125 4.8125 30.703125 12.25 
L 30.703125 17.984375 
L 28.90625 17.984375 
L 28.90625 12.34375 
C 28.90625 5.421875 26.203125 0.796875 22 0.796875 
C 19.09375 0.796875 15.09375 2.796875 15.09375 11.953125 
z
" id="CMR17-116"/>
      <path d="M 38.09375 23.484375 
C 38.5 23.890625 38.5 24.09375 38.5 25.09375 
C 38.5 35.171875 33.09375 44 21.703125 44 
C 11.09375 44 2.703125 33.984375 2.703125 21.78125 
C 2.703125 8.65625 12.203125 -1 22.796875 -1 
C 34 -1 38.40625 9.671875 38.40625 11.796875 
C 38.40625 12.5 37.796875 12.5 37.59375 12.5 
C 36.90625 12.5 36.796875 12.296875 36.40625 11.078125 
C 34.203125 4.21875 28.703125 0.796875 23.5 0.796875 
C 19.203125 0.796875 14.90625 3.21875 12.203125 7.65625 
C 9.09375 12.796875 9.09375 18.75 9.09375 23.484375 
z
M 9.203125 25 
C 9.90625 39.234375 17.59375 42.390625 21.59375 42.390625 
C 28.40625 42.390625 33 36.0625 33.09375 25 
z
" id="CMR17-101"/>
      <path d="M 15 23.703125 
C 15 33.34375 19.09375 42.390625 26.59375 42.390625 
C 27.296875 42.390625 28 42.296875 28.703125 41.984375 
C 28.703125 41.984375 26.5 41.28125 26.5 38.671875 
C 26.5 36.265625 28.40625 35.265625 29.90625 35.265625 
C 31.09375 35.265625 33.296875 35.96875 33.296875 38.78125 
C 33.296875 41.984375 30.09375 44 26.703125 44 
C 19.09375 44 15.796875 36.5625 14.796875 33.046875 
L 14.703125 33.046875 
L 14.703125 44 
L 3.09375 42.890625 
L 3.09375 40.28125 
C 9 40.28125 9.90625 39.6875 9.90625 34.859375 
L 9.90625 6.921875 
C 9.90625 3.09375 9.5 2.59375 3.09375 2.59375 
L 3.09375 0 
C 5.5 0.1875 10.09375 0.1875 12.703125 0.1875 
C 15.59375 0.1875 20.703125 0.1875 23.40625 0 
L 23.40625 2.59375 
C 16.203125 2.59375 15 2.59375 15 7.109375 
z
" id="CMR17-114"/>
      <path d="M 36 25.875 
C 36 32 36 35.546875 31.796875 39.59375 
C 28.09375 42.984375 23.796875 44 20.40625 44 
C 12.5 44 6.796875 37.625 6.796875 30.890625 
C 6.796875 27.1875 9.796875 27 10.40625 27 
C 11.703125 27 14 27.796875 14 30.59375 
C 14 33.09375 12.09375 34.1875 10.40625 34.1875 
C 10 34.1875 9.5 34.09375 9.203125 34 
C 11.296875 40.53125 16.703125 42.390625 20.203125 42.390625 
C 25.203125 42.390625 30.703125 37.828125 30.703125 29.296875 
L 30.703125 25.5 
C 24.796875 25.296875 17.703125 24.5 12.09375 21.453125 
C 5.796875 17.921875 4 12.84375 4 9 
C 4 1.203125 13 -1 18.296875 -1 
C 23.796875 -1 28.90625 2.109375 31.09375 7.890625 
C 31.296875 3.421875 34.09375 -0.609375 38.5 -0.609375 
C 40.59375 -0.609375 45.90625 0.796875 45.90625 8.796875 
L 45.90625 14.46875 
L 44.09375 14.46875 
L 44.09375 8.703125 
C 44.09375 2.515625 41.40625 1.703125 40.09375 1.703125 
C 36 1.703125 36 6.96875 36 11.4375 
z
M 30.703125 13.859375 
C 30.703125 5.046875 24.5 0.59375 19 0.59375 
C 14 0.59375 10.09375 4.34375 10.09375 9 
C 10.09375 12.046875 11.40625 17.40625 17.203125 20.65625 
C 22 23.390625 27.5 23.796875 30.703125 24 
z
" id="CMR17-97"/>
      <path d="M 43.09375 21.1875 
C 43.09375 34 33.796875 44 22.90625 44 
C 12 44 2.703125 34 2.703125 21.1875 
C 2.703125 8.59375 12 -1 22.90625 -1 
C 33.796875 -1 43.09375 8.59375 43.09375 21.1875 
z
M 22.90625 0.796875 
C 18.203125 0.796875 14.203125 3.59375 11.90625 7.5 
C 9.40625 12 9.09375 17.59375 9.09375 22 
C 9.09375 26.1875 9.296875 31.390625 11.90625 35.890625 
C 13.90625 39.1875 17.796875 42.390625 22.90625 42.390625 
C 27.40625 42.390625 31.203125 39.890625 33.59375 36.390625 
C 36.703125 31.6875 36.703125 25.09375 36.703125 22 
C 36.703125 18.09375 36.5 12.09375 33.796875 7.296875 
C 31 2.6875 26.703125 0.796875 22.90625 0.796875 
z
" id="CMR17-111"/>
      <path d="M 41.5 30.53125 
C 41.5 35.65625 40.5 44 28.703125 44 
C 20.796875 44 16.703125 37.875 15.203125 33.84375 
L 15.09375 33.84375 
L 15.09375 44 
L 3.296875 42.890625 
L 3.296875 40.28125 
C 9.203125 40.28125 10.09375 39.6875 10.09375 34.859375 
L 10.09375 6.921875 
C 10.09375 3.09375 9.703125 2.59375 3.296875 2.59375 
L 3.296875 0 
C 5.703125 0.1875 10.09375 0.1875 12.703125 0.1875 
C 15.296875 0.1875 19.796875 0.1875 22.203125 0 
L 22.203125 2.59375 
C 15.796875 2.59375 15.40625 3 15.40625 6.921875 
L 15.40625 26.21875 
C 15.40625 35.453125 21 42.390625 28 42.390625 
C 35.40625 42.390625 36.203125 35.765625 36.203125 30.9375 
L 36.203125 6.921875 
C 36.203125 3.09375 35.796875 2.59375 29.40625 2.59375 
L 29.40625 0 
C 31.796875 0.1875 36.203125 0.1875 38.796875 0.1875 
C 41.40625 0.1875 45.90625 0.1875 48.296875 0 
L 48.296875 2.59375 
C 41.90625 2.59375 41.5 3 41.5 6.921875 
z
" id="CMR17-110"/>
      <path d="M 28.09375 66.484375 
C 28.203125 66.890625 28.40625 67.484375 28.40625 67.984375 
C 28.40625 69 27.40625 69 27.203125 69 
C 27.09375 69 23.5 68.6875 21.703125 68.484375 
C 20 68.390625 18.5 68.1875 16.703125 68.09375 
C 14.296875 67.890625 13.59375 67.796875 13.59375 65.984375 
C 13.59375 64.984375 14.59375 64.984375 15.59375 64.984375 
C 20.703125 64.984375 20.703125 64.109375 20.703125 63.125 
C 20.703125 62.71875 20.703125 62.53125 20.203125 60.75 
L 5.90625 3.90625 
C 5.5 2.390625 5.5 2.203125 5.5 1.59375 
C 5.5 -0.609375 7.203125 -1 8.203125 -1 
C 11 -1 11.59375 1.1875 12.40625 4.296875 
L 17.09375 23.0625 
C 24.296875 22.265625 28.59375 19.25 28.59375 14.4375 
C 28.59375 13.828125 28.59375 13.4375 28.296875 11.921875 
C 27.90625 10.421875 27.90625 9.21875 27.90625 8.71875 
C 27.90625 2.890625 31.703125 -1 36.796875 -1 
C 41.40625 -1 43.796875 3.203125 44.59375 4.609375 
C 46.703125 8.3125 48 13.9375 48 14.328125 
C 48 14.828125 47.59375 15.234375 47 15.234375 
C 46.09375 15.234375 46 14.828125 45.59375 13.234375 
C 44.203125 8.015625 42.09375 1 37 1 
C 35 1 33.703125 2 33.703125 5.8125 
C 33.703125 7.71875 34.09375 9.921875 34.5 11.421875 
C 34.90625 13.234375 34.90625 13.328125 34.90625 14.53125 
C 34.90625 20.453125 29.59375 23.765625 20.40625 24.96875 
C 24 27.171875 27.59375 31.078125 29 32.59375 
C 34.703125 38.984375 38.59375 41.984375 43.203125 41.984375 
C 45.5 41.984375 46.09375 41.484375 46.796875 41 
C 43.09375 40.59375 41.703125 37.984375 41.703125 35.984375 
C 41.703125 33.59375 43.59375 32.796875 45 32.796875 
C 47.703125 32.796875 50.09375 35.09375 50.09375 38.296875 
C 50.09375 41.15625 47.796875 44 43.296875 44 
C 37.796875 44 33.296875 40.296875 26.203125 32.296875 
C 25.203125 31.078125 21.5 27.28125 17.796875 25.875 
z
" id="CMMI12-107"/>
     </defs>
     <g transform="translate(196.885256 259.234175)scale(0.1 -0.1)">
      <use transform="scale(0.996264)" xlink:href="#CMR17-105"/>
      <use transform="translate(24.871058 0)scale(0.996264)" xlink:href="#CMR17-116"/>
      <use transform="translate(60.151826 0)scale(0.996264)" xlink:href="#CMR17-101"/>
      <use transform="translate(100.637487 0)scale(0.996264)" xlink:href="#CMR17-114"/>
      <use transform="translate(135.918255 0)scale(0.996264)" xlink:href="#CMR17-97"/>
      <use transform="translate(181.608732 0)scale(0.996264)" xlink:href="#CMR17-116"/>
      <use transform="translate(216.889499 0)scale(0.996264)" xlink:href="#CMR17-105"/>
      <use transform="translate(241.760558 0)scale(0.996264)" xlink:href="#CMR17-111"/>
      <use transform="translate(287.451035 0)scale(0.996264)" xlink:href="#CMR17-110"/>
      <use transform="translate(368.422371 0)scale(0.996264)" xlink:href="#CMMI12-107"/>
     </g>
    </g>
   </g>
   <g id="matplotlib.axis_2">
    <g id="ytick_1">
     <g id="line2d_13">
      <path clip-path="url(#p78c09869e4)" d="M 52.294451 232.46 
L 387.094451 232.46 
" style="fill:none;stroke:#b0b0b0;stroke-dasharray:0.8,1.32;stroke-dashoffset:0;stroke-width:0.8;"/>
     </g>
     <g id="line2d_14">
      <defs>
       <path d="M 0 0 
L -3.5 0 
" id="m11f346d062" style="stroke:#000000;stroke-width:0.8;"/>
      </defs>
      <g>
       <use style="stroke:#000000;stroke-width:0.8;" x="52.294451" xlink:href="#m11f346d062" y="232.46"/>
      </g>
     </g>
     <g id="text_8">
      <!-- $10^{-16}$ -->
      <defs>
       <path d="M 65.90625 23 
C 67.59375 23 69.40625 23 69.40625 25 
C 69.40625 27 67.59375 27 65.90625 27 
L 11.796875 27 
C 10.09375 27 8.296875 27 8.296875 25 
C 8.296875 23 10.09375 23 11.796875 23 
z
" id="CMSY10-0"/>
       <path d="M 10.59375 34.34375 
C 10.59375 58 21.796875 63.6875 28.296875 63.6875 
C 30.40625 63.6875 35.5 63.265625 37.5 59.09375 
C 35.90625 59.09375 32.90625 59.09375 32.90625 55.59375 
C 32.90625 52.890625 35.09375 52 36.5 52 
C 37.40625 52 40.09375 52.390625 40.09375 55.796875 
C 40.09375 62.296875 35.09375 66 28.203125 66 
C 16.296875 66 3.796875 53.296875 3.796875 31.421875 
C 3.796875 4.015625 15.09375 -2 23.09375 -2 
C 32.796875 -2 42 6.734375 42 20.234375 
C 42 32.828125 33.90625 42 23.703125 42 
C 17.59375 42 13.09375 37.96875 10.59375 30.921875 
z
M 23.09375 0.390625 
C 10.796875 0.390625 10.796875 18.9375 10.796875 22.65625 
C 10.796875 29.90625 14.203125 40.390625 23.5 40.390625 
C 25.203125 40.390625 30.09375 40.390625 33.40625 33.4375 
C 35.203125 29.515625 35.203125 25.375 35.203125 20.34375 
C 35.203125 14.90625 35.203125 10.875 33.09375 6.84375 
C 30.90625 2.703125 27.703125 0.390625 23.09375 0.390625 
z
" id="CMR17-54"/>
      </defs>
      <g transform="translate(21.16264 235.919249)scale(0.1 -0.1)">
       <use transform="scale(0.996264)" xlink:href="#CMR17-49"/>
       <use transform="translate(45.690477 0)scale(0.996264)" xlink:href="#CMR17-48"/>
       <use transform="translate(91.380954 36.153639)scale(0.697382)" xlink:href="#CMSY10-0"/>
       <use transform="translate(145.621947 36.153639)scale(0.697382)" xlink:href="#CMR17-49"/>
       <use transform="translate(177.605129 36.153639)scale(0.697382)" xlink:href="#CMR17-54"/>
      </g>
     </g>
    </g>
    <g id="ytick_2">
     <g id="line2d_15">
      <path clip-path="url(#p78c09869e4)" d="M 52.294451 205.900278 
L 387.094451 205.900278 
" style="fill:none;stroke:#b0b0b0;stroke-dasharray:0.8,1.32;stroke-dashoffset:0;stroke-width:0.8;"/>
     </g>
     <g id="line2d_16">
      <g>
       <use style="stroke:#000000;stroke-width:0.8;" x="52.294451" xlink:href="#m11f346d062" y="205.900278"/>
      </g>
     </g>
     <g id="text_9">
      <!-- $10^{-14}$ -->
      <defs>
       <path d="M 33.59375 64.796875 
C 33.59375 66.890625 33.5 67 31.703125 67 
L 2 19.59375 
L 2 17 
L 27.796875 17 
L 27.796875 7.1875 
C 27.796875 3.59375 27.59375 2.59375 20.59375 2.59375 
L 18.703125 2.59375 
L 18.703125 0 
C 21.90625 0.1875 27.296875 0.1875 30.703125 0.1875 
C 34.09375 0.1875 39.5 0.1875 42.703125 0 
L 42.703125 2.59375 
L 40.796875 2.59375 
C 33.796875 2.59375 33.59375 3.59375 33.59375 7.1875 
L 33.59375 17 
L 43.796875 17 
L 43.796875 19.59375 
L 33.59375 19.59375 
z
M 28.09375 58.171875 
L 28.09375 19.59375 
L 4 19.59375 
z
" id="CMR17-52"/>
      </defs>
      <g transform="translate(21.16264 209.359527)scale(0.1 -0.1)">
       <use transform="scale(0.996264)" xlink:href="#CMR17-49"/>
       <use transform="translate(45.690477 0)scale(0.996264)" xlink:href="#CMR17-48"/>
       <use transform="translate(91.380954 36.153639)scale(0.697382)" xlink:href="#CMSY10-0"/>
       <use transform="translate(145.621947 36.153639)scale(0.697382)" xlink:href="#CMR17-49"/>
       <use transform="translate(177.605129 36.153639)scale(0.697382)" xlink:href="#CMR17-52"/>
      </g>
     </g>
    </g>
    <g id="ytick_3">
     <g id="line2d_17">
      <path clip-path="url(#p78c09869e4)" d="M 52.294451 179.340556 
L 387.094451 179.340556 
" style="fill:none;stroke:#b0b0b0;stroke-dasharray:0.8,1.32;stroke-dashoffset:0;stroke-width:0.8;"/>
     </g>
     <g id="line2d_18">
      <g>
       <use style="stroke:#000000;stroke-width:0.8;" x="52.294451" xlink:href="#m11f346d062" y="179.340556"/>
      </g>
     </g>
     <g id="text_10">
      <!-- $10^{-12}$ -->
      <g transform="translate(21.16264 182.799805)scale(0.1 -0.1)">
       <use transform="scale(0.996264)" xlink:href="#CMR17-49"/>
       <use transform="translate(45.690477 0)scale(0.996264)" xlink:href="#CMR17-48"/>
       <use transform="translate(91.380954 36.153639)scale(0.697382)" xlink:href="#CMSY10-0"/>
       <use transform="translate(145.621947 36.153639)scale(0.697382)" xlink:href="#CMR17-49"/>
       <use transform="translate(177.605129 36.153639)scale(0.697382)" xlink:href="#CMR17-50"/>
      </g>
     </g>
    </g>
    <g id="ytick_4">
     <g id="line2d_19">
      <path clip-path="url(#p78c09869e4)" d="M 52.294451 152.780834 
L 387.094451 152.780834 
" style="fill:none;stroke:#b0b0b0;stroke-dasharray:0.8,1.32;stroke-dashoffset:0;stroke-width:0.8;"/>
     </g>
     <g id="line2d_20">
      <g>
       <use style="stroke:#000000;stroke-width:0.8;" x="52.294451" xlink:href="#m11f346d062" y="152.780834"/>
      </g>
     </g>
     <g id="text_11">
      <!-- $10^{-10}$ -->
      <g transform="translate(21.16264 156.240083)scale(0.1 -0.1)">
       <use transform="scale(0.996264)" xlink:href="#CMR17-49"/>
       <use transform="translate(45.690477 0)scale(0.996264)" xlink:href="#CMR17-48"/>
       <use transform="translate(91.380954 36.153639)scale(0.697382)" xlink:href="#CMSY10-0"/>
       <use transform="translate(145.621947 36.153639)scale(0.697382)" xlink:href="#CMR17-49"/>
       <use transform="translate(177.605129 36.153639)scale(0.697382)" xlink:href="#CMR17-48"/>
      </g>
     </g>
    </g>
    <g id="ytick_5">
     <g id="line2d_21">
      <path clip-path="url(#p78c09869e4)" d="M 52.294451 126.221112 
L 387.094451 126.221112 
" style="fill:none;stroke:#b0b0b0;stroke-dasharray:0.8,1.32;stroke-dashoffset:0;stroke-width:0.8;"/>
     </g>
     <g id="line2d_22">
      <g>
       <use style="stroke:#000000;stroke-width:0.8;" x="52.294451" xlink:href="#m11f346d062" y="126.221112"/>
      </g>
     </g>
     <g id="text_12">
      <!-- $10^{-8}$ -->
      <defs>
       <path d="M 27.203125 35.765625 
C 33.5 38.96875 39.90625 43.796875 39.90625 51.53125 
C 39.90625 60.6875 31.09375 66 23 66 
C 13.90625 66 5.90625 59.375 5.90625 50.234375 
C 5.90625 47.71875 6.5 43.390625 10.40625 39.578125 
C 11.40625 38.578125 15.59375 35.5625 18.296875 33.65625 
C 13.796875 31.34375 3.296875 25.8125 3.296875 14.765625 
C 3.296875 4.40625 13.09375 -2 22.796875 -2 
C 33.5 -2 42.5 5.71875 42.5 15.96875 
C 42.5 25.109375 36.40625 29.328125 32.40625 32.046875 
z
M 14.09375 44.609375 
C 13.296875 45.109375 9.296875 48.21875 9.296875 52.9375 
C 9.296875 59.078125 15.59375 63.6875 22.796875 63.6875 
C 30.703125 63.6875 36.5 58.0625 36.5 51.53125 
C 36.5 42.1875 26.09375 36.859375 25.59375 36.859375 
C 25.5 36.859375 25.40625 36.859375 24.59375 37.46875 
z
M 32.5 24 
C 34 22.90625 38.796875 19.578125 38.796875 13.453125 
C 38.796875 6.015625 31.40625 0.390625 23 0.390625 
C 13.90625 0.390625 7 6.921875 7 14.859375 
C 7 22.796875 13.09375 29.4375 20 32.546875 
z
" id="CMR17-56"/>
      </defs>
      <g transform="translate(25.133878 129.680361)scale(0.1 -0.1)">
       <use transform="scale(0.996264)" xlink:href="#CMR17-49"/>
       <use transform="translate(45.690477 0)scale(0.996264)" xlink:href="#CMR17-48"/>
       <use transform="translate(91.380954 36.153639)scale(0.697382)" xlink:href="#CMSY10-0"/>
       <use transform="translate(145.621947 36.153639)scale(0.697382)" xlink:href="#CMR17-56"/>
      </g>
     </g>
    </g>
    <g id="ytick_6">
     <g id="line2d_23">
      <path clip-path="url(#p78c09869e4)" d="M 52.294451 99.66139 
L 387.094451 99.66139 
" style="fill:none;stroke:#b0b0b0;stroke-dasharray:0.8,1.32;stroke-dashoffset:0;stroke-width:0.8;"/>
     </g>
     <g id="line2d_24">
      <g>
       <use style="stroke:#000000;stroke-width:0.8;" x="52.294451" xlink:href="#m11f346d062" y="99.66139"/>
      </g>
     </g>
     <g id="text_13">
      <!-- $10^{-6}$ -->
      <g transform="translate(25.133878 103.120639)scale(0.1 -0.1)">
       <use transform="scale(0.996264)" xlink:href="#CMR17-49"/>
       <use transform="translate(45.690477 0)scale(0.996264)" xlink:href="#CMR17-48"/>
       <use transform="translate(91.380954 36.153639)scale(0.697382)" xlink:href="#CMSY10-0"/>
       <use transform="translate(145.621947 36.153639)scale(0.697382)" xlink:href="#CMR17-54"/>
      </g>
     </g>
    </g>
    <g id="ytick_7">
     <g id="line2d_25">
      <path clip-path="url(#p78c09869e4)" d="M 52.294451 73.101668 
L 387.094451 73.101668 
" style="fill:none;stroke:#b0b0b0;stroke-dasharray:0.8,1.32;stroke-dashoffset:0;stroke-width:0.8;"/>
     </g>
     <g id="line2d_26">
      <g>
       <use style="stroke:#000000;stroke-width:0.8;" x="52.294451" xlink:href="#m11f346d062" y="73.101668"/>
      </g>
     </g>
     <g id="text_14">
      <!-- $10^{-4}$ -->
      <g transform="translate(25.133878 76.560918)scale(0.1 -0.1)">
       <use transform="scale(0.996264)" xlink:href="#CMR17-49"/>
       <use transform="translate(45.690477 0)scale(0.996264)" xlink:href="#CMR17-48"/>
       <use transform="translate(91.380954 36.153639)scale(0.697382)" xlink:href="#CMSY10-0"/>
       <use transform="translate(145.621947 36.153639)scale(0.697382)" xlink:href="#CMR17-52"/>
      </g>
     </g>
    </g>
    <g id="ytick_8">
     <g id="line2d_27">
      <path clip-path="url(#p78c09869e4)" d="M 52.294451 46.541946 
L 387.094451 46.541946 
" style="fill:none;stroke:#b0b0b0;stroke-dasharray:0.8,1.32;stroke-dashoffset:0;stroke-width:0.8;"/>
     </g>
     <g id="line2d_28">
      <g>
       <use style="stroke:#000000;stroke-width:0.8;" x="52.294451" xlink:href="#m11f346d062" y="46.541946"/>
      </g>
     </g>
     <g id="text_15">
      <!-- $10^{-2}$ -->
      <g transform="translate(25.133878 50.001196)scale(0.1 -0.1)">
       <use transform="scale(0.996264)" xlink:href="#CMR17-49"/>
       <use transform="translate(45.690477 0)scale(0.996264)" xlink:href="#CMR17-48"/>
       <use transform="translate(91.380954 36.153639)scale(0.697382)" xlink:href="#CMSY10-0"/>
       <use transform="translate(145.621947 36.153639)scale(0.697382)" xlink:href="#CMR17-50"/>
      </g>
     </g>
    </g>
    <g id="ytick_9">
     <g id="line2d_29">
      <path clip-path="url(#p78c09869e4)" d="M 52.294451 19.982224 
L 387.094451 19.982224 
" style="fill:none;stroke:#b0b0b0;stroke-dasharray:0.8,1.32;stroke-dashoffset:0;stroke-width:0.8;"/>
     </g>
     <g id="line2d_30">
      <g>
       <use style="stroke:#000000;stroke-width:0.8;" x="52.294451" xlink:href="#m11f346d062" y="19.982224"/>
      </g>
     </g>
     <g id="text_16">
      <!-- $10^{0}$ -->
      <g transform="translate(31.360543 23.441474)scale(0.1 -0.1)">
       <use transform="scale(0.996264)" xlink:href="#CMR17-49"/>
       <use transform="translate(45.690477 0)scale(0.996264)" xlink:href="#CMR17-48"/>
       <use transform="translate(91.380954 36.153639)scale(0.697382)" xlink:href="#CMR17-48"/>
      </g>
     </g>
    </g>
    <g id="text_17">
     <!-- $\mathbf{A}$-norm of error: $\| \mathbf{x}-\mathbf{x}_k \|_\mathbf{A}$ -->
     <defs>
      <path d="M 45.796875 67.703125 
C 45.09375 69.5 44.90625 70 42.5 70 
C 40 70 39.796875 69.5 39.09375 67.703125 
L 14.296875 6.703125 
C 13.59375 5.09375 13.59375 4.890625 10.796875 4.59375 
C 8.296875 4.296875 7.90625 4.296875 5.703125 4.296875 
L 3.90625 4.296875 
L 3.90625 0 
C 6.5 0.1875 12.5 0.1875 15.40625 0.1875 
C 18.09375 0.1875 25.40625 0.1875 27.703125 0 
L 27.703125 4.296875 
C 25.5 4.296875 21.703125 4.296875 18.90625 5.40625 
C 19.203125 6.3125 19.203125 6.5 19.40625 6.90625 
L 24.703125 20 
L 51.5 20 
L 57.796875 4.296875 
L 48.40625 4.296875 
L 48.40625 0 
C 51.59375 0.1875 61.296875 0.1875 65.09375 0.1875 
C 68.296875 0.1875 78.5 0.1875 81 0 
L 81 4.296875 
L 71.5 4.296875 
z
M 38.09375 53.03125 
L 49.703125 24.296875 
L 26.40625 24.296875 
z
" id="CMBX12-65"/>
      <path d="M 25.5 19.59375 
L 25.5 24 
L 0.40625 24 
L 0.40625 19.59375 
z
" id="CMR17-45"/>
      <path d="M 67.59375 30.53125 
C 67.59375 35.5625 66.703125 44 54.796875 44 
C 48 44 43.296875 39.375 41.5 33.953125 
L 41.40625 33.953125 
C 40.203125 42.1875 34.296875 44 28.703125 44 
C 20.796875 44 16.703125 37.875 15.203125 33.84375 
L 15.09375 33.84375 
L 15.09375 44 
L 3.296875 42.890625 
L 3.296875 40.28125 
C 9.203125 40.28125 10.09375 39.6875 10.09375 34.859375 
L 10.09375 6.921875 
C 10.09375 3.09375 9.703125 2.59375 3.296875 2.59375 
L 3.296875 0 
C 5.703125 0.1875 10.09375 0.1875 12.703125 0.1875 
C 15.296875 0.1875 19.796875 0.1875 22.203125 0 
L 22.203125 2.59375 
C 15.796875 2.59375 15.40625 3 15.40625 6.921875 
L 15.40625 26.21875 
C 15.40625 35.453125 21 42.390625 28 42.390625 
C 35.40625 42.390625 36.203125 35.765625 36.203125 30.9375 
L 36.203125 6.921875 
C 36.203125 3.09375 35.796875 2.59375 29.40625 2.59375 
L 29.40625 0 
C 31.796875 0.1875 36.203125 0.1875 38.796875 0.1875 
C 41.40625 0.1875 45.90625 0.1875 48.296875 0 
L 48.296875 2.59375 
C 41.90625 2.59375 41.5 3 41.5 6.921875 
L 41.5 26.21875 
C 41.5 35.453125 47.09375 42.390625 54.09375 42.390625 
C 61.5 42.390625 62.296875 35.765625 62.296875 30.9375 
L 62.296875 6.921875 
C 62.296875 3.09375 61.90625 2.59375 55.5 2.59375 
L 55.5 0 
C 57.90625 0.1875 62.296875 0.1875 64.90625 0.1875 
C 67.5 0.1875 72 0.1875 74.40625 0 
L 74.40625 2.59375 
C 68 2.59375 67.59375 3 67.59375 6.921875 
z
" id="CMR17-109"/>
      <path d="M 15.296875 40.390625 
L 26.703125 40.390625 
L 26.703125 43 
L 15.09375 43 
L 15.09375 55.296875 
C 15.09375 63.6875 19.296875 68.390625 23.59375 68.390625 
C 24.90625 68.390625 26.40625 68.171875 27.40625 67.796875 
C 26.59375 67.59375 24.5 66.890625 24.5 64.390625 
C 24.5 61.796875 26.5 61 27.90625 61 
C 29.296875 61 31.296875 61.796875 31.296875 64.390625 
C 31.296875 68.015625 27.703125 70 23.703125 70 
C 18 70 10.203125 65.796875 10.203125 55.09375 
L 10.203125 43 
L 2.203125 43 
L 2.203125 40.390625 
L 10.203125 40.390625 
L 10.203125 6.890625 
C 10.203125 3.09375 9.796875 2.59375 3.40625 2.59375 
L 3.40625 0 
C 5.796875 0.1875 10.40625 0.1875 13 0.1875 
C 15.90625 0.1875 21 0.1875 23.703125 0 
L 23.703125 2.59375 
C 16.5 2.59375 15.296875 2.59375 15.296875 7.09375 
z
" id="CMR17-102"/>
      <path d="M 16.59375 38.890625 
C 16.59375 41.390625 14.59375 43 12.5 43 
C 10.5 43 8.40625 41.390625 8.40625 38.890625 
C 8.40625 36.390625 10.40625 34.796875 12.5 34.796875 
C 14.5 34.796875 16.59375 36.390625 16.59375 38.890625 
z
M 16.59375 4.09375 
C 16.59375 6.59375 14.59375 8.1875 12.5 8.1875 
C 10.5 8.1875 8.40625 6.59375 8.40625 4.09375 
C 8.40625 1.59375 10.40625 0 12.5 0 
C 14.5 0 16.59375 1.59375 16.59375 4.09375 
z
" id="CMR17-58"/>
      <path d="M 17.203125 71.59375 
C 17.203125 73.1875 17.203125 75 15.203125 75 
C 13.203125 75 13.203125 72.796875 13.203125 71.296875 
L 13.203125 -21.3125 
C 13.203125 -22.90625 13.203125 -25 15.203125 -25 
C 17.203125 -25 17.203125 -23.203125 17.203125 -21.609375 
z
M 36.703125 71.296875 
C 36.703125 72.890625 36.703125 75 34.703125 75 
C 32.703125 75 32.703125 73.1875 32.703125 71.59375 
L 32.703125 -21.609375 
C 32.703125 -23.203125 32.703125 -25 34.703125 -25 
C 36.703125 -25 36.703125 -22.8125 36.703125 -21.3125 
z
" id="CMSY10-107"/>
      <path d="M 33.703125 24.46875 
L 45.296875 37.609375 
C 46.40625 38.90625 47.296875 39.6875 55.59375 39.6875 
L 55.59375 44 
C 50 43.796875 49.796875 43.796875 46.40625 43.796875 
C 43.5 43.796875 39.203125 43.796875 36.40625 44 
L 36.40625 39.6875 
C 38.296875 39.6875 40.40625 39.203125 40.40625 38.5 
C 40.40625 38.3125 39.90625 37.609375 39.703125 37.421875 
L 31 27.71875 
L 21.09375 39.6875 
L 25.296875 39.6875 
L 25.296875 44 
C 23 43.796875 16.203125 43.796875 13.5 43.796875 
C 10.5 43.796875 5.09375 43.796875 2.296875 44 
L 2.296875 39.6875 
L 9.40625 39.6875 
L 25 20.90625 
L 12 6.375 
C 10.796875 4.984375 10.09375 4.296875 1.796875 4.296875 
L 1.796875 0 
C 7.796875 0.1875 8 0.1875 11.09375 0.1875 
C 14 0.1875 18.203125 0.1875 21 0 
L 21 4.296875 
C 19.09375 4.296875 17 4.78125 17 5.484375 
C 17 5.578125 17 5.671875 17.703125 6.46875 
L 27.703125 17.640625 
L 38.796875 4.296875 
L 34.59375 4.296875 
L 34.59375 0 
C 37 0.1875 43.703125 0.1875 46.5 0.1875 
C 49.5 0.1875 54.796875 0.1875 57.59375 0 
L 57.59375 4.296875 
L 50.59375 4.296875 
z
" id="CMBX12-120"/>
     </defs>
     <g transform="translate(15.225462 183.362537)rotate(-90)scale(0.1 -0.1)">
      <use transform="translate(0 14.943915)scale(0.996264)" xlink:href="#CMBX12-65"/>
      <use transform="translate(84.636395 14.943915)scale(0.996264)" xlink:href="#CMR17-45"/>
      <use transform="translate(114.712361 14.943915)scale(0.996264)" xlink:href="#CMR17-110"/>
      <use transform="translate(165.607731 14.943915)scale(0.996264)" xlink:href="#CMR17-111"/>
      <use transform="translate(211.298208 14.943915)scale(0.996264)" xlink:href="#CMR17-114"/>
      <use transform="translate(246.578976 14.943915)scale(0.996264)" xlink:href="#CMR17-109"/>
      <use transform="translate(353.574532 14.943915)scale(0.996264)" xlink:href="#CMR17-111"/>
      <use transform="translate(399.265009 14.943915)scale(0.996264)" xlink:href="#CMR17-102"/>
      <use transform="translate(456.814488 14.943915)scale(0.996264)" xlink:href="#CMR17-101"/>
      <use transform="translate(497.300148 14.943915)scale(0.996264)" xlink:href="#CMR17-114"/>
      <use transform="translate(532.580916 14.943915)scale(0.996264)" xlink:href="#CMR17-114"/>
      <use transform="translate(567.861684 14.943915)scale(0.996264)" xlink:href="#CMR17-111"/>
      <use transform="translate(613.552161 14.943915)scale(0.996264)" xlink:href="#CMR17-114"/>
      <use transform="translate(648.832929 14.943915)scale(0.996264)" xlink:href="#CMR17-58"/>
      <use transform="translate(714.189648 14.943915)scale(0.996264)" xlink:href="#CMSY10-107"/>
      <use transform="translate(764.003031 14.943915)scale(0.996264)" xlink:href="#CMBX12-120"/>
      <use transform="translate(845.295413 14.943915)scale(0.996264)" xlink:href="#CMSY10-0"/>
      <use transform="translate(944.922088 14.943915)scale(0.996264)" xlink:href="#CMBX12-120"/>
      <use transform="translate(1004.075263 0)scale(0.697382)" xlink:href="#CMMI12-107"/>
      <use transform="translate(1042.428646 14.943915)scale(0.996264)" xlink:href="#CMSY10-107"/>
      <use transform="translate(1092.242029 0)scale(0.697382)" xlink:href="#CMBX12-65"/>
     </g>
    </g>
   </g>
   <g id="line2d_31">
    <path clip-path="url(#p78c09869e4)" d="M 67.512633 19.982224 
L 68.734977 10.707877 
L 69.957321 9.2759 
L 71.179665 10.736646 
L 72.402009 11.197613 
L 73.624353 10.73043 
L 77.291384 13.085354 
L 78.513728 13.658144 
L 79.736072 14.488434 
L 82.18076 14.797543 
L 84.625448 14.697759 
L 85.847792 14.91147 
L 87.070136 15.287972 
L 91.959511 15.28294 
L 94.404199 15.269259 
L 95.626543 15.154961 
L 96.848887 15.15773 
L 101.738263 15.633485 
L 102.960607 15.746596 
L 112.739358 15.747929 
L 115.184046 15.811322 
L 116.40639 16.018305 
L 118.851078 16.085494 
L 138.40858 16.525991 
L 140.853268 16.57714 
L 144.5203 16.947895 
L 146.964988 17.353316 
L 148.187332 17.809756 
L 150.63202 18.373628 
L 151.854363 19.479687 
L 153.076707 19.672744 
L 167.744834 20.260032 
L 173.856554 20.668645 
L 178.74593 20.965124 
L 179.968274 21.098322 
L 182.412962 21.78293 
L 183.635305 22.204236 
L 186.079993 22.352254 
L 187.302337 22.675899 
L 197.081089 22.722687 
L 198.303432 23.100309 
L 200.74812 23.531602 
L 201.970464 34.703109 
L 203.192808 35.046654 
L 204.415152 38.167153 
L 206.85984 51.33086 
L 209.304528 51.520285 
L 210.526872 53.59135 
L 211.749216 55.009743 
L 212.97156 55.041467 
L 214.193903 55.204145 
L 215.416247 56.97601 
L 216.638591 58.030857 
L 219.083279 58.120547 
L 220.305623 59.185365 
L 221.527967 62.438097 
L 222.750311 70.9521 
L 223.972655 76.873486 
L 225.194999 80.706062 
L 226.417343 80.737343 
L 228.862031 82.410177 
L 230.084374 94.083807 
L 231.306718 97.01002 
L 232.529062 97.418707 
L 233.751406 97.465297 
L 234.97375 97.361805 
L 236.196094 97.73218 
L 239.863126 97.835247 
L 241.08547 98.047782 
L 242.307814 99.014906 
L 244.752501 100.186815 
L 247.197189 100.365545 
L 253.308909 100.584834 
L 254.531253 100.941512 
L 255.753597 101.799742 
L 256.975941 104.221586 
L 258.198285 108.888932 
L 259.420629 109.771646 
L 261.865316 110.323701 
L 266.754692 110.474092 
L 275.3111 110.567826 
L 277.755787 110.76801 
L 280.200475 110.960391 
L 281.422819 111.498029 
L 282.645163 114.643784 
L 283.867507 120.536093 
L 286.312195 126.231222 
L 287.534539 130.056153 
L 288.756883 134.60033 
L 289.979227 136.07091 
L 291.20157 136.611744 
L 292.423914 137.876365 
L 293.646258 141.108999 
L 294.868602 143.812424 
L 296.090946 144.263325 
L 297.31329 145.189025 
L 298.535634 151.758376 
L 299.757978 154.890255 
L 300.980322 155.757433 
L 302.202666 158.694428 
L 303.42501 165.415369 
L 304.647354 164.706585 
L 305.869698 167.556868 
L 308.314385 170.363544 
L 309.536729 170.648169 
L 310.759073 171.529429 
L 311.981417 171.938712 
L 313.203761 172.127402 
L 314.426105 172.4741 
L 315.648449 172.572707 
L 316.870793 173.019427 
L 318.093137 173.254074 
L 319.315481 173.362464 
L 320.537825 173.765164 
L 321.760169 174.022324 
L 343.762359 174.02891 
L 371.876269 174.028905 
L 371.876269 174.028905 
" style="fill:none;stroke:#93a1a1;stroke-linecap:square;stroke-width:1.5;"/>
    <defs>
     <path d="M 0 3 
C 0.795609 3 1.55874 2.683901 2.12132 2.12132 
C 2.683901 1.55874 3 0.795609 3 0 
C 3 -0.795609 2.683901 -1.55874 2.12132 -2.12132 
C 1.55874 -2.683901 0.795609 -3 0 -3 
C -0.795609 -3 -1.55874 -2.683901 -2.12132 -2.12132 
C -2.683901 -1.55874 -3 -0.795609 -3 0 
C -3 0.795609 -2.683901 1.55874 -2.12132 2.12132 
C -1.55874 2.683901 -0.795609 3 0 3 
z
" id="mfa5a27d776" style="stroke:#93a1a1;"/>
    </defs>
    <g clip-path="url(#p78c09869e4)">
     <use style="fill:#93a1a1;stroke:#93a1a1;" x="67.512633" xlink:href="#mfa5a27d776" y="19.982224"/>
     <use style="fill:#93a1a1;stroke:#93a1a1;" x="128.629829" xlink:href="#mfa5a27d776" y="16.297287"/>
     <use style="fill:#93a1a1;stroke:#93a1a1;" x="189.747025" xlink:href="#mfa5a27d776" y="22.638453"/>
     <use style="fill:#93a1a1;stroke:#93a1a1;" x="250.864221" xlink:href="#mfa5a27d776" y="100.431916"/>
     <use style="fill:#93a1a1;stroke:#93a1a1;" x="311.981417" xlink:href="#mfa5a27d776" y="171.938712"/>
    </g>
   </g>
   <g id="line2d_32">
    <path clip-path="url(#p78c09869e4)" d="M 67.512633 19.982224 
L 68.734977 10.707877 
L 69.957321 9.2759 
L 71.179665 10.736646 
L 72.402009 11.197613 
L 73.624353 10.73043 
L 77.291384 13.085354 
L 78.513728 13.658144 
L 79.736072 14.488434 
L 82.18076 14.797543 
L 84.625448 14.697759 
L 85.847792 14.91147 
L 87.070136 15.287972 
L 91.959511 15.28294 
L 94.404199 15.269259 
L 95.626543 15.154961 
L 96.848887 15.15773 
L 101.738263 15.633485 
L 102.960607 15.746596 
L 112.739358 15.747929 
L 115.184046 15.811322 
L 116.40639 16.018305 
L 118.851078 16.085495 
L 138.40858 16.52644 
L 140.853268 16.577253 
L 144.5203 16.947893 
L 146.964988 17.35274 
L 148.187332 17.79983 
L 149.409676 17.985017 
L 150.63202 18.322145 
L 151.854363 19.479335 
L 153.076707 19.672749 
L 167.744834 20.26074 
L 175.078898 20.72729 
L 178.74593 21.006463 
L 181.190618 21.40042 
L 183.635305 22.243388 
L 186.079993 22.47615 
L 187.302337 22.700689 
L 193.414057 22.62454 
L 197.081089 22.67714 
L 198.303432 23.097807 
L 200.74812 23.519005 
L 201.970464 34.200448 
L 203.192808 34.811644 
L 204.415152 38.741723 
L 205.637496 51.047323 
L 206.85984 51.389428 
L 209.304528 51.49683 
L 210.526872 51.757348 
L 211.749216 55.008617 
L 212.97156 55.028944 
L 214.193903 55.175866 
L 215.416247 57.266676 
L 216.638591 58.077736 
L 217.860935 58.087296 
L 219.083279 58.456935 
L 220.305623 60.105546 
L 221.527967 63.380813 
L 222.750311 68.985087 
L 223.972655 79.496427 
L 225.194999 80.679385 
L 226.417343 80.723996 
L 227.639687 81.083647 
L 228.862031 83.646816 
L 230.084374 86.684769 
L 231.306718 95.503498 
L 232.529062 96.038106 
L 233.751406 97.649081 
L 236.196094 97.460627 
L 237.418438 97.784764 
L 239.863126 97.852447 
L 242.307814 99.227604 
L 243.530158 99.560758 
L 244.752501 100.116623 
L 245.974845 100.327859 
L 252.086565 100.612715 
L 254.531253 101.714056 
L 255.753597 103.800001 
L 256.975941 107.272114 
L 258.198285 109.592015 
L 259.420629 110.041052 
L 260.642972 110.293776 
L 263.08766 110.449997 
L 275.3111 110.685991 
L 276.533443 110.960487 
L 277.755787 111.665669 
L 280.200475 112.753895 
L 281.422819 113.644326 
L 282.645163 118.162211 
L 283.867507 121.797294 
L 285.089851 122.858793 
L 286.312195 127.078968 
L 288.756883 134.365773 
L 289.979227 136.042132 
L 292.423914 137.549668 
L 293.646258 139.793993 
L 294.868602 143.922069 
L 296.090946 145.075656 
L 297.31329 149.72847 
L 298.535634 149.586945 
L 299.757978 150.247291 
L 300.980322 151.159372 
L 302.202666 153.50356 
L 303.42501 157.506863 
L 304.647354 159.008601 
L 307.092041 159.705649 
L 308.314385 161.75596 
L 310.759073 163.959777 
L 311.981417 166.956914 
L 313.203761 168.202952 
L 314.426105 170.772082 
L 315.648449 171.854846 
L 316.870793 172.529666 
L 318.093137 173.340312 
L 319.315481 173.931435 
L 320.537825 174.124098 
L 326.649544 174.3299 
L 371.876269 174.330083 
L 371.876269 174.330083 
" style="fill:none;stroke:#93a1a1;stroke-linecap:square;stroke-width:1.5;"/>
    <defs>
     <path d="M 0 -3 
L -3 3 
L 3 3 
z
" id="mb4ea9de82c" style="stroke:#93a1a1;stroke-linejoin:miter;"/>
    </defs>
    <g clip-path="url(#p78c09869e4)">
     <use style="fill:#93a1a1;stroke:#93a1a1;stroke-linejoin:miter;" x="82.18076" xlink:href="#mb4ea9de82c" y="14.797543"/>
     <use style="fill:#93a1a1;stroke:#93a1a1;stroke-linejoin:miter;" x="143.297956" xlink:href="#mb4ea9de82c" y="16.810027"/>
     <use style="fill:#93a1a1;stroke:#93a1a1;stroke-linejoin:miter;" x="204.415152" xlink:href="#mb4ea9de82c" y="38.741723"/>
     <use style="fill:#93a1a1;stroke:#93a1a1;stroke-linejoin:miter;" x="265.532348" xlink:href="#mb4ea9de82c" y="110.469479"/>
     <use style="fill:#93a1a1;stroke:#93a1a1;stroke-linejoin:miter;" x="326.649544" xlink:href="#mb4ea9de82c" y="174.3299"/>
    </g>
   </g>
   <g id="line2d_33">
    <path clip-path="url(#p78c09869e4)" d="M 67.512633 19.982224 
L 68.734977 10.707877 
L 69.957321 9.2759 
L 71.179665 10.736646 
L 72.402009 11.197613 
L 73.624353 10.73043 
L 77.291384 13.085354 
L 78.513728 13.658144 
L 79.736072 14.488434 
L 82.18076 14.797543 
L 84.625448 14.697759 
L 85.847792 14.91147 
L 87.070136 15.287972 
L 91.959511 15.28294 
L 94.404199 15.269259 
L 95.626543 15.154961 
L 96.848887 15.15773 
L 101.738263 15.633485 
L 102.960607 15.746596 
L 112.739358 15.747929 
L 115.184046 15.811322 
L 116.40639 16.018305 
L 118.851078 16.085494 
L 138.40858 16.5201 
L 140.853268 16.576812 
L 144.5203 16.947892 
L 146.964988 17.35294 
L 148.187332 17.802103 
L 149.409676 17.995436 
L 150.63202 18.326561 
L 151.854363 19.478781 
L 153.076707 19.671446 
L 161.633115 19.88559 
L 164.077803 20.058096 
L 166.522491 20.098483 
L 170.189522 20.519589 
L 172.63421 20.644146 
L 178.74593 20.837634 
L 182.412962 21.502279 
L 183.635305 21.980282 
L 184.857649 22.249289 
L 186.079993 22.324384 
L 187.302337 22.568667 
L 188.524681 22.694104 
L 192.191713 22.619292 
L 197.081089 22.658232 
L 198.303432 23.056484 
L 200.74812 23.493451 
L 201.970464 33.399222 
L 203.192808 34.80081 
L 204.415152 36.417612 
L 205.637496 42.227409 
L 206.85984 50.374648 
L 208.082184 51.411053 
L 210.526872 51.521157 
L 211.749216 52.167421 
L 212.97156 54.833542 
L 214.193903 55.00643 
L 215.416247 55.055577 
L 216.638591 56.893951 
L 217.860935 57.933358 
L 219.083279 58.098321 
L 220.305623 58.135226 
L 221.527967 58.75134 
L 222.750311 68.254677 
L 223.972655 74.384968 
L 225.194999 79.488454 
L 226.417343 80.70132 
L 228.862031 80.778047 
L 230.084374 81.068209 
L 231.306718 82.12971 
L 232.529062 83.386111 
L 233.751406 88.022625 
L 234.97375 88.914306 
L 236.196094 93.523273 
L 237.418438 97.291222 
L 238.640782 97.663111 
L 241.08547 97.818077 
L 244.752501 97.865205 
L 245.974845 98.016043 
L 247.197189 98.345534 
L 248.419533 98.875704 
L 249.641877 100.01468 
L 250.864221 100.302872 
L 253.308909 100.419662 
L 260.642972 100.60174 
L 263.08766 101.527433 
L 264.310004 102.382031 
L 265.532348 102.97974 
L 266.754692 108.207396 
L 267.977036 110.128237 
L 269.19938 110.41691 
L 275.3111 110.482974 
L 285.089851 110.552944 
L 287.534539 110.754398 
L 288.756883 110.822686 
L 289.979227 111.066229 
L 291.20157 111.527826 
L 294.868602 120.816087 
L 296.090946 121.687056 
L 297.31329 124.674627 
L 298.535634 126.92674 
L 299.757978 131.137072 
L 302.202666 135.237161 
L 303.42501 136.42236 
L 304.647354 139.762841 
L 305.869698 140.989985 
L 307.092041 141.696574 
L 308.314385 143.166777 
L 309.536729 144.840756 
L 310.759073 145.473197 
L 313.203761 149.161057 
L 314.426105 150.301798 
L 315.648449 150.966738 
L 318.093137 152.596692 
L 319.315481 153.464542 
L 320.537825 155.145493 
L 321.760169 155.572339 
L 322.982512 158.504377 
L 324.204856 159.922922 
L 325.4272 159.932703 
L 326.649544 160.289756 
L 327.871888 163.816933 
L 329.094232 164.234994 
L 331.53892 164.649993 
L 332.761264 164.813026 
L 333.983608 165.271358 
L 335.205952 166.373536 
L 336.428296 167.008101 
L 337.650639 166.960682 
L 338.872983 167.110398 
L 340.095327 167.831196 
L 341.317671 168.849528 
L 343.762359 171.566471 
L 344.984703 171.878398 
L 346.207047 173.031937 
L 347.429391 173.256976 
L 359.65283 173.562965 
L 363.319862 173.985017 
L 364.542206 174.138012 
L 371.876269 174.231846 
L 371.876269 174.231846 
" style="fill:none;stroke:#93a1a1;stroke-linecap:square;stroke-width:1.5;"/>
    <defs>
     <path d="M -0 3 
L 3 -3 
L -3 -3 
z
" id="m85935fd643" style="stroke:#93a1a1;stroke-linejoin:miter;"/>
    </defs>
    <g clip-path="url(#p78c09869e4)">
     <use style="fill:#93a1a1;stroke:#93a1a1;stroke-linejoin:miter;" x="98.071231" xlink:href="#m85935fd643" y="15.298205"/>
     <use style="fill:#93a1a1;stroke:#93a1a1;stroke-linejoin:miter;" x="159.188427" xlink:href="#m85935fd643" y="19.843488"/>
     <use style="fill:#93a1a1;stroke:#93a1a1;stroke-linejoin:miter;" x="220.305623" xlink:href="#m85935fd643" y="58.135226"/>
     <use style="fill:#93a1a1;stroke:#93a1a1;stroke-linejoin:miter;" x="281.422819" xlink:href="#m85935fd643" y="110.51511"/>
     <use style="fill:#93a1a1;stroke:#93a1a1;stroke-linejoin:miter;" x="342.540015" xlink:href="#m85935fd643" y="170.173595"/>
    </g>
   </g>
   <g id="line2d_34">
    <path clip-path="url(#p78c09869e4)" d="M 67.512633 19.982224 
L 68.734977 10.707877 
L 69.957321 9.2759 
L 71.179665 10.736646 
L 72.402009 11.197613 
L 73.624353 10.73043 
L 77.291384 13.085354 
L 78.513728 13.658144 
L 79.736072 14.488434 
L 82.18076 14.797543 
L 84.625448 14.697759 
L 85.847792 14.91147 
L 87.070136 15.287972 
L 91.959511 15.28294 
L 94.404199 15.269259 
L 95.626543 15.154961 
L 96.848887 15.15773 
L 101.738263 15.633485 
L 102.960607 15.746596 
L 112.739358 15.747929 
L 115.184046 15.811322 
L 116.40639 16.018305 
L 118.851078 16.085495 
L 138.40858 16.528491 
L 140.853268 16.57992 
L 145.742644 17.121447 
L 146.964988 17.244994 
L 149.409676 17.914259 
L 150.63202 18.301623 
L 151.854363 19.478929 
L 153.076707 19.672219 
L 161.633115 19.88252 
L 164.077803 20.035271 
L 166.522491 20.096397 
L 170.189522 20.509427 
L 172.63421 20.639899 
L 178.74593 20.82746 
L 181.190618 21.322923 
L 182.412962 21.45646 
L 183.635305 21.938129 
L 184.857649 22.241267 
L 187.302337 22.352619 
L 188.524681 22.702991 
L 193.414057 22.623385 
L 197.081089 22.6524 
L 198.303432 22.835738 
L 199.525776 23.224287 
L 200.74812 23.447427 
L 201.970464 23.911006 
L 203.192808 34.232615 
L 204.415152 34.87495 
L 205.637496 39.095988 
L 206.85984 48.122648 
L 208.082184 51.426647 
L 210.526872 51.546811 
L 211.749216 51.789882 
L 212.97156 54.365234 
L 214.193903 54.975792 
L 215.416247 55.055024 
L 216.638591 56.613888 
L 217.860935 57.763313 
L 219.083279 58.03495 
L 222.750311 58.228273 
L 223.972655 62.809889 
L 225.194999 73.565387 
L 226.417343 78.23225 
L 227.639687 80.33573 
L 228.862031 80.181704 
L 231.306718 80.96762 
L 233.751406 81.046944 
L 234.97375 81.408763 
L 236.196094 84.478617 
L 237.418438 92.541271 
L 238.640782 95.370558 
L 239.863126 96.318087 
L 241.08547 97.727534 
L 242.307814 97.689235 
L 244.752501 97.813678 
L 248.419533 97.907907 
L 252.086565 98.552537 
L 253.308909 98.969107 
L 254.531253 100.128179 
L 256.975941 100.29893 
L 269.19938 100.660404 
L 270.421724 101.153657 
L 271.644068 102.087786 
L 272.866412 102.881518 
L 274.088756 103.221935 
L 275.3111 104.155034 
L 276.533443 105.89653 
L 277.755787 106.815282 
L 278.978131 108.014716 
L 280.200475 108.624059 
L 283.867507 109.078895 
L 289.979227 109.131655 
L 302.202666 109.226579 
L 303.42501 109.299786 
L 304.647354 109.487023 
L 307.092041 109.718024 
L 309.536729 110.187524 
L 310.759073 110.699868 
L 311.981417 110.951561 
L 314.426105 111.221549 
L 315.648449 111.519167 
L 316.870793 111.671716 
L 318.093137 111.971804 
L 322.982512 112.473566 
L 330.316576 112.540831 
L 363.319862 112.57439 
L 371.876269 112.548205 
L 371.876269 112.548205 
" style="fill:none;stroke:#93a1a1;stroke-linecap:square;stroke-width:1.5;"/>
    <defs>
     <path d="M -3 3 
L 3 3 
L 3 -3 
L -3 -3 
z
" id="m6e2470a97c" style="stroke:#93a1a1;stroke-linejoin:miter;"/>
    </defs>
    <g clip-path="url(#p78c09869e4)">
     <use style="fill:#93a1a1;stroke:#93a1a1;stroke-linejoin:miter;" x="112.739358" xlink:href="#m6e2470a97c" y="15.747929"/>
     <use style="fill:#93a1a1;stroke:#93a1a1;stroke-linejoin:miter;" x="173.856554" xlink:href="#m6e2470a97c" y="20.666276"/>
     <use style="fill:#93a1a1;stroke:#93a1a1;stroke-linejoin:miter;" x="234.97375" xlink:href="#m6e2470a97c" y="81.408763"/>
     <use style="fill:#93a1a1;stroke:#93a1a1;stroke-linejoin:miter;" x="296.090946" xlink:href="#m6e2470a97c" y="109.14694"/>
     <use style="fill:#93a1a1;stroke:#93a1a1;stroke-linejoin:miter;" x="357.208142" xlink:href="#m6e2470a97c" y="112.575743"/>
    </g>
   </g>
   <g id="line2d_35">
    <path clip-path="url(#p78c09869e4)" d="M 67.512633 19.982224 
L 68.734977 10.707877 
L 69.957321 9.2759 
L 71.179665 10.736646 
L 72.402009 11.197613 
L 73.624353 10.73043 
L 77.291384 13.085354 
L 78.513728 13.658144 
L 79.736072 14.488434 
L 82.18076 14.797543 
L 84.625448 14.697759 
L 85.847792 14.91147 
L 87.070136 15.287972 
L 91.959511 15.28294 
L 94.404199 15.269259 
L 95.626543 15.154961 
L 96.848887 15.15773 
L 101.738263 15.633485 
L 102.960607 15.746596 
L 112.739358 15.747929 
L 115.184046 15.811322 
L 116.40639 16.018304 
L 118.851078 16.08549 
L 138.40858 16.519546 
L 140.853268 16.57673 
L 145.742644 17.0451 
L 146.964988 17.232481 
L 150.63202 18.25981 
L 151.854363 19.022293 
L 153.076707 19.602712 
L 156.743739 19.738034 
L 161.633115 19.861942 
L 162.855459 19.890018 
L 165.300147 20.061777 
L 167.744834 20.177144 
L 173.856554 20.646548 
L 179.968274 20.838359 
L 181.190618 20.917032 
L 183.635305 21.482633 
L 184.857649 21.607972 
L 186.079993 22.10504 
L 187.302337 22.314516 
L 189.747025 22.492434 
L 190.969369 22.654898 
L 197.081089 22.636962 
L 199.525776 22.676079 
L 200.74812 23.089334 
L 201.970464 23.367874 
L 203.192808 23.880112 
L 204.415152 24.911688 
L 205.637496 32.458539 
L 206.85984 35.009847 
L 208.082184 35.178825 
L 209.304528 37.043256 
L 210.526872 51.346265 
L 214.193903 51.638793 
L 215.416247 52.908596 
L 216.638591 55.046313 
L 219.083279 55.162373 
L 221.527967 55.099679 
L 222.750311 55.398435 
L 223.972655 57.779526 
L 225.194999 58.073406 
L 228.862031 58.260666 
L 230.084374 58.593864 
L 231.306718 59.45666 
L 232.529062 63.724372 
L 233.751406 66.978509 
L 234.97375 72.179774 
L 236.196094 76.834919 
L 237.418438 78.979912 
L 238.640782 80.09237 
L 239.863126 80.702475 
L 241.08547 81.123864 
L 242.307814 81.415345 
L 244.752501 81.561233 
L 247.197189 82.521507 
L 248.419533 83.815981 
L 249.641877 86.953404 
L 250.864221 91.291908 
L 252.086565 94.680377 
L 253.308909 94.832944 
L 254.531253 96.26068 
L 255.753597 97.481337 
L 256.975941 97.850524 
L 263.08766 98.040965 
L 266.754692 98.237536 
L 267.977036 98.837842 
L 270.421724 99.469251 
L 271.644068 99.750925 
L 272.866412 99.869257 
L 274.088756 100.149339 
L 277.755787 100.42057 
L 288.756883 100.810162 
L 289.979227 100.904825 
L 291.20157 101.18813 
L 292.423914 103.268363 
L 294.868602 104.818804 
L 297.31329 107.729226 
L 298.535634 108.378587 
L 299.757978 108.8209 
L 300.980322 109.097594 
L 305.869698 109.568485 
L 331.53892 109.897644 
L 333.983608 110.087213 
L 335.205952 110.271515 
L 336.428296 110.597198 
L 337.650639 111.144121 
L 338.872983 111.530211 
L 340.095327 111.725172 
L 347.429391 112.180512 
L 348.651735 112.359385 
L 360.875174 112.90457 
L 368.209238 113.046664 
L 371.876269 113.058709 
L 371.876269 113.058709 
" style="fill:none;stroke:#6c71c4;stroke-linecap:square;stroke-width:1.5;"/>
   </g>
   <g id="line2d_36">
    <path clip-path="url(#p78c09869e4)" d="M 67.512633 19.982224 
L 68.734977 10.707877 
L 69.957321 9.2759 
L 71.179665 10.736646 
L 72.402009 11.197613 
L 73.624353 10.73043 
L 77.291384 13.085354 
L 78.513728 13.658144 
L 79.736072 14.488434 
L 82.18076 14.797543 
L 84.625448 14.697759 
L 85.847792 14.91147 
L 87.070136 15.287972 
L 91.959511 15.28294 
L 94.404199 15.269259 
L 95.626543 15.154961 
L 96.848887 15.15773 
L 101.738263 15.633485 
L 102.960607 15.746596 
L 112.739358 15.747929 
L 115.184046 15.811322 
L 116.40639 16.018305 
L 118.851078 16.085495 
L 138.40858 16.520877 
L 140.853268 16.576824 
L 144.5203 16.947734 
L 148.187332 17.626881 
L 150.63202 18.302081 
L 151.854363 19.47855 
L 153.076707 19.671361 
L 161.633115 19.877838 
L 164.077803 20.045049 
L 166.522491 20.096379 
L 170.189522 20.51871 
L 172.63421 20.642242 
L 178.74593 20.850664 
L 182.412962 21.444516 
L 183.635305 21.93249 
L 184.857649 22.24247 
L 187.302337 22.438331 
L 188.524681 22.691735 
L 192.191713 22.623714 
L 197.081089 22.657394 
L 200.74812 23.492456 
L 201.970464 25.173597 
L 203.192808 34.18786 
L 204.415152 34.872091 
L 205.637496 37.890951 
L 206.85984 47.910399 
L 208.082184 51.377072 
L 210.526872 51.550633 
L 211.749216 51.805961 
L 212.97156 54.281572 
L 214.193903 54.998562 
L 215.416247 55.054102 
L 216.638591 55.371004 
L 217.860935 57.696507 
L 219.083279 58.00442 
L 222.750311 58.270596 
L 223.972655 62.055384 
L 225.194999 73.049333 
L 226.417343 77.263741 
L 227.639687 80.012294 
L 228.862031 80.786695 
L 230.084374 80.829087 
L 231.306718 81.018388 
L 233.751406 81.160364 
L 234.97375 83.344321 
L 236.196094 86.375383 
L 237.418438 93.60532 
L 238.640782 97.46232 
L 239.863126 97.738809 
L 243.530158 97.83293 
L 245.974845 97.925227 
L 248.419533 98.337088 
L 249.641877 99.187925 
L 250.864221 99.847668 
L 252.086565 100.148506 
L 255.753597 100.448093 
L 261.865316 100.596443 
L 264.310004 100.821702 
L 265.532348 101.038952 
L 266.754692 102.504518 
L 267.977036 108.386902 
L 269.19938 109.673114 
L 270.421724 110.183894 
L 275.3111 110.468117 
L 289.979227 110.648899 
L 291.20157 111.118919 
L 292.423914 112.071408 
L 293.646258 112.729436 
L 294.868602 113.12781 
L 296.090946 114.250464 
L 297.31329 117.667151 
L 298.535634 120.681953 
L 299.757978 121.391052 
L 300.980322 123.197779 
L 302.202666 128.514192 
L 303.42501 130.582467 
L 304.647354 131.983795 
L 305.869698 132.161577 
L 307.092041 133.881552 
L 308.314385 137.053695 
L 309.536729 139.768125 
L 310.759073 140.327882 
L 311.981417 140.404236 
L 313.203761 141.149504 
L 314.426105 142.623355 
L 315.648449 144.276564 
L 316.870793 145.545421 
L 318.093137 145.774119 
L 319.315481 149.255802 
L 320.537825 150.052288 
L 321.760169 151.967133 
L 322.982512 153.565608 
L 324.204856 153.918333 
L 325.4272 154.853165 
L 326.649544 157.242519 
L 327.871888 157.119916 
L 329.094232 156.647748 
L 330.316576 156.571145 
L 331.53892 156.817007 
L 332.761264 157.275397 
L 333.983608 159.430996 
L 335.205952 164.602128 
L 336.428296 164.871383 
L 341.317671 165.381067 
L 343.762359 165.490844 
L 371.876269 165.598057 
L 371.876269 165.598057 
" style="fill:none;stroke:#859900;stroke-dasharray:1.5,2.475;stroke-dashoffset:0;stroke-width:1.5;"/>
   </g>
   <g id="line2d_37">
    <path clip-path="url(#p78c09869e4)" d="M 67.512633 19.982224 
L 68.734977 10.707877 
L 69.957321 9.2759 
L 71.179665 10.736646 
L 72.402009 11.197613 
L 73.624353 10.73043 
L 77.291384 13.085354 
L 78.513728 13.658144 
L 79.736072 14.488434 
L 82.18076 14.797543 
L 84.625448 14.697759 
L 85.847792 14.91147 
L 87.070136 15.287972 
L 91.959511 15.28294 
L 94.404199 15.269259 
L 95.626543 15.154961 
L 96.848887 15.15773 
L 101.738263 15.633485 
L 102.960607 15.746596 
L 112.739358 15.747929 
L 115.184046 15.811322 
L 116.40639 16.018305 
L 118.851078 16.085495 
L 138.40858 16.519382 
L 140.853268 16.576825 
L 144.5203 16.94776 
L 148.187332 17.636535 
L 150.63202 18.30217 
L 151.854363 19.47879 
L 153.076707 19.671954 
L 161.633115 19.879215 
L 164.077803 20.046118 
L 166.522491 20.096331 
L 170.189522 20.5196 
L 172.63421 20.6433 
L 178.74593 20.832985 
L 182.412962 21.439277 
L 183.635305 22.00954 
L 184.857649 22.291012 
L 186.079993 22.326351 
L 187.302337 22.655856 
L 189.747025 22.63669 
L 197.081089 22.661444 
L 198.303432 23.050293 
L 200.74812 23.495262 
L 201.970464 28.149236 
L 203.192808 34.66531 
L 204.415152 34.883535 
L 205.637496 38.699739 
L 206.85984 47.985439 
L 208.082184 51.38749 
L 210.526872 51.551203 
L 211.749216 51.997519 
L 212.97156 54.61703 
L 214.193903 55.007553 
L 215.416247 55.053599 
L 216.638591 56.650589 
L 217.860935 57.877066 
L 219.083279 58.081414 
L 220.305623 58.097362 
L 221.527967 58.27973 
L 222.750311 59.604752 
L 223.972655 61.446905 
L 225.194999 73.901423 
L 226.417343 80.31869 
L 227.639687 80.614728 
L 230.084374 80.886505 
L 231.306718 81.095356 
L 232.529062 81.700653 
L 233.751406 84.916303 
L 234.97375 90.197766 
L 236.196094 91.481964 
L 237.418438 95.760001 
L 238.640782 97.234538 
L 239.863126 97.760448 
L 247.197189 98.115592 
L 248.419533 98.454873 
L 249.641877 99.530226 
L 250.864221 100.055517 
L 252.086565 100.333999 
L 255.753597 100.449031 
L 260.642972 100.564575 
L 263.08766 101.16029 
L 265.532348 102.783331 
L 266.754692 107.944473 
L 267.977036 110.367658 
L 271.644068 110.459498 
L 283.867507 110.629208 
L 285.089851 110.728486 
L 289.979227 112.603552 
L 291.20157 113.769889 
L 292.423914 117.786002 
L 293.646258 121.336219 
L 294.868602 122.616836 
L 296.090946 123.470308 
L 297.31329 124.870834 
L 298.535634 129.759266 
L 299.757978 133.658936 
L 302.202666 136.064069 
L 303.42501 136.882554 
L 304.647354 141.396016 
L 305.869698 144.441047 
L 307.092041 145.714038 
L 308.314385 146.650007 
L 309.536729 148.456615 
L 310.759073 150.739026 
L 311.981417 153.385756 
L 313.203761 155.091384 
L 314.426105 155.589007 
L 315.648449 155.921184 
L 318.093137 157.289596 
L 319.315481 159.055064 
L 320.537825 163.309941 
L 321.760169 164.914379 
L 322.982512 165.182206 
L 324.204856 165.139873 
L 326.649544 164.781062 
L 327.871888 164.905721 
L 329.094232 165.838351 
L 330.316576 167.184842 
L 333.983608 167.766163 
L 335.205952 168.822269 
L 336.428296 169.178516 
L 337.650639 169.226275 
L 338.872983 169.451053 
L 341.317671 170.299767 
L 342.540015 171.168739 
L 343.762359 171.278297 
L 346.207047 172.074003 
L 347.429391 172.662437 
L 348.651735 173.054375 
L 353.54111 173.210165 
L 366.986894 173.597755 
L 371.876269 173.731242 
L 371.876269 173.731242 
" style="fill:none;stroke:#073642;stroke-dasharray:1.5,2.475;stroke-dashoffset:0;stroke-width:1.5;"/>
   </g>
   <g id="line2d_38">
    <path clip-path="url(#p78c09869e4)" d="M 67.512633 19.982224 
L 68.734977 10.707877 
L 69.957321 9.2759 
L 71.179665 10.736646 
L 72.402009 11.197613 
L 73.624353 10.73043 
L 77.291384 13.085354 
L 78.513728 13.658144 
L 79.736072 14.488434 
L 82.18076 14.797543 
L 84.625448 14.697759 
L 85.847792 14.91147 
L 87.070136 15.287972 
L 91.959511 15.28294 
L 94.404199 15.269259 
L 95.626543 15.154961 
L 96.848887 15.15773 
L 101.738263 15.633485 
L 102.960607 15.746596 
L 112.739358 15.747929 
L 115.184046 15.811322 
L 116.40639 16.018304 
L 118.851078 16.085494 
L 138.40858 16.519379 
L 142.075612 16.673073 
L 144.5203 16.834254 
L 148.187332 17.545579 
L 150.63202 18.248645 
L 153.076707 19.589993 
L 157.966083 19.802761 
L 162.855459 19.890297 
L 164.077803 20.030485 
L 167.744834 20.150622 
L 175.078898 20.652248 
L 181.190618 20.867556 
L 182.412962 21.152918 
L 184.857649 21.56035 
L 186.079993 21.809408 
L 187.302337 22.266741 
L 189.747025 22.453976 
L 190.969369 22.714366 
L 193.414057 22.625242 
L 199.525776 22.665178 
L 201.970464 23.316057 
L 203.192808 23.449912 
L 204.415152 23.998986 
L 205.637496 26.000008 
L 206.85984 33.60251 
L 208.082184 35.101632 
L 209.304528 35.296883 
L 210.526872 37.108792 
L 211.749216 51.530111 
L 214.193903 51.522737 
L 215.416247 51.863286 
L 216.638591 52.813987 
L 217.860935 54.741472 
L 219.083279 55.127663 
L 222.750311 55.094571 
L 225.194999 57.969043 
L 228.862031 58.217206 
L 230.084374 58.264183 
L 232.529062 58.606031 
L 233.751406 59.106499 
L 234.97375 59.955304 
L 236.196094 61.365564 
L 237.418438 73.941193 
L 238.640782 78.763178 
L 239.863126 79.855545 
L 242.307814 81.064895 
L 243.530158 81.387896 
L 248.419533 81.803263 
L 249.641877 82.21177 
L 250.864221 85.471077 
L 252.086565 88.23916 
L 253.308909 92.397884 
L 254.531253 94.802192 
L 256.975941 97.032848 
L 258.198285 97.552237 
L 259.420629 97.797566 
L 264.310004 98.022135 
L 267.977036 98.134398 
L 269.19938 98.272378 
L 271.644068 99.212266 
L 272.866412 99.468157 
L 274.088756 99.95388 
L 276.533443 100.347977 
L 278.978131 100.478911 
L 286.312195 100.68735 
L 289.979227 101.009968 
L 291.20157 101.120318 
L 292.423914 101.36448 
L 293.646258 101.748549 
L 294.868602 102.802834 
L 296.090946 104.333396 
L 297.31329 104.770097 
L 298.535634 106.66169 
L 299.757978 107.782635 
L 303.42501 108.742207 
L 307.092041 109.489479 
L 314.426105 109.647309 
L 336.428296 109.817264 
L 338.872983 109.962952 
L 343.762359 110.583352 
L 344.984703 110.686688 
L 348.651735 111.852043 
L 349.874079 112.231395 
L 352.318767 112.490817 
L 365.76455 112.834533 
L 371.876269 112.914742 
L 371.876269 112.914742 
" style="fill:none;stroke:#2aa198;stroke-linecap:square;stroke-width:1.5;"/>
   </g>
   <g id="line2d_39">
    <path clip-path="url(#p78c09869e4)" d="M 67.512633 19.982224 
L 68.734977 10.707877 
L 69.957321 9.2759 
L 71.179665 10.736646 
L 72.402009 11.197613 
L 73.624353 10.73043 
L 77.291384 13.085354 
L 78.513728 13.658144 
L 79.736072 14.488434 
L 82.18076 14.797543 
L 84.625448 14.697759 
L 85.847792 14.91147 
L 87.070136 15.287972 
L 91.959511 15.28294 
L 94.404199 15.269259 
L 95.626543 15.154961 
L 96.848887 15.15773 
L 101.738263 15.633485 
L 102.960607 15.746596 
L 112.739358 15.747929 
L 115.184046 15.811322 
L 116.40639 16.018305 
L 118.851078 16.085494 
L 138.40858 16.519384 
L 140.853268 16.576826 
L 144.5203 16.946715 
L 148.187332 17.56106 
L 150.63202 18.301674 
L 151.854363 19.479091 
L 153.076707 19.67249 
L 166.522491 20.096489 
L 170.189522 20.478625 
L 172.63421 20.639549 
L 179.968274 20.855724 
L 182.412962 21.399809 
L 183.635305 21.510511 
L 184.857649 22.137468 
L 188.524681 22.618146 
L 190.969369 22.626984 
L 197.081089 22.651848 
L 198.303432 22.824149 
L 199.525776 23.218739 
L 200.74812 23.416015 
L 201.970464 23.810656 
L 203.192808 31.58737 
L 204.415152 34.86158 
L 205.637496 35.155207 
L 206.85984 46.117349 
L 208.082184 51.188101 
L 209.304528 51.456078 
L 211.749216 51.618144 
L 212.97156 52.387023 
L 214.193903 54.94994 
L 216.638591 55.072546 
L 217.860935 57.081229 
L 219.083279 57.9558 
L 221.527967 58.092664 
L 223.972655 58.27748 
L 225.194999 61.116709 
L 226.417343 75.598884 
L 227.639687 79.256109 
L 228.862031 80.654684 
L 230.084374 80.827961 
L 233.751406 80.992064 
L 234.97375 81.619399 
L 236.196094 82.119142 
L 237.418438 83.200544 
L 238.640782 93.961921 
L 239.863126 97.474297 
L 250.864221 98.205219 
L 252.086565 98.679921 
L 254.531253 99.976899 
L 255.753597 100.223418 
L 258.198285 100.41201 
L 264.310004 100.647487 
L 266.754692 101.025379 
L 269.19938 103.889804 
L 270.421724 107.197396 
L 271.644068 108.643151 
L 272.866412 109.408797 
L 274.088756 109.938812 
L 276.533443 110.429001 
L 281.422819 110.495644 
L 292.423914 110.549512 
L 293.646258 110.657609 
L 297.31329 111.733644 
L 298.535634 113.399024 
L 299.757978 117.81389 
L 300.980322 118.648718 
L 302.202666 120.895346 
L 303.42501 122.118559 
L 307.092041 129.661161 
L 308.314385 130.927938 
L 309.536729 132.873244 
L 310.759073 134.27681 
L 311.981417 135.166459 
L 313.203761 135.594662 
L 314.426105 136.536552 
L 315.648449 140.032199 
L 316.870793 144.625404 
L 318.093137 147.116958 
L 319.315481 148.141137 
L 320.537825 148.748031 
L 322.982512 151.595484 
L 324.204856 151.974032 
L 325.4272 151.904226 
L 327.871888 152.7857 
L 330.316576 153.710114 
L 331.53892 157.787566 
L 332.761264 163.893561 
L 333.983608 164.389608 
L 337.650639 164.564495 
L 338.872983 164.864061 
L 346.207047 165.325065 
L 349.874079 165.401823 
L 351.096423 165.588723 
L 357.208142 165.866406 
L 365.76455 165.907229 
L 371.876269 165.92224 
L 371.876269 165.92224 
" style="fill:none;stroke:#073642;stroke-linecap:square;stroke-width:1.5;"/>
   </g>
   <g id="patch_3">
    <path d="M 52.294451 232.46 
L 52.294451 10.7 
" style="fill:none;stroke:#000000;stroke-linecap:square;stroke-linejoin:miter;stroke-width:0.8;"/>
   </g>
   <g id="patch_4">
    <path d="M 387.094451 232.46 
L 387.094451 10.7 
" style="fill:none;stroke:#000000;stroke-linecap:square;stroke-linejoin:miter;stroke-width:0.8;"/>
   </g>
   <g id="patch_5">
    <path d="M 52.294451 232.46 
L 387.094451 232.46 
" style="fill:none;stroke:#000000;stroke-linecap:square;stroke-linejoin:miter;stroke-width:0.8;"/>
   </g>
   <g id="patch_6">
    <path d="M 52.294451 10.7 
L 387.094451 10.7 
" style="fill:none;stroke:#000000;stroke-linecap:square;stroke-linejoin:miter;stroke-width:0.8;"/>
   </g>
   <g id="legend_1">
    <g id="patch_7">
     <path d="M 394.094451 144.134605 
L 498.591371 144.134605 
Q 500.591371 144.134605 500.591371 142.134605 
L 500.591371 17.7 
Q 500.591371 15.7 498.591371 15.7 
L 394.094451 15.7 
Q 392.094451 15.7 392.094451 17.7 
L 392.094451 142.134605 
Q 392.094451 144.134605 394.094451 144.134605 
z
" style="fill:#ffffff;opacity:0.8;stroke:#cccccc;stroke-linejoin:miter;"/>
    </g>
    <g id="line2d_40">
     <path d="M 396.094451 23.2 
L 416.094451 23.2 
" style="fill:none;stroke:#073642;stroke-linecap:square;stroke-width:1.5;"/>
    </g>
    <g id="line2d_41"/>
    <g id="text_18">
     <!-- \textsc{pipe-PR-CG} -->
     <defs>
      <path d="M 32.296875 23 
C 42.296875 23 50.703125 29.296875 50.703125 36.890625 
C 50.703125 44.09375 43.09375 51 31.59375 51 
L 4.5 51 
L 4.5 48.484375 
C 11.203125 48.484375 11.703125 47.890625 11.703125 43.796875 
L 11.703125 7.109375 
C 11.703125 3.078125 11.203125 2.5 4.5 2.5 
L 4.5 0 
C 7.40625 0.09375 13.09375 0.296875 15.296875 0.296875 
C 17.5 0.296875 23.09375 0.09375 26.09375 0 
L 26.09375 2.5 
C 19.40625 2.5 18.90625 3.078125 18.90625 7.109375 
L 18.90625 23 
z
M 18.59375 44.1875 
C 18.59375 48.1875 19.09375 48.484375 22.59375 48.484375 
L 29.5 48.484375 
C 42.09375 48.484375 42.09375 40.890625 42.09375 36.890625 
C 42.09375 33 42.09375 25.296875 29.5 25.296875 
L 18.59375 25.296875 
z
" id="CMCSC10-112"/>
      <path d="M 18.703125 43.734375 
C 18.703125 48 19.203125 48.484375 26.296875 48.484375 
L 26.296875 51 
C 22.90625 50.890625 17.703125 50.6875 15.09375 50.6875 
C 12.5 50.6875 7.296875 50.890625 3.90625 51 
L 3.90625 48.484375 
C 11 48.484375 11.5 48 11.5 43.734375 
L 11.5 7.25 
C 11.5 2.984375 11 2.5 3.90625 2.5 
L 3.90625 0 
C 7.296875 0.09375 12.5 0.296875 15.09375 0.296875 
C 17.703125 0.296875 22.90625 0.09375 26.296875 0 
L 26.296875 2.5 
C 19.203125 2.5 18.703125 2.984375 18.703125 7.25 
z
" id="CMCSC10-105"/>
      <path d="M 48.796875 50.6875 
L 4.296875 50.6875 
L 4.296875 48.1875 
C 11 48.1875 11.5 47.59375 11.5 43.515625 
L 11.5 7.125 
C 11.5 3.078125 11 2.5 4.296875 2.5 
L 4.296875 0 
L 50 0 
L 52.90625 19.171875 
L 50.40625 19.171875 
C 48.703125 7.234375 46.296875 2.5 33.5 2.5 
L 22.703125 2.5 
C 19.203125 2.5 18.703125 2.78125 18.703125 6.734375 
L 18.703125 25 
L 25.703125 25 
C 33.09375 25 34.296875 23.015625 34.296875 16.40625 
L 36.796875 16.40625 
L 36.796875 36.15625 
L 34.296875 36.15625 
C 34.296875 29.484375 33.09375 27.5 25.703125 27.5 
L 18.703125 27.5 
L 18.703125 43.90625 
C 18.703125 47.890625 19.203125 48.1875 22.703125 48.1875 
L 32.90625 48.1875 
C 44.5 48.1875 47.09375 44.703125 48.203125 33.859375 
L 50.703125 33.859375 
z
" id="CMCSC10-101"/>
      <path d="M 30.5 19 
L 30.5 24.796875 
L 2.59375 24.796875 
L 2.59375 19 
z
" id="CMCSC10-45"/>
      <path d="M 43 31.390625 
C 55.203125 31.390625 66.90625 39.171875 66.90625 49.4375 
C 66.90625 59.3125 56.296875 68 42.203125 68 
L 5.703125 68 
L 5.703125 64.890625 
L 8.09375 64.890625 
C 15.796875 64.890625 16 63.796875 16 60.203125 
L 16 7.765625 
C 16 4.1875 15.796875 3.09375 8.09375 3.09375 
L 5.703125 3.09375 
L 5.703125 0 
C 9.203125 0.296875 16.59375 0.296875 20.40625 0.296875 
C 24.203125 0.296875 31.703125 0.296875 35.203125 0 
L 35.203125 3.09375 
L 32.796875 3.09375 
C 25.09375 3.09375 24.90625 4.1875 24.90625 7.765625 
L 24.90625 31.390625 
z
M 24.59375 60.90625 
C 24.59375 64.1875 24.796875 64.890625 29.5 64.890625 
L 39.59375 64.890625 
C 56.59375 64.890625 56.59375 53.921875 56.59375 49.4375 
C 56.59375 45.15625 56.59375 34 39.59375 34 
L 24.59375 34 
z
" id="CMCSC10-80"/>
      <path d="M 24.59375 35.1875 
L 24.59375 60.921875 
C 24.59375 63.609375 24.796875 64.5 27.203125 64.796875 
C 28.09375 64.890625 31.203125 64.890625 33.203125 64.890625 
C 41.90625 64.890625 55.09375 64.890625 55.09375 50.09375 
C 55.09375 39.46875 48 35.1875 36.703125 35.1875 
z
M 47 33.890625 
C 59 36.78125 65.40625 43.34375 65.40625 50.09375 
C 65.40625 59.734375 53.203125 68 38.09375 68 
L 5.703125 68 
L 5.703125 64.890625 
L 8.09375 64.890625 
C 15.796875 64.890625 16 63.796875 16 60.21875 
L 16 7.921875 
C 16 4.359375 15.796875 3.265625 8.09375 3.265625 
L 5.703125 3.265625 
L 5.703125 0.1875 
C 9.296875 0.484375 16.40625 0.484375 20.296875 0.484375 
C 24.203125 0.484375 31.296875 0.484375 34.90625 0.1875 
L 34.90625 3.265625 
L 32.5 3.265625 
C 24.796875 3.265625 24.59375 4.359375 24.59375 7.921875 
L 24.59375 33 
L 37.09375 33 
C 42.5 33 45.703125 31.015625 47.40625 29.421875 
C 51.203125 25.75 51.203125 23.28125 51.203125 16.34375 
C 51.203125 9.5 51.203125 5.9375 55.5 2.078125 
C 59.203125 -1.109375 64.796875 -2 68.296875 -2 
C 76.296875 -2 78.203125 6.140625 78.203125 8.90625 
C 78.203125 9.5 78.203125 10.59375 76.90625 10.59375 
C 75.796875 10.59375 75.796875 9.703125 75.703125 9.015625 
C 74.90625 1.28125 70.796875 0.1875 68.703125 0.1875 
C 63.40625 0.1875 62.703125 4.65625 60.90625 16.140625 
C 59.796875 23.078125 59.40625 25.5625 56.203125 28.734375 
C 54.09375 30.90625 50.90625 32.796875 47 33.890625 
z
" id="CMCSC10-82"/>
      <path d="M 63.40625 62.0625 
C 60.09375 65.484375 54 71 43.703125 71 
C 24 71 7.203125 54.9375 7.203125 34.546875 
C 7.203125 14.046875 24 -2 43.796875 -2 
C 60.703125 -2 71.296875 11.640625 71.296875 23.59375 
C 71.296875 24.59375 71.296875 25.296875 70 25.296875 
C 68.90625 25.296875 68.90625 24.703125 68.796875 23.6875 
C 68 9.125 56.296875 1.09375 45.09375 1.09375 
C 36.296875 1.09375 17.5 6.3125 17.5 34.4375 
C 17.5 64.078125 38 67.890625 44.90625 67.890625 
C 55.59375 67.890625 65.796875 59.546875 68.09375 44.078125 
C 68.296875 42.671875 68.40625 42.375 69.703125 42.375 
C 71.296875 42.375 71.296875 42.671875 71.296875 44.78125 
L 71.296875 68.59375 
C 71.296875 70.296875 71.296875 71 70.203125 71 
C 69.796875 71 69.40625 71 68.59375 69.796875 
z
" id="CMCSC10-67"/>
      <path d="M 71.203125 68.59375 
C 71.203125 70.296875 71.203125 71 70.09375 71 
C 69.703125 71 69.296875 71 68.5 69.796875 
L 63.296875 62.125 
C 60.203125 65.109375 54.296875 71 43.703125 71 
C 23.796875 71 7.203125 54.859375 7.203125 34.859375 
C 7.203125 14.578125 23.59375 -2 43.90625 -2 
C 51.796875 -2 60.40625 0.59375 63.90625 6.609375 
C 65.203125 4.359375 69.203125 0.296875 70.296875 0.296875 
C 71.203125 0.296875 71.203125 1.09375 71.203125 2.625 
L 71.203125 20.390625 
C 71.203125 24.890625 72.296875 24.890625 78.5 24.890625 
L 78.5 28 
C 73.703125 27.796875 70.09375 27.6875 65.796875 27.6875 
C 61.703125 27.6875 52.796875 27.6875 49.203125 28 
L 49.203125 24.890625 
L 52.703125 24.890625 
C 62.296875 24.890625 62.296875 23.46875 62.296875 19.984375 
L 62.296875 13.453125 
C 62.296875 1.09375 46.796875 1.09375 45.59375 1.09375 
C 36.5 1.09375 17.5 6.40625 17.5 34.859375 
C 17.5 63.015625 36.703125 67.890625 44.90625 67.890625 
C 55.5 67.890625 65.703125 59.734375 68 44.3125 
C 68.203125 42.921875 68.296875 42.625 69.59375 42.625 
C 71.203125 42.625 71.203125 42.921875 71.203125 45 
z
" id="CMCSC10-71"/>
     </defs>
     <g transform="translate(424.094451 26.7)scale(0.1 -0.1)">
      <use transform="scale(0.996264)" xlink:href="#CMCSC10-112"/>
      <use transform="translate(55.569158 0)scale(0.996264)" xlink:href="#CMCSC10-105"/>
      <use transform="translate(85.67837 0)scale(0.996264)" xlink:href="#CMCSC10-112"/>
      <use transform="translate(141.247528 0)scale(0.996264)" xlink:href="#CMCSC10-101"/>
      <use transform="translate(196.816686 0)scale(0.996264)" xlink:href="#CMCSC10-45"/>
      <use transform="translate(234.45297 0)scale(0.996264)" xlink:href="#CMCSC10-80"/>
      <use transform="translate(308.341796 0)scale(0.996264)" xlink:href="#CMCSC10-82"/>
      <use transform="translate(388.042172 0)scale(0.996264)" xlink:href="#CMCSC10-45"/>
      <use transform="translate(425.678456 0)scale(0.996264)" xlink:href="#CMCSC10-67"/>
      <use transform="translate(503.99518 0)scale(0.996264)" xlink:href="#CMCSC10-71"/>
     </g>
    </g>
    <g id="line2d_42">
     <path d="M 396.094451 37.137178 
L 416.094451 37.137178 
" style="fill:none;stroke:#2aa198;stroke-linecap:square;stroke-width:1.5;"/>
    </g>
    <g id="line2d_43"/>
    <g id="text_19">
     <!-- \textsc{pipe-P-CG} -->
     <g transform="translate(424.094451 40.637178)scale(0.1 -0.1)">
      <use transform="scale(0.996264)" xlink:href="#CMCSC10-112"/>
      <use transform="translate(55.569158 0)scale(0.996264)" xlink:href="#CMCSC10-105"/>
      <use transform="translate(85.67837 0)scale(0.996264)" xlink:href="#CMCSC10-112"/>
      <use transform="translate(141.247528 0)scale(0.996264)" xlink:href="#CMCSC10-101"/>
      <use transform="translate(196.816686 0)scale(0.996264)" xlink:href="#CMCSC10-45"/>
      <use transform="translate(234.45297 0)scale(0.996264)" xlink:href="#CMCSC10-80"/>
      <use transform="translate(308.341796 0)scale(0.996264)" xlink:href="#CMCSC10-45"/>
      <use transform="translate(345.97808 0)scale(0.996264)" xlink:href="#CMCSC10-67"/>
      <use transform="translate(424.294805 0)scale(0.996264)" xlink:href="#CMCSC10-71"/>
     </g>
    </g>
    <g id="line2d_44">
     <path d="M 396.094451 51.074357 
L 416.094451 51.074357 
" style="fill:none;stroke:#073642;stroke-dasharray:1.5,2.475;stroke-dashoffset:0;stroke-width:1.5;"/>
    </g>
    <g id="line2d_45"/>
    <g id="text_20">
     <!-- PR-CG -->
     <defs>
      <path d="M 19.796875 32 
L 35.796875 32 
C 48.703125 32 58.09375 40.359375 58.09375 49.796875 
C 58.09375 59.234375 48.90625 68 35.796875 68 
L 5.203125 68 
L 5.203125 65.390625 
C 12.09375 65.390625 13.203125 65.390625 13.203125 60.921875 
L 13.203125 7.078125 
C 13.203125 2.59375 12.09375 2.59375 5.203125 2.59375 
L 5.203125 0 
C 8.09375 0.1875 13.40625 0.1875 16.5 0.1875 
C 19.59375 0.1875 24.90625 0.1875 27.796875 0 
L 27.796875 2.59375 
C 20.90625 2.59375 19.796875 2.59375 19.796875 7.078125 
z
M 19.59375 34.09375 
L 19.59375 61.515625 
C 19.59375 64.890625 19.796875 65.390625 23.796875 65.390625 
L 33.90625 65.390625 
C 46.796875 65.390625 50.5 58.046875 50.5 49.796875 
C 50.5 40.75 46.09375 34.09375 33.90625 34.09375 
z
" id="CMR17-80"/>
      <path d="M 39.203125 33.6875 
C 48.703125 35.59375 56.703125 42.015625 56.703125 50.046875 
C 56.703125 59.46875 46.09375 68 32.09375 68 
L 5.203125 68 
L 5.203125 65.390625 
C 12.09375 65.390625 13.203125 65.390625 13.203125 60.875 
L 13.203125 6.6875 
C 13.203125 2.1875 12.09375 2.1875 5.203125 2.1875 
L 5.203125 -0.40625 
C 8.09375 -0.203125 13.296875 -0.203125 16.40625 -0.203125 
C 19.5 -0.203125 24.703125 -0.203125 27.59375 -0.40625 
L 27.59375 2.1875 
C 20.703125 2.1875 19.59375 2.1875 19.59375 6.6875 
L 19.59375 33 
L 31.296875 33 
C 37 33 40.203125 30.6875 41.59375 29.390625 
C 45.59375 25.5 45.59375 22.796875 45.59375 16 
C 45.59375 9.296875 45.59375 5.890625 48.59375 2.5 
C 52.40625 -1.609375 57.5 -2 59.703125 -2 
C 67.09375 -2 68.203125 6.296875 68.203125 8 
C 68.203125 8.59375 68.203125 9.296875 67.296875 9.296875 
C 66.5 9.296875 66.40625 8.6875 66.40625 8.296875 
C 65.90625 1.796875 63 -0.40625 59.90625 -0.40625 
C 54.40625 -0.40625 53.796875 5.890625 53.203125 12 
C 52.90625 14.09375 52.703125 15.59375 52.5 17.796875 
C 51.90625 22.796875 51.09375 30.09375 39.203125 33.6875 
z
M 31 34.59375 
L 19.59375 34.59375 
L 19.59375 61.484375 
C 19.59375 64.890625 19.796875 65.390625 23.796875 65.390625 
L 31.09375 65.390625 
C 39.40625 65.390625 49.09375 62.484375 49.09375 50.046875 
C 49.09375 37.09375 38.5 34.59375 31 34.59375 
z
" id="CMR17-82"/>
      <path d="M 62.09375 67.984375 
C 62.09375 69.796875 62 69.890625 61.40625 69.890625 
C 61 69.890625 60.90625 69.796875 60.203125 68.59375 
L 55.796875 60.140625 
C 50.90625 66.390625 44.90625 70 37.203125 70 
C 20.09375 70 4.59375 54.796875 4.59375 34.046875 
C 4.59375 13.078125 20.09375 -2 37.296875 -2 
C 52.59375 -2 62.09375 11.578125 62.09375 23.15625 
C 62.09375 24.171875 62.09375 24.578125 61.203125 24.578125 
C 60.40625 24.578125 60.40625 24.265625 60.296875 23.359375 
C 59.5 9.25 49.5 0.59375 38.703125 0.59375 
C 28.5 0.59375 12.203125 7.84375 12.203125 34.046875 
C 12.203125 60.34375 28.796875 67.390625 38.5 67.390625 
C 49.796875 67.390625 58 57.515625 59.90625 43.515625 
C 60.09375 42.296875 60.09375 42.109375 61 42.109375 
C 62.09375 42.109375 62.09375 42.296875 62.09375 44.125 
z
" id="CMR17-67"/>
      <path d="M 62.09375 19.65625 
C 62.09375 23.484375 62.40625 24 68.59375 24 
L 68.59375 26.59375 
C 66.203125 26.390625 60.796875 26.390625 58.09375 26.390625 
C 55.296875 26.390625 47.5 26.5 43.703125 26.59375 
L 43.703125 24 
L 46.703125 24 
C 55.296875 24 55.5 22.875 55.5 19.25 
L 55.5 12.59375 
C 55.5 1.5 42.5 0.59375 39.40625 0.59375 
C 29.09375 0.59375 12.203125 7.75 12.203125 34.046875 
C 12.203125 60.34375 28.796875 67.390625 38.5 67.390625 
C 49.796875 67.390625 58 57.515625 59.90625 43.515625 
C 60.09375 42.3125 60.09375 42.109375 61 42.109375 
C 62.09375 42.109375 62.09375 42.3125 62.09375 44.125 
L 62.09375 67.984375 
C 62.09375 69.796875 62 69.890625 61.40625 69.890625 
C 61 69.890625 60.90625 69.796875 60.203125 68.59375 
L 55.796875 60.140625 
C 50.90625 66.390625 44.90625 70 37.203125 70 
C 20.09375 70 4.59375 54.796875 4.59375 34.046875 
C 4.59375 13.40625 19.796875 -2 37.40625 -2 
C 45.5 -2 53.40625 0.890625 56.5 6.640625 
C 58.203125 2.515625 61 -0.3125 61.5 -0.3125 
C 62 -0.3125 62.09375 -0.203125 62.09375 1.59375 
z
" id="CMR17-71"/>
     </defs>
     <g transform="translate(424.094451 54.574357)scale(0.1 -0.1)">
      <use transform="scale(0.996264)" xlink:href="#CMR17-80"/>
      <use transform="translate(62.586301 0)scale(0.996264)" xlink:href="#CMR17-82"/>
      <use transform="translate(130.377402 0)scale(0.996264)" xlink:href="#CMR17-45"/>
      <use transform="translate(160.453369 0)scale(0.996264)" xlink:href="#CMR17-67"/>
      <use transform="translate(226.963249 0)scale(0.996264)" xlink:href="#CMR17-71"/>
     </g>
    </g>
    <g id="line2d_46">
     <path d="M 396.094451 65.011535 
L 416.094451 65.011535 
" style="fill:none;stroke:#859900;stroke-dasharray:1.5,2.475;stroke-dashoffset:0;stroke-width:1.5;"/>
    </g>
    <g id="line2d_47"/>
    <g id="text_21">
     <!-- \textsc{pipe-PR-M-CG} -->
     <defs>
      <path d="M 74.40625 65.09375 
L 74.5 64.984375 
L 74.5 7.765625 
C 74.5 4.1875 74.296875 3.09375 66.59375 3.09375 
L 64.203125 3.09375 
L 64.203125 0 
C 67.90625 0.296875 74.703125 0.296875 78.59375 0.296875 
C 82.5 0.296875 89.203125 0.296875 92.90625 0 
L 92.90625 3.09375 
L 90.5 3.09375 
C 82.796875 3.09375 82.59375 4.1875 82.59375 7.765625 
L 82.59375 60.21875 
C 82.59375 63.796875 82.796875 64.890625 90.5 64.890625 
L 92.90625 64.890625 
L 92.90625 68 
L 76 68 
C 73.703125 68 73.40625 68 72.59375 66.09375 
L 49.40625 9.46875 
L 26.203125 66.1875 
C 25.5 68 24.90625 68 22.796875 68 
L 5.90625 68 
L 5.90625 64.890625 
L 8.296875 64.890625 
C 16 64.890625 16.203125 63.796875 16.203125 60.21875 
L 16.203125 10.453125 
C 16.203125 7.765625 16.203125 3.09375 5.90625 3.09375 
L 5.90625 0 
C 9.40625 0.09375 14.296875 0.296875 17.59375 0.296875 
C 20.90625 0.296875 25.796875 0.09375 29.296875 0 
L 29.296875 3.09375 
C 19 3.09375 19 7.765625 19 10.453125 
L 19 64.296875 
L 19.09375 64.390625 
L 44.703125 1.796875 
C 45.09375 0.890625 45.59375 0 46.59375 0 
C 47.59375 0 48.09375 0.890625 48.5 1.796875 
z
" id="CMCSC10-77"/>
     </defs>
     <g transform="translate(424.094451 68.511535)scale(0.1 -0.1)">
      <use transform="scale(0.996264)" xlink:href="#CMCSC10-112"/>
      <use transform="translate(55.569158 0)scale(0.996264)" xlink:href="#CMCSC10-105"/>
      <use transform="translate(85.67837 0)scale(0.996264)" xlink:href="#CMCSC10-112"/>
      <use transform="translate(141.247528 0)scale(0.996264)" xlink:href="#CMCSC10-101"/>
      <use transform="translate(196.816686 0)scale(0.996264)" xlink:href="#CMCSC10-45"/>
      <use transform="translate(234.45297 0)scale(0.996264)" xlink:href="#CMCSC10-80"/>
      <use transform="translate(308.341796 0)scale(0.996264)" xlink:href="#CMCSC10-82"/>
      <use transform="translate(388.042172 0)scale(0.996264)" xlink:href="#CMCSC10-45"/>
      <use transform="translate(425.678456 0)scale(0.996264)" xlink:href="#CMCSC10-77"/>
      <use transform="translate(524.19692 0)scale(0.996264)" xlink:href="#CMCSC10-45"/>
      <use transform="translate(561.833204 0)scale(0.996264)" xlink:href="#CMCSC10-67"/>
      <use transform="translate(640.149929 0)scale(0.996264)" xlink:href="#CMCSC10-71"/>
     </g>
    </g>
    <g id="line2d_48">
     <path d="M 396.094451 78.948713 
L 416.094451 78.948713 
" style="fill:none;stroke:#6c71c4;stroke-linecap:square;stroke-width:1.5;"/>
    </g>
    <g id="line2d_49"/>
    <g id="text_22">
     <!-- \textsc{pipe-P-M-CG} -->
     <g transform="translate(424.094451 82.448713)scale(0.1 -0.1)">
      <use transform="scale(0.996264)" xlink:href="#CMCSC10-112"/>
      <use transform="translate(55.569158 0)scale(0.996264)" xlink:href="#CMCSC10-105"/>
      <use transform="translate(85.67837 0)scale(0.996264)" xlink:href="#CMCSC10-112"/>
      <use transform="translate(141.247528 0)scale(0.996264)" xlink:href="#CMCSC10-101"/>
      <use transform="translate(196.816686 0)scale(0.996264)" xlink:href="#CMCSC10-45"/>
      <use transform="translate(234.45297 0)scale(0.996264)" xlink:href="#CMCSC10-80"/>
      <use transform="translate(308.341796 0)scale(0.996264)" xlink:href="#CMCSC10-45"/>
      <use transform="translate(345.97808 0)scale(0.996264)" xlink:href="#CMCSC10-77"/>
      <use transform="translate(444.496544 0)scale(0.996264)" xlink:href="#CMCSC10-45"/>
      <use transform="translate(482.132828 0)scale(0.996264)" xlink:href="#CMCSC10-67"/>
      <use transform="translate(560.449553 0)scale(0.996264)" xlink:href="#CMCSC10-71"/>
     </g>
    </g>
    <g id="line2d_50">
     <path d="M 396.094451 92.885892 
L 416.094451 92.885892 
" style="fill:none;stroke:#93a1a1;stroke-linecap:square;stroke-width:1.5;"/>
    </g>
    <g id="line2d_51">
     <g>
      <use style="fill:#93a1a1;stroke:#93a1a1;stroke-linejoin:miter;" x="406.094451" xlink:href="#m6e2470a97c" y="92.885892"/>
     </g>
    </g>
    <g id="text_23">
     <!-- GV-CG -->
     <defs>
      <path d="M 59 58.78125 
C 59.90625 60.984375 61.5 65.296875 68.203125 65.390625 
L 68.203125 68 
C 65.90625 67.796875 63.296875 67.796875 60.796875 67.796875 
C 58.40625 67.796875 54.296875 67.796875 52 68 
L 52 65.390625 
C 57 65.09375 57.203125 61.59375 57.203125 60.984375 
C 57.203125 59.890625 56.90625 59.1875 56.59375 58.390625 
L 36.90625 7 
L 16.296875 60.984375 
C 16 61.6875 15.796875 62.1875 15.796875 62.6875 
C 15.796875 65.390625 19.796875 65.390625 21.90625 65.390625 
L 21.90625 68 
C 18.703125 67.796875 14 67.796875 10.703125 67.796875 
C 8.09375 67.796875 3.40625 67.796875 1 68 
L 1 65.390625 
C 6.796875 65.390625 7.90625 65 9.09375 61.796875 
L 32.90625 -0.40625 
C 33.40625 -1.8125 33.5 -2 34.59375 -2 
C 35.703125 -2 35.796875 -1.8125 36.296875 -0.40625 
z
" id="CMR17-86"/>
     </defs>
     <g transform="translate(424.094451 96.385892)scale(0.1 -0.1)">
      <use transform="scale(0.996264)" xlink:href="#CMR17-71"/>
      <use transform="translate(72.355346 0)scale(0.996264)" xlink:href="#CMR17-86"/>
      <use transform="translate(141.427776 0)scale(0.996264)" xlink:href="#CMR17-45"/>
      <use transform="translate(171.503742 0)scale(0.996264)" xlink:href="#CMR17-67"/>
      <use transform="translate(238.013623 0)scale(0.996264)" xlink:href="#CMR17-71"/>
     </g>
    </g>
    <g id="line2d_52">
     <path d="M 396.094451 106.82307 
L 416.094451 106.82307 
" style="fill:none;stroke:#93a1a1;stroke-linecap:square;stroke-width:1.5;"/>
    </g>
    <g id="line2d_53">
     <g>
      <use style="fill:#93a1a1;stroke:#93a1a1;stroke-linejoin:miter;" x="406.094451" xlink:href="#m85935fd643" y="106.82307"/>
     </g>
    </g>
    <g id="text_24">
     <!-- M-CG -->
     <defs>
      <path d="M 20.90625 66.390625 
C 20.296875 67.890625 20.203125 68 18.09375 68 
L 5.296875 68 
L 5.296875 65.390625 
C 12.203125 65.390625 13.296875 65.390625 13.296875 60.90625 
L 13.296875 9.75 
C 13.296875 7.265625 13.296875 2.59375 5.296875 2.59375 
L 5.296875 0 
C 7.59375 0.1875 11.796875 0.1875 14.296875 0.1875 
C 16.796875 0.1875 21 0.1875 23.296875 0 
L 23.296875 2.59375 
C 15.296875 2.59375 15.296875 7.265625 15.296875 9.75 
L 15.296875 64.984375 
L 15.40625 64.984375 
L 38.90625 1.59375 
C 39.296875 0.59375 39.5 0 40.296875 0 
C 41.09375 0 41.296875 0.59375 41.703125 1.59375 
L 65.40625 65.484375 
L 65.5 65.484375 
L 65.5 7.078125 
C 65.5 2.59375 64.40625 2.59375 57.5 2.59375 
L 57.5 0 
C 60.203125 0.1875 65.59375 0.1875 68.5 0.1875 
C 71.40625 0.1875 76.90625 0.1875 79.59375 0 
L 79.59375 2.59375 
C 72.703125 2.59375 71.59375 2.59375 71.59375 7.078125 
L 71.59375 60.90625 
C 71.59375 65.390625 72.703125 65.390625 79.59375 65.390625 
L 79.59375 68 
L 66.90625 68 
C 64.796875 68 64.703125 67.890625 64.09375 66.390625 
L 42.5 8.0625 
z
" id="CMR17-77"/>
     </defs>
     <g transform="translate(424.094451 110.32307)scale(0.1 -0.1)">
      <use transform="scale(0.996264)" xlink:href="#CMR17-77"/>
      <use transform="translate(84.686941 0)scale(0.996264)" xlink:href="#CMR17-45"/>
      <use transform="translate(114.762907 0)scale(0.996264)" xlink:href="#CMR17-67"/>
      <use transform="translate(181.272787 0)scale(0.996264)" xlink:href="#CMR17-71"/>
     </g>
    </g>
    <g id="line2d_54">
     <path d="M 396.094451 120.760248 
L 416.094451 120.760248 
" style="fill:none;stroke:#93a1a1;stroke-linecap:square;stroke-width:1.5;"/>
    </g>
    <g id="line2d_55">
     <g>
      <use style="fill:#93a1a1;stroke:#93a1a1;stroke-linejoin:miter;" x="406.094451" xlink:href="#mb4ea9de82c" y="120.760248"/>
     </g>
    </g>
    <g id="text_25">
     <!-- CG-CG -->
     <g transform="translate(424.094451 124.260248)scale(0.1 -0.1)">
      <use transform="scale(0.996264)" xlink:href="#CMR17-67"/>
      <use transform="translate(66.509881 0)scale(0.996264)" xlink:href="#CMR17-71"/>
      <use transform="translate(138.865226 0)scale(0.996264)" xlink:href="#CMR17-45"/>
      <use transform="translate(168.941193 0)scale(0.996264)" xlink:href="#CMR17-67"/>
      <use transform="translate(235.451073 0)scale(0.996264)" xlink:href="#CMR17-71"/>
     </g>
    </g>
    <g id="line2d_56">
     <path d="M 396.094451 134.697427 
L 416.094451 134.697427 
" style="fill:none;stroke:#93a1a1;stroke-linecap:square;stroke-width:1.5;"/>
    </g>
    <g id="line2d_57">
     <g>
      <use style="fill:#93a1a1;stroke:#93a1a1;" x="406.094451" xlink:href="#mfa5a27d776" y="134.697427"/>
     </g>
    </g>
    <g id="text_26">
     <!-- HS-CG -->
     <defs>
      <path d="M 56.09375 60.90625 
C 56.09375 65.390625 57.203125 65.390625 64.09375 65.390625 
L 64.09375 68 
C 61.203125 67.796875 55.90625 67.796875 52.796875 67.796875 
C 49.703125 67.796875 44.40625 67.796875 41.5 68 
L 41.5 65.390625 
C 48.40625 65.390625 49.5 65.390625 49.5 60.90625 
L 49.5 36.59375 
L 19.703125 36.59375 
L 19.703125 60.90625 
C 19.703125 65.390625 20.796875 65.390625 27.703125 65.390625 
L 27.703125 68 
C 24.796875 67.796875 19.5 67.796875 16.40625 67.796875 
C 13.296875 67.796875 8 67.796875 5.09375 68 
L 5.09375 65.390625 
C 12 65.390625 13.09375 65.390625 13.09375 60.90625 
L 13.09375 7.0625 
C 13.09375 2.59375 12 2.59375 5.09375 2.59375 
L 5.09375 0 
C 8 0.1875 13.296875 0.1875 16.40625 0.1875 
C 19.5 0.1875 24.796875 0.1875 27.703125 0 
L 27.703125 2.59375 
C 20.796875 2.59375 19.703125 2.59375 19.703125 7.0625 
L 19.703125 34 
L 49.5 34 
L 49.5 7.0625 
C 49.5 2.59375 48.40625 2.59375 41.5 2.59375 
L 41.5 0 
C 44.40625 0.1875 49.703125 0.1875 52.796875 0.1875 
C 55.90625 0.1875 61.203125 0.1875 64.09375 0 
L 64.09375 2.59375 
C 57.203125 2.59375 56.09375 2.59375 56.09375 7.0625 
z
" id="CMR17-72"/>
      <path d="M 43.796875 67.984375 
C 43.796875 69.796875 43.703125 69.890625 43.09375 69.890625 
C 42.5 69.890625 42.296875 69.484375 41.90625 68.59375 
L 38.90625 61.953125 
C 35.09375 67.5 29.296875 70 23 70 
C 12.796875 70 4.59375 61.84375 4.59375 51.578125 
C 4.59375 48.453125 5.296875 44.015625 8.703125 39.78125 
C 12.40625 35.15625 15.90625 34.34375 23.90625 32.234375 
C 26.90625 31.421875 31.90625 30.109375 32.90625 29.703125 
C 38.59375 27.296875 41.59375 21.25 41.59375 15.609375 
C 41.59375 8.34375 36.5 0.59375 27.796875 0.59375 
C 17.09375 0.59375 7.09375 6.640625 6.40625 20.75 
C 6.296875 22.359375 6.203125 22.453125 5.5 22.453125 
C 4.703125 22.453125 4.59375 22.359375 4.59375 20.34375 
L 4.59375 0 
C 4.59375 -1.8125 4.703125 -1.90625 5.296875 -1.90625 
C 6 -1.90625 6.203125 -1.40625 7.59375 1.703125 
C 7.703125 2 7.703125 2.203125 9.59375 6.03125 
C 14.59375 -0.609375 23 -2 27.796875 -2 
C 38.703125 -2 46.40625 7.140625 46.40625 17.828125 
C 46.40625 23.0625 44.5 27.09375 43.40625 28.90625 
C 39.203125 35.359375 34.703125 36.5625 29.90625 37.765625 
C 29.203125 38.078125 29 38.078125 23.40625 39.484375 
C 18 40.890625 15.703125 41.59375 13.203125 44.3125 
C 10.40625 47.4375 9.40625 50.671875 9.40625 53.890625 
C 9.40625 60.4375 14.59375 67.59375 23.09375 67.59375 
C 33.703125 67.59375 40.296875 60.03125 41.796875 47.4375 
C 42.09375 45.625 42.203125 45.53125 42.90625 45.53125 
C 43.796875 45.53125 43.796875 45.828125 43.796875 47.546875 
z
" id="CMR17-83"/>
     </defs>
     <g transform="translate(424.094451 138.197427)scale(0.1 -0.1)">
      <use transform="scale(0.996264)" xlink:href="#CMR17-72"/>
      <use transform="translate(69.07243 0)scale(0.996264)" xlink:href="#CMR17-83"/>
      <use transform="translate(119.9678 0)scale(0.996264)" xlink:href="#CMR17-45"/>
      <use transform="translate(150.043766 0)scale(0.996264)" xlink:href="#CMR17-67"/>
      <use transform="translate(216.553646 0)scale(0.996264)" xlink:href="#CMR17-71"/>
     </g>
    </g>
   </g>
  </g>
 </g>
 <defs>
  <clipPath id="p78c09869e4">
   <rect height="221.76" width="334.8" x="52.294451" y="10.7"/>
  </clipPath>
 </defs>
</svg>
