<?xml version="1.0" encoding="utf-8" standalone="no"?>
<!DOCTYPE svg PUBLIC "-//W3C//DTD SVG 1.1//EN"
  "http://www.w3.org/Graphics/SVG/1.1/DTD/svg11.dtd">
<!-- Created with matplotlib (https://matplotlib.org/) -->
<svg height="268.371353pt" version="1.1" viewBox="0 0 507.791371 268.371353" width="507.791371pt" xmlns="http://www.w3.org/2000/svg" xmlns:xlink="http://www.w3.org/1999/xlink">
 <defs>
  <style type="text/css">
*{stroke-linecap:butt;stroke-linejoin:round;}
  </style>
 </defs>
 <g id="figure_1">
  <g id="patch_1">
   <path d="M -0 268.371353 
L 507.791371 268.371353 
L 507.791371 0 
L -0 0 
z
" style="fill:#ffffff;"/>
  </g>
  <g id="axes_1">
   <g id="patch_2">
    <path d="M 52.294451 232.46 
L 387.094451 232.46 
L 387.094451 10.7 
L 52.294451 10.7 
z
" style="fill:#ffffff;"/>
   </g>
   <g id="matplotlib.axis_1">
    <g id="xtick_1">
     <g id="line2d_1">
      <path clip-path="url(#p0f89807841)" d="M 67.512633 232.46 
L 67.512633 10.7 
" style="fill:none;stroke:#b0b0b0;stroke-dasharray:0.8,1.32;stroke-dashoffset:0;stroke-width:0.8;"/>
     </g>
     <g id="line2d_2">
      <defs>
       <path d="M 0 0 
L 0 3.5 
" id="m8061e1abbf" style="stroke:#000000;stroke-width:0.8;"/>
      </defs>
      <g>
       <use style="stroke:#000000;stroke-width:0.8;" x="67.512633" xlink:href="#m8061e1abbf" y="232.46"/>
      </g>
     </g>
     <g id="text_1">
      <!-- $0$ -->
      <defs>
       <path d="M 42 31.84375 
C 42 37.96875 41.90625 48.421875 37.703125 56.453125 
C 34 63.484375 28.09375 66 22.90625 66 
C 18.09375 66 12 63.78125 8.203125 56.5625 
C 4.203125 49.015625 3.796875 39.671875 3.796875 31.84375 
C 3.796875 26.109375 3.90625 17.375 7 9.734375 
C 11.296875 -0.609375 19 -2 22.90625 -2 
C 27.5 -2 34.5 -0.109375 38.59375 9.4375 
C 41.59375 16.375 42 24.5 42 31.84375 
z
M 22.90625 -0.40625 
C 16.5 -0.40625 12.703125 5.125 11.296875 12.75 
C 10.203125 18.6875 10.203125 27.328125 10.203125 32.953125 
C 10.203125 40.6875 10.203125 47.109375 11.5 53.234375 
C 13.40625 61.78125 19 64.390625 22.90625 64.390625 
C 27 64.390625 32.296875 61.671875 34.203125 53.4375 
C 35.5 47.71875 35.59375 40.984375 35.59375 32.953125 
C 35.59375 26.421875 35.59375 18.375 34.40625 12.453125 
C 32.296875 1.5 26.40625 -0.40625 22.90625 -0.40625 
z
" id="CMR17-48"/>
      </defs>
      <g transform="translate(65.021965 246.378498)scale(0.1 -0.1)">
       <use transform="scale(0.996264)" xlink:href="#CMR17-48"/>
      </g>
     </g>
    </g>
    <g id="xtick_2">
     <g id="line2d_3">
      <path clip-path="url(#p0f89807841)" d="M 135.216701 232.46 
L 135.216701 10.7 
" style="fill:none;stroke:#b0b0b0;stroke-dasharray:0.8,1.32;stroke-dashoffset:0;stroke-width:0.8;"/>
     </g>
     <g id="line2d_4">
      <g>
       <use style="stroke:#000000;stroke-width:0.8;" x="135.216701" xlink:href="#m8061e1abbf" y="232.46"/>
      </g>
     </g>
     <g id="text_2">
      <!-- $10000$ -->
      <defs>
       <path d="M 26.59375 63.796875 
C 26.59375 65.890625 26.5 66 25.09375 66 
C 21.203125 61.359375 15.296875 59.890625 9.703125 59.6875 
C 9.40625 59.6875 8.90625 59.6875 8.796875 59.5 
C 8.703125 59.296875 8.703125 59.09375 8.703125 57 
C 11.796875 57 17 57.59375 21 59.984375 
L 21 7.296875 
C 21 3.796875 20.796875 2.59375 12.203125 2.59375 
L 9.203125 2.59375 
L 9.203125 0 
C 14 0.09375 19 0.1875 23.796875 0.1875 
C 28.59375 0.1875 33.59375 0.09375 38.40625 0 
L 38.40625 2.59375 
L 35.40625 2.59375 
C 26.796875 2.59375 26.59375 3.6875 26.59375 7.296875 
z
" id="CMR17-49"/>
      </defs>
      <g transform="translate(122.763362 246.378498)scale(0.1 -0.1)">
       <use transform="scale(0.996264)" xlink:href="#CMR17-49"/>
       <use transform="translate(45.690477 0)scale(0.996264)" xlink:href="#CMR17-48"/>
       <use transform="translate(91.380954 0)scale(0.996264)" xlink:href="#CMR17-48"/>
       <use transform="translate(137.071431 0)scale(0.996264)" xlink:href="#CMR17-48"/>
       <use transform="translate(182.761908 0)scale(0.996264)" xlink:href="#CMR17-48"/>
      </g>
     </g>
    </g>
    <g id="xtick_3">
     <g id="line2d_5">
      <path clip-path="url(#p0f89807841)" d="M 202.920768 232.46 
L 202.920768 10.7 
" style="fill:none;stroke:#b0b0b0;stroke-dasharray:0.8,1.32;stroke-dashoffset:0;stroke-width:0.8;"/>
     </g>
     <g id="line2d_6">
      <g>
       <use style="stroke:#000000;stroke-width:0.8;" x="202.920768" xlink:href="#m8061e1abbf" y="232.46"/>
      </g>
     </g>
     <g id="text_3">
      <!-- $20000$ -->
      <defs>
       <path d="M 41.703125 15.46875 
L 39.90625 15.46875 
C 38.90625 8.390625 38.09375 7.1875 37.703125 6.59375 
C 37.203125 5.796875 30 5.796875 28.59375 5.796875 
L 9.40625 5.796875 
C 13 9.6875 20 16.765625 28.5 24.9375 
C 34.59375 30.71875 41.703125 37.5 41.703125 47.390625 
C 41.703125 59.1875 32.296875 66 21.796875 66 
C 10.796875 66 4.09375 56.296875 4.09375 47.296875 
C 4.09375 43.390625 7 42.890625 8.203125 42.890625 
C 9.203125 42.890625 12.203125 43.484375 12.203125 46.984375 
C 12.203125 50.09375 9.59375 51 8.203125 51 
C 7.59375 51 7 50.890625 6.59375 50.6875 
C 8.5 59.1875 14.296875 63.390625 20.40625 63.390625 
C 29.09375 63.390625 34.796875 56.5 34.796875 47.390625 
C 34.796875 38.703125 29.703125 31.21875 24 24.734375 
L 4.09375 2.296875 
L 4.09375 0 
L 39.296875 0 
z
" id="CMR17-50"/>
      </defs>
      <g transform="translate(190.46743 246.378498)scale(0.1 -0.1)">
       <use transform="scale(0.996264)" xlink:href="#CMR17-50"/>
       <use transform="translate(45.690477 0)scale(0.996264)" xlink:href="#CMR17-48"/>
       <use transform="translate(91.380954 0)scale(0.996264)" xlink:href="#CMR17-48"/>
       <use transform="translate(137.071431 0)scale(0.996264)" xlink:href="#CMR17-48"/>
       <use transform="translate(182.761908 0)scale(0.996264)" xlink:href="#CMR17-48"/>
      </g>
     </g>
    </g>
    <g id="xtick_4">
     <g id="line2d_7">
      <path clip-path="url(#p0f89807841)" d="M 270.624836 232.46 
L 270.624836 10.7 
" style="fill:none;stroke:#b0b0b0;stroke-dasharray:0.8,1.32;stroke-dashoffset:0;stroke-width:0.8;"/>
     </g>
     <g id="line2d_8">
      <g>
       <use style="stroke:#000000;stroke-width:0.8;" x="270.624836" xlink:href="#m8061e1abbf" y="232.46"/>
      </g>
     </g>
     <g id="text_4">
      <!-- $30000$ -->
      <defs>
       <path d="M 22.09375 34 
C 31 34 34.90625 26.140625 34.90625 17.09375 
C 34.90625 5.03125 28.5 0.390625 22.703125 0.390625 
C 17.40625 0.390625 8.796875 3.015625 6.09375 10.796875 
C 6.59375 10.59375 7.09375 10.59375 7.59375 10.59375 
C 10 10.59375 11.796875 12.1875 11.796875 14.796875 
C 11.796875 17.6875 9.59375 19 7.59375 19 
C 5.90625 19 3.296875 18.1875 3.296875 14.484375 
C 3.296875 5.234375 12.296875 -2 22.90625 -2 
C 34 -2 42.5 6.75 42.5 16.984375 
C 42.5 26.84375 34.5 34 25 35.09375 
C 32.59375 36.671875 39.90625 43.375 39.90625 52.390625 
C 39.90625 60.25 32 66 23 66 
C 13.90625 66 5.90625 60.34375 5.90625 52.296875 
C 5.90625 48.796875 8.5 48.1875 9.796875 48.1875 
C 11.90625 48.1875 13.703125 49.484375 13.703125 52.09375 
C 13.703125 54.6875 11.90625 56 9.796875 56 
C 9.40625 56 8.90625 56 8.5 55.796875 
C 11.40625 62.484375 19.296875 63.6875 22.796875 63.6875 
C 26.296875 63.6875 32.90625 61.96875 32.90625 52.296875 
C 32.90625 49.484375 32.5 44.546875 29.09375 40.21875 
C 26.09375 36.390625 22.703125 36.1875 19.40625 35.890625 
C 18.90625 35.890625 16.59375 35.6875 16.203125 35.6875 
C 15.5 35.59375 15.09375 35.5 15.09375 34.796875 
C 15.09375 34.09375 15.203125 34 17.203125 34 
z
" id="CMR17-51"/>
      </defs>
      <g transform="translate(258.171498 246.378498)scale(0.1 -0.1)">
       <use transform="scale(0.996264)" xlink:href="#CMR17-51"/>
       <use transform="translate(45.690477 0)scale(0.996264)" xlink:href="#CMR17-48"/>
       <use transform="translate(91.380954 0)scale(0.996264)" xlink:href="#CMR17-48"/>
       <use transform="translate(137.071431 0)scale(0.996264)" xlink:href="#CMR17-48"/>
       <use transform="translate(182.761908 0)scale(0.996264)" xlink:href="#CMR17-48"/>
      </g>
     </g>
    </g>
    <g id="xtick_5">
     <g id="line2d_9">
      <path clip-path="url(#p0f89807841)" d="M 338.328904 232.46 
L 338.328904 10.7 
" style="fill:none;stroke:#b0b0b0;stroke-dasharray:0.8,1.32;stroke-dashoffset:0;stroke-width:0.8;"/>
     </g>
     <g id="line2d_10">
      <g>
       <use style="stroke:#000000;stroke-width:0.8;" x="338.328904" xlink:href="#m8061e1abbf" y="232.46"/>
      </g>
     </g>
     <g id="text_5">
      <!-- $40000$ -->
      <defs>
       <path d="M 33.59375 64.796875 
C 33.59375 66.890625 33.5 67 31.703125 67 
L 2 19.59375 
L 2 17 
L 27.796875 17 
L 27.796875 7.1875 
C 27.796875 3.59375 27.59375 2.59375 20.59375 2.59375 
L 18.703125 2.59375 
L 18.703125 0 
C 21.90625 0.1875 27.296875 0.1875 30.703125 0.1875 
C 34.09375 0.1875 39.5 0.1875 42.703125 0 
L 42.703125 2.59375 
L 40.796875 2.59375 
C 33.796875 2.59375 33.59375 3.59375 33.59375 7.1875 
L 33.59375 17 
L 43.796875 17 
L 43.796875 19.59375 
L 33.59375 19.59375 
z
M 28.09375 58.171875 
L 28.09375 19.59375 
L 4 19.59375 
z
" id="CMR17-52"/>
      </defs>
      <g transform="translate(325.875566 246.378498)scale(0.1 -0.1)">
       <use transform="scale(0.996264)" xlink:href="#CMR17-52"/>
       <use transform="translate(45.690477 0)scale(0.996264)" xlink:href="#CMR17-48"/>
       <use transform="translate(91.380954 0)scale(0.996264)" xlink:href="#CMR17-48"/>
       <use transform="translate(137.071431 0)scale(0.996264)" xlink:href="#CMR17-48"/>
       <use transform="translate(182.761908 0)scale(0.996264)" xlink:href="#CMR17-48"/>
      </g>
     </g>
    </g>
    <g id="text_6">
     <!-- iteration $k$ -->
     <defs>
      <path d="M 15.5 61.890625 
C 15.5 64.09375 13.703125 66 11.40625 66 
C 9.203125 66 7.296875 64.1875 7.296875 61.890625 
C 7.296875 59.6875 9.09375 57.796875 11.40625 57.796875 
C 13.59375 57.796875 15.5 59.59375 15.5 61.890625 
z
M 3.796875 42.890625 
L 3.796875 40.296875 
C 9.40625 40.296875 10.203125 39.6875 10.203125 34.859375 
L 10.203125 6.921875 
C 10.203125 3.09375 9.796875 2.59375 3.40625 2.59375 
L 3.40625 0 
C 5.796875 0.1875 10.09375 0.1875 12.59375 0.1875 
C 15 0.1875 19.09375 0.1875 21.40625 0 
L 21.40625 2.59375 
C 15.5 2.59375 15.296875 3.203125 15.296875 6.8125 
L 15.296875 44 
z
" id="CMR17-105"/>
      <path d="M 15.09375 40.390625 
L 29.09375 40.390625 
L 29.09375 43 
L 15.09375 43 
L 15.09375 62 
L 13.296875 62 
C 13.09375 51.4375 9.59375 42.1875 1.09375 41.984375 
L 1.09375 40.390625 
L 9.796875 40.390625 
L 9.796875 12.15625 
C 9.796875 10.234375 9.796875 -1 21.40625 -1 
C 27.296875 -1 30.703125 4.8125 30.703125 12.25 
L 30.703125 17.984375 
L 28.90625 17.984375 
L 28.90625 12.34375 
C 28.90625 5.421875 26.203125 0.796875 22 0.796875 
C 19.09375 0.796875 15.09375 2.796875 15.09375 11.953125 
z
" id="CMR17-116"/>
      <path d="M 38.09375 23.484375 
C 38.5 23.890625 38.5 24.09375 38.5 25.09375 
C 38.5 35.171875 33.09375 44 21.703125 44 
C 11.09375 44 2.703125 33.984375 2.703125 21.78125 
C 2.703125 8.65625 12.203125 -1 22.796875 -1 
C 34 -1 38.40625 9.671875 38.40625 11.796875 
C 38.40625 12.5 37.796875 12.5 37.59375 12.5 
C 36.90625 12.5 36.796875 12.296875 36.40625 11.078125 
C 34.203125 4.21875 28.703125 0.796875 23.5 0.796875 
C 19.203125 0.796875 14.90625 3.21875 12.203125 7.65625 
C 9.09375 12.796875 9.09375 18.75 9.09375 23.484375 
z
M 9.203125 25 
C 9.90625 39.234375 17.59375 42.390625 21.59375 42.390625 
C 28.40625 42.390625 33 36.0625 33.09375 25 
z
" id="CMR17-101"/>
      <path d="M 15 23.703125 
C 15 33.34375 19.09375 42.390625 26.59375 42.390625 
C 27.296875 42.390625 28 42.296875 28.703125 41.984375 
C 28.703125 41.984375 26.5 41.28125 26.5 38.671875 
C 26.5 36.265625 28.40625 35.265625 29.90625 35.265625 
C 31.09375 35.265625 33.296875 35.96875 33.296875 38.78125 
C 33.296875 41.984375 30.09375 44 26.703125 44 
C 19.09375 44 15.796875 36.5625 14.796875 33.046875 
L 14.703125 33.046875 
L 14.703125 44 
L 3.09375 42.890625 
L 3.09375 40.28125 
C 9 40.28125 9.90625 39.6875 9.90625 34.859375 
L 9.90625 6.921875 
C 9.90625 3.09375 9.5 2.59375 3.09375 2.59375 
L 3.09375 0 
C 5.5 0.1875 10.09375 0.1875 12.703125 0.1875 
C 15.59375 0.1875 20.703125 0.1875 23.40625 0 
L 23.40625 2.59375 
C 16.203125 2.59375 15 2.59375 15 7.109375 
z
" id="CMR17-114"/>
      <path d="M 36 25.875 
C 36 32 36 35.546875 31.796875 39.59375 
C 28.09375 42.984375 23.796875 44 20.40625 44 
C 12.5 44 6.796875 37.625 6.796875 30.890625 
C 6.796875 27.1875 9.796875 27 10.40625 27 
C 11.703125 27 14 27.796875 14 30.59375 
C 14 33.09375 12.09375 34.1875 10.40625 34.1875 
C 10 34.1875 9.5 34.09375 9.203125 34 
C 11.296875 40.53125 16.703125 42.390625 20.203125 42.390625 
C 25.203125 42.390625 30.703125 37.828125 30.703125 29.296875 
L 30.703125 25.5 
C 24.796875 25.296875 17.703125 24.5 12.09375 21.453125 
C 5.796875 17.921875 4 12.84375 4 9 
C 4 1.203125 13 -1 18.296875 -1 
C 23.796875 -1 28.90625 2.109375 31.09375 7.890625 
C 31.296875 3.421875 34.09375 -0.609375 38.5 -0.609375 
C 40.59375 -0.609375 45.90625 0.796875 45.90625 8.796875 
L 45.90625 14.46875 
L 44.09375 14.46875 
L 44.09375 8.703125 
C 44.09375 2.515625 41.40625 1.703125 40.09375 1.703125 
C 36 1.703125 36 6.96875 36 11.4375 
z
M 30.703125 13.859375 
C 30.703125 5.046875 24.5 0.59375 19 0.59375 
C 14 0.59375 10.09375 4.34375 10.09375 9 
C 10.09375 12.046875 11.40625 17.40625 17.203125 20.65625 
C 22 23.390625 27.5 23.796875 30.703125 24 
z
" id="CMR17-97"/>
      <path d="M 43.09375 21.1875 
C 43.09375 34 33.796875 44 22.90625 44 
C 12 44 2.703125 34 2.703125 21.1875 
C 2.703125 8.59375 12 -1 22.90625 -1 
C 33.796875 -1 43.09375 8.59375 43.09375 21.1875 
z
M 22.90625 0.796875 
C 18.203125 0.796875 14.203125 3.59375 11.90625 7.5 
C 9.40625 12 9.09375 17.59375 9.09375 22 
C 9.09375 26.1875 9.296875 31.390625 11.90625 35.890625 
C 13.90625 39.1875 17.796875 42.390625 22.90625 42.390625 
C 27.40625 42.390625 31.203125 39.890625 33.59375 36.390625 
C 36.703125 31.6875 36.703125 25.09375 36.703125 22 
C 36.703125 18.09375 36.5 12.09375 33.796875 7.296875 
C 31 2.6875 26.703125 0.796875 22.90625 0.796875 
z
" id="CMR17-111"/>
      <path d="M 41.5 30.53125 
C 41.5 35.65625 40.5 44 28.703125 44 
C 20.796875 44 16.703125 37.875 15.203125 33.84375 
L 15.09375 33.84375 
L 15.09375 44 
L 3.296875 42.890625 
L 3.296875 40.28125 
C 9.203125 40.28125 10.09375 39.6875 10.09375 34.859375 
L 10.09375 6.921875 
C 10.09375 3.09375 9.703125 2.59375 3.296875 2.59375 
L 3.296875 0 
C 5.703125 0.1875 10.09375 0.1875 12.703125 0.1875 
C 15.296875 0.1875 19.796875 0.1875 22.203125 0 
L 22.203125 2.59375 
C 15.796875 2.59375 15.40625 3 15.40625 6.921875 
L 15.40625 26.21875 
C 15.40625 35.453125 21 42.390625 28 42.390625 
C 35.40625 42.390625 36.203125 35.765625 36.203125 30.9375 
L 36.203125 6.921875 
C 36.203125 3.09375 35.796875 2.59375 29.40625 2.59375 
L 29.40625 0 
C 31.796875 0.1875 36.203125 0.1875 38.796875 0.1875 
C 41.40625 0.1875 45.90625 0.1875 48.296875 0 
L 48.296875 2.59375 
C 41.90625 2.59375 41.5 3 41.5 6.921875 
z
" id="CMR17-110"/>
      <path d="M 28.09375 66.484375 
C 28.203125 66.890625 28.40625 67.484375 28.40625 67.984375 
C 28.40625 69 27.40625 69 27.203125 69 
C 27.09375 69 23.5 68.6875 21.703125 68.484375 
C 20 68.390625 18.5 68.1875 16.703125 68.09375 
C 14.296875 67.890625 13.59375 67.796875 13.59375 65.984375 
C 13.59375 64.984375 14.59375 64.984375 15.59375 64.984375 
C 20.703125 64.984375 20.703125 64.109375 20.703125 63.125 
C 20.703125 62.71875 20.703125 62.53125 20.203125 60.75 
L 5.90625 3.90625 
C 5.5 2.390625 5.5 2.203125 5.5 1.59375 
C 5.5 -0.609375 7.203125 -1 8.203125 -1 
C 11 -1 11.59375 1.1875 12.40625 4.296875 
L 17.09375 23.0625 
C 24.296875 22.265625 28.59375 19.25 28.59375 14.4375 
C 28.59375 13.828125 28.59375 13.4375 28.296875 11.921875 
C 27.90625 10.421875 27.90625 9.21875 27.90625 8.71875 
C 27.90625 2.890625 31.703125 -1 36.796875 -1 
C 41.40625 -1 43.796875 3.203125 44.59375 4.609375 
C 46.703125 8.3125 48 13.9375 48 14.328125 
C 48 14.828125 47.59375 15.234375 47 15.234375 
C 46.09375 15.234375 46 14.828125 45.59375 13.234375 
C 44.203125 8.015625 42.09375 1 37 1 
C 35 1 33.703125 2 33.703125 5.8125 
C 33.703125 7.71875 34.09375 9.921875 34.5 11.421875 
C 34.90625 13.234375 34.90625 13.328125 34.90625 14.53125 
C 34.90625 20.453125 29.59375 23.765625 20.40625 24.96875 
C 24 27.171875 27.59375 31.078125 29 32.59375 
C 34.703125 38.984375 38.59375 41.984375 43.203125 41.984375 
C 45.5 41.984375 46.09375 41.484375 46.796875 41 
C 43.09375 40.59375 41.703125 37.984375 41.703125 35.984375 
C 41.703125 33.59375 43.59375 32.796875 45 32.796875 
C 47.703125 32.796875 50.09375 35.09375 50.09375 38.296875 
C 50.09375 41.15625 47.796875 44 43.296875 44 
C 37.796875 44 33.296875 40.296875 26.203125 32.296875 
C 25.203125 31.078125 21.5 27.28125 17.796875 25.875 
z
" id="CMMI12-107"/>
     </defs>
     <g transform="translate(196.885256 259.234175)scale(0.1 -0.1)">
      <use transform="scale(0.996264)" xlink:href="#CMR17-105"/>
      <use transform="translate(24.871058 0)scale(0.996264)" xlink:href="#CMR17-116"/>
      <use transform="translate(60.151826 0)scale(0.996264)" xlink:href="#CMR17-101"/>
      <use transform="translate(100.637487 0)scale(0.996264)" xlink:href="#CMR17-114"/>
      <use transform="translate(135.918255 0)scale(0.996264)" xlink:href="#CMR17-97"/>
      <use transform="translate(181.608732 0)scale(0.996264)" xlink:href="#CMR17-116"/>
      <use transform="translate(216.889499 0)scale(0.996264)" xlink:href="#CMR17-105"/>
      <use transform="translate(241.760558 0)scale(0.996264)" xlink:href="#CMR17-111"/>
      <use transform="translate(287.451035 0)scale(0.996264)" xlink:href="#CMR17-110"/>
      <use transform="translate(368.422371 0)scale(0.996264)" xlink:href="#CMMI12-107"/>
     </g>
    </g>
   </g>
   <g id="matplotlib.axis_2">
    <g id="ytick_1">
     <g id="line2d_11">
      <path clip-path="url(#p0f89807841)" d="M 52.294451 232.46 
L 387.094451 232.46 
" style="fill:none;stroke:#b0b0b0;stroke-dasharray:0.8,1.32;stroke-dashoffset:0;stroke-width:0.8;"/>
     </g>
     <g id="line2d_12">
      <defs>
       <path d="M 0 0 
L -3.5 0 
" id="m4945076653" style="stroke:#000000;stroke-width:0.8;"/>
      </defs>
      <g>
       <use style="stroke:#000000;stroke-width:0.8;" x="52.294451" xlink:href="#m4945076653" y="232.46"/>
      </g>
     </g>
     <g id="text_7">
      <!-- $10^{-16}$ -->
      <defs>
       <path d="M 65.90625 23 
C 67.59375 23 69.40625 23 69.40625 25 
C 69.40625 27 67.59375 27 65.90625 27 
L 11.796875 27 
C 10.09375 27 8.296875 27 8.296875 25 
C 8.296875 23 10.09375 23 11.796875 23 
z
" id="CMSY10-0"/>
       <path d="M 10.59375 34.34375 
C 10.59375 58 21.796875 63.6875 28.296875 63.6875 
C 30.40625 63.6875 35.5 63.265625 37.5 59.09375 
C 35.90625 59.09375 32.90625 59.09375 32.90625 55.59375 
C 32.90625 52.890625 35.09375 52 36.5 52 
C 37.40625 52 40.09375 52.390625 40.09375 55.796875 
C 40.09375 62.296875 35.09375 66 28.203125 66 
C 16.296875 66 3.796875 53.296875 3.796875 31.421875 
C 3.796875 4.015625 15.09375 -2 23.09375 -2 
C 32.796875 -2 42 6.734375 42 20.234375 
C 42 32.828125 33.90625 42 23.703125 42 
C 17.59375 42 13.09375 37.96875 10.59375 30.921875 
z
M 23.09375 0.390625 
C 10.796875 0.390625 10.796875 18.9375 10.796875 22.65625 
C 10.796875 29.90625 14.203125 40.390625 23.5 40.390625 
C 25.203125 40.390625 30.09375 40.390625 33.40625 33.4375 
C 35.203125 29.515625 35.203125 25.375 35.203125 20.34375 
C 35.203125 14.90625 35.203125 10.875 33.09375 6.84375 
C 30.90625 2.703125 27.703125 0.390625 23.09375 0.390625 
z
" id="CMR17-54"/>
      </defs>
      <g transform="translate(21.16264 235.919249)scale(0.1 -0.1)">
       <use transform="scale(0.996264)" xlink:href="#CMR17-49"/>
       <use transform="translate(45.690477 0)scale(0.996264)" xlink:href="#CMR17-48"/>
       <use transform="translate(91.380954 36.153639)scale(0.697382)" xlink:href="#CMSY10-0"/>
       <use transform="translate(145.621947 36.153639)scale(0.697382)" xlink:href="#CMR17-49"/>
       <use transform="translate(177.605129 36.153639)scale(0.697382)" xlink:href="#CMR17-54"/>
      </g>
     </g>
    </g>
    <g id="ytick_2">
     <g id="line2d_13">
      <path clip-path="url(#p0f89807841)" d="M 52.294451 205.900278 
L 387.094451 205.900278 
" style="fill:none;stroke:#b0b0b0;stroke-dasharray:0.8,1.32;stroke-dashoffset:0;stroke-width:0.8;"/>
     </g>
     <g id="line2d_14">
      <g>
       <use style="stroke:#000000;stroke-width:0.8;" x="52.294451" xlink:href="#m4945076653" y="205.900278"/>
      </g>
     </g>
     <g id="text_8">
      <!-- $10^{-14}$ -->
      <g transform="translate(21.16264 209.359527)scale(0.1 -0.1)">
       <use transform="scale(0.996264)" xlink:href="#CMR17-49"/>
       <use transform="translate(45.690477 0)scale(0.996264)" xlink:href="#CMR17-48"/>
       <use transform="translate(91.380954 36.153639)scale(0.697382)" xlink:href="#CMSY10-0"/>
       <use transform="translate(145.621947 36.153639)scale(0.697382)" xlink:href="#CMR17-49"/>
       <use transform="translate(177.605129 36.153639)scale(0.697382)" xlink:href="#CMR17-52"/>
      </g>
     </g>
    </g>
    <g id="ytick_3">
     <g id="line2d_15">
      <path clip-path="url(#p0f89807841)" d="M 52.294451 179.340556 
L 387.094451 179.340556 
" style="fill:none;stroke:#b0b0b0;stroke-dasharray:0.8,1.32;stroke-dashoffset:0;stroke-width:0.8;"/>
     </g>
     <g id="line2d_16">
      <g>
       <use style="stroke:#000000;stroke-width:0.8;" x="52.294451" xlink:href="#m4945076653" y="179.340556"/>
      </g>
     </g>
     <g id="text_9">
      <!-- $10^{-12}$ -->
      <g transform="translate(21.16264 182.799805)scale(0.1 -0.1)">
       <use transform="scale(0.996264)" xlink:href="#CMR17-49"/>
       <use transform="translate(45.690477 0)scale(0.996264)" xlink:href="#CMR17-48"/>
       <use transform="translate(91.380954 36.153639)scale(0.697382)" xlink:href="#CMSY10-0"/>
       <use transform="translate(145.621947 36.153639)scale(0.697382)" xlink:href="#CMR17-49"/>
       <use transform="translate(177.605129 36.153639)scale(0.697382)" xlink:href="#CMR17-50"/>
      </g>
     </g>
    </g>
    <g id="ytick_4">
     <g id="line2d_17">
      <path clip-path="url(#p0f89807841)" d="M 52.294451 152.780834 
L 387.094451 152.780834 
" style="fill:none;stroke:#b0b0b0;stroke-dasharray:0.8,1.32;stroke-dashoffset:0;stroke-width:0.8;"/>
     </g>
     <g id="line2d_18">
      <g>
       <use style="stroke:#000000;stroke-width:0.8;" x="52.294451" xlink:href="#m4945076653" y="152.780834"/>
      </g>
     </g>
     <g id="text_10">
      <!-- $10^{-10}$ -->
      <g transform="translate(21.16264 156.240083)scale(0.1 -0.1)">
       <use transform="scale(0.996264)" xlink:href="#CMR17-49"/>
       <use transform="translate(45.690477 0)scale(0.996264)" xlink:href="#CMR17-48"/>
       <use transform="translate(91.380954 36.153639)scale(0.697382)" xlink:href="#CMSY10-0"/>
       <use transform="translate(145.621947 36.153639)scale(0.697382)" xlink:href="#CMR17-49"/>
       <use transform="translate(177.605129 36.153639)scale(0.697382)" xlink:href="#CMR17-48"/>
      </g>
     </g>
    </g>
    <g id="ytick_5">
     <g id="line2d_19">
      <path clip-path="url(#p0f89807841)" d="M 52.294451 126.221112 
L 387.094451 126.221112 
" style="fill:none;stroke:#b0b0b0;stroke-dasharray:0.8,1.32;stroke-dashoffset:0;stroke-width:0.8;"/>
     </g>
     <g id="line2d_20">
      <g>
       <use style="stroke:#000000;stroke-width:0.8;" x="52.294451" xlink:href="#m4945076653" y="126.221112"/>
      </g>
     </g>
     <g id="text_11">
      <!-- $10^{-8}$ -->
      <defs>
       <path d="M 27.203125 35.765625 
C 33.5 38.96875 39.90625 43.796875 39.90625 51.53125 
C 39.90625 60.6875 31.09375 66 23 66 
C 13.90625 66 5.90625 59.375 5.90625 50.234375 
C 5.90625 47.71875 6.5 43.390625 10.40625 39.578125 
C 11.40625 38.578125 15.59375 35.5625 18.296875 33.65625 
C 13.796875 31.34375 3.296875 25.8125 3.296875 14.765625 
C 3.296875 4.40625 13.09375 -2 22.796875 -2 
C 33.5 -2 42.5 5.71875 42.5 15.96875 
C 42.5 25.109375 36.40625 29.328125 32.40625 32.046875 
z
M 14.09375 44.609375 
C 13.296875 45.109375 9.296875 48.21875 9.296875 52.9375 
C 9.296875 59.078125 15.59375 63.6875 22.796875 63.6875 
C 30.703125 63.6875 36.5 58.0625 36.5 51.53125 
C 36.5 42.1875 26.09375 36.859375 25.59375 36.859375 
C 25.5 36.859375 25.40625 36.859375 24.59375 37.46875 
z
M 32.5 24 
C 34 22.90625 38.796875 19.578125 38.796875 13.453125 
C 38.796875 6.015625 31.40625 0.390625 23 0.390625 
C 13.90625 0.390625 7 6.921875 7 14.859375 
C 7 22.796875 13.09375 29.4375 20 32.546875 
z
" id="CMR17-56"/>
      </defs>
      <g transform="translate(25.133878 129.680361)scale(0.1 -0.1)">
       <use transform="scale(0.996264)" xlink:href="#CMR17-49"/>
       <use transform="translate(45.690477 0)scale(0.996264)" xlink:href="#CMR17-48"/>
       <use transform="translate(91.380954 36.153639)scale(0.697382)" xlink:href="#CMSY10-0"/>
       <use transform="translate(145.621947 36.153639)scale(0.697382)" xlink:href="#CMR17-56"/>
      </g>
     </g>
    </g>
    <g id="ytick_6">
     <g id="line2d_21">
      <path clip-path="url(#p0f89807841)" d="M 52.294451 99.66139 
L 387.094451 99.66139 
" style="fill:none;stroke:#b0b0b0;stroke-dasharray:0.8,1.32;stroke-dashoffset:0;stroke-width:0.8;"/>
     </g>
     <g id="line2d_22">
      <g>
       <use style="stroke:#000000;stroke-width:0.8;" x="52.294451" xlink:href="#m4945076653" y="99.66139"/>
      </g>
     </g>
     <g id="text_12">
      <!-- $10^{-6}$ -->
      <g transform="translate(25.133878 103.120639)scale(0.1 -0.1)">
       <use transform="scale(0.996264)" xlink:href="#CMR17-49"/>
       <use transform="translate(45.690477 0)scale(0.996264)" xlink:href="#CMR17-48"/>
       <use transform="translate(91.380954 36.153639)scale(0.697382)" xlink:href="#CMSY10-0"/>
       <use transform="translate(145.621947 36.153639)scale(0.697382)" xlink:href="#CMR17-54"/>
      </g>
     </g>
    </g>
    <g id="ytick_7">
     <g id="line2d_23">
      <path clip-path="url(#p0f89807841)" d="M 52.294451 73.101668 
L 387.094451 73.101668 
" style="fill:none;stroke:#b0b0b0;stroke-dasharray:0.8,1.32;stroke-dashoffset:0;stroke-width:0.8;"/>
     </g>
     <g id="line2d_24">
      <g>
       <use style="stroke:#000000;stroke-width:0.8;" x="52.294451" xlink:href="#m4945076653" y="73.101668"/>
      </g>
     </g>
     <g id="text_13">
      <!-- $10^{-4}$ -->
      <g transform="translate(25.133878 76.560918)scale(0.1 -0.1)">
       <use transform="scale(0.996264)" xlink:href="#CMR17-49"/>
       <use transform="translate(45.690477 0)scale(0.996264)" xlink:href="#CMR17-48"/>
       <use transform="translate(91.380954 36.153639)scale(0.697382)" xlink:href="#CMSY10-0"/>
       <use transform="translate(145.621947 36.153639)scale(0.697382)" xlink:href="#CMR17-52"/>
      </g>
     </g>
    </g>
    <g id="ytick_8">
     <g id="line2d_25">
      <path clip-path="url(#p0f89807841)" d="M 52.294451 46.541946 
L 387.094451 46.541946 
" style="fill:none;stroke:#b0b0b0;stroke-dasharray:0.8,1.32;stroke-dashoffset:0;stroke-width:0.8;"/>
     </g>
     <g id="line2d_26">
      <g>
       <use style="stroke:#000000;stroke-width:0.8;" x="52.294451" xlink:href="#m4945076653" y="46.541946"/>
      </g>
     </g>
     <g id="text_14">
      <!-- $10^{-2}$ -->
      <g transform="translate(25.133878 50.001196)scale(0.1 -0.1)">
       <use transform="scale(0.996264)" xlink:href="#CMR17-49"/>
       <use transform="translate(45.690477 0)scale(0.996264)" xlink:href="#CMR17-48"/>
       <use transform="translate(91.380954 36.153639)scale(0.697382)" xlink:href="#CMSY10-0"/>
       <use transform="translate(145.621947 36.153639)scale(0.697382)" xlink:href="#CMR17-50"/>
      </g>
     </g>
    </g>
    <g id="ytick_9">
     <g id="line2d_27">
      <path clip-path="url(#p0f89807841)" d="M 52.294451 19.982224 
L 387.094451 19.982224 
" style="fill:none;stroke:#b0b0b0;stroke-dasharray:0.8,1.32;stroke-dashoffset:0;stroke-width:0.8;"/>
     </g>
     <g id="line2d_28">
      <g>
       <use style="stroke:#000000;stroke-width:0.8;" x="52.294451" xlink:href="#m4945076653" y="19.982224"/>
      </g>
     </g>
     <g id="text_15">
      <!-- $10^{0}$ -->
      <g transform="translate(31.360543 23.441474)scale(0.1 -0.1)">
       <use transform="scale(0.996264)" xlink:href="#CMR17-49"/>
       <use transform="translate(45.690477 0)scale(0.996264)" xlink:href="#CMR17-48"/>
       <use transform="translate(91.380954 36.153639)scale(0.697382)" xlink:href="#CMR17-48"/>
      </g>
     </g>
    </g>
    <g id="text_16">
     <!-- $\mathbf{A}$-norm of error: $\| \mathbf{x}-\mathbf{x}_k \|_\mathbf{A}$ -->
     <defs>
      <path d="M 45.796875 67.703125 
C 45.09375 69.5 44.90625 70 42.5 70 
C 40 70 39.796875 69.5 39.09375 67.703125 
L 14.296875 6.703125 
C 13.59375 5.09375 13.59375 4.890625 10.796875 4.59375 
C 8.296875 4.296875 7.90625 4.296875 5.703125 4.296875 
L 3.90625 4.296875 
L 3.90625 0 
C 6.5 0.1875 12.5 0.1875 15.40625 0.1875 
C 18.09375 0.1875 25.40625 0.1875 27.703125 0 
L 27.703125 4.296875 
C 25.5 4.296875 21.703125 4.296875 18.90625 5.40625 
C 19.203125 6.3125 19.203125 6.5 19.40625 6.90625 
L 24.703125 20 
L 51.5 20 
L 57.796875 4.296875 
L 48.40625 4.296875 
L 48.40625 0 
C 51.59375 0.1875 61.296875 0.1875 65.09375 0.1875 
C 68.296875 0.1875 78.5 0.1875 81 0 
L 81 4.296875 
L 71.5 4.296875 
z
M 38.09375 53.03125 
L 49.703125 24.296875 
L 26.40625 24.296875 
z
" id="CMBX12-65"/>
      <path d="M 25.5 19.59375 
L 25.5 24 
L 0.40625 24 
L 0.40625 19.59375 
z
" id="CMR17-45"/>
      <path d="M 67.59375 30.53125 
C 67.59375 35.5625 66.703125 44 54.796875 44 
C 48 44 43.296875 39.375 41.5 33.953125 
L 41.40625 33.953125 
C 40.203125 42.1875 34.296875 44 28.703125 44 
C 20.796875 44 16.703125 37.875 15.203125 33.84375 
L 15.09375 33.84375 
L 15.09375 44 
L 3.296875 42.890625 
L 3.296875 40.28125 
C 9.203125 40.28125 10.09375 39.6875 10.09375 34.859375 
L 10.09375 6.921875 
C 10.09375 3.09375 9.703125 2.59375 3.296875 2.59375 
L 3.296875 0 
C 5.703125 0.1875 10.09375 0.1875 12.703125 0.1875 
C 15.296875 0.1875 19.796875 0.1875 22.203125 0 
L 22.203125 2.59375 
C 15.796875 2.59375 15.40625 3 15.40625 6.921875 
L 15.40625 26.21875 
C 15.40625 35.453125 21 42.390625 28 42.390625 
C 35.40625 42.390625 36.203125 35.765625 36.203125 30.9375 
L 36.203125 6.921875 
C 36.203125 3.09375 35.796875 2.59375 29.40625 2.59375 
L 29.40625 0 
C 31.796875 0.1875 36.203125 0.1875 38.796875 0.1875 
C 41.40625 0.1875 45.90625 0.1875 48.296875 0 
L 48.296875 2.59375 
C 41.90625 2.59375 41.5 3 41.5 6.921875 
L 41.5 26.21875 
C 41.5 35.453125 47.09375 42.390625 54.09375 42.390625 
C 61.5 42.390625 62.296875 35.765625 62.296875 30.9375 
L 62.296875 6.921875 
C 62.296875 3.09375 61.90625 2.59375 55.5 2.59375 
L 55.5 0 
C 57.90625 0.1875 62.296875 0.1875 64.90625 0.1875 
C 67.5 0.1875 72 0.1875 74.40625 0 
L 74.40625 2.59375 
C 68 2.59375 67.59375 3 67.59375 6.921875 
z
" id="CMR17-109"/>
      <path d="M 15.296875 40.390625 
L 26.703125 40.390625 
L 26.703125 43 
L 15.09375 43 
L 15.09375 55.296875 
C 15.09375 63.6875 19.296875 68.390625 23.59375 68.390625 
C 24.90625 68.390625 26.40625 68.171875 27.40625 67.796875 
C 26.59375 67.59375 24.5 66.890625 24.5 64.390625 
C 24.5 61.796875 26.5 61 27.90625 61 
C 29.296875 61 31.296875 61.796875 31.296875 64.390625 
C 31.296875 68.015625 27.703125 70 23.703125 70 
C 18 70 10.203125 65.796875 10.203125 55.09375 
L 10.203125 43 
L 2.203125 43 
L 2.203125 40.390625 
L 10.203125 40.390625 
L 10.203125 6.890625 
C 10.203125 3.09375 9.796875 2.59375 3.40625 2.59375 
L 3.40625 0 
C 5.796875 0.1875 10.40625 0.1875 13 0.1875 
C 15.90625 0.1875 21 0.1875 23.703125 0 
L 23.703125 2.59375 
C 16.5 2.59375 15.296875 2.59375 15.296875 7.09375 
z
" id="CMR17-102"/>
      <path d="M 16.59375 38.890625 
C 16.59375 41.390625 14.59375 43 12.5 43 
C 10.5 43 8.40625 41.390625 8.40625 38.890625 
C 8.40625 36.390625 10.40625 34.796875 12.5 34.796875 
C 14.5 34.796875 16.59375 36.390625 16.59375 38.890625 
z
M 16.59375 4.09375 
C 16.59375 6.59375 14.59375 8.1875 12.5 8.1875 
C 10.5 8.1875 8.40625 6.59375 8.40625 4.09375 
C 8.40625 1.59375 10.40625 0 12.5 0 
C 14.5 0 16.59375 1.59375 16.59375 4.09375 
z
" id="CMR17-58"/>
      <path d="M 17.203125 71.59375 
C 17.203125 73.1875 17.203125 75 15.203125 75 
C 13.203125 75 13.203125 72.796875 13.203125 71.296875 
L 13.203125 -21.3125 
C 13.203125 -22.90625 13.203125 -25 15.203125 -25 
C 17.203125 -25 17.203125 -23.203125 17.203125 -21.609375 
z
M 36.703125 71.296875 
C 36.703125 72.890625 36.703125 75 34.703125 75 
C 32.703125 75 32.703125 73.1875 32.703125 71.59375 
L 32.703125 -21.609375 
C 32.703125 -23.203125 32.703125 -25 34.703125 -25 
C 36.703125 -25 36.703125 -22.8125 36.703125 -21.3125 
z
" id="CMSY10-107"/>
      <path d="M 33.703125 24.46875 
L 45.296875 37.609375 
C 46.40625 38.90625 47.296875 39.6875 55.59375 39.6875 
L 55.59375 44 
C 50 43.796875 49.796875 43.796875 46.40625 43.796875 
C 43.5 43.796875 39.203125 43.796875 36.40625 44 
L 36.40625 39.6875 
C 38.296875 39.6875 40.40625 39.203125 40.40625 38.5 
C 40.40625 38.3125 39.90625 37.609375 39.703125 37.421875 
L 31 27.71875 
L 21.09375 39.6875 
L 25.296875 39.6875 
L 25.296875 44 
C 23 43.796875 16.203125 43.796875 13.5 43.796875 
C 10.5 43.796875 5.09375 43.796875 2.296875 44 
L 2.296875 39.6875 
L 9.40625 39.6875 
L 25 20.90625 
L 12 6.375 
C 10.796875 4.984375 10.09375 4.296875 1.796875 4.296875 
L 1.796875 0 
C 7.796875 0.1875 8 0.1875 11.09375 0.1875 
C 14 0.1875 18.203125 0.1875 21 0 
L 21 4.296875 
C 19.09375 4.296875 17 4.78125 17 5.484375 
C 17 5.578125 17 5.671875 17.703125 6.46875 
L 27.703125 17.640625 
L 38.796875 4.296875 
L 34.59375 4.296875 
L 34.59375 0 
C 37 0.1875 43.703125 0.1875 46.5 0.1875 
C 49.5 0.1875 54.796875 0.1875 57.59375 0 
L 57.59375 4.296875 
L 50.59375 4.296875 
z
" id="CMBX12-120"/>
     </defs>
     <g transform="translate(15.225462 183.362537)rotate(-90)scale(0.1 -0.1)">
      <use transform="translate(0 14.943915)scale(0.996264)" xlink:href="#CMBX12-65"/>
      <use transform="translate(84.636395 14.943915)scale(0.996264)" xlink:href="#CMR17-45"/>
      <use transform="translate(114.712361 14.943915)scale(0.996264)" xlink:href="#CMR17-110"/>
      <use transform="translate(165.607731 14.943915)scale(0.996264)" xlink:href="#CMR17-111"/>
      <use transform="translate(211.298208 14.943915)scale(0.996264)" xlink:href="#CMR17-114"/>
      <use transform="translate(246.578976 14.943915)scale(0.996264)" xlink:href="#CMR17-109"/>
      <use transform="translate(353.574532 14.943915)scale(0.996264)" xlink:href="#CMR17-111"/>
      <use transform="translate(399.265009 14.943915)scale(0.996264)" xlink:href="#CMR17-102"/>
      <use transform="translate(456.814488 14.943915)scale(0.996264)" xlink:href="#CMR17-101"/>
      <use transform="translate(497.300148 14.943915)scale(0.996264)" xlink:href="#CMR17-114"/>
      <use transform="translate(532.580916 14.943915)scale(0.996264)" xlink:href="#CMR17-114"/>
      <use transform="translate(567.861684 14.943915)scale(0.996264)" xlink:href="#CMR17-111"/>
      <use transform="translate(613.552161 14.943915)scale(0.996264)" xlink:href="#CMR17-114"/>
      <use transform="translate(648.832929 14.943915)scale(0.996264)" xlink:href="#CMR17-58"/>
      <use transform="translate(714.189648 14.943915)scale(0.996264)" xlink:href="#CMSY10-107"/>
      <use transform="translate(764.003031 14.943915)scale(0.996264)" xlink:href="#CMBX12-120"/>
      <use transform="translate(845.295413 14.943915)scale(0.996264)" xlink:href="#CMSY10-0"/>
      <use transform="translate(944.922088 14.943915)scale(0.996264)" xlink:href="#CMBX12-120"/>
      <use transform="translate(1004.075263 0)scale(0.697382)" xlink:href="#CMMI12-107"/>
      <use transform="translate(1042.428646 14.943915)scale(0.996264)" xlink:href="#CMSY10-107"/>
      <use transform="translate(1092.242029 0)scale(0.697382)" xlink:href="#CMBX12-65"/>
     </g>
    </g>
   </g>
   <g id="line2d_29">
    <path clip-path="url(#p0f89807841)" d="M 67.512633 19.982224 
L 68.426638 26.003698 
L 68.731306 26.847865 
L 69.645311 28.193317 
L 70.559316 28.286081 
L 76.95735 28.398255 
L 77.262019 28.567977 
L 77.566687 29.089048 
L 77.871355 30.559917 
L 78.176024 31.328383 
L 79.090029 31.382088 
L 102.549488 31.488584 
L 105.900839 31.795541 
L 106.205508 32.827516 
L 106.510176 35.204093 
L 106.814844 36.238714 
L 107.119513 36.324924 
L 107.424181 36.609586 
L 108.947522 36.840784 
L 110.166196 36.951354 
L 110.470864 37.619893 
L 110.775532 40.869292 
L 111.0802 41.44137 
L 111.384869 42.714102 
L 111.994205 43.021781 
L 116.259562 43.061637 
L 128.750962 43.134363 
L 129.360299 44.5853 
L 129.969635 45.386442 
L 130.274304 45.577234 
L 131.492977 45.638386 
L 132.71165 45.659448 
L 133.016318 45.87219 
L 133.320987 47.784346 
L 133.625655 51.545048 
L 133.930323 52.380321 
L 135.453665 52.421237 
L 146.726392 52.507505 
L 147.03106 52.541354 
L 147.640397 52.750266 
L 148.85907 52.7943 
L 150.382412 52.89507 
L 150.68708 53.408673 
L 151.296417 62.261399 
L 151.601085 62.525791 
L 152.210422 62.606566 
L 161.350471 62.699492 
L 161.655139 62.842949 
L 161.959807 63.219492 
L 162.873812 63.333874 
L 165.615827 63.428997 
L 165.920495 66.515936 
L 166.225164 71.585081 
L 166.529832 73.79599 
L 166.8345 74.693487 
L 167.443837 74.823123 
L 175.060544 74.87923 
L 175.365213 75.206883 
L 175.669881 84.215572 
L 175.974549 85.804726 
L 177.497891 87.092148 
L 180.239906 87.165572 
L 181.458579 87.755098 
L 182.677252 87.7975 
L 190.903296 87.802495 
L 191.207965 88.113213 
L 191.817301 88.30825 
L 193.949979 88.370041 
L 194.254648 88.545484 
L 194.559316 89.378339 
L 194.863984 89.629465 
L 195.168653 90.905568 
L 196.082657 97.549505 
L 196.387326 97.828805 
L 196.996662 97.910512 
L 198.215336 97.982337 
L 198.824672 98.137289 
L 199.129341 98.795429 
L 199.434009 101.276196 
L 200.043345 101.377168 
L 212.839414 101.556295 
L 213.144083 101.668359 
L 213.448751 104.468409 
L 214.058087 112.575705 
L 214.362756 113.932435 
L 214.667424 114.15523 
L 217.714107 114.20856 
L 218.323444 114.609569 
L 219.542117 114.65395 
L 231.424181 114.695799 
L 232.033517 114.867299 
L 232.338186 115.462214 
L 232.947522 119.685042 
L 233.252191 120.243235 
L 233.861527 120.40622 
L 235.994205 120.448359 
L 236.298874 120.69617 
L 236.603542 127.943203 
L 236.90821 128.083188 
L 239.345557 128.099369 
L 249.399611 128.115127 
L 249.704279 128.271326 
L 250.008947 128.552935 
L 250.313616 129.448434 
L 250.618284 131.125481 
L 250.922952 131.365523 
L 251.532289 131.503186 
L 253.664967 131.545434 
L 253.969635 131.704875 
L 254.274304 138.991827 
L 254.578972 141.831836 
L 254.88364 142.079769 
L 255.797645 142.139164 
L 257.320987 142.154062 
L 258.234992 142.611149 
L 258.53966 142.778227 
L 265.242363 142.784789 
L 272.249734 142.892282 
L 272.554402 144.175055 
L 272.85907 152.84254 
L 273.163739 153.86299 
L 273.468407 154.240867 
L 275.601085 154.378515 
L 276.210422 155.553759 
L 276.51509 156.965624 
L 276.819758 157.440555 
L 277.124427 157.654566 
L 277.733763 159.336879 
L 278.038431 159.729103 
L 280.780446 159.746304 
L 287.178481 159.773025 
L 287.787817 161.026887 
L 288.397154 161.152706 
L 290.529832 161.180256 
L 290.8345 161.463046 
L 291.139169 162.28575 
L 291.443837 164.202401 
L 292.053173 174.552185 
L 292.357842 175.972073 
L 294.49052 176.08619 
L 305.458579 176.138298 
L 305.763247 176.390629 
L 306.067915 178.124266 
L 306.372584 181.287884 
L 306.677252 189.11922 
L 306.98192 190.729473 
L 307.286589 191.314638 
L 310.942608 191.360193 
L 324.652682 191.504547 
L 326.176024 191.547027 
L 326.480692 191.68955 
L 326.78536 193.623788 
L 327.090029 198.022177 
L 327.699365 199.260378 
L 328.004033 199.541047 
L 329.832043 199.574984 
L 330.136712 200.765288 
L 330.746048 204.352134 
L 331.050716 205.048796 
L 337.448751 205.060444 
L 348.112142 205.131159 
L 348.41681 205.273509 
L 348.721478 205.595413 
L 349.940151 205.624198 
L 371.876269 205.658665 
L 371.876269 205.658665 
" style="fill:none;stroke:#93a1a1;stroke-linecap:square;stroke-width:1.5;"/>
    <defs>
     <path d="M 0 3 
C 0.795609 3 1.55874 2.683901 2.12132 2.12132 
C 2.683901 1.55874 3 0.795609 3 0 
C 3 -0.795609 2.683901 -1.55874 2.12132 -2.12132 
C 1.55874 -2.683901 0.795609 -3 0 -3 
C -0.795609 -3 -1.55874 -2.683901 -2.12132 -2.12132 
C -2.683901 -1.55874 -3 -0.795609 -3 0 
C -3 0.795609 -2.683901 1.55874 -2.12132 2.12132 
C -1.55874 2.683901 -0.795609 3 0 3 
z
" id="m537d92ee58" style="stroke:#93a1a1;"/>
    </defs>
    <g clip-path="url(#p0f89807841)">
     <use style="fill:#93a1a1;stroke:#93a1a1;" x="67.512633" xlink:href="#m537d92ee58" y="19.982224"/>
     <use style="fill:#93a1a1;stroke:#93a1a1;" x="128.446294" xlink:href="#m537d92ee58" y="43.083875"/>
     <use style="fill:#93a1a1;stroke:#93a1a1;" x="189.379955" xlink:href="#m537d92ee58" y="87.798498"/>
     <use style="fill:#93a1a1;stroke:#93a1a1;" x="250.313616" xlink:href="#m537d92ee58" y="129.448434"/>
     <use style="fill:#93a1a1;stroke:#93a1a1;" x="311.247277" xlink:href="#m537d92ee58" y="191.365829"/>
    </g>
   </g>
   <g id="line2d_30">
    <path clip-path="url(#p0f89807841)" d="M 67.512633 19.982224 
L 68.426638 25.982171 
L 68.731306 26.844501 
L 69.035974 27.255143 
L 69.340643 27.963325 
L 69.645311 28.187115 
L 70.559316 28.283461 
L 77.566687 28.39279 
L 78.176024 29.233495 
L 78.480692 30.709578 
L 78.78536 31.212699 
L 79.090029 31.37385 
L 88.534746 31.481467 
L 114.126884 31.582889 
L 115.650225 31.711569 
L 115.954893 31.829504 
L 116.259562 32.162379 
L 116.868898 33.344724 
L 117.173567 35.767152 
L 117.478235 36.812529 
L 119.001576 36.857792 
L 120.22025 36.890529 
L 120.524918 37.205696 
L 120.829586 37.982354 
L 121.438923 41.386752 
L 121.743591 42.894268 
L 122.962264 43.041341 
L 145.203051 43.179367 
L 145.507719 43.828541 
L 145.812387 44.912176 
L 146.421724 45.493685 
L 147.03106 45.669958 
L 148.85907 45.687798 
L 149.468407 46.189601 
L 149.773075 47.16158 
L 150.077743 51.42047 
L 150.382412 52.423736 
L 150.991748 52.509321 
L 173.841871 52.68497 
L 174.451208 52.791949 
L 177.497891 52.875099 
L 177.802559 52.971366 
L 178.107228 53.633173 
L 178.716564 57.203285 
L 179.021232 59.977955 
L 179.325901 61.442684 
L 179.630569 61.777152 
L 183.895925 61.946676 
L 184.200594 62.484404 
L 184.505262 62.674764 
L 186.028603 62.703058 
L 201.262019 62.737756 
L 201.566687 62.836818 
L 202.176024 63.33874 
L 202.480692 64.997329 
L 203.090029 71.89226 
L 203.394697 72.964558 
L 203.699365 73.467432 
L 204.61337 73.611005 
L 207.355385 73.655521 
L 207.964721 74.020735 
L 208.26939 74.620203 
L 208.574058 74.798588 
L 211.011404 74.817061 
L 230.510176 74.882638 
L 230.814844 74.998542 
L 231.119513 76.231272 
L 231.424181 78.411601 
L 231.728849 83.049831 
L 232.338186 84.24684 
L 232.642854 84.433752 
L 234.166196 84.50697 
L 236.90821 84.636596 
L 237.212879 84.891788 
L 237.822215 85.907988 
L 238.126884 87.428572 
L 243.306245 87.386143 
L 254.578972 87.382904 
L 258.844328 87.396407 
L 259.148997 87.566844 
L 259.453665 88.138521 
L 259.758333 89.254908 
L 260.672338 94.212698 
L 260.977006 94.93046 
L 261.891011 95.039613 
L 265.242363 95.125327 
L 265.547031 95.714701 
L 266.461036 98.445414 
L 269.812387 98.455017 
L 289.311159 98.550252 
L 289.615827 98.743665 
L 290.225164 99.549194 
L 291.443837 99.58826 
L 294.185852 99.65494 
L 294.49052 99.750072 
L 294.795188 100.023033 
L 295.099857 105.204313 
L 295.404525 107.231923 
L 296.013861 107.342743 
L 308.200594 107.401683 
L 317.035974 107.448195 
L 317.340643 107.713502 
L 317.645311 108.226242 
L 317.949979 109.664502 
L 318.254648 114.344469 
L 318.559316 114.62808 
L 319.473321 114.868127 
L 322.520004 115.047711 
L 322.824672 115.768477 
L 323.129341 116.119708 
L 323.738677 116.376746 
L 324.043345 117.231155 
L 324.348014 117.717354 
L 324.652682 118.682369 
L 324.95735 119.270312 
L 330.136712 119.242371 
L 346.284132 119.347507 
L 346.5888 119.498986 
L 346.893468 119.789006 
L 347.198137 120.593769 
L 347.807473 121.109193 
L 348.112142 121.242256 
L 350.549488 121.311952 
L 351.768161 123.451822 
L 352.072829 125.708623 
L 352.377498 127.10096 
L 352.682166 127.760749 
L 353.291503 130.180172 
L 353.900839 132.265125 
L 354.205508 132.341321 
L 354.510176 132.148797 
L 364.56423 131.991068 
L 371.876269 131.996632 
L 371.876269 131.996632 
" style="fill:none;stroke:#93a1a1;stroke-linecap:square;stroke-width:1.5;"/>
    <defs>
     <path d="M 0 -3 
L -3 3 
L 3 3 
z
" id="m4a79a4bf32" style="stroke:#93a1a1;stroke-linejoin:miter;"/>
    </defs>
    <g clip-path="url(#p0f89807841)">
     <use style="fill:#93a1a1;stroke:#93a1a1;stroke-linejoin:miter;" x="82.746048" xlink:href="#m4a79a4bf32" y="31.386466"/>
     <use style="fill:#93a1a1;stroke:#93a1a1;stroke-linejoin:miter;" x="143.679709" xlink:href="#m4a79a4bf32" y="43.082391"/>
     <use style="fill:#93a1a1;stroke:#93a1a1;stroke-linejoin:miter;" x="204.61337" xlink:href="#m4a79a4bf32" y="73.611005"/>
     <use style="fill:#93a1a1;stroke:#93a1a1;stroke-linejoin:miter;" x="265.547031" xlink:href="#m4a79a4bf32" y="95.714701"/>
     <use style="fill:#93a1a1;stroke:#93a1a1;stroke-linejoin:miter;" x="326.480692" xlink:href="#m4a79a4bf32" y="119.249466"/>
    </g>
   </g>
   <g id="line2d_31">
    <path clip-path="url(#p0f89807841)" d="M 67.512633 19.982224 
L 68.426638 25.964967 
L 68.731306 26.836834 
L 69.035974 27.221442 
L 69.340643 27.96062 
L 69.645311 28.171336 
L 70.559316 28.283281 
L 77.566687 28.400769 
L 77.871355 28.552921 
L 78.176024 29.168329 
L 78.480692 30.765814 
L 78.78536 31.237743 
L 79.394697 31.380798 
L 110.166196 31.586889 
L 111.689537 31.76827 
L 111.994205 31.904945 
L 112.298874 32.173762 
L 112.603542 36.281419 
L 112.90821 36.768962 
L 113.517547 36.840488 
L 115.345557 36.856097 
L 115.650225 36.993422 
L 115.954893 39.256816 
L 116.259562 42.701746 
L 116.56423 42.934819 
L 117.173567 43.031372 
L 136.36767 43.204948 
L 136.672338 43.726474 
L 136.977006 45.036191 
L 137.586343 45.598795 
L 138.805016 45.639477 
L 139.719021 45.664856 
L 140.023689 45.846759 
L 140.328358 46.687243 
L 141.242363 51.988716 
L 141.547031 52.365218 
L 142.461036 52.421137 
L 156.475778 52.498508 
L 156.780446 52.553766 
L 157.085114 52.738974 
L 157.999119 52.794471 
L 160.436466 52.904285 
L 161.045802 53.165732 
L 161.655139 53.435535 
L 161.959807 57.944622 
L 162.264476 60.102575 
L 162.873812 62.389391 
L 163.178481 62.590149 
L 166.225164 62.610078 
L 173.232535 62.716008 
L 173.841871 63.301686 
L 175.365213 63.326956 
L 178.107228 63.412263 
L 178.411896 63.488165 
L 178.716564 63.978634 
L 179.325901 74.425674 
L 179.630569 74.647066 
L 182.677252 74.673369 
L 183.895925 74.750511 
L 184.505262 74.82403 
L 195.168653 74.839312 
L 195.473321 74.951699 
L 195.777989 75.40297 
L 196.387326 77.70435 
L 196.691994 79.379387 
L 196.996662 79.950277 
L 198.215336 80.017464 
L 199.738677 80.061669 
L 200.043345 80.562643 
L 200.652682 84.61911 
L 200.95735 87.298741 
L 201.262019 87.686507 
L 201.871355 87.796431 
L 212.230078 87.841407 
L 213.144083 88.365513 
L 216.800102 88.577559 
L 217.104771 89.099779 
L 217.409439 89.85067 
L 217.714107 91.19409 
L 218.018775 99.375798 
L 218.323444 101.294721 
L 219.237449 101.353386 
L 237.517547 101.436683 
L 237.822215 101.591893 
L 238.431552 103.689194 
L 238.73622 105.77725 
L 239.040888 107.003917 
L 240.259562 107.133895 
L 242.39224 107.240162 
L 243.001576 107.331022 
L 243.610913 108.469127 
L 244.22025 113.87028 
L 244.524918 114.446312 
L 245.134255 114.649031 
L 264.023689 114.692002 
L 265.242363 115.494059 
L 267.984377 115.655317 
L 268.289046 116.0288 
L 268.898382 119.867609 
L 269.507719 127.932722 
L 270.421724 128.078658 
L 289.615827 128.215032 
L 289.920495 128.522784 
L 290.529832 130.712773 
L 290.8345 133.882111 
L 291.443837 136.999861 
L 291.748505 137.631554 
L 292.053173 137.991014 
L 292.66251 138.180875 
L 294.795188 138.265266 
L 295.099857 138.450287 
L 296.013861 142.709057 
L 296.623198 142.781594 
L 307.895925 142.907958 
L 308.505262 142.998761 
L 312.46595 143.06117 
L 312.770618 143.377824 
L 313.379955 147.10848 
L 313.684623 154.589953 
L 313.989291 158.777707 
L 314.29396 158.9765 
L 314.903296 159.03995 
L 317.035974 159.119986 
L 317.340643 159.23372 
L 317.645311 159.651099 
L 318.254648 159.74683 
L 330.136712 159.888871 
L 330.44138 160.285646 
L 331.355385 160.351513 
L 333.792731 160.427836 
L 334.0974 161.418124 
L 335.011404 165.77812 
L 335.316073 166.042519 
L 335.620741 166.528311 
L 335.925409 168.888901 
L 336.230078 169.878207 
L 336.534746 171.818672 
L 337.144083 172.100828 
L 339.276761 172.210004 
L 339.886097 175.776915 
L 340.190766 176.032067 
L 341.104771 176.093109 
L 356.642854 176.161723 
L 356.947522 176.376828 
L 357.252191 176.867508 
L 357.556859 177.57645 
L 357.861527 183.804598 
L 358.166196 187.698447 
L 358.470864 188.422439 
L 358.775532 188.646159 
L 359.384869 188.707675 
L 360.90821 188.788171 
L 361.212879 188.888867 
L 361.517547 189.699781 
L 361.822215 190.874977 
L 362.431552 191.39943 
L 369.438923 191.422614 
L 371.876269 191.422614 
L 371.876269 191.422614 
" style="fill:none;stroke:#93a1a1;stroke-linecap:square;stroke-width:1.5;"/>
    <defs>
     <path d="M -0 3 
L 3 -3 
L -3 -3 
z
" id="m4d1e6d5e0f" style="stroke:#93a1a1;stroke-linejoin:miter;"/>
    </defs>
    <g clip-path="url(#p0f89807841)">
     <use style="fill:#93a1a1;stroke:#93a1a1;stroke-linejoin:miter;" x="97.979463" xlink:href="#m4d1e6d5e0f" y="31.486077"/>
     <use style="fill:#93a1a1;stroke:#93a1a1;stroke-linejoin:miter;" x="158.913124" xlink:href="#m4d1e6d5e0f" y="52.794645"/>
     <use style="fill:#93a1a1;stroke:#93a1a1;stroke-linejoin:miter;" x="219.846785" xlink:href="#m4d1e6d5e0f" y="101.354039"/>
     <use style="fill:#93a1a1;stroke:#93a1a1;stroke-linejoin:miter;" x="280.780446" xlink:href="#m4d1e6d5e0f" y="128.109691"/>
     <use style="fill:#93a1a1;stroke:#93a1a1;stroke-linejoin:miter;" x="341.714107" xlink:href="#m4d1e6d5e0f" y="176.093395"/>
    </g>
   </g>
   <g id="line2d_32">
    <path clip-path="url(#p0f89807841)" d="M 67.512633 19.982224 
L 68.426638 25.927544 
L 68.731306 26.817248 
L 69.035974 27.178503 
L 69.340643 27.913386 
L 69.949979 28.236517 
L 71.473321 28.293401 
L 79.699365 28.471867 
L 80.308702 29.930145 
L 80.61337 31.318608 
L 80.918038 31.370374 
L 81.527375 30.461362 
L 81.832043 30.11031 
L 83.355385 30.039519 
L 86.0974 30.08278 
L 86.402068 30.167958 
L 87.316073 31.025077 
L 87.620741 30.106918 
L 88.230078 26.866305 
L 88.534746 25.336692 
L 88.839414 22.000144 
L 89.144083 15.399256 
L 89.753419 22.562448 
L 90.058087 23.237801 
L 90.972092 23.545213 
L 93.104771 23.602096 
L 94.628112 23.689937 
L 94.93278 24.098875 
L 95.237449 26.154983 
L 95.542117 27.241217 
L 95.846785 30.767985 
L 96.151454 31.186258 
L 96.76079 30.015013 
L 97.370127 29.865193 
L 99.502805 29.841227 
L 101.635483 29.900539 
L 101.940151 30.028276 
L 102.24482 30.441972 
L 102.549488 26.575214 
L 102.854156 27.155679 
L 103.158825 28.230969 
L 103.768161 28.377971 
L 109.861527 28.603628 
L 110.166196 28.720487 
L 110.470864 29.118912 
L 110.775532 29.989981 
L 111.0802 31.283575 
L 111.384869 28.99609 
L 111.994205 28.014348 
L 113.517547 27.869923 
L 115.954893 27.757837 
L 116.259562 27.564966 
L 116.56423 26.849553 
L 116.868898 24.717964 
L 117.173567 29.481197 
L 117.478235 30.58614 
L 118.39224 30.49373 
L 124.485606 30.483045 
L 125.399611 30.587195 
L 125.704279 30.976608 
L 126.313616 31.25033 
L 126.922952 15.653869 
L 127.227621 1.834213 
L 127.532289 4.439905 
L 127.836957 8.668102 
L 128.446294 10.110416 
L 129.05563 10.278495 
L 129.969635 10.461633 
L 130.274304 10.986296 
L 131.188309 13.525962 
L 132.102314 21.539579 
L 132.406982 26.294077 
L 133.016318 31.226699 
L 133.320987 31.303458 
L 133.625655 31.105533 
L 133.930323 30.766693 
L 134.844328 30.638454 
L 140.633026 30.633446 
L 140.937694 30.641747 
L 141.242363 30.773456 
L 141.547031 26.288298 
L 141.851699 29.971986 
L 142.461036 30.105156 
L 147.335729 30.236239 
L 147.945065 30.460119 
L 149.163739 31.336351 
L 149.773075 31.394025 
L 150.077743 31.338831 
L 150.382412 31.132148 
L 150.68708 30.6222 
L 151.296417 28.341076 
L 152.210422 27.633587 
L 153.733763 27.591292 
L 155.561773 27.488829 
L 155.866441 27.38758 
L 156.17111 26.705203 
L 156.475778 19.110409 
L 156.780446 31.096278 
L 157.085114 31.257029 
L 157.389783 30.869979 
L 157.999119 30.721361 
L 159.522461 30.686171 
L 165.311159 30.717267 
L 165.920495 30.979725 
L 166.225164 29.507356 
L 166.8345 29.838857 
L 168.66251 29.902339 
L 170.795188 30.007002 
L 171.099857 30.203078 
L 172.31853 30.404642 
L 172.623198 30.568518 
L 173.537203 31.37513 
L 173.841871 31.347837 
L 174.14654 30.760968 
L 174.451208 29.876496 
L 174.755876 29.675077 
L 175.060544 29.305484 
L 175.669881 29.196885 
L 179.935237 29.024011 
L 180.239906 28.491478 
L 180.544574 30.969787 
L 180.849242 31.218205 
L 181.458579 30.972598 
L 182.677252 30.910976 
L 187.856613 30.911045 
L 188.770618 31.121672 
L 189.075286 31.366287 
L 189.379955 30.561454 
L 189.684623 25.093167 
L 189.989291 11.524837 
L 190.598628 22.984798 
L 190.903296 23.963502 
L 191.512633 24.63805 
L 192.426638 24.830372 
L 195.473321 25.03707 
L 196.387326 25.212147 
L 197.605999 25.555758 
L 197.910667 26.787979 
L 198.215336 29.800163 
L 198.520004 31.208418 
L 198.824672 31.346822 
L 199.434009 31.078806 
L 200.043345 30.877242 
L 203.090029 30.858436 
L 205.527375 30.95566 
L 206.136712 30.990009 
L 206.746048 30.581411 
L 207.050716 29.945358 
L 208.26939 29.182304 
L 208.878726 28.74097 
L 209.792731 28.079608 
L 212.230078 28.046306 
L 215.276761 28.065498 
L 215.581429 26.361038 
L 215.886097 6.093989 
L 216.190766 21.892922 
L 216.495434 24.075913 
L 216.800102 24.596391 
L 218.018775 24.658303 
L 223.198137 24.769801 
L 223.807473 24.967884 
L 224.112142 25.525118 
L 224.41681 29.069976 
L 224.721478 30.071539 
L 225.330815 28.776368 
L 225.940151 28.491199 
L 229.291503 28.471748 
L 232.642854 28.535845 
L 233.252191 28.787464 
L 233.556859 29.131698 
L 233.861527 29.305032 
L 234.166196 24.875436 
L 234.470864 22.079087 
L 234.775532 11.091161 
L 235.0802 8.907449 
L 235.384869 13.880434 
L 235.689537 14.321617 
L 235.994205 15.144381 
L 236.603542 15.547365 
L 237.517547 15.662628 
L 239.345557 15.776771 
L 239.650225 16.044258 
L 240.259562 17.207289 
L 240.868898 20.881299 
L 241.173567 22.514317 
L 242.087571 23.987991 
L 242.39224 24.314521 
L 243.306245 26.940521 
L 243.610913 28.597909 
L 243.915581 28.869462 
L 244.829586 29.190755 
L 247.876269 29.212268 
L 249.094943 29.332936 
L 249.399611 29.385027 
L 250.008947 29.825777 
L 250.618284 30.068527 
L 251.532289 30.169257 
L 258.234992 30.366963 
L 258.844328 30.651635 
L 259.758333 30.725054 
L 265.547031 30.866734 
L 266.765704 31.050411 
L 278.952436 31.29944 
L 288.092486 31.37116 
L 288.397154 15.318828 
L 288.701822 31.305121 
L 291.748505 31.335909 
L 302.107228 31.385956 
L 302.411896 29.840446 
L 302.716564 31.21231 
L 305.153911 31.286065 
L 313.989291 31.387222 
L 314.29396 25.214966 
L 314.598628 29.126679 
L 314.903296 30.699747 
L 315.512633 30.98194 
L 316.426638 31.122936 
L 319.473321 31.15895 
L 321.301331 31.226484 
L 321.605999 31.299776 
L 321.910667 31.151329 
L 322.215336 30.669615 
L 322.824672 30.92633 
L 326.176024 31.20509 
L 326.480692 30.77158 
L 326.78536 27.059223 
L 327.090029 28.457592 
L 328.308702 29.789334 
L 330.136712 30.283742 
L 332.26939 30.422933 
L 332.574058 30.491353 
L 333.792731 31.295992 
L 334.0974 26.772168 
L 334.402068 4.623513 
L 334.706736 21.668437 
L 335.011404 23.60238 
L 335.316073 24.80488 
L 335.925409 25.43178 
L 336.839414 25.771504 
L 337.448751 25.951783 
L 338.058087 26.211129 
L 338.362756 26.463649 
L 338.667424 26.964483 
L 338.972092 28.476772 
L 339.276761 30.595578 
L 339.581429 30.692475 
L 339.886097 29.667487 
L 340.800102 28.890755 
L 342.323444 28.375862 
L 343.237449 27.695539 
L 344.456122 27.478256 
L 344.76079 27.328283 
L 345.065458 26.558323 
L 345.370127 19.869421 
L 345.674795 24.44975 
L 345.979463 31.395467 
L 346.5888 30.885008 
L 347.198137 30.662349 
L 349.026146 30.591991 
L 350.854156 30.497523 
L 351.158825 30.377553 
L 351.463493 27.792072 
L 351.768161 26.520697 
L 352.072829 31.322808 
L 352.682166 31.121978 
L 358.470864 31.012272 
L 358.775532 30.375413 
L 359.0802 31.142614 
L 359.384869 31.351635 
L 359.994205 31.245953 
L 363.650225 31.112959 
L 363.954893 29.793097 
L 364.259562 31.381694 
L 365.782903 31.296949 
L 371.876269 31.34246 
L 371.876269 31.34246 
" style="fill:none;stroke:#93a1a1;stroke-linecap:square;stroke-width:1.5;"/>
    <defs>
     <path d="M -3 3 
L 3 3 
L 3 -3 
L -3 -3 
z
" id="m68ffdcf8d5" style="stroke:#93a1a1;stroke-linejoin:miter;"/>
    </defs>
    <g clip-path="url(#p0f89807841)">
     <use style="fill:#93a1a1;stroke:#93a1a1;stroke-linejoin:miter;" x="113.212879" xlink:href="#m68ffdcf8d5" y="27.872362"/>
     <use style="fill:#93a1a1;stroke:#93a1a1;stroke-linejoin:miter;" x="174.14654" xlink:href="#m68ffdcf8d5" y="30.760968"/>
     <use style="fill:#93a1a1;stroke:#93a1a1;stroke-linejoin:miter;" x="235.0802" xlink:href="#m68ffdcf8d5" y="8.907449"/>
     <use style="fill:#93a1a1;stroke:#93a1a1;stroke-linejoin:miter;" x="296.013861" xlink:href="#m68ffdcf8d5" y="31.291453"/>
     <use style="fill:#93a1a1;stroke:#93a1a1;stroke-linejoin:miter;" x="356.947522" xlink:href="#m68ffdcf8d5" y="31.04613"/>
    </g>
   </g>
   <g id="line2d_33">
    <path clip-path="url(#p0f89807841)" d="M 67.512633 19.982224 
L 68.426638 25.828816 
L 68.731306 26.783603 
L 69.340643 27.592786 
L 69.645311 28.116214 
L 70.254648 28.255237 
L 72.691994 28.303959 
L 81.832043 28.432205 
L 82.136712 28.582794 
L 82.44138 29.121774 
L 82.746048 29.416601 
L 83.050716 29.960806 
L 83.355385 30.796202 
L 84.26939 31.3077 
L 85.488063 31.377361 
L 211.925409 31.483907 
L 371.876269 31.48609 
L 371.876269 31.48609 
" style="fill:none;stroke:#6c71c4;stroke-linecap:square;stroke-width:1.5;"/>
   </g>
   <g id="line2d_34">
    <path clip-path="url(#p0f89807841)" d="M 67.512633 19.982224 
L 68.426638 25.982095 
L 68.731306 26.836175 
L 69.035974 27.257014 
L 69.340643 27.962345 
L 69.645311 28.187774 
L 70.559316 28.283378 
L 77.871355 28.44236 
L 78.176024 29.057046 
L 78.480692 30.454058 
L 79.090029 31.32678 
L 80.004033 31.382069 
L 111.994205 31.488797 
L 114.431552 31.577049 
L 116.56423 31.578491 
L 117.173567 31.856524 
L 117.782903 33.215606 
L 118.087571 35.755065 
L 118.39224 36.420209 
L 119.001576 36.755526 
L 120.22025 36.844311 
L 121.743591 36.923933 
L 122.352928 37.596415 
L 122.657596 38.208692 
L 123.266933 41.835087 
L 123.876269 42.456539 
L 125.399611 43.009012 
L 127.836957 43.034161 
L 149.773075 43.115452 
L 150.077743 43.297247 
L 150.382412 43.650942 
L 150.68708 44.239832 
L 150.991748 44.447857 
L 151.601085 45.171799 
L 151.905753 45.573833 
L 153.124427 45.644767 
L 154.647768 45.665595 
L 156.17111 46.468256 
L 156.475778 46.527475 
L 156.780446 46.716798 
L 157.085114 50.481894 
L 157.389783 52.210012 
L 158.303788 52.41886 
L 178.411896 52.560378 
L 179.021232 52.783439 
L 182.677252 52.853261 
L 182.98192 53.113647 
L 183.286589 53.5654 
L 184.200594 58.782464 
L 184.505262 60.007897 
L 184.80993 62.503899 
L 185.419267 62.599033 
L 202.78536 62.663816 
L 207.050716 62.756886 
L 207.355385 63.034794 
L 207.964721 63.212865 
L 209.183395 63.264531 
L 211.925409 63.366186 
L 212.230078 63.653689 
L 212.534746 64.313272 
L 212.839414 65.745635 
L 213.144083 71.657644 
L 213.753419 73.769956 
L 214.362756 74.179909 
L 215.886097 74.224289 
L 219.846785 74.250757 
L 220.76079 74.733677 
L 222.284132 74.822921 
L 235.994205 74.898 
L 236.603542 75.205386 
L 237.212879 75.807032 
L 237.517547 77.085377 
L 238.126884 77.942425 
L 239.954893 78.079711 
L 242.39224 78.159482 
L 242.696908 78.323678 
L 243.001576 79.113867 
L 243.306245 81.128963 
L 243.610913 85.99707 
L 243.915581 87.190131 
L 244.22025 87.438276 
L 245.438923 87.554537 
L 250.922952 87.639868 
L 251.532289 87.796286 
L 265.851699 87.800027 
L 272.85907 87.905969 
L 273.163739 88.49773 
L 274.077743 94.002405 
L 274.382412 96.45397 
L 274.991748 98.291605 
L 275.601085 98.369908 
L 279.561773 98.461639 
L 280.475778 98.583673 
L 280.780446 98.886363 
L 281.389783 100.268023 
L 281.999119 101.357211 
L 285.350471 101.3771 
L 308.80993 101.40245 
L 310.333272 101.866125 
L 315.512633 101.928262 
L 315.817301 102.069522 
L 316.12197 102.753831 
L 316.426638 103.98903 
L 317.035974 107.870905 
L 317.340643 112.89087 
L 317.645311 113.502939 
L 317.949979 113.671481 
L 318.254648 113.993042 
L 318.863984 114.260345 
L 320.691994 114.292807 
L 322.215336 114.353216 
L 322.824672 114.600159 
L 323.738677 114.654244 
L 346.893468 114.76838 
L 348.112142 115.281862 
L 352.072829 115.425422 
L 352.682166 115.95322 
L 353.291503 124.430824 
L 353.596171 126.372959 
L 353.900839 127.257149 
L 354.510176 127.99054 
L 356.033517 128.098014 
L 371.876269 128.111428 
L 371.876269 128.111428 
" style="fill:none;stroke:#859900;stroke-dasharray:1.5,2.475;stroke-dashoffset:0;stroke-width:1.5;"/>
   </g>
   <g id="line2d_35">
    <path clip-path="url(#p0f89807841)" d="M 67.512633 19.982224 
L 68.426638 25.989156 
L 68.731306 26.843094 
L 69.035974 27.262921 
L 69.340643 27.967148 
L 69.645311 28.190951 
L 70.559316 28.283685 
L 77.262019 28.430888 
L 77.566687 28.818802 
L 77.871355 30.394474 
L 78.176024 31.236524 
L 78.480692 31.374577 
L 89.144083 31.485271 
L 106.814844 31.595329 
L 107.424181 31.639032 
L 107.728849 32.053496 
L 108.033517 33.094443 
L 108.338186 35.243405 
L 108.642854 36.26237 
L 109.252191 36.795021 
L 110.166196 36.841648 
L 111.384869 36.937304 
L 111.689537 37.164927 
L 111.994205 37.766409 
L 112.603542 42.009406 
L 112.90821 42.997356 
L 114.126884 43.034049 
L 130.88364 43.129507 
L 131.188309 43.300175 
L 131.492977 44.475168 
L 132.102314 45.458486 
L 132.406982 45.62916 
L 134.53966 45.687094 
L 134.844328 46.165664 
L 135.148997 47.369283 
L 135.453665 52.337921 
L 136.36767 52.418694 
L 149.468407 52.54796 
L 149.773075 52.770396 
L 151.601085 52.79444 
L 152.51509 52.806752 
L 152.819758 53.590476 
L 153.733763 62.111637 
L 154.038431 62.552929 
L 155.257105 62.60988 
L 164.397154 62.665887 
L 165.00649 62.851088 
L 165.920495 63.313894 
L 168.66251 63.467359 
L 168.967178 63.859967 
L 169.271847 65.302682 
L 169.576515 73.227162 
L 169.881183 74.763324 
L 170.795188 74.823358 
L 179.935237 74.940061 
L 182.372584 74.956652 
L 183.591257 75.063594 
L 183.895925 76.109065 
L 184.505262 86.748259 
L 184.80993 87.715184 
L 185.723935 87.796204 
L 198.520004 87.820292 
L 199.129341 88.232039 
L 199.434009 88.594136 
L 199.738677 90.711377 
L 200.043345 91.552999 
L 200.348014 92.89994 
L 200.652682 94.846906 
L 201.262019 95.016171 
L 202.78536 95.108125 
L 203.394697 95.456955 
L 203.699365 97.131169 
L 204.004033 100.335686 
L 204.308702 100.970666 
L 204.61337 101.343021 
L 205.832043 101.380557 
L 218.323444 101.445518 
L 218.628112 102.110175 
L 219.237449 105.145919 
L 219.542117 105.366689 
L 220.151454 105.460341 
L 222.284132 105.532071 
L 222.5888 105.969974 
L 222.893468 107.936302 
L 223.502805 113.820888 
L 223.807473 114.505839 
L 228.377498 114.651203 
L 238.431552 114.760011 
L 238.73622 115.039584 
L 239.345557 115.979642 
L 239.954893 116.098753 
L 242.696908 116.167357 
L 243.001576 117.246409 
L 243.306245 119.601937 
L 243.610913 126.257789 
L 243.915581 128.008366 
L 246.657596 128.027217 
L 257.320987 128.199285 
L 259.758333 128.509946 
L 261.586343 128.587465 
L 261.891011 128.791734 
L 262.19568 129.332954 
L 262.500348 134.084594 
L 262.805016 136.442667 
L 263.414353 136.611914 
L 265.242363 136.628119 
L 265.547031 136.800536 
L 265.851699 137.995351 
L 266.156368 141.847943 
L 266.461036 142.558742 
L 267.070372 142.759833 
L 281.085114 142.900543 
L 281.389783 144.463123 
L 281.694451 145.278808 
L 281.999119 145.729623 
L 284.436466 145.866012 
L 284.741134 146.469964 
L 285.045802 150.851369 
L 285.350471 159.099487 
L 285.655139 159.602312 
L 286.569144 159.665771 
L 300.279218 159.758959 
L 300.583886 159.933119 
L 300.888554 160.591869 
L 301.497891 168.208033 
L 301.802559 170.593711 
L 302.107228 171.981063 
L 302.716564 172.312032 
L 304.849242 172.378004 
L 305.153911 172.817465 
L 306.372584 176.046269 
L 307.895925 176.09019 
L 316.731306 176.182672 
L 317.035974 176.35737 
L 320.082657 176.392043 
L 320.387326 176.771533 
L 320.691994 177.337178 
L 320.996662 179.676793 
L 321.605999 191.330356 
L 322.520004 191.445036 
L 327.699365 191.454916 
L 340.190766 191.520988 
L 340.495434 191.566677 
L 340.800102 191.736187 
L 341.714107 193.548481 
L 342.93278 193.848313 
L 344.151454 193.897162 
L 345.674795 193.901583 
L 345.979463 194.042568 
L 346.5888 203.547731 
L 346.893468 204.201098 
L 347.502805 204.326188 
L 349.330815 204.33757 
L 350.24482 205.003652 
L 361.822215 205.064169 
L 362.73622 205.11576 
L 365.173567 205.143911 
L 365.782903 205.350634 
L 366.087571 205.781977 
L 367.610913 205.814591 
L 371.876269 205.814591 
L 371.876269 205.814591 
" style="fill:none;stroke:#073642;stroke-dasharray:1.5,2.475;stroke-dashoffset:0;stroke-width:1.5;"/>
   </g>
   <g id="line2d_36">
    <path clip-path="url(#p0f89807841)" d="M 67.512633 19.982224 
L 68.426638 25.88688 
L 68.731306 26.80291 
L 69.340643 27.683124 
L 69.645311 28.12514 
L 70.254648 28.264856 
L 73.910667 28.320046 
L 79.699365 28.395779 
L 80.004033 28.443274 
L 80.308702 28.700137 
L 80.61337 29.201854 
L 80.918038 30.285539 
L 81.527375 31.150433 
L 82.136712 31.362415 
L 84.26939 31.382187 
L 235.384869 31.495036 
L 371.876269 31.587055 
L 371.876269 31.587055 
" style="fill:none;stroke:#2aa198;stroke-linecap:square;stroke-width:1.5;"/>
   </g>
   <g id="line2d_37">
    <path clip-path="url(#p0f89807841)" d="M 67.512633 19.982224 
L 68.426638 25.982846 
L 68.731306 26.837729 
L 69.035974 27.263072 
L 69.340643 27.964545 
L 69.645311 28.191548 
L 70.559316 28.283546 
L 77.262019 28.456603 
L 77.566687 28.820593 
L 77.871355 29.719785 
L 78.176024 31.19716 
L 78.480692 31.371977 
L 87.011404 31.484349 
L 107.728849 31.595078 
L 108.642854 31.85026 
L 108.947522 32.23789 
L 109.252191 32.951347 
L 109.556859 35.976936 
L 110.166196 36.6632 
L 110.775532 36.820444 
L 112.90821 37.036648 
L 113.212879 37.274079 
L 113.822215 38.974776 
L 114.431552 42.386709 
L 114.73622 43.011493 
L 117.478235 43.034097 
L 134.844328 43.106376 
L 135.148997 43.214031 
L 135.453665 43.533558 
L 135.758333 44.059062 
L 136.063001 45.435483 
L 136.672338 45.617005 
L 139.109685 45.867995 
L 139.414353 46.446034 
L 140.023689 52.084716 
L 140.328358 52.36936 
L 141.547031 52.420775 
L 156.17111 52.478865 
L 157.085114 52.736144 
L 157.999119 52.794305 
L 161.045802 52.88568 
L 161.655139 52.972153 
L 161.959807 54.185768 
L 162.264476 60.747105 
L 162.569144 62.233824 
L 162.873812 62.584162 
L 165.00649 62.609956 
L 173.537203 62.665737 
L 174.14654 63.270604 
L 175.060544 63.337806 
L 178.716564 63.407521 
L 179.021232 63.572883 
L 179.325901 64.783324 
L 179.935237 68.374029 
L 180.239906 73.542027 
L 180.544574 74.795478 
L 182.067915 74.823606 
L 191.817301 74.870162 
L 192.12197 75.184191 
L 194.254648 75.427102 
L 196.691994 75.476075 
L 197.301331 75.92462 
L 197.605999 76.856106 
L 198.215336 87.43162 
L 198.520004 87.71761 
L 199.434009 87.792216 
L 214.362756 87.841938 
L 214.972092 88.306451 
L 215.276761 89.088856 
L 215.886097 89.266389 
L 218.628112 89.353033 
L 218.93278 89.707801 
L 219.237449 92.426897 
L 219.542117 100.810393 
L 219.846785 101.347514 
L 221.370127 101.377968 
L 236.603542 101.395877 
L 237.212879 101.559022 
L 240.259562 101.61866 
L 240.56423 101.794395 
L 241.173567 102.945033 
L 241.478235 106.0423 
L 241.782903 113.268166 
L 242.087571 114.000172 
L 242.696908 114.086053 
L 246.048259 114.104055 
L 246.962264 114.639709 
L 251.532289 114.654698 
L 263.719021 114.751462 
L 264.023689 115.028675 
L 264.937694 117.318757 
L 265.547031 117.412993 
L 267.984377 117.523654 
L 268.289046 117.70177 
L 268.898382 118.531626 
L 270.117056 128.031599 
L 271.03106 128.107162 
L 281.694451 128.139931 
L 282.303788 128.385294 
L 285.350471 128.453685 
L 285.959807 130.278046 
L 286.873812 135.161413 
L 287.178481 135.802438 
L 287.787817 136.462769 
L 289.00649 136.507924 
L 290.225164 136.554076 
L 290.529832 136.7555 
L 291.139169 142.42621 
L 291.443837 142.655195 
L 293.576515 142.693488 
L 308.505262 142.800539 
L 312.161282 143.016244 
L 312.46595 143.361083 
L 312.770618 145.719157 
L 313.075286 150.773803 
L 313.379955 153.166053 
L 313.684623 154.355719 
L 314.29396 154.948457 
L 314.903296 155.330536 
L 315.207965 155.803809 
L 315.817301 155.935738 
L 317.645311 155.95313 
L 317.949979 156.212773 
L 318.254648 156.639629 
L 318.559316 159.138703 
L 318.863984 159.593841 
L 319.168653 159.736709 
L 324.652682 159.748571 
L 330.44138 159.850188 
L 330.746048 160.027389 
L 331.050716 160.859954 
L 331.355385 160.946527 
L 332.26939 161.620191 
L 332.878726 162.276082 
L 333.792731 162.48573 
L 335.620741 162.523983 
L 335.925409 163.063366 
L 336.230078 164.660821 
L 336.534746 166.868065 
L 336.839414 173.607413 
L 337.144083 175.533515 
L 337.448751 175.713401 
L 339.581429 175.762392 
L 341.104771 175.783133 
L 341.714107 176.040604 
L 342.628112 176.092256 
L 353.900839 176.154546 
L 354.205508 176.26366 
L 354.510176 176.595128 
L 354.814844 177.330564 
L 355.424181 180.189018 
L 356.338186 181.23629 
L 357.252191 181.299952 
L 359.0802 181.403799 
L 359.384869 182.29235 
L 359.994205 185.703969 
L 360.298874 190.625738 
L 360.603542 191.281417 
L 362.126884 191.324479 
L 371.876269 191.409114 
L 371.876269 191.409114 
" style="fill:none;stroke:#073642;stroke-linecap:square;stroke-width:1.5;"/>
   </g>
   <g id="patch_3">
    <path d="M 52.294451 232.46 
L 52.294451 10.7 
" style="fill:none;stroke:#000000;stroke-linecap:square;stroke-linejoin:miter;stroke-width:0.8;"/>
   </g>
   <g id="patch_4">
    <path d="M 387.094451 232.46 
L 387.094451 10.7 
" style="fill:none;stroke:#000000;stroke-linecap:square;stroke-linejoin:miter;stroke-width:0.8;"/>
   </g>
   <g id="patch_5">
    <path d="M 52.294451 232.46 
L 387.094451 232.46 
" style="fill:none;stroke:#000000;stroke-linecap:square;stroke-linejoin:miter;stroke-width:0.8;"/>
   </g>
   <g id="patch_6">
    <path d="M 52.294451 10.7 
L 387.094451 10.7 
" style="fill:none;stroke:#000000;stroke-linecap:square;stroke-linejoin:miter;stroke-width:0.8;"/>
   </g>
   <g id="legend_1">
    <g id="patch_7">
     <path d="M 394.094451 144.134605 
L 498.591371 144.134605 
Q 500.591371 144.134605 500.591371 142.134605 
L 500.591371 17.7 
Q 500.591371 15.7 498.591371 15.7 
L 394.094451 15.7 
Q 392.094451 15.7 392.094451 17.7 
L 392.094451 142.134605 
Q 392.094451 144.134605 394.094451 144.134605 
z
" style="fill:#ffffff;opacity:0.8;stroke:#cccccc;stroke-linejoin:miter;"/>
    </g>
    <g id="line2d_38">
     <path d="M 396.094451 23.2 
L 416.094451 23.2 
" style="fill:none;stroke:#073642;stroke-linecap:square;stroke-width:1.5;"/>
    </g>
    <g id="line2d_39"/>
    <g id="text_17">
     <!-- \textsc{pipe-PR-CG} -->
     <defs>
      <path d="M 32.296875 23 
C 42.296875 23 50.703125 29.296875 50.703125 36.890625 
C 50.703125 44.09375 43.09375 51 31.59375 51 
L 4.5 51 
L 4.5 48.484375 
C 11.203125 48.484375 11.703125 47.890625 11.703125 43.796875 
L 11.703125 7.109375 
C 11.703125 3.078125 11.203125 2.5 4.5 2.5 
L 4.5 0 
C 7.40625 0.09375 13.09375 0.296875 15.296875 0.296875 
C 17.5 0.296875 23.09375 0.09375 26.09375 0 
L 26.09375 2.5 
C 19.40625 2.5 18.90625 3.078125 18.90625 7.109375 
L 18.90625 23 
z
M 18.59375 44.1875 
C 18.59375 48.1875 19.09375 48.484375 22.59375 48.484375 
L 29.5 48.484375 
C 42.09375 48.484375 42.09375 40.890625 42.09375 36.890625 
C 42.09375 33 42.09375 25.296875 29.5 25.296875 
L 18.59375 25.296875 
z
" id="CMCSC10-112"/>
      <path d="M 18.703125 43.734375 
C 18.703125 48 19.203125 48.484375 26.296875 48.484375 
L 26.296875 51 
C 22.90625 50.890625 17.703125 50.6875 15.09375 50.6875 
C 12.5 50.6875 7.296875 50.890625 3.90625 51 
L 3.90625 48.484375 
C 11 48.484375 11.5 48 11.5 43.734375 
L 11.5 7.25 
C 11.5 2.984375 11 2.5 3.90625 2.5 
L 3.90625 0 
C 7.296875 0.09375 12.5 0.296875 15.09375 0.296875 
C 17.703125 0.296875 22.90625 0.09375 26.296875 0 
L 26.296875 2.5 
C 19.203125 2.5 18.703125 2.984375 18.703125 7.25 
z
" id="CMCSC10-105"/>
      <path d="M 48.796875 50.6875 
L 4.296875 50.6875 
L 4.296875 48.1875 
C 11 48.1875 11.5 47.59375 11.5 43.515625 
L 11.5 7.125 
C 11.5 3.078125 11 2.5 4.296875 2.5 
L 4.296875 0 
L 50 0 
L 52.90625 19.171875 
L 50.40625 19.171875 
C 48.703125 7.234375 46.296875 2.5 33.5 2.5 
L 22.703125 2.5 
C 19.203125 2.5 18.703125 2.78125 18.703125 6.734375 
L 18.703125 25 
L 25.703125 25 
C 33.09375 25 34.296875 23.015625 34.296875 16.40625 
L 36.796875 16.40625 
L 36.796875 36.15625 
L 34.296875 36.15625 
C 34.296875 29.484375 33.09375 27.5 25.703125 27.5 
L 18.703125 27.5 
L 18.703125 43.90625 
C 18.703125 47.890625 19.203125 48.1875 22.703125 48.1875 
L 32.90625 48.1875 
C 44.5 48.1875 47.09375 44.703125 48.203125 33.859375 
L 50.703125 33.859375 
z
" id="CMCSC10-101"/>
      <path d="M 30.5 19 
L 30.5 24.796875 
L 2.59375 24.796875 
L 2.59375 19 
z
" id="CMCSC10-45"/>
      <path d="M 43 31.390625 
C 55.203125 31.390625 66.90625 39.171875 66.90625 49.4375 
C 66.90625 59.3125 56.296875 68 42.203125 68 
L 5.703125 68 
L 5.703125 64.890625 
L 8.09375 64.890625 
C 15.796875 64.890625 16 63.796875 16 60.203125 
L 16 7.765625 
C 16 4.1875 15.796875 3.09375 8.09375 3.09375 
L 5.703125 3.09375 
L 5.703125 0 
C 9.203125 0.296875 16.59375 0.296875 20.40625 0.296875 
C 24.203125 0.296875 31.703125 0.296875 35.203125 0 
L 35.203125 3.09375 
L 32.796875 3.09375 
C 25.09375 3.09375 24.90625 4.1875 24.90625 7.765625 
L 24.90625 31.390625 
z
M 24.59375 60.90625 
C 24.59375 64.1875 24.796875 64.890625 29.5 64.890625 
L 39.59375 64.890625 
C 56.59375 64.890625 56.59375 53.921875 56.59375 49.4375 
C 56.59375 45.15625 56.59375 34 39.59375 34 
L 24.59375 34 
z
" id="CMCSC10-80"/>
      <path d="M 24.59375 35.1875 
L 24.59375 60.921875 
C 24.59375 63.609375 24.796875 64.5 27.203125 64.796875 
C 28.09375 64.890625 31.203125 64.890625 33.203125 64.890625 
C 41.90625 64.890625 55.09375 64.890625 55.09375 50.09375 
C 55.09375 39.46875 48 35.1875 36.703125 35.1875 
z
M 47 33.890625 
C 59 36.78125 65.40625 43.34375 65.40625 50.09375 
C 65.40625 59.734375 53.203125 68 38.09375 68 
L 5.703125 68 
L 5.703125 64.890625 
L 8.09375 64.890625 
C 15.796875 64.890625 16 63.796875 16 60.21875 
L 16 7.921875 
C 16 4.359375 15.796875 3.265625 8.09375 3.265625 
L 5.703125 3.265625 
L 5.703125 0.1875 
C 9.296875 0.484375 16.40625 0.484375 20.296875 0.484375 
C 24.203125 0.484375 31.296875 0.484375 34.90625 0.1875 
L 34.90625 3.265625 
L 32.5 3.265625 
C 24.796875 3.265625 24.59375 4.359375 24.59375 7.921875 
L 24.59375 33 
L 37.09375 33 
C 42.5 33 45.703125 31.015625 47.40625 29.421875 
C 51.203125 25.75 51.203125 23.28125 51.203125 16.34375 
C 51.203125 9.5 51.203125 5.9375 55.5 2.078125 
C 59.203125 -1.109375 64.796875 -2 68.296875 -2 
C 76.296875 -2 78.203125 6.140625 78.203125 8.90625 
C 78.203125 9.5 78.203125 10.59375 76.90625 10.59375 
C 75.796875 10.59375 75.796875 9.703125 75.703125 9.015625 
C 74.90625 1.28125 70.796875 0.1875 68.703125 0.1875 
C 63.40625 0.1875 62.703125 4.65625 60.90625 16.140625 
C 59.796875 23.078125 59.40625 25.5625 56.203125 28.734375 
C 54.09375 30.90625 50.90625 32.796875 47 33.890625 
z
" id="CMCSC10-82"/>
      <path d="M 63.40625 62.0625 
C 60.09375 65.484375 54 71 43.703125 71 
C 24 71 7.203125 54.9375 7.203125 34.546875 
C 7.203125 14.046875 24 -2 43.796875 -2 
C 60.703125 -2 71.296875 11.640625 71.296875 23.59375 
C 71.296875 24.59375 71.296875 25.296875 70 25.296875 
C 68.90625 25.296875 68.90625 24.703125 68.796875 23.6875 
C 68 9.125 56.296875 1.09375 45.09375 1.09375 
C 36.296875 1.09375 17.5 6.3125 17.5 34.4375 
C 17.5 64.078125 38 67.890625 44.90625 67.890625 
C 55.59375 67.890625 65.796875 59.546875 68.09375 44.078125 
C 68.296875 42.671875 68.40625 42.375 69.703125 42.375 
C 71.296875 42.375 71.296875 42.671875 71.296875 44.78125 
L 71.296875 68.59375 
C 71.296875 70.296875 71.296875 71 70.203125 71 
C 69.796875 71 69.40625 71 68.59375 69.796875 
z
" id="CMCSC10-67"/>
      <path d="M 71.203125 68.59375 
C 71.203125 70.296875 71.203125 71 70.09375 71 
C 69.703125 71 69.296875 71 68.5 69.796875 
L 63.296875 62.125 
C 60.203125 65.109375 54.296875 71 43.703125 71 
C 23.796875 71 7.203125 54.859375 7.203125 34.859375 
C 7.203125 14.578125 23.59375 -2 43.90625 -2 
C 51.796875 -2 60.40625 0.59375 63.90625 6.609375 
C 65.203125 4.359375 69.203125 0.296875 70.296875 0.296875 
C 71.203125 0.296875 71.203125 1.09375 71.203125 2.625 
L 71.203125 20.390625 
C 71.203125 24.890625 72.296875 24.890625 78.5 24.890625 
L 78.5 28 
C 73.703125 27.796875 70.09375 27.6875 65.796875 27.6875 
C 61.703125 27.6875 52.796875 27.6875 49.203125 28 
L 49.203125 24.890625 
L 52.703125 24.890625 
C 62.296875 24.890625 62.296875 23.46875 62.296875 19.984375 
L 62.296875 13.453125 
C 62.296875 1.09375 46.796875 1.09375 45.59375 1.09375 
C 36.5 1.09375 17.5 6.40625 17.5 34.859375 
C 17.5 63.015625 36.703125 67.890625 44.90625 67.890625 
C 55.5 67.890625 65.703125 59.734375 68 44.3125 
C 68.203125 42.921875 68.296875 42.625 69.59375 42.625 
C 71.203125 42.625 71.203125 42.921875 71.203125 45 
z
" id="CMCSC10-71"/>
     </defs>
     <g transform="translate(424.094451 26.7)scale(0.1 -0.1)">
      <use transform="scale(0.996264)" xlink:href="#CMCSC10-112"/>
      <use transform="translate(55.569158 0)scale(0.996264)" xlink:href="#CMCSC10-105"/>
      <use transform="translate(85.67837 0)scale(0.996264)" xlink:href="#CMCSC10-112"/>
      <use transform="translate(141.247528 0)scale(0.996264)" xlink:href="#CMCSC10-101"/>
      <use transform="translate(196.816686 0)scale(0.996264)" xlink:href="#CMCSC10-45"/>
      <use transform="translate(234.45297 0)scale(0.996264)" xlink:href="#CMCSC10-80"/>
      <use transform="translate(308.341796 0)scale(0.996264)" xlink:href="#CMCSC10-82"/>
      <use transform="translate(388.042172 0)scale(0.996264)" xlink:href="#CMCSC10-45"/>
      <use transform="translate(425.678456 0)scale(0.996264)" xlink:href="#CMCSC10-67"/>
      <use transform="translate(503.99518 0)scale(0.996264)" xlink:href="#CMCSC10-71"/>
     </g>
    </g>
    <g id="line2d_40">
     <path d="M 396.094451 37.137178 
L 416.094451 37.137178 
" style="fill:none;stroke:#2aa198;stroke-linecap:square;stroke-width:1.5;"/>
    </g>
    <g id="line2d_41"/>
    <g id="text_18">
     <!-- \textsc{pipe-P-CG} -->
     <g transform="translate(424.094451 40.637178)scale(0.1 -0.1)">
      <use transform="scale(0.996264)" xlink:href="#CMCSC10-112"/>
      <use transform="translate(55.569158 0)scale(0.996264)" xlink:href="#CMCSC10-105"/>
      <use transform="translate(85.67837 0)scale(0.996264)" xlink:href="#CMCSC10-112"/>
      <use transform="translate(141.247528 0)scale(0.996264)" xlink:href="#CMCSC10-101"/>
      <use transform="translate(196.816686 0)scale(0.996264)" xlink:href="#CMCSC10-45"/>
      <use transform="translate(234.45297 0)scale(0.996264)" xlink:href="#CMCSC10-80"/>
      <use transform="translate(308.341796 0)scale(0.996264)" xlink:href="#CMCSC10-45"/>
      <use transform="translate(345.97808 0)scale(0.996264)" xlink:href="#CMCSC10-67"/>
      <use transform="translate(424.294805 0)scale(0.996264)" xlink:href="#CMCSC10-71"/>
     </g>
    </g>
    <g id="line2d_42">
     <path d="M 396.094451 51.074357 
L 416.094451 51.074357 
" style="fill:none;stroke:#073642;stroke-dasharray:1.5,2.475;stroke-dashoffset:0;stroke-width:1.5;"/>
    </g>
    <g id="line2d_43"/>
    <g id="text_19">
     <!-- PR-CG -->
     <defs>
      <path d="M 19.796875 32 
L 35.796875 32 
C 48.703125 32 58.09375 40.359375 58.09375 49.796875 
C 58.09375 59.234375 48.90625 68 35.796875 68 
L 5.203125 68 
L 5.203125 65.390625 
C 12.09375 65.390625 13.203125 65.390625 13.203125 60.921875 
L 13.203125 7.078125 
C 13.203125 2.59375 12.09375 2.59375 5.203125 2.59375 
L 5.203125 0 
C 8.09375 0.1875 13.40625 0.1875 16.5 0.1875 
C 19.59375 0.1875 24.90625 0.1875 27.796875 0 
L 27.796875 2.59375 
C 20.90625 2.59375 19.796875 2.59375 19.796875 7.078125 
z
M 19.59375 34.09375 
L 19.59375 61.515625 
C 19.59375 64.890625 19.796875 65.390625 23.796875 65.390625 
L 33.90625 65.390625 
C 46.796875 65.390625 50.5 58.046875 50.5 49.796875 
C 50.5 40.75 46.09375 34.09375 33.90625 34.09375 
z
" id="CMR17-80"/>
      <path d="M 39.203125 33.6875 
C 48.703125 35.59375 56.703125 42.015625 56.703125 50.046875 
C 56.703125 59.46875 46.09375 68 32.09375 68 
L 5.203125 68 
L 5.203125 65.390625 
C 12.09375 65.390625 13.203125 65.390625 13.203125 60.875 
L 13.203125 6.6875 
C 13.203125 2.1875 12.09375 2.1875 5.203125 2.1875 
L 5.203125 -0.40625 
C 8.09375 -0.203125 13.296875 -0.203125 16.40625 -0.203125 
C 19.5 -0.203125 24.703125 -0.203125 27.59375 -0.40625 
L 27.59375 2.1875 
C 20.703125 2.1875 19.59375 2.1875 19.59375 6.6875 
L 19.59375 33 
L 31.296875 33 
C 37 33 40.203125 30.6875 41.59375 29.390625 
C 45.59375 25.5 45.59375 22.796875 45.59375 16 
C 45.59375 9.296875 45.59375 5.890625 48.59375 2.5 
C 52.40625 -1.609375 57.5 -2 59.703125 -2 
C 67.09375 -2 68.203125 6.296875 68.203125 8 
C 68.203125 8.59375 68.203125 9.296875 67.296875 9.296875 
C 66.5 9.296875 66.40625 8.6875 66.40625 8.296875 
C 65.90625 1.796875 63 -0.40625 59.90625 -0.40625 
C 54.40625 -0.40625 53.796875 5.890625 53.203125 12 
C 52.90625 14.09375 52.703125 15.59375 52.5 17.796875 
C 51.90625 22.796875 51.09375 30.09375 39.203125 33.6875 
z
M 31 34.59375 
L 19.59375 34.59375 
L 19.59375 61.484375 
C 19.59375 64.890625 19.796875 65.390625 23.796875 65.390625 
L 31.09375 65.390625 
C 39.40625 65.390625 49.09375 62.484375 49.09375 50.046875 
C 49.09375 37.09375 38.5 34.59375 31 34.59375 
z
" id="CMR17-82"/>
      <path d="M 62.09375 67.984375 
C 62.09375 69.796875 62 69.890625 61.40625 69.890625 
C 61 69.890625 60.90625 69.796875 60.203125 68.59375 
L 55.796875 60.140625 
C 50.90625 66.390625 44.90625 70 37.203125 70 
C 20.09375 70 4.59375 54.796875 4.59375 34.046875 
C 4.59375 13.078125 20.09375 -2 37.296875 -2 
C 52.59375 -2 62.09375 11.578125 62.09375 23.15625 
C 62.09375 24.171875 62.09375 24.578125 61.203125 24.578125 
C 60.40625 24.578125 60.40625 24.265625 60.296875 23.359375 
C 59.5 9.25 49.5 0.59375 38.703125 0.59375 
C 28.5 0.59375 12.203125 7.84375 12.203125 34.046875 
C 12.203125 60.34375 28.796875 67.390625 38.5 67.390625 
C 49.796875 67.390625 58 57.515625 59.90625 43.515625 
C 60.09375 42.296875 60.09375 42.109375 61 42.109375 
C 62.09375 42.109375 62.09375 42.296875 62.09375 44.125 
z
" id="CMR17-67"/>
      <path d="M 62.09375 19.65625 
C 62.09375 23.484375 62.40625 24 68.59375 24 
L 68.59375 26.59375 
C 66.203125 26.390625 60.796875 26.390625 58.09375 26.390625 
C 55.296875 26.390625 47.5 26.5 43.703125 26.59375 
L 43.703125 24 
L 46.703125 24 
C 55.296875 24 55.5 22.875 55.5 19.25 
L 55.5 12.59375 
C 55.5 1.5 42.5 0.59375 39.40625 0.59375 
C 29.09375 0.59375 12.203125 7.75 12.203125 34.046875 
C 12.203125 60.34375 28.796875 67.390625 38.5 67.390625 
C 49.796875 67.390625 58 57.515625 59.90625 43.515625 
C 60.09375 42.3125 60.09375 42.109375 61 42.109375 
C 62.09375 42.109375 62.09375 42.3125 62.09375 44.125 
L 62.09375 67.984375 
C 62.09375 69.796875 62 69.890625 61.40625 69.890625 
C 61 69.890625 60.90625 69.796875 60.203125 68.59375 
L 55.796875 60.140625 
C 50.90625 66.390625 44.90625 70 37.203125 70 
C 20.09375 70 4.59375 54.796875 4.59375 34.046875 
C 4.59375 13.40625 19.796875 -2 37.40625 -2 
C 45.5 -2 53.40625 0.890625 56.5 6.640625 
C 58.203125 2.515625 61 -0.3125 61.5 -0.3125 
C 62 -0.3125 62.09375 -0.203125 62.09375 1.59375 
z
" id="CMR17-71"/>
     </defs>
     <g transform="translate(424.094451 54.574357)scale(0.1 -0.1)">
      <use transform="scale(0.996264)" xlink:href="#CMR17-80"/>
      <use transform="translate(62.586301 0)scale(0.996264)" xlink:href="#CMR17-82"/>
      <use transform="translate(130.377402 0)scale(0.996264)" xlink:href="#CMR17-45"/>
      <use transform="translate(160.453369 0)scale(0.996264)" xlink:href="#CMR17-67"/>
      <use transform="translate(226.963249 0)scale(0.996264)" xlink:href="#CMR17-71"/>
     </g>
    </g>
    <g id="line2d_44">
     <path d="M 396.094451 65.011535 
L 416.094451 65.011535 
" style="fill:none;stroke:#859900;stroke-dasharray:1.5,2.475;stroke-dashoffset:0;stroke-width:1.5;"/>
    </g>
    <g id="line2d_45"/>
    <g id="text_20">
     <!-- \textsc{pipe-PR-M-CG} -->
     <defs>
      <path d="M 74.40625 65.09375 
L 74.5 64.984375 
L 74.5 7.765625 
C 74.5 4.1875 74.296875 3.09375 66.59375 3.09375 
L 64.203125 3.09375 
L 64.203125 0 
C 67.90625 0.296875 74.703125 0.296875 78.59375 0.296875 
C 82.5 0.296875 89.203125 0.296875 92.90625 0 
L 92.90625 3.09375 
L 90.5 3.09375 
C 82.796875 3.09375 82.59375 4.1875 82.59375 7.765625 
L 82.59375 60.21875 
C 82.59375 63.796875 82.796875 64.890625 90.5 64.890625 
L 92.90625 64.890625 
L 92.90625 68 
L 76 68 
C 73.703125 68 73.40625 68 72.59375 66.09375 
L 49.40625 9.46875 
L 26.203125 66.1875 
C 25.5 68 24.90625 68 22.796875 68 
L 5.90625 68 
L 5.90625 64.890625 
L 8.296875 64.890625 
C 16 64.890625 16.203125 63.796875 16.203125 60.21875 
L 16.203125 10.453125 
C 16.203125 7.765625 16.203125 3.09375 5.90625 3.09375 
L 5.90625 0 
C 9.40625 0.09375 14.296875 0.296875 17.59375 0.296875 
C 20.90625 0.296875 25.796875 0.09375 29.296875 0 
L 29.296875 3.09375 
C 19 3.09375 19 7.765625 19 10.453125 
L 19 64.296875 
L 19.09375 64.390625 
L 44.703125 1.796875 
C 45.09375 0.890625 45.59375 0 46.59375 0 
C 47.59375 0 48.09375 0.890625 48.5 1.796875 
z
" id="CMCSC10-77"/>
     </defs>
     <g transform="translate(424.094451 68.511535)scale(0.1 -0.1)">
      <use transform="scale(0.996264)" xlink:href="#CMCSC10-112"/>
      <use transform="translate(55.569158 0)scale(0.996264)" xlink:href="#CMCSC10-105"/>
      <use transform="translate(85.67837 0)scale(0.996264)" xlink:href="#CMCSC10-112"/>
      <use transform="translate(141.247528 0)scale(0.996264)" xlink:href="#CMCSC10-101"/>
      <use transform="translate(196.816686 0)scale(0.996264)" xlink:href="#CMCSC10-45"/>
      <use transform="translate(234.45297 0)scale(0.996264)" xlink:href="#CMCSC10-80"/>
      <use transform="translate(308.341796 0)scale(0.996264)" xlink:href="#CMCSC10-82"/>
      <use transform="translate(388.042172 0)scale(0.996264)" xlink:href="#CMCSC10-45"/>
      <use transform="translate(425.678456 0)scale(0.996264)" xlink:href="#CMCSC10-77"/>
      <use transform="translate(524.19692 0)scale(0.996264)" xlink:href="#CMCSC10-45"/>
      <use transform="translate(561.833204 0)scale(0.996264)" xlink:href="#CMCSC10-67"/>
      <use transform="translate(640.149929 0)scale(0.996264)" xlink:href="#CMCSC10-71"/>
     </g>
    </g>
    <g id="line2d_46">
     <path d="M 396.094451 78.948713 
L 416.094451 78.948713 
" style="fill:none;stroke:#6c71c4;stroke-linecap:square;stroke-width:1.5;"/>
    </g>
    <g id="line2d_47"/>
    <g id="text_21">
     <!-- \textsc{pipe-P-M-CG} -->
     <g transform="translate(424.094451 82.448713)scale(0.1 -0.1)">
      <use transform="scale(0.996264)" xlink:href="#CMCSC10-112"/>
      <use transform="translate(55.569158 0)scale(0.996264)" xlink:href="#CMCSC10-105"/>
      <use transform="translate(85.67837 0)scale(0.996264)" xlink:href="#CMCSC10-112"/>
      <use transform="translate(141.247528 0)scale(0.996264)" xlink:href="#CMCSC10-101"/>
      <use transform="translate(196.816686 0)scale(0.996264)" xlink:href="#CMCSC10-45"/>
      <use transform="translate(234.45297 0)scale(0.996264)" xlink:href="#CMCSC10-80"/>
      <use transform="translate(308.341796 0)scale(0.996264)" xlink:href="#CMCSC10-45"/>
      <use transform="translate(345.97808 0)scale(0.996264)" xlink:href="#CMCSC10-77"/>
      <use transform="translate(444.496544 0)scale(0.996264)" xlink:href="#CMCSC10-45"/>
      <use transform="translate(482.132828 0)scale(0.996264)" xlink:href="#CMCSC10-67"/>
      <use transform="translate(560.449553 0)scale(0.996264)" xlink:href="#CMCSC10-71"/>
     </g>
    </g>
    <g id="line2d_48">
     <path d="M 396.094451 92.885892 
L 416.094451 92.885892 
" style="fill:none;stroke:#93a1a1;stroke-linecap:square;stroke-width:1.5;"/>
    </g>
    <g id="line2d_49">
     <g>
      <use style="fill:#93a1a1;stroke:#93a1a1;stroke-linejoin:miter;" x="406.094451" xlink:href="#m68ffdcf8d5" y="92.885892"/>
     </g>
    </g>
    <g id="text_22">
     <!-- GV-CG -->
     <defs>
      <path d="M 59 58.78125 
C 59.90625 60.984375 61.5 65.296875 68.203125 65.390625 
L 68.203125 68 
C 65.90625 67.796875 63.296875 67.796875 60.796875 67.796875 
C 58.40625 67.796875 54.296875 67.796875 52 68 
L 52 65.390625 
C 57 65.09375 57.203125 61.59375 57.203125 60.984375 
C 57.203125 59.890625 56.90625 59.1875 56.59375 58.390625 
L 36.90625 7 
L 16.296875 60.984375 
C 16 61.6875 15.796875 62.1875 15.796875 62.6875 
C 15.796875 65.390625 19.796875 65.390625 21.90625 65.390625 
L 21.90625 68 
C 18.703125 67.796875 14 67.796875 10.703125 67.796875 
C 8.09375 67.796875 3.40625 67.796875 1 68 
L 1 65.390625 
C 6.796875 65.390625 7.90625 65 9.09375 61.796875 
L 32.90625 -0.40625 
C 33.40625 -1.8125 33.5 -2 34.59375 -2 
C 35.703125 -2 35.796875 -1.8125 36.296875 -0.40625 
z
" id="CMR17-86"/>
     </defs>
     <g transform="translate(424.094451 96.385892)scale(0.1 -0.1)">
      <use transform="scale(0.996264)" xlink:href="#CMR17-71"/>
      <use transform="translate(72.355346 0)scale(0.996264)" xlink:href="#CMR17-86"/>
      <use transform="translate(141.427776 0)scale(0.996264)" xlink:href="#CMR17-45"/>
      <use transform="translate(171.503742 0)scale(0.996264)" xlink:href="#CMR17-67"/>
      <use transform="translate(238.013623 0)scale(0.996264)" xlink:href="#CMR17-71"/>
     </g>
    </g>
    <g id="line2d_50">
     <path d="M 396.094451 106.82307 
L 416.094451 106.82307 
" style="fill:none;stroke:#93a1a1;stroke-linecap:square;stroke-width:1.5;"/>
    </g>
    <g id="line2d_51">
     <g>
      <use style="fill:#93a1a1;stroke:#93a1a1;stroke-linejoin:miter;" x="406.094451" xlink:href="#m4d1e6d5e0f" y="106.82307"/>
     </g>
    </g>
    <g id="text_23">
     <!-- M-CG -->
     <defs>
      <path d="M 20.90625 66.390625 
C 20.296875 67.890625 20.203125 68 18.09375 68 
L 5.296875 68 
L 5.296875 65.390625 
C 12.203125 65.390625 13.296875 65.390625 13.296875 60.90625 
L 13.296875 9.75 
C 13.296875 7.265625 13.296875 2.59375 5.296875 2.59375 
L 5.296875 0 
C 7.59375 0.1875 11.796875 0.1875 14.296875 0.1875 
C 16.796875 0.1875 21 0.1875 23.296875 0 
L 23.296875 2.59375 
C 15.296875 2.59375 15.296875 7.265625 15.296875 9.75 
L 15.296875 64.984375 
L 15.40625 64.984375 
L 38.90625 1.59375 
C 39.296875 0.59375 39.5 0 40.296875 0 
C 41.09375 0 41.296875 0.59375 41.703125 1.59375 
L 65.40625 65.484375 
L 65.5 65.484375 
L 65.5 7.078125 
C 65.5 2.59375 64.40625 2.59375 57.5 2.59375 
L 57.5 0 
C 60.203125 0.1875 65.59375 0.1875 68.5 0.1875 
C 71.40625 0.1875 76.90625 0.1875 79.59375 0 
L 79.59375 2.59375 
C 72.703125 2.59375 71.59375 2.59375 71.59375 7.078125 
L 71.59375 60.90625 
C 71.59375 65.390625 72.703125 65.390625 79.59375 65.390625 
L 79.59375 68 
L 66.90625 68 
C 64.796875 68 64.703125 67.890625 64.09375 66.390625 
L 42.5 8.0625 
z
" id="CMR17-77"/>
     </defs>
     <g transform="translate(424.094451 110.32307)scale(0.1 -0.1)">
      <use transform="scale(0.996264)" xlink:href="#CMR17-77"/>
      <use transform="translate(84.686941 0)scale(0.996264)" xlink:href="#CMR17-45"/>
      <use transform="translate(114.762907 0)scale(0.996264)" xlink:href="#CMR17-67"/>
      <use transform="translate(181.272787 0)scale(0.996264)" xlink:href="#CMR17-71"/>
     </g>
    </g>
    <g id="line2d_52">
     <path d="M 396.094451 120.760248 
L 416.094451 120.760248 
" style="fill:none;stroke:#93a1a1;stroke-linecap:square;stroke-width:1.5;"/>
    </g>
    <g id="line2d_53">
     <g>
      <use style="fill:#93a1a1;stroke:#93a1a1;stroke-linejoin:miter;" x="406.094451" xlink:href="#m4a79a4bf32" y="120.760248"/>
     </g>
    </g>
    <g id="text_24">
     <!-- CG-CG -->
     <g transform="translate(424.094451 124.260248)scale(0.1 -0.1)">
      <use transform="scale(0.996264)" xlink:href="#CMR17-67"/>
      <use transform="translate(66.509881 0)scale(0.996264)" xlink:href="#CMR17-71"/>
      <use transform="translate(138.865226 0)scale(0.996264)" xlink:href="#CMR17-45"/>
      <use transform="translate(168.941193 0)scale(0.996264)" xlink:href="#CMR17-67"/>
      <use transform="translate(235.451073 0)scale(0.996264)" xlink:href="#CMR17-71"/>
     </g>
    </g>
    <g id="line2d_54">
     <path d="M 396.094451 134.697427 
L 416.094451 134.697427 
" style="fill:none;stroke:#93a1a1;stroke-linecap:square;stroke-width:1.5;"/>
    </g>
    <g id="line2d_55">
     <g>
      <use style="fill:#93a1a1;stroke:#93a1a1;" x="406.094451" xlink:href="#m537d92ee58" y="134.697427"/>
     </g>
    </g>
    <g id="text_25">
     <!-- HS-CG -->
     <defs>
      <path d="M 56.09375 60.90625 
C 56.09375 65.390625 57.203125 65.390625 64.09375 65.390625 
L 64.09375 68 
C 61.203125 67.796875 55.90625 67.796875 52.796875 67.796875 
C 49.703125 67.796875 44.40625 67.796875 41.5 68 
L 41.5 65.390625 
C 48.40625 65.390625 49.5 65.390625 49.5 60.90625 
L 49.5 36.59375 
L 19.703125 36.59375 
L 19.703125 60.90625 
C 19.703125 65.390625 20.796875 65.390625 27.703125 65.390625 
L 27.703125 68 
C 24.796875 67.796875 19.5 67.796875 16.40625 67.796875 
C 13.296875 67.796875 8 67.796875 5.09375 68 
L 5.09375 65.390625 
C 12 65.390625 13.09375 65.390625 13.09375 60.90625 
L 13.09375 7.0625 
C 13.09375 2.59375 12 2.59375 5.09375 2.59375 
L 5.09375 0 
C 8 0.1875 13.296875 0.1875 16.40625 0.1875 
C 19.5 0.1875 24.796875 0.1875 27.703125 0 
L 27.703125 2.59375 
C 20.796875 2.59375 19.703125 2.59375 19.703125 7.0625 
L 19.703125 34 
L 49.5 34 
L 49.5 7.0625 
C 49.5 2.59375 48.40625 2.59375 41.5 2.59375 
L 41.5 0 
C 44.40625 0.1875 49.703125 0.1875 52.796875 0.1875 
C 55.90625 0.1875 61.203125 0.1875 64.09375 0 
L 64.09375 2.59375 
C 57.203125 2.59375 56.09375 2.59375 56.09375 7.0625 
z
" id="CMR17-72"/>
      <path d="M 43.796875 67.984375 
C 43.796875 69.796875 43.703125 69.890625 43.09375 69.890625 
C 42.5 69.890625 42.296875 69.484375 41.90625 68.59375 
L 38.90625 61.953125 
C 35.09375 67.5 29.296875 70 23 70 
C 12.796875 70 4.59375 61.84375 4.59375 51.578125 
C 4.59375 48.453125 5.296875 44.015625 8.703125 39.78125 
C 12.40625 35.15625 15.90625 34.34375 23.90625 32.234375 
C 26.90625 31.421875 31.90625 30.109375 32.90625 29.703125 
C 38.59375 27.296875 41.59375 21.25 41.59375 15.609375 
C 41.59375 8.34375 36.5 0.59375 27.796875 0.59375 
C 17.09375 0.59375 7.09375 6.640625 6.40625 20.75 
C 6.296875 22.359375 6.203125 22.453125 5.5 22.453125 
C 4.703125 22.453125 4.59375 22.359375 4.59375 20.34375 
L 4.59375 0 
C 4.59375 -1.8125 4.703125 -1.90625 5.296875 -1.90625 
C 6 -1.90625 6.203125 -1.40625 7.59375 1.703125 
C 7.703125 2 7.703125 2.203125 9.59375 6.03125 
C 14.59375 -0.609375 23 -2 27.796875 -2 
C 38.703125 -2 46.40625 7.140625 46.40625 17.828125 
C 46.40625 23.0625 44.5 27.09375 43.40625 28.90625 
C 39.203125 35.359375 34.703125 36.5625 29.90625 37.765625 
C 29.203125 38.078125 29 38.078125 23.40625 39.484375 
C 18 40.890625 15.703125 41.59375 13.203125 44.3125 
C 10.40625 47.4375 9.40625 50.671875 9.40625 53.890625 
C 9.40625 60.4375 14.59375 67.59375 23.09375 67.59375 
C 33.703125 67.59375 40.296875 60.03125 41.796875 47.4375 
C 42.09375 45.625 42.203125 45.53125 42.90625 45.53125 
C 43.796875 45.53125 43.796875 45.828125 43.796875 47.546875 
z
" id="CMR17-83"/>
     </defs>
     <g transform="translate(424.094451 138.197427)scale(0.1 -0.1)">
      <use transform="scale(0.996264)" xlink:href="#CMR17-72"/>
      <use transform="translate(69.07243 0)scale(0.996264)" xlink:href="#CMR17-83"/>
      <use transform="translate(119.9678 0)scale(0.996264)" xlink:href="#CMR17-45"/>
      <use transform="translate(150.043766 0)scale(0.996264)" xlink:href="#CMR17-67"/>
      <use transform="translate(216.553646 0)scale(0.996264)" xlink:href="#CMR17-71"/>
     </g>
    </g>
   </g>
  </g>
 </g>
 <defs>
  <clipPath id="p0f89807841">
   <rect height="221.76" width="334.8" x="52.294451" y="10.7"/>
  </clipPath>
 </defs>
</svg>
