<?xml version="1.0" encoding="utf-8" standalone="no"?>
<!DOCTYPE svg PUBLIC "-//W3C//DTD SVG 1.1//EN"
  "http://www.w3.org/Graphics/SVG/1.1/DTD/svg11.dtd">
<!-- Created with matplotlib (https://matplotlib.org/) -->
<svg height="268.371353pt" version="1.1" viewBox="0 0 494.350183 268.371353" width="494.350183pt" xmlns="http://www.w3.org/2000/svg" xmlns:xlink="http://www.w3.org/1999/xlink">
 <defs>
  <style type="text/css">
*{stroke-linecap:butt;stroke-linejoin:round;}
  </style>
 </defs>
 <g id="figure_1">
  <g id="patch_1">
   <path d="M -0 268.371353 
L 494.350183 268.371353 
L 494.350183 0 
L -0 0 
z
" style="fill:#ffffff;"/>
  </g>
  <g id="axes_1">
   <g id="patch_2">
    <path d="M 52.294451 232.46 
L 387.094451 232.46 
L 387.094451 10.7 
L 52.294451 10.7 
z
" style="fill:#ffffff;"/>
   </g>
   <g id="matplotlib.axis_1">
    <g id="xtick_1">
     <g id="line2d_1">
      <path clip-path="url(#p778523daa9)" d="M 67.512633 232.46 
L 67.512633 10.7 
" style="fill:none;stroke:#b0b0b0;stroke-dasharray:0.8,1.32;stroke-dashoffset:0;stroke-width:0.8;"/>
     </g>
     <g id="line2d_2">
      <defs>
       <path d="M 0 0 
L 0 3.5 
" id="md86f60870f" style="stroke:#000000;stroke-width:0.8;"/>
      </defs>
      <g>
       <use style="stroke:#000000;stroke-width:0.8;" x="67.512633" xlink:href="#md86f60870f" y="232.46"/>
      </g>
     </g>
     <g id="text_1">
      <!-- $0$ -->
      <defs>
       <path d="M 42 31.84375 
C 42 37.96875 41.90625 48.421875 37.703125 56.453125 
C 34 63.484375 28.09375 66 22.90625 66 
C 18.09375 66 12 63.78125 8.203125 56.5625 
C 4.203125 49.015625 3.796875 39.671875 3.796875 31.84375 
C 3.796875 26.109375 3.90625 17.375 7 9.734375 
C 11.296875 -0.609375 19 -2 22.90625 -2 
C 27.5 -2 34.5 -0.109375 38.59375 9.4375 
C 41.59375 16.375 42 24.5 42 31.84375 
z
M 22.90625 -0.40625 
C 16.5 -0.40625 12.703125 5.125 11.296875 12.75 
C 10.203125 18.6875 10.203125 27.328125 10.203125 32.953125 
C 10.203125 40.6875 10.203125 47.109375 11.5 53.234375 
C 13.40625 61.78125 19 64.390625 22.90625 64.390625 
C 27 64.390625 32.296875 61.671875 34.203125 53.4375 
C 35.5 47.71875 35.59375 40.984375 35.59375 32.953125 
C 35.59375 26.421875 35.59375 18.375 34.40625 12.453125 
C 32.296875 1.5 26.40625 -0.40625 22.90625 -0.40625 
z
" id="CMR17-48"/>
      </defs>
      <g transform="translate(65.021965 246.378498)scale(0.1 -0.1)">
       <use transform="scale(0.996264)" xlink:href="#CMR17-48"/>
      </g>
     </g>
    </g>
    <g id="xtick_2">
     <g id="line2d_3">
      <path clip-path="url(#p778523daa9)" d="M 140.941737 232.46 
L 140.941737 10.7 
" style="fill:none;stroke:#b0b0b0;stroke-dasharray:0.8,1.32;stroke-dashoffset:0;stroke-width:0.8;"/>
     </g>
     <g id="line2d_4">
      <g>
       <use style="stroke:#000000;stroke-width:0.8;" x="140.941737" xlink:href="#md86f60870f" y="232.46"/>
      </g>
     </g>
     <g id="text_2">
      <!-- $200$ -->
      <defs>
       <path d="M 41.703125 15.46875 
L 39.90625 15.46875 
C 38.90625 8.390625 38.09375 7.1875 37.703125 6.59375 
C 37.203125 5.796875 30 5.796875 28.59375 5.796875 
L 9.40625 5.796875 
C 13 9.6875 20 16.765625 28.5 24.9375 
C 34.59375 30.71875 41.703125 37.5 41.703125 47.390625 
C 41.703125 59.1875 32.296875 66 21.796875 66 
C 10.796875 66 4.09375 56.296875 4.09375 47.296875 
C 4.09375 43.390625 7 42.890625 8.203125 42.890625 
C 9.203125 42.890625 12.203125 43.484375 12.203125 46.984375 
C 12.203125 50.09375 9.59375 51 8.203125 51 
C 7.59375 51 7 50.890625 6.59375 50.6875 
C 8.5 59.1875 14.296875 63.390625 20.40625 63.390625 
C 29.09375 63.390625 34.796875 56.5 34.796875 47.390625 
C 34.796875 38.703125 29.703125 31.21875 24 24.734375 
L 4.09375 2.296875 
L 4.09375 0 
L 39.296875 0 
z
" id="CMR17-50"/>
      </defs>
      <g transform="translate(133.469734 246.378498)scale(0.1 -0.1)">
       <use transform="scale(0.996264)" xlink:href="#CMR17-50"/>
       <use transform="translate(45.690477 0)scale(0.996264)" xlink:href="#CMR17-48"/>
       <use transform="translate(91.380954 0)scale(0.996264)" xlink:href="#CMR17-48"/>
      </g>
     </g>
    </g>
    <g id="xtick_3">
     <g id="line2d_5">
      <path clip-path="url(#p778523daa9)" d="M 214.370841 232.46 
L 214.370841 10.7 
" style="fill:none;stroke:#b0b0b0;stroke-dasharray:0.8,1.32;stroke-dashoffset:0;stroke-width:0.8;"/>
     </g>
     <g id="line2d_6">
      <g>
       <use style="stroke:#000000;stroke-width:0.8;" x="214.370841" xlink:href="#md86f60870f" y="232.46"/>
      </g>
     </g>
     <g id="text_3">
      <!-- $400$ -->
      <defs>
       <path d="M 33.59375 64.796875 
C 33.59375 66.890625 33.5 67 31.703125 67 
L 2 19.59375 
L 2 17 
L 27.796875 17 
L 27.796875 7.1875 
C 27.796875 3.59375 27.59375 2.59375 20.59375 2.59375 
L 18.703125 2.59375 
L 18.703125 0 
C 21.90625 0.1875 27.296875 0.1875 30.703125 0.1875 
C 34.09375 0.1875 39.5 0.1875 42.703125 0 
L 42.703125 2.59375 
L 40.796875 2.59375 
C 33.796875 2.59375 33.59375 3.59375 33.59375 7.1875 
L 33.59375 17 
L 43.796875 17 
L 43.796875 19.59375 
L 33.59375 19.59375 
z
M 28.09375 58.171875 
L 28.09375 19.59375 
L 4 19.59375 
z
" id="CMR17-52"/>
      </defs>
      <g transform="translate(206.898838 246.378498)scale(0.1 -0.1)">
       <use transform="scale(0.996264)" xlink:href="#CMR17-52"/>
       <use transform="translate(45.690477 0)scale(0.996264)" xlink:href="#CMR17-48"/>
       <use transform="translate(91.380954 0)scale(0.996264)" xlink:href="#CMR17-48"/>
      </g>
     </g>
    </g>
    <g id="xtick_4">
     <g id="line2d_7">
      <path clip-path="url(#p778523daa9)" d="M 287.799945 232.46 
L 287.799945 10.7 
" style="fill:none;stroke:#b0b0b0;stroke-dasharray:0.8,1.32;stroke-dashoffset:0;stroke-width:0.8;"/>
     </g>
     <g id="line2d_8">
      <g>
       <use style="stroke:#000000;stroke-width:0.8;" x="287.799945" xlink:href="#md86f60870f" y="232.46"/>
      </g>
     </g>
     <g id="text_4">
      <!-- $600$ -->
      <defs>
       <path d="M 10.59375 34.34375 
C 10.59375 58 21.796875 63.6875 28.296875 63.6875 
C 30.40625 63.6875 35.5 63.265625 37.5 59.09375 
C 35.90625 59.09375 32.90625 59.09375 32.90625 55.59375 
C 32.90625 52.890625 35.09375 52 36.5 52 
C 37.40625 52 40.09375 52.390625 40.09375 55.796875 
C 40.09375 62.296875 35.09375 66 28.203125 66 
C 16.296875 66 3.796875 53.296875 3.796875 31.421875 
C 3.796875 4.015625 15.09375 -2 23.09375 -2 
C 32.796875 -2 42 6.734375 42 20.234375 
C 42 32.828125 33.90625 42 23.703125 42 
C 17.59375 42 13.09375 37.96875 10.59375 30.921875 
z
M 23.09375 0.390625 
C 10.796875 0.390625 10.796875 18.9375 10.796875 22.65625 
C 10.796875 29.90625 14.203125 40.390625 23.5 40.390625 
C 25.203125 40.390625 30.09375 40.390625 33.40625 33.4375 
C 35.203125 29.515625 35.203125 25.375 35.203125 20.34375 
C 35.203125 14.90625 35.203125 10.875 33.09375 6.84375 
C 30.90625 2.703125 27.703125 0.390625 23.09375 0.390625 
z
" id="CMR17-54"/>
      </defs>
      <g transform="translate(280.327942 246.378498)scale(0.1 -0.1)">
       <use transform="scale(0.996264)" xlink:href="#CMR17-54"/>
       <use transform="translate(45.690477 0)scale(0.996264)" xlink:href="#CMR17-48"/>
       <use transform="translate(91.380954 0)scale(0.996264)" xlink:href="#CMR17-48"/>
      </g>
     </g>
    </g>
    <g id="xtick_5">
     <g id="line2d_9">
      <path clip-path="url(#p778523daa9)" d="M 361.229049 232.46 
L 361.229049 10.7 
" style="fill:none;stroke:#b0b0b0;stroke-dasharray:0.8,1.32;stroke-dashoffset:0;stroke-width:0.8;"/>
     </g>
     <g id="line2d_10">
      <g>
       <use style="stroke:#000000;stroke-width:0.8;" x="361.229049" xlink:href="#md86f60870f" y="232.46"/>
      </g>
     </g>
     <g id="text_5">
      <!-- $800$ -->
      <defs>
       <path d="M 27.203125 35.765625 
C 33.5 38.96875 39.90625 43.796875 39.90625 51.53125 
C 39.90625 60.6875 31.09375 66 23 66 
C 13.90625 66 5.90625 59.375 5.90625 50.234375 
C 5.90625 47.71875 6.5 43.390625 10.40625 39.578125 
C 11.40625 38.578125 15.59375 35.5625 18.296875 33.65625 
C 13.796875 31.34375 3.296875 25.8125 3.296875 14.765625 
C 3.296875 4.40625 13.09375 -2 22.796875 -2 
C 33.5 -2 42.5 5.71875 42.5 15.96875 
C 42.5 25.109375 36.40625 29.328125 32.40625 32.046875 
z
M 14.09375 44.609375 
C 13.296875 45.109375 9.296875 48.21875 9.296875 52.9375 
C 9.296875 59.078125 15.59375 63.6875 22.796875 63.6875 
C 30.703125 63.6875 36.5 58.0625 36.5 51.53125 
C 36.5 42.1875 26.09375 36.859375 25.59375 36.859375 
C 25.5 36.859375 25.40625 36.859375 24.59375 37.46875 
z
M 32.5 24 
C 34 22.90625 38.796875 19.578125 38.796875 13.453125 
C 38.796875 6.015625 31.40625 0.390625 23 0.390625 
C 13.90625 0.390625 7 6.921875 7 14.859375 
C 7 22.796875 13.09375 29.4375 20 32.546875 
z
" id="CMR17-56"/>
      </defs>
      <g transform="translate(353.757046 246.378498)scale(0.1 -0.1)">
       <use transform="scale(0.996264)" xlink:href="#CMR17-56"/>
       <use transform="translate(45.690477 0)scale(0.996264)" xlink:href="#CMR17-48"/>
       <use transform="translate(91.380954 0)scale(0.996264)" xlink:href="#CMR17-48"/>
      </g>
     </g>
    </g>
    <g id="text_6">
     <!-- iteration $k$ -->
     <defs>
      <path d="M 15.5 61.890625 
C 15.5 64.09375 13.703125 66 11.40625 66 
C 9.203125 66 7.296875 64.1875 7.296875 61.890625 
C 7.296875 59.6875 9.09375 57.796875 11.40625 57.796875 
C 13.59375 57.796875 15.5 59.59375 15.5 61.890625 
z
M 3.796875 42.890625 
L 3.796875 40.296875 
C 9.40625 40.296875 10.203125 39.6875 10.203125 34.859375 
L 10.203125 6.921875 
C 10.203125 3.09375 9.796875 2.59375 3.40625 2.59375 
L 3.40625 0 
C 5.796875 0.1875 10.09375 0.1875 12.59375 0.1875 
C 15 0.1875 19.09375 0.1875 21.40625 0 
L 21.40625 2.59375 
C 15.5 2.59375 15.296875 3.203125 15.296875 6.8125 
L 15.296875 44 
z
" id="CMR17-105"/>
      <path d="M 15.09375 40.390625 
L 29.09375 40.390625 
L 29.09375 43 
L 15.09375 43 
L 15.09375 62 
L 13.296875 62 
C 13.09375 51.4375 9.59375 42.1875 1.09375 41.984375 
L 1.09375 40.390625 
L 9.796875 40.390625 
L 9.796875 12.15625 
C 9.796875 10.234375 9.796875 -1 21.40625 -1 
C 27.296875 -1 30.703125 4.8125 30.703125 12.25 
L 30.703125 17.984375 
L 28.90625 17.984375 
L 28.90625 12.34375 
C 28.90625 5.421875 26.203125 0.796875 22 0.796875 
C 19.09375 0.796875 15.09375 2.796875 15.09375 11.953125 
z
" id="CMR17-116"/>
      <path d="M 38.09375 23.484375 
C 38.5 23.890625 38.5 24.09375 38.5 25.09375 
C 38.5 35.171875 33.09375 44 21.703125 44 
C 11.09375 44 2.703125 33.984375 2.703125 21.78125 
C 2.703125 8.65625 12.203125 -1 22.796875 -1 
C 34 -1 38.40625 9.671875 38.40625 11.796875 
C 38.40625 12.5 37.796875 12.5 37.59375 12.5 
C 36.90625 12.5 36.796875 12.296875 36.40625 11.078125 
C 34.203125 4.21875 28.703125 0.796875 23.5 0.796875 
C 19.203125 0.796875 14.90625 3.21875 12.203125 7.65625 
C 9.09375 12.796875 9.09375 18.75 9.09375 23.484375 
z
M 9.203125 25 
C 9.90625 39.234375 17.59375 42.390625 21.59375 42.390625 
C 28.40625 42.390625 33 36.0625 33.09375 25 
z
" id="CMR17-101"/>
      <path d="M 15 23.703125 
C 15 33.34375 19.09375 42.390625 26.59375 42.390625 
C 27.296875 42.390625 28 42.296875 28.703125 41.984375 
C 28.703125 41.984375 26.5 41.28125 26.5 38.671875 
C 26.5 36.265625 28.40625 35.265625 29.90625 35.265625 
C 31.09375 35.265625 33.296875 35.96875 33.296875 38.78125 
C 33.296875 41.984375 30.09375 44 26.703125 44 
C 19.09375 44 15.796875 36.5625 14.796875 33.046875 
L 14.703125 33.046875 
L 14.703125 44 
L 3.09375 42.890625 
L 3.09375 40.28125 
C 9 40.28125 9.90625 39.6875 9.90625 34.859375 
L 9.90625 6.921875 
C 9.90625 3.09375 9.5 2.59375 3.09375 2.59375 
L 3.09375 0 
C 5.5 0.1875 10.09375 0.1875 12.703125 0.1875 
C 15.59375 0.1875 20.703125 0.1875 23.40625 0 
L 23.40625 2.59375 
C 16.203125 2.59375 15 2.59375 15 7.109375 
z
" id="CMR17-114"/>
      <path d="M 36 25.875 
C 36 32 36 35.546875 31.796875 39.59375 
C 28.09375 42.984375 23.796875 44 20.40625 44 
C 12.5 44 6.796875 37.625 6.796875 30.890625 
C 6.796875 27.1875 9.796875 27 10.40625 27 
C 11.703125 27 14 27.796875 14 30.59375 
C 14 33.09375 12.09375 34.1875 10.40625 34.1875 
C 10 34.1875 9.5 34.09375 9.203125 34 
C 11.296875 40.53125 16.703125 42.390625 20.203125 42.390625 
C 25.203125 42.390625 30.703125 37.828125 30.703125 29.296875 
L 30.703125 25.5 
C 24.796875 25.296875 17.703125 24.5 12.09375 21.453125 
C 5.796875 17.921875 4 12.84375 4 9 
C 4 1.203125 13 -1 18.296875 -1 
C 23.796875 -1 28.90625 2.109375 31.09375 7.890625 
C 31.296875 3.421875 34.09375 -0.609375 38.5 -0.609375 
C 40.59375 -0.609375 45.90625 0.796875 45.90625 8.796875 
L 45.90625 14.46875 
L 44.09375 14.46875 
L 44.09375 8.703125 
C 44.09375 2.515625 41.40625 1.703125 40.09375 1.703125 
C 36 1.703125 36 6.96875 36 11.4375 
z
M 30.703125 13.859375 
C 30.703125 5.046875 24.5 0.59375 19 0.59375 
C 14 0.59375 10.09375 4.34375 10.09375 9 
C 10.09375 12.046875 11.40625 17.40625 17.203125 20.65625 
C 22 23.390625 27.5 23.796875 30.703125 24 
z
" id="CMR17-97"/>
      <path d="M 43.09375 21.1875 
C 43.09375 34 33.796875 44 22.90625 44 
C 12 44 2.703125 34 2.703125 21.1875 
C 2.703125 8.59375 12 -1 22.90625 -1 
C 33.796875 -1 43.09375 8.59375 43.09375 21.1875 
z
M 22.90625 0.796875 
C 18.203125 0.796875 14.203125 3.59375 11.90625 7.5 
C 9.40625 12 9.09375 17.59375 9.09375 22 
C 9.09375 26.1875 9.296875 31.390625 11.90625 35.890625 
C 13.90625 39.1875 17.796875 42.390625 22.90625 42.390625 
C 27.40625 42.390625 31.203125 39.890625 33.59375 36.390625 
C 36.703125 31.6875 36.703125 25.09375 36.703125 22 
C 36.703125 18.09375 36.5 12.09375 33.796875 7.296875 
C 31 2.6875 26.703125 0.796875 22.90625 0.796875 
z
" id="CMR17-111"/>
      <path d="M 41.5 30.53125 
C 41.5 35.65625 40.5 44 28.703125 44 
C 20.796875 44 16.703125 37.875 15.203125 33.84375 
L 15.09375 33.84375 
L 15.09375 44 
L 3.296875 42.890625 
L 3.296875 40.28125 
C 9.203125 40.28125 10.09375 39.6875 10.09375 34.859375 
L 10.09375 6.921875 
C 10.09375 3.09375 9.703125 2.59375 3.296875 2.59375 
L 3.296875 0 
C 5.703125 0.1875 10.09375 0.1875 12.703125 0.1875 
C 15.296875 0.1875 19.796875 0.1875 22.203125 0 
L 22.203125 2.59375 
C 15.796875 2.59375 15.40625 3 15.40625 6.921875 
L 15.40625 26.21875 
C 15.40625 35.453125 21 42.390625 28 42.390625 
C 35.40625 42.390625 36.203125 35.765625 36.203125 30.9375 
L 36.203125 6.921875 
C 36.203125 3.09375 35.796875 2.59375 29.40625 2.59375 
L 29.40625 0 
C 31.796875 0.1875 36.203125 0.1875 38.796875 0.1875 
C 41.40625 0.1875 45.90625 0.1875 48.296875 0 
L 48.296875 2.59375 
C 41.90625 2.59375 41.5 3 41.5 6.921875 
z
" id="CMR17-110"/>
      <path d="M 28.09375 66.484375 
C 28.203125 66.890625 28.40625 67.484375 28.40625 67.984375 
C 28.40625 69 27.40625 69 27.203125 69 
C 27.09375 69 23.5 68.6875 21.703125 68.484375 
C 20 68.390625 18.5 68.1875 16.703125 68.09375 
C 14.296875 67.890625 13.59375 67.796875 13.59375 65.984375 
C 13.59375 64.984375 14.59375 64.984375 15.59375 64.984375 
C 20.703125 64.984375 20.703125 64.109375 20.703125 63.125 
C 20.703125 62.71875 20.703125 62.53125 20.203125 60.75 
L 5.90625 3.90625 
C 5.5 2.390625 5.5 2.203125 5.5 1.59375 
C 5.5 -0.609375 7.203125 -1 8.203125 -1 
C 11 -1 11.59375 1.1875 12.40625 4.296875 
L 17.09375 23.0625 
C 24.296875 22.265625 28.59375 19.25 28.59375 14.4375 
C 28.59375 13.828125 28.59375 13.4375 28.296875 11.921875 
C 27.90625 10.421875 27.90625 9.21875 27.90625 8.71875 
C 27.90625 2.890625 31.703125 -1 36.796875 -1 
C 41.40625 -1 43.796875 3.203125 44.59375 4.609375 
C 46.703125 8.3125 48 13.9375 48 14.328125 
C 48 14.828125 47.59375 15.234375 47 15.234375 
C 46.09375 15.234375 46 14.828125 45.59375 13.234375 
C 44.203125 8.015625 42.09375 1 37 1 
C 35 1 33.703125 2 33.703125 5.8125 
C 33.703125 7.71875 34.09375 9.921875 34.5 11.421875 
C 34.90625 13.234375 34.90625 13.328125 34.90625 14.53125 
C 34.90625 20.453125 29.59375 23.765625 20.40625 24.96875 
C 24 27.171875 27.59375 31.078125 29 32.59375 
C 34.703125 38.984375 38.59375 41.984375 43.203125 41.984375 
C 45.5 41.984375 46.09375 41.484375 46.796875 41 
C 43.09375 40.59375 41.703125 37.984375 41.703125 35.984375 
C 41.703125 33.59375 43.59375 32.796875 45 32.796875 
C 47.703125 32.796875 50.09375 35.09375 50.09375 38.296875 
C 50.09375 41.15625 47.796875 44 43.296875 44 
C 37.796875 44 33.296875 40.296875 26.203125 32.296875 
C 25.203125 31.078125 21.5 27.28125 17.796875 25.875 
z
" id="CMMI12-107"/>
     </defs>
     <g transform="translate(196.885256 259.234175)scale(0.1 -0.1)">
      <use transform="scale(0.996264)" xlink:href="#CMR17-105"/>
      <use transform="translate(24.871058 0)scale(0.996264)" xlink:href="#CMR17-116"/>
      <use transform="translate(60.151826 0)scale(0.996264)" xlink:href="#CMR17-101"/>
      <use transform="translate(100.637487 0)scale(0.996264)" xlink:href="#CMR17-114"/>
      <use transform="translate(135.918255 0)scale(0.996264)" xlink:href="#CMR17-97"/>
      <use transform="translate(181.608732 0)scale(0.996264)" xlink:href="#CMR17-116"/>
      <use transform="translate(216.889499 0)scale(0.996264)" xlink:href="#CMR17-105"/>
      <use transform="translate(241.760558 0)scale(0.996264)" xlink:href="#CMR17-111"/>
      <use transform="translate(287.451035 0)scale(0.996264)" xlink:href="#CMR17-110"/>
      <use transform="translate(368.422371 0)scale(0.996264)" xlink:href="#CMMI12-107"/>
     </g>
    </g>
   </g>
   <g id="matplotlib.axis_2">
    <g id="ytick_1">
     <g id="line2d_11">
      <path clip-path="url(#p778523daa9)" d="M 52.294451 232.46 
L 387.094451 232.46 
" style="fill:none;stroke:#b0b0b0;stroke-dasharray:0.8,1.32;stroke-dashoffset:0;stroke-width:0.8;"/>
     </g>
     <g id="line2d_12">
      <defs>
       <path d="M 0 0 
L -3.5 0 
" id="mac126c66bc" style="stroke:#000000;stroke-width:0.8;"/>
      </defs>
      <g>
       <use style="stroke:#000000;stroke-width:0.8;" x="52.294451" xlink:href="#mac126c66bc" y="232.46"/>
      </g>
     </g>
     <g id="text_7">
      <!-- $10^{-16}$ -->
      <defs>
       <path d="M 26.59375 63.796875 
C 26.59375 65.890625 26.5 66 25.09375 66 
C 21.203125 61.359375 15.296875 59.890625 9.703125 59.6875 
C 9.40625 59.6875 8.90625 59.6875 8.796875 59.5 
C 8.703125 59.296875 8.703125 59.09375 8.703125 57 
C 11.796875 57 17 57.59375 21 59.984375 
L 21 7.296875 
C 21 3.796875 20.796875 2.59375 12.203125 2.59375 
L 9.203125 2.59375 
L 9.203125 0 
C 14 0.09375 19 0.1875 23.796875 0.1875 
C 28.59375 0.1875 33.59375 0.09375 38.40625 0 
L 38.40625 2.59375 
L 35.40625 2.59375 
C 26.796875 2.59375 26.59375 3.6875 26.59375 7.296875 
z
" id="CMR17-49"/>
       <path d="M 65.90625 23 
C 67.59375 23 69.40625 23 69.40625 25 
C 69.40625 27 67.59375 27 65.90625 27 
L 11.796875 27 
C 10.09375 27 8.296875 27 8.296875 25 
C 8.296875 23 10.09375 23 11.796875 23 
z
" id="CMSY10-0"/>
      </defs>
      <g transform="translate(21.16264 235.919249)scale(0.1 -0.1)">
       <use transform="scale(0.996264)" xlink:href="#CMR17-49"/>
       <use transform="translate(45.690477 0)scale(0.996264)" xlink:href="#CMR17-48"/>
       <use transform="translate(91.380954 36.153639)scale(0.697382)" xlink:href="#CMSY10-0"/>
       <use transform="translate(145.621947 36.153639)scale(0.697382)" xlink:href="#CMR17-49"/>
       <use transform="translate(177.605129 36.153639)scale(0.697382)" xlink:href="#CMR17-54"/>
      </g>
     </g>
    </g>
    <g id="ytick_2">
     <g id="line2d_13">
      <path clip-path="url(#p778523daa9)" d="M 52.294451 205.900278 
L 387.094451 205.900278 
" style="fill:none;stroke:#b0b0b0;stroke-dasharray:0.8,1.32;stroke-dashoffset:0;stroke-width:0.8;"/>
     </g>
     <g id="line2d_14">
      <g>
       <use style="stroke:#000000;stroke-width:0.8;" x="52.294451" xlink:href="#mac126c66bc" y="205.900278"/>
      </g>
     </g>
     <g id="text_8">
      <!-- $10^{-14}$ -->
      <g transform="translate(21.16264 209.359527)scale(0.1 -0.1)">
       <use transform="scale(0.996264)" xlink:href="#CMR17-49"/>
       <use transform="translate(45.690477 0)scale(0.996264)" xlink:href="#CMR17-48"/>
       <use transform="translate(91.380954 36.153639)scale(0.697382)" xlink:href="#CMSY10-0"/>
       <use transform="translate(145.621947 36.153639)scale(0.697382)" xlink:href="#CMR17-49"/>
       <use transform="translate(177.605129 36.153639)scale(0.697382)" xlink:href="#CMR17-52"/>
      </g>
     </g>
    </g>
    <g id="ytick_3">
     <g id="line2d_15">
      <path clip-path="url(#p778523daa9)" d="M 52.294451 179.340556 
L 387.094451 179.340556 
" style="fill:none;stroke:#b0b0b0;stroke-dasharray:0.8,1.32;stroke-dashoffset:0;stroke-width:0.8;"/>
     </g>
     <g id="line2d_16">
      <g>
       <use style="stroke:#000000;stroke-width:0.8;" x="52.294451" xlink:href="#mac126c66bc" y="179.340556"/>
      </g>
     </g>
     <g id="text_9">
      <!-- $10^{-12}$ -->
      <g transform="translate(21.16264 182.799805)scale(0.1 -0.1)">
       <use transform="scale(0.996264)" xlink:href="#CMR17-49"/>
       <use transform="translate(45.690477 0)scale(0.996264)" xlink:href="#CMR17-48"/>
       <use transform="translate(91.380954 36.153639)scale(0.697382)" xlink:href="#CMSY10-0"/>
       <use transform="translate(145.621947 36.153639)scale(0.697382)" xlink:href="#CMR17-49"/>
       <use transform="translate(177.605129 36.153639)scale(0.697382)" xlink:href="#CMR17-50"/>
      </g>
     </g>
    </g>
    <g id="ytick_4">
     <g id="line2d_17">
      <path clip-path="url(#p778523daa9)" d="M 52.294451 152.780834 
L 387.094451 152.780834 
" style="fill:none;stroke:#b0b0b0;stroke-dasharray:0.8,1.32;stroke-dashoffset:0;stroke-width:0.8;"/>
     </g>
     <g id="line2d_18">
      <g>
       <use style="stroke:#000000;stroke-width:0.8;" x="52.294451" xlink:href="#mac126c66bc" y="152.780834"/>
      </g>
     </g>
     <g id="text_10">
      <!-- $10^{-10}$ -->
      <g transform="translate(21.16264 156.240083)scale(0.1 -0.1)">
       <use transform="scale(0.996264)" xlink:href="#CMR17-49"/>
       <use transform="translate(45.690477 0)scale(0.996264)" xlink:href="#CMR17-48"/>
       <use transform="translate(91.380954 36.153639)scale(0.697382)" xlink:href="#CMSY10-0"/>
       <use transform="translate(145.621947 36.153639)scale(0.697382)" xlink:href="#CMR17-49"/>
       <use transform="translate(177.605129 36.153639)scale(0.697382)" xlink:href="#CMR17-48"/>
      </g>
     </g>
    </g>
    <g id="ytick_5">
     <g id="line2d_19">
      <path clip-path="url(#p778523daa9)" d="M 52.294451 126.221112 
L 387.094451 126.221112 
" style="fill:none;stroke:#b0b0b0;stroke-dasharray:0.8,1.32;stroke-dashoffset:0;stroke-width:0.8;"/>
     </g>
     <g id="line2d_20">
      <g>
       <use style="stroke:#000000;stroke-width:0.8;" x="52.294451" xlink:href="#mac126c66bc" y="126.221112"/>
      </g>
     </g>
     <g id="text_11">
      <!-- $10^{-8}$ -->
      <g transform="translate(25.133878 129.680361)scale(0.1 -0.1)">
       <use transform="scale(0.996264)" xlink:href="#CMR17-49"/>
       <use transform="translate(45.690477 0)scale(0.996264)" xlink:href="#CMR17-48"/>
       <use transform="translate(91.380954 36.153639)scale(0.697382)" xlink:href="#CMSY10-0"/>
       <use transform="translate(145.621947 36.153639)scale(0.697382)" xlink:href="#CMR17-56"/>
      </g>
     </g>
    </g>
    <g id="ytick_6">
     <g id="line2d_21">
      <path clip-path="url(#p778523daa9)" d="M 52.294451 99.66139 
L 387.094451 99.66139 
" style="fill:none;stroke:#b0b0b0;stroke-dasharray:0.8,1.32;stroke-dashoffset:0;stroke-width:0.8;"/>
     </g>
     <g id="line2d_22">
      <g>
       <use style="stroke:#000000;stroke-width:0.8;" x="52.294451" xlink:href="#mac126c66bc" y="99.66139"/>
      </g>
     </g>
     <g id="text_12">
      <!-- $10^{-6}$ -->
      <g transform="translate(25.133878 103.120639)scale(0.1 -0.1)">
       <use transform="scale(0.996264)" xlink:href="#CMR17-49"/>
       <use transform="translate(45.690477 0)scale(0.996264)" xlink:href="#CMR17-48"/>
       <use transform="translate(91.380954 36.153639)scale(0.697382)" xlink:href="#CMSY10-0"/>
       <use transform="translate(145.621947 36.153639)scale(0.697382)" xlink:href="#CMR17-54"/>
      </g>
     </g>
    </g>
    <g id="ytick_7">
     <g id="line2d_23">
      <path clip-path="url(#p778523daa9)" d="M 52.294451 73.101668 
L 387.094451 73.101668 
" style="fill:none;stroke:#b0b0b0;stroke-dasharray:0.8,1.32;stroke-dashoffset:0;stroke-width:0.8;"/>
     </g>
     <g id="line2d_24">
      <g>
       <use style="stroke:#000000;stroke-width:0.8;" x="52.294451" xlink:href="#mac126c66bc" y="73.101668"/>
      </g>
     </g>
     <g id="text_13">
      <!-- $10^{-4}$ -->
      <g transform="translate(25.133878 76.560918)scale(0.1 -0.1)">
       <use transform="scale(0.996264)" xlink:href="#CMR17-49"/>
       <use transform="translate(45.690477 0)scale(0.996264)" xlink:href="#CMR17-48"/>
       <use transform="translate(91.380954 36.153639)scale(0.697382)" xlink:href="#CMSY10-0"/>
       <use transform="translate(145.621947 36.153639)scale(0.697382)" xlink:href="#CMR17-52"/>
      </g>
     </g>
    </g>
    <g id="ytick_8">
     <g id="line2d_25">
      <path clip-path="url(#p778523daa9)" d="M 52.294451 46.541946 
L 387.094451 46.541946 
" style="fill:none;stroke:#b0b0b0;stroke-dasharray:0.8,1.32;stroke-dashoffset:0;stroke-width:0.8;"/>
     </g>
     <g id="line2d_26">
      <g>
       <use style="stroke:#000000;stroke-width:0.8;" x="52.294451" xlink:href="#mac126c66bc" y="46.541946"/>
      </g>
     </g>
     <g id="text_14">
      <!-- $10^{-2}$ -->
      <g transform="translate(25.133878 50.001196)scale(0.1 -0.1)">
       <use transform="scale(0.996264)" xlink:href="#CMR17-49"/>
       <use transform="translate(45.690477 0)scale(0.996264)" xlink:href="#CMR17-48"/>
       <use transform="translate(91.380954 36.153639)scale(0.697382)" xlink:href="#CMSY10-0"/>
       <use transform="translate(145.621947 36.153639)scale(0.697382)" xlink:href="#CMR17-50"/>
      </g>
     </g>
    </g>
    <g id="ytick_9">
     <g id="line2d_27">
      <path clip-path="url(#p778523daa9)" d="M 52.294451 19.982224 
L 387.094451 19.982224 
" style="fill:none;stroke:#b0b0b0;stroke-dasharray:0.8,1.32;stroke-dashoffset:0;stroke-width:0.8;"/>
     </g>
     <g id="line2d_28">
      <g>
       <use style="stroke:#000000;stroke-width:0.8;" x="52.294451" xlink:href="#mac126c66bc" y="19.982224"/>
      </g>
     </g>
     <g id="text_15">
      <!-- $10^{0}$ -->
      <g transform="translate(31.360543 23.441474)scale(0.1 -0.1)">
       <use transform="scale(0.996264)" xlink:href="#CMR17-49"/>
       <use transform="translate(45.690477 0)scale(0.996264)" xlink:href="#CMR17-48"/>
       <use transform="translate(91.380954 36.153639)scale(0.697382)" xlink:href="#CMR17-48"/>
      </g>
     </g>
    </g>
    <g id="text_16">
     <!-- $A$-norm of error: $\| x-x_k \|_A$ -->
     <defs>
      <path d="M 17 11.25 
C 13.5 5.234375 10.09375 3.203125 5.296875 2.890625 
C 4.203125 2.796875 3.40625 2.796875 3.40625 1 
C 3.40625 0.390625 3.90625 0 4.59375 0 
C 6.40625 0 10.90625 0.1875 12.703125 0.1875 
C 15.59375 0.1875 18.796875 0 21.59375 0 
C 22.203125 0 23.40625 0 23.40625 1.890625 
C 23.40625 2.796875 22.59375 2.890625 22 2.890625 
C 19.703125 3.09375 17.796875 3.90625 17.796875 6.359375 
C 17.796875 7.78125 18.40625 8.90625 19.703125 11.15625 
L 27.296875 24 
L 52.796875 24 
C 52.90625 23.078125 52.90625 22.265625 53 21.34375 
C 53.296875 18.6875 54.5 8.09375 54.5 6.15625 
C 54.5 3.09375 49.40625 2.890625 47.796875 2.890625 
C 46.703125 2.890625 45.59375 2.890625 45.59375 1.09375 
C 45.59375 0 46.5 0 47.09375 0 
C 48.796875 0 50.796875 0.1875 52.5 0.1875 
L 58.203125 0.1875 
C 64.296875 0.1875 68.703125 0 68.796875 0 
C 69.5 0 70.59375 0 70.59375 1.890625 
C 70.59375 2.890625 69.703125 2.890625 68.203125 2.890625 
C 62.703125 2.890625 62.59375 3.8125 62.296875 6.875 
L 56.203125 68.796875 
C 56 70.796875 55.59375 71 54.5 71 
C 53.5 71 52.90625 70.796875 52 69.296875 
z
M 29 26.890625 
L 49.09375 59.859375 
L 52.5 26.890625 
z
" id="CMMI12-65"/>
      <path d="M 25.5 19.59375 
L 25.5 24 
L 0.40625 24 
L 0.40625 19.59375 
z
" id="CMR17-45"/>
      <path d="M 67.59375 30.53125 
C 67.59375 35.5625 66.703125 44 54.796875 44 
C 48 44 43.296875 39.375 41.5 33.953125 
L 41.40625 33.953125 
C 40.203125 42.1875 34.296875 44 28.703125 44 
C 20.796875 44 16.703125 37.875 15.203125 33.84375 
L 15.09375 33.84375 
L 15.09375 44 
L 3.296875 42.890625 
L 3.296875 40.28125 
C 9.203125 40.28125 10.09375 39.6875 10.09375 34.859375 
L 10.09375 6.921875 
C 10.09375 3.09375 9.703125 2.59375 3.296875 2.59375 
L 3.296875 0 
C 5.703125 0.1875 10.09375 0.1875 12.703125 0.1875 
C 15.296875 0.1875 19.796875 0.1875 22.203125 0 
L 22.203125 2.59375 
C 15.796875 2.59375 15.40625 3 15.40625 6.921875 
L 15.40625 26.21875 
C 15.40625 35.453125 21 42.390625 28 42.390625 
C 35.40625 42.390625 36.203125 35.765625 36.203125 30.9375 
L 36.203125 6.921875 
C 36.203125 3.09375 35.796875 2.59375 29.40625 2.59375 
L 29.40625 0 
C 31.796875 0.1875 36.203125 0.1875 38.796875 0.1875 
C 41.40625 0.1875 45.90625 0.1875 48.296875 0 
L 48.296875 2.59375 
C 41.90625 2.59375 41.5 3 41.5 6.921875 
L 41.5 26.21875 
C 41.5 35.453125 47.09375 42.390625 54.09375 42.390625 
C 61.5 42.390625 62.296875 35.765625 62.296875 30.9375 
L 62.296875 6.921875 
C 62.296875 3.09375 61.90625 2.59375 55.5 2.59375 
L 55.5 0 
C 57.90625 0.1875 62.296875 0.1875 64.90625 0.1875 
C 67.5 0.1875 72 0.1875 74.40625 0 
L 74.40625 2.59375 
C 68 2.59375 67.59375 3 67.59375 6.921875 
z
" id="CMR17-109"/>
      <path d="M 15.296875 40.390625 
L 26.703125 40.390625 
L 26.703125 43 
L 15.09375 43 
L 15.09375 55.296875 
C 15.09375 63.6875 19.296875 68.390625 23.59375 68.390625 
C 24.90625 68.390625 26.40625 68.171875 27.40625 67.796875 
C 26.59375 67.59375 24.5 66.890625 24.5 64.390625 
C 24.5 61.796875 26.5 61 27.90625 61 
C 29.296875 61 31.296875 61.796875 31.296875 64.390625 
C 31.296875 68.015625 27.703125 70 23.703125 70 
C 18 70 10.203125 65.796875 10.203125 55.09375 
L 10.203125 43 
L 2.203125 43 
L 2.203125 40.390625 
L 10.203125 40.390625 
L 10.203125 6.890625 
C 10.203125 3.09375 9.796875 2.59375 3.40625 2.59375 
L 3.40625 0 
C 5.796875 0.1875 10.40625 0.1875 13 0.1875 
C 15.90625 0.1875 21 0.1875 23.703125 0 
L 23.703125 2.59375 
C 16.5 2.59375 15.296875 2.59375 15.296875 7.09375 
z
" id="CMR17-102"/>
      <path d="M 16.59375 38.890625 
C 16.59375 41.390625 14.59375 43 12.5 43 
C 10.5 43 8.40625 41.390625 8.40625 38.890625 
C 8.40625 36.390625 10.40625 34.796875 12.5 34.796875 
C 14.5 34.796875 16.59375 36.390625 16.59375 38.890625 
z
M 16.59375 4.09375 
C 16.59375 6.59375 14.59375 8.1875 12.5 8.1875 
C 10.5 8.1875 8.40625 6.59375 8.40625 4.09375 
C 8.40625 1.59375 10.40625 0 12.5 0 
C 14.5 0 16.59375 1.59375 16.59375 4.09375 
z
" id="CMR17-58"/>
      <path d="M 17.203125 71.59375 
C 17.203125 73.1875 17.203125 75 15.203125 75 
C 13.203125 75 13.203125 72.796875 13.203125 71.296875 
L 13.203125 -21.3125 
C 13.203125 -22.90625 13.203125 -25 15.203125 -25 
C 17.203125 -25 17.203125 -23.203125 17.203125 -21.609375 
z
M 36.703125 71.296875 
C 36.703125 72.890625 36.703125 75 34.703125 75 
C 32.703125 75 32.703125 73.1875 32.703125 71.59375 
L 32.703125 -21.609375 
C 32.703125 -23.203125 32.703125 -25 34.703125 -25 
C 36.703125 -25 36.703125 -22.8125 36.703125 -21.3125 
z
" id="CMSY10-107"/>
      <path d="M 47.40625 41 
C 44.203125 40.390625 43 37.984375 43 36.09375 
C 43 33.6875 44.90625 32.890625 46.296875 32.890625 
C 49.296875 32.890625 51.40625 35.484375 51.40625 38.1875 
C 51.40625 42.09375 46.59375 44 42.40625 44 
C 36.296875 44 32.90625 38.296875 32 36.390625 
C 29.703125 43.59375 23.5 44 21.703125 44 
C 11.5 44 6.09375 31.140625 6.09375 28.890625 
C 6.09375 28.484375 6.5 27.96875 7.203125 27.96875 
C 8 27.96875 8.203125 28.578125 8.40625 28.984375 
C 11.796875 40.1875 18.5 41.984375 21.40625 41.984375 
C 25.90625 41.984375 26.796875 38.09375 26.796875 35.6875 
C 26.796875 33.484375 26.203125 31.140625 25 26.21875 
L 21.59375 12.15625 
C 20.09375 6.09375 17.203125 1 11.90625 1 
C 11.40625 1 8.90625 1 6.796875 1.96875 
C 10.40625 2.59375 11.203125 5.59375 11.203125 6.796875 
C 11.203125 8.796875 9.703125 10 7.796875 10 
C 5.40625 10 2.796875 7.890625 2.796875 4.6875 
C 2.796875 0.890625 7.5 -1 11.796875 -1 
C 16.59375 -1 20 2.390625 22.09375 6.484375 
C 23.703125 1 28.703125 -1 32.40625 -1 
C 42.59375 -1 48 11.734375 48 14 
C 48 14.515625 47.59375 14.921875 47 14.921875 
C 46.09375 14.921875 46 14.40625 45.703125 13.59375 
C 43 4.6875 37.203125 1 32.703125 1 
C 29.203125 1 27.296875 3.1875 27.296875 7.296875 
C 27.296875 9.484375 27.703125 11.125 29.296875 17.90625 
L 32.796875 31.859375 
C 34.296875 37.890625 37.703125 41.984375 42.296875 41.984375 
C 42.5 41.984375 45.296875 41.984375 47.40625 41 
z
" id="CMMI12-120"/>
     </defs>
     <g transform="translate(15.225462 182.035642)rotate(-90)scale(0.1 -0.1)">
      <use transform="translate(0 14.943915)scale(0.996264)" xlink:href="#CMMI12-65"/>
      <use transform="translate(73.127885 14.943915)scale(0.996264)" xlink:href="#CMR17-45"/>
      <use transform="translate(103.203852 14.943915)scale(0.996264)" xlink:href="#CMR17-110"/>
      <use transform="translate(154.099221 14.943915)scale(0.996264)" xlink:href="#CMR17-111"/>
      <use transform="translate(199.789699 14.943915)scale(0.996264)" xlink:href="#CMR17-114"/>
      <use transform="translate(235.070466 14.943915)scale(0.996264)" xlink:href="#CMR17-109"/>
      <use transform="translate(342.066023 14.943915)scale(0.996264)" xlink:href="#CMR17-111"/>
      <use transform="translate(387.7565 14.943915)scale(0.996264)" xlink:href="#CMR17-102"/>
      <use transform="translate(445.305978 14.943915)scale(0.996264)" xlink:href="#CMR17-101"/>
      <use transform="translate(485.791639 14.943915)scale(0.996264)" xlink:href="#CMR17-114"/>
      <use transform="translate(521.072407 14.943915)scale(0.996264)" xlink:href="#CMR17-114"/>
      <use transform="translate(556.353174 14.943915)scale(0.996264)" xlink:href="#CMR17-111"/>
      <use transform="translate(602.043652 14.943915)scale(0.996264)" xlink:href="#CMR17-114"/>
      <use transform="translate(637.324419 14.943915)scale(0.996264)" xlink:href="#CMR17-58"/>
      <use transform="translate(702.681138 14.943915)scale(0.996264)" xlink:href="#CMSY10-107"/>
      <use transform="translate(752.494521 14.943915)scale(0.996264)" xlink:href="#CMMI12-120"/>
      <use transform="translate(830.067788 14.943915)scale(0.996264)" xlink:href="#CMSY10-0"/>
      <use transform="translate(929.694462 14.943915)scale(0.996264)" xlink:href="#CMMI12-120"/>
      <use transform="translate(985.128522 0)scale(0.697382)" xlink:href="#CMMI12-107"/>
      <use transform="translate(1023.481904 14.943915)scale(0.996264)" xlink:href="#CMSY10-107"/>
      <use transform="translate(1073.295287 0)scale(0.697382)" xlink:href="#CMMI12-65"/>
     </g>
    </g>
   </g>
   <g id="line2d_29">
    <path clip-path="url(#p778523daa9)" d="M 67.512633 19.982224 
L 67.879778 22.824591 
L 68.614069 30.100378 
L 70.082652 35.272816 
L 70.449797 36.166229 
L 72.65267 39.635611 
L 73.754107 42.525609 
L 76.691271 46.916139 
L 79.628435 49.084489 
L 81.097017 49.742023 
L 85.135618 51.070447 
L 87.338491 51.881976 
L 89.174219 52.40103 
L 100.188584 56.77529 
L 103.492894 57.483202 
L 105.695767 57.738278 
L 114.874405 58.579254 
L 116.710133 59.064263 
L 118.913006 59.677669 
L 121.115879 60.049561 
L 126.255916 60.682904 
L 129.560226 60.940077 
L 139.8403 61.551957 
L 149.018938 62.020297 
L 158.931867 62.578451 
L 162.970468 62.998906 
L 165.907632 63.530909 
L 168.477651 64.128774 
L 171.781961 64.920658 
L 174.351979 65.404521 
L 187.202073 67.568613 
L 194.912128 69.032303 
L 198.950729 69.636065 
L 201.520748 70.11372 
L 204.090766 70.878646 
L 205.926494 71.705139 
L 207.395076 72.695631 
L 209.230804 74.193542 
L 212.167968 77.053765 
L 217.675151 83.21128 
L 219.878024 85.790733 
L 222.448043 88.454382 
L 227.220934 94.092034 
L 228.689516 95.739644 
L 231.993826 99.888706 
L 234.563845 102.90443 
L 239.336736 109.349412 
L 245.211065 116.747805 
L 246.679647 118.494188 
L 251.819684 125.53682 
L 254.756848 130.013581 
L 259.896886 136.303275 
L 262.83405 139.742031 
L 266.138359 143.967391 
L 267.974087 146.20845 
L 274.215561 153.475915 
L 275.684143 154.978919 
L 278.621307 158.440142 
L 283.394199 164.252536 
L 285.229926 166.569201 
L 287.4328 169.492187 
L 288.901382 171.081792 
L 290.002818 172.25275 
L 296.978583 181.340357 
L 299.915747 184.569914 
L 302.485766 187.987664 
L 314.234423 201.893684 
L 315.703005 203.767399 
L 317.171587 205.295685 
L 318.640169 206.572427 
L 319.741605 207.280486 
L 321.210187 207.884164 
L 322.67877 208.232615 
L 324.881643 208.496267 
L 328.920243 208.64151 
L 336.630299 208.681533 
L 371.876269 208.682314 
L 371.876269 208.682314 
" style="fill:none;stroke:#93a1a1;stroke-dasharray:1.5,2.475;stroke-dashoffset:0;stroke-width:1.5;"/>
   </g>
   <g id="line2d_30">
    <path clip-path="url(#p778523daa9)" d="M 67.512633 19.982224 
L 67.879778 22.824591 
L 68.614069 30.100378 
L 70.082652 35.272816 
L 70.449797 36.166229 
L 72.65267 39.635611 
L 73.754107 42.525609 
L 76.691271 46.916139 
L 79.628435 49.084489 
L 81.097017 49.742023 
L 85.135618 51.069659 
L 86.971346 51.742829 
L 90.275655 52.805092 
L 92.845674 53.747401 
L 95.048547 54.648381 
L 99.821439 56.637899 
L 102.391457 57.212888 
L 105.695767 57.710606 
L 115.975842 58.7611 
L 121.483024 60.021134 
L 126.623062 60.654077 
L 131.395953 60.985743 
L 140.574591 61.516709 
L 148.284647 61.922812 
L 158.564722 62.430851 
L 164.43905 62.9172 
L 168.110505 63.519545 
L 170.680524 64.097211 
L 174.351979 64.884756 
L 177.656289 65.426043 
L 189.0378 67.026848 
L 201.887893 69.229902 
L 208.863658 70.270601 
L 210.699386 70.755624 
L 212.167968 71.313763 
L 214.003696 72.215995 
L 216.94086 74.247298 
L 221.713751 78.473339 
L 223.549479 80.256663 
L 225.018061 81.834277 
L 227.220934 84.0382 
L 229.423807 86.207975 
L 231.626681 88.302031 
L 240.438173 97.431767 
L 243.008192 100.203563 
L 245.945356 103.212458 
L 248.148229 105.963838 
L 248.88252 106.650678 
L 252.921121 111.298422 
L 264.302632 123.967023 
L 269.442669 130.56825 
L 274.215561 135.697739 
L 279.355598 140.799553 
L 283.394199 145.278368 
L 284.495635 146.439406 
L 285.964218 147.972589 
L 288.534236 150.626715 
L 291.104255 153.237361 
L 294.041419 155.8334 
L 299.548602 161.696209 
L 301.017184 163.298648 
L 307.625803 170.401643 
L 310.195822 172.831912 
L 312.031549 175.077221 
L 316.437296 180.042452 
L 320.475896 183.927628 
L 328.185952 191.976799 
L 330.388825 194.077504 
L 335.528863 199.385285 
L 337.36459 201.010258 
L 341.036046 204.478587 
L 342.137482 205.203588 
L 343.238919 205.807386 
L 344.707501 206.37907 
L 346.176083 206.701721 
L 348.746102 206.986398 
L 352.784702 207.115163 
L 361.229049 207.167384 
L 371.876269 207.15658 
L 371.876269 207.15658 
" style="fill:none;stroke:#93a1a1;stroke-linecap:square;stroke-width:1.5;"/>
    <defs>
     <path d="M 0 3 
C 0.795609 3 1.55874 2.683901 2.12132 2.12132 
C 2.683901 1.55874 3 0.795609 3 0 
C 3 -0.795609 2.683901 -1.55874 2.12132 -2.12132 
C 1.55874 -2.683901 0.795609 -3 0 -3 
C -0.795609 -3 -1.55874 -2.683901 -2.12132 -2.12132 
C -2.683901 -1.55874 -3 -0.795609 -3 0 
C -3 0.795609 -2.683901 1.55874 -2.12132 2.12132 
C -1.55874 2.683901 -0.795609 3 0 3 
z
" id="mdf0ed741e1" style="stroke:#93a1a1;"/>
    </defs>
    <g clip-path="url(#p778523daa9)">
     <use style="fill:#93a1a1;stroke:#93a1a1;" x="67.512633" xlink:href="#mdf0ed741e1" y="19.982224"/>
     <use style="fill:#93a1a1;stroke:#93a1a1;" x="128.458789" xlink:href="#mdf0ed741e1" y="60.824694"/>
     <use style="fill:#93a1a1;stroke:#93a1a1;" x="189.404946" xlink:href="#mdf0ed741e1" y="67.092789"/>
     <use style="fill:#93a1a1;stroke:#93a1a1;" x="250.351102" xlink:href="#mdf0ed741e1" y="108.466516"/>
     <use style="fill:#93a1a1;stroke:#93a1a1;" x="311.297258" xlink:href="#mdf0ed741e1" y="174.189942"/>
    </g>
   </g>
   <g id="line2d_31">
    <path clip-path="url(#p778523daa9)" d="M 67.512633 19.982224 
L 67.879778 22.824591 
L 68.614069 30.100378 
L 70.082652 35.272816 
L 70.449797 36.166229 
L 72.65267 39.635611 
L 73.754107 42.525609 
L 76.691271 46.916139 
L 79.628435 49.084489 
L 81.097017 49.742023 
L 85.135618 51.067293 
L 87.338491 51.847831 
L 89.541364 52.48231 
L 91.744237 53.366966 
L 93.94711 54.188897 
L 100.55573 56.831588 
L 104.227185 57.544252 
L 106.797204 57.798442 
L 113.772968 58.381407 
L 115.975842 58.74458 
L 117.811569 59.247752 
L 120.014442 59.790996 
L 125.521625 60.541119 
L 129.927371 60.916805 
L 162.970468 62.75538 
L 165.907632 63.13772 
L 171.414815 64.260936 
L 175.08627 65.03774 
L 177.656289 65.432779 
L 191.607819 67.51545 
L 205.559349 69.688976 
L 208.129367 70.101229 
L 211.066531 70.866318 
L 212.902259 71.595644 
L 214.737987 72.666609 
L 217.308005 74.573588 
L 219.510878 76.513068 
L 220.612315 77.426944 
L 223.916625 80.679896 
L 225.018061 81.829355 
L 226.119498 82.937197 
L 240.071027 97.025636 
L 241.53961 98.707416 
L 243.375337 100.55813 
L 244.843919 102.004713 
L 250.351102 108.406221 
L 255.858285 114.629808 
L 258.428304 117.308368 
L 259.52974 118.524965 
L 261.365468 120.655146 
L 263.201195 122.682201 
L 265.036923 124.93559 
L 266.505505 126.838367 
L 267.974087 128.819241 
L 269.075524 130.133638 
L 274.582706 136.033927 
L 277.519871 138.766232 
L 280.82418 142.432666 
L 281.925617 143.668915 
L 285.964218 147.925078 
L 290.737109 152.835644 
L 292.572837 154.339229 
L 293.674273 155.409111 
L 295.510001 157.246923 
L 301.751475 163.989054 
L 303.220057 165.659487 
L 307.992949 170.78411 
L 310.562967 173.315623 
L 314.968714 178.398044 
L 317.171587 180.759578 
L 318.273023 181.851383 
L 319.37446 182.734904 
L 321.210187 184.508973 
L 323.413061 187.037116 
L 324.881643 188.58131 
L 331.490262 195.205734 
L 334.060281 197.848808 
L 336.263154 199.845787 
L 337.731736 201.390869 
L 339.567463 203.272113 
L 340.6689 204.115306 
L 341.770337 204.913479 
L 343.606064 205.825435 
L 345.074646 206.292406 
L 346.910374 206.617389 
L 349.113247 206.805373 
L 357.92474 206.951965 
L 371.876269 206.952948 
L 371.876269 206.952948 
" style="fill:none;stroke:#93a1a1;stroke-linecap:square;stroke-width:1.5;"/>
    <defs>
     <path d="M 0 -3 
L -3 3 
L 3 3 
z
" id="m13486df01b" style="stroke:#93a1a1;stroke-linejoin:miter;"/>
    </defs>
    <g clip-path="url(#p778523daa9)">
     <use style="fill:#93a1a1;stroke:#93a1a1;stroke-linejoin:miter;" x="82.565599" xlink:href="#m13486df01b" y="50.166714"/>
     <use style="fill:#93a1a1;stroke:#93a1a1;stroke-linejoin:miter;" x="143.511756" xlink:href="#m13486df01b" y="61.682416"/>
     <use style="fill:#93a1a1;stroke:#93a1a1;stroke-linejoin:miter;" x="204.457912" xlink:href="#m13486df01b" y="69.569781"/>
     <use style="fill:#93a1a1;stroke:#93a1a1;stroke-linejoin:miter;" x="265.404068" xlink:href="#m13486df01b" y="125.380227"/>
     <use style="fill:#93a1a1;stroke:#93a1a1;stroke-linejoin:miter;" x="326.350225" xlink:href="#m13486df01b" y="190.01338"/>
    </g>
   </g>
   <g id="line2d_32">
    <path clip-path="url(#p778523daa9)" d="M 67.512633 19.982224 
L 67.879778 22.824591 
L 68.614069 30.100378 
L 70.082652 35.272816 
L 70.449797 36.166229 
L 72.65267 39.635611 
L 73.754107 42.525609 
L 76.691271 46.916139 
L 79.628435 49.084489 
L 81.097017 49.742023 
L 85.135618 51.068473 
L 87.338491 51.847892 
L 89.541364 52.48231 
L 91.744237 53.366966 
L 93.94711 54.188897 
L 100.55573 56.831267 
L 104.227185 57.544252 
L 106.797204 57.798442 
L 113.772968 58.381343 
L 115.975842 58.722693 
L 121.115879 59.961333 
L 124.787334 60.444198 
L 129.19308 60.871492 
L 157.09614 62.343283 
L 161.501886 62.619671 
L 165.540487 63.053002 
L 169.946233 63.846629 
L 174.719125 64.90964 
L 177.289144 65.355299 
L 190.506382 67.263581 
L 197.849293 68.540957 
L 203.723621 69.413757 
L 208.129367 70.062063 
L 211.066531 70.772618 
L 213.63655 71.787416 
L 214.737987 72.430875 
L 218.042296 74.944174 
L 220.97946 77.537483 
L 222.448043 78.950272 
L 224.28377 80.620406 
L 230.158098 86.533227 
L 231.259535 87.461782 
L 237.868154 94.147077 
L 240.438173 96.849216 
L 242.273901 98.917574 
L 244.476774 101.191533 
L 246.312501 103.182674 
L 248.148229 105.248984 
L 254.389703 112.364339 
L 255.491139 113.572861 
L 258.428304 116.746115 
L 259.52974 117.723974 
L 262.466904 121.100473 
L 264.669777 123.726571 
L 266.505505 125.920377 
L 269.075524 129.452772 
L 276.051288 136.644251 
L 277.152725 137.83381 
L 284.495635 145.685232 
L 285.964218 147.197352 
L 287.4328 148.73571 
L 291.838546 153.096346 
L 294.041419 154.950459 
L 306.524367 167.892451 
L 307.992949 169.569577 
L 312.031549 173.54523 
L 312.765841 174.422808 
L 314.234423 175.983001 
L 315.703005 177.694936 
L 317.538732 179.705138 
L 321.210187 183.084419 
L 322.311624 184.079348 
L 324.147352 186.256439 
L 325.248788 187.448095 
L 325.983079 188.108036 
L 327.084516 189.214765 
L 329.654534 191.796991 
L 331.123117 193.127463 
L 332.591699 194.493447 
L 336.263154 198.176904 
L 338.466027 200.153268 
L 342.504628 204.083269 
L 345.808937 206.111993 
L 347.277519 206.626087 
L 349.847538 207.071977 
L 352.784702 207.279056 
L 359.393322 207.400708 
L 371.509124 207.405596 
L 371.876269 207.404689 
L 371.876269 207.404689 
" style="fill:none;stroke:#93a1a1;stroke-linecap:square;stroke-width:1.5;"/>
    <defs>
     <path d="M -0 3 
L 3 -3 
L -3 -3 
z
" id="m329e7547e2" style="stroke:#93a1a1;stroke-linejoin:miter;"/>
    </defs>
    <g clip-path="url(#p778523daa9)">
     <use style="fill:#93a1a1;stroke:#93a1a1;stroke-linejoin:miter;" x="97.985711" xlink:href="#m329e7547e2" y="55.968972"/>
     <use style="fill:#93a1a1;stroke:#93a1a1;stroke-linejoin:miter;" x="158.931867" xlink:href="#m329e7547e2" y="62.43441"/>
     <use style="fill:#93a1a1;stroke:#93a1a1;stroke-linejoin:miter;" x="219.878024" xlink:href="#m329e7547e2" y="76.510831"/>
     <use style="fill:#93a1a1;stroke:#93a1a1;stroke-linejoin:miter;" x="280.82418" xlink:href="#m329e7547e2" y="141.684552"/>
     <use style="fill:#93a1a1;stroke:#93a1a1;stroke-linejoin:miter;" x="341.770337" xlink:href="#m329e7547e2" y="203.536258"/>
    </g>
   </g>
   <g id="line2d_33">
    <path clip-path="url(#p778523daa9)" d="M 67.512633 19.982224 
L 67.879778 22.824591 
L 68.614069 30.100378 
L 70.082652 35.272816 
L 70.449797 36.166229 
L 72.65267 39.635611 
L 73.754107 42.525609 
L 76.691271 46.916139 
L 79.628435 49.084489 
L 81.097017 49.742023 
L 85.135618 51.070258 
L 86.971346 51.746661 
L 89.90851 52.6432 
L 91.744237 53.366966 
L 93.94711 54.188897 
L 100.55573 56.83151 
L 104.227185 57.544252 
L 106.797204 57.798442 
L 114.140114 58.417631 
L 115.608696 58.630962 
L 121.85017 60.067704 
L 127.724498 60.753053 
L 131.395953 60.975066 
L 161.501886 62.615705 
L 164.806196 62.929475 
L 168.477651 63.519051 
L 171.781961 64.261791 
L 175.820561 65.100388 
L 180.226308 65.744477 
L 183.897763 66.254924 
L 191.607819 67.455659 
L 195.279274 68.104313 
L 205.926494 69.671057 
L 208.496513 70.060544 
L 211.433677 70.826845 
L 213.63655 71.700873 
L 215.472278 72.834134 
L 219.878024 76.198548 
L 220.97946 77.259478 
L 222.815188 79.081533 
L 226.853789 82.991959 
L 229.423807 85.695989 
L 231.993826 87.873996 
L 234.93099 90.999558 
L 237.868154 94.009736 
L 240.071027 96.288622 
L 242.641046 98.939297 
L 247.413938 103.980277 
L 249.616811 106.552655 
L 257.694012 115.482946 
L 260.631177 118.525823 
L 266.138359 124.986907 
L 268.341233 127.947378 
L 269.809815 129.749426 
L 271.278397 131.309452 
L 274.215561 134.442545 
L 275.684143 135.887168 
L 281.925617 142.291116 
L 283.027053 143.300507 
L 284.12849 144.294813 
L 286.698509 146.258262 
L 288.167091 147.16912 
L 290.737109 148.399386 
L 291.838546 148.675877 
L 294.041419 148.917258 
L 299.548602 149.08667 
L 305.055785 149.07644 
L 313.500132 148.995976 
L 324.514497 148.832653 
L 327.451661 148.560159 
L 328.920243 148.180533 
L 329.654534 147.786149 
L 330.388825 147.096554 
L 330.755971 146.552374 
L 331.123117 145.735528 
L 331.490262 144.357139 
L 331.857408 141.596283 
L 332.224553 121.727582 
L 332.591699 144.419058 
L 332.958844 150.660612 
L 333.32599 153.433518 
L 333.693135 153.505824 
L 334.427426 152.619094 
L 335.161717 152.010619 
L 335.896008 151.677947 
L 337.36459 151.321558 
L 339.567463 151.030521 
L 342.871773 150.838172 
L 352.050411 150.385239 
L 356.823303 149.897331 
L 360.127613 149.595799 
L 364.533359 149.293889 
L 370.407687 148.966347 
L 371.876269 148.646054 
L 371.876269 148.646054 
" style="fill:none;stroke:#93a1a1;stroke-linecap:square;stroke-width:1.5;"/>
    <defs>
     <path d="M -3 3 
L 3 3 
L 3 -3 
L -3 -3 
z
" id="ma6c36bcff3" style="stroke:#93a1a1;stroke-linejoin:miter;"/>
    </defs>
    <g clip-path="url(#p778523daa9)">
     <use style="fill:#93a1a1;stroke:#93a1a1;stroke-linejoin:miter;" x="113.038677" xlink:href="#ma6c36bcff3" y="58.305303"/>
     <use style="fill:#93a1a1;stroke:#93a1a1;stroke-linejoin:miter;" x="173.984834" xlink:href="#ma6c36bcff3" y="64.738785"/>
     <use style="fill:#93a1a1;stroke:#93a1a1;stroke-linejoin:miter;" x="234.93099" xlink:href="#ma6c36bcff3" y="90.999558"/>
     <use style="fill:#93a1a1;stroke:#93a1a1;stroke-linejoin:miter;" x="295.877147" xlink:href="#ma6c36bcff3" y="148.982704"/>
     <use style="fill:#93a1a1;stroke:#93a1a1;stroke-linejoin:miter;" x="356.823303" xlink:href="#ma6c36bcff3" y="149.897331"/>
    </g>
   </g>
   <g id="line2d_34">
    <path clip-path="url(#p778523daa9)" d="M 67.512633 19.982224 
L 67.879778 22.824591 
L 68.614069 30.100378 
L 70.082652 35.272816 
L 70.449797 36.166229 
L 72.65267 39.635611 
L 73.754107 42.525609 
L 76.691271 46.916139 
L 79.628435 49.084489 
L 81.097017 49.742023 
L 85.502763 51.184057 
L 87.338491 51.847739 
L 89.541364 52.48231 
L 91.744237 53.366966 
L 93.94711 54.188897 
L 100.55573 56.828778 
L 104.961476 57.635672 
L 109.367222 57.97641 
L 113.772968 58.377937 
L 115.608696 58.63035 
L 121.85017 60.063456 
L 126.990207 60.684939 
L 131.028808 60.963355 
L 138.738864 61.394064 
L 146.081774 61.819542 
L 163.704759 62.811096 
L 166.641923 63.246758 
L 169.579088 63.757917 
L 176.187707 65.187233 
L 180.593453 65.784505 
L 189.772091 67.114479 
L 197.482147 68.482783 
L 204.457912 69.50665 
L 209.230804 70.246699 
L 211.800822 70.967111 
L 213.63655 71.761848 
L 214.370841 72.164699 
L 219.143733 75.655796 
L 221.346606 77.673668 
L 222.815188 79.095305 
L 227.58808 83.874664 
L 229.056662 85.453495 
L 232.728117 88.744504 
L 243.375337 99.852238 
L 246.312501 102.855686 
L 251.819684 109.425688 
L 260.631177 118.746953 
L 266.87265 126.074857 
L 268.341233 128.154126 
L 269.442669 129.582911 
L 272.012688 132.458309 
L 273.114124 133.53989 
L 274.949852 135.483835 
L 276.418434 136.835583 
L 278.254162 138.67398 
L 287.065654 148.134563 
L 288.901382 149.970652 
L 291.838546 152.848825 
L 294.041419 154.669895 
L 300.650038 161.452099 
L 303.954348 164.849032 
L 305.42293 166.379322 
L 307.992949 169.267403 
L 309.828676 171.007033 
L 311.664404 172.579198 
L 312.765841 173.895475 
L 313.867277 175.210375 
L 319.37446 181.127941 
L 320.475896 182.123942 
L 323.413061 184.833306 
L 325.615934 187.335511 
L 327.818807 189.582271 
L 328.920243 190.581709 
L 332.958844 194.536853 
L 334.427426 195.933435 
L 338.098881 199.406748 
L 339.200318 200.385387 
L 342.871773 203.859328 
L 344.340355 204.95166 
L 346.543228 206.086474 
L 348.01181 206.548537 
L 349.847538 206.891675 
L 352.784702 207.112712 
L 357.190448 207.216416 
L 367.470523 207.263619 
L 371.876269 207.258185 
L 371.876269 207.258185 
" style="fill:none;stroke:#073642;stroke-dasharray:1.5,2.475;stroke-dashoffset:0;stroke-width:1.5;"/>
   </g>
   <g id="line2d_35">
    <path clip-path="url(#p778523daa9)" d="M 67.512633 19.982224 
L 67.879778 22.824591 
L 68.614069 30.100378 
L 70.082652 35.272816 
L 70.449797 36.166229 
L 72.65267 39.635611 
L 73.754107 42.525609 
L 76.691271 46.916139 
L 79.628435 49.084489 
L 81.097017 49.742023 
L 85.502763 51.194068 
L 87.338491 51.847748 
L 89.541364 52.48231 
L 91.744237 53.366966 
L 93.94711 54.188897 
L 100.188584 56.688752 
L 102.758603 57.277644 
L 104.961476 57.635672 
L 109.367222 57.972863 
L 112.671532 58.262776 
L 115.241551 58.544627 
L 117.077278 58.998162 
L 119.280151 59.616343 
L 121.483024 59.973814 
L 126.255916 60.583 
L 130.661662 60.937643 
L 144.613192 61.724231 
L 165.540487 62.956335 
L 168.477651 63.443033 
L 172.149106 64.210766 
L 175.820561 64.996782 
L 178.39058 65.420667 
L 190.873528 67.148408 
L 200.052166 68.770872 
L 209.965095 70.19654 
L 213.269405 71.150402 
L 214.737987 71.804118 
L 217.308005 73.437939 
L 218.776587 74.451806 
L 225.018061 80.145439 
L 226.119498 81.284921 
L 227.58808 82.5877 
L 230.525244 85.652774 
L 233.462408 88.267646 
L 241.906755 96.726136 
L 243.008192 97.865735 
L 248.88252 103.963726 
L 250.718248 106.060418 
L 252.921121 108.522936 
L 254.756848 110.617995 
L 257.326867 113.312487 
L 265.036923 121.598344 
L 269.809815 127.49335 
L 271.278397 129.419262 
L 273.48127 131.776245 
L 274.949852 133.169997 
L 276.051288 134.444366 
L 278.254162 136.586195 
L 281.191326 139.370745 
L 285.597072 143.935948 
L 287.065654 145.258561 
L 288.534236 146.485328 
L 291.104255 148.416164 
L 293.307128 149.732312 
L 294.408564 150.14286 
L 295.877147 150.494208 
L 298.08002 150.840187 
L 301.751475 151.083639 
L 308.72724 151.142851 
L 320.475896 151.105489 
L 338.466027 151.099764 
L 338.466027 151.099764 
" style="fill:none;stroke:#6c71c4;stroke-linecap:square;stroke-width:1.5;"/>
   </g>
   <g id="line2d_36">
    <path clip-path="url(#p778523daa9)" d="M 67.512633 19.982224 
L 67.879778 22.824591 
L 68.614069 30.100378 
L 70.082652 35.272816 
L 70.449797 36.166229 
L 72.65267 39.635611 
L 73.754107 42.525609 
L 76.691271 46.916139 
L 79.628435 49.084489 
L 81.097017 49.742023 
L 85.502763 51.178623 
L 87.338491 51.847736 
L 89.541364 52.48231 
L 91.744237 53.366966 
L 93.94711 54.188897 
L 100.188584 56.688493 
L 102.758603 57.277644 
L 104.961476 57.635672 
L 109.367222 57.970188 
L 113.038677 58.287102 
L 115.241551 58.544593 
L 117.077278 58.994415 
L 119.647297 59.672837 
L 123.318752 60.230549 
L 128.458789 60.797668 
L 132.49739 61.013985 
L 139.473155 61.417752 
L 151.221812 62.023623 
L 162.236177 62.620112 
L 166.274778 63.045848 
L 170.313379 63.758925 
L 176.187707 65.05624 
L 180.960599 65.736395 
L 192.709255 67.490547 
L 198.583584 68.487277 
L 203.356475 69.217959 
L 209.597949 70.093018 
L 212.902259 70.932005 
L 214.737987 71.669107 
L 216.206569 72.530203 
L 218.776587 74.390643 
L 220.245169 75.538296 
L 221.346606 76.438444 
L 225.018061 79.917088 
L 232.728117 87.270952 
L 233.829554 88.275607 
L 237.501009 92.008266 
L 239.703882 94.1293 
L 242.273901 96.74764 
L 244.476774 99.181434 
L 245.57821 100.182324 
L 247.046792 101.600985 
L 252.18683 107.384407 
L 256.959721 112.708515 
L 258.428304 114.217232 
L 260.998322 116.913507 
L 262.83405 118.829999 
L 264.669777 120.791604 
L 266.505505 122.944023 
L 272.746979 130.524962 
L 274.582706 132.38726 
L 276.418434 134.424238 
L 278.621307 136.46999 
L 281.558471 139.241377 
L 286.698509 144.467442 
L 291.104255 147.940995 
L 293.307128 149.391187 
L 295.510001 150.213508 
L 298.08002 150.69069 
L 299.915747 150.900648 
L 303.220057 151.071125 
L 312.765841 151.115302 
L 371.876269 151.063073 
L 371.876269 151.063073 
" style="fill:none;stroke:#2aa198;stroke-linecap:square;stroke-width:1.5;"/>
   </g>
   <g id="line2d_37">
    <path clip-path="url(#p778523daa9)" d="M 67.512633 19.982224 
L 67.879778 22.824591 
L 68.614069 30.100378 
L 70.082652 35.272816 
L 70.449797 36.166229 
L 72.65267 39.635611 
L 73.754107 42.525609 
L 76.691271 46.916139 
L 79.628435 49.084489 
L 81.097017 49.742023 
L 85.502763 51.213765 
L 87.338491 51.847826 
L 89.541364 52.48231 
L 91.744237 53.366966 
L 93.94711 54.188897 
L 100.55573 56.83166 
L 104.227185 57.544252 
L 106.797204 57.798442 
L 113.772968 58.381356 
L 115.975842 58.72108 
L 121.85017 60.067574 
L 127.357353 60.716432 
L 131.028808 60.957493 
L 140.941737 61.540393 
L 149.018938 61.950855 
L 161.134741 62.587379 
L 164.806196 62.936366 
L 168.110505 63.462081 
L 171.414815 64.195882 
L 173.984834 64.7454 
L 177.656289 65.400645 
L 186.834927 66.649276 
L 189.404946 67.038252 
L 197.482147 68.471423 
L 203.723621 69.40178 
L 207.395076 69.877032 
L 209.965095 70.424852 
L 212.167968 71.10108 
L 214.370841 72.150265 
L 217.675151 74.395064 
L 221.346606 77.659332 
L 227.220934 83.438402 
L 234.93099 91.055369 
L 238.2353 94.397577 
L 240.438173 96.562227 
L 241.906755 98.248213 
L 243.375337 99.848019 
L 245.945356 102.399589 
L 249.983957 107.066419 
L 250.718248 107.878824 
L 252.18683 109.570629 
L 255.123994 112.785659 
L 258.428304 116.418295 
L 261.732613 119.826838 
L 264.669777 123.286936 
L 269.809815 129.903097 
L 273.48127 133.689112 
L 274.582706 134.998145 
L 281.925617 142.505854 
L 284.12849 144.92446 
L 285.964218 146.833218 
L 288.167091 148.989318 
L 290.002818 150.987534 
L 291.104255 152.124867 
L 296.611438 157.029823 
L 301.017184 161.770116 
L 306.891512 167.919739 
L 307.992949 169.157756 
L 309.094385 170.19185 
L 312.031549 172.837474 
L 313.500132 174.692496 
L 314.968714 176.30801 
L 316.437296 177.907476 
L 319.007314 180.612686 
L 320.843042 182.298974 
L 321.944479 183.222624 
L 323.780206 185.106363 
L 327.451661 189.137764 
L 334.794572 196.03519 
L 336.997445 198.202778 
L 342.137482 202.499622 
L 345.808937 204.306683 
L 348.746102 204.925132 
L 352.417557 205.175164 
L 358.291885 205.237394 
L 371.876269 205.251283 
L 371.876269 205.251283 
" style="fill:none;stroke:#859900;stroke-dasharray:1.5,2.475;stroke-dashoffset:0;stroke-width:1.5;"/>
   </g>
   <g id="line2d_38">
    <path clip-path="url(#p778523daa9)" d="M 67.512633 19.982224 
L 67.879778 22.824591 
L 68.614069 30.100378 
L 70.082652 35.272816 
L 70.449797 36.166229 
L 72.65267 39.635611 
L 73.754107 42.525609 
L 76.691271 46.916139 
L 79.628435 49.084489 
L 81.097017 49.742023 
L 85.502763 51.189707 
L 87.338491 51.847743 
L 89.541364 52.48231 
L 91.744237 53.366966 
L 93.94711 54.188897 
L 100.55573 56.82386 
L 105.695767 57.710606 
L 116.342987 58.813254 
L 121.115879 59.957961 
L 126.623062 60.632859 
L 132.130245 61.010858 
L 138.738864 61.391725 
L 149.753229 61.981785 
L 159.299013 62.457457 
L 165.540487 63.004034 
L 169.946233 63.812237 
L 176.554852 65.205256 
L 185.73349 66.497042 
L 192.34211 67.562956 
L 197.482147 68.457395 
L 204.825058 69.508903 
L 208.129367 69.992626 
L 211.433677 70.764882 
L 213.269405 71.415831 
L 214.370841 72.000475 
L 216.94086 73.726462 
L 220.97946 77.259331 
L 222.080897 78.314583 
L 225.385207 81.432218 
L 230.892389 86.882574 
L 233.095263 88.934813 
L 234.563845 90.381549 
L 236.032427 91.888879 
L 238.602445 94.507937 
L 240.071027 95.952009 
L 244.476774 100.74915 
L 246.679647 102.916471 
L 247.781083 104.189652 
L 252.921121 110.261621 
L 255.123994 112.628964 
L 258.795449 116.511391 
L 260.264031 118.02472 
L 263.201195 121.381364 
L 270.911251 130.821596 
L 273.114124 133.176536 
L 274.215561 134.526838 
L 276.051288 136.285268 
L 279.355598 139.48164 
L 281.925617 142.401285 
L 283.394199 143.996415 
L 284.495635 145.245515 
L 286.331363 147.012883 
L 288.167091 148.924752 
L 288.901382 149.651877 
L 290.002818 150.805078 
L 291.838546 152.67598 
L 295.877147 156.209128 
L 302.11862 162.579598 
L 304.688639 165.211849 
L 307.258658 167.933351 
L 309.094385 169.948774 
L 310.195822 170.973032 
L 312.031549 172.58106 
L 313.500132 174.367499 
L 314.968714 176.011525 
L 316.437296 177.70815 
L 318.273023 179.57192 
L 321.944479 183.06897 
L 323.780206 184.761693 
L 324.881643 186.120323 
L 325.983079 187.358908 
L 327.451661 188.724528 
L 328.920243 190.113541 
L 331.857408 192.956807 
L 333.32599 194.257722 
L 338.466027 199.033134 
L 343.238919 202.77717 
L 345.441792 203.786232 
L 346.543228 204.145503 
L 348.746102 204.588479 
L 351.683266 204.832203 
L 357.557594 204.916082 
L 371.876269 204.935692 
L 371.876269 204.935692 
" style="fill:none;stroke:#073642;stroke-linecap:square;stroke-width:1.5;"/>
   </g>
   <g id="patch_3">
    <path d="M 52.294451 232.46 
L 52.294451 10.7 
" style="fill:none;stroke:#000000;stroke-linecap:square;stroke-linejoin:miter;stroke-width:0.8;"/>
   </g>
   <g id="patch_4">
    <path d="M 387.094451 232.46 
L 387.094451 10.7 
" style="fill:none;stroke:#000000;stroke-linecap:square;stroke-linejoin:miter;stroke-width:0.8;"/>
   </g>
   <g id="patch_5">
    <path d="M 52.294451 232.46 
L 387.094451 232.46 
" style="fill:none;stroke:#000000;stroke-linecap:square;stroke-linejoin:miter;stroke-width:0.8;"/>
   </g>
   <g id="patch_6">
    <path d="M 52.294451 10.7 
L 387.094451 10.7 
" style="fill:none;stroke:#000000;stroke-linecap:square;stroke-linejoin:miter;stroke-width:0.8;"/>
   </g>
   <g id="legend_1">
    <g id="patch_7">
     <path d="M 394.094451 158.071783 
L 485.150183 158.071783 
Q 487.150183 158.071783 487.150183 156.071783 
L 487.150183 17.7 
Q 487.150183 15.7 485.150183 15.7 
L 394.094451 15.7 
Q 392.094451 15.7 392.094451 17.7 
L 392.094451 156.071783 
Q 392.094451 158.071783 394.094451 158.071783 
z
" style="fill:#ffffff;opacity:0.8;stroke:#cccccc;stroke-linejoin:miter;"/>
    </g>
    <g id="line2d_39">
     <path d="M 396.094451 23.2 
L 416.094451 23.2 
" style="fill:none;stroke:#073642;stroke-linecap:square;stroke-width:1.5;"/>
    </g>
    <g id="line2d_40"/>
    <g id="text_17">
     <!-- \textsc{{PPR-CG}} -->
     <defs>
      <path d="M 43 31.390625 
C 55.203125 31.390625 66.90625 39.171875 66.90625 49.4375 
C 66.90625 59.3125 56.296875 68 42.203125 68 
L 5.703125 68 
L 5.703125 64.890625 
L 8.09375 64.890625 
C 15.796875 64.890625 16 63.796875 16 60.203125 
L 16 7.765625 
C 16 4.1875 15.796875 3.09375 8.09375 3.09375 
L 5.703125 3.09375 
L 5.703125 0 
C 9.203125 0.296875 16.59375 0.296875 20.40625 0.296875 
C 24.203125 0.296875 31.703125 0.296875 35.203125 0 
L 35.203125 3.09375 
L 32.796875 3.09375 
C 25.09375 3.09375 24.90625 4.1875 24.90625 7.765625 
L 24.90625 31.390625 
z
M 24.59375 60.90625 
C 24.59375 64.1875 24.796875 64.890625 29.5 64.890625 
L 39.59375 64.890625 
C 56.59375 64.890625 56.59375 53.921875 56.59375 49.4375 
C 56.59375 45.15625 56.59375 34 39.59375 34 
L 24.59375 34 
z
" id="CMCSC10-80"/>
      <path d="M 24.59375 35.1875 
L 24.59375 60.921875 
C 24.59375 63.609375 24.796875 64.5 27.203125 64.796875 
C 28.09375 64.890625 31.203125 64.890625 33.203125 64.890625 
C 41.90625 64.890625 55.09375 64.890625 55.09375 50.09375 
C 55.09375 39.46875 48 35.1875 36.703125 35.1875 
z
M 47 33.890625 
C 59 36.78125 65.40625 43.34375 65.40625 50.09375 
C 65.40625 59.734375 53.203125 68 38.09375 68 
L 5.703125 68 
L 5.703125 64.890625 
L 8.09375 64.890625 
C 15.796875 64.890625 16 63.796875 16 60.21875 
L 16 7.921875 
C 16 4.359375 15.796875 3.265625 8.09375 3.265625 
L 5.703125 3.265625 
L 5.703125 0.1875 
C 9.296875 0.484375 16.40625 0.484375 20.296875 0.484375 
C 24.203125 0.484375 31.296875 0.484375 34.90625 0.1875 
L 34.90625 3.265625 
L 32.5 3.265625 
C 24.796875 3.265625 24.59375 4.359375 24.59375 7.921875 
L 24.59375 33 
L 37.09375 33 
C 42.5 33 45.703125 31.015625 47.40625 29.421875 
C 51.203125 25.75 51.203125 23.28125 51.203125 16.34375 
C 51.203125 9.5 51.203125 5.9375 55.5 2.078125 
C 59.203125 -1.109375 64.796875 -2 68.296875 -2 
C 76.296875 -2 78.203125 6.140625 78.203125 8.90625 
C 78.203125 9.5 78.203125 10.59375 76.90625 10.59375 
C 75.796875 10.59375 75.796875 9.703125 75.703125 9.015625 
C 74.90625 1.28125 70.796875 0.1875 68.703125 0.1875 
C 63.40625 0.1875 62.703125 4.65625 60.90625 16.140625 
C 59.796875 23.078125 59.40625 25.5625 56.203125 28.734375 
C 54.09375 30.90625 50.90625 32.796875 47 33.890625 
z
" id="CMCSC10-82"/>
      <path d="M 30.5 19 
L 30.5 24.796875 
L 2.59375 24.796875 
L 2.59375 19 
z
" id="CMCSC10-45"/>
      <path d="M 63.40625 62.0625 
C 60.09375 65.484375 54 71 43.703125 71 
C 24 71 7.203125 54.9375 7.203125 34.546875 
C 7.203125 14.046875 24 -2 43.796875 -2 
C 60.703125 -2 71.296875 11.640625 71.296875 23.59375 
C 71.296875 24.59375 71.296875 25.296875 70 25.296875 
C 68.90625 25.296875 68.90625 24.703125 68.796875 23.6875 
C 68 9.125 56.296875 1.09375 45.09375 1.09375 
C 36.296875 1.09375 17.5 6.3125 17.5 34.4375 
C 17.5 64.078125 38 67.890625 44.90625 67.890625 
C 55.59375 67.890625 65.796875 59.546875 68.09375 44.078125 
C 68.296875 42.671875 68.40625 42.375 69.703125 42.375 
C 71.296875 42.375 71.296875 42.671875 71.296875 44.78125 
L 71.296875 68.59375 
C 71.296875 70.296875 71.296875 71 70.203125 71 
C 69.796875 71 69.40625 71 68.59375 69.796875 
z
" id="CMCSC10-67"/>
      <path d="M 71.203125 68.59375 
C 71.203125 70.296875 71.203125 71 70.09375 71 
C 69.703125 71 69.296875 71 68.5 69.796875 
L 63.296875 62.125 
C 60.203125 65.109375 54.296875 71 43.703125 71 
C 23.796875 71 7.203125 54.859375 7.203125 34.859375 
C 7.203125 14.578125 23.59375 -2 43.90625 -2 
C 51.796875 -2 60.40625 0.59375 63.90625 6.609375 
C 65.203125 4.359375 69.203125 0.296875 70.296875 0.296875 
C 71.203125 0.296875 71.203125 1.09375 71.203125 2.625 
L 71.203125 20.390625 
C 71.203125 24.890625 72.296875 24.890625 78.5 24.890625 
L 78.5 28 
C 73.703125 27.796875 70.09375 27.6875 65.796875 27.6875 
C 61.703125 27.6875 52.796875 27.6875 49.203125 28 
L 49.203125 24.890625 
L 52.703125 24.890625 
C 62.296875 24.890625 62.296875 23.46875 62.296875 19.984375 
L 62.296875 13.453125 
C 62.296875 1.09375 46.796875 1.09375 45.59375 1.09375 
C 36.5 1.09375 17.5 6.40625 17.5 34.859375 
C 17.5 63.015625 36.703125 67.890625 44.90625 67.890625 
C 55.5 67.890625 65.703125 59.734375 68 44.3125 
C 68.203125 42.921875 68.296875 42.625 69.59375 42.625 
C 71.203125 42.625 71.203125 42.921875 71.203125 45 
z
" id="CMCSC10-71"/>
     </defs>
     <g transform="translate(424.094451 26.7)scale(0.1 -0.1)">
      <use transform="scale(0.996264)" xlink:href="#CMCSC10-80"/>
      <use transform="translate(73.888826 0)scale(0.996264)" xlink:href="#CMCSC10-80"/>
      <use transform="translate(147.777651 0)scale(0.996264)" xlink:href="#CMCSC10-82"/>
      <use transform="translate(227.478027 0)scale(0.996264)" xlink:href="#CMCSC10-45"/>
      <use transform="translate(265.114311 0)scale(0.996264)" xlink:href="#CMCSC10-67"/>
      <use transform="translate(343.431036 0)scale(0.996264)" xlink:href="#CMCSC10-71"/>
     </g>
    </g>
    <g id="line2d_41">
     <path d="M 396.094451 37.137178 
L 416.094451 37.137178 
" style="fill:none;stroke:#859900;stroke-dasharray:1.5,2.475;stroke-dashoffset:0;stroke-width:1.5;"/>
    </g>
    <g id="line2d_42"/>
    <g id="text_18">
     <!-- \textsc{{PPR-M-CG}} -->
     <defs>
      <path d="M 74.40625 65.09375 
L 74.5 64.984375 
L 74.5 7.765625 
C 74.5 4.1875 74.296875 3.09375 66.59375 3.09375 
L 64.203125 3.09375 
L 64.203125 0 
C 67.90625 0.296875 74.703125 0.296875 78.59375 0.296875 
C 82.5 0.296875 89.203125 0.296875 92.90625 0 
L 92.90625 3.09375 
L 90.5 3.09375 
C 82.796875 3.09375 82.59375 4.1875 82.59375 7.765625 
L 82.59375 60.21875 
C 82.59375 63.796875 82.796875 64.890625 90.5 64.890625 
L 92.90625 64.890625 
L 92.90625 68 
L 76 68 
C 73.703125 68 73.40625 68 72.59375 66.09375 
L 49.40625 9.46875 
L 26.203125 66.1875 
C 25.5 68 24.90625 68 22.796875 68 
L 5.90625 68 
L 5.90625 64.890625 
L 8.296875 64.890625 
C 16 64.890625 16.203125 63.796875 16.203125 60.21875 
L 16.203125 10.453125 
C 16.203125 7.765625 16.203125 3.09375 5.90625 3.09375 
L 5.90625 0 
C 9.40625 0.09375 14.296875 0.296875 17.59375 0.296875 
C 20.90625 0.296875 25.796875 0.09375 29.296875 0 
L 29.296875 3.09375 
C 19 3.09375 19 7.765625 19 10.453125 
L 19 64.296875 
L 19.09375 64.390625 
L 44.703125 1.796875 
C 45.09375 0.890625 45.59375 0 46.59375 0 
C 47.59375 0 48.09375 0.890625 48.5 1.796875 
z
" id="CMCSC10-77"/>
     </defs>
     <g transform="translate(424.094451 40.637178)scale(0.1 -0.1)">
      <use transform="scale(0.996264)" xlink:href="#CMCSC10-80"/>
      <use transform="translate(73.888826 0)scale(0.996264)" xlink:href="#CMCSC10-80"/>
      <use transform="translate(147.777651 0)scale(0.996264)" xlink:href="#CMCSC10-82"/>
      <use transform="translate(227.478027 0)scale(0.996264)" xlink:href="#CMCSC10-45"/>
      <use transform="translate(265.114311 0)scale(0.996264)" xlink:href="#CMCSC10-77"/>
      <use transform="translate(363.632776 0)scale(0.996264)" xlink:href="#CMCSC10-45"/>
      <use transform="translate(401.26906 0)scale(0.996264)" xlink:href="#CMCSC10-67"/>
      <use transform="translate(479.585785 0)scale(0.996264)" xlink:href="#CMCSC10-71"/>
     </g>
    </g>
    <g id="line2d_43">
     <path d="M 396.094451 51.074357 
L 416.094451 51.074357 
" style="fill:none;stroke:#2aa198;stroke-linecap:square;stroke-width:1.5;"/>
    </g>
    <g id="line2d_44"/>
    <g id="text_19">
     <!-- \textsc{{PP-CG}} -->
     <g transform="translate(424.094451 54.574357)scale(0.1 -0.1)">
      <use transform="scale(0.996264)" xlink:href="#CMCSC10-80"/>
      <use transform="translate(73.888826 0)scale(0.996264)" xlink:href="#CMCSC10-80"/>
      <use transform="translate(147.777651 0)scale(0.996264)" xlink:href="#CMCSC10-45"/>
      <use transform="translate(185.413935 0)scale(0.996264)" xlink:href="#CMCSC10-67"/>
      <use transform="translate(263.73066 0)scale(0.996264)" xlink:href="#CMCSC10-71"/>
     </g>
    </g>
    <g id="line2d_45">
     <path d="M 396.094451 65.011535 
L 416.094451 65.011535 
" style="fill:none;stroke:#6c71c4;stroke-linecap:square;stroke-width:1.5;"/>
    </g>
    <g id="line2d_46"/>
    <g id="text_20">
     <!-- \textsc{{P-M-CG}} -->
     <g transform="translate(424.094451 68.511535)scale(0.1 -0.1)">
      <use transform="scale(0.996264)" xlink:href="#CMCSC10-80"/>
      <use transform="translate(73.888826 0)scale(0.996264)" xlink:href="#CMCSC10-45"/>
      <use transform="translate(111.52511 0)scale(0.996264)" xlink:href="#CMCSC10-77"/>
      <use transform="translate(210.043574 0)scale(0.996264)" xlink:href="#CMCSC10-45"/>
      <use transform="translate(247.679858 0)scale(0.996264)" xlink:href="#CMCSC10-67"/>
      <use transform="translate(325.996583 0)scale(0.996264)" xlink:href="#CMCSC10-71"/>
     </g>
    </g>
    <g id="line2d_47">
     <path d="M 396.094451 78.948713 
L 416.094451 78.948713 
" style="fill:none;stroke:#073642;stroke-dasharray:1.5,2.475;stroke-dashoffset:0;stroke-width:1.5;"/>
    </g>
    <g id="line2d_48"/>
    <g id="text_21">
     <!-- \textsc{{PR-CG}} -->
     <g transform="translate(424.094451 82.448713)scale(0.1 -0.1)">
      <use transform="scale(0.996264)" xlink:href="#CMCSC10-80"/>
      <use transform="translate(73.888826 0)scale(0.996264)" xlink:href="#CMCSC10-82"/>
      <use transform="translate(153.589202 0)scale(0.996264)" xlink:href="#CMCSC10-45"/>
      <use transform="translate(191.225486 0)scale(0.996264)" xlink:href="#CMCSC10-67"/>
      <use transform="translate(269.54221 0)scale(0.996264)" xlink:href="#CMCSC10-71"/>
     </g>
    </g>
    <g id="line2d_49">
     <path d="M 396.094451 92.885892 
L 416.094451 92.885892 
" style="fill:none;stroke:#93a1a1;stroke-linecap:square;stroke-width:1.5;"/>
    </g>
    <g id="line2d_50">
     <g>
      <use style="fill:#93a1a1;stroke:#93a1a1;stroke-linejoin:miter;" x="406.094451" xlink:href="#ma6c36bcff3" y="92.885892"/>
     </g>
    </g>
    <g id="text_22">
     <!-- \textsc{GV-CG} -->
     <defs>
      <path d="M 22.90625 60.328125 
C 22.703125 60.71875 22.40625 61.609375 22.40625 62.015625 
C 22.40625 64.890625 27.703125 64.890625 30.5 64.890625 
L 30.5 68 
C 27 67.6875 19.90625 67.6875 16.09375 67.6875 
C 11.296875 67.6875 7 67.890625 3.40625 68 
L 3.40625 64.890625 
C 11.09375 64.890625 11.90625 64.484375 13.296875 61.125 
L 38.203125 0 
C 38.796875 -1.40625 39 -2 40.59375 -2 
C 42.296875 -2 42.5 -1.5 43.09375 0 
L 66.796875 58.4375 
C 69.40625 64.890625 76 64.890625 77.90625 64.890625 
L 77.90625 68 
C 74.796875 67.796875 70.796875 67.6875 68.203125 67.6875 
C 65.203125 67.6875 59.40625 67.890625 56.796875 68 
L 56.796875 64.890625 
C 62.5 64.78125 63.90625 61.8125 63.90625 60.03125 
C 63.90625 59.53125 63.90625 59.328125 63.296875 58.046875 
L 43.59375 9.421875 
z
" id="CMCSC10-86"/>
     </defs>
     <g transform="translate(424.094451 96.385892)scale(0.1 -0.1)">
      <use transform="scale(0.996264)" xlink:href="#CMCSC10-71"/>
      <use transform="translate(84.820047 0)scale(0.996264)" xlink:href="#CMCSC10-86"/>
      <use transform="translate(165.904074 0)scale(0.996264)" xlink:href="#CMCSC10-45"/>
      <use transform="translate(203.540358 0)scale(0.996264)" xlink:href="#CMCSC10-67"/>
      <use transform="translate(281.857083 0)scale(0.996264)" xlink:href="#CMCSC10-71"/>
     </g>
    </g>
    <g id="line2d_51">
     <path d="M 396.094451 106.82307 
L 416.094451 106.82307 
" style="fill:none;stroke:#93a1a1;stroke-linecap:square;stroke-width:1.5;"/>
    </g>
    <g id="line2d_52">
     <g>
      <use style="fill:#93a1a1;stroke:#93a1a1;stroke-linejoin:miter;" x="406.094451" xlink:href="#m329e7547e2" y="106.82307"/>
     </g>
    </g>
    <g id="text_23">
     <!-- \textsc{M-CG} -->
     <g transform="translate(424.094451 110.32307)scale(0.1 -0.1)">
      <use transform="scale(0.996264)" xlink:href="#CMCSC10-77"/>
      <use transform="translate(98.518465 0)scale(0.996264)" xlink:href="#CMCSC10-45"/>
      <use transform="translate(136.154749 0)scale(0.996264)" xlink:href="#CMCSC10-67"/>
      <use transform="translate(214.471474 0)scale(0.996264)" xlink:href="#CMCSC10-71"/>
     </g>
    </g>
    <g id="line2d_53">
     <path d="M 396.094451 120.760248 
L 416.094451 120.760248 
" style="fill:none;stroke:#93a1a1;stroke-linecap:square;stroke-width:1.5;"/>
    </g>
    <g id="line2d_54">
     <g>
      <use style="fill:#93a1a1;stroke:#93a1a1;stroke-linejoin:miter;" x="406.094451" xlink:href="#m13486df01b" y="120.760248"/>
     </g>
    </g>
    <g id="text_24">
     <!-- \textsc{CG-CG} -->
     <g transform="translate(424.094451 124.260248)scale(0.1 -0.1)">
      <use transform="scale(0.996264)" xlink:href="#CMCSC10-67"/>
      <use transform="translate(78.316725 0)scale(0.996264)" xlink:href="#CMCSC10-71"/>
      <use transform="translate(163.136772 0)scale(0.996264)" xlink:href="#CMCSC10-45"/>
      <use transform="translate(200.773056 0)scale(0.996264)" xlink:href="#CMCSC10-67"/>
      <use transform="translate(279.089781 0)scale(0.996264)" xlink:href="#CMCSC10-71"/>
     </g>
    </g>
    <g id="line2d_55">
     <path d="M 396.094451 134.697427 
L 416.094451 134.697427 
" style="fill:none;stroke:#93a1a1;stroke-linecap:square;stroke-width:1.5;"/>
    </g>
    <g id="line2d_56">
     <g>
      <use style="fill:#93a1a1;stroke:#93a1a1;" x="406.094451" xlink:href="#mdf0ed741e1" y="134.697427"/>
     </g>
    </g>
    <g id="text_25">
     <!-- \textsc{HS-CG} -->
     <defs>
      <path d="M 56.59375 37 
L 24.703125 37 
L 24.703125 60.21875 
C 24.703125 63.796875 24.90625 64.890625 32.59375 64.890625 
L 35 64.890625 
L 35 68 
C 31.5 67.6875 24.09375 67.6875 20.296875 67.6875 
C 16.5 67.6875 9 67.6875 5.5 68 
L 5.5 64.890625 
L 7.90625 64.890625 
C 15.59375 64.890625 15.796875 63.796875 15.796875 60.21875 
L 15.796875 7.78125 
C 15.796875 4.1875 15.59375 3.09375 7.90625 3.09375 
L 5.5 3.09375 
L 5.5 0 
C 9 0.296875 16.40625 0.296875 20.203125 0.296875 
C 24 0.296875 31.5 0.296875 35 0 
L 35 3.09375 
L 32.59375 3.09375 
C 24.90625 3.09375 24.703125 4.1875 24.703125 7.78125 
L 24.703125 33.890625 
L 56.59375 33.890625 
L 56.59375 7.78125 
C 56.59375 4.1875 56.40625 3.09375 48.703125 3.09375 
L 46.296875 3.09375 
L 46.296875 0 
C 49.796875 0.296875 57.203125 0.296875 61 0.296875 
C 64.796875 0.296875 72.296875 0.296875 75.796875 0 
L 75.796875 3.09375 
L 73.40625 3.09375 
C 65.703125 3.09375 65.5 4.1875 65.5 7.78125 
L 65.5 60.21875 
C 65.5 63.796875 65.703125 64.890625 73.40625 64.890625 
L 75.796875 64.890625 
L 75.796875 68 
C 72.296875 67.6875 64.90625 67.6875 61.09375 67.6875 
C 57.296875 67.6875 49.796875 67.6875 46.296875 68 
L 46.296875 64.890625 
L 48.703125 64.890625 
C 56.40625 64.890625 56.59375 63.796875 56.59375 60.21875 
z
" id="CMCSC10-72"/>
      <path d="M 24.40625 42.375 
C 15.703125 44.484375 13.59375 51.421875 13.59375 55.03125 
C 13.59375 61.859375 19.296875 68.1875 27.796875 68.1875 
C 41.59375 68.1875 46.90625 58.046875 48.296875 47.796875 
C 48.5 46.5 48.5 46 49.59375 46 
C 50.90625 46 50.90625 46.5 50.90625 48.40625 
L 50.90625 68.59375 
C 50.90625 70.296875 50.90625 71 49.796875 71 
C 49.09375 71 49.09375 70.890625 48.296875 69.6875 
L 44.59375 63.765625 
C 41.90625 66.484375 37.296875 71 27.703125 71 
C 16.09375 71 7.203125 62.171875 7.203125 51.515625 
C 7.203125 45.09375 10.59375 40.5625 11.90625 39.0625 
C 16.59375 34.140625 19.59375 33.4375 27.90625 31.421875 
C 29.5 31.03125 31.203125 30.71875 32.796875 30.328125 
C 38.703125 28.921875 40.703125 28.421875 43.796875 25 
C 44.40625 24.296875 47.40625 20.875 47.40625 15.453125 
C 47.40625 8.328125 42.09375 1.09375 33 1.09375 
C 28.796875 1.09375 22.09375 1.890625 16.59375 6.21875 
C 10.09375 11.34375 9.796875 18.671875 9.703125 22.09375 
C 9.59375 22.796875 9 22.984375 8.5 22.984375 
C 7.203125 22.984375 7.203125 22.28125 7.203125 20.484375 
L 7.203125 0.390625 
C 7.203125 -1.3125 7.203125 -2 8.296875 -2 
C 9 -2 9.203125 -1.703125 9.796875 -0.8125 
L 13.5 5.203125 
C 16.296875 2.296875 22.796875 -2 33.09375 -2 
C 45.59375 -2 53.796875 8.125 53.796875 18.765625 
C 53.796875 26.8125 49 36.34375 38 39.0625 
z
" id="CMCSC10-83"/>
     </defs>
     <g transform="translate(424.094451 138.197427)scale(0.1 -0.1)">
      <use transform="scale(0.996264)" xlink:href="#CMCSC10-72"/>
      <use transform="translate(81.084027 0)scale(0.996264)" xlink:href="#CMCSC10-83"/>
      <use transform="translate(141.966208 0)scale(0.996264)" xlink:href="#CMCSC10-45"/>
      <use transform="translate(179.602492 0)scale(0.996264)" xlink:href="#CMCSC10-67"/>
      <use transform="translate(257.919217 0)scale(0.996264)" xlink:href="#CMCSC10-71"/>
     </g>
    </g>
    <g id="line2d_57">
     <path d="M 396.094451 148.634605 
L 416.094451 148.634605 
" style="fill:none;stroke:#93a1a1;stroke-dasharray:1.5,2.475;stroke-dashoffset:0;stroke-width:1.5;"/>
    </g>
    <g id="line2d_58"/>
    <g id="text_26">
     <!-- \textsc{EXACT-CG} -->
     <defs>
      <path d="M 64.09375 67.6875 
L 5.5 67.6875 
L 5.5 64.59375 
L 7.90625 64.59375 
C 15.59375 64.59375 15.796875 63.515625 15.796875 59.953125 
L 15.796875 7.8125 
C 15.796875 4.203125 15.59375 3.09375 7.90625 3.09375 
L 5.5 3.09375 
L 5.5 0 
L 65.59375 0 
L 69.796875 25.859375 
L 67.296875 25.859375 
C 64.796875 10.515625 62.40625 3.09375 44.703125 3.09375 
L 29.59375 3.09375 
C 24.90625 3.09375 24.703125 3.796875 24.703125 7.109375 
L 24.703125 33.890625 
L 34.5 33.890625 
C 44.40625 33.890625 45.796875 30.890625 45.796875 22.15625 
L 48.296875 22.15625 
L 48.296875 48.53125 
L 45.796875 48.53125 
C 45.796875 39.953125 44.40625 37 34.5 37 
L 24.703125 37 
L 24.703125 60.65625 
C 24.703125 63.90625 24.90625 64.59375 29.59375 64.59375 
L 43.90625 64.59375 
C 59.59375 64.59375 62.796875 59.5625 64.40625 45.46875 
L 66.90625 45.46875 
z
" id="CMCSC10-69"/>
      <path d="M 58.203125 58.625 
C 62.703125 64.890625 71 64.890625 73 64.890625 
L 73 68 
C 69.40625 67.890625 65.203125 67.6875 61.90625 67.6875 
C 58.203125 67.6875 52.703125 67.6875 49.09375 68 
L 49.09375 64.890625 
C 53.296875 64.796875 55 62.40625 55 60.515625 
C 55 60.015625 55 59.3125 53.90625 57.828125 
L 41.59375 40.90625 
L 27.5 60.515625 
C 26.796875 61.40625 26.796875 61.90625 26.796875 62 
C 26.796875 63.296875 29.296875 64.890625 33.09375 64.890625 
L 33.09375 68 
C 29.5 67.6875 22.203125 67.6875 18.296875 67.6875 
C 14.09375 67.6875 9.5 67.796875 5.296875 68 
L 5.296875 64.890625 
L 7.203125 64.890625 
C 13.40625 64.890625 14.90625 64 16.703125 61.40625 
L 36.40625 33.84375 
L 18.796875 9.46875 
C 14.296875 3.1875 6.40625 3.09375 3.90625 3.09375 
L 3.90625 0 
C 7.5 0.09375 11.703125 0.296875 15 0.296875 
C 19 0.296875 23.796875 0.296875 27.796875 0 
L 27.796875 3.09375 
C 23.296875 3.296875 21.90625 5.875 21.90625 7.46875 
C 21.90625 8.359375 22.203125 8.96875 22.90625 9.953125 
L 38.296875 31.15625 
L 55.09375 7.46875 
C 55.90625 6.375 55.90625 6.171875 55.90625 5.984375 
C 55.90625 5.078125 54.203125 3.1875 49.703125 3.09375 
L 49.703125 0 
C 53.203125 0.296875 60.59375 0.296875 64.40625 0.296875 
C 67.5 0.296875 73.703125 0.1875 77.40625 0 
L 77.40625 3.09375 
L 75.5 3.09375 
C 70.5 3.09375 68.203125 3.484375 65.90625 6.671875 
L 43.5 38.21875 
z
" id="CMCSC10-88"/>
      <path d="M 43.09375 69.796875 
C 42.40625 71.59375 42.296875 72 40.59375 72 
C 39 72 38.796875 71.390625 38.296875 70.09375 
L 16.203125 9.953125 
C 15.296875 7.671875 13.703125 3.1875 4.796875 3.09375 
L 4.796875 0 
C 6.90625 0.09375 10.90625 0.296875 14.90625 0.296875 
C 19.09375 0.296875 24.796875 0.09375 26.5 0 
L 26.5 3.09375 
C 21.40625 3.09375 19.09375 5.671875 19.09375 8.0625 
C 19.09375 8.671875 19.09375 8.859375 19.59375 10.0625 
L 24.40625 23 
L 51 23 
L 56.703125 7.765625 
C 57.203125 6.46875 57.203125 6.28125 57.203125 5.984375 
C 57.203125 3.09375 51.59375 3.09375 49 3.09375 
L 49 0 
C 52.59375 0.296875 59.59375 0.296875 63.40625 0.296875 
C 67.703125 0.296875 72.296875 0.1875 76.5 0 
L 76.5 3.09375 
L 74.703125 3.09375 
C 68.296875 3.09375 67.296875 3.984375 66.296875 6.78125 
z
M 49.90625 26.09375 
L 25.5 26.09375 
L 37.703125 59.46875 
z
" id="CMCSC10-65"/>
      <path d="M 71.40625 67.390625 
L 7.09375 67.390625 
L 5.203125 44.984375 
L 7.703125 44.984375 
C 9.09375 61.703125 11.09375 64.296875 26.796875 64.296875 
C 28.703125 64.296875 31.59375 64.296875 32.59375 64.09375 
C 34.796875 63.796875 34.796875 62.609375 34.796875 60.3125 
L 34.796875 7.875 
C 34.796875 4.484375 34.796875 3.09375 24.296875 3.09375 
L 20.296875 3.09375 
L 20.296875 0 
C 24.40625 0.296875 34.59375 0.296875 39.203125 0.296875 
C 43.796875 0.296875 54.09375 0.296875 58.203125 0 
L 58.203125 3.09375 
L 54.203125 3.09375 
C 43.703125 3.09375 43.703125 4.484375 43.703125 7.875 
L 43.703125 60.3125 
C 43.703125 62.609375 43.703125 63.796875 45.90625 64.09375 
C 46.90625 64.296875 49.796875 64.296875 51.703125 64.296875 
C 67.296875 64.296875 69.40625 61.703125 70.796875 44.984375 
L 73.296875 44.984375 
z
" id="CMCSC10-84"/>
     </defs>
     <g transform="translate(424.094451 152.134605)scale(0.1 -0.1)">
      <use transform="scale(0.996264)" xlink:href="#CMCSC10-69"/>
      <use transform="translate(73.888826 0)scale(0.996264)" xlink:href="#CMCSC10-88"/>
      <use transform="translate(154.972853 0)scale(0.996264)" xlink:href="#CMCSC10-65"/>
      <use transform="translate(233.151059 0)scale(0.996264)" xlink:href="#CMCSC10-67"/>
      <use transform="translate(311.467784 0)scale(0.996264)" xlink:href="#CMCSC10-84"/>
      <use transform="translate(389.784509 0)scale(0.996264)" xlink:href="#CMCSC10-45"/>
      <use transform="translate(427.420793 0)scale(0.996264)" xlink:href="#CMCSC10-67"/>
      <use transform="translate(505.737518 0)scale(0.996264)" xlink:href="#CMCSC10-71"/>
     </g>
    </g>
   </g>
  </g>
 </g>
 <defs>
  <clipPath id="p778523daa9">
   <rect height="221.76" width="334.8" x="52.294451" y="10.7"/>
  </clipPath>
 </defs>
</svg>
