<?xml version="1.0" encoding="utf-8" standalone="no"?>
<!DOCTYPE svg PUBLIC "-//W3C//DTD SVG 1.1//EN"
  "http://www.w3.org/Graphics/SVG/1.1/DTD/svg11.dtd">
<!-- Created with matplotlib (https://matplotlib.org/) -->
<svg height="268.371353pt" version="1.1" viewBox="0 0 397.794451 268.371353" width="397.794451pt" xmlns="http://www.w3.org/2000/svg" xmlns:xlink="http://www.w3.org/1999/xlink">
 <defs>
  <style type="text/css">
*{stroke-linecap:butt;stroke-linejoin:round;}
  </style>
 </defs>
 <g id="figure_1">
  <g id="patch_1">
   <path d="M -0 268.371353 
L 397.794451 268.371353 
L 397.794451 0 
L -0 0 
z
" style="fill:#ffffff;"/>
  </g>
  <g id="axes_1">
   <g id="patch_2">
    <path d="M 52.294451 232.46 
L 387.094451 232.46 
L 387.094451 10.7 
L 52.294451 10.7 
z
" style="fill:#ffffff;"/>
   </g>
   <g id="matplotlib.axis_1">
    <g id="xtick_1">
     <g id="line2d_1">
      <path clip-path="url(#p4d298a73eb)" d="M 67.512633 232.46 
L 67.512633 10.7 
" style="fill:none;stroke:#b0b0b0;stroke-dasharray:0.8,1.32;stroke-dashoffset:0;stroke-width:0.8;"/>
     </g>
     <g id="line2d_2">
      <defs>
       <path d="M 0 0 
L 0 3.5 
" id="m23d0c2f8cd" style="stroke:#000000;stroke-width:0.8;"/>
      </defs>
      <g>
       <use style="stroke:#000000;stroke-width:0.8;" x="67.512633" xlink:href="#m23d0c2f8cd" y="232.46"/>
      </g>
     </g>
     <g id="text_1">
      <!-- $0$ -->
      <defs>
       <path d="M 42 31.84375 
C 42 37.96875 41.90625 48.421875 37.703125 56.453125 
C 34 63.484375 28.09375 66 22.90625 66 
C 18.09375 66 12 63.78125 8.203125 56.5625 
C 4.203125 49.015625 3.796875 39.671875 3.796875 31.84375 
C 3.796875 26.109375 3.90625 17.375 7 9.734375 
C 11.296875 -0.609375 19 -2 22.90625 -2 
C 27.5 -2 34.5 -0.109375 38.59375 9.4375 
C 41.59375 16.375 42 24.5 42 31.84375 
z
M 22.90625 -0.40625 
C 16.5 -0.40625 12.703125 5.125 11.296875 12.75 
C 10.203125 18.6875 10.203125 27.328125 10.203125 32.953125 
C 10.203125 40.6875 10.203125 47.109375 11.5 53.234375 
C 13.40625 61.78125 19 64.390625 22.90625 64.390625 
C 27 64.390625 32.296875 61.671875 34.203125 53.4375 
C 35.5 47.71875 35.59375 40.984375 35.59375 32.953125 
C 35.59375 26.421875 35.59375 18.375 34.40625 12.453125 
C 32.296875 1.5 26.40625 -0.40625 22.90625 -0.40625 
z
" id="CMR17-48"/>
      </defs>
      <g transform="translate(65.021965 246.378498)scale(0.1 -0.1)">
       <use transform="scale(0.996264)" xlink:href="#CMR17-48"/>
      </g>
     </g>
    </g>
    <g id="xtick_2">
     <g id="line2d_3">
      <path clip-path="url(#p4d298a73eb)" d="M 135.216701 232.46 
L 135.216701 10.7 
" style="fill:none;stroke:#b0b0b0;stroke-dasharray:0.8,1.32;stroke-dashoffset:0;stroke-width:0.8;"/>
     </g>
     <g id="line2d_4">
      <g>
       <use style="stroke:#000000;stroke-width:0.8;" x="135.216701" xlink:href="#m23d0c2f8cd" y="232.46"/>
      </g>
     </g>
     <g id="text_2">
      <!-- $10000$ -->
      <defs>
       <path d="M 26.59375 63.796875 
C 26.59375 65.890625 26.5 66 25.09375 66 
C 21.203125 61.359375 15.296875 59.890625 9.703125 59.6875 
C 9.40625 59.6875 8.90625 59.6875 8.796875 59.5 
C 8.703125 59.296875 8.703125 59.09375 8.703125 57 
C 11.796875 57 17 57.59375 21 59.984375 
L 21 7.296875 
C 21 3.796875 20.796875 2.59375 12.203125 2.59375 
L 9.203125 2.59375 
L 9.203125 0 
C 14 0.09375 19 0.1875 23.796875 0.1875 
C 28.59375 0.1875 33.59375 0.09375 38.40625 0 
L 38.40625 2.59375 
L 35.40625 2.59375 
C 26.796875 2.59375 26.59375 3.6875 26.59375 7.296875 
z
" id="CMR17-49"/>
      </defs>
      <g transform="translate(122.763362 246.378498)scale(0.1 -0.1)">
       <use transform="scale(0.996264)" xlink:href="#CMR17-49"/>
       <use transform="translate(45.690477 0)scale(0.996264)" xlink:href="#CMR17-48"/>
       <use transform="translate(91.380954 0)scale(0.996264)" xlink:href="#CMR17-48"/>
       <use transform="translate(137.071431 0)scale(0.996264)" xlink:href="#CMR17-48"/>
       <use transform="translate(182.761908 0)scale(0.996264)" xlink:href="#CMR17-48"/>
      </g>
     </g>
    </g>
    <g id="xtick_3">
     <g id="line2d_5">
      <path clip-path="url(#p4d298a73eb)" d="M 202.920768 232.46 
L 202.920768 10.7 
" style="fill:none;stroke:#b0b0b0;stroke-dasharray:0.8,1.32;stroke-dashoffset:0;stroke-width:0.8;"/>
     </g>
     <g id="line2d_6">
      <g>
       <use style="stroke:#000000;stroke-width:0.8;" x="202.920768" xlink:href="#m23d0c2f8cd" y="232.46"/>
      </g>
     </g>
     <g id="text_3">
      <!-- $20000$ -->
      <defs>
       <path d="M 41.703125 15.46875 
L 39.90625 15.46875 
C 38.90625 8.390625 38.09375 7.1875 37.703125 6.59375 
C 37.203125 5.796875 30 5.796875 28.59375 5.796875 
L 9.40625 5.796875 
C 13 9.6875 20 16.765625 28.5 24.9375 
C 34.59375 30.71875 41.703125 37.5 41.703125 47.390625 
C 41.703125 59.1875 32.296875 66 21.796875 66 
C 10.796875 66 4.09375 56.296875 4.09375 47.296875 
C 4.09375 43.390625 7 42.890625 8.203125 42.890625 
C 9.203125 42.890625 12.203125 43.484375 12.203125 46.984375 
C 12.203125 50.09375 9.59375 51 8.203125 51 
C 7.59375 51 7 50.890625 6.59375 50.6875 
C 8.5 59.1875 14.296875 63.390625 20.40625 63.390625 
C 29.09375 63.390625 34.796875 56.5 34.796875 47.390625 
C 34.796875 38.703125 29.703125 31.21875 24 24.734375 
L 4.09375 2.296875 
L 4.09375 0 
L 39.296875 0 
z
" id="CMR17-50"/>
      </defs>
      <g transform="translate(190.46743 246.378498)scale(0.1 -0.1)">
       <use transform="scale(0.996264)" xlink:href="#CMR17-50"/>
       <use transform="translate(45.690477 0)scale(0.996264)" xlink:href="#CMR17-48"/>
       <use transform="translate(91.380954 0)scale(0.996264)" xlink:href="#CMR17-48"/>
       <use transform="translate(137.071431 0)scale(0.996264)" xlink:href="#CMR17-48"/>
       <use transform="translate(182.761908 0)scale(0.996264)" xlink:href="#CMR17-48"/>
      </g>
     </g>
    </g>
    <g id="xtick_4">
     <g id="line2d_7">
      <path clip-path="url(#p4d298a73eb)" d="M 270.624836 232.46 
L 270.624836 10.7 
" style="fill:none;stroke:#b0b0b0;stroke-dasharray:0.8,1.32;stroke-dashoffset:0;stroke-width:0.8;"/>
     </g>
     <g id="line2d_8">
      <g>
       <use style="stroke:#000000;stroke-width:0.8;" x="270.624836" xlink:href="#m23d0c2f8cd" y="232.46"/>
      </g>
     </g>
     <g id="text_4">
      <!-- $30000$ -->
      <defs>
       <path d="M 22.09375 34 
C 31 34 34.90625 26.140625 34.90625 17.09375 
C 34.90625 5.03125 28.5 0.390625 22.703125 0.390625 
C 17.40625 0.390625 8.796875 3.015625 6.09375 10.796875 
C 6.59375 10.59375 7.09375 10.59375 7.59375 10.59375 
C 10 10.59375 11.796875 12.1875 11.796875 14.796875 
C 11.796875 17.6875 9.59375 19 7.59375 19 
C 5.90625 19 3.296875 18.1875 3.296875 14.484375 
C 3.296875 5.234375 12.296875 -2 22.90625 -2 
C 34 -2 42.5 6.75 42.5 16.984375 
C 42.5 26.84375 34.5 34 25 35.09375 
C 32.59375 36.671875 39.90625 43.375 39.90625 52.390625 
C 39.90625 60.25 32 66 23 66 
C 13.90625 66 5.90625 60.34375 5.90625 52.296875 
C 5.90625 48.796875 8.5 48.1875 9.796875 48.1875 
C 11.90625 48.1875 13.703125 49.484375 13.703125 52.09375 
C 13.703125 54.6875 11.90625 56 9.796875 56 
C 9.40625 56 8.90625 56 8.5 55.796875 
C 11.40625 62.484375 19.296875 63.6875 22.796875 63.6875 
C 26.296875 63.6875 32.90625 61.96875 32.90625 52.296875 
C 32.90625 49.484375 32.5 44.546875 29.09375 40.21875 
C 26.09375 36.390625 22.703125 36.1875 19.40625 35.890625 
C 18.90625 35.890625 16.59375 35.6875 16.203125 35.6875 
C 15.5 35.59375 15.09375 35.5 15.09375 34.796875 
C 15.09375 34.09375 15.203125 34 17.203125 34 
z
" id="CMR17-51"/>
      </defs>
      <g transform="translate(258.171498 246.378498)scale(0.1 -0.1)">
       <use transform="scale(0.996264)" xlink:href="#CMR17-51"/>
       <use transform="translate(45.690477 0)scale(0.996264)" xlink:href="#CMR17-48"/>
       <use transform="translate(91.380954 0)scale(0.996264)" xlink:href="#CMR17-48"/>
       <use transform="translate(137.071431 0)scale(0.996264)" xlink:href="#CMR17-48"/>
       <use transform="translate(182.761908 0)scale(0.996264)" xlink:href="#CMR17-48"/>
      </g>
     </g>
    </g>
    <g id="xtick_5">
     <g id="line2d_9">
      <path clip-path="url(#p4d298a73eb)" d="M 338.328904 232.46 
L 338.328904 10.7 
" style="fill:none;stroke:#b0b0b0;stroke-dasharray:0.8,1.32;stroke-dashoffset:0;stroke-width:0.8;"/>
     </g>
     <g id="line2d_10">
      <g>
       <use style="stroke:#000000;stroke-width:0.8;" x="338.328904" xlink:href="#m23d0c2f8cd" y="232.46"/>
      </g>
     </g>
     <g id="text_5">
      <!-- $40000$ -->
      <defs>
       <path d="M 33.59375 64.796875 
C 33.59375 66.890625 33.5 67 31.703125 67 
L 2 19.59375 
L 2 17 
L 27.796875 17 
L 27.796875 7.1875 
C 27.796875 3.59375 27.59375 2.59375 20.59375 2.59375 
L 18.703125 2.59375 
L 18.703125 0 
C 21.90625 0.1875 27.296875 0.1875 30.703125 0.1875 
C 34.09375 0.1875 39.5 0.1875 42.703125 0 
L 42.703125 2.59375 
L 40.796875 2.59375 
C 33.796875 2.59375 33.59375 3.59375 33.59375 7.1875 
L 33.59375 17 
L 43.796875 17 
L 43.796875 19.59375 
L 33.59375 19.59375 
z
M 28.09375 58.171875 
L 28.09375 19.59375 
L 4 19.59375 
z
" id="CMR17-52"/>
      </defs>
      <g transform="translate(325.875566 246.378498)scale(0.1 -0.1)">
       <use transform="scale(0.996264)" xlink:href="#CMR17-52"/>
       <use transform="translate(45.690477 0)scale(0.996264)" xlink:href="#CMR17-48"/>
       <use transform="translate(91.380954 0)scale(0.996264)" xlink:href="#CMR17-48"/>
       <use transform="translate(137.071431 0)scale(0.996264)" xlink:href="#CMR17-48"/>
       <use transform="translate(182.761908 0)scale(0.996264)" xlink:href="#CMR17-48"/>
      </g>
     </g>
    </g>
    <g id="text_6">
     <!-- iteration $k$ -->
     <defs>
      <path d="M 15.5 61.890625 
C 15.5 64.09375 13.703125 66 11.40625 66 
C 9.203125 66 7.296875 64.1875 7.296875 61.890625 
C 7.296875 59.6875 9.09375 57.796875 11.40625 57.796875 
C 13.59375 57.796875 15.5 59.59375 15.5 61.890625 
z
M 3.796875 42.890625 
L 3.796875 40.296875 
C 9.40625 40.296875 10.203125 39.6875 10.203125 34.859375 
L 10.203125 6.921875 
C 10.203125 3.09375 9.796875 2.59375 3.40625 2.59375 
L 3.40625 0 
C 5.796875 0.1875 10.09375 0.1875 12.59375 0.1875 
C 15 0.1875 19.09375 0.1875 21.40625 0 
L 21.40625 2.59375 
C 15.5 2.59375 15.296875 3.203125 15.296875 6.8125 
L 15.296875 44 
z
" id="CMR17-105"/>
      <path d="M 15.09375 40.390625 
L 29.09375 40.390625 
L 29.09375 43 
L 15.09375 43 
L 15.09375 62 
L 13.296875 62 
C 13.09375 51.4375 9.59375 42.1875 1.09375 41.984375 
L 1.09375 40.390625 
L 9.796875 40.390625 
L 9.796875 12.15625 
C 9.796875 10.234375 9.796875 -1 21.40625 -1 
C 27.296875 -1 30.703125 4.8125 30.703125 12.25 
L 30.703125 17.984375 
L 28.90625 17.984375 
L 28.90625 12.34375 
C 28.90625 5.421875 26.203125 0.796875 22 0.796875 
C 19.09375 0.796875 15.09375 2.796875 15.09375 11.953125 
z
" id="CMR17-116"/>
      <path d="M 38.09375 23.484375 
C 38.5 23.890625 38.5 24.09375 38.5 25.09375 
C 38.5 35.171875 33.09375 44 21.703125 44 
C 11.09375 44 2.703125 33.984375 2.703125 21.78125 
C 2.703125 8.65625 12.203125 -1 22.796875 -1 
C 34 -1 38.40625 9.671875 38.40625 11.796875 
C 38.40625 12.5 37.796875 12.5 37.59375 12.5 
C 36.90625 12.5 36.796875 12.296875 36.40625 11.078125 
C 34.203125 4.21875 28.703125 0.796875 23.5 0.796875 
C 19.203125 0.796875 14.90625 3.21875 12.203125 7.65625 
C 9.09375 12.796875 9.09375 18.75 9.09375 23.484375 
z
M 9.203125 25 
C 9.90625 39.234375 17.59375 42.390625 21.59375 42.390625 
C 28.40625 42.390625 33 36.0625 33.09375 25 
z
" id="CMR17-101"/>
      <path d="M 15 23.703125 
C 15 33.34375 19.09375 42.390625 26.59375 42.390625 
C 27.296875 42.390625 28 42.296875 28.703125 41.984375 
C 28.703125 41.984375 26.5 41.28125 26.5 38.671875 
C 26.5 36.265625 28.40625 35.265625 29.90625 35.265625 
C 31.09375 35.265625 33.296875 35.96875 33.296875 38.78125 
C 33.296875 41.984375 30.09375 44 26.703125 44 
C 19.09375 44 15.796875 36.5625 14.796875 33.046875 
L 14.703125 33.046875 
L 14.703125 44 
L 3.09375 42.890625 
L 3.09375 40.28125 
C 9 40.28125 9.90625 39.6875 9.90625 34.859375 
L 9.90625 6.921875 
C 9.90625 3.09375 9.5 2.59375 3.09375 2.59375 
L 3.09375 0 
C 5.5 0.1875 10.09375 0.1875 12.703125 0.1875 
C 15.59375 0.1875 20.703125 0.1875 23.40625 0 
L 23.40625 2.59375 
C 16.203125 2.59375 15 2.59375 15 7.109375 
z
" id="CMR17-114"/>
      <path d="M 36 25.875 
C 36 32 36 35.546875 31.796875 39.59375 
C 28.09375 42.984375 23.796875 44 20.40625 44 
C 12.5 44 6.796875 37.625 6.796875 30.890625 
C 6.796875 27.1875 9.796875 27 10.40625 27 
C 11.703125 27 14 27.796875 14 30.59375 
C 14 33.09375 12.09375 34.1875 10.40625 34.1875 
C 10 34.1875 9.5 34.09375 9.203125 34 
C 11.296875 40.53125 16.703125 42.390625 20.203125 42.390625 
C 25.203125 42.390625 30.703125 37.828125 30.703125 29.296875 
L 30.703125 25.5 
C 24.796875 25.296875 17.703125 24.5 12.09375 21.453125 
C 5.796875 17.921875 4 12.84375 4 9 
C 4 1.203125 13 -1 18.296875 -1 
C 23.796875 -1 28.90625 2.109375 31.09375 7.890625 
C 31.296875 3.421875 34.09375 -0.609375 38.5 -0.609375 
C 40.59375 -0.609375 45.90625 0.796875 45.90625 8.796875 
L 45.90625 14.46875 
L 44.09375 14.46875 
L 44.09375 8.703125 
C 44.09375 2.515625 41.40625 1.703125 40.09375 1.703125 
C 36 1.703125 36 6.96875 36 11.4375 
z
M 30.703125 13.859375 
C 30.703125 5.046875 24.5 0.59375 19 0.59375 
C 14 0.59375 10.09375 4.34375 10.09375 9 
C 10.09375 12.046875 11.40625 17.40625 17.203125 20.65625 
C 22 23.390625 27.5 23.796875 30.703125 24 
z
" id="CMR17-97"/>
      <path d="M 43.09375 21.1875 
C 43.09375 34 33.796875 44 22.90625 44 
C 12 44 2.703125 34 2.703125 21.1875 
C 2.703125 8.59375 12 -1 22.90625 -1 
C 33.796875 -1 43.09375 8.59375 43.09375 21.1875 
z
M 22.90625 0.796875 
C 18.203125 0.796875 14.203125 3.59375 11.90625 7.5 
C 9.40625 12 9.09375 17.59375 9.09375 22 
C 9.09375 26.1875 9.296875 31.390625 11.90625 35.890625 
C 13.90625 39.1875 17.796875 42.390625 22.90625 42.390625 
C 27.40625 42.390625 31.203125 39.890625 33.59375 36.390625 
C 36.703125 31.6875 36.703125 25.09375 36.703125 22 
C 36.703125 18.09375 36.5 12.09375 33.796875 7.296875 
C 31 2.6875 26.703125 0.796875 22.90625 0.796875 
z
" id="CMR17-111"/>
      <path d="M 41.5 30.53125 
C 41.5 35.65625 40.5 44 28.703125 44 
C 20.796875 44 16.703125 37.875 15.203125 33.84375 
L 15.09375 33.84375 
L 15.09375 44 
L 3.296875 42.890625 
L 3.296875 40.28125 
C 9.203125 40.28125 10.09375 39.6875 10.09375 34.859375 
L 10.09375 6.921875 
C 10.09375 3.09375 9.703125 2.59375 3.296875 2.59375 
L 3.296875 0 
C 5.703125 0.1875 10.09375 0.1875 12.703125 0.1875 
C 15.296875 0.1875 19.796875 0.1875 22.203125 0 
L 22.203125 2.59375 
C 15.796875 2.59375 15.40625 3 15.40625 6.921875 
L 15.40625 26.21875 
C 15.40625 35.453125 21 42.390625 28 42.390625 
C 35.40625 42.390625 36.203125 35.765625 36.203125 30.9375 
L 36.203125 6.921875 
C 36.203125 3.09375 35.796875 2.59375 29.40625 2.59375 
L 29.40625 0 
C 31.796875 0.1875 36.203125 0.1875 38.796875 0.1875 
C 41.40625 0.1875 45.90625 0.1875 48.296875 0 
L 48.296875 2.59375 
C 41.90625 2.59375 41.5 3 41.5 6.921875 
z
" id="CMR17-110"/>
      <path d="M 28.09375 66.484375 
C 28.203125 66.890625 28.40625 67.484375 28.40625 67.984375 
C 28.40625 69 27.40625 69 27.203125 69 
C 27.09375 69 23.5 68.6875 21.703125 68.484375 
C 20 68.390625 18.5 68.1875 16.703125 68.09375 
C 14.296875 67.890625 13.59375 67.796875 13.59375 65.984375 
C 13.59375 64.984375 14.59375 64.984375 15.59375 64.984375 
C 20.703125 64.984375 20.703125 64.109375 20.703125 63.125 
C 20.703125 62.71875 20.703125 62.53125 20.203125 60.75 
L 5.90625 3.90625 
C 5.5 2.390625 5.5 2.203125 5.5 1.59375 
C 5.5 -0.609375 7.203125 -1 8.203125 -1 
C 11 -1 11.59375 1.1875 12.40625 4.296875 
L 17.09375 23.0625 
C 24.296875 22.265625 28.59375 19.25 28.59375 14.4375 
C 28.59375 13.828125 28.59375 13.4375 28.296875 11.921875 
C 27.90625 10.421875 27.90625 9.21875 27.90625 8.71875 
C 27.90625 2.890625 31.703125 -1 36.796875 -1 
C 41.40625 -1 43.796875 3.203125 44.59375 4.609375 
C 46.703125 8.3125 48 13.9375 48 14.328125 
C 48 14.828125 47.59375 15.234375 47 15.234375 
C 46.09375 15.234375 46 14.828125 45.59375 13.234375 
C 44.203125 8.015625 42.09375 1 37 1 
C 35 1 33.703125 2 33.703125 5.8125 
C 33.703125 7.71875 34.09375 9.921875 34.5 11.421875 
C 34.90625 13.234375 34.90625 13.328125 34.90625 14.53125 
C 34.90625 20.453125 29.59375 23.765625 20.40625 24.96875 
C 24 27.171875 27.59375 31.078125 29 32.59375 
C 34.703125 38.984375 38.59375 41.984375 43.203125 41.984375 
C 45.5 41.984375 46.09375 41.484375 46.796875 41 
C 43.09375 40.59375 41.703125 37.984375 41.703125 35.984375 
C 41.703125 33.59375 43.59375 32.796875 45 32.796875 
C 47.703125 32.796875 50.09375 35.09375 50.09375 38.296875 
C 50.09375 41.15625 47.796875 44 43.296875 44 
C 37.796875 44 33.296875 40.296875 26.203125 32.296875 
C 25.203125 31.078125 21.5 27.28125 17.796875 25.875 
z
" id="CMMI12-107"/>
     </defs>
     <g transform="translate(196.885256 259.234175)scale(0.1 -0.1)">
      <use transform="scale(0.996264)" xlink:href="#CMR17-105"/>
      <use transform="translate(24.871058 0)scale(0.996264)" xlink:href="#CMR17-116"/>
      <use transform="translate(60.151826 0)scale(0.996264)" xlink:href="#CMR17-101"/>
      <use transform="translate(100.637487 0)scale(0.996264)" xlink:href="#CMR17-114"/>
      <use transform="translate(135.918255 0)scale(0.996264)" xlink:href="#CMR17-97"/>
      <use transform="translate(181.608732 0)scale(0.996264)" xlink:href="#CMR17-116"/>
      <use transform="translate(216.889499 0)scale(0.996264)" xlink:href="#CMR17-105"/>
      <use transform="translate(241.760558 0)scale(0.996264)" xlink:href="#CMR17-111"/>
      <use transform="translate(287.451035 0)scale(0.996264)" xlink:href="#CMR17-110"/>
      <use transform="translate(368.422371 0)scale(0.996264)" xlink:href="#CMMI12-107"/>
     </g>
    </g>
   </g>
   <g id="matplotlib.axis_2">
    <g id="ytick_1">
     <g id="line2d_11">
      <path clip-path="url(#p4d298a73eb)" d="M 52.294451 232.46 
L 387.094451 232.46 
" style="fill:none;stroke:#b0b0b0;stroke-dasharray:0.8,1.32;stroke-dashoffset:0;stroke-width:0.8;"/>
     </g>
     <g id="line2d_12">
      <defs>
       <path d="M 0 0 
L -3.5 0 
" id="m5c7372a6a7" style="stroke:#000000;stroke-width:0.8;"/>
      </defs>
      <g>
       <use style="stroke:#000000;stroke-width:0.8;" x="52.294451" xlink:href="#m5c7372a6a7" y="232.46"/>
      </g>
     </g>
     <g id="text_7">
      <!-- $10^{-16}$ -->
      <defs>
       <path d="M 65.90625 23 
C 67.59375 23 69.40625 23 69.40625 25 
C 69.40625 27 67.59375 27 65.90625 27 
L 11.796875 27 
C 10.09375 27 8.296875 27 8.296875 25 
C 8.296875 23 10.09375 23 11.796875 23 
z
" id="CMSY10-0"/>
       <path d="M 10.59375 34.34375 
C 10.59375 58 21.796875 63.6875 28.296875 63.6875 
C 30.40625 63.6875 35.5 63.265625 37.5 59.09375 
C 35.90625 59.09375 32.90625 59.09375 32.90625 55.59375 
C 32.90625 52.890625 35.09375 52 36.5 52 
C 37.40625 52 40.09375 52.390625 40.09375 55.796875 
C 40.09375 62.296875 35.09375 66 28.203125 66 
C 16.296875 66 3.796875 53.296875 3.796875 31.421875 
C 3.796875 4.015625 15.09375 -2 23.09375 -2 
C 32.796875 -2 42 6.734375 42 20.234375 
C 42 32.828125 33.90625 42 23.703125 42 
C 17.59375 42 13.09375 37.96875 10.59375 30.921875 
z
M 23.09375 0.390625 
C 10.796875 0.390625 10.796875 18.9375 10.796875 22.65625 
C 10.796875 29.90625 14.203125 40.390625 23.5 40.390625 
C 25.203125 40.390625 30.09375 40.390625 33.40625 33.4375 
C 35.203125 29.515625 35.203125 25.375 35.203125 20.34375 
C 35.203125 14.90625 35.203125 10.875 33.09375 6.84375 
C 30.90625 2.703125 27.703125 0.390625 23.09375 0.390625 
z
" id="CMR17-54"/>
      </defs>
      <g transform="translate(21.16264 235.919249)scale(0.1 -0.1)">
       <use transform="scale(0.996264)" xlink:href="#CMR17-49"/>
       <use transform="translate(45.690477 0)scale(0.996264)" xlink:href="#CMR17-48"/>
       <use transform="translate(91.380954 36.153639)scale(0.697382)" xlink:href="#CMSY10-0"/>
       <use transform="translate(145.621947 36.153639)scale(0.697382)" xlink:href="#CMR17-49"/>
       <use transform="translate(177.605129 36.153639)scale(0.697382)" xlink:href="#CMR17-54"/>
      </g>
     </g>
    </g>
    <g id="ytick_2">
     <g id="line2d_13">
      <path clip-path="url(#p4d298a73eb)" d="M 52.294451 205.900278 
L 387.094451 205.900278 
" style="fill:none;stroke:#b0b0b0;stroke-dasharray:0.8,1.32;stroke-dashoffset:0;stroke-width:0.8;"/>
     </g>
     <g id="line2d_14">
      <g>
       <use style="stroke:#000000;stroke-width:0.8;" x="52.294451" xlink:href="#m5c7372a6a7" y="205.900278"/>
      </g>
     </g>
     <g id="text_8">
      <!-- $10^{-14}$ -->
      <g transform="translate(21.16264 209.359527)scale(0.1 -0.1)">
       <use transform="scale(0.996264)" xlink:href="#CMR17-49"/>
       <use transform="translate(45.690477 0)scale(0.996264)" xlink:href="#CMR17-48"/>
       <use transform="translate(91.380954 36.153639)scale(0.697382)" xlink:href="#CMSY10-0"/>
       <use transform="translate(145.621947 36.153639)scale(0.697382)" xlink:href="#CMR17-49"/>
       <use transform="translate(177.605129 36.153639)scale(0.697382)" xlink:href="#CMR17-52"/>
      </g>
     </g>
    </g>
    <g id="ytick_3">
     <g id="line2d_15">
      <path clip-path="url(#p4d298a73eb)" d="M 52.294451 179.340556 
L 387.094451 179.340556 
" style="fill:none;stroke:#b0b0b0;stroke-dasharray:0.8,1.32;stroke-dashoffset:0;stroke-width:0.8;"/>
     </g>
     <g id="line2d_16">
      <g>
       <use style="stroke:#000000;stroke-width:0.8;" x="52.294451" xlink:href="#m5c7372a6a7" y="179.340556"/>
      </g>
     </g>
     <g id="text_9">
      <!-- $10^{-12}$ -->
      <g transform="translate(21.16264 182.799805)scale(0.1 -0.1)">
       <use transform="scale(0.996264)" xlink:href="#CMR17-49"/>
       <use transform="translate(45.690477 0)scale(0.996264)" xlink:href="#CMR17-48"/>
       <use transform="translate(91.380954 36.153639)scale(0.697382)" xlink:href="#CMSY10-0"/>
       <use transform="translate(145.621947 36.153639)scale(0.697382)" xlink:href="#CMR17-49"/>
       <use transform="translate(177.605129 36.153639)scale(0.697382)" xlink:href="#CMR17-50"/>
      </g>
     </g>
    </g>
    <g id="ytick_4">
     <g id="line2d_17">
      <path clip-path="url(#p4d298a73eb)" d="M 52.294451 152.780834 
L 387.094451 152.780834 
" style="fill:none;stroke:#b0b0b0;stroke-dasharray:0.8,1.32;stroke-dashoffset:0;stroke-width:0.8;"/>
     </g>
     <g id="line2d_18">
      <g>
       <use style="stroke:#000000;stroke-width:0.8;" x="52.294451" xlink:href="#m5c7372a6a7" y="152.780834"/>
      </g>
     </g>
     <g id="text_10">
      <!-- $10^{-10}$ -->
      <g transform="translate(21.16264 156.240083)scale(0.1 -0.1)">
       <use transform="scale(0.996264)" xlink:href="#CMR17-49"/>
       <use transform="translate(45.690477 0)scale(0.996264)" xlink:href="#CMR17-48"/>
       <use transform="translate(91.380954 36.153639)scale(0.697382)" xlink:href="#CMSY10-0"/>
       <use transform="translate(145.621947 36.153639)scale(0.697382)" xlink:href="#CMR17-49"/>
       <use transform="translate(177.605129 36.153639)scale(0.697382)" xlink:href="#CMR17-48"/>
      </g>
     </g>
    </g>
    <g id="ytick_5">
     <g id="line2d_19">
      <path clip-path="url(#p4d298a73eb)" d="M 52.294451 126.221112 
L 387.094451 126.221112 
" style="fill:none;stroke:#b0b0b0;stroke-dasharray:0.8,1.32;stroke-dashoffset:0;stroke-width:0.8;"/>
     </g>
     <g id="line2d_20">
      <g>
       <use style="stroke:#000000;stroke-width:0.8;" x="52.294451" xlink:href="#m5c7372a6a7" y="126.221112"/>
      </g>
     </g>
     <g id="text_11">
      <!-- $10^{-8}$ -->
      <defs>
       <path d="M 27.203125 35.765625 
C 33.5 38.96875 39.90625 43.796875 39.90625 51.53125 
C 39.90625 60.6875 31.09375 66 23 66 
C 13.90625 66 5.90625 59.375 5.90625 50.234375 
C 5.90625 47.71875 6.5 43.390625 10.40625 39.578125 
C 11.40625 38.578125 15.59375 35.5625 18.296875 33.65625 
C 13.796875 31.34375 3.296875 25.8125 3.296875 14.765625 
C 3.296875 4.40625 13.09375 -2 22.796875 -2 
C 33.5 -2 42.5 5.71875 42.5 15.96875 
C 42.5 25.109375 36.40625 29.328125 32.40625 32.046875 
z
M 14.09375 44.609375 
C 13.296875 45.109375 9.296875 48.21875 9.296875 52.9375 
C 9.296875 59.078125 15.59375 63.6875 22.796875 63.6875 
C 30.703125 63.6875 36.5 58.0625 36.5 51.53125 
C 36.5 42.1875 26.09375 36.859375 25.59375 36.859375 
C 25.5 36.859375 25.40625 36.859375 24.59375 37.46875 
z
M 32.5 24 
C 34 22.90625 38.796875 19.578125 38.796875 13.453125 
C 38.796875 6.015625 31.40625 0.390625 23 0.390625 
C 13.90625 0.390625 7 6.921875 7 14.859375 
C 7 22.796875 13.09375 29.4375 20 32.546875 
z
" id="CMR17-56"/>
      </defs>
      <g transform="translate(25.133878 129.680361)scale(0.1 -0.1)">
       <use transform="scale(0.996264)" xlink:href="#CMR17-49"/>
       <use transform="translate(45.690477 0)scale(0.996264)" xlink:href="#CMR17-48"/>
       <use transform="translate(91.380954 36.153639)scale(0.697382)" xlink:href="#CMSY10-0"/>
       <use transform="translate(145.621947 36.153639)scale(0.697382)" xlink:href="#CMR17-56"/>
      </g>
     </g>
    </g>
    <g id="ytick_6">
     <g id="line2d_21">
      <path clip-path="url(#p4d298a73eb)" d="M 52.294451 99.66139 
L 387.094451 99.66139 
" style="fill:none;stroke:#b0b0b0;stroke-dasharray:0.8,1.32;stroke-dashoffset:0;stroke-width:0.8;"/>
     </g>
     <g id="line2d_22">
      <g>
       <use style="stroke:#000000;stroke-width:0.8;" x="52.294451" xlink:href="#m5c7372a6a7" y="99.66139"/>
      </g>
     </g>
     <g id="text_12">
      <!-- $10^{-6}$ -->
      <g transform="translate(25.133878 103.120639)scale(0.1 -0.1)">
       <use transform="scale(0.996264)" xlink:href="#CMR17-49"/>
       <use transform="translate(45.690477 0)scale(0.996264)" xlink:href="#CMR17-48"/>
       <use transform="translate(91.380954 36.153639)scale(0.697382)" xlink:href="#CMSY10-0"/>
       <use transform="translate(145.621947 36.153639)scale(0.697382)" xlink:href="#CMR17-54"/>
      </g>
     </g>
    </g>
    <g id="ytick_7">
     <g id="line2d_23">
      <path clip-path="url(#p4d298a73eb)" d="M 52.294451 73.101668 
L 387.094451 73.101668 
" style="fill:none;stroke:#b0b0b0;stroke-dasharray:0.8,1.32;stroke-dashoffset:0;stroke-width:0.8;"/>
     </g>
     <g id="line2d_24">
      <g>
       <use style="stroke:#000000;stroke-width:0.8;" x="52.294451" xlink:href="#m5c7372a6a7" y="73.101668"/>
      </g>
     </g>
     <g id="text_13">
      <!-- $10^{-4}$ -->
      <g transform="translate(25.133878 76.560918)scale(0.1 -0.1)">
       <use transform="scale(0.996264)" xlink:href="#CMR17-49"/>
       <use transform="translate(45.690477 0)scale(0.996264)" xlink:href="#CMR17-48"/>
       <use transform="translate(91.380954 36.153639)scale(0.697382)" xlink:href="#CMSY10-0"/>
       <use transform="translate(145.621947 36.153639)scale(0.697382)" xlink:href="#CMR17-52"/>
      </g>
     </g>
    </g>
    <g id="ytick_8">
     <g id="line2d_25">
      <path clip-path="url(#p4d298a73eb)" d="M 52.294451 46.541946 
L 387.094451 46.541946 
" style="fill:none;stroke:#b0b0b0;stroke-dasharray:0.8,1.32;stroke-dashoffset:0;stroke-width:0.8;"/>
     </g>
     <g id="line2d_26">
      <g>
       <use style="stroke:#000000;stroke-width:0.8;" x="52.294451" xlink:href="#m5c7372a6a7" y="46.541946"/>
      </g>
     </g>
     <g id="text_14">
      <!-- $10^{-2}$ -->
      <g transform="translate(25.133878 50.001196)scale(0.1 -0.1)">
       <use transform="scale(0.996264)" xlink:href="#CMR17-49"/>
       <use transform="translate(45.690477 0)scale(0.996264)" xlink:href="#CMR17-48"/>
       <use transform="translate(91.380954 36.153639)scale(0.697382)" xlink:href="#CMSY10-0"/>
       <use transform="translate(145.621947 36.153639)scale(0.697382)" xlink:href="#CMR17-50"/>
      </g>
     </g>
    </g>
    <g id="ytick_9">
     <g id="line2d_27">
      <path clip-path="url(#p4d298a73eb)" d="M 52.294451 19.982224 
L 387.094451 19.982224 
" style="fill:none;stroke:#b0b0b0;stroke-dasharray:0.8,1.32;stroke-dashoffset:0;stroke-width:0.8;"/>
     </g>
     <g id="line2d_28">
      <g>
       <use style="stroke:#000000;stroke-width:0.8;" x="52.294451" xlink:href="#m5c7372a6a7" y="19.982224"/>
      </g>
     </g>
     <g id="text_15">
      <!-- $10^{0}$ -->
      <g transform="translate(31.360543 23.441474)scale(0.1 -0.1)">
       <use transform="scale(0.996264)" xlink:href="#CMR17-49"/>
       <use transform="translate(45.690477 0)scale(0.996264)" xlink:href="#CMR17-48"/>
       <use transform="translate(91.380954 36.153639)scale(0.697382)" xlink:href="#CMR17-48"/>
      </g>
     </g>
    </g>
    <g id="text_16">
     <!-- $A$-norm of error: $\| x-x_k \|_A$ -->
     <defs>
      <path d="M 17 11.25 
C 13.5 5.234375 10.09375 3.203125 5.296875 2.890625 
C 4.203125 2.796875 3.40625 2.796875 3.40625 1 
C 3.40625 0.390625 3.90625 0 4.59375 0 
C 6.40625 0 10.90625 0.1875 12.703125 0.1875 
C 15.59375 0.1875 18.796875 0 21.59375 0 
C 22.203125 0 23.40625 0 23.40625 1.890625 
C 23.40625 2.796875 22.59375 2.890625 22 2.890625 
C 19.703125 3.09375 17.796875 3.90625 17.796875 6.359375 
C 17.796875 7.78125 18.40625 8.90625 19.703125 11.15625 
L 27.296875 24 
L 52.796875 24 
C 52.90625 23.078125 52.90625 22.265625 53 21.34375 
C 53.296875 18.6875 54.5 8.09375 54.5 6.15625 
C 54.5 3.09375 49.40625 2.890625 47.796875 2.890625 
C 46.703125 2.890625 45.59375 2.890625 45.59375 1.09375 
C 45.59375 0 46.5 0 47.09375 0 
C 48.796875 0 50.796875 0.1875 52.5 0.1875 
L 58.203125 0.1875 
C 64.296875 0.1875 68.703125 0 68.796875 0 
C 69.5 0 70.59375 0 70.59375 1.890625 
C 70.59375 2.890625 69.703125 2.890625 68.203125 2.890625 
C 62.703125 2.890625 62.59375 3.8125 62.296875 6.875 
L 56.203125 68.796875 
C 56 70.796875 55.59375 71 54.5 71 
C 53.5 71 52.90625 70.796875 52 69.296875 
z
M 29 26.890625 
L 49.09375 59.859375 
L 52.5 26.890625 
z
" id="CMMI12-65"/>
      <path d="M 25.5 19.59375 
L 25.5 24 
L 0.40625 24 
L 0.40625 19.59375 
z
" id="CMR17-45"/>
      <path d="M 67.59375 30.53125 
C 67.59375 35.5625 66.703125 44 54.796875 44 
C 48 44 43.296875 39.375 41.5 33.953125 
L 41.40625 33.953125 
C 40.203125 42.1875 34.296875 44 28.703125 44 
C 20.796875 44 16.703125 37.875 15.203125 33.84375 
L 15.09375 33.84375 
L 15.09375 44 
L 3.296875 42.890625 
L 3.296875 40.28125 
C 9.203125 40.28125 10.09375 39.6875 10.09375 34.859375 
L 10.09375 6.921875 
C 10.09375 3.09375 9.703125 2.59375 3.296875 2.59375 
L 3.296875 0 
C 5.703125 0.1875 10.09375 0.1875 12.703125 0.1875 
C 15.296875 0.1875 19.796875 0.1875 22.203125 0 
L 22.203125 2.59375 
C 15.796875 2.59375 15.40625 3 15.40625 6.921875 
L 15.40625 26.21875 
C 15.40625 35.453125 21 42.390625 28 42.390625 
C 35.40625 42.390625 36.203125 35.765625 36.203125 30.9375 
L 36.203125 6.921875 
C 36.203125 3.09375 35.796875 2.59375 29.40625 2.59375 
L 29.40625 0 
C 31.796875 0.1875 36.203125 0.1875 38.796875 0.1875 
C 41.40625 0.1875 45.90625 0.1875 48.296875 0 
L 48.296875 2.59375 
C 41.90625 2.59375 41.5 3 41.5 6.921875 
L 41.5 26.21875 
C 41.5 35.453125 47.09375 42.390625 54.09375 42.390625 
C 61.5 42.390625 62.296875 35.765625 62.296875 30.9375 
L 62.296875 6.921875 
C 62.296875 3.09375 61.90625 2.59375 55.5 2.59375 
L 55.5 0 
C 57.90625 0.1875 62.296875 0.1875 64.90625 0.1875 
C 67.5 0.1875 72 0.1875 74.40625 0 
L 74.40625 2.59375 
C 68 2.59375 67.59375 3 67.59375 6.921875 
z
" id="CMR17-109"/>
      <path d="M 15.296875 40.390625 
L 26.703125 40.390625 
L 26.703125 43 
L 15.09375 43 
L 15.09375 55.296875 
C 15.09375 63.6875 19.296875 68.390625 23.59375 68.390625 
C 24.90625 68.390625 26.40625 68.171875 27.40625 67.796875 
C 26.59375 67.59375 24.5 66.890625 24.5 64.390625 
C 24.5 61.796875 26.5 61 27.90625 61 
C 29.296875 61 31.296875 61.796875 31.296875 64.390625 
C 31.296875 68.015625 27.703125 70 23.703125 70 
C 18 70 10.203125 65.796875 10.203125 55.09375 
L 10.203125 43 
L 2.203125 43 
L 2.203125 40.390625 
L 10.203125 40.390625 
L 10.203125 6.890625 
C 10.203125 3.09375 9.796875 2.59375 3.40625 2.59375 
L 3.40625 0 
C 5.796875 0.1875 10.40625 0.1875 13 0.1875 
C 15.90625 0.1875 21 0.1875 23.703125 0 
L 23.703125 2.59375 
C 16.5 2.59375 15.296875 2.59375 15.296875 7.09375 
z
" id="CMR17-102"/>
      <path d="M 16.59375 38.890625 
C 16.59375 41.390625 14.59375 43 12.5 43 
C 10.5 43 8.40625 41.390625 8.40625 38.890625 
C 8.40625 36.390625 10.40625 34.796875 12.5 34.796875 
C 14.5 34.796875 16.59375 36.390625 16.59375 38.890625 
z
M 16.59375 4.09375 
C 16.59375 6.59375 14.59375 8.1875 12.5 8.1875 
C 10.5 8.1875 8.40625 6.59375 8.40625 4.09375 
C 8.40625 1.59375 10.40625 0 12.5 0 
C 14.5 0 16.59375 1.59375 16.59375 4.09375 
z
" id="CMR17-58"/>
      <path d="M 17.203125 71.59375 
C 17.203125 73.1875 17.203125 75 15.203125 75 
C 13.203125 75 13.203125 72.796875 13.203125 71.296875 
L 13.203125 -21.3125 
C 13.203125 -22.90625 13.203125 -25 15.203125 -25 
C 17.203125 -25 17.203125 -23.203125 17.203125 -21.609375 
z
M 36.703125 71.296875 
C 36.703125 72.890625 36.703125 75 34.703125 75 
C 32.703125 75 32.703125 73.1875 32.703125 71.59375 
L 32.703125 -21.609375 
C 32.703125 -23.203125 32.703125 -25 34.703125 -25 
C 36.703125 -25 36.703125 -22.8125 36.703125 -21.3125 
z
" id="CMSY10-107"/>
      <path d="M 47.40625 41 
C 44.203125 40.390625 43 37.984375 43 36.09375 
C 43 33.6875 44.90625 32.890625 46.296875 32.890625 
C 49.296875 32.890625 51.40625 35.484375 51.40625 38.1875 
C 51.40625 42.09375 46.59375 44 42.40625 44 
C 36.296875 44 32.90625 38.296875 32 36.390625 
C 29.703125 43.59375 23.5 44 21.703125 44 
C 11.5 44 6.09375 31.140625 6.09375 28.890625 
C 6.09375 28.484375 6.5 27.96875 7.203125 27.96875 
C 8 27.96875 8.203125 28.578125 8.40625 28.984375 
C 11.796875 40.1875 18.5 41.984375 21.40625 41.984375 
C 25.90625 41.984375 26.796875 38.09375 26.796875 35.6875 
C 26.796875 33.484375 26.203125 31.140625 25 26.21875 
L 21.59375 12.15625 
C 20.09375 6.09375 17.203125 1 11.90625 1 
C 11.40625 1 8.90625 1 6.796875 1.96875 
C 10.40625 2.59375 11.203125 5.59375 11.203125 6.796875 
C 11.203125 8.796875 9.703125 10 7.796875 10 
C 5.40625 10 2.796875 7.890625 2.796875 4.6875 
C 2.796875 0.890625 7.5 -1 11.796875 -1 
C 16.59375 -1 20 2.390625 22.09375 6.484375 
C 23.703125 1 28.703125 -1 32.40625 -1 
C 42.59375 -1 48 11.734375 48 14 
C 48 14.515625 47.59375 14.921875 47 14.921875 
C 46.09375 14.921875 46 14.40625 45.703125 13.59375 
C 43 4.6875 37.203125 1 32.703125 1 
C 29.203125 1 27.296875 3.1875 27.296875 7.296875 
C 27.296875 9.484375 27.703125 11.125 29.296875 17.90625 
L 32.796875 31.859375 
C 34.296875 37.890625 37.703125 41.984375 42.296875 41.984375 
C 42.5 41.984375 45.296875 41.984375 47.40625 41 
z
" id="CMMI12-120"/>
     </defs>
     <g transform="translate(15.225462 182.035642)rotate(-90)scale(0.1 -0.1)">
      <use transform="translate(0 14.943915)scale(0.996264)" xlink:href="#CMMI12-65"/>
      <use transform="translate(73.127885 14.943915)scale(0.996264)" xlink:href="#CMR17-45"/>
      <use transform="translate(103.203852 14.943915)scale(0.996264)" xlink:href="#CMR17-110"/>
      <use transform="translate(154.099221 14.943915)scale(0.996264)" xlink:href="#CMR17-111"/>
      <use transform="translate(199.789699 14.943915)scale(0.996264)" xlink:href="#CMR17-114"/>
      <use transform="translate(235.070466 14.943915)scale(0.996264)" xlink:href="#CMR17-109"/>
      <use transform="translate(342.066023 14.943915)scale(0.996264)" xlink:href="#CMR17-111"/>
      <use transform="translate(387.7565 14.943915)scale(0.996264)" xlink:href="#CMR17-102"/>
      <use transform="translate(445.305978 14.943915)scale(0.996264)" xlink:href="#CMR17-101"/>
      <use transform="translate(485.791639 14.943915)scale(0.996264)" xlink:href="#CMR17-114"/>
      <use transform="translate(521.072407 14.943915)scale(0.996264)" xlink:href="#CMR17-114"/>
      <use transform="translate(556.353174 14.943915)scale(0.996264)" xlink:href="#CMR17-111"/>
      <use transform="translate(602.043652 14.943915)scale(0.996264)" xlink:href="#CMR17-114"/>
      <use transform="translate(637.324419 14.943915)scale(0.996264)" xlink:href="#CMR17-58"/>
      <use transform="translate(702.681138 14.943915)scale(0.996264)" xlink:href="#CMSY10-107"/>
      <use transform="translate(752.494521 14.943915)scale(0.996264)" xlink:href="#CMMI12-120"/>
      <use transform="translate(830.067788 14.943915)scale(0.996264)" xlink:href="#CMSY10-0"/>
      <use transform="translate(929.694462 14.943915)scale(0.996264)" xlink:href="#CMMI12-120"/>
      <use transform="translate(985.128522 0)scale(0.697382)" xlink:href="#CMMI12-107"/>
      <use transform="translate(1023.481904 14.943915)scale(0.996264)" xlink:href="#CMSY10-107"/>
      <use transform="translate(1073.295287 0)scale(0.697382)" xlink:href="#CMMI12-65"/>
     </g>
    </g>
   </g>
   <g id="line2d_29">
    <path clip-path="url(#p4d298a73eb)" d="M 67.512633 19.982224 
L 67.817301 41.526165 
L 69.035974 54.488107 
L 69.645311 61.536549 
L 70.254648 67.919221 
L 70.559316 70.150487 
L 71.168653 72.257789 
L 71.777989 73.408434 
L 72.082657 74.245245 
L 72.691994 77.001674 
L 72.996662 78.648613 
L 73.301331 79.433356 
L 73.605999 79.903526 
L 74.215336 80.180553 
L 77.262019 80.407454 
L 77.566687 80.851889 
L 77.871355 82.730021 
L 78.480692 90.484688 
L 78.78536 91.791476 
L 79.090029 91.999126 
L 79.699365 92.080037 
L 81.527375 92.130177 
L 81.832043 92.451246 
L 82.136712 93.375424 
L 82.44138 95.714876 
L 82.746048 100.169855 
L 83.050716 101.143301 
L 83.355385 101.422372 
L 84.26939 101.483534 
L 85.488063 101.540444 
L 85.792731 101.619099 
L 86.0974 102.376572 
L 86.402068 103.558852 
L 87.011404 107.578946 
L 87.316073 107.841704 
L 88.534746 107.904739 
L 90.362756 107.944449 
L 90.667424 108.398397 
L 90.972092 108.652577 
L 91.886097 108.737817 
L 105.900839 108.923393 
L 106.205508 109.452023 
L 106.510176 110.695372 
L 106.814844 111.256491 
L 107.728849 111.496915 
L 108.642854 111.590559 
L 110.166196 111.654749 
L 110.470864 112.040473 
L 110.775532 114.322743 
L 111.0802 114.908321 
L 111.384869 117.339122 
L 111.994205 119.674856 
L 112.298874 119.871757 
L 113.517547 119.914466 
L 114.73622 119.929548 
L 115.040888 120.068497 
L 115.650225 120.592967 
L 116.56423 120.637921 
L 128.750962 120.68182 
L 129.360299 121.445364 
L 129.969635 121.877531 
L 130.578972 122.002603 
L 133.016318 122.144712 
L 133.320987 123.25742 
L 133.930323 129.35939 
L 134.234992 129.642744 
L 134.844328 129.760529 
L 137.281675 129.87013 
L 137.586343 130.260323 
L 140.937694 130.272309 
L 147.03106 130.31575 
L 147.945065 130.441936 
L 150.382412 130.49849 
L 150.68708 130.764953 
L 150.991748 133.382632 
L 151.296417 137.89358 
L 151.601085 139.194429 
L 151.905753 139.928576 
L 152.819758 140.025235 
L 154.952436 140.042172 
L 155.866441 140.334477 
L 157.389783 140.362739 
L 161.655139 140.469259 
L 161.959807 140.660812 
L 163.483149 140.721456 
L 165.615827 140.767551 
L 165.920495 142.365096 
L 166.8345 150.351453 
L 167.139169 151.93696 
L 167.748505 152.072665 
L 175.060544 152.102386 
L 175.365213 152.268184 
L 175.669881 157.239546 
L 175.974549 158.536377 
L 176.583886 159.278335 
L 177.802559 160.363038 
L 180.239906 160.513147 
L 181.153911 161.957075 
L 181.458579 163.825785 
L 181.763247 164.784135 
L 182.067915 164.992028 
L 182.98192 165.063316 
L 190.903296 165.066332 
L 191.512633 165.296127 
L 193.035974 165.327306 
L 193.949979 165.35322 
L 194.254648 165.441945 
L 194.559316 165.864034 
L 194.863984 165.991661 
L 195.168653 166.643523 
L 196.082657 170.367001 
L 196.387326 170.559948 
L 197.301331 170.618238 
L 198.520004 170.708947 
L 198.824672 170.781978 
L 199.129341 171.298031 
L 199.434009 176.272407 
L 199.738677 177.887719 
L 200.043345 178.388847 
L 200.652682 178.57636 
L 213.144083 178.727179 
L 213.448751 180.153452 
L 214.058087 185.112155 
L 214.362756 186.969499 
L 214.667424 187.537229 
L 216.190766 187.598598 
L 217.714107 187.706586 
L 218.018775 188.522617 
L 218.323444 190.5086 
L 218.628112 191.55198 
L 219.237449 191.866679 
L 220.76079 191.892429 
L 231.728849 191.97508 
L 232.033517 192.02204 
L 232.338186 192.319915 
L 232.947522 194.479149 
L 233.252191 194.773367 
L 233.861527 194.859813 
L 235.994205 194.881679 
L 236.298874 195.014548 
L 236.603542 202.099125 
L 236.90821 203.707593 
L 237.212879 204.1478 
L 239.954893 204.226048 
L 240.56423 204.43816 
L 250.008947 204.593024 
L 250.313616 204.88132 
L 250.618284 205.400524 
L 251.532289 205.496787 
L 253.969635 205.554065 
L 254.274304 207.047005 
L 254.578972 207.461943 
L 255.492977 207.519541 
L 258.234992 207.58062 
L 258.844328 207.691077 
L 265.547031 207.696393 
L 371.876269 207.738197 
L 371.876269 207.738197 
" style="fill:none;stroke:#93a1a1;stroke-linecap:square;stroke-width:1.5;"/>
    <defs>
     <path d="M 0 3 
C 0.795609 3 1.55874 2.683901 2.12132 2.12132 
C 2.683901 1.55874 3 0.795609 3 0 
C 3 -0.795609 2.683901 -1.55874 2.12132 -2.12132 
C 1.55874 -2.683901 0.795609 -3 0 -3 
C -0.795609 -3 -1.55874 -2.683901 -2.12132 -2.12132 
C -2.683901 -1.55874 -3 -0.795609 -3 0 
C -3 0.795609 -2.683901 1.55874 -2.12132 2.12132 
C -1.55874 2.683901 -0.795609 3 0 3 
z
" id="m985657cbd2" style="stroke:#93a1a1;"/>
    </defs>
    <g clip-path="url(#p4d298a73eb)">
     <use style="fill:#93a1a1;stroke:#93a1a1;" x="67.512633" xlink:href="#m985657cbd2" y="19.982224"/>
     <use style="fill:#93a1a1;stroke:#93a1a1;" x="128.446294" xlink:href="#m985657cbd2" y="120.655579"/>
     <use style="fill:#93a1a1;stroke:#93a1a1;" x="189.379955" xlink:href="#m985657cbd2" y="165.064313"/>
     <use style="fill:#93a1a1;stroke:#93a1a1;" x="250.313616" xlink:href="#m985657cbd2" y="204.88132"/>
     <use style="fill:#93a1a1;stroke:#93a1a1;" x="311.247277" xlink:href="#m985657cbd2" y="207.738197"/>
    </g>
   </g>
   <g id="line2d_30">
    <path clip-path="url(#p4d298a73eb)" d="M 67.512633 19.982224 
L 67.817301 41.52312 
L 69.035974 54.292125 
L 70.559316 69.703323 
L 70.863984 70.990271 
L 72.082657 73.68518 
L 73.301331 78.708799 
L 73.910667 79.71584 
L 74.215336 80.034188 
L 74.824672 80.198411 
L 77.566687 80.269315 
L 78.176024 80.986364 
L 78.78536 85.165903 
L 79.090029 89.334476 
L 79.394697 91.073981 
L 79.699365 91.787577 
L 80.004033 92.03358 
L 81.527375 92.085659 
L 82.746048 92.150388 
L 83.050716 92.414016 
L 83.355385 93.445439 
L 84.26939 100.828078 
L 84.878726 101.399632 
L 85.488063 101.480212 
L 87.925409 101.578882 
L 89.448751 102.058641 
L 89.753419 102.339333 
L 90.058087 102.979396 
L 90.362756 105.632064 
L 90.667424 107.220245 
L 90.972092 107.663778 
L 91.581429 107.902863 
L 94.628112 107.946975 
L 95.846785 108.733468 
L 99.198137 108.75184 
L 108.033517 108.766405 
L 115.345557 108.873201 
L 115.954893 108.940709 
L 116.259562 109.110733 
L 116.868898 109.718528 
L 117.173567 110.996245 
L 117.478235 111.572376 
L 120.524918 111.795322 
L 120.829586 112.249785 
L 121.438923 114.822798 
L 121.743591 118.188607 
L 122.048259 118.718144 
L 122.352928 119.701746 
L 122.657596 119.879484 
L 124.790274 119.916342 
L 126.922952 119.999298 
L 127.227621 120.478915 
L 127.836957 120.631514 
L 137.586343 120.643899 
L 145.203051 120.701608 
L 145.507719 121.039533 
L 145.812387 121.609225 
L 146.421724 121.919343 
L 147.03106 122.014171 
L 148.85907 122.02379 
L 149.468407 122.296339 
L 149.773075 122.838651 
L 150.382412 128.713313 
L 150.68708 129.547169 
L 151.296417 129.701071 
L 154.647768 129.859084 
L 155.561773 130.034915 
L 158.303788 130.237598 
L 173.841871 130.318384 
L 174.755876 130.37315 
L 177.802559 130.463281 
L 178.107228 130.799119 
L 178.716564 132.677585 
L 179.325901 135.731193 
L 179.630569 136.173092 
L 181.763247 136.224034 
L 183.591257 136.294018 
L 183.895925 136.443398 
L 184.80993 140.148478 
L 185.419267 140.286855 
L 201.871355 140.514391 
L 202.176024 140.611599 
L 202.480692 141.437369 
L 203.090029 145.21988 
L 203.394697 146.05438 
L 203.699365 146.548892 
L 204.308702 146.700488 
L 207.355385 146.76525 
L 207.964721 147.26795 
L 208.574058 150.328294 
L 208.878726 150.874858 
L 209.183395 150.952203 
L 209.488063 151.166256 
L 209.792731 151.546064 
L 210.402068 151.805525 
L 211.925409 151.839817 
L 229.596171 151.950926 
L 230.814844 152.034657 
L 231.119513 152.643698 
L 231.424181 153.723804 
L 231.728849 156.133194 
L 232.338186 156.849631 
L 232.947522 156.994783 
L 235.0802 157.024877 
L 236.90821 157.105611 
L 237.212879 157.282167 
L 237.822215 158.100938 
L 238.126884 162.033773 
L 238.431552 163.239973 
L 238.73622 163.644827 
L 239.345557 163.849903 
L 242.39224 163.93931 
L 242.696908 164.070847 
L 243.001576 164.356577 
L 243.915581 164.593497 
L 245.743591 164.617293 
L 259.148997 164.720409 
L 259.453665 165.005481 
L 259.758333 165.565073 
L 260.977006 168.649459 
L 262.19568 168.721789 
L 265.242363 168.775918 
L 265.547031 169.180765 
L 265.851699 169.862392 
L 266.156368 171.280912 
L 266.461036 174.520864 
L 266.765704 175.338791 
L 267.375041 175.729941 
L 269.507719 175.752682 
L 271.335729 175.821545 
L 272.249734 176.119887 
L 274.68708 176.146222 
L 289.311159 176.201468 
L 289.920495 176.479763 
L 290.225164 176.717915 
L 292.66251 176.744518 
L 294.49052 176.822809 
L 294.795188 176.966144 
L 295.404525 183.49726 
L 295.709193 184.242317 
L 296.623198 184.351944 
L 299.060544 184.38319 
L 299.669881 185.08086 
L 300.279218 185.147306 
L 317.340643 185.309798 
L 317.645311 185.564444 
L 317.949979 186.27934 
L 318.254648 188.673198 
L 318.863984 188.894792 
L 320.691994 188.991745 
L 322.520004 189.064359 
L 322.824672 189.484532 
L 323.129341 189.703712 
L 323.738677 189.870086 
L 324.348014 190.892258 
L 324.652682 192.051996 
L 324.95735 194.938092 
L 325.262019 195.651099 
L 325.566687 195.95068 
L 326.176024 196.110546 
L 335.620741 196.375909 
L 346.284132 196.4256 
L 346.893468 196.626914 
L 347.198137 197.002953 
L 347.807473 197.244679 
L 348.41681 197.305339 
L 350.549488 197.333009 
L 351.768161 198.303391 
L 352.072829 199.314583 
L 352.377498 199.905142 
L 352.682166 200.210325 
L 353.596171 201.971104 
L 353.900839 203.214666 
L 354.205508 203.751887 
L 354.510176 204.907607 
L 356.338186 204.938449 
L 357.861527 204.959666 
L 358.775532 205.386529 
L 359.689537 205.443824 
L 371.876269 205.465412 
L 371.876269 205.465412 
" style="fill:none;stroke:#93a1a1;stroke-linecap:square;stroke-width:1.5;"/>
    <defs>
     <path d="M 0 -3 
L -3 3 
L 3 3 
z
" id="m4832dce83f" style="stroke:#93a1a1;stroke-linejoin:miter;"/>
    </defs>
    <g clip-path="url(#p4d298a73eb)">
     <use style="fill:#93a1a1;stroke:#93a1a1;stroke-linejoin:miter;" x="82.746048" xlink:href="#m4832dce83f" y="92.150388"/>
     <use style="fill:#93a1a1;stroke:#93a1a1;stroke-linejoin:miter;" x="143.679709" xlink:href="#m4832dce83f" y="120.651274"/>
     <use style="fill:#93a1a1;stroke:#93a1a1;stroke-linejoin:miter;" x="204.61337" xlink:href="#m4832dce83f" y="146.712024"/>
     <use style="fill:#93a1a1;stroke:#93a1a1;stroke-linejoin:miter;" x="265.547031" xlink:href="#m4832dce83f" y="169.180765"/>
     <use style="fill:#93a1a1;stroke:#93a1a1;stroke-linejoin:miter;" x="326.480692" xlink:href="#m4832dce83f" y="196.122392"/>
    </g>
   </g>
   <g id="line2d_31">
    <path clip-path="url(#p4d298a73eb)" d="M 67.512633 19.982224 
L 67.817301 41.516564 
L 69.035974 54.201872 
L 70.559316 69.671496 
L 71.168653 71.582155 
L 71.777989 72.909255 
L 72.082657 73.648225 
L 73.301331 78.67916 
L 73.910667 79.729305 
L 74.215336 80.045341 
L 75.129341 80.208091 
L 77.566687 80.275508 
L 77.871355 80.395389 
L 78.176024 80.924976 
L 79.090029 88.427119 
L 79.394697 91.127856 
L 79.699365 91.882236 
L 80.004033 92.048899 
L 82.746048 92.275545 
L 83.050716 92.658138 
L 83.355385 93.586224 
L 83.660053 95.84253 
L 83.964721 100.459811 
L 84.26939 101.073752 
L 84.574058 101.367825 
L 85.183395 101.482397 
L 87.316073 101.58049 
L 87.620741 102.117439 
L 87.925409 103.022781 
L 88.534746 106.457989 
L 89.144083 107.813521 
L 90.058087 107.903061 
L 93.409439 107.982192 
L 94.323444 108.683558 
L 95.237449 108.743566 
L 111.994205 108.979227 
L 112.298874 109.11661 
L 112.603542 111.280045 
L 112.90821 111.55171 
L 113.822215 111.593125 
L 115.650225 111.678633 
L 115.954893 113.066642 
L 116.259562 117.290866 
L 116.868898 119.440823 
L 117.173567 119.858369 
L 118.087571 119.913898 
L 119.915581 119.988588 
L 120.524918 120.217308 
L 120.829586 120.511184 
L 121.438923 120.616158 
L 124.790274 120.638175 
L 136.36767 120.718537 
L 136.672338 120.991033 
L 136.977006 121.687421 
L 137.586343 121.993806 
L 140.023689 122.130613 
L 140.328358 122.604713 
L 140.937694 125.12763 
L 141.547031 129.234016 
L 141.851699 129.748585 
L 144.898382 129.766223 
L 146.421724 129.86614 
L 146.726392 130.104553 
L 147.640397 130.269235 
L 160.131798 130.450596 
L 161.655139 130.778941 
L 161.959807 133.279981 
L 163.178481 139.786447 
L 163.787817 139.979438 
L 165.311159 140.027781 
L 167.139169 140.046065 
L 167.748505 140.285822 
L 168.357842 140.359013 
L 173.232535 140.404777 
L 173.841871 140.702692 
L 177.193223 140.726334 
L 178.411896 140.797712 
L 178.716564 141.048199 
L 179.021232 143.98567 
L 179.325901 149.010177 
L 179.630569 150.024821 
L 180.544574 150.193502 
L 183.286589 150.236663 
L 183.591257 150.381879 
L 183.895925 150.882319 
L 184.200594 151.976765 
L 184.80993 152.066071 
L 195.473321 152.139272 
L 195.777989 152.367766 
L 196.387326 153.542775 
L 196.691994 154.415861 
L 196.996662 154.719311 
L 199.129341 154.763392 
L 199.738677 154.778978 
L 200.043345 155.049452 
L 200.652682 157.530868 
L 200.95735 160.867419 
L 201.566687 164.585227 
L 201.871355 164.993904 
L 202.480692 165.062746 
L 212.534746 165.187226 
L 213.144083 165.351242 
L 216.800102 165.458484 
L 217.409439 166.104527 
L 217.714107 166.79214 
L 218.323444 176.495666 
L 218.628112 177.311757 
L 218.93278 177.532437 
L 220.456122 177.581575 
L 221.674795 177.661498 
L 222.893468 178.540793 
L 224.112142 178.570569 
L 237.517547 178.610067 
L 237.822215 178.688549 
L 238.431552 179.753992 
L 238.73622 180.83302 
L 239.040888 181.483824 
L 240.56423 181.553905 
L 243.001576 181.660187 
L 243.610913 182.289186 
L 243.915581 184.098134 
L 244.524918 188.763823 
L 245.134255 191.624598 
L 245.743591 191.699114 
L 248.485606 191.773253 
L 249.399611 191.907774 
L 264.328358 192.037631 
L 264.937694 192.314042 
L 268.289046 192.602068 
L 268.898382 194.564747 
L 269.203051 197.187212 
L 269.507719 201.836258 
L 269.812387 202.36082 
L 270.117056 203.150038 
L 270.726392 203.264706 
L 274.68708 203.307187 
L 274.991748 203.352109 
L 275.601085 203.894088 
L 276.51509 203.977787 
L 289.615827 204.020616 
L 289.920495 204.093397 
L 291.443837 205.83605 
L 292.357842 205.936768 
L 295.099857 205.955624 
L 296.31853 206.463641 
L 300.279218 206.470429 
L 309.114599 206.467678 
L 371.876269 206.514214 
L 371.876269 206.514214 
" style="fill:none;stroke:#93a1a1;stroke-linecap:square;stroke-width:1.5;"/>
    <defs>
     <path d="M -0 3 
L 3 -3 
L -3 -3 
z
" id="m6113319ad6" style="stroke:#93a1a1;stroke-linejoin:miter;"/>
    </defs>
    <g clip-path="url(#p4d298a73eb)">
     <use style="fill:#93a1a1;stroke:#93a1a1;stroke-linejoin:miter;" x="97.979463" xlink:href="#m6113319ad6" y="108.748794"/>
     <use style="fill:#93a1a1;stroke:#93a1a1;stroke-linejoin:miter;" x="158.913124" xlink:href="#m6113319ad6" y="130.446587"/>
     <use style="fill:#93a1a1;stroke:#93a1a1;stroke-linejoin:miter;" x="219.846785" xlink:href="#m6113319ad6" y="177.580434"/>
     <use style="fill:#93a1a1;stroke:#93a1a1;stroke-linejoin:miter;" x="280.780446" xlink:href="#m6113319ad6" y="203.982552"/>
     <use style="fill:#93a1a1;stroke:#93a1a1;stroke-linejoin:miter;" x="341.714107" xlink:href="#m6113319ad6" y="206.514212"/>
    </g>
   </g>
   <g id="line2d_32">
    <path clip-path="url(#p4d298a73eb)" d="M 67.512633 19.982224 
L 67.817301 41.498371 
L 68.731306 52.370897 
L 69.035974 54.08906 
L 70.559316 68.917003 
L 71.168653 70.756145 
L 72.691994 74.704598 
L 74.215336 78.877308 
L 74.824672 79.968722 
L 76.043345 80.203596 
L 79.699365 80.329369 
L 80.308702 81.447951 
L 80.61337 82.803368 
L 81.222707 83.370772 
L 83.050716 83.204326 
L 86.402068 83.109627 
L 86.706736 82.686336 
L 87.316073 80.244295 
L 87.925409 75.835009 
L 88.534746 73.272025 
L 88.839414 70.337414 
L 89.144083 64.210741 
L 89.448751 69.492561 
L 89.753419 72.807448 
L 90.058087 73.659929 
L 90.972092 74.057424 
L 92.800102 74.125833 
L 94.628112 74.209011 
L 94.93278 74.579793 
L 95.237449 76.42348 
L 95.542117 77.393988 
L 95.846785 81.034977 
L 96.151454 82.230925 
L 96.456122 82.837835 
L 97.065458 82.570051 
L 98.5888 82.527763 
L 101.330815 82.480082 
L 101.635483 82.407636 
L 101.940151 82.054614 
L 102.24482 79.835966 
L 102.549488 71.532269 
L 102.854156 76.715463 
L 103.158825 79.324337 
L 103.463493 79.669058 
L 104.682166 79.832916 
L 107.728849 79.983648 
L 109.556859 80.013134 
L 110.166196 80.249933 
L 110.470864 80.67155 
L 111.0802 82.839906 
L 111.384869 80.249691 
L 111.994205 79.237214 
L 113.517547 79.089242 
L 115.345557 79.044121 
L 115.954893 78.845166 
L 116.259562 78.437182 
L 116.56423 77.058515 
L 116.868898 73.757524 
L 117.173567 76.921762 
L 117.478235 83.671811 
L 117.782903 84.136625 
L 118.696908 84.309803 
L 120.22025 84.380914 
L 125.399611 84.516755 
L 125.704279 84.759949 
L 126.008947 84.664674 
L 126.313616 82.689912 
L 126.922952 65.887167 
L 127.227621 52.190784 
L 127.532289 54.830987 
L 127.836957 59.082577 
L 128.446294 60.537158 
L 129.05563 60.706587 
L 129.969635 60.888728 
L 130.274304 61.40867 
L 131.188309 63.917784 
L 132.102314 71.712585 
L 132.406982 76.291426 
L 132.71165 79.082336 
L 133.016318 82.978249 
L 133.320987 84.830947 
L 133.625655 85.163925 
L 134.53966 84.936229 
L 140.937694 84.833106 
L 141.242363 83.922984 
L 141.547031 72.82382 
L 141.851699 82.437882 
L 142.461036 83.195754 
L 143.984377 83.260541 
L 147.03106 83.318062 
L 147.945065 83.876653 
L 148.85907 85.20481 
L 149.163739 85.347904 
L 149.773075 85.302681 
L 150.382412 84.086064 
L 150.68708 82.920713 
L 150.991748 80.787446 
L 151.296417 79.607337 
L 152.210422 78.78006 
L 153.429095 78.733036 
L 155.257105 78.645885 
L 155.866441 78.400571 
L 156.17111 77.354401 
L 156.475778 68.289746 
L 156.780446 81.45981 
L 157.085114 83.887273 
L 157.389783 85.08069 
L 161.655139 84.993484 
L 165.311159 84.889815 
L 165.615827 84.315687 
L 165.920495 80.653577 
L 166.225164 81.092685 
L 166.8345 82.352062 
L 167.748505 82.608114 
L 170.49052 82.682999 
L 170.795188 82.790204 
L 171.099857 83.130586 
L 172.31853 83.494639 
L 172.623198 83.80654 
L 173.537203 85.483732 
L 173.841871 85.296767 
L 174.451208 82.194472 
L 174.755876 81.878059 
L 175.060544 81.334586 
L 175.669881 81.181172 
L 179.630569 80.971915 
L 179.935237 80.751009 
L 180.239906 79.520169 
L 180.544574 80.643299 
L 181.153911 85.58672 
L 181.458579 85.908145 
L 182.067915 86.078984 
L 188.770618 86.138294 
L 189.075286 85.070644 
L 189.379955 80.8964 
L 189.684623 74.365993 
L 189.989291 61.156902 
L 190.598628 73.346548 
L 190.903296 74.489293 
L 191.512633 75.305373 
L 192.12197 75.517793 
L 194.559316 75.604019 
L 195.473321 75.760491 
L 196.387326 75.938963 
L 197.605999 76.289379 
L 197.910667 77.571542 
L 198.520004 84.320875 
L 198.824672 86.343507 
L 199.129341 86.4418 
L 199.434009 86.302418 
L 199.738677 86.034839 
L 200.348014 85.931147 
L 204.61337 85.720864 
L 205.222707 85.209125 
L 205.527375 84.935224 
L 205.832043 84.511347 
L 207.050716 81.165232 
L 209.792731 79.532908 
L 214.362756 79.394308 
L 214.667424 79.121914 
L 214.972092 78.686781 
L 215.581429 72.005026 
L 215.886097 52.413897 
L 216.190766 69.74369 
L 216.495434 73.305255 
L 216.800102 74.356567 
L 217.714107 74.463645 
L 220.456122 74.522796 
L 223.198137 74.591018 
L 223.807473 74.735192 
L 224.112142 75.161876 
L 224.721478 79.794509 
L 225.026146 80.060011 
L 225.940151 80.078024 
L 233.252191 79.981504 
L 233.556859 79.731111 
L 234.470864 70.258768 
L 234.775532 60.225272 
L 235.0802 58.392091 
L 235.384869 63.544779 
L 235.689537 64.010738 
L 235.994205 64.893043 
L 236.603542 65.327151 
L 237.517547 65.45304 
L 239.345557 65.562808 
L 239.650225 65.806873 
L 240.259562 66.869182 
L 240.868898 70.15545 
L 241.173567 71.558215 
L 242.087571 72.82671 
L 242.39224 73.098995 
L 243.001576 74.588526 
L 243.306245 75.636707 
L 243.610913 77.80849 
L 243.915581 78.30671 
L 244.829586 79.042931 
L 246.352928 79.082792 
L 249.094943 79.161662 
L 249.399611 79.208516 
L 250.313616 79.731422 
L 251.836957 79.971328 
L 258.234992 80.109811 
L 258.844328 80.366418 
L 259.758333 80.441958 
L 265.851699 80.584134 
L 267.679709 80.727062 
L 288.092486 80.99607 
L 288.397154 63.262141 
L 288.701822 80.909604 
L 291.139169 80.950982 
L 302.107228 81.005194 
L 302.411896 79.247651 
L 302.716564 80.8095 
L 304.849242 80.893858 
L 313.684623 80.946827 
L 313.989291 81.033951 
L 314.29396 75.290182 
L 314.598628 78.891221 
L 314.903296 80.329121 
L 315.512633 80.601788 
L 316.426638 80.732986 
L 319.168653 80.764174 
L 321.910667 80.865487 
L 322.215336 80.342861 
L 322.824672 80.562526 
L 326.480692 80.721153 
L 326.78536 77.310343 
L 327.090029 78.529341 
L 328.308702 79.639028 
L 330.136712 80.039168 
L 332.574058 80.200557 
L 333.792731 81.023383 
L 334.0974 77.572061 
L 334.402068 55.47857 
L 334.706736 72.370024 
L 335.011404 74.216217 
L 335.316073 75.34023 
L 335.925409 75.916976 
L 336.839414 76.224085 
L 337.753419 76.478195 
L 338.362756 76.842047 
L 338.667424 77.281397 
L 339.581429 80.754061 
L 339.886097 80.080133 
L 340.800102 79.489454 
L 342.323444 79.065588 
L 343.237449 78.475228 
L 344.76079 78.144889 
L 345.065458 77.432105 
L 345.370127 70.790259 
L 345.674795 74.934557 
L 345.979463 80.98845 
L 346.5888 80.873515 
L 347.198137 80.752678 
L 351.158825 80.581811 
L 351.768161 76.63117 
L 352.072829 81.03769 
L 353.596171 80.975403 
L 358.470864 80.938127 
L 358.775532 80.558259 
L 359.0802 80.590854 
L 359.384869 81.020715 
L 363.650225 80.984835 
L 363.954893 80.025162 
L 364.259562 80.911136 
L 364.868898 81.0309 
L 371.876269 81.021287 
L 371.876269 81.021287 
" style="fill:none;stroke:#93a1a1;stroke-linecap:square;stroke-width:1.5;"/>
    <defs>
     <path d="M -3 3 
L 3 3 
L 3 -3 
L -3 -3 
z
" id="m8dc0db9c40" style="stroke:#93a1a1;stroke-linejoin:miter;"/>
    </defs>
    <g clip-path="url(#p4d298a73eb)">
     <use style="fill:#93a1a1;stroke:#93a1a1;stroke-linejoin:miter;" x="113.212879" xlink:href="#m8dc0db9c40" y="79.091898"/>
     <use style="fill:#93a1a1;stroke:#93a1a1;stroke-linejoin:miter;" x="174.14654" xlink:href="#m8dc0db9c40" y="83.791997"/>
     <use style="fill:#93a1a1;stroke:#93a1a1;stroke-linejoin:miter;" x="235.0802" xlink:href="#m8dc0db9c40" y="58.392091"/>
     <use style="fill:#93a1a1;stroke:#93a1a1;stroke-linejoin:miter;" x="296.013861" xlink:href="#m8dc0db9c40" y="80.897068"/>
     <use style="fill:#93a1a1;stroke:#93a1a1;stroke-linejoin:miter;" x="356.947522" xlink:href="#m8dc0db9c40" y="80.953125"/>
    </g>
   </g>
   <g id="line2d_33">
    <path clip-path="url(#p4d298a73eb)" d="M 67.512633 19.982224 
L 67.817301 41.522598 
L 69.949979 65.032917 
L 70.559316 69.738824 
L 70.863984 71.204777 
L 71.473321 72.707712 
L 71.777989 73.228632 
L 72.082657 74.183625 
L 73.301331 79.380587 
L 73.910667 80.041801 
L 74.520004 80.197104 
L 77.262019 80.298959 
L 77.566687 80.614369 
L 77.871355 82.422538 
L 78.176024 85.388491 
L 78.480692 89.446652 
L 78.78536 91.110814 
L 79.090029 91.799908 
L 79.394697 92.046531 
L 80.918038 92.086501 
L 81.527375 92.106878 
L 81.832043 92.235722 
L 82.136712 92.595582 
L 82.44138 94.805436 
L 82.746048 96.030745 
L 83.050716 100.450145 
L 83.355385 101.203313 
L 83.660053 101.425221 
L 84.574058 101.483651 
L 86.0974 101.561998 
L 86.402068 101.905772 
L 87.011404 105.010784 
L 87.620741 107.818985 
L 88.534746 107.904173 
L 90.972092 107.983917 
L 91.276761 108.25902 
L 92.495434 108.593182 
L 92.800102 108.74077 
L 99.807473 108.765267 
L 107.424181 108.843594 
L 107.728849 109.055111 
L 108.033517 109.589585 
L 108.338186 110.716401 
L 108.642854 111.269534 
L 109.252191 111.566384 
L 111.689537 111.776506 
L 111.994205 112.126986 
L 112.603542 115.664745 
L 112.90821 119.289728 
L 113.212879 119.871558 
L 114.126884 119.913938 
L 115.954893 119.968564 
L 116.259562 120.291583 
L 117.173567 120.630445 
L 123.876269 120.644142 
L 130.88364 120.679296 
L 131.188309 120.768131 
L 131.492977 121.386647 
L 132.102314 121.916888 
L 132.71165 122.014826 
L 134.53966 122.04239 
L 134.844328 122.30845 
L 135.148997 123.004843 
L 135.453665 129.03045 
L 135.758333 129.47532 
L 136.36767 129.733796 
L 137.891011 129.762552 
L 138.805016 129.790133 
L 139.109685 129.929084 
L 139.414353 130.235996 
L 141.547031 130.272201 
L 149.468407 130.319158 
L 150.077743 130.444211 
L 152.51509 130.452842 
L 152.819758 130.859727 
L 153.124427 132.433076 
L 154.038431 139.416786 
L 154.647768 140.014325 
L 158.608456 140.071886 
L 158.913124 140.251947 
L 160.131798 140.362717 
L 165.00649 140.473395 
L 165.920495 140.708907 
L 168.66251 140.787103 
L 168.967178 140.987506 
L 169.271847 141.729956 
L 169.881183 151.035912 
L 170.185852 151.874721 
L 170.795188 152.066334 
L 175.974549 152.075842 
L 183.286589 152.162354 
L 183.591257 152.195883 
L 183.895925 152.726265 
L 184.200594 155.565495 
L 184.80993 163.192345 
L 185.114599 164.396229 
L 185.419267 164.898366 
L 186.028603 165.027519 
L 198.824672 165.169833 
L 199.434009 165.466531 
L 199.738677 166.543951 
L 200.043345 166.977167 
L 200.348014 167.680217 
L 200.652682 168.732951 
L 201.262019 168.827658 
L 203.090029 168.967535 
L 203.394697 169.077489 
L 203.699365 170.089862 
L 204.004033 173.007211 
L 204.308702 174.465765 
L 204.61337 177.307408 
L 204.918038 178.535555 
L 206.746048 178.556802 
L 218.323444 178.614294 
L 218.628112 178.950585 
L 219.237449 180.504132 
L 219.846785 180.65646 
L 222.284132 180.704858 
L 222.5888 180.934205 
L 222.893468 181.990811 
L 223.198137 183.901414 
L 223.807473 189.202606 
L 224.41681 189.500021 
L 224.721478 190.824022 
L 225.026146 191.043407 
L 225.635483 191.136893 
L 227.768161 191.233135 
L 228.072829 191.613747 
L 228.986834 191.908357 
L 236.603542 191.9149 
L 238.431552 191.967299 
L 239.040888 192.360139 
L 239.345557 192.582238 
L 239.954893 192.641989 
L 242.696908 192.67531 
L 243.001576 193.225191 
L 243.306245 194.433192 
L 243.915581 202.570899 
L 244.22025 202.744338 
L 245.743591 202.767121 
L 246.962264 202.825401 
L 247.266933 202.980086 
L 247.876269 204.024501 
L 248.180938 204.315134 
L 250.313616 204.348253 
L 258.234992 204.42875 
L 259.453665 204.485254 
L 261.891011 204.594169 
L 262.19568 204.737316 
L 262.500348 206.021148 
L 262.805016 206.470712 
L 263.719021 206.522417 
L 265.547031 206.573002 
L 265.851699 206.790044 
L 266.156368 207.314952 
L 266.461036 207.491991 
L 267.679709 207.578637 
L 371.876269 207.614174 
L 371.876269 207.614174 
" style="fill:none;stroke:#073642;stroke-dasharray:1.5,2.475;stroke-dashoffset:0;stroke-width:1.5;"/>
   </g>
   <g id="line2d_34">
    <path clip-path="url(#p4d298a73eb)" d="M 67.512633 19.982224 
L 67.817301 41.483075 
L 69.035974 54.022512 
L 69.340643 55.478674 
L 69.949979 62.75743 
L 70.559316 67.866078 
L 71.473321 70.70549 
L 74.215336 76.334555 
L 74.824672 78.352694 
L 75.738677 79.749214 
L 76.043345 79.977753 
L 76.95735 80.181278 
L 79.699365 80.215453 
L 81.832043 80.299846 
L 82.136712 80.41863 
L 83.050716 81.79906 
L 83.355385 83.344558 
L 83.660053 83.942158 
L 83.964721 85.008687 
L 85.183395 91.054241 
L 85.792731 91.663797 
L 86.0974 91.901992 
L 88.230078 92.021222 
L 96.151454 92.191052 
L 96.76079 92.276709 
L 97.370127 92.598006 
L 97.979463 92.917569 
L 98.284132 93.193275 
L 98.5888 93.31205 
L 98.893468 93.621908 
L 99.198137 94.519787 
L 99.807473 95.314277 
L 100.41681 95.782198 
L 102.24482 96.55359 
L 103.158825 96.933169 
L 103.768161 97.496379 
L 104.377498 97.897644 
L 105.291503 98.055929 
L 108.338186 98.134646 
L 119.001576 98.287644 
L 124.180938 98.915326 
L 131.188309 99.003439 
L 137.281675 99.101143 
L 139.719021 99.582185 
L 141.547031 100.093441 
L 144.289046 100.260093 
L 155.561773 100.577638 
L 156.475778 100.850419 
L 159.522461 101.739015 
L 162.873812 101.882964 
L 175.060544 102.194188 
L 176.888554 102.28166 
L 186.028603 102.404482 
L 189.684623 102.55862 
L 192.12197 102.897125 
L 194.863984 103.005244 
L 206.136712 103.234154 
L 210.0974 103.594663 
L 213.144083 103.688027 
L 223.807473 103.88747 
L 227.463493 104.115997 
L 235.994205 104.192596 
L 246.048259 104.305099 
L 247.266933 104.383706 
L 262.805016 104.585989 
L 289.311159 104.589367 
L 371.876269 104.189217 
L 371.876269 104.189217 
" style="fill:none;stroke:#6c71c4;stroke-linecap:square;stroke-width:1.5;"/>
   </g>
   <g id="line2d_35">
    <path clip-path="url(#p4d298a73eb)" d="M 67.512633 19.982224 
L 67.817301 41.51692 
L 69.035974 54.042086 
L 69.340643 55.798607 
L 70.254648 66.377975 
L 70.559316 68.768493 
L 71.168653 70.842366 
L 72.082657 72.662376 
L 72.387326 73.282835 
L 74.215336 78.772603 
L 74.824672 79.683391 
L 75.129341 79.987792 
L 75.738677 80.188254 
L 80.004033 80.308658 
L 80.308702 80.515023 
L 80.61337 80.956417 
L 81.832043 86.490256 
L 82.136712 88.214434 
L 82.44138 90.744722 
L 83.355385 91.933147 
L 83.964721 92.065593 
L 88.230078 92.276154 
L 88.839414 92.988654 
L 89.448751 94.855042 
L 90.058087 96.776517 
L 90.667424 100.213314 
L 91.276761 101.192228 
L 92.190766 101.363188 
L 99.198137 101.525376 
L 100.41681 102.545187 
L 100.721478 103.812523 
L 101.635483 105.684705 
L 102.549488 106.039004 
L 103.768161 106.128933 
L 109.861527 106.061922 
L 111.689537 105.548304 
L 113.212879 105.513432 
L 125.704279 105.30049 
L 126.313616 105.140936 
L 128.446294 104.674335 
L 131.492977 104.650609 
L 144.593714 104.536931 
L 147.03106 104.358094 
L 148.85907 103.832263 
L 151.296417 103.435373 
L 153.124427 103.162657 
L 156.17111 102.885226 
L 165.920495 102.786399 
L 214.362756 102.645993 
L 220.76079 102.223841 
L 222.893468 101.954855 
L 223.807473 101.772908 
L 224.721478 101.582926 
L 228.072829 100.485241 
L 229.291503 99.986391 
L 230.205508 99.587482 
L 232.947522 98.842012 
L 234.470864 97.976377 
L 239.040888 96.520621 
L 240.259562 96.002153 
L 241.782903 95.622728 
L 243.915581 95.153508 
L 245.438923 94.504587 
L 247.266933 93.828952 
L 248.485606 93.477002 
L 253.360299 92.337251 
L 257.320987 91.094419 
L 259.453665 90.700465 
L 263.414353 90.039451 
L 270.117056 88.697229 
L 285.045802 86.971668 
L 301.193223 85.961589 
L 320.387326 85.477499 
L 340.190766 85.253823 
L 371.876269 85.132238 
L 371.876269 85.132238 
" style="fill:none;stroke:#2aa198;stroke-linecap:square;stroke-width:1.5;"/>
   </g>
   <g id="line2d_36">
    <path clip-path="url(#p4d298a73eb)" d="M 67.512633 19.982224 
L 67.817301 41.522759 
L 69.035974 54.297195 
L 70.559316 69.688983 
L 70.863984 70.991997 
L 72.082657 73.681624 
L 73.301331 78.76298 
L 73.910667 79.909058 
L 74.520004 80.136066 
L 75.434009 80.212845 
L 77.871355 80.307937 
L 78.176024 80.822854 
L 78.78536 83.792799 
L 79.394697 90.53853 
L 79.699365 91.590834 
L 80.004033 91.981387 
L 80.918038 92.080062 
L 83.050716 92.138881 
L 83.355385 92.268669 
L 83.964721 93.731989 
L 84.26939 96.259612 
L 84.574058 100.613359 
L 84.878726 101.120589 
L 85.488063 101.459753 
L 88.534746 101.585961 
L 88.839414 102.232463 
L 89.144083 103.351614 
L 89.448751 105.549329 
L 89.753419 106.644495 
L 90.362756 107.792209 
L 90.972092 107.882346 
L 93.104771 107.905574 
L 95.237449 107.953881 
L 95.846785 108.434301 
L 96.151454 108.653169 
L 96.76079 108.745697 
L 116.868898 108.878077 
L 117.173567 108.954511 
L 117.782903 109.652161 
L 118.087571 110.992062 
L 118.39224 111.356854 
L 119.001576 111.54415 
L 120.829586 111.595355 
L 121.743591 111.639206 
L 122.352928 112.026683 
L 122.657596 112.39339 
L 123.266933 115.404953 
L 124.180938 116.858492 
L 124.485606 117.033677 
L 124.790274 117.502 
L 125.094943 119.098574 
L 125.704279 119.721928 
L 126.008947 119.890556 
L 127.836957 119.916293 
L 129.664967 119.973713 
L 131.188309 120.632355 
L 146.117056 120.650812 
L 149.773075 120.67199 
L 150.382412 120.951428 
L 150.68708 121.261655 
L 150.991748 121.372108 
L 151.905753 121.980094 
L 154.038431 122.019459 
L 154.952436 122.124773 
L 155.561773 122.30246 
L 156.780446 122.621729 
L 157.389783 128.322582 
L 157.694451 128.761454 
L 157.999119 129.626099 
L 158.608456 129.760181 
L 162.264476 129.803275 
L 162.569144 129.936053 
L 162.873812 130.229448 
L 164.397154 130.272035 
L 178.411896 130.325564 
L 179.325901 130.444763 
L 182.677252 130.476875 
L 183.286589 130.84664 
L 184.505262 134.719651 
L 184.80993 139.03582 
L 185.114599 139.648842 
L 185.419267 139.889826 
L 187.247277 140.012759 
L 192.426638 140.299986 
L 193.340643 140.361606 
L 207.050716 140.425876 
L 207.660053 140.631603 
L 209.488063 140.684767 
L 211.925409 140.735877 
L 212.230078 140.88247 
L 212.534746 141.219987 
L 212.839414 141.960749 
L 213.144083 145.42549 
L 213.753419 147.553778 
L 214.362756 148.324628 
L 215.276761 148.422346 
L 219.846785 148.49624 
L 220.151454 149.01565 
L 221.370127 151.757432 
L 221.979463 151.985644 
L 223.502805 152.067476 
L 236.298874 152.18493 
L 236.90821 152.410882 
L 237.212879 152.573052 
L 237.517547 153.22506 
L 238.431552 153.684638 
L 239.650225 153.735883 
L 242.39224 153.778435 
L 242.696908 153.863597 
L 243.001576 154.276271 
L 243.306245 155.360443 
L 243.610913 158.733643 
L 243.915581 160.571355 
L 244.22025 161.343619 
L 245.134255 161.875328 
L 250.313616 162.022107 
L 250.922952 162.43589 
L 251.532289 164.937696 
L 252.141626 165.048891 
L 256.102314 165.064245 
L 272.85907 165.119718 
L 273.163739 165.418662 
L 274.077743 168.269679 
L 274.382412 169.665888 
L 274.991748 170.897817 
L 275.905753 170.957995 
L 279.866441 171.061226 
L 280.475778 171.125022 
L 280.780446 171.375547 
L 281.389783 172.90051 
L 281.694451 174.144619 
L 281.999119 177.614932 
L 282.303788 177.959455 
L 283.217793 178.270313 
L 285.045802 178.301806 
L 287.483149 178.381049 
L 289.00649 178.572588 
L 298.14654 178.584406 
L 309.114599 178.644149 
L 310.333272 178.828434 
L 315.817301 178.931368 
L 316.12197 179.278299 
L 316.426638 179.908434 
L 317.035974 181.955881 
L 317.340643 185.433078 
L 317.645311 186.201044 
L 317.949979 186.465732 
L 318.559316 187.509185 
L 318.863984 187.875723 
L 319.777989 187.998088 
L 321.910667 188.014892 
L 322.215336 188.256579 
L 322.824672 190.275942 
L 323.129341 191.34437 
L 323.434009 191.626851 
L 324.348014 191.854839 
L 327.394697 191.872769 
L 346.893468 191.963588 
L 348.41681 192.225228 
L 352.072829 192.293574 
L 352.682166 192.555926 
L 353.596171 198.674583 
L 354.510176 202.059187 
L 354.814844 202.333077 
L 355.119513 203.063963 
L 355.728849 203.284941 
L 356.338186 203.365562 
L 359.689537 203.411023 
L 360.90821 203.659829 
L 371.876269 203.649171 
L 371.876269 203.649171 
" style="fill:none;stroke:#859900;stroke-dasharray:1.5,2.475;stroke-dashoffset:0;stroke-width:1.5;"/>
   </g>
   <g id="line2d_37">
    <path clip-path="url(#p4d298a73eb)" d="M 67.512633 19.982224 
L 67.817301 41.513143 
L 69.035974 54.313834 
L 70.559316 69.717552 
L 70.863984 71.154948 
L 71.168653 71.770063 
L 71.473321 72.715493 
L 71.777989 73.221818 
L 72.082657 74.103738 
L 73.301331 79.335248 
L 73.910667 80.034364 
L 74.520004 80.195499 
L 77.262019 80.319085 
L 77.566687 80.615889 
L 77.871355 81.490986 
L 78.480692 89.081206 
L 79.090029 91.766397 
L 79.394697 92.04047 
L 80.61337 92.085147 
L 81.832043 92.138085 
L 82.136712 92.284931 
L 82.44138 93.285983 
L 82.746048 95.233847 
L 83.050716 99.730961 
L 83.660053 101.283221 
L 84.26939 101.480506 
L 86.402068 101.59244 
L 87.011404 103.713301 
L 87.925409 107.81277 
L 88.839414 107.90392 
L 91.276761 107.963572 
L 91.886097 108.629639 
L 93.104771 108.71475 
L 94.628112 108.747674 
L 107.728849 108.821198 
L 108.947522 109.149426 
L 109.252191 109.515791 
L 109.556859 111.112854 
L 110.166196 111.492323 
L 111.0802 111.592124 
L 112.90821 111.703224 
L 113.212879 111.839237 
L 113.822215 112.878347 
L 114.126884 114.050723 
L 114.73622 119.500364 
L 115.040888 119.753335 
L 115.650225 119.891512 
L 117.173567 119.914767 
L 118.696908 119.996556 
L 119.610913 120.613494 
L 121.743591 120.638135 
L 135.148997 120.723265 
L 135.758333 121.166059 
L 136.063001 121.904311 
L 136.672338 122.003815 
L 139.109685 122.142386 
L 139.414353 122.466796 
L 139.719021 124.069594 
L 140.023689 127.840458 
L 140.328358 129.267386 
L 140.633026 129.627738 
L 141.242363 129.75313 
L 145.203051 129.782931 
L 146.117056 130.264516 
L 150.991748 130.273992 
L 156.475778 130.346402 
L 157.694451 130.444513 
L 161.655139 130.53837 
L 161.959807 131.171997 
L 162.264476 135.387782 
L 162.873812 139.720564 
L 163.178481 139.93384 
L 164.397154 140.026965 
L 166.8345 140.14116 
L 167.748505 140.360386 
L 173.537203 140.379252 
L 174.14654 140.686848 
L 175.669881 140.721625 
L 178.716564 140.756608 
L 179.021232 140.840912 
L 179.325901 141.46141 
L 179.935237 143.372071 
L 180.544574 151.499209 
L 180.849242 152.005389 
L 181.763247 152.071846 
L 191.817301 152.097816 
L 192.12197 152.256832 
L 194.863984 152.381032 
L 196.996662 152.488892 
L 197.301331 152.632491 
L 197.605999 153.107259 
L 197.910667 156.182302 
L 198.215336 161.318242 
L 198.520004 163.224175 
L 198.824672 164.241972 
L 199.434009 164.83924 
L 207.050716 165.06404 
L 214.362756 165.08649 
L 214.972092 165.321161 
L 215.276761 165.717409 
L 215.886097 165.807534 
L 218.628112 165.851506 
L 218.93278 166.031835 
L 219.237449 167.431797 
L 219.542117 173.974406 
L 219.846785 177.411675 
L 220.151454 178.220459 
L 221.065458 178.425093 
L 224.41681 178.552661 
L 226.854156 178.581063 
L 239.954893 178.689512 
L 240.56423 178.790922 
L 241.173567 179.37437 
L 241.478235 180.972488 
L 241.782903 185.874811 
L 242.087571 187.122022 
L 242.39224 187.313764 
L 243.915581 187.353891 
L 246.048259 187.388486 
L 246.352928 188.070057 
L 246.657596 190.304985 
L 246.962264 191.26837 
L 247.571601 191.811884 
L 249.094943 191.885217 
L 263.719021 191.955713 
L 264.023689 192.093733 
L 264.937694 193.249587 
L 266.156368 193.303138 
L 267.984377 193.353201 
L 268.593714 193.614406 
L 268.898382 193.865073 
L 269.507719 195.923213 
L 269.812387 198.398329 
L 270.117056 202.535909 
L 270.421724 203.359255 
L 270.726392 203.73903 
L 271.335729 203.866692 
L 285.350471 203.989951 
L 285.959807 204.482211 
L 286.569144 205.329441 
L 287.483149 205.582552 
L 288.397154 205.62935 
L 290.529832 205.679235 
L 291.139169 206.24246 
L 291.748505 206.337437 
L 317.645311 206.388122 
L 328.61337 206.405082 
L 371.876269 206.405105 
L 371.876269 206.405105 
" style="fill:none;stroke:#073642;stroke-linecap:square;stroke-width:1.5;"/>
   </g>
   <g id="patch_3">
    <path d="M 52.294451 232.46 
L 52.294451 10.7 
" style="fill:none;stroke:#000000;stroke-linecap:square;stroke-linejoin:miter;stroke-width:0.8;"/>
   </g>
   <g id="patch_4">
    <path d="M 387.094451 232.46 
L 387.094451 10.7 
" style="fill:none;stroke:#000000;stroke-linecap:square;stroke-linejoin:miter;stroke-width:0.8;"/>
   </g>
   <g id="patch_5">
    <path d="M 52.294451 232.46 
L 387.094451 232.46 
" style="fill:none;stroke:#000000;stroke-linecap:square;stroke-linejoin:miter;stroke-width:0.8;"/>
   </g>
   <g id="patch_6">
    <path d="M 52.294451 10.7 
L 387.094451 10.7 
" style="fill:none;stroke:#000000;stroke-linecap:square;stroke-linejoin:miter;stroke-width:0.8;"/>
   </g>
   <g id="legend_1">
    <g id="patch_7">
     <path d="M 59.294451 227.46 
L 147.73499 227.46 
Q 149.73499 227.46 149.73499 225.46 
L 149.73499 101.025395 
Q 149.73499 99.025395 147.73499 99.025395 
L 59.294451 99.025395 
Q 57.294451 99.025395 57.294451 101.025395 
L 57.294451 225.46 
Q 57.294451 227.46 59.294451 227.46 
z
" style="fill:#ffffff;opacity:0.8;stroke:#cccccc;stroke-linejoin:miter;"/>
    </g>
    <g id="line2d_38">
     <path d="M 61.294451 106.525395 
L 81.294451 106.525395 
" style="fill:none;stroke:#073642;stroke-linecap:square;stroke-width:1.5;"/>
    </g>
    <g id="line2d_39"/>
    <g id="text_17">
     <!-- \textsc{{PPR-CG}} -->
     <defs>
      <path d="M 43 31.390625 
C 55.203125 31.390625 66.90625 39.171875 66.90625 49.4375 
C 66.90625 59.3125 56.296875 68 42.203125 68 
L 5.703125 68 
L 5.703125 64.890625 
L 8.09375 64.890625 
C 15.796875 64.890625 16 63.796875 16 60.203125 
L 16 7.765625 
C 16 4.1875 15.796875 3.09375 8.09375 3.09375 
L 5.703125 3.09375 
L 5.703125 0 
C 9.203125 0.296875 16.59375 0.296875 20.40625 0.296875 
C 24.203125 0.296875 31.703125 0.296875 35.203125 0 
L 35.203125 3.09375 
L 32.796875 3.09375 
C 25.09375 3.09375 24.90625 4.1875 24.90625 7.765625 
L 24.90625 31.390625 
z
M 24.59375 60.90625 
C 24.59375 64.1875 24.796875 64.890625 29.5 64.890625 
L 39.59375 64.890625 
C 56.59375 64.890625 56.59375 53.921875 56.59375 49.4375 
C 56.59375 45.15625 56.59375 34 39.59375 34 
L 24.59375 34 
z
" id="CMCSC10-80"/>
      <path d="M 24.59375 35.1875 
L 24.59375 60.921875 
C 24.59375 63.609375 24.796875 64.5 27.203125 64.796875 
C 28.09375 64.890625 31.203125 64.890625 33.203125 64.890625 
C 41.90625 64.890625 55.09375 64.890625 55.09375 50.09375 
C 55.09375 39.46875 48 35.1875 36.703125 35.1875 
z
M 47 33.890625 
C 59 36.78125 65.40625 43.34375 65.40625 50.09375 
C 65.40625 59.734375 53.203125 68 38.09375 68 
L 5.703125 68 
L 5.703125 64.890625 
L 8.09375 64.890625 
C 15.796875 64.890625 16 63.796875 16 60.21875 
L 16 7.921875 
C 16 4.359375 15.796875 3.265625 8.09375 3.265625 
L 5.703125 3.265625 
L 5.703125 0.1875 
C 9.296875 0.484375 16.40625 0.484375 20.296875 0.484375 
C 24.203125 0.484375 31.296875 0.484375 34.90625 0.1875 
L 34.90625 3.265625 
L 32.5 3.265625 
C 24.796875 3.265625 24.59375 4.359375 24.59375 7.921875 
L 24.59375 33 
L 37.09375 33 
C 42.5 33 45.703125 31.015625 47.40625 29.421875 
C 51.203125 25.75 51.203125 23.28125 51.203125 16.34375 
C 51.203125 9.5 51.203125 5.9375 55.5 2.078125 
C 59.203125 -1.109375 64.796875 -2 68.296875 -2 
C 76.296875 -2 78.203125 6.140625 78.203125 8.90625 
C 78.203125 9.5 78.203125 10.59375 76.90625 10.59375 
C 75.796875 10.59375 75.796875 9.703125 75.703125 9.015625 
C 74.90625 1.28125 70.796875 0.1875 68.703125 0.1875 
C 63.40625 0.1875 62.703125 4.65625 60.90625 16.140625 
C 59.796875 23.078125 59.40625 25.5625 56.203125 28.734375 
C 54.09375 30.90625 50.90625 32.796875 47 33.890625 
z
" id="CMCSC10-82"/>
      <path d="M 30.5 19 
L 30.5 24.796875 
L 2.59375 24.796875 
L 2.59375 19 
z
" id="CMCSC10-45"/>
      <path d="M 63.40625 62.0625 
C 60.09375 65.484375 54 71 43.703125 71 
C 24 71 7.203125 54.9375 7.203125 34.546875 
C 7.203125 14.046875 24 -2 43.796875 -2 
C 60.703125 -2 71.296875 11.640625 71.296875 23.59375 
C 71.296875 24.59375 71.296875 25.296875 70 25.296875 
C 68.90625 25.296875 68.90625 24.703125 68.796875 23.6875 
C 68 9.125 56.296875 1.09375 45.09375 1.09375 
C 36.296875 1.09375 17.5 6.3125 17.5 34.4375 
C 17.5 64.078125 38 67.890625 44.90625 67.890625 
C 55.59375 67.890625 65.796875 59.546875 68.09375 44.078125 
C 68.296875 42.671875 68.40625 42.375 69.703125 42.375 
C 71.296875 42.375 71.296875 42.671875 71.296875 44.78125 
L 71.296875 68.59375 
C 71.296875 70.296875 71.296875 71 70.203125 71 
C 69.796875 71 69.40625 71 68.59375 69.796875 
z
" id="CMCSC10-67"/>
      <path d="M 71.203125 68.59375 
C 71.203125 70.296875 71.203125 71 70.09375 71 
C 69.703125 71 69.296875 71 68.5 69.796875 
L 63.296875 62.125 
C 60.203125 65.109375 54.296875 71 43.703125 71 
C 23.796875 71 7.203125 54.859375 7.203125 34.859375 
C 7.203125 14.578125 23.59375 -2 43.90625 -2 
C 51.796875 -2 60.40625 0.59375 63.90625 6.609375 
C 65.203125 4.359375 69.203125 0.296875 70.296875 0.296875 
C 71.203125 0.296875 71.203125 1.09375 71.203125 2.625 
L 71.203125 20.390625 
C 71.203125 24.890625 72.296875 24.890625 78.5 24.890625 
L 78.5 28 
C 73.703125 27.796875 70.09375 27.6875 65.796875 27.6875 
C 61.703125 27.6875 52.796875 27.6875 49.203125 28 
L 49.203125 24.890625 
L 52.703125 24.890625 
C 62.296875 24.890625 62.296875 23.46875 62.296875 19.984375 
L 62.296875 13.453125 
C 62.296875 1.09375 46.796875 1.09375 45.59375 1.09375 
C 36.5 1.09375 17.5 6.40625 17.5 34.859375 
C 17.5 63.015625 36.703125 67.890625 44.90625 67.890625 
C 55.5 67.890625 65.703125 59.734375 68 44.3125 
C 68.203125 42.921875 68.296875 42.625 69.59375 42.625 
C 71.203125 42.625 71.203125 42.921875 71.203125 45 
z
" id="CMCSC10-71"/>
     </defs>
     <g transform="translate(89.294451 110.025395)scale(0.1 -0.1)">
      <use transform="scale(0.996264)" xlink:href="#CMCSC10-80"/>
      <use transform="translate(73.888826 0)scale(0.996264)" xlink:href="#CMCSC10-80"/>
      <use transform="translate(147.777651 0)scale(0.996264)" xlink:href="#CMCSC10-82"/>
      <use transform="translate(227.478027 0)scale(0.996264)" xlink:href="#CMCSC10-45"/>
      <use transform="translate(265.114311 0)scale(0.996264)" xlink:href="#CMCSC10-67"/>
      <use transform="translate(343.431036 0)scale(0.996264)" xlink:href="#CMCSC10-71"/>
     </g>
    </g>
    <g id="line2d_40">
     <path d="M 61.294451 120.462573 
L 81.294451 120.462573 
" style="fill:none;stroke:#859900;stroke-dasharray:1.5,2.475;stroke-dashoffset:0;stroke-width:1.5;"/>
    </g>
    <g id="line2d_41"/>
    <g id="text_18">
     <!-- \textsc{{PPR-M-CG}} -->
     <defs>
      <path d="M 74.40625 65.09375 
L 74.5 64.984375 
L 74.5 7.765625 
C 74.5 4.1875 74.296875 3.09375 66.59375 3.09375 
L 64.203125 3.09375 
L 64.203125 0 
C 67.90625 0.296875 74.703125 0.296875 78.59375 0.296875 
C 82.5 0.296875 89.203125 0.296875 92.90625 0 
L 92.90625 3.09375 
L 90.5 3.09375 
C 82.796875 3.09375 82.59375 4.1875 82.59375 7.765625 
L 82.59375 60.21875 
C 82.59375 63.796875 82.796875 64.890625 90.5 64.890625 
L 92.90625 64.890625 
L 92.90625 68 
L 76 68 
C 73.703125 68 73.40625 68 72.59375 66.09375 
L 49.40625 9.46875 
L 26.203125 66.1875 
C 25.5 68 24.90625 68 22.796875 68 
L 5.90625 68 
L 5.90625 64.890625 
L 8.296875 64.890625 
C 16 64.890625 16.203125 63.796875 16.203125 60.21875 
L 16.203125 10.453125 
C 16.203125 7.765625 16.203125 3.09375 5.90625 3.09375 
L 5.90625 0 
C 9.40625 0.09375 14.296875 0.296875 17.59375 0.296875 
C 20.90625 0.296875 25.796875 0.09375 29.296875 0 
L 29.296875 3.09375 
C 19 3.09375 19 7.765625 19 10.453125 
L 19 64.296875 
L 19.09375 64.390625 
L 44.703125 1.796875 
C 45.09375 0.890625 45.59375 0 46.59375 0 
C 47.59375 0 48.09375 0.890625 48.5 1.796875 
z
" id="CMCSC10-77"/>
     </defs>
     <g transform="translate(89.294451 123.962573)scale(0.1 -0.1)">
      <use transform="scale(0.996264)" xlink:href="#CMCSC10-80"/>
      <use transform="translate(73.888826 0)scale(0.996264)" xlink:href="#CMCSC10-80"/>
      <use transform="translate(147.777651 0)scale(0.996264)" xlink:href="#CMCSC10-82"/>
      <use transform="translate(227.478027 0)scale(0.996264)" xlink:href="#CMCSC10-45"/>
      <use transform="translate(265.114311 0)scale(0.996264)" xlink:href="#CMCSC10-77"/>
      <use transform="translate(363.632776 0)scale(0.996264)" xlink:href="#CMCSC10-45"/>
      <use transform="translate(401.26906 0)scale(0.996264)" xlink:href="#CMCSC10-67"/>
      <use transform="translate(479.585785 0)scale(0.996264)" xlink:href="#CMCSC10-71"/>
     </g>
    </g>
    <g id="line2d_42">
     <path d="M 61.294451 134.399752 
L 81.294451 134.399752 
" style="fill:none;stroke:#2aa198;stroke-linecap:square;stroke-width:1.5;"/>
    </g>
    <g id="line2d_43"/>
    <g id="text_19">
     <!-- \textsc{{PP-CG}} -->
     <g transform="translate(89.294451 137.899752)scale(0.1 -0.1)">
      <use transform="scale(0.996264)" xlink:href="#CMCSC10-80"/>
      <use transform="translate(73.888826 0)scale(0.996264)" xlink:href="#CMCSC10-80"/>
      <use transform="translate(147.777651 0)scale(0.996264)" xlink:href="#CMCSC10-45"/>
      <use transform="translate(185.413935 0)scale(0.996264)" xlink:href="#CMCSC10-67"/>
      <use transform="translate(263.73066 0)scale(0.996264)" xlink:href="#CMCSC10-71"/>
     </g>
    </g>
    <g id="line2d_44">
     <path d="M 61.294451 148.33693 
L 81.294451 148.33693 
" style="fill:none;stroke:#6c71c4;stroke-linecap:square;stroke-width:1.5;"/>
    </g>
    <g id="line2d_45"/>
    <g id="text_20">
     <!-- \textsc{{P-M-CG}} -->
     <g transform="translate(89.294451 151.83693)scale(0.1 -0.1)">
      <use transform="scale(0.996264)" xlink:href="#CMCSC10-80"/>
      <use transform="translate(73.888826 0)scale(0.996264)" xlink:href="#CMCSC10-45"/>
      <use transform="translate(111.52511 0)scale(0.996264)" xlink:href="#CMCSC10-77"/>
      <use transform="translate(210.043574 0)scale(0.996264)" xlink:href="#CMCSC10-45"/>
      <use transform="translate(247.679858 0)scale(0.996264)" xlink:href="#CMCSC10-67"/>
      <use transform="translate(325.996583 0)scale(0.996264)" xlink:href="#CMCSC10-71"/>
     </g>
    </g>
    <g id="line2d_46">
     <path d="M 61.294451 162.274108 
L 81.294451 162.274108 
" style="fill:none;stroke:#073642;stroke-dasharray:1.5,2.475;stroke-dashoffset:0;stroke-width:1.5;"/>
    </g>
    <g id="line2d_47"/>
    <g id="text_21">
     <!-- \textsc{{PR-CG}} -->
     <g transform="translate(89.294451 165.774108)scale(0.1 -0.1)">
      <use transform="scale(0.996264)" xlink:href="#CMCSC10-80"/>
      <use transform="translate(73.888826 0)scale(0.996264)" xlink:href="#CMCSC10-82"/>
      <use transform="translate(153.589202 0)scale(0.996264)" xlink:href="#CMCSC10-45"/>
      <use transform="translate(191.225486 0)scale(0.996264)" xlink:href="#CMCSC10-67"/>
      <use transform="translate(269.54221 0)scale(0.996264)" xlink:href="#CMCSC10-71"/>
     </g>
    </g>
    <g id="line2d_48">
     <path d="M 61.294451 176.211287 
L 81.294451 176.211287 
" style="fill:none;stroke:#93a1a1;stroke-linecap:square;stroke-width:1.5;"/>
    </g>
    <g id="line2d_49">
     <g>
      <use style="fill:#93a1a1;stroke:#93a1a1;stroke-linejoin:miter;" x="71.294451" xlink:href="#m8dc0db9c40" y="176.211287"/>
     </g>
    </g>
    <g id="text_22">
     <!-- \textsc{GV-CG} -->
     <defs>
      <path d="M 22.90625 60.328125 
C 22.703125 60.71875 22.40625 61.609375 22.40625 62.015625 
C 22.40625 64.890625 27.703125 64.890625 30.5 64.890625 
L 30.5 68 
C 27 67.6875 19.90625 67.6875 16.09375 67.6875 
C 11.296875 67.6875 7 67.890625 3.40625 68 
L 3.40625 64.890625 
C 11.09375 64.890625 11.90625 64.484375 13.296875 61.125 
L 38.203125 0 
C 38.796875 -1.40625 39 -2 40.59375 -2 
C 42.296875 -2 42.5 -1.5 43.09375 0 
L 66.796875 58.4375 
C 69.40625 64.890625 76 64.890625 77.90625 64.890625 
L 77.90625 68 
C 74.796875 67.796875 70.796875 67.6875 68.203125 67.6875 
C 65.203125 67.6875 59.40625 67.890625 56.796875 68 
L 56.796875 64.890625 
C 62.5 64.78125 63.90625 61.8125 63.90625 60.03125 
C 63.90625 59.53125 63.90625 59.328125 63.296875 58.046875 
L 43.59375 9.421875 
z
" id="CMCSC10-86"/>
     </defs>
     <g transform="translate(89.294451 179.711287)scale(0.1 -0.1)">
      <use transform="scale(0.996264)" xlink:href="#CMCSC10-71"/>
      <use transform="translate(84.820047 0)scale(0.996264)" xlink:href="#CMCSC10-86"/>
      <use transform="translate(165.904074 0)scale(0.996264)" xlink:href="#CMCSC10-45"/>
      <use transform="translate(203.540358 0)scale(0.996264)" xlink:href="#CMCSC10-67"/>
      <use transform="translate(281.857083 0)scale(0.996264)" xlink:href="#CMCSC10-71"/>
     </g>
    </g>
    <g id="line2d_50">
     <path d="M 61.294451 190.148465 
L 81.294451 190.148465 
" style="fill:none;stroke:#93a1a1;stroke-linecap:square;stroke-width:1.5;"/>
    </g>
    <g id="line2d_51">
     <g>
      <use style="fill:#93a1a1;stroke:#93a1a1;stroke-linejoin:miter;" x="71.294451" xlink:href="#m6113319ad6" y="190.148465"/>
     </g>
    </g>
    <g id="text_23">
     <!-- \textsc{M-CG} -->
     <g transform="translate(89.294451 193.648465)scale(0.1 -0.1)">
      <use transform="scale(0.996264)" xlink:href="#CMCSC10-77"/>
      <use transform="translate(98.518465 0)scale(0.996264)" xlink:href="#CMCSC10-45"/>
      <use transform="translate(136.154749 0)scale(0.996264)" xlink:href="#CMCSC10-67"/>
      <use transform="translate(214.471474 0)scale(0.996264)" xlink:href="#CMCSC10-71"/>
     </g>
    </g>
    <g id="line2d_52">
     <path d="M 61.294451 204.085643 
L 81.294451 204.085643 
" style="fill:none;stroke:#93a1a1;stroke-linecap:square;stroke-width:1.5;"/>
    </g>
    <g id="line2d_53">
     <g>
      <use style="fill:#93a1a1;stroke:#93a1a1;stroke-linejoin:miter;" x="71.294451" xlink:href="#m4832dce83f" y="204.085643"/>
     </g>
    </g>
    <g id="text_24">
     <!-- \textsc{CG-CG} -->
     <g transform="translate(89.294451 207.585643)scale(0.1 -0.1)">
      <use transform="scale(0.996264)" xlink:href="#CMCSC10-67"/>
      <use transform="translate(78.316725 0)scale(0.996264)" xlink:href="#CMCSC10-71"/>
      <use transform="translate(163.136772 0)scale(0.996264)" xlink:href="#CMCSC10-45"/>
      <use transform="translate(200.773056 0)scale(0.996264)" xlink:href="#CMCSC10-67"/>
      <use transform="translate(279.089781 0)scale(0.996264)" xlink:href="#CMCSC10-71"/>
     </g>
    </g>
    <g id="line2d_54">
     <path d="M 61.294451 218.022822 
L 81.294451 218.022822 
" style="fill:none;stroke:#93a1a1;stroke-linecap:square;stroke-width:1.5;"/>
    </g>
    <g id="line2d_55">
     <g>
      <use style="fill:#93a1a1;stroke:#93a1a1;" x="71.294451" xlink:href="#m985657cbd2" y="218.022822"/>
     </g>
    </g>
    <g id="text_25">
     <!-- \textsc{HS-CG} -->
     <defs>
      <path d="M 56.59375 37 
L 24.703125 37 
L 24.703125 60.21875 
C 24.703125 63.796875 24.90625 64.890625 32.59375 64.890625 
L 35 64.890625 
L 35 68 
C 31.5 67.6875 24.09375 67.6875 20.296875 67.6875 
C 16.5 67.6875 9 67.6875 5.5 68 
L 5.5 64.890625 
L 7.90625 64.890625 
C 15.59375 64.890625 15.796875 63.796875 15.796875 60.21875 
L 15.796875 7.78125 
C 15.796875 4.1875 15.59375 3.09375 7.90625 3.09375 
L 5.5 3.09375 
L 5.5 0 
C 9 0.296875 16.40625 0.296875 20.203125 0.296875 
C 24 0.296875 31.5 0.296875 35 0 
L 35 3.09375 
L 32.59375 3.09375 
C 24.90625 3.09375 24.703125 4.1875 24.703125 7.78125 
L 24.703125 33.890625 
L 56.59375 33.890625 
L 56.59375 7.78125 
C 56.59375 4.1875 56.40625 3.09375 48.703125 3.09375 
L 46.296875 3.09375 
L 46.296875 0 
C 49.796875 0.296875 57.203125 0.296875 61 0.296875 
C 64.796875 0.296875 72.296875 0.296875 75.796875 0 
L 75.796875 3.09375 
L 73.40625 3.09375 
C 65.703125 3.09375 65.5 4.1875 65.5 7.78125 
L 65.5 60.21875 
C 65.5 63.796875 65.703125 64.890625 73.40625 64.890625 
L 75.796875 64.890625 
L 75.796875 68 
C 72.296875 67.6875 64.90625 67.6875 61.09375 67.6875 
C 57.296875 67.6875 49.796875 67.6875 46.296875 68 
L 46.296875 64.890625 
L 48.703125 64.890625 
C 56.40625 64.890625 56.59375 63.796875 56.59375 60.21875 
z
" id="CMCSC10-72"/>
      <path d="M 24.40625 42.375 
C 15.703125 44.484375 13.59375 51.421875 13.59375 55.03125 
C 13.59375 61.859375 19.296875 68.1875 27.796875 68.1875 
C 41.59375 68.1875 46.90625 58.046875 48.296875 47.796875 
C 48.5 46.5 48.5 46 49.59375 46 
C 50.90625 46 50.90625 46.5 50.90625 48.40625 
L 50.90625 68.59375 
C 50.90625 70.296875 50.90625 71 49.796875 71 
C 49.09375 71 49.09375 70.890625 48.296875 69.6875 
L 44.59375 63.765625 
C 41.90625 66.484375 37.296875 71 27.703125 71 
C 16.09375 71 7.203125 62.171875 7.203125 51.515625 
C 7.203125 45.09375 10.59375 40.5625 11.90625 39.0625 
C 16.59375 34.140625 19.59375 33.4375 27.90625 31.421875 
C 29.5 31.03125 31.203125 30.71875 32.796875 30.328125 
C 38.703125 28.921875 40.703125 28.421875 43.796875 25 
C 44.40625 24.296875 47.40625 20.875 47.40625 15.453125 
C 47.40625 8.328125 42.09375 1.09375 33 1.09375 
C 28.796875 1.09375 22.09375 1.890625 16.59375 6.21875 
C 10.09375 11.34375 9.796875 18.671875 9.703125 22.09375 
C 9.59375 22.796875 9 22.984375 8.5 22.984375 
C 7.203125 22.984375 7.203125 22.28125 7.203125 20.484375 
L 7.203125 0.390625 
C 7.203125 -1.3125 7.203125 -2 8.296875 -2 
C 9 -2 9.203125 -1.703125 9.796875 -0.8125 
L 13.5 5.203125 
C 16.296875 2.296875 22.796875 -2 33.09375 -2 
C 45.59375 -2 53.796875 8.125 53.796875 18.765625 
C 53.796875 26.8125 49 36.34375 38 39.0625 
z
" id="CMCSC10-83"/>
     </defs>
     <g transform="translate(89.294451 221.522822)scale(0.1 -0.1)">
      <use transform="scale(0.996264)" xlink:href="#CMCSC10-72"/>
      <use transform="translate(81.084027 0)scale(0.996264)" xlink:href="#CMCSC10-83"/>
      <use transform="translate(141.966208 0)scale(0.996264)" xlink:href="#CMCSC10-45"/>
      <use transform="translate(179.602492 0)scale(0.996264)" xlink:href="#CMCSC10-67"/>
      <use transform="translate(257.919217 0)scale(0.996264)" xlink:href="#CMCSC10-71"/>
     </g>
    </g>
   </g>
  </g>
 </g>
 <defs>
  <clipPath id="p4d298a73eb">
   <rect height="221.76" width="334.8" x="52.294451" y="10.7"/>
  </clipPath>
 </defs>
</svg>
