<?xml version="1.0" encoding="utf-8" standalone="no"?>
<!DOCTYPE svg PUBLIC "-//W3C//DTD SVG 1.1//EN"
  "http://www.w3.org/Graphics/SVG/1.1/DTD/svg11.dtd">
<!-- Created with matplotlib (https://matplotlib.org/) -->
<svg height="268.371353pt" version="1.1" viewBox="0 0 507.791371 268.371353" width="507.791371pt" xmlns="http://www.w3.org/2000/svg" xmlns:xlink="http://www.w3.org/1999/xlink">
 <defs>
  <style type="text/css">
*{stroke-linecap:butt;stroke-linejoin:round;}
  </style>
 </defs>
 <g id="figure_1">
  <g id="patch_1">
   <path d="M -0 268.371353 
L 507.791371 268.371353 
L 507.791371 0 
L -0 0 
z
" style="fill:#ffffff;"/>
  </g>
  <g id="axes_1">
   <g id="patch_2">
    <path d="M 52.294451 232.46 
L 387.094451 232.46 
L 387.094451 10.7 
L 52.294451 10.7 
z
" style="fill:#ffffff;"/>
   </g>
   <g id="matplotlib.axis_1">
    <g id="xtick_1">
     <g id="line2d_1">
      <path clip-path="url(#pd861b6fb18)" d="M 67.512633 232.46 
L 67.512633 10.7 
" style="fill:none;stroke:#b0b0b0;stroke-dasharray:0.8,1.32;stroke-dashoffset:0;stroke-width:0.8;"/>
     </g>
     <g id="line2d_2">
      <defs>
       <path d="M 0 0 
L 0 3.5 
" id="m1fdf68af8b" style="stroke:#000000;stroke-width:0.8;"/>
      </defs>
      <g>
       <use style="stroke:#000000;stroke-width:0.8;" x="67.512633" xlink:href="#m1fdf68af8b" y="232.46"/>
      </g>
     </g>
     <g id="text_1">
      <!-- $0$ -->
      <defs>
       <path d="M 42 31.84375 
C 42 37.96875 41.90625 48.421875 37.703125 56.453125 
C 34 63.484375 28.09375 66 22.90625 66 
C 18.09375 66 12 63.78125 8.203125 56.5625 
C 4.203125 49.015625 3.796875 39.671875 3.796875 31.84375 
C 3.796875 26.109375 3.90625 17.375 7 9.734375 
C 11.296875 -0.609375 19 -2 22.90625 -2 
C 27.5 -2 34.5 -0.109375 38.59375 9.4375 
C 41.59375 16.375 42 24.5 42 31.84375 
z
M 22.90625 -0.40625 
C 16.5 -0.40625 12.703125 5.125 11.296875 12.75 
C 10.203125 18.6875 10.203125 27.328125 10.203125 32.953125 
C 10.203125 40.6875 10.203125 47.109375 11.5 53.234375 
C 13.40625 61.78125 19 64.390625 22.90625 64.390625 
C 27 64.390625 32.296875 61.671875 34.203125 53.4375 
C 35.5 47.71875 35.59375 40.984375 35.59375 32.953125 
C 35.59375 26.421875 35.59375 18.375 34.40625 12.453125 
C 32.296875 1.5 26.40625 -0.40625 22.90625 -0.40625 
z
" id="CMR17-48"/>
      </defs>
      <g transform="translate(65.021965 246.378498)scale(0.1 -0.1)">
       <use transform="scale(0.996264)" xlink:href="#CMR17-48"/>
      </g>
     </g>
    </g>
    <g id="xtick_2">
     <g id="line2d_3">
      <path clip-path="url(#pd861b6fb18)" d="M 123.359172 232.46 
L 123.359172 10.7 
" style="fill:none;stroke:#b0b0b0;stroke-dasharray:0.8,1.32;stroke-dashoffset:0;stroke-width:0.8;"/>
     </g>
     <g id="line2d_4">
      <g>
       <use style="stroke:#000000;stroke-width:0.8;" x="123.359172" xlink:href="#m1fdf68af8b" y="232.46"/>
      </g>
     </g>
     <g id="text_2">
      <!-- $20$ -->
      <defs>
       <path d="M 41.703125 15.46875 
L 39.90625 15.46875 
C 38.90625 8.390625 38.09375 7.1875 37.703125 6.59375 
C 37.203125 5.796875 30 5.796875 28.59375 5.796875 
L 9.40625 5.796875 
C 13 9.6875 20 16.765625 28.5 24.9375 
C 34.59375 30.71875 41.703125 37.5 41.703125 47.390625 
C 41.703125 59.1875 32.296875 66 21.796875 66 
C 10.796875 66 4.09375 56.296875 4.09375 47.296875 
C 4.09375 43.390625 7 42.890625 8.203125 42.890625 
C 9.203125 42.890625 12.203125 43.484375 12.203125 46.984375 
C 12.203125 50.09375 9.59375 51 8.203125 51 
C 7.59375 51 7 50.890625 6.59375 50.6875 
C 8.5 59.1875 14.296875 63.390625 20.40625 63.390625 
C 29.09375 63.390625 34.796875 56.5 34.796875 47.390625 
C 34.796875 38.703125 29.703125 31.21875 24 24.734375 
L 4.09375 2.296875 
L 4.09375 0 
L 39.296875 0 
z
" id="CMR17-50"/>
      </defs>
      <g transform="translate(118.377836 246.378498)scale(0.1 -0.1)">
       <use transform="scale(0.996264)" xlink:href="#CMR17-50"/>
       <use transform="translate(45.690477 0)scale(0.996264)" xlink:href="#CMR17-48"/>
      </g>
     </g>
    </g>
    <g id="xtick_3">
     <g id="line2d_5">
      <path clip-path="url(#pd861b6fb18)" d="M 179.20571 232.46 
L 179.20571 10.7 
" style="fill:none;stroke:#b0b0b0;stroke-dasharray:0.8,1.32;stroke-dashoffset:0;stroke-width:0.8;"/>
     </g>
     <g id="line2d_6">
      <g>
       <use style="stroke:#000000;stroke-width:0.8;" x="179.20571" xlink:href="#m1fdf68af8b" y="232.46"/>
      </g>
     </g>
     <g id="text_3">
      <!-- $40$ -->
      <defs>
       <path d="M 33.59375 64.796875 
C 33.59375 66.890625 33.5 67 31.703125 67 
L 2 19.59375 
L 2 17 
L 27.796875 17 
L 27.796875 7.1875 
C 27.796875 3.59375 27.59375 2.59375 20.59375 2.59375 
L 18.703125 2.59375 
L 18.703125 0 
C 21.90625 0.1875 27.296875 0.1875 30.703125 0.1875 
C 34.09375 0.1875 39.5 0.1875 42.703125 0 
L 42.703125 2.59375 
L 40.796875 2.59375 
C 33.796875 2.59375 33.59375 3.59375 33.59375 7.1875 
L 33.59375 17 
L 43.796875 17 
L 43.796875 19.59375 
L 33.59375 19.59375 
z
M 28.09375 58.171875 
L 28.09375 19.59375 
L 4 19.59375 
z
" id="CMR17-52"/>
      </defs>
      <g transform="translate(174.224375 246.378498)scale(0.1 -0.1)">
       <use transform="scale(0.996264)" xlink:href="#CMR17-52"/>
       <use transform="translate(45.690477 0)scale(0.996264)" xlink:href="#CMR17-48"/>
      </g>
     </g>
    </g>
    <g id="xtick_4">
     <g id="line2d_7">
      <path clip-path="url(#pd861b6fb18)" d="M 235.052249 232.46 
L 235.052249 10.7 
" style="fill:none;stroke:#b0b0b0;stroke-dasharray:0.8,1.32;stroke-dashoffset:0;stroke-width:0.8;"/>
     </g>
     <g id="line2d_8">
      <g>
       <use style="stroke:#000000;stroke-width:0.8;" x="235.052249" xlink:href="#m1fdf68af8b" y="232.46"/>
      </g>
     </g>
     <g id="text_4">
      <!-- $60$ -->
      <defs>
       <path d="M 10.59375 34.34375 
C 10.59375 58 21.796875 63.6875 28.296875 63.6875 
C 30.40625 63.6875 35.5 63.265625 37.5 59.09375 
C 35.90625 59.09375 32.90625 59.09375 32.90625 55.59375 
C 32.90625 52.890625 35.09375 52 36.5 52 
C 37.40625 52 40.09375 52.390625 40.09375 55.796875 
C 40.09375 62.296875 35.09375 66 28.203125 66 
C 16.296875 66 3.796875 53.296875 3.796875 31.421875 
C 3.796875 4.015625 15.09375 -2 23.09375 -2 
C 32.796875 -2 42 6.734375 42 20.234375 
C 42 32.828125 33.90625 42 23.703125 42 
C 17.59375 42 13.09375 37.96875 10.59375 30.921875 
z
M 23.09375 0.390625 
C 10.796875 0.390625 10.796875 18.9375 10.796875 22.65625 
C 10.796875 29.90625 14.203125 40.390625 23.5 40.390625 
C 25.203125 40.390625 30.09375 40.390625 33.40625 33.4375 
C 35.203125 29.515625 35.203125 25.375 35.203125 20.34375 
C 35.203125 14.90625 35.203125 10.875 33.09375 6.84375 
C 30.90625 2.703125 27.703125 0.390625 23.09375 0.390625 
z
" id="CMR17-54"/>
      </defs>
      <g transform="translate(230.070914 246.378498)scale(0.1 -0.1)">
       <use transform="scale(0.996264)" xlink:href="#CMR17-54"/>
       <use transform="translate(45.690477 0)scale(0.996264)" xlink:href="#CMR17-48"/>
      </g>
     </g>
    </g>
    <g id="xtick_5">
     <g id="line2d_9">
      <path clip-path="url(#pd861b6fb18)" d="M 290.898788 232.46 
L 290.898788 10.7 
" style="fill:none;stroke:#b0b0b0;stroke-dasharray:0.8,1.32;stroke-dashoffset:0;stroke-width:0.8;"/>
     </g>
     <g id="line2d_10">
      <g>
       <use style="stroke:#000000;stroke-width:0.8;" x="290.898788" xlink:href="#m1fdf68af8b" y="232.46"/>
      </g>
     </g>
     <g id="text_5">
      <!-- $80$ -->
      <defs>
       <path d="M 27.203125 35.765625 
C 33.5 38.96875 39.90625 43.796875 39.90625 51.53125 
C 39.90625 60.6875 31.09375 66 23 66 
C 13.90625 66 5.90625 59.375 5.90625 50.234375 
C 5.90625 47.71875 6.5 43.390625 10.40625 39.578125 
C 11.40625 38.578125 15.59375 35.5625 18.296875 33.65625 
C 13.796875 31.34375 3.296875 25.8125 3.296875 14.765625 
C 3.296875 4.40625 13.09375 -2 22.796875 -2 
C 33.5 -2 42.5 5.71875 42.5 15.96875 
C 42.5 25.109375 36.40625 29.328125 32.40625 32.046875 
z
M 14.09375 44.609375 
C 13.296875 45.109375 9.296875 48.21875 9.296875 52.9375 
C 9.296875 59.078125 15.59375 63.6875 22.796875 63.6875 
C 30.703125 63.6875 36.5 58.0625 36.5 51.53125 
C 36.5 42.1875 26.09375 36.859375 25.59375 36.859375 
C 25.5 36.859375 25.40625 36.859375 24.59375 37.46875 
z
M 32.5 24 
C 34 22.90625 38.796875 19.578125 38.796875 13.453125 
C 38.796875 6.015625 31.40625 0.390625 23 0.390625 
C 13.90625 0.390625 7 6.921875 7 14.859375 
C 7 22.796875 13.09375 29.4375 20 32.546875 
z
" id="CMR17-56"/>
      </defs>
      <g transform="translate(285.917453 246.378498)scale(0.1 -0.1)">
       <use transform="scale(0.996264)" xlink:href="#CMR17-56"/>
       <use transform="translate(45.690477 0)scale(0.996264)" xlink:href="#CMR17-48"/>
      </g>
     </g>
    </g>
    <g id="xtick_6">
     <g id="line2d_11">
      <path clip-path="url(#pd861b6fb18)" d="M 346.745327 232.46 
L 346.745327 10.7 
" style="fill:none;stroke:#b0b0b0;stroke-dasharray:0.8,1.32;stroke-dashoffset:0;stroke-width:0.8;"/>
     </g>
     <g id="line2d_12">
      <g>
       <use style="stroke:#000000;stroke-width:0.8;" x="346.745327" xlink:href="#m1fdf68af8b" y="232.46"/>
      </g>
     </g>
     <g id="text_6">
      <!-- $100$ -->
      <defs>
       <path d="M 26.59375 63.796875 
C 26.59375 65.890625 26.5 66 25.09375 66 
C 21.203125 61.359375 15.296875 59.890625 9.703125 59.6875 
C 9.40625 59.6875 8.90625 59.6875 8.796875 59.5 
C 8.703125 59.296875 8.703125 59.09375 8.703125 57 
C 11.796875 57 17 57.59375 21 59.984375 
L 21 7.296875 
C 21 3.796875 20.796875 2.59375 12.203125 2.59375 
L 9.203125 2.59375 
L 9.203125 0 
C 14 0.09375 19 0.1875 23.796875 0.1875 
C 28.59375 0.1875 33.59375 0.09375 38.40625 0 
L 38.40625 2.59375 
L 35.40625 2.59375 
C 26.796875 2.59375 26.59375 3.6875 26.59375 7.296875 
z
" id="CMR17-49"/>
      </defs>
      <g transform="translate(339.273324 246.378498)scale(0.1 -0.1)">
       <use transform="scale(0.996264)" xlink:href="#CMR17-49"/>
       <use transform="translate(45.690477 0)scale(0.996264)" xlink:href="#CMR17-48"/>
       <use transform="translate(91.380954 0)scale(0.996264)" xlink:href="#CMR17-48"/>
      </g>
     </g>
    </g>
    <g id="text_7">
     <!-- iteration $k$ -->
     <defs>
      <path d="M 15.5 61.890625 
C 15.5 64.09375 13.703125 66 11.40625 66 
C 9.203125 66 7.296875 64.1875 7.296875 61.890625 
C 7.296875 59.6875 9.09375 57.796875 11.40625 57.796875 
C 13.59375 57.796875 15.5 59.59375 15.5 61.890625 
z
M 3.796875 42.890625 
L 3.796875 40.296875 
C 9.40625 40.296875 10.203125 39.6875 10.203125 34.859375 
L 10.203125 6.921875 
C 10.203125 3.09375 9.796875 2.59375 3.40625 2.59375 
L 3.40625 0 
C 5.796875 0.1875 10.09375 0.1875 12.59375 0.1875 
C 15 0.1875 19.09375 0.1875 21.40625 0 
L 21.40625 2.59375 
C 15.5 2.59375 15.296875 3.203125 15.296875 6.8125 
L 15.296875 44 
z
" id="CMR17-105"/>
      <path d="M 15.09375 40.390625 
L 29.09375 40.390625 
L 29.09375 43 
L 15.09375 43 
L 15.09375 62 
L 13.296875 62 
C 13.09375 51.4375 9.59375 42.1875 1.09375 41.984375 
L 1.09375 40.390625 
L 9.796875 40.390625 
L 9.796875 12.15625 
C 9.796875 10.234375 9.796875 -1 21.40625 -1 
C 27.296875 -1 30.703125 4.8125 30.703125 12.25 
L 30.703125 17.984375 
L 28.90625 17.984375 
L 28.90625 12.34375 
C 28.90625 5.421875 26.203125 0.796875 22 0.796875 
C 19.09375 0.796875 15.09375 2.796875 15.09375 11.953125 
z
" id="CMR17-116"/>
      <path d="M 38.09375 23.484375 
C 38.5 23.890625 38.5 24.09375 38.5 25.09375 
C 38.5 35.171875 33.09375 44 21.703125 44 
C 11.09375 44 2.703125 33.984375 2.703125 21.78125 
C 2.703125 8.65625 12.203125 -1 22.796875 -1 
C 34 -1 38.40625 9.671875 38.40625 11.796875 
C 38.40625 12.5 37.796875 12.5 37.59375 12.5 
C 36.90625 12.5 36.796875 12.296875 36.40625 11.078125 
C 34.203125 4.21875 28.703125 0.796875 23.5 0.796875 
C 19.203125 0.796875 14.90625 3.21875 12.203125 7.65625 
C 9.09375 12.796875 9.09375 18.75 9.09375 23.484375 
z
M 9.203125 25 
C 9.90625 39.234375 17.59375 42.390625 21.59375 42.390625 
C 28.40625 42.390625 33 36.0625 33.09375 25 
z
" id="CMR17-101"/>
      <path d="M 15 23.703125 
C 15 33.34375 19.09375 42.390625 26.59375 42.390625 
C 27.296875 42.390625 28 42.296875 28.703125 41.984375 
C 28.703125 41.984375 26.5 41.28125 26.5 38.671875 
C 26.5 36.265625 28.40625 35.265625 29.90625 35.265625 
C 31.09375 35.265625 33.296875 35.96875 33.296875 38.78125 
C 33.296875 41.984375 30.09375 44 26.703125 44 
C 19.09375 44 15.796875 36.5625 14.796875 33.046875 
L 14.703125 33.046875 
L 14.703125 44 
L 3.09375 42.890625 
L 3.09375 40.28125 
C 9 40.28125 9.90625 39.6875 9.90625 34.859375 
L 9.90625 6.921875 
C 9.90625 3.09375 9.5 2.59375 3.09375 2.59375 
L 3.09375 0 
C 5.5 0.1875 10.09375 0.1875 12.703125 0.1875 
C 15.59375 0.1875 20.703125 0.1875 23.40625 0 
L 23.40625 2.59375 
C 16.203125 2.59375 15 2.59375 15 7.109375 
z
" id="CMR17-114"/>
      <path d="M 36 25.875 
C 36 32 36 35.546875 31.796875 39.59375 
C 28.09375 42.984375 23.796875 44 20.40625 44 
C 12.5 44 6.796875 37.625 6.796875 30.890625 
C 6.796875 27.1875 9.796875 27 10.40625 27 
C 11.703125 27 14 27.796875 14 30.59375 
C 14 33.09375 12.09375 34.1875 10.40625 34.1875 
C 10 34.1875 9.5 34.09375 9.203125 34 
C 11.296875 40.53125 16.703125 42.390625 20.203125 42.390625 
C 25.203125 42.390625 30.703125 37.828125 30.703125 29.296875 
L 30.703125 25.5 
C 24.796875 25.296875 17.703125 24.5 12.09375 21.453125 
C 5.796875 17.921875 4 12.84375 4 9 
C 4 1.203125 13 -1 18.296875 -1 
C 23.796875 -1 28.90625 2.109375 31.09375 7.890625 
C 31.296875 3.421875 34.09375 -0.609375 38.5 -0.609375 
C 40.59375 -0.609375 45.90625 0.796875 45.90625 8.796875 
L 45.90625 14.46875 
L 44.09375 14.46875 
L 44.09375 8.703125 
C 44.09375 2.515625 41.40625 1.703125 40.09375 1.703125 
C 36 1.703125 36 6.96875 36 11.4375 
z
M 30.703125 13.859375 
C 30.703125 5.046875 24.5 0.59375 19 0.59375 
C 14 0.59375 10.09375 4.34375 10.09375 9 
C 10.09375 12.046875 11.40625 17.40625 17.203125 20.65625 
C 22 23.390625 27.5 23.796875 30.703125 24 
z
" id="CMR17-97"/>
      <path d="M 43.09375 21.1875 
C 43.09375 34 33.796875 44 22.90625 44 
C 12 44 2.703125 34 2.703125 21.1875 
C 2.703125 8.59375 12 -1 22.90625 -1 
C 33.796875 -1 43.09375 8.59375 43.09375 21.1875 
z
M 22.90625 0.796875 
C 18.203125 0.796875 14.203125 3.59375 11.90625 7.5 
C 9.40625 12 9.09375 17.59375 9.09375 22 
C 9.09375 26.1875 9.296875 31.390625 11.90625 35.890625 
C 13.90625 39.1875 17.796875 42.390625 22.90625 42.390625 
C 27.40625 42.390625 31.203125 39.890625 33.59375 36.390625 
C 36.703125 31.6875 36.703125 25.09375 36.703125 22 
C 36.703125 18.09375 36.5 12.09375 33.796875 7.296875 
C 31 2.6875 26.703125 0.796875 22.90625 0.796875 
z
" id="CMR17-111"/>
      <path d="M 41.5 30.53125 
C 41.5 35.65625 40.5 44 28.703125 44 
C 20.796875 44 16.703125 37.875 15.203125 33.84375 
L 15.09375 33.84375 
L 15.09375 44 
L 3.296875 42.890625 
L 3.296875 40.28125 
C 9.203125 40.28125 10.09375 39.6875 10.09375 34.859375 
L 10.09375 6.921875 
C 10.09375 3.09375 9.703125 2.59375 3.296875 2.59375 
L 3.296875 0 
C 5.703125 0.1875 10.09375 0.1875 12.703125 0.1875 
C 15.296875 0.1875 19.796875 0.1875 22.203125 0 
L 22.203125 2.59375 
C 15.796875 2.59375 15.40625 3 15.40625 6.921875 
L 15.40625 26.21875 
C 15.40625 35.453125 21 42.390625 28 42.390625 
C 35.40625 42.390625 36.203125 35.765625 36.203125 30.9375 
L 36.203125 6.921875 
C 36.203125 3.09375 35.796875 2.59375 29.40625 2.59375 
L 29.40625 0 
C 31.796875 0.1875 36.203125 0.1875 38.796875 0.1875 
C 41.40625 0.1875 45.90625 0.1875 48.296875 0 
L 48.296875 2.59375 
C 41.90625 2.59375 41.5 3 41.5 6.921875 
z
" id="CMR17-110"/>
      <path d="M 28.09375 66.484375 
C 28.203125 66.890625 28.40625 67.484375 28.40625 67.984375 
C 28.40625 69 27.40625 69 27.203125 69 
C 27.09375 69 23.5 68.6875 21.703125 68.484375 
C 20 68.390625 18.5 68.1875 16.703125 68.09375 
C 14.296875 67.890625 13.59375 67.796875 13.59375 65.984375 
C 13.59375 64.984375 14.59375 64.984375 15.59375 64.984375 
C 20.703125 64.984375 20.703125 64.109375 20.703125 63.125 
C 20.703125 62.71875 20.703125 62.53125 20.203125 60.75 
L 5.90625 3.90625 
C 5.5 2.390625 5.5 2.203125 5.5 1.59375 
C 5.5 -0.609375 7.203125 -1 8.203125 -1 
C 11 -1 11.59375 1.1875 12.40625 4.296875 
L 17.09375 23.0625 
C 24.296875 22.265625 28.59375 19.25 28.59375 14.4375 
C 28.59375 13.828125 28.59375 13.4375 28.296875 11.921875 
C 27.90625 10.421875 27.90625 9.21875 27.90625 8.71875 
C 27.90625 2.890625 31.703125 -1 36.796875 -1 
C 41.40625 -1 43.796875 3.203125 44.59375 4.609375 
C 46.703125 8.3125 48 13.9375 48 14.328125 
C 48 14.828125 47.59375 15.234375 47 15.234375 
C 46.09375 15.234375 46 14.828125 45.59375 13.234375 
C 44.203125 8.015625 42.09375 1 37 1 
C 35 1 33.703125 2 33.703125 5.8125 
C 33.703125 7.71875 34.09375 9.921875 34.5 11.421875 
C 34.90625 13.234375 34.90625 13.328125 34.90625 14.53125 
C 34.90625 20.453125 29.59375 23.765625 20.40625 24.96875 
C 24 27.171875 27.59375 31.078125 29 32.59375 
C 34.703125 38.984375 38.59375 41.984375 43.203125 41.984375 
C 45.5 41.984375 46.09375 41.484375 46.796875 41 
C 43.09375 40.59375 41.703125 37.984375 41.703125 35.984375 
C 41.703125 33.59375 43.59375 32.796875 45 32.796875 
C 47.703125 32.796875 50.09375 35.09375 50.09375 38.296875 
C 50.09375 41.15625 47.796875 44 43.296875 44 
C 37.796875 44 33.296875 40.296875 26.203125 32.296875 
C 25.203125 31.078125 21.5 27.28125 17.796875 25.875 
z
" id="CMMI12-107"/>
     </defs>
     <g transform="translate(196.885256 259.234175)scale(0.1 -0.1)">
      <use transform="scale(0.996264)" xlink:href="#CMR17-105"/>
      <use transform="translate(24.871058 0)scale(0.996264)" xlink:href="#CMR17-116"/>
      <use transform="translate(60.151826 0)scale(0.996264)" xlink:href="#CMR17-101"/>
      <use transform="translate(100.637487 0)scale(0.996264)" xlink:href="#CMR17-114"/>
      <use transform="translate(135.918255 0)scale(0.996264)" xlink:href="#CMR17-97"/>
      <use transform="translate(181.608732 0)scale(0.996264)" xlink:href="#CMR17-116"/>
      <use transform="translate(216.889499 0)scale(0.996264)" xlink:href="#CMR17-105"/>
      <use transform="translate(241.760558 0)scale(0.996264)" xlink:href="#CMR17-111"/>
      <use transform="translate(287.451035 0)scale(0.996264)" xlink:href="#CMR17-110"/>
      <use transform="translate(368.422371 0)scale(0.996264)" xlink:href="#CMMI12-107"/>
     </g>
    </g>
   </g>
   <g id="matplotlib.axis_2">
    <g id="ytick_1">
     <g id="line2d_13">
      <path clip-path="url(#pd861b6fb18)" d="M 52.294451 232.46 
L 387.094451 232.46 
" style="fill:none;stroke:#b0b0b0;stroke-dasharray:0.8,1.32;stroke-dashoffset:0;stroke-width:0.8;"/>
     </g>
     <g id="line2d_14">
      <defs>
       <path d="M 0 0 
L -3.5 0 
" id="m1705baa75e" style="stroke:#000000;stroke-width:0.8;"/>
      </defs>
      <g>
       <use style="stroke:#000000;stroke-width:0.8;" x="52.294451" xlink:href="#m1705baa75e" y="232.46"/>
      </g>
     </g>
     <g id="text_8">
      <!-- $10^{-16}$ -->
      <defs>
       <path d="M 65.90625 23 
C 67.59375 23 69.40625 23 69.40625 25 
C 69.40625 27 67.59375 27 65.90625 27 
L 11.796875 27 
C 10.09375 27 8.296875 27 8.296875 25 
C 8.296875 23 10.09375 23 11.796875 23 
z
" id="CMSY10-0"/>
      </defs>
      <g transform="translate(21.16264 235.919249)scale(0.1 -0.1)">
       <use transform="scale(0.996264)" xlink:href="#CMR17-49"/>
       <use transform="translate(45.690477 0)scale(0.996264)" xlink:href="#CMR17-48"/>
       <use transform="translate(91.380954 36.153639)scale(0.697382)" xlink:href="#CMSY10-0"/>
       <use transform="translate(145.621947 36.153639)scale(0.697382)" xlink:href="#CMR17-49"/>
       <use transform="translate(177.605129 36.153639)scale(0.697382)" xlink:href="#CMR17-54"/>
      </g>
     </g>
    </g>
    <g id="ytick_2">
     <g id="line2d_15">
      <path clip-path="url(#pd861b6fb18)" d="M 52.294451 205.900278 
L 387.094451 205.900278 
" style="fill:none;stroke:#b0b0b0;stroke-dasharray:0.8,1.32;stroke-dashoffset:0;stroke-width:0.8;"/>
     </g>
     <g id="line2d_16">
      <g>
       <use style="stroke:#000000;stroke-width:0.8;" x="52.294451" xlink:href="#m1705baa75e" y="205.900278"/>
      </g>
     </g>
     <g id="text_9">
      <!-- $10^{-14}$ -->
      <g transform="translate(21.16264 209.359527)scale(0.1 -0.1)">
       <use transform="scale(0.996264)" xlink:href="#CMR17-49"/>
       <use transform="translate(45.690477 0)scale(0.996264)" xlink:href="#CMR17-48"/>
       <use transform="translate(91.380954 36.153639)scale(0.697382)" xlink:href="#CMSY10-0"/>
       <use transform="translate(145.621947 36.153639)scale(0.697382)" xlink:href="#CMR17-49"/>
       <use transform="translate(177.605129 36.153639)scale(0.697382)" xlink:href="#CMR17-52"/>
      </g>
     </g>
    </g>
    <g id="ytick_3">
     <g id="line2d_17">
      <path clip-path="url(#pd861b6fb18)" d="M 52.294451 179.340556 
L 387.094451 179.340556 
" style="fill:none;stroke:#b0b0b0;stroke-dasharray:0.8,1.32;stroke-dashoffset:0;stroke-width:0.8;"/>
     </g>
     <g id="line2d_18">
      <g>
       <use style="stroke:#000000;stroke-width:0.8;" x="52.294451" xlink:href="#m1705baa75e" y="179.340556"/>
      </g>
     </g>
     <g id="text_10">
      <!-- $10^{-12}$ -->
      <g transform="translate(21.16264 182.799805)scale(0.1 -0.1)">
       <use transform="scale(0.996264)" xlink:href="#CMR17-49"/>
       <use transform="translate(45.690477 0)scale(0.996264)" xlink:href="#CMR17-48"/>
       <use transform="translate(91.380954 36.153639)scale(0.697382)" xlink:href="#CMSY10-0"/>
       <use transform="translate(145.621947 36.153639)scale(0.697382)" xlink:href="#CMR17-49"/>
       <use transform="translate(177.605129 36.153639)scale(0.697382)" xlink:href="#CMR17-50"/>
      </g>
     </g>
    </g>
    <g id="ytick_4">
     <g id="line2d_19">
      <path clip-path="url(#pd861b6fb18)" d="M 52.294451 152.780834 
L 387.094451 152.780834 
" style="fill:none;stroke:#b0b0b0;stroke-dasharray:0.8,1.32;stroke-dashoffset:0;stroke-width:0.8;"/>
     </g>
     <g id="line2d_20">
      <g>
       <use style="stroke:#000000;stroke-width:0.8;" x="52.294451" xlink:href="#m1705baa75e" y="152.780834"/>
      </g>
     </g>
     <g id="text_11">
      <!-- $10^{-10}$ -->
      <g transform="translate(21.16264 156.240083)scale(0.1 -0.1)">
       <use transform="scale(0.996264)" xlink:href="#CMR17-49"/>
       <use transform="translate(45.690477 0)scale(0.996264)" xlink:href="#CMR17-48"/>
       <use transform="translate(91.380954 36.153639)scale(0.697382)" xlink:href="#CMSY10-0"/>
       <use transform="translate(145.621947 36.153639)scale(0.697382)" xlink:href="#CMR17-49"/>
       <use transform="translate(177.605129 36.153639)scale(0.697382)" xlink:href="#CMR17-48"/>
      </g>
     </g>
    </g>
    <g id="ytick_5">
     <g id="line2d_21">
      <path clip-path="url(#pd861b6fb18)" d="M 52.294451 126.221112 
L 387.094451 126.221112 
" style="fill:none;stroke:#b0b0b0;stroke-dasharray:0.8,1.32;stroke-dashoffset:0;stroke-width:0.8;"/>
     </g>
     <g id="line2d_22">
      <g>
       <use style="stroke:#000000;stroke-width:0.8;" x="52.294451" xlink:href="#m1705baa75e" y="126.221112"/>
      </g>
     </g>
     <g id="text_12">
      <!-- $10^{-8}$ -->
      <g transform="translate(25.133878 129.680361)scale(0.1 -0.1)">
       <use transform="scale(0.996264)" xlink:href="#CMR17-49"/>
       <use transform="translate(45.690477 0)scale(0.996264)" xlink:href="#CMR17-48"/>
       <use transform="translate(91.380954 36.153639)scale(0.697382)" xlink:href="#CMSY10-0"/>
       <use transform="translate(145.621947 36.153639)scale(0.697382)" xlink:href="#CMR17-56"/>
      </g>
     </g>
    </g>
    <g id="ytick_6">
     <g id="line2d_23">
      <path clip-path="url(#pd861b6fb18)" d="M 52.294451 99.66139 
L 387.094451 99.66139 
" style="fill:none;stroke:#b0b0b0;stroke-dasharray:0.8,1.32;stroke-dashoffset:0;stroke-width:0.8;"/>
     </g>
     <g id="line2d_24">
      <g>
       <use style="stroke:#000000;stroke-width:0.8;" x="52.294451" xlink:href="#m1705baa75e" y="99.66139"/>
      </g>
     </g>
     <g id="text_13">
      <!-- $10^{-6}$ -->
      <g transform="translate(25.133878 103.120639)scale(0.1 -0.1)">
       <use transform="scale(0.996264)" xlink:href="#CMR17-49"/>
       <use transform="translate(45.690477 0)scale(0.996264)" xlink:href="#CMR17-48"/>
       <use transform="translate(91.380954 36.153639)scale(0.697382)" xlink:href="#CMSY10-0"/>
       <use transform="translate(145.621947 36.153639)scale(0.697382)" xlink:href="#CMR17-54"/>
      </g>
     </g>
    </g>
    <g id="ytick_7">
     <g id="line2d_25">
      <path clip-path="url(#pd861b6fb18)" d="M 52.294451 73.101668 
L 387.094451 73.101668 
" style="fill:none;stroke:#b0b0b0;stroke-dasharray:0.8,1.32;stroke-dashoffset:0;stroke-width:0.8;"/>
     </g>
     <g id="line2d_26">
      <g>
       <use style="stroke:#000000;stroke-width:0.8;" x="52.294451" xlink:href="#m1705baa75e" y="73.101668"/>
      </g>
     </g>
     <g id="text_14">
      <!-- $10^{-4}$ -->
      <g transform="translate(25.133878 76.560918)scale(0.1 -0.1)">
       <use transform="scale(0.996264)" xlink:href="#CMR17-49"/>
       <use transform="translate(45.690477 0)scale(0.996264)" xlink:href="#CMR17-48"/>
       <use transform="translate(91.380954 36.153639)scale(0.697382)" xlink:href="#CMSY10-0"/>
       <use transform="translate(145.621947 36.153639)scale(0.697382)" xlink:href="#CMR17-52"/>
      </g>
     </g>
    </g>
    <g id="ytick_8">
     <g id="line2d_27">
      <path clip-path="url(#pd861b6fb18)" d="M 52.294451 46.541946 
L 387.094451 46.541946 
" style="fill:none;stroke:#b0b0b0;stroke-dasharray:0.8,1.32;stroke-dashoffset:0;stroke-width:0.8;"/>
     </g>
     <g id="line2d_28">
      <g>
       <use style="stroke:#000000;stroke-width:0.8;" x="52.294451" xlink:href="#m1705baa75e" y="46.541946"/>
      </g>
     </g>
     <g id="text_15">
      <!-- $10^{-2}$ -->
      <g transform="translate(25.133878 50.001196)scale(0.1 -0.1)">
       <use transform="scale(0.996264)" xlink:href="#CMR17-49"/>
       <use transform="translate(45.690477 0)scale(0.996264)" xlink:href="#CMR17-48"/>
       <use transform="translate(91.380954 36.153639)scale(0.697382)" xlink:href="#CMSY10-0"/>
       <use transform="translate(145.621947 36.153639)scale(0.697382)" xlink:href="#CMR17-50"/>
      </g>
     </g>
    </g>
    <g id="ytick_9">
     <g id="line2d_29">
      <path clip-path="url(#pd861b6fb18)" d="M 52.294451 19.982224 
L 387.094451 19.982224 
" style="fill:none;stroke:#b0b0b0;stroke-dasharray:0.8,1.32;stroke-dashoffset:0;stroke-width:0.8;"/>
     </g>
     <g id="line2d_30">
      <g>
       <use style="stroke:#000000;stroke-width:0.8;" x="52.294451" xlink:href="#m1705baa75e" y="19.982224"/>
      </g>
     </g>
     <g id="text_16">
      <!-- $10^{0}$ -->
      <g transform="translate(31.360543 23.441474)scale(0.1 -0.1)">
       <use transform="scale(0.996264)" xlink:href="#CMR17-49"/>
       <use transform="translate(45.690477 0)scale(0.996264)" xlink:href="#CMR17-48"/>
       <use transform="translate(91.380954 36.153639)scale(0.697382)" xlink:href="#CMR17-48"/>
      </g>
     </g>
    </g>
    <g id="text_17">
     <!-- $\mathbf{A}$-norm of error: $\| \mathbf{x}-\mathbf{x}_k \|_\mathbf{A}$ -->
     <defs>
      <path d="M 45.796875 67.703125 
C 45.09375 69.5 44.90625 70 42.5 70 
C 40 70 39.796875 69.5 39.09375 67.703125 
L 14.296875 6.703125 
C 13.59375 5.09375 13.59375 4.890625 10.796875 4.59375 
C 8.296875 4.296875 7.90625 4.296875 5.703125 4.296875 
L 3.90625 4.296875 
L 3.90625 0 
C 6.5 0.1875 12.5 0.1875 15.40625 0.1875 
C 18.09375 0.1875 25.40625 0.1875 27.703125 0 
L 27.703125 4.296875 
C 25.5 4.296875 21.703125 4.296875 18.90625 5.40625 
C 19.203125 6.3125 19.203125 6.5 19.40625 6.90625 
L 24.703125 20 
L 51.5 20 
L 57.796875 4.296875 
L 48.40625 4.296875 
L 48.40625 0 
C 51.59375 0.1875 61.296875 0.1875 65.09375 0.1875 
C 68.296875 0.1875 78.5 0.1875 81 0 
L 81 4.296875 
L 71.5 4.296875 
z
M 38.09375 53.03125 
L 49.703125 24.296875 
L 26.40625 24.296875 
z
" id="CMBX12-65"/>
      <path d="M 25.5 19.59375 
L 25.5 24 
L 0.40625 24 
L 0.40625 19.59375 
z
" id="CMR17-45"/>
      <path d="M 67.59375 30.53125 
C 67.59375 35.5625 66.703125 44 54.796875 44 
C 48 44 43.296875 39.375 41.5 33.953125 
L 41.40625 33.953125 
C 40.203125 42.1875 34.296875 44 28.703125 44 
C 20.796875 44 16.703125 37.875 15.203125 33.84375 
L 15.09375 33.84375 
L 15.09375 44 
L 3.296875 42.890625 
L 3.296875 40.28125 
C 9.203125 40.28125 10.09375 39.6875 10.09375 34.859375 
L 10.09375 6.921875 
C 10.09375 3.09375 9.703125 2.59375 3.296875 2.59375 
L 3.296875 0 
C 5.703125 0.1875 10.09375 0.1875 12.703125 0.1875 
C 15.296875 0.1875 19.796875 0.1875 22.203125 0 
L 22.203125 2.59375 
C 15.796875 2.59375 15.40625 3 15.40625 6.921875 
L 15.40625 26.21875 
C 15.40625 35.453125 21 42.390625 28 42.390625 
C 35.40625 42.390625 36.203125 35.765625 36.203125 30.9375 
L 36.203125 6.921875 
C 36.203125 3.09375 35.796875 2.59375 29.40625 2.59375 
L 29.40625 0 
C 31.796875 0.1875 36.203125 0.1875 38.796875 0.1875 
C 41.40625 0.1875 45.90625 0.1875 48.296875 0 
L 48.296875 2.59375 
C 41.90625 2.59375 41.5 3 41.5 6.921875 
L 41.5 26.21875 
C 41.5 35.453125 47.09375 42.390625 54.09375 42.390625 
C 61.5 42.390625 62.296875 35.765625 62.296875 30.9375 
L 62.296875 6.921875 
C 62.296875 3.09375 61.90625 2.59375 55.5 2.59375 
L 55.5 0 
C 57.90625 0.1875 62.296875 0.1875 64.90625 0.1875 
C 67.5 0.1875 72 0.1875 74.40625 0 
L 74.40625 2.59375 
C 68 2.59375 67.59375 3 67.59375 6.921875 
z
" id="CMR17-109"/>
      <path d="M 15.296875 40.390625 
L 26.703125 40.390625 
L 26.703125 43 
L 15.09375 43 
L 15.09375 55.296875 
C 15.09375 63.6875 19.296875 68.390625 23.59375 68.390625 
C 24.90625 68.390625 26.40625 68.171875 27.40625 67.796875 
C 26.59375 67.59375 24.5 66.890625 24.5 64.390625 
C 24.5 61.796875 26.5 61 27.90625 61 
C 29.296875 61 31.296875 61.796875 31.296875 64.390625 
C 31.296875 68.015625 27.703125 70 23.703125 70 
C 18 70 10.203125 65.796875 10.203125 55.09375 
L 10.203125 43 
L 2.203125 43 
L 2.203125 40.390625 
L 10.203125 40.390625 
L 10.203125 6.890625 
C 10.203125 3.09375 9.796875 2.59375 3.40625 2.59375 
L 3.40625 0 
C 5.796875 0.1875 10.40625 0.1875 13 0.1875 
C 15.90625 0.1875 21 0.1875 23.703125 0 
L 23.703125 2.59375 
C 16.5 2.59375 15.296875 2.59375 15.296875 7.09375 
z
" id="CMR17-102"/>
      <path d="M 16.59375 38.890625 
C 16.59375 41.390625 14.59375 43 12.5 43 
C 10.5 43 8.40625 41.390625 8.40625 38.890625 
C 8.40625 36.390625 10.40625 34.796875 12.5 34.796875 
C 14.5 34.796875 16.59375 36.390625 16.59375 38.890625 
z
M 16.59375 4.09375 
C 16.59375 6.59375 14.59375 8.1875 12.5 8.1875 
C 10.5 8.1875 8.40625 6.59375 8.40625 4.09375 
C 8.40625 1.59375 10.40625 0 12.5 0 
C 14.5 0 16.59375 1.59375 16.59375 4.09375 
z
" id="CMR17-58"/>
      <path d="M 17.203125 71.59375 
C 17.203125 73.1875 17.203125 75 15.203125 75 
C 13.203125 75 13.203125 72.796875 13.203125 71.296875 
L 13.203125 -21.3125 
C 13.203125 -22.90625 13.203125 -25 15.203125 -25 
C 17.203125 -25 17.203125 -23.203125 17.203125 -21.609375 
z
M 36.703125 71.296875 
C 36.703125 72.890625 36.703125 75 34.703125 75 
C 32.703125 75 32.703125 73.1875 32.703125 71.59375 
L 32.703125 -21.609375 
C 32.703125 -23.203125 32.703125 -25 34.703125 -25 
C 36.703125 -25 36.703125 -22.8125 36.703125 -21.3125 
z
" id="CMSY10-107"/>
      <path d="M 33.703125 24.46875 
L 45.296875 37.609375 
C 46.40625 38.90625 47.296875 39.6875 55.59375 39.6875 
L 55.59375 44 
C 50 43.796875 49.796875 43.796875 46.40625 43.796875 
C 43.5 43.796875 39.203125 43.796875 36.40625 44 
L 36.40625 39.6875 
C 38.296875 39.6875 40.40625 39.203125 40.40625 38.5 
C 40.40625 38.3125 39.90625 37.609375 39.703125 37.421875 
L 31 27.71875 
L 21.09375 39.6875 
L 25.296875 39.6875 
L 25.296875 44 
C 23 43.796875 16.203125 43.796875 13.5 43.796875 
C 10.5 43.796875 5.09375 43.796875 2.296875 44 
L 2.296875 39.6875 
L 9.40625 39.6875 
L 25 20.90625 
L 12 6.375 
C 10.796875 4.984375 10.09375 4.296875 1.796875 4.296875 
L 1.796875 0 
C 7.796875 0.1875 8 0.1875 11.09375 0.1875 
C 14 0.1875 18.203125 0.1875 21 0 
L 21 4.296875 
C 19.09375 4.296875 17 4.78125 17 5.484375 
C 17 5.578125 17 5.671875 17.703125 6.46875 
L 27.703125 17.640625 
L 38.796875 4.296875 
L 34.59375 4.296875 
L 34.59375 0 
C 37 0.1875 43.703125 0.1875 46.5 0.1875 
C 49.5 0.1875 54.796875 0.1875 57.59375 0 
L 57.59375 4.296875 
L 50.59375 4.296875 
z
" id="CMBX12-120"/>
     </defs>
     <g transform="translate(15.225462 183.362537)rotate(-90)scale(0.1 -0.1)">
      <use transform="translate(0 14.943915)scale(0.996264)" xlink:href="#CMBX12-65"/>
      <use transform="translate(84.636395 14.943915)scale(0.996264)" xlink:href="#CMR17-45"/>
      <use transform="translate(114.712361 14.943915)scale(0.996264)" xlink:href="#CMR17-110"/>
      <use transform="translate(165.607731 14.943915)scale(0.996264)" xlink:href="#CMR17-111"/>
      <use transform="translate(211.298208 14.943915)scale(0.996264)" xlink:href="#CMR17-114"/>
      <use transform="translate(246.578976 14.943915)scale(0.996264)" xlink:href="#CMR17-109"/>
      <use transform="translate(353.574532 14.943915)scale(0.996264)" xlink:href="#CMR17-111"/>
      <use transform="translate(399.265009 14.943915)scale(0.996264)" xlink:href="#CMR17-102"/>
      <use transform="translate(456.814488 14.943915)scale(0.996264)" xlink:href="#CMR17-101"/>
      <use transform="translate(497.300148 14.943915)scale(0.996264)" xlink:href="#CMR17-114"/>
      <use transform="translate(532.580916 14.943915)scale(0.996264)" xlink:href="#CMR17-114"/>
      <use transform="translate(567.861684 14.943915)scale(0.996264)" xlink:href="#CMR17-111"/>
      <use transform="translate(613.552161 14.943915)scale(0.996264)" xlink:href="#CMR17-114"/>
      <use transform="translate(648.832929 14.943915)scale(0.996264)" xlink:href="#CMR17-58"/>
      <use transform="translate(714.189648 14.943915)scale(0.996264)" xlink:href="#CMSY10-107"/>
      <use transform="translate(764.003031 14.943915)scale(0.996264)" xlink:href="#CMBX12-120"/>
      <use transform="translate(845.295413 14.943915)scale(0.996264)" xlink:href="#CMSY10-0"/>
      <use transform="translate(944.922088 14.943915)scale(0.996264)" xlink:href="#CMBX12-120"/>
      <use transform="translate(1004.075263 0)scale(0.697382)" xlink:href="#CMMI12-107"/>
      <use transform="translate(1042.428646 14.943915)scale(0.996264)" xlink:href="#CMSY10-107"/>
      <use transform="translate(1092.242029 0)scale(0.697382)" xlink:href="#CMBX12-65"/>
     </g>
    </g>
   </g>
   <g id="line2d_31">
    <path clip-path="url(#pd861b6fb18)" d="M 67.512633 19.982224 
L 70.30496 21.025709 
L 73.097287 21.769857 
L 75.889614 22.157842 
L 78.681941 22.399786 
L 81.474268 22.620018 
L 84.266595 22.784349 
L 87.058921 23.148488 
L 89.851248 23.359311 
L 92.643575 23.73461 
L 95.435902 24.067417 
L 98.228229 24.31294 
L 101.020556 24.679217 
L 103.812883 25.041986 
L 106.60521 25.698792 
L 109.397537 26.610819 
L 112.189864 27.860589 
L 114.982191 29.506451 
L 117.774518 29.651675 
L 120.566845 32.282808 
L 123.359172 33.836567 
L 126.151499 33.959072 
L 128.943826 36.213512 
L 131.736153 36.283577 
L 134.528479 38.847631 
L 137.320806 39.428436 
L 140.113133 41.262239 
L 142.90546 44.973174 
L 145.697787 45.166302 
L 148.490114 46.979993 
L 151.282441 49.911609 
L 154.074768 49.953692 
L 156.867095 52.077725 
L 159.659422 52.317927 
L 162.451749 58.639834 
L 165.244076 58.722 
L 168.036403 58.876585 
L 170.82873 60.435028 
L 173.621057 67.082803 
L 176.413384 67.122024 
L 179.20571 71.263368 
L 181.998037 71.529726 
L 184.790364 71.649539 
L 187.582691 75.99517 
L 190.375018 76.03045 
L 193.167345 76.51949 
L 195.959672 83.203445 
L 198.751999 85.67275 
L 201.544326 85.793817 
L 204.336653 87.138257 
L 207.12898 89.888768 
L 209.921307 93.0976 
L 212.713634 93.69104 
L 215.505961 100.235208 
L 218.298288 104.359691 
L 221.090615 105.784388 
L 223.882942 106.134844 
L 226.675268 106.144869 
L 229.467595 111.401121 
L 232.259922 113.306897 
L 235.052249 115.126162 
L 237.844576 116.189382 
L 240.636903 117.190355 
L 243.42923 123.383132 
L 246.221557 123.719261 
L 249.013884 125.290521 
L 251.806211 129.254895 
L 254.598538 136.590494 
L 257.390865 136.670246 
L 260.183192 137.64709 
L 262.975519 137.86959 
L 265.767846 144.749328 
L 268.560173 148.072632 
L 271.352499 149.075179 
L 274.144826 149.81162 
L 276.937153 151.081422 
L 279.72948 152.375378 
L 282.521807 158.57703 
L 285.314134 160.627029 
L 288.106461 161.570815 
L 290.898788 163.679454 
L 293.691115 164.890674 
L 296.483442 164.89996 
L 299.275769 165.008393 
L 302.068096 178.379135 
L 304.860423 179.027607 
L 307.65275 180.455372 
L 310.445077 182.724074 
L 313.237404 183.354818 
L 316.029731 183.417025 
L 318.822057 193.485223 
L 321.614384 193.63761 
L 324.406711 193.697547 
L 327.199038 194.779761 
L 329.991365 194.8468 
L 332.783692 194.871686 
L 335.576019 194.874441 
L 338.368346 195.105439 
L 341.160673 195.141736 
L 343.953 195.150933 
L 346.745327 195.197769 
L 349.537654 195.198355 
L 352.329981 195.198355 
L 355.122308 195.198355 
L 357.914635 195.189993 
L 360.706962 195.189647 
L 363.499288 195.189647 
L 366.291615 195.189647 
L 369.083942 195.189647 
L 371.876269 195.189647 
" style="fill:none;stroke:#93a1a1;stroke-linecap:square;stroke-width:1.5;"/>
    <defs>
     <path d="M 0 3 
C 0.795609 3 1.55874 2.683901 2.12132 2.12132 
C 2.683901 1.55874 3 0.795609 3 0 
C 3 -0.795609 2.683901 -1.55874 2.12132 -2.12132 
C 1.55874 -2.683901 0.795609 -3 0 -3 
C -0.795609 -3 -1.55874 -2.683901 -2.12132 -2.12132 
C -2.683901 -1.55874 -3 -0.795609 -3 0 
C -3 0.795609 -2.683901 1.55874 -2.12132 2.12132 
C -1.55874 2.683901 -0.795609 3 0 3 
z
" id="mabc930db88" style="stroke:#93a1a1;"/>
    </defs>
    <g clip-path="url(#pd861b6fb18)">
     <use style="fill:#93a1a1;stroke:#93a1a1;" x="67.512633" xlink:href="#mabc930db88" y="19.982224"/>
     <use style="fill:#93a1a1;stroke:#93a1a1;" x="128.943826" xlink:href="#mabc930db88" y="36.213512"/>
     <use style="fill:#93a1a1;stroke:#93a1a1;" x="190.375018" xlink:href="#mabc930db88" y="76.03045"/>
     <use style="fill:#93a1a1;stroke:#93a1a1;" x="251.806211" xlink:href="#mabc930db88" y="129.254895"/>
     <use style="fill:#93a1a1;stroke:#93a1a1;" x="313.237404" xlink:href="#mabc930db88" y="183.354818"/>
    </g>
   </g>
   <g id="line2d_32">
    <path clip-path="url(#pd861b6fb18)" d="M 67.512633 19.982224 
L 70.30496 21.025709 
L 73.097287 21.769857 
L 75.889614 22.157842 
L 78.681941 22.399786 
L 81.474268 22.620018 
L 84.266595 22.784349 
L 87.058921 23.148488 
L 89.851248 23.359311 
L 92.643575 23.73461 
L 95.435902 24.067417 
L 98.228229 24.31294 
L 101.020556 24.679217 
L 103.812883 25.041986 
L 106.60521 25.698792 
L 109.397537 26.610819 
L 112.189864 27.860604 
L 114.982191 29.569781 
L 117.774518 31.32163 
L 120.566845 32.283177 
L 123.359172 33.907577 
L 126.151499 33.969625 
L 128.943826 36.207701 
L 131.736153 36.270487 
L 134.528479 38.814187 
L 137.320806 38.911292 
L 140.113133 41.262076 
L 142.90546 45.014145 
L 145.697787 45.255019 
L 148.490114 49.083363 
L 151.282441 49.914123 
L 154.074768 51.447543 
L 156.867095 52.102335 
L 159.659422 52.317284 
L 162.451749 58.529894 
L 165.244076 58.802462 
L 168.036403 58.845111 
L 170.82873 64.926459 
L 173.621057 67.063138 
L 176.413384 67.115899 
L 179.20571 67.925507 
L 181.998037 71.524273 
L 184.790364 75.992102 
L 187.582691 76.29081 
L 190.375018 76.426337 
L 193.167345 77.828647 
L 195.959672 84.111577 
L 198.751999 85.556216 
L 201.544326 85.794724 
L 204.336653 88.150082 
L 207.12898 90.901945 
L 209.921307 91.563673 
L 212.713634 93.688152 
L 215.505961 94.820854 
L 218.298288 95.85488 
L 221.090615 97.216085 
L 223.882942 106.133434 
L 226.675268 106.925014 
L 229.467595 107.017609 
L 232.259922 109.541327 
L 235.052249 116.163467 
L 237.844576 116.805992 
L 240.636903 117.426688 
L 243.42923 118.081598 
L 246.221557 124.095979 
L 249.013884 125.277239 
L 251.806211 125.333311 
L 254.598538 125.511503 
L 257.390865 134.825697 
L 260.183192 135.106876 
L 262.975519 136.616384 
L 265.767846 137.101883 
L 268.560173 137.205063 
L 271.352499 141.166854 
L 274.144826 149.445554 
L 276.937153 149.651029 
L 279.72948 149.766591 
L 282.521807 152.809126 
L 285.314134 153.700033 
L 288.106461 161.099125 
L 290.898788 161.671226 
L 293.691115 164.879228 
L 296.483442 164.930522 
L 299.275769 166.349135 
L 302.068096 167.171991 
L 304.860423 167.913584 
L 307.65275 170.374158 
L 310.445077 179.124561 
L 313.237404 180.849063 
L 316.029731 183.470777 
L 318.822057 183.521632 
L 321.614384 183.974212 
L 324.406711 185.672835 
L 327.199038 186.385128 
L 329.991365 194.188961 
L 332.783692 194.199995 
L 335.576019 194.205354 
L 338.368346 194.215191 
L 341.160673 194.230225 
L 343.953 194.242973 
L 346.745327 194.758664 
L 349.537654 194.765108 
L 352.329981 194.819544 
L 355.122308 194.819544 
L 357.914635 194.820593 
L 360.706962 194.820593 
L 363.499288 194.820593 
L 366.291615 194.82033 
L 369.083942 194.822608 
L 371.876269 194.822232 
" style="fill:none;stroke:#93a1a1;stroke-linecap:square;stroke-width:1.5;"/>
    <defs>
     <path d="M 0 -3 
L -3 3 
L 3 3 
z
" id="mc1102b1291" style="stroke:#93a1a1;stroke-linejoin:miter;"/>
    </defs>
    <g clip-path="url(#pd861b6fb18)">
     <use style="fill:#93a1a1;stroke:#93a1a1;stroke-linejoin:miter;" x="81.474268" xlink:href="#mc1102b1291" y="22.620018"/>
     <use style="fill:#93a1a1;stroke:#93a1a1;stroke-linejoin:miter;" x="142.90546" xlink:href="#mc1102b1291" y="45.014145"/>
     <use style="fill:#93a1a1;stroke:#93a1a1;stroke-linejoin:miter;" x="204.336653" xlink:href="#mc1102b1291" y="88.150082"/>
     <use style="fill:#93a1a1;stroke:#93a1a1;stroke-linejoin:miter;" x="265.767846" xlink:href="#mc1102b1291" y="137.101883"/>
     <use style="fill:#93a1a1;stroke:#93a1a1;stroke-linejoin:miter;" x="327.199038" xlink:href="#mc1102b1291" y="186.385128"/>
    </g>
   </g>
   <g id="line2d_33">
    <path clip-path="url(#pd861b6fb18)" d="M 67.512633 19.982224 
L 70.30496 21.025709 
L 73.097287 21.769857 
L 75.889614 22.157842 
L 78.681941 22.399786 
L 81.474268 22.620018 
L 84.266595 22.784349 
L 87.058921 23.148488 
L 89.851248 23.359311 
L 92.643575 23.73461 
L 95.435902 24.067417 
L 98.228229 24.31294 
L 101.020556 24.679217 
L 103.812883 25.041986 
L 106.60521 25.698792 
L 109.397537 26.610819 
L 112.189864 27.860482 
L 114.982191 29.161992 
L 117.774518 29.638038 
L 120.566845 32.28181 
L 123.359172 32.841952 
L 126.151499 33.956775 
L 128.943826 36.151952 
L 131.736153 36.257435 
L 134.528479 37.208987 
L 137.320806 38.897401 
L 140.113133 41.260664 
L 142.90546 42.917092 
L 145.697787 45.136064 
L 148.490114 47.608727 
L 151.282441 49.572381 
L 154.074768 49.924271 
L 156.867095 50.107513 
L 159.659422 52.316239 
L 162.451749 52.786243 
L 165.244076 53.411838 
L 168.036403 58.833691 
L 170.82873 59.622698 
L 173.621057 66.105134 
L 176.413384 66.790555 
L 179.20571 67.254145 
L 181.998037 67.34045 
L 184.790364 71.544313 
L 187.582691 72.186458 
L 190.375018 72.403283 
L 193.167345 76.155952 
L 195.959672 76.745771 
L 198.751999 77.327384 
L 201.544326 82.738093 
L 204.336653 85.298132 
L 207.12898 85.758144 
L 209.921307 86.148027 
L 212.713634 93.525693 
L 215.505961 93.664094 
L 218.298288 93.841961 
L 221.090615 93.972404 
L 223.882942 99.366549 
L 226.675268 105.893779 
L 229.467595 106.064681 
L 232.259922 106.167438 
L 235.052249 106.463051 
L 237.844576 114.772782 
L 240.636903 115.1733 
L 243.42923 115.838581 
L 246.221557 116.62263 
L 249.013884 122.021424 
L 251.806211 124.406451 
L 254.598538 125.239096 
L 257.390865 125.388439 
L 260.183192 125.646325 
L 262.975519 126.008759 
L 265.767846 126.285589 
L 268.560173 136.981235 
L 271.352499 137.156556 
L 274.144826 137.927718 
L 276.937153 138.037212 
L 279.72948 138.23102 
L 282.521807 139.619804 
L 285.314134 149.752018 
L 288.106461 149.904214 
L 290.898788 152.294505 
L 293.691115 154.831638 
L 296.483442 162.48335 
L 299.275769 163.743215 
L 302.068096 164.70668 
L 304.860423 165.099883 
L 307.65275 165.117715 
L 310.445077 166.329075 
L 313.237404 168.187968 
L 316.029731 169.083217 
L 318.822057 178.213999 
L 321.614384 180.124301 
L 324.406711 181.81016 
L 327.199038 182.191753 
L 329.991365 184.185141 
L 332.783692 184.383293 
L 335.576019 184.548289 
L 338.368346 191.587352 
L 341.160673 193.857144 
L 343.953 194.778865 
L 346.745327 194.933696 
L 349.537654 194.977067 
L 352.329981 195.004133 
L 355.122308 195.006534 
L 357.914635 195.023206 
L 360.706962 195.164635 
L 363.499288 195.191874 
L 366.291615 195.223159 
L 369.083942 195.237325 
L 371.876269 195.239357 
" style="fill:none;stroke:#93a1a1;stroke-linecap:square;stroke-width:1.5;"/>
    <defs>
     <path d="M -0 3 
L 3 -3 
L -3 -3 
z
" id="mb9777b7436" style="stroke:#93a1a1;stroke-linejoin:miter;"/>
    </defs>
    <g clip-path="url(#pd861b6fb18)">
     <use style="fill:#93a1a1;stroke:#93a1a1;stroke-linejoin:miter;" x="98.228229" xlink:href="#mb9777b7436" y="24.31294"/>
     <use style="fill:#93a1a1;stroke:#93a1a1;stroke-linejoin:miter;" x="159.659422" xlink:href="#mb9777b7436" y="52.316239"/>
     <use style="fill:#93a1a1;stroke:#93a1a1;stroke-linejoin:miter;" x="221.090615" xlink:href="#mb9777b7436" y="93.972404"/>
     <use style="fill:#93a1a1;stroke:#93a1a1;stroke-linejoin:miter;" x="282.521807" xlink:href="#mb9777b7436" y="139.619804"/>
     <use style="fill:#93a1a1;stroke:#93a1a1;stroke-linejoin:miter;" x="343.953" xlink:href="#mb9777b7436" y="194.778865"/>
    </g>
   </g>
   <g id="line2d_34">
    <path clip-path="url(#pd861b6fb18)" d="M 67.512633 19.982224 
L 70.30496 21.025709 
L 73.097287 21.769857 
L 75.889614 22.157842 
L 78.681941 22.399786 
L 81.474268 22.620018 
L 84.266595 22.784349 
L 87.058921 23.148488 
L 89.851248 23.359311 
L 92.643575 23.73461 
L 95.435902 24.067417 
L 98.228229 24.31294 
L 101.020556 24.679217 
L 103.812883 25.041986 
L 106.60521 25.698792 
L 109.397537 26.610819 
L 112.189864 27.860554 
L 114.982191 29.376709 
L 117.774518 29.640846 
L 120.566845 32.282811 
L 123.359172 33.849126 
L 126.151499 33.959509 
L 128.943826 35.883232 
L 131.736153 36.254509 
L 134.528479 37.356882 
L 137.320806 38.897434 
L 140.113133 41.25946 
L 142.90546 42.383504 
L 145.697787 45.095893 
L 148.490114 45.2433 
L 151.282441 45.413384 
L 154.074768 49.894704 
L 156.867095 50.032396 
L 159.659422 52.316052 
L 162.451749 52.474026 
L 165.244076 53.062525 
L 168.036403 58.793057 
L 170.82873 58.856344 
L 173.621057 59.041528 
L 176.413384 63.101522 
L 179.20571 67.115362 
L 181.998037 67.25406 
L 184.790364 67.302062 
L 187.582691 69.606468 
L 190.375018 71.690141 
L 193.167345 75.656433 
L 195.959672 75.966516 
L 198.751999 76.100161 
L 201.544326 76.380966 
L 204.336653 76.505082 
L 207.12898 81.851847 
L 209.921307 85.024751 
L 212.713634 85.623324 
L 215.505961 85.834308 
L 218.298288 86.22535 
L 221.090615 87.277302 
L 223.882942 87.624889 
L 226.675268 93.859744 
L 229.467595 94.011787 
L 232.259922 95.327634 
L 235.052249 98.321058 
L 237.844576 103.286317 
L 240.636903 105.26738 
L 243.42923 106.46877 
L 246.221557 106.49812 
L 249.013884 106.61319 
L 251.806211 106.949351 
L 254.598538 107.796376 
L 257.390865 114.168165 
L 260.183192 115.682157 
L 262.975519 116.656865 
L 265.767846 116.689833 
L 268.560173 116.915352 
L 271.352499 117.402698 
L 274.144826 117.452455 
L 276.937153 118.303671 
L 279.72948 120.465677 
L 282.521807 125.657467 
L 285.314134 125.903412 
L 288.106461 125.984354 
L 290.898788 126.5817 
L 293.691115 126.734864 
L 296.483442 127.171022 
L 299.275769 127.312081 
L 302.068096 134.977383 
L 304.860423 135.50305 
L 307.65275 135.910119 
L 310.445077 135.996999 
L 313.237404 136.765763 
L 316.029731 137.075333 
L 318.822057 137.155226 
L 321.614384 137.383846 
L 324.406711 137.434455 
L 327.199038 138.251007 
L 329.991365 139.531545 
L 332.783692 139.926288 
L 335.576019 140.227382 
L 338.368346 140.311024 
L 341.160673 140.543929 
L 343.953 140.685241 
L 346.745327 140.807493 
L 349.537654 140.84953 
L 352.329981 140.977599 
L 355.122308 140.986899 
L 357.914635 140.987636 
L 360.706962 140.987715 
L 363.499288 140.985924 
L 366.291615 140.981207 
L 369.083942 140.978923 
L 371.876269 140.969548 
" style="fill:none;stroke:#93a1a1;stroke-linecap:square;stroke-width:1.5;"/>
    <defs>
     <path d="M -3 3 
L 3 3 
L 3 -3 
L -3 -3 
z
" id="m64fa9af51f" style="stroke:#93a1a1;stroke-linejoin:miter;"/>
    </defs>
    <g clip-path="url(#pd861b6fb18)">
     <use style="fill:#93a1a1;stroke:#93a1a1;stroke-linejoin:miter;" x="112.189864" xlink:href="#m64fa9af51f" y="27.860554"/>
     <use style="fill:#93a1a1;stroke:#93a1a1;stroke-linejoin:miter;" x="173.621057" xlink:href="#m64fa9af51f" y="59.041528"/>
     <use style="fill:#93a1a1;stroke:#93a1a1;stroke-linejoin:miter;" x="235.052249" xlink:href="#m64fa9af51f" y="98.321058"/>
     <use style="fill:#93a1a1;stroke:#93a1a1;stroke-linejoin:miter;" x="296.483442" xlink:href="#m64fa9af51f" y="127.171022"/>
     <use style="fill:#93a1a1;stroke:#93a1a1;stroke-linejoin:miter;" x="357.914635" xlink:href="#m64fa9af51f" y="140.987636"/>
    </g>
   </g>
   <g id="line2d_35">
    <path clip-path="url(#pd861b6fb18)" d="M 67.512633 19.982224 
L 70.30496 21.025709 
L 73.097287 21.769857 
L 75.889614 22.157842 
L 78.681941 22.399786 
L 81.474268 22.620018 
L 84.266595 22.784349 
L 87.058921 23.148488 
L 89.851248 23.359311 
L 92.643575 23.73461 
L 95.435902 24.067417 
L 98.228229 24.31294 
L 101.020556 24.679217 
L 103.812883 25.041986 
L 106.60521 25.698792 
L 109.397537 26.610819 
L 112.189864 27.86041 
L 114.982191 29.00498 
L 117.774518 29.637333 
L 120.566845 32.282278 
L 123.359172 33.074803 
L 126.151499 33.956327 
L 128.943826 34.513446 
L 131.736153 36.253995 
L 134.528479 37.648944 
L 137.320806 38.897512 
L 140.113133 41.22168 
L 142.90546 41.416282 
L 145.697787 44.472497 
L 148.490114 44.975133 
L 151.282441 45.266825 
L 154.074768 49.808612 
L 156.867095 50.021873 
L 159.659422 50.222828 
L 162.451749 50.929288 
L 165.244076 52.386925 
L 168.036403 52.490309 
L 170.82873 57.749885 
L 173.621057 58.954688 
L 176.413384 59.111215 
L 179.20571 59.243078 
L 181.998037 67.225078 
L 184.790364 67.293987 
L 187.582691 67.818302 
L 190.375018 70.81722 
L 193.167345 71.588154 
L 195.959672 71.729144 
L 198.751999 71.909519 
L 201.544326 72.98497 
L 204.336653 76.135431 
L 207.12898 76.229894 
L 209.921307 76.536233 
L 212.713634 76.713792 
L 215.505961 77.001681 
L 218.298288 79.46437 
L 221.090615 86.257368 
L 223.882942 86.399116 
L 226.675268 86.551551 
L 229.467595 86.66177 
L 232.259922 87.294819 
L 235.052249 87.461136 
L 237.844576 92.721147 
L 240.636903 94.272128 
L 243.42923 94.372839 
L 246.221557 94.476171 
L 249.013884 95.230117 
L 251.806211 95.664711 
L 254.598538 104.25587 
L 257.390865 106.227324 
L 260.183192 106.724809 
L 262.975519 106.966935 
L 265.767846 107.550056 
L 268.560173 108.175727 
L 271.352499 110.174095 
L 274.144826 111.325362 
L 276.937153 112.445569 
L 279.72948 116.444062 
L 282.521807 117.374228 
L 285.314134 117.390543 
L 288.106461 117.597573 
L 290.898788 117.804894 
L 293.691115 118.744327 
L 296.483442 120.52632 
L 299.275769 124.229824 
L 302.068096 126.074871 
L 304.860423 126.280241 
L 307.65275 126.364661 
L 310.445077 126.743397 
L 313.237404 126.870529 
L 316.029731 127.758414 
L 318.822057 127.846843 
L 321.614384 128.001855 
L 324.406711 128.32242 
L 327.199038 128.672371 
L 329.991365 129.244484 
L 332.783692 130.348844 
L 335.576019 134.967871 
L 338.368346 135.47545 
L 341.160673 136.900335 
L 343.953 137.145062 
L 346.745327 137.241094 
L 349.537654 137.605532 
L 352.329981 137.826056 
L 355.122308 138.116401 
L 357.914635 138.416835 
L 360.706962 138.524656 
L 363.499288 138.749685 
L 366.291615 138.781988 
L 369.083942 138.846536 
L 371.876269 139.253774 
" style="fill:none;stroke:#6c71c4;stroke-linecap:square;stroke-width:1.5;"/>
   </g>
   <g id="line2d_36">
    <path clip-path="url(#pd861b6fb18)" d="M 67.512633 19.982224 
L 70.30496 21.025709 
L 73.097287 21.769857 
L 75.889614 22.157842 
L 78.681941 22.399786 
L 81.474268 22.620018 
L 84.266595 22.784349 
L 87.058921 23.148488 
L 89.851248 23.359311 
L 92.643575 23.73461 
L 95.435902 24.067417 
L 98.228229 24.31294 
L 101.020556 24.679217 
L 103.812883 25.041986 
L 106.60521 25.698792 
L 109.397537 26.610819 
L 112.189864 27.860599 
L 114.982191 29.547179 
L 117.774518 29.680052 
L 120.566845 32.281554 
L 123.359172 32.766777 
L 126.151499 33.956767 
L 128.943826 36.215828 
L 131.736153 36.33035 
L 134.528479 38.415076 
L 137.320806 38.897913 
L 140.113133 41.261379 
L 142.90546 43.571744 
L 145.697787 45.13662 
L 148.490114 47.768714 
L 151.282441 49.875488 
L 154.074768 49.928425 
L 156.867095 50.124699 
L 159.659422 52.316536 
L 162.451749 52.525349 
L 165.244076 53.799642 
L 168.036403 58.817653 
L 170.82873 59.007234 
L 173.621057 66.754145 
L 176.413384 67.150732 
L 179.20571 67.26092 
L 181.998037 67.442151 
L 184.790364 71.546667 
L 187.582691 73.088696 
L 190.375018 73.799908 
L 193.167345 76.156341 
L 195.959672 76.670176 
L 198.751999 77.059141 
L 201.544326 81.208365 
L 204.336653 85.792142 
L 207.12898 85.879859 
L 209.921307 86.79705 
L 212.713634 92.346123 
L 215.505961 93.478552 
L 218.298288 93.935199 
L 221.090615 96.251744 
L 223.882942 101.724202 
L 226.675268 104.960737 
L 229.467595 105.270353 
L 232.259922 106.389955 
L 235.052249 106.451717 
L 237.844576 113.644441 
L 240.636903 115.054058 
L 243.42923 115.890654 
L 246.221557 116.63324 
L 249.013884 116.797497 
L 251.806211 119.33784 
L 254.598538 125.052691 
L 257.390865 125.68823 
L 260.183192 125.852514 
L 262.975519 125.948255 
L 265.767846 135.949924 
L 268.560173 136.081754 
L 271.352499 137.091676 
L 274.144826 137.373692 
L 276.937153 137.640018 
L 279.72948 137.768634 
L 282.521807 137.795011 
L 285.314134 149.756165 
L 288.106461 149.912987 
L 290.898788 152.933812 
L 293.691115 153.039917 
L 296.483442 155.573051 
L 299.275769 160.448299 
L 302.068096 163.604827 
L 304.860423 164.514104 
L 307.65275 165.127882 
L 310.445077 165.832872 
L 313.237404 165.887644 
L 316.029731 165.994622 
L 318.822057 166.292725 
L 321.614384 167.667313 
L 324.406711 170.481491 
L 327.199038 174.064601 
L 329.991365 182.086071 
L 332.783692 183.432887 
L 335.576019 183.97421 
L 338.368346 184.010319 
L 341.160673 186.11217 
L 343.953 186.529971 
L 346.745327 186.810918 
L 349.537654 186.737463 
L 352.329981 186.737454 
L 355.122308 186.737583 
L 357.914635 186.737734 
L 360.706962 186.785933 
L 363.499288 186.790544 
L 366.291615 186.792408 
L 369.083942 186.793055 
L 371.876269 186.793007 
" style="fill:none;stroke:#859900;stroke-dasharray:1.5,2.475;stroke-dashoffset:0;stroke-width:1.5;"/>
   </g>
   <g id="line2d_37">
    <path clip-path="url(#pd861b6fb18)" d="M 67.512633 19.982224 
L 70.30496 21.025709 
L 73.097287 21.769857 
L 75.889614 22.157842 
L 78.681941 22.399786 
L 81.474268 22.620018 
L 84.266595 22.784349 
L 87.058921 23.148488 
L 89.851248 23.359311 
L 92.643575 23.73461 
L 95.435902 24.067417 
L 98.228229 24.31294 
L 101.020556 24.679217 
L 103.812883 25.041986 
L 106.60521 25.698792 
L 109.397537 26.610819 
L 112.189864 27.860308 
L 114.982191 28.836833 
L 117.774518 29.636912 
L 120.566845 32.282833 
L 123.359172 33.914693 
L 126.151499 33.979273 
L 128.943826 36.220603 
L 131.736153 37.635622 
L 134.528479 38.831979 
L 137.320806 38.911938 
L 140.113133 41.26204 
L 142.90546 44.90118 
L 145.697787 45.146274 
L 148.490114 46.288852 
L 151.282441 49.133546 
L 154.074768 49.931387 
L 156.867095 51.467988 
L 159.659422 52.317122 
L 162.451749 58.620243 
L 165.244076 58.771504 
L 168.036403 58.849227 
L 170.82873 62.13603 
L 173.621057 67.088379 
L 176.413384 68.795353 
L 179.20571 70.648048 
L 181.998037 71.522931 
L 184.790364 71.576877 
L 187.582691 72.606039 
L 190.375018 76.031846 
L 193.167345 76.749213 
L 195.959672 84.331806 
L 198.751999 85.627236 
L 201.544326 85.79286 
L 204.336653 85.971437 
L 207.12898 86.77568 
L 209.921307 87.208141 
L 212.713634 93.685387 
L 215.505961 93.95288 
L 218.298288 94.912079 
L 221.090615 96.380603 
L 223.882942 106.130182 
L 226.675268 106.155301 
L 229.467595 107.940698 
L 232.259922 108.808331 
L 235.052249 116.12332 
L 237.844576 116.194164 
L 240.636903 118.018369 
L 243.42923 119.939234 
L 246.221557 120.439521 
L 249.013884 125.284883 
L 251.806211 126.020423 
L 254.598538 133.295736 
L 257.390865 134.377963 
L 260.183192 136.431644 
L 262.975519 136.68208 
L 265.767846 137.125771 
L 268.560173 145.405572 
L 271.352499 148.577753 
L 274.144826 148.971805 
L 276.937153 149.66062 
L 279.72948 149.705273 
L 282.521807 149.848706 
L 285.314134 158.227309 
L 288.106461 159.963187 
L 290.898788 161.953196 
L 293.691115 162.265613 
L 296.483442 164.890649 
L 299.275769 166.156897 
L 302.068096 167.586982 
L 304.860423 168.209169 
L 307.65275 169.709321 
L 310.445077 183.071221 
L 313.237404 183.29261 
L 316.029731 183.360762 
L 318.822057 184.814571 
L 321.614384 185.925221 
L 324.406711 188.391307 
L 327.199038 191.824406 
L 329.991365 192.180898 
L 332.783692 192.26862 
L 335.576019 195.158574 
L 338.368346 195.163365 
L 341.160673 195.175624 
L 343.953 195.244685 
L 346.745327 195.304337 
L 349.537654 195.364515 
L 352.329981 195.364515 
L 355.122308 195.364515 
L 357.914635 195.36309 
L 360.706962 195.361356 
L 363.499288 195.361356 
L 366.291615 195.360706 
L 369.083942 195.360131 
L 371.876269 195.360131 
" style="fill:none;stroke:#073642;stroke-dasharray:1.5,2.475;stroke-dashoffset:0;stroke-width:1.5;"/>
   </g>
   <g id="line2d_38">
    <path clip-path="url(#pd861b6fb18)" d="M 67.512633 19.982224 
L 70.30496 21.025709 
L 73.097287 21.769857 
L 75.889614 22.157842 
L 78.681941 22.399786 
L 81.474268 22.620018 
L 84.266595 22.784349 
L 87.058921 23.148488 
L 89.851248 23.359311 
L 92.643575 23.73461 
L 95.435902 24.067417 
L 98.228229 24.31294 
L 101.020556 24.679217 
L 103.812883 25.041986 
L 106.60521 25.698792 
L 109.397537 26.610819 
L 112.189864 27.86055 
L 114.982191 29.360225 
L 117.774518 29.640427 
L 120.566845 32.27806 
L 123.359172 32.48179 
L 126.151499 33.956368 
L 128.943826 34.698111 
L 131.736153 36.253911 
L 134.528479 37.263562 
L 137.320806 38.897398 
L 140.113133 41.157489 
L 142.90546 41.381568 
L 145.697787 44.916551 
L 148.490114 45.126608 
L 151.282441 45.374069 
L 154.074768 49.899704 
L 156.867095 50.037377 
L 159.659422 50.200946 
L 162.451749 51.905612 
L 165.244076 52.387816 
L 168.036403 52.721536 
L 170.82873 58.612966 
L 173.621057 58.964649 
L 176.413384 59.201119 
L 179.20571 60.738386 
L 181.998037 65.048302 
L 184.790364 67.288395 
L 187.582691 67.663475 
L 190.375018 71.5254 
L 193.167345 71.641717 
L 195.959672 71.723439 
L 198.751999 71.975175 
L 201.544326 75.231837 
L 204.336653 76.178696 
L 207.12898 76.343797 
L 209.921307 76.416832 
L 212.713634 76.893621 
L 215.505961 85.1618 
L 218.298288 85.991571 
L 221.090615 86.161159 
L 223.882942 86.609841 
L 226.675268 86.868566 
L 229.467595 87.233784 
L 232.259922 93.968063 
L 235.052249 94.003869 
L 237.844576 94.307761 
L 240.636903 94.438048 
L 243.42923 94.693084 
L 246.221557 95.257457 
L 249.013884 106.465545 
L 251.806211 106.594294 
L 254.598538 106.643341 
L 257.390865 106.767136 
L 260.183192 107.005306 
L 262.975519 107.081559 
L 265.767846 107.156591 
L 268.560173 116.714415 
L 271.352499 116.777679 
L 274.144826 116.901355 
L 276.937153 117.076078 
L 279.72948 117.813053 
L 282.521807 117.942353 
L 285.314134 118.19712 
L 288.106461 118.795048 
L 290.898788 120.063485 
L 293.691115 125.596493 
L 296.483442 125.937837 
L 299.275769 126.338328 
L 302.068096 126.898327 
L 304.860423 126.956964 
L 307.65275 127.055418 
L 310.445077 127.174359 
L 313.237404 127.500156 
L 316.029731 128.261307 
L 318.822057 129.130093 
L 321.614384 136.600583 
L 324.406711 136.673663 
L 327.199038 137.171153 
L 329.991365 137.317774 
L 332.783692 137.411004 
L 335.576019 137.546995 
L 338.368346 137.706459 
L 341.160673 137.849569 
L 343.953 137.905268 
L 346.745327 138.008142 
L 349.537654 138.644315 
L 352.329981 139.706531 
L 355.122308 140.652168 
L 357.914635 141.117985 
L 360.706962 141.502959 
L 363.499288 141.563896 
L 366.291615 141.675721 
L 369.083942 141.742316 
L 371.876269 141.766588 
" style="fill:none;stroke:#2aa198;stroke-linecap:square;stroke-width:1.5;"/>
   </g>
   <g id="line2d_39">
    <path clip-path="url(#pd861b6fb18)" d="M 67.512633 19.982224 
L 70.30496 21.025709 
L 73.097287 21.769857 
L 75.889614 22.157842 
L 78.681941 22.399786 
L 81.474268 22.620018 
L 84.266595 22.784349 
L 87.058921 23.148488 
L 89.851248 23.359311 
L 92.643575 23.73461 
L 95.435902 24.067417 
L 98.228229 24.31294 
L 101.020556 24.679217 
L 103.812883 25.041986 
L 106.60521 25.698792 
L 109.397537 26.610819 
L 112.189864 27.860595 
L 114.982191 29.528927 
L 117.774518 29.66044 
L 120.566845 32.282367 
L 123.359172 33.140887 
L 126.151499 33.956857 
L 128.943826 36.17519 
L 131.736153 36.258799 
L 134.528479 38.46131 
L 137.320806 38.898383 
L 140.113133 41.261856 
L 142.90546 44.414385 
L 145.697787 45.137677 
L 148.490114 46.437714 
L 151.282441 49.894711 
L 154.074768 49.933646 
L 156.867095 50.944415 
L 159.659422 52.317005 
L 162.451749 55.960512 
L 165.244076 58.520146 
L 168.036403 58.839154 
L 170.82873 61.785718 
L 173.621057 66.578098 
L 176.413384 67.112701 
L 179.20571 68.398164 
L 181.998037 70.6736 
L 184.790364 71.547473 
L 187.582691 72.64356 
L 190.375018 75.773275 
L 193.167345 76.169201 
L 195.959672 84.663449 
L 198.751999 85.277985 
L 201.544326 85.679822 
L 204.336653 85.815948 
L 207.12898 85.88115 
L 209.921307 88.849506 
L 212.713634 93.684277 
L 215.505961 93.963033 
L 218.298288 94.247653 
L 221.090615 94.691262 
L 223.882942 95.602339 
L 226.675268 106.141916 
L 229.467595 106.273452 
L 232.259922 106.582463 
L 235.052249 108.001423 
L 237.844576 116.177923 
L 240.636903 116.280553 
L 243.42923 117.062038 
L 246.221557 117.674399 
L 249.013884 125.268796 
L 251.806211 125.518284 
L 254.598538 125.827746 
L 257.390865 126.323323 
L 260.183192 127.32679 
L 262.975519 127.874106 
L 265.767846 136.038423 
L 268.560173 136.657499 
L 271.352499 137.615518 
L 274.144826 137.768714 
L 276.937153 138.805092 
L 279.72948 149.374306 
L 282.521807 149.575234 
L 285.314134 149.648342 
L 288.106461 150.574248 
L 290.898788 150.688733 
L 293.691115 151.143808 
L 296.483442 156.347473 
L 299.275769 164.834695 
L 302.068096 166.140128 
L 304.860423 166.551785 
L 307.65275 167.101448 
L 310.445077 167.905718 
L 313.237404 172.63264 
L 316.029731 181.305868 
L 318.822057 181.348821 
L 321.614384 182.594902 
L 324.406711 182.971218 
L 327.199038 182.984714 
L 329.991365 183.013976 
L 332.783692 183.176574 
L 335.576019 186.277365 
L 338.368346 186.383079 
L 341.160673 186.404672 
L 343.953 186.413091 
L 346.745327 186.422108 
L 349.537654 186.423655 
L 352.329981 186.426105 
L 355.122308 186.455361 
L 357.914635 186.472744 
L 360.706962 186.499309 
L 363.499288 186.500162 
L 366.291615 186.500806 
L 369.083942 186.500806 
L 371.876269 186.50085 
" style="fill:none;stroke:#073642;stroke-linecap:square;stroke-width:1.5;"/>
   </g>
   <g id="patch_3">
    <path d="M 52.294451 232.46 
L 52.294451 10.7 
" style="fill:none;stroke:#000000;stroke-linecap:square;stroke-linejoin:miter;stroke-width:0.8;"/>
   </g>
   <g id="patch_4">
    <path d="M 387.094451 232.46 
L 387.094451 10.7 
" style="fill:none;stroke:#000000;stroke-linecap:square;stroke-linejoin:miter;stroke-width:0.8;"/>
   </g>
   <g id="patch_5">
    <path d="M 52.294451 232.46 
L 387.094451 232.46 
" style="fill:none;stroke:#000000;stroke-linecap:square;stroke-linejoin:miter;stroke-width:0.8;"/>
   </g>
   <g id="patch_6">
    <path d="M 52.294451 10.7 
L 387.094451 10.7 
" style="fill:none;stroke:#000000;stroke-linecap:square;stroke-linejoin:miter;stroke-width:0.8;"/>
   </g>
   <g id="legend_1">
    <g id="patch_7">
     <path d="M 394.094451 144.134605 
L 498.591371 144.134605 
Q 500.591371 144.134605 500.591371 142.134605 
L 500.591371 17.7 
Q 500.591371 15.7 498.591371 15.7 
L 394.094451 15.7 
Q 392.094451 15.7 392.094451 17.7 
L 392.094451 142.134605 
Q 392.094451 144.134605 394.094451 144.134605 
z
" style="fill:#ffffff;opacity:0.8;stroke:#cccccc;stroke-linejoin:miter;"/>
    </g>
    <g id="line2d_40">
     <path d="M 396.094451 23.2 
L 416.094451 23.2 
" style="fill:none;stroke:#073642;stroke-linecap:square;stroke-width:1.5;"/>
    </g>
    <g id="line2d_41"/>
    <g id="text_18">
     <!-- \textsc{pipe-PR-CG} -->
     <defs>
      <path d="M 32.296875 23 
C 42.296875 23 50.703125 29.296875 50.703125 36.890625 
C 50.703125 44.09375 43.09375 51 31.59375 51 
L 4.5 51 
L 4.5 48.484375 
C 11.203125 48.484375 11.703125 47.890625 11.703125 43.796875 
L 11.703125 7.109375 
C 11.703125 3.078125 11.203125 2.5 4.5 2.5 
L 4.5 0 
C 7.40625 0.09375 13.09375 0.296875 15.296875 0.296875 
C 17.5 0.296875 23.09375 0.09375 26.09375 0 
L 26.09375 2.5 
C 19.40625 2.5 18.90625 3.078125 18.90625 7.109375 
L 18.90625 23 
z
M 18.59375 44.1875 
C 18.59375 48.1875 19.09375 48.484375 22.59375 48.484375 
L 29.5 48.484375 
C 42.09375 48.484375 42.09375 40.890625 42.09375 36.890625 
C 42.09375 33 42.09375 25.296875 29.5 25.296875 
L 18.59375 25.296875 
z
" id="CMCSC10-112"/>
      <path d="M 18.703125 43.734375 
C 18.703125 48 19.203125 48.484375 26.296875 48.484375 
L 26.296875 51 
C 22.90625 50.890625 17.703125 50.6875 15.09375 50.6875 
C 12.5 50.6875 7.296875 50.890625 3.90625 51 
L 3.90625 48.484375 
C 11 48.484375 11.5 48 11.5 43.734375 
L 11.5 7.25 
C 11.5 2.984375 11 2.5 3.90625 2.5 
L 3.90625 0 
C 7.296875 0.09375 12.5 0.296875 15.09375 0.296875 
C 17.703125 0.296875 22.90625 0.09375 26.296875 0 
L 26.296875 2.5 
C 19.203125 2.5 18.703125 2.984375 18.703125 7.25 
z
" id="CMCSC10-105"/>
      <path d="M 48.796875 50.6875 
L 4.296875 50.6875 
L 4.296875 48.1875 
C 11 48.1875 11.5 47.59375 11.5 43.515625 
L 11.5 7.125 
C 11.5 3.078125 11 2.5 4.296875 2.5 
L 4.296875 0 
L 50 0 
L 52.90625 19.171875 
L 50.40625 19.171875 
C 48.703125 7.234375 46.296875 2.5 33.5 2.5 
L 22.703125 2.5 
C 19.203125 2.5 18.703125 2.78125 18.703125 6.734375 
L 18.703125 25 
L 25.703125 25 
C 33.09375 25 34.296875 23.015625 34.296875 16.40625 
L 36.796875 16.40625 
L 36.796875 36.15625 
L 34.296875 36.15625 
C 34.296875 29.484375 33.09375 27.5 25.703125 27.5 
L 18.703125 27.5 
L 18.703125 43.90625 
C 18.703125 47.890625 19.203125 48.1875 22.703125 48.1875 
L 32.90625 48.1875 
C 44.5 48.1875 47.09375 44.703125 48.203125 33.859375 
L 50.703125 33.859375 
z
" id="CMCSC10-101"/>
      <path d="M 30.5 19 
L 30.5 24.796875 
L 2.59375 24.796875 
L 2.59375 19 
z
" id="CMCSC10-45"/>
      <path d="M 43 31.390625 
C 55.203125 31.390625 66.90625 39.171875 66.90625 49.4375 
C 66.90625 59.3125 56.296875 68 42.203125 68 
L 5.703125 68 
L 5.703125 64.890625 
L 8.09375 64.890625 
C 15.796875 64.890625 16 63.796875 16 60.203125 
L 16 7.765625 
C 16 4.1875 15.796875 3.09375 8.09375 3.09375 
L 5.703125 3.09375 
L 5.703125 0 
C 9.203125 0.296875 16.59375 0.296875 20.40625 0.296875 
C 24.203125 0.296875 31.703125 0.296875 35.203125 0 
L 35.203125 3.09375 
L 32.796875 3.09375 
C 25.09375 3.09375 24.90625 4.1875 24.90625 7.765625 
L 24.90625 31.390625 
z
M 24.59375 60.90625 
C 24.59375 64.1875 24.796875 64.890625 29.5 64.890625 
L 39.59375 64.890625 
C 56.59375 64.890625 56.59375 53.921875 56.59375 49.4375 
C 56.59375 45.15625 56.59375 34 39.59375 34 
L 24.59375 34 
z
" id="CMCSC10-80"/>
      <path d="M 24.59375 35.1875 
L 24.59375 60.921875 
C 24.59375 63.609375 24.796875 64.5 27.203125 64.796875 
C 28.09375 64.890625 31.203125 64.890625 33.203125 64.890625 
C 41.90625 64.890625 55.09375 64.890625 55.09375 50.09375 
C 55.09375 39.46875 48 35.1875 36.703125 35.1875 
z
M 47 33.890625 
C 59 36.78125 65.40625 43.34375 65.40625 50.09375 
C 65.40625 59.734375 53.203125 68 38.09375 68 
L 5.703125 68 
L 5.703125 64.890625 
L 8.09375 64.890625 
C 15.796875 64.890625 16 63.796875 16 60.21875 
L 16 7.921875 
C 16 4.359375 15.796875 3.265625 8.09375 3.265625 
L 5.703125 3.265625 
L 5.703125 0.1875 
C 9.296875 0.484375 16.40625 0.484375 20.296875 0.484375 
C 24.203125 0.484375 31.296875 0.484375 34.90625 0.1875 
L 34.90625 3.265625 
L 32.5 3.265625 
C 24.796875 3.265625 24.59375 4.359375 24.59375 7.921875 
L 24.59375 33 
L 37.09375 33 
C 42.5 33 45.703125 31.015625 47.40625 29.421875 
C 51.203125 25.75 51.203125 23.28125 51.203125 16.34375 
C 51.203125 9.5 51.203125 5.9375 55.5 2.078125 
C 59.203125 -1.109375 64.796875 -2 68.296875 -2 
C 76.296875 -2 78.203125 6.140625 78.203125 8.90625 
C 78.203125 9.5 78.203125 10.59375 76.90625 10.59375 
C 75.796875 10.59375 75.796875 9.703125 75.703125 9.015625 
C 74.90625 1.28125 70.796875 0.1875 68.703125 0.1875 
C 63.40625 0.1875 62.703125 4.65625 60.90625 16.140625 
C 59.796875 23.078125 59.40625 25.5625 56.203125 28.734375 
C 54.09375 30.90625 50.90625 32.796875 47 33.890625 
z
" id="CMCSC10-82"/>
      <path d="M 63.40625 62.0625 
C 60.09375 65.484375 54 71 43.703125 71 
C 24 71 7.203125 54.9375 7.203125 34.546875 
C 7.203125 14.046875 24 -2 43.796875 -2 
C 60.703125 -2 71.296875 11.640625 71.296875 23.59375 
C 71.296875 24.59375 71.296875 25.296875 70 25.296875 
C 68.90625 25.296875 68.90625 24.703125 68.796875 23.6875 
C 68 9.125 56.296875 1.09375 45.09375 1.09375 
C 36.296875 1.09375 17.5 6.3125 17.5 34.4375 
C 17.5 64.078125 38 67.890625 44.90625 67.890625 
C 55.59375 67.890625 65.796875 59.546875 68.09375 44.078125 
C 68.296875 42.671875 68.40625 42.375 69.703125 42.375 
C 71.296875 42.375 71.296875 42.671875 71.296875 44.78125 
L 71.296875 68.59375 
C 71.296875 70.296875 71.296875 71 70.203125 71 
C 69.796875 71 69.40625 71 68.59375 69.796875 
z
" id="CMCSC10-67"/>
      <path d="M 71.203125 68.59375 
C 71.203125 70.296875 71.203125 71 70.09375 71 
C 69.703125 71 69.296875 71 68.5 69.796875 
L 63.296875 62.125 
C 60.203125 65.109375 54.296875 71 43.703125 71 
C 23.796875 71 7.203125 54.859375 7.203125 34.859375 
C 7.203125 14.578125 23.59375 -2 43.90625 -2 
C 51.796875 -2 60.40625 0.59375 63.90625 6.609375 
C 65.203125 4.359375 69.203125 0.296875 70.296875 0.296875 
C 71.203125 0.296875 71.203125 1.09375 71.203125 2.625 
L 71.203125 20.390625 
C 71.203125 24.890625 72.296875 24.890625 78.5 24.890625 
L 78.5 28 
C 73.703125 27.796875 70.09375 27.6875 65.796875 27.6875 
C 61.703125 27.6875 52.796875 27.6875 49.203125 28 
L 49.203125 24.890625 
L 52.703125 24.890625 
C 62.296875 24.890625 62.296875 23.46875 62.296875 19.984375 
L 62.296875 13.453125 
C 62.296875 1.09375 46.796875 1.09375 45.59375 1.09375 
C 36.5 1.09375 17.5 6.40625 17.5 34.859375 
C 17.5 63.015625 36.703125 67.890625 44.90625 67.890625 
C 55.5 67.890625 65.703125 59.734375 68 44.3125 
C 68.203125 42.921875 68.296875 42.625 69.59375 42.625 
C 71.203125 42.625 71.203125 42.921875 71.203125 45 
z
" id="CMCSC10-71"/>
     </defs>
     <g transform="translate(424.094451 26.7)scale(0.1 -0.1)">
      <use transform="scale(0.996264)" xlink:href="#CMCSC10-112"/>
      <use transform="translate(55.569158 0)scale(0.996264)" xlink:href="#CMCSC10-105"/>
      <use transform="translate(85.67837 0)scale(0.996264)" xlink:href="#CMCSC10-112"/>
      <use transform="translate(141.247528 0)scale(0.996264)" xlink:href="#CMCSC10-101"/>
      <use transform="translate(196.816686 0)scale(0.996264)" xlink:href="#CMCSC10-45"/>
      <use transform="translate(234.45297 0)scale(0.996264)" xlink:href="#CMCSC10-80"/>
      <use transform="translate(308.341796 0)scale(0.996264)" xlink:href="#CMCSC10-82"/>
      <use transform="translate(388.042172 0)scale(0.996264)" xlink:href="#CMCSC10-45"/>
      <use transform="translate(425.678456 0)scale(0.996264)" xlink:href="#CMCSC10-67"/>
      <use transform="translate(503.99518 0)scale(0.996264)" xlink:href="#CMCSC10-71"/>
     </g>
    </g>
    <g id="line2d_42">
     <path d="M 396.094451 37.137178 
L 416.094451 37.137178 
" style="fill:none;stroke:#2aa198;stroke-linecap:square;stroke-width:1.5;"/>
    </g>
    <g id="line2d_43"/>
    <g id="text_19">
     <!-- \textsc{pipe-P-CG} -->
     <g transform="translate(424.094451 40.637178)scale(0.1 -0.1)">
      <use transform="scale(0.996264)" xlink:href="#CMCSC10-112"/>
      <use transform="translate(55.569158 0)scale(0.996264)" xlink:href="#CMCSC10-105"/>
      <use transform="translate(85.67837 0)scale(0.996264)" xlink:href="#CMCSC10-112"/>
      <use transform="translate(141.247528 0)scale(0.996264)" xlink:href="#CMCSC10-101"/>
      <use transform="translate(196.816686 0)scale(0.996264)" xlink:href="#CMCSC10-45"/>
      <use transform="translate(234.45297 0)scale(0.996264)" xlink:href="#CMCSC10-80"/>
      <use transform="translate(308.341796 0)scale(0.996264)" xlink:href="#CMCSC10-45"/>
      <use transform="translate(345.97808 0)scale(0.996264)" xlink:href="#CMCSC10-67"/>
      <use transform="translate(424.294805 0)scale(0.996264)" xlink:href="#CMCSC10-71"/>
     </g>
    </g>
    <g id="line2d_44">
     <path d="M 396.094451 51.074357 
L 416.094451 51.074357 
" style="fill:none;stroke:#073642;stroke-dasharray:1.5,2.475;stroke-dashoffset:0;stroke-width:1.5;"/>
    </g>
    <g id="line2d_45"/>
    <g id="text_20">
     <!-- PR-CG -->
     <defs>
      <path d="M 19.796875 32 
L 35.796875 32 
C 48.703125 32 58.09375 40.359375 58.09375 49.796875 
C 58.09375 59.234375 48.90625 68 35.796875 68 
L 5.203125 68 
L 5.203125 65.390625 
C 12.09375 65.390625 13.203125 65.390625 13.203125 60.921875 
L 13.203125 7.078125 
C 13.203125 2.59375 12.09375 2.59375 5.203125 2.59375 
L 5.203125 0 
C 8.09375 0.1875 13.40625 0.1875 16.5 0.1875 
C 19.59375 0.1875 24.90625 0.1875 27.796875 0 
L 27.796875 2.59375 
C 20.90625 2.59375 19.796875 2.59375 19.796875 7.078125 
z
M 19.59375 34.09375 
L 19.59375 61.515625 
C 19.59375 64.890625 19.796875 65.390625 23.796875 65.390625 
L 33.90625 65.390625 
C 46.796875 65.390625 50.5 58.046875 50.5 49.796875 
C 50.5 40.75 46.09375 34.09375 33.90625 34.09375 
z
" id="CMR17-80"/>
      <path d="M 39.203125 33.6875 
C 48.703125 35.59375 56.703125 42.015625 56.703125 50.046875 
C 56.703125 59.46875 46.09375 68 32.09375 68 
L 5.203125 68 
L 5.203125 65.390625 
C 12.09375 65.390625 13.203125 65.390625 13.203125 60.875 
L 13.203125 6.6875 
C 13.203125 2.1875 12.09375 2.1875 5.203125 2.1875 
L 5.203125 -0.40625 
C 8.09375 -0.203125 13.296875 -0.203125 16.40625 -0.203125 
C 19.5 -0.203125 24.703125 -0.203125 27.59375 -0.40625 
L 27.59375 2.1875 
C 20.703125 2.1875 19.59375 2.1875 19.59375 6.6875 
L 19.59375 33 
L 31.296875 33 
C 37 33 40.203125 30.6875 41.59375 29.390625 
C 45.59375 25.5 45.59375 22.796875 45.59375 16 
C 45.59375 9.296875 45.59375 5.890625 48.59375 2.5 
C 52.40625 -1.609375 57.5 -2 59.703125 -2 
C 67.09375 -2 68.203125 6.296875 68.203125 8 
C 68.203125 8.59375 68.203125 9.296875 67.296875 9.296875 
C 66.5 9.296875 66.40625 8.6875 66.40625 8.296875 
C 65.90625 1.796875 63 -0.40625 59.90625 -0.40625 
C 54.40625 -0.40625 53.796875 5.890625 53.203125 12 
C 52.90625 14.09375 52.703125 15.59375 52.5 17.796875 
C 51.90625 22.796875 51.09375 30.09375 39.203125 33.6875 
z
M 31 34.59375 
L 19.59375 34.59375 
L 19.59375 61.484375 
C 19.59375 64.890625 19.796875 65.390625 23.796875 65.390625 
L 31.09375 65.390625 
C 39.40625 65.390625 49.09375 62.484375 49.09375 50.046875 
C 49.09375 37.09375 38.5 34.59375 31 34.59375 
z
" id="CMR17-82"/>
      <path d="M 62.09375 67.984375 
C 62.09375 69.796875 62 69.890625 61.40625 69.890625 
C 61 69.890625 60.90625 69.796875 60.203125 68.59375 
L 55.796875 60.140625 
C 50.90625 66.390625 44.90625 70 37.203125 70 
C 20.09375 70 4.59375 54.796875 4.59375 34.046875 
C 4.59375 13.078125 20.09375 -2 37.296875 -2 
C 52.59375 -2 62.09375 11.578125 62.09375 23.15625 
C 62.09375 24.171875 62.09375 24.578125 61.203125 24.578125 
C 60.40625 24.578125 60.40625 24.265625 60.296875 23.359375 
C 59.5 9.25 49.5 0.59375 38.703125 0.59375 
C 28.5 0.59375 12.203125 7.84375 12.203125 34.046875 
C 12.203125 60.34375 28.796875 67.390625 38.5 67.390625 
C 49.796875 67.390625 58 57.515625 59.90625 43.515625 
C 60.09375 42.296875 60.09375 42.109375 61 42.109375 
C 62.09375 42.109375 62.09375 42.296875 62.09375 44.125 
z
" id="CMR17-67"/>
      <path d="M 62.09375 19.65625 
C 62.09375 23.484375 62.40625 24 68.59375 24 
L 68.59375 26.59375 
C 66.203125 26.390625 60.796875 26.390625 58.09375 26.390625 
C 55.296875 26.390625 47.5 26.5 43.703125 26.59375 
L 43.703125 24 
L 46.703125 24 
C 55.296875 24 55.5 22.875 55.5 19.25 
L 55.5 12.59375 
C 55.5 1.5 42.5 0.59375 39.40625 0.59375 
C 29.09375 0.59375 12.203125 7.75 12.203125 34.046875 
C 12.203125 60.34375 28.796875 67.390625 38.5 67.390625 
C 49.796875 67.390625 58 57.515625 59.90625 43.515625 
C 60.09375 42.3125 60.09375 42.109375 61 42.109375 
C 62.09375 42.109375 62.09375 42.3125 62.09375 44.125 
L 62.09375 67.984375 
C 62.09375 69.796875 62 69.890625 61.40625 69.890625 
C 61 69.890625 60.90625 69.796875 60.203125 68.59375 
L 55.796875 60.140625 
C 50.90625 66.390625 44.90625 70 37.203125 70 
C 20.09375 70 4.59375 54.796875 4.59375 34.046875 
C 4.59375 13.40625 19.796875 -2 37.40625 -2 
C 45.5 -2 53.40625 0.890625 56.5 6.640625 
C 58.203125 2.515625 61 -0.3125 61.5 -0.3125 
C 62 -0.3125 62.09375 -0.203125 62.09375 1.59375 
z
" id="CMR17-71"/>
     </defs>
     <g transform="translate(424.094451 54.574357)scale(0.1 -0.1)">
      <use transform="scale(0.996264)" xlink:href="#CMR17-80"/>
      <use transform="translate(62.586301 0)scale(0.996264)" xlink:href="#CMR17-82"/>
      <use transform="translate(130.377402 0)scale(0.996264)" xlink:href="#CMR17-45"/>
      <use transform="translate(160.453369 0)scale(0.996264)" xlink:href="#CMR17-67"/>
      <use transform="translate(226.963249 0)scale(0.996264)" xlink:href="#CMR17-71"/>
     </g>
    </g>
    <g id="line2d_46">
     <path d="M 396.094451 65.011535 
L 416.094451 65.011535 
" style="fill:none;stroke:#859900;stroke-dasharray:1.5,2.475;stroke-dashoffset:0;stroke-width:1.5;"/>
    </g>
    <g id="line2d_47"/>
    <g id="text_21">
     <!-- \textsc{pipe-PR-M-CG} -->
     <defs>
      <path d="M 74.40625 65.09375 
L 74.5 64.984375 
L 74.5 7.765625 
C 74.5 4.1875 74.296875 3.09375 66.59375 3.09375 
L 64.203125 3.09375 
L 64.203125 0 
C 67.90625 0.296875 74.703125 0.296875 78.59375 0.296875 
C 82.5 0.296875 89.203125 0.296875 92.90625 0 
L 92.90625 3.09375 
L 90.5 3.09375 
C 82.796875 3.09375 82.59375 4.1875 82.59375 7.765625 
L 82.59375 60.21875 
C 82.59375 63.796875 82.796875 64.890625 90.5 64.890625 
L 92.90625 64.890625 
L 92.90625 68 
L 76 68 
C 73.703125 68 73.40625 68 72.59375 66.09375 
L 49.40625 9.46875 
L 26.203125 66.1875 
C 25.5 68 24.90625 68 22.796875 68 
L 5.90625 68 
L 5.90625 64.890625 
L 8.296875 64.890625 
C 16 64.890625 16.203125 63.796875 16.203125 60.21875 
L 16.203125 10.453125 
C 16.203125 7.765625 16.203125 3.09375 5.90625 3.09375 
L 5.90625 0 
C 9.40625 0.09375 14.296875 0.296875 17.59375 0.296875 
C 20.90625 0.296875 25.796875 0.09375 29.296875 0 
L 29.296875 3.09375 
C 19 3.09375 19 7.765625 19 10.453125 
L 19 64.296875 
L 19.09375 64.390625 
L 44.703125 1.796875 
C 45.09375 0.890625 45.59375 0 46.59375 0 
C 47.59375 0 48.09375 0.890625 48.5 1.796875 
z
" id="CMCSC10-77"/>
     </defs>
     <g transform="translate(424.094451 68.511535)scale(0.1 -0.1)">
      <use transform="scale(0.996264)" xlink:href="#CMCSC10-112"/>
      <use transform="translate(55.569158 0)scale(0.996264)" xlink:href="#CMCSC10-105"/>
      <use transform="translate(85.67837 0)scale(0.996264)" xlink:href="#CMCSC10-112"/>
      <use transform="translate(141.247528 0)scale(0.996264)" xlink:href="#CMCSC10-101"/>
      <use transform="translate(196.816686 0)scale(0.996264)" xlink:href="#CMCSC10-45"/>
      <use transform="translate(234.45297 0)scale(0.996264)" xlink:href="#CMCSC10-80"/>
      <use transform="translate(308.341796 0)scale(0.996264)" xlink:href="#CMCSC10-82"/>
      <use transform="translate(388.042172 0)scale(0.996264)" xlink:href="#CMCSC10-45"/>
      <use transform="translate(425.678456 0)scale(0.996264)" xlink:href="#CMCSC10-77"/>
      <use transform="translate(524.19692 0)scale(0.996264)" xlink:href="#CMCSC10-45"/>
      <use transform="translate(561.833204 0)scale(0.996264)" xlink:href="#CMCSC10-67"/>
      <use transform="translate(640.149929 0)scale(0.996264)" xlink:href="#CMCSC10-71"/>
     </g>
    </g>
    <g id="line2d_48">
     <path d="M 396.094451 78.948713 
L 416.094451 78.948713 
" style="fill:none;stroke:#6c71c4;stroke-linecap:square;stroke-width:1.5;"/>
    </g>
    <g id="line2d_49"/>
    <g id="text_22">
     <!-- \textsc{pipe-P-M-CG} -->
     <g transform="translate(424.094451 82.448713)scale(0.1 -0.1)">
      <use transform="scale(0.996264)" xlink:href="#CMCSC10-112"/>
      <use transform="translate(55.569158 0)scale(0.996264)" xlink:href="#CMCSC10-105"/>
      <use transform="translate(85.67837 0)scale(0.996264)" xlink:href="#CMCSC10-112"/>
      <use transform="translate(141.247528 0)scale(0.996264)" xlink:href="#CMCSC10-101"/>
      <use transform="translate(196.816686 0)scale(0.996264)" xlink:href="#CMCSC10-45"/>
      <use transform="translate(234.45297 0)scale(0.996264)" xlink:href="#CMCSC10-80"/>
      <use transform="translate(308.341796 0)scale(0.996264)" xlink:href="#CMCSC10-45"/>
      <use transform="translate(345.97808 0)scale(0.996264)" xlink:href="#CMCSC10-77"/>
      <use transform="translate(444.496544 0)scale(0.996264)" xlink:href="#CMCSC10-45"/>
      <use transform="translate(482.132828 0)scale(0.996264)" xlink:href="#CMCSC10-67"/>
      <use transform="translate(560.449553 0)scale(0.996264)" xlink:href="#CMCSC10-71"/>
     </g>
    </g>
    <g id="line2d_50">
     <path d="M 396.094451 92.885892 
L 416.094451 92.885892 
" style="fill:none;stroke:#93a1a1;stroke-linecap:square;stroke-width:1.5;"/>
    </g>
    <g id="line2d_51">
     <g>
      <use style="fill:#93a1a1;stroke:#93a1a1;stroke-linejoin:miter;" x="406.094451" xlink:href="#m64fa9af51f" y="92.885892"/>
     </g>
    </g>
    <g id="text_23">
     <!-- GV-CG -->
     <defs>
      <path d="M 59 58.78125 
C 59.90625 60.984375 61.5 65.296875 68.203125 65.390625 
L 68.203125 68 
C 65.90625 67.796875 63.296875 67.796875 60.796875 67.796875 
C 58.40625 67.796875 54.296875 67.796875 52 68 
L 52 65.390625 
C 57 65.09375 57.203125 61.59375 57.203125 60.984375 
C 57.203125 59.890625 56.90625 59.1875 56.59375 58.390625 
L 36.90625 7 
L 16.296875 60.984375 
C 16 61.6875 15.796875 62.1875 15.796875 62.6875 
C 15.796875 65.390625 19.796875 65.390625 21.90625 65.390625 
L 21.90625 68 
C 18.703125 67.796875 14 67.796875 10.703125 67.796875 
C 8.09375 67.796875 3.40625 67.796875 1 68 
L 1 65.390625 
C 6.796875 65.390625 7.90625 65 9.09375 61.796875 
L 32.90625 -0.40625 
C 33.40625 -1.8125 33.5 -2 34.59375 -2 
C 35.703125 -2 35.796875 -1.8125 36.296875 -0.40625 
z
" id="CMR17-86"/>
     </defs>
     <g transform="translate(424.094451 96.385892)scale(0.1 -0.1)">
      <use transform="scale(0.996264)" xlink:href="#CMR17-71"/>
      <use transform="translate(72.355346 0)scale(0.996264)" xlink:href="#CMR17-86"/>
      <use transform="translate(141.427776 0)scale(0.996264)" xlink:href="#CMR17-45"/>
      <use transform="translate(171.503742 0)scale(0.996264)" xlink:href="#CMR17-67"/>
      <use transform="translate(238.013623 0)scale(0.996264)" xlink:href="#CMR17-71"/>
     </g>
    </g>
    <g id="line2d_52">
     <path d="M 396.094451 106.82307 
L 416.094451 106.82307 
" style="fill:none;stroke:#93a1a1;stroke-linecap:square;stroke-width:1.5;"/>
    </g>
    <g id="line2d_53">
     <g>
      <use style="fill:#93a1a1;stroke:#93a1a1;stroke-linejoin:miter;" x="406.094451" xlink:href="#mb9777b7436" y="106.82307"/>
     </g>
    </g>
    <g id="text_24">
     <!-- M-CG -->
     <defs>
      <path d="M 20.90625 66.390625 
C 20.296875 67.890625 20.203125 68 18.09375 68 
L 5.296875 68 
L 5.296875 65.390625 
C 12.203125 65.390625 13.296875 65.390625 13.296875 60.90625 
L 13.296875 9.75 
C 13.296875 7.265625 13.296875 2.59375 5.296875 2.59375 
L 5.296875 0 
C 7.59375 0.1875 11.796875 0.1875 14.296875 0.1875 
C 16.796875 0.1875 21 0.1875 23.296875 0 
L 23.296875 2.59375 
C 15.296875 2.59375 15.296875 7.265625 15.296875 9.75 
L 15.296875 64.984375 
L 15.40625 64.984375 
L 38.90625 1.59375 
C 39.296875 0.59375 39.5 0 40.296875 0 
C 41.09375 0 41.296875 0.59375 41.703125 1.59375 
L 65.40625 65.484375 
L 65.5 65.484375 
L 65.5 7.078125 
C 65.5 2.59375 64.40625 2.59375 57.5 2.59375 
L 57.5 0 
C 60.203125 0.1875 65.59375 0.1875 68.5 0.1875 
C 71.40625 0.1875 76.90625 0.1875 79.59375 0 
L 79.59375 2.59375 
C 72.703125 2.59375 71.59375 2.59375 71.59375 7.078125 
L 71.59375 60.90625 
C 71.59375 65.390625 72.703125 65.390625 79.59375 65.390625 
L 79.59375 68 
L 66.90625 68 
C 64.796875 68 64.703125 67.890625 64.09375 66.390625 
L 42.5 8.0625 
z
" id="CMR17-77"/>
     </defs>
     <g transform="translate(424.094451 110.32307)scale(0.1 -0.1)">
      <use transform="scale(0.996264)" xlink:href="#CMR17-77"/>
      <use transform="translate(84.686941 0)scale(0.996264)" xlink:href="#CMR17-45"/>
      <use transform="translate(114.762907 0)scale(0.996264)" xlink:href="#CMR17-67"/>
      <use transform="translate(181.272787 0)scale(0.996264)" xlink:href="#CMR17-71"/>
     </g>
    </g>
    <g id="line2d_54">
     <path d="M 396.094451 120.760248 
L 416.094451 120.760248 
" style="fill:none;stroke:#93a1a1;stroke-linecap:square;stroke-width:1.5;"/>
    </g>
    <g id="line2d_55">
     <g>
      <use style="fill:#93a1a1;stroke:#93a1a1;stroke-linejoin:miter;" x="406.094451" xlink:href="#mc1102b1291" y="120.760248"/>
     </g>
    </g>
    <g id="text_25">
     <!-- CG-CG -->
     <g transform="translate(424.094451 124.260248)scale(0.1 -0.1)">
      <use transform="scale(0.996264)" xlink:href="#CMR17-67"/>
      <use transform="translate(66.509881 0)scale(0.996264)" xlink:href="#CMR17-71"/>
      <use transform="translate(138.865226 0)scale(0.996264)" xlink:href="#CMR17-45"/>
      <use transform="translate(168.941193 0)scale(0.996264)" xlink:href="#CMR17-67"/>
      <use transform="translate(235.451073 0)scale(0.996264)" xlink:href="#CMR17-71"/>
     </g>
    </g>
    <g id="line2d_56">
     <path d="M 396.094451 134.697427 
L 416.094451 134.697427 
" style="fill:none;stroke:#93a1a1;stroke-linecap:square;stroke-width:1.5;"/>
    </g>
    <g id="line2d_57">
     <g>
      <use style="fill:#93a1a1;stroke:#93a1a1;" x="406.094451" xlink:href="#mabc930db88" y="134.697427"/>
     </g>
    </g>
    <g id="text_26">
     <!-- HS-CG -->
     <defs>
      <path d="M 56.09375 60.90625 
C 56.09375 65.390625 57.203125 65.390625 64.09375 65.390625 
L 64.09375 68 
C 61.203125 67.796875 55.90625 67.796875 52.796875 67.796875 
C 49.703125 67.796875 44.40625 67.796875 41.5 68 
L 41.5 65.390625 
C 48.40625 65.390625 49.5 65.390625 49.5 60.90625 
L 49.5 36.59375 
L 19.703125 36.59375 
L 19.703125 60.90625 
C 19.703125 65.390625 20.796875 65.390625 27.703125 65.390625 
L 27.703125 68 
C 24.796875 67.796875 19.5 67.796875 16.40625 67.796875 
C 13.296875 67.796875 8 67.796875 5.09375 68 
L 5.09375 65.390625 
C 12 65.390625 13.09375 65.390625 13.09375 60.90625 
L 13.09375 7.0625 
C 13.09375 2.59375 12 2.59375 5.09375 2.59375 
L 5.09375 0 
C 8 0.1875 13.296875 0.1875 16.40625 0.1875 
C 19.5 0.1875 24.796875 0.1875 27.703125 0 
L 27.703125 2.59375 
C 20.796875 2.59375 19.703125 2.59375 19.703125 7.0625 
L 19.703125 34 
L 49.5 34 
L 49.5 7.0625 
C 49.5 2.59375 48.40625 2.59375 41.5 2.59375 
L 41.5 0 
C 44.40625 0.1875 49.703125 0.1875 52.796875 0.1875 
C 55.90625 0.1875 61.203125 0.1875 64.09375 0 
L 64.09375 2.59375 
C 57.203125 2.59375 56.09375 2.59375 56.09375 7.0625 
z
" id="CMR17-72"/>
      <path d="M 43.796875 67.984375 
C 43.796875 69.796875 43.703125 69.890625 43.09375 69.890625 
C 42.5 69.890625 42.296875 69.484375 41.90625 68.59375 
L 38.90625 61.953125 
C 35.09375 67.5 29.296875 70 23 70 
C 12.796875 70 4.59375 61.84375 4.59375 51.578125 
C 4.59375 48.453125 5.296875 44.015625 8.703125 39.78125 
C 12.40625 35.15625 15.90625 34.34375 23.90625 32.234375 
C 26.90625 31.421875 31.90625 30.109375 32.90625 29.703125 
C 38.59375 27.296875 41.59375 21.25 41.59375 15.609375 
C 41.59375 8.34375 36.5 0.59375 27.796875 0.59375 
C 17.09375 0.59375 7.09375 6.640625 6.40625 20.75 
C 6.296875 22.359375 6.203125 22.453125 5.5 22.453125 
C 4.703125 22.453125 4.59375 22.359375 4.59375 20.34375 
L 4.59375 0 
C 4.59375 -1.8125 4.703125 -1.90625 5.296875 -1.90625 
C 6 -1.90625 6.203125 -1.40625 7.59375 1.703125 
C 7.703125 2 7.703125 2.203125 9.59375 6.03125 
C 14.59375 -0.609375 23 -2 27.796875 -2 
C 38.703125 -2 46.40625 7.140625 46.40625 17.828125 
C 46.40625 23.0625 44.5 27.09375 43.40625 28.90625 
C 39.203125 35.359375 34.703125 36.5625 29.90625 37.765625 
C 29.203125 38.078125 29 38.078125 23.40625 39.484375 
C 18 40.890625 15.703125 41.59375 13.203125 44.3125 
C 10.40625 47.4375 9.40625 50.671875 9.40625 53.890625 
C 9.40625 60.4375 14.59375 67.59375 23.09375 67.59375 
C 33.703125 67.59375 40.296875 60.03125 41.796875 47.4375 
C 42.09375 45.625 42.203125 45.53125 42.90625 45.53125 
C 43.796875 45.53125 43.796875 45.828125 43.796875 47.546875 
z
" id="CMR17-83"/>
     </defs>
     <g transform="translate(424.094451 138.197427)scale(0.1 -0.1)">
      <use transform="scale(0.996264)" xlink:href="#CMR17-72"/>
      <use transform="translate(69.07243 0)scale(0.996264)" xlink:href="#CMR17-83"/>
      <use transform="translate(119.9678 0)scale(0.996264)" xlink:href="#CMR17-45"/>
      <use transform="translate(150.043766 0)scale(0.996264)" xlink:href="#CMR17-67"/>
      <use transform="translate(216.553646 0)scale(0.996264)" xlink:href="#CMR17-71"/>
     </g>
    </g>
   </g>
  </g>
 </g>
 <defs>
  <clipPath id="pd861b6fb18">
   <rect height="221.76" width="334.8" x="52.294451" y="10.7"/>
  </clipPath>
 </defs>
</svg>
