<?xml version="1.0" encoding="utf-8" standalone="no"?>
<!DOCTYPE svg PUBLIC "-//W3C//DTD SVG 1.1//EN"
  "http://www.w3.org/Graphics/SVG/1.1/DTD/svg11.dtd">
<!-- Created with matplotlib (https://matplotlib.org/) -->
<svg height="268.371353pt" version="1.1" viewBox="0 0 494.350183 268.371353" width="494.350183pt" xmlns="http://www.w3.org/2000/svg" xmlns:xlink="http://www.w3.org/1999/xlink">
 <defs>
  <style type="text/css">
*{stroke-linecap:butt;stroke-linejoin:round;}
  </style>
 </defs>
 <g id="figure_1">
  <g id="patch_1">
   <path d="M -0 268.371353 
L 494.350183 268.371353 
L 494.350183 0 
L -0 0 
z
" style="fill:#ffffff;"/>
  </g>
  <g id="axes_1">
   <g id="patch_2">
    <path d="M 52.294451 232.46 
L 387.094451 232.46 
L 387.094451 10.7 
L 52.294451 10.7 
z
" style="fill:#ffffff;"/>
   </g>
   <g id="matplotlib.axis_1">
    <g id="xtick_1">
     <g id="line2d_1">
      <path clip-path="url(#pd1f5fdb3a3)" d="M 67.512633 232.46 
L 67.512633 10.7 
" style="fill:none;stroke:#b0b0b0;stroke-dasharray:0.8,1.32;stroke-dashoffset:0;stroke-width:0.8;"/>
     </g>
     <g id="line2d_2">
      <defs>
       <path d="M 0 0 
L 0 3.5 
" id="mfcd84de40d" style="stroke:#000000;stroke-width:0.8;"/>
      </defs>
      <g>
       <use style="stroke:#000000;stroke-width:0.8;" x="67.512633" xlink:href="#mfcd84de40d" y="232.46"/>
      </g>
     </g>
     <g id="text_1">
      <!-- $0$ -->
      <defs>
       <path d="M 42 31.84375 
C 42 37.96875 41.90625 48.421875 37.703125 56.453125 
C 34 63.484375 28.09375 66 22.90625 66 
C 18.09375 66 12 63.78125 8.203125 56.5625 
C 4.203125 49.015625 3.796875 39.671875 3.796875 31.84375 
C 3.796875 26.109375 3.90625 17.375 7 9.734375 
C 11.296875 -0.609375 19 -2 22.90625 -2 
C 27.5 -2 34.5 -0.109375 38.59375 9.4375 
C 41.59375 16.375 42 24.5 42 31.84375 
z
M 22.90625 -0.40625 
C 16.5 -0.40625 12.703125 5.125 11.296875 12.75 
C 10.203125 18.6875 10.203125 27.328125 10.203125 32.953125 
C 10.203125 40.6875 10.203125 47.109375 11.5 53.234375 
C 13.40625 61.78125 19 64.390625 22.90625 64.390625 
C 27 64.390625 32.296875 61.671875 34.203125 53.4375 
C 35.5 47.71875 35.59375 40.984375 35.59375 32.953125 
C 35.59375 26.421875 35.59375 18.375 34.40625 12.453125 
C 32.296875 1.5 26.40625 -0.40625 22.90625 -0.40625 
z
" id="CMR17-48"/>
      </defs>
      <g transform="translate(65.021965 246.378498)scale(0.1 -0.1)">
       <use transform="scale(0.996264)" xlink:href="#CMR17-48"/>
      </g>
     </g>
    </g>
    <g id="xtick_2">
     <g id="line2d_3">
      <path clip-path="url(#pd1f5fdb3a3)" d="M 105.749271 232.46 
L 105.749271 10.7 
" style="fill:none;stroke:#b0b0b0;stroke-dasharray:0.8,1.32;stroke-dashoffset:0;stroke-width:0.8;"/>
     </g>
     <g id="line2d_4">
      <g>
       <use style="stroke:#000000;stroke-width:0.8;" x="105.749271" xlink:href="#mfcd84de40d" y="232.46"/>
      </g>
     </g>
     <g id="text_2">
      <!-- $25$ -->
      <defs>
       <path d="M 41.703125 15.46875 
L 39.90625 15.46875 
C 38.90625 8.390625 38.09375 7.1875 37.703125 6.59375 
C 37.203125 5.796875 30 5.796875 28.59375 5.796875 
L 9.40625 5.796875 
C 13 9.6875 20 16.765625 28.5 24.9375 
C 34.59375 30.71875 41.703125 37.5 41.703125 47.390625 
C 41.703125 59.1875 32.296875 66 21.796875 66 
C 10.796875 66 4.09375 56.296875 4.09375 47.296875 
C 4.09375 43.390625 7 42.890625 8.203125 42.890625 
C 9.203125 42.890625 12.203125 43.484375 12.203125 46.984375 
C 12.203125 50.09375 9.59375 51 8.203125 51 
C 7.59375 51 7 50.890625 6.59375 50.6875 
C 8.5 59.1875 14.296875 63.390625 20.40625 63.390625 
C 29.09375 63.390625 34.796875 56.5 34.796875 47.390625 
C 34.796875 38.703125 29.703125 31.21875 24 24.734375 
L 4.09375 2.296875 
L 4.09375 0 
L 39.296875 0 
z
" id="CMR17-50"/>
       <path d="M 11.40625 58.59375 
C 12.40625 58.1875 16.5 56.890625 20.703125 56.890625 
C 30 56.890625 35.09375 61.890625 38 64.6875 
C 38 65.484375 38 66 37.40625 66 
C 37.296875 66 37.09375 66 36.296875 65.59375 
C 32.796875 64.09375 28.703125 63 23.703125 63 
C 20.703125 63 16.203125 63.359375 11.296875 65.484375 
C 10.203125 66 10 66 9.90625 66 
C 9.40625 66 9.296875 65.890625 9.296875 63.90625 
L 9.296875 34.859375 
C 9.296875 33.015625 9.296875 32.5 10.296875 32.5 
C 10.796875 32.5 11 32.703125 11.5 33.421875 
C 14.703125 38.046875 19.09375 40 24.09375 40 
C 27.59375 40 35.09375 37.734375 35.09375 20.203125 
C 35.09375 16.984375 35.09375 11.1875 32.09375 6.59375 
C 29.59375 2.484375 25.703125 0.390625 21.40625 0.390625 
C 14.796875 0.390625 8.09375 4.984375 6.296875 12.6875 
C 6.703125 12.59375 7.5 12.390625 7.90625 12.390625 
C 9.203125 12.390625 11.703125 13.09375 11.703125 16.1875 
C 11.703125 18.890625 9.796875 20 7.90625 20 
C 5.59375 20 4.09375 18.59375 4.09375 15.796875 
C 4.09375 7.09375 11 -2 21.59375 -2 
C 31.90625 -2 41.703125 6.890625 41.703125 19.796875 
C 41.703125 32.09375 33.90625 41.59375 24.203125 41.59375 
C 19.09375 41.59375 14.796875 39.6875 11.40625 36 
z
" id="CMR17-53"/>
      </defs>
      <g transform="translate(100.767935 246.378498)scale(0.1 -0.1)">
       <use transform="scale(0.996264)" xlink:href="#CMR17-50"/>
       <use transform="translate(45.690477 0)scale(0.996264)" xlink:href="#CMR17-53"/>
      </g>
     </g>
    </g>
    <g id="xtick_3">
     <g id="line2d_5">
      <path clip-path="url(#pd1f5fdb3a3)" d="M 143.985908 232.46 
L 143.985908 10.7 
" style="fill:none;stroke:#b0b0b0;stroke-dasharray:0.8,1.32;stroke-dashoffset:0;stroke-width:0.8;"/>
     </g>
     <g id="line2d_6">
      <g>
       <use style="stroke:#000000;stroke-width:0.8;" x="143.985908" xlink:href="#mfcd84de40d" y="232.46"/>
      </g>
     </g>
     <g id="text_3">
      <!-- $50$ -->
      <g transform="translate(139.004573 246.378498)scale(0.1 -0.1)">
       <use transform="scale(0.996264)" xlink:href="#CMR17-53"/>
       <use transform="translate(45.690477 0)scale(0.996264)" xlink:href="#CMR17-48"/>
      </g>
     </g>
    </g>
    <g id="xtick_4">
     <g id="line2d_7">
      <path clip-path="url(#pd1f5fdb3a3)" d="M 182.222546 232.46 
L 182.222546 10.7 
" style="fill:none;stroke:#b0b0b0;stroke-dasharray:0.8,1.32;stroke-dashoffset:0;stroke-width:0.8;"/>
     </g>
     <g id="line2d_8">
      <g>
       <use style="stroke:#000000;stroke-width:0.8;" x="182.222546" xlink:href="#mfcd84de40d" y="232.46"/>
      </g>
     </g>
     <g id="text_4">
      <!-- $75$ -->
      <defs>
       <path d="M 45.09375 61.796875 
L 45.09375 64 
L 21.59375 64 
C 9.90625 64 9.703125 65.09375 9.296875 67 
L 7.5 67 
L 4.59375 48.5 
L 6.40625 48.5 
C 6.703125 50.40625 7.40625 55.5 8.59375 57.390625 
C 9.203125 58.1875 16.59375 58.1875 18.296875 58.1875 
L 40.296875 58.1875 
L 29.203125 41.71875 
C 21.796875 30.640625 16.703125 15.671875 16.703125 2.59375 
C 16.703125 1.390625 16.703125 -2 20.296875 -2 
C 23.90625 -2 23.90625 1.390625 23.90625 2.6875 
L 23.90625 7.28125 
C 23.90625 23.65625 26.703125 34.4375 31.296875 41.3125 
z
" id="CMR17-55"/>
      </defs>
      <g transform="translate(177.241211 246.378498)scale(0.1 -0.1)">
       <use transform="scale(0.996264)" xlink:href="#CMR17-55"/>
       <use transform="translate(45.690477 0)scale(0.996264)" xlink:href="#CMR17-53"/>
      </g>
     </g>
    </g>
    <g id="xtick_5">
     <g id="line2d_9">
      <path clip-path="url(#pd1f5fdb3a3)" d="M 220.459184 232.46 
L 220.459184 10.7 
" style="fill:none;stroke:#b0b0b0;stroke-dasharray:0.8,1.32;stroke-dashoffset:0;stroke-width:0.8;"/>
     </g>
     <g id="line2d_10">
      <g>
       <use style="stroke:#000000;stroke-width:0.8;" x="220.459184" xlink:href="#mfcd84de40d" y="232.46"/>
      </g>
     </g>
     <g id="text_5">
      <!-- $100$ -->
      <defs>
       <path d="M 26.59375 63.796875 
C 26.59375 65.890625 26.5 66 25.09375 66 
C 21.203125 61.359375 15.296875 59.890625 9.703125 59.6875 
C 9.40625 59.6875 8.90625 59.6875 8.796875 59.5 
C 8.703125 59.296875 8.703125 59.09375 8.703125 57 
C 11.796875 57 17 57.59375 21 59.984375 
L 21 7.296875 
C 21 3.796875 20.796875 2.59375 12.203125 2.59375 
L 9.203125 2.59375 
L 9.203125 0 
C 14 0.09375 19 0.1875 23.796875 0.1875 
C 28.59375 0.1875 33.59375 0.09375 38.40625 0 
L 38.40625 2.59375 
L 35.40625 2.59375 
C 26.796875 2.59375 26.59375 3.6875 26.59375 7.296875 
z
" id="CMR17-49"/>
      </defs>
      <g transform="translate(212.987181 246.378498)scale(0.1 -0.1)">
       <use transform="scale(0.996264)" xlink:href="#CMR17-49"/>
       <use transform="translate(45.690477 0)scale(0.996264)" xlink:href="#CMR17-48"/>
       <use transform="translate(91.380954 0)scale(0.996264)" xlink:href="#CMR17-48"/>
      </g>
     </g>
    </g>
    <g id="xtick_6">
     <g id="line2d_11">
      <path clip-path="url(#pd1f5fdb3a3)" d="M 258.695822 232.46 
L 258.695822 10.7 
" style="fill:none;stroke:#b0b0b0;stroke-dasharray:0.8,1.32;stroke-dashoffset:0;stroke-width:0.8;"/>
     </g>
     <g id="line2d_12">
      <g>
       <use style="stroke:#000000;stroke-width:0.8;" x="258.695822" xlink:href="#mfcd84de40d" y="232.46"/>
      </g>
     </g>
     <g id="text_6">
      <!-- $125$ -->
      <g transform="translate(251.223819 246.378498)scale(0.1 -0.1)">
       <use transform="scale(0.996264)" xlink:href="#CMR17-49"/>
       <use transform="translate(45.690477 0)scale(0.996264)" xlink:href="#CMR17-50"/>
       <use transform="translate(91.380954 0)scale(0.996264)" xlink:href="#CMR17-53"/>
      </g>
     </g>
    </g>
    <g id="xtick_7">
     <g id="line2d_13">
      <path clip-path="url(#pd1f5fdb3a3)" d="M 296.932459 232.46 
L 296.932459 10.7 
" style="fill:none;stroke:#b0b0b0;stroke-dasharray:0.8,1.32;stroke-dashoffset:0;stroke-width:0.8;"/>
     </g>
     <g id="line2d_14">
      <g>
       <use style="stroke:#000000;stroke-width:0.8;" x="296.932459" xlink:href="#mfcd84de40d" y="232.46"/>
      </g>
     </g>
     <g id="text_7">
      <!-- $150$ -->
      <g transform="translate(289.460456 246.378498)scale(0.1 -0.1)">
       <use transform="scale(0.996264)" xlink:href="#CMR17-49"/>
       <use transform="translate(45.690477 0)scale(0.996264)" xlink:href="#CMR17-53"/>
       <use transform="translate(91.380954 0)scale(0.996264)" xlink:href="#CMR17-48"/>
      </g>
     </g>
    </g>
    <g id="xtick_8">
     <g id="line2d_15">
      <path clip-path="url(#pd1f5fdb3a3)" d="M 335.169097 232.46 
L 335.169097 10.7 
" style="fill:none;stroke:#b0b0b0;stroke-dasharray:0.8,1.32;stroke-dashoffset:0;stroke-width:0.8;"/>
     </g>
     <g id="line2d_16">
      <g>
       <use style="stroke:#000000;stroke-width:0.8;" x="335.169097" xlink:href="#mfcd84de40d" y="232.46"/>
      </g>
     </g>
     <g id="text_8">
      <!-- $175$ -->
      <g transform="translate(327.697094 246.378498)scale(0.1 -0.1)">
       <use transform="scale(0.996264)" xlink:href="#CMR17-49"/>
       <use transform="translate(45.690477 0)scale(0.996264)" xlink:href="#CMR17-55"/>
       <use transform="translate(91.380954 0)scale(0.996264)" xlink:href="#CMR17-53"/>
      </g>
     </g>
    </g>
    <g id="xtick_9">
     <g id="line2d_17">
      <path clip-path="url(#pd1f5fdb3a3)" d="M 373.405735 232.46 
L 373.405735 10.7 
" style="fill:none;stroke:#b0b0b0;stroke-dasharray:0.8,1.32;stroke-dashoffset:0;stroke-width:0.8;"/>
     </g>
     <g id="line2d_18">
      <g>
       <use style="stroke:#000000;stroke-width:0.8;" x="373.405735" xlink:href="#mfcd84de40d" y="232.46"/>
      </g>
     </g>
     <g id="text_9">
      <!-- $200$ -->
      <g transform="translate(365.933732 246.378498)scale(0.1 -0.1)">
       <use transform="scale(0.996264)" xlink:href="#CMR17-50"/>
       <use transform="translate(45.690477 0)scale(0.996264)" xlink:href="#CMR17-48"/>
       <use transform="translate(91.380954 0)scale(0.996264)" xlink:href="#CMR17-48"/>
      </g>
     </g>
    </g>
    <g id="text_10">
     <!-- iteration $k$ -->
     <defs>
      <path d="M 15.5 61.890625 
C 15.5 64.09375 13.703125 66 11.40625 66 
C 9.203125 66 7.296875 64.1875 7.296875 61.890625 
C 7.296875 59.6875 9.09375 57.796875 11.40625 57.796875 
C 13.59375 57.796875 15.5 59.59375 15.5 61.890625 
z
M 3.796875 42.890625 
L 3.796875 40.296875 
C 9.40625 40.296875 10.203125 39.6875 10.203125 34.859375 
L 10.203125 6.921875 
C 10.203125 3.09375 9.796875 2.59375 3.40625 2.59375 
L 3.40625 0 
C 5.796875 0.1875 10.09375 0.1875 12.59375 0.1875 
C 15 0.1875 19.09375 0.1875 21.40625 0 
L 21.40625 2.59375 
C 15.5 2.59375 15.296875 3.203125 15.296875 6.8125 
L 15.296875 44 
z
" id="CMR17-105"/>
      <path d="M 15.09375 40.390625 
L 29.09375 40.390625 
L 29.09375 43 
L 15.09375 43 
L 15.09375 62 
L 13.296875 62 
C 13.09375 51.4375 9.59375 42.1875 1.09375 41.984375 
L 1.09375 40.390625 
L 9.796875 40.390625 
L 9.796875 12.15625 
C 9.796875 10.234375 9.796875 -1 21.40625 -1 
C 27.296875 -1 30.703125 4.8125 30.703125 12.25 
L 30.703125 17.984375 
L 28.90625 17.984375 
L 28.90625 12.34375 
C 28.90625 5.421875 26.203125 0.796875 22 0.796875 
C 19.09375 0.796875 15.09375 2.796875 15.09375 11.953125 
z
" id="CMR17-116"/>
      <path d="M 38.09375 23.484375 
C 38.5 23.890625 38.5 24.09375 38.5 25.09375 
C 38.5 35.171875 33.09375 44 21.703125 44 
C 11.09375 44 2.703125 33.984375 2.703125 21.78125 
C 2.703125 8.65625 12.203125 -1 22.796875 -1 
C 34 -1 38.40625 9.671875 38.40625 11.796875 
C 38.40625 12.5 37.796875 12.5 37.59375 12.5 
C 36.90625 12.5 36.796875 12.296875 36.40625 11.078125 
C 34.203125 4.21875 28.703125 0.796875 23.5 0.796875 
C 19.203125 0.796875 14.90625 3.21875 12.203125 7.65625 
C 9.09375 12.796875 9.09375 18.75 9.09375 23.484375 
z
M 9.203125 25 
C 9.90625 39.234375 17.59375 42.390625 21.59375 42.390625 
C 28.40625 42.390625 33 36.0625 33.09375 25 
z
" id="CMR17-101"/>
      <path d="M 15 23.703125 
C 15 33.34375 19.09375 42.390625 26.59375 42.390625 
C 27.296875 42.390625 28 42.296875 28.703125 41.984375 
C 28.703125 41.984375 26.5 41.28125 26.5 38.671875 
C 26.5 36.265625 28.40625 35.265625 29.90625 35.265625 
C 31.09375 35.265625 33.296875 35.96875 33.296875 38.78125 
C 33.296875 41.984375 30.09375 44 26.703125 44 
C 19.09375 44 15.796875 36.5625 14.796875 33.046875 
L 14.703125 33.046875 
L 14.703125 44 
L 3.09375 42.890625 
L 3.09375 40.28125 
C 9 40.28125 9.90625 39.6875 9.90625 34.859375 
L 9.90625 6.921875 
C 9.90625 3.09375 9.5 2.59375 3.09375 2.59375 
L 3.09375 0 
C 5.5 0.1875 10.09375 0.1875 12.703125 0.1875 
C 15.59375 0.1875 20.703125 0.1875 23.40625 0 
L 23.40625 2.59375 
C 16.203125 2.59375 15 2.59375 15 7.109375 
z
" id="CMR17-114"/>
      <path d="M 36 25.875 
C 36 32 36 35.546875 31.796875 39.59375 
C 28.09375 42.984375 23.796875 44 20.40625 44 
C 12.5 44 6.796875 37.625 6.796875 30.890625 
C 6.796875 27.1875 9.796875 27 10.40625 27 
C 11.703125 27 14 27.796875 14 30.59375 
C 14 33.09375 12.09375 34.1875 10.40625 34.1875 
C 10 34.1875 9.5 34.09375 9.203125 34 
C 11.296875 40.53125 16.703125 42.390625 20.203125 42.390625 
C 25.203125 42.390625 30.703125 37.828125 30.703125 29.296875 
L 30.703125 25.5 
C 24.796875 25.296875 17.703125 24.5 12.09375 21.453125 
C 5.796875 17.921875 4 12.84375 4 9 
C 4 1.203125 13 -1 18.296875 -1 
C 23.796875 -1 28.90625 2.109375 31.09375 7.890625 
C 31.296875 3.421875 34.09375 -0.609375 38.5 -0.609375 
C 40.59375 -0.609375 45.90625 0.796875 45.90625 8.796875 
L 45.90625 14.46875 
L 44.09375 14.46875 
L 44.09375 8.703125 
C 44.09375 2.515625 41.40625 1.703125 40.09375 1.703125 
C 36 1.703125 36 6.96875 36 11.4375 
z
M 30.703125 13.859375 
C 30.703125 5.046875 24.5 0.59375 19 0.59375 
C 14 0.59375 10.09375 4.34375 10.09375 9 
C 10.09375 12.046875 11.40625 17.40625 17.203125 20.65625 
C 22 23.390625 27.5 23.796875 30.703125 24 
z
" id="CMR17-97"/>
      <path d="M 43.09375 21.1875 
C 43.09375 34 33.796875 44 22.90625 44 
C 12 44 2.703125 34 2.703125 21.1875 
C 2.703125 8.59375 12 -1 22.90625 -1 
C 33.796875 -1 43.09375 8.59375 43.09375 21.1875 
z
M 22.90625 0.796875 
C 18.203125 0.796875 14.203125 3.59375 11.90625 7.5 
C 9.40625 12 9.09375 17.59375 9.09375 22 
C 9.09375 26.1875 9.296875 31.390625 11.90625 35.890625 
C 13.90625 39.1875 17.796875 42.390625 22.90625 42.390625 
C 27.40625 42.390625 31.203125 39.890625 33.59375 36.390625 
C 36.703125 31.6875 36.703125 25.09375 36.703125 22 
C 36.703125 18.09375 36.5 12.09375 33.796875 7.296875 
C 31 2.6875 26.703125 0.796875 22.90625 0.796875 
z
" id="CMR17-111"/>
      <path d="M 41.5 30.53125 
C 41.5 35.65625 40.5 44 28.703125 44 
C 20.796875 44 16.703125 37.875 15.203125 33.84375 
L 15.09375 33.84375 
L 15.09375 44 
L 3.296875 42.890625 
L 3.296875 40.28125 
C 9.203125 40.28125 10.09375 39.6875 10.09375 34.859375 
L 10.09375 6.921875 
C 10.09375 3.09375 9.703125 2.59375 3.296875 2.59375 
L 3.296875 0 
C 5.703125 0.1875 10.09375 0.1875 12.703125 0.1875 
C 15.296875 0.1875 19.796875 0.1875 22.203125 0 
L 22.203125 2.59375 
C 15.796875 2.59375 15.40625 3 15.40625 6.921875 
L 15.40625 26.21875 
C 15.40625 35.453125 21 42.390625 28 42.390625 
C 35.40625 42.390625 36.203125 35.765625 36.203125 30.9375 
L 36.203125 6.921875 
C 36.203125 3.09375 35.796875 2.59375 29.40625 2.59375 
L 29.40625 0 
C 31.796875 0.1875 36.203125 0.1875 38.796875 0.1875 
C 41.40625 0.1875 45.90625 0.1875 48.296875 0 
L 48.296875 2.59375 
C 41.90625 2.59375 41.5 3 41.5 6.921875 
z
" id="CMR17-110"/>
      <path d="M 28.09375 66.484375 
C 28.203125 66.890625 28.40625 67.484375 28.40625 67.984375 
C 28.40625 69 27.40625 69 27.203125 69 
C 27.09375 69 23.5 68.6875 21.703125 68.484375 
C 20 68.390625 18.5 68.1875 16.703125 68.09375 
C 14.296875 67.890625 13.59375 67.796875 13.59375 65.984375 
C 13.59375 64.984375 14.59375 64.984375 15.59375 64.984375 
C 20.703125 64.984375 20.703125 64.109375 20.703125 63.125 
C 20.703125 62.71875 20.703125 62.53125 20.203125 60.75 
L 5.90625 3.90625 
C 5.5 2.390625 5.5 2.203125 5.5 1.59375 
C 5.5 -0.609375 7.203125 -1 8.203125 -1 
C 11 -1 11.59375 1.1875 12.40625 4.296875 
L 17.09375 23.0625 
C 24.296875 22.265625 28.59375 19.25 28.59375 14.4375 
C 28.59375 13.828125 28.59375 13.4375 28.296875 11.921875 
C 27.90625 10.421875 27.90625 9.21875 27.90625 8.71875 
C 27.90625 2.890625 31.703125 -1 36.796875 -1 
C 41.40625 -1 43.796875 3.203125 44.59375 4.609375 
C 46.703125 8.3125 48 13.9375 48 14.328125 
C 48 14.828125 47.59375 15.234375 47 15.234375 
C 46.09375 15.234375 46 14.828125 45.59375 13.234375 
C 44.203125 8.015625 42.09375 1 37 1 
C 35 1 33.703125 2 33.703125 5.8125 
C 33.703125 7.71875 34.09375 9.921875 34.5 11.421875 
C 34.90625 13.234375 34.90625 13.328125 34.90625 14.53125 
C 34.90625 20.453125 29.59375 23.765625 20.40625 24.96875 
C 24 27.171875 27.59375 31.078125 29 32.59375 
C 34.703125 38.984375 38.59375 41.984375 43.203125 41.984375 
C 45.5 41.984375 46.09375 41.484375 46.796875 41 
C 43.09375 40.59375 41.703125 37.984375 41.703125 35.984375 
C 41.703125 33.59375 43.59375 32.796875 45 32.796875 
C 47.703125 32.796875 50.09375 35.09375 50.09375 38.296875 
C 50.09375 41.15625 47.796875 44 43.296875 44 
C 37.796875 44 33.296875 40.296875 26.203125 32.296875 
C 25.203125 31.078125 21.5 27.28125 17.796875 25.875 
z
" id="CMMI12-107"/>
     </defs>
     <g transform="translate(196.885256 259.234175)scale(0.1 -0.1)">
      <use transform="scale(0.996264)" xlink:href="#CMR17-105"/>
      <use transform="translate(24.871058 0)scale(0.996264)" xlink:href="#CMR17-116"/>
      <use transform="translate(60.151826 0)scale(0.996264)" xlink:href="#CMR17-101"/>
      <use transform="translate(100.637487 0)scale(0.996264)" xlink:href="#CMR17-114"/>
      <use transform="translate(135.918255 0)scale(0.996264)" xlink:href="#CMR17-97"/>
      <use transform="translate(181.608732 0)scale(0.996264)" xlink:href="#CMR17-116"/>
      <use transform="translate(216.889499 0)scale(0.996264)" xlink:href="#CMR17-105"/>
      <use transform="translate(241.760558 0)scale(0.996264)" xlink:href="#CMR17-111"/>
      <use transform="translate(287.451035 0)scale(0.996264)" xlink:href="#CMR17-110"/>
      <use transform="translate(368.422371 0)scale(0.996264)" xlink:href="#CMMI12-107"/>
     </g>
    </g>
   </g>
   <g id="matplotlib.axis_2">
    <g id="ytick_1">
     <g id="line2d_19">
      <path clip-path="url(#pd1f5fdb3a3)" d="M 52.294451 232.46 
L 387.094451 232.46 
" style="fill:none;stroke:#b0b0b0;stroke-dasharray:0.8,1.32;stroke-dashoffset:0;stroke-width:0.8;"/>
     </g>
     <g id="line2d_20">
      <defs>
       <path d="M 0 0 
L -3.5 0 
" id="m3cdb2248a6" style="stroke:#000000;stroke-width:0.8;"/>
      </defs>
      <g>
       <use style="stroke:#000000;stroke-width:0.8;" x="52.294451" xlink:href="#m3cdb2248a6" y="232.46"/>
      </g>
     </g>
     <g id="text_11">
      <!-- $10^{-16}$ -->
      <defs>
       <path d="M 65.90625 23 
C 67.59375 23 69.40625 23 69.40625 25 
C 69.40625 27 67.59375 27 65.90625 27 
L 11.796875 27 
C 10.09375 27 8.296875 27 8.296875 25 
C 8.296875 23 10.09375 23 11.796875 23 
z
" id="CMSY10-0"/>
       <path d="M 10.59375 34.34375 
C 10.59375 58 21.796875 63.6875 28.296875 63.6875 
C 30.40625 63.6875 35.5 63.265625 37.5 59.09375 
C 35.90625 59.09375 32.90625 59.09375 32.90625 55.59375 
C 32.90625 52.890625 35.09375 52 36.5 52 
C 37.40625 52 40.09375 52.390625 40.09375 55.796875 
C 40.09375 62.296875 35.09375 66 28.203125 66 
C 16.296875 66 3.796875 53.296875 3.796875 31.421875 
C 3.796875 4.015625 15.09375 -2 23.09375 -2 
C 32.796875 -2 42 6.734375 42 20.234375 
C 42 32.828125 33.90625 42 23.703125 42 
C 17.59375 42 13.09375 37.96875 10.59375 30.921875 
z
M 23.09375 0.390625 
C 10.796875 0.390625 10.796875 18.9375 10.796875 22.65625 
C 10.796875 29.90625 14.203125 40.390625 23.5 40.390625 
C 25.203125 40.390625 30.09375 40.390625 33.40625 33.4375 
C 35.203125 29.515625 35.203125 25.375 35.203125 20.34375 
C 35.203125 14.90625 35.203125 10.875 33.09375 6.84375 
C 30.90625 2.703125 27.703125 0.390625 23.09375 0.390625 
z
" id="CMR17-54"/>
      </defs>
      <g transform="translate(21.16264 235.919249)scale(0.1 -0.1)">
       <use transform="scale(0.996264)" xlink:href="#CMR17-49"/>
       <use transform="translate(45.690477 0)scale(0.996264)" xlink:href="#CMR17-48"/>
       <use transform="translate(91.380954 36.153639)scale(0.697382)" xlink:href="#CMSY10-0"/>
       <use transform="translate(145.621947 36.153639)scale(0.697382)" xlink:href="#CMR17-49"/>
       <use transform="translate(177.605129 36.153639)scale(0.697382)" xlink:href="#CMR17-54"/>
      </g>
     </g>
    </g>
    <g id="ytick_2">
     <g id="line2d_21">
      <path clip-path="url(#pd1f5fdb3a3)" d="M 52.294451 205.900278 
L 387.094451 205.900278 
" style="fill:none;stroke:#b0b0b0;stroke-dasharray:0.8,1.32;stroke-dashoffset:0;stroke-width:0.8;"/>
     </g>
     <g id="line2d_22">
      <g>
       <use style="stroke:#000000;stroke-width:0.8;" x="52.294451" xlink:href="#m3cdb2248a6" y="205.900278"/>
      </g>
     </g>
     <g id="text_12">
      <!-- $10^{-14}$ -->
      <defs>
       <path d="M 33.59375 64.796875 
C 33.59375 66.890625 33.5 67 31.703125 67 
L 2 19.59375 
L 2 17 
L 27.796875 17 
L 27.796875 7.1875 
C 27.796875 3.59375 27.59375 2.59375 20.59375 2.59375 
L 18.703125 2.59375 
L 18.703125 0 
C 21.90625 0.1875 27.296875 0.1875 30.703125 0.1875 
C 34.09375 0.1875 39.5 0.1875 42.703125 0 
L 42.703125 2.59375 
L 40.796875 2.59375 
C 33.796875 2.59375 33.59375 3.59375 33.59375 7.1875 
L 33.59375 17 
L 43.796875 17 
L 43.796875 19.59375 
L 33.59375 19.59375 
z
M 28.09375 58.171875 
L 28.09375 19.59375 
L 4 19.59375 
z
" id="CMR17-52"/>
      </defs>
      <g transform="translate(21.16264 209.359527)scale(0.1 -0.1)">
       <use transform="scale(0.996264)" xlink:href="#CMR17-49"/>
       <use transform="translate(45.690477 0)scale(0.996264)" xlink:href="#CMR17-48"/>
       <use transform="translate(91.380954 36.153639)scale(0.697382)" xlink:href="#CMSY10-0"/>
       <use transform="translate(145.621947 36.153639)scale(0.697382)" xlink:href="#CMR17-49"/>
       <use transform="translate(177.605129 36.153639)scale(0.697382)" xlink:href="#CMR17-52"/>
      </g>
     </g>
    </g>
    <g id="ytick_3">
     <g id="line2d_23">
      <path clip-path="url(#pd1f5fdb3a3)" d="M 52.294451 179.340556 
L 387.094451 179.340556 
" style="fill:none;stroke:#b0b0b0;stroke-dasharray:0.8,1.32;stroke-dashoffset:0;stroke-width:0.8;"/>
     </g>
     <g id="line2d_24">
      <g>
       <use style="stroke:#000000;stroke-width:0.8;" x="52.294451" xlink:href="#m3cdb2248a6" y="179.340556"/>
      </g>
     </g>
     <g id="text_13">
      <!-- $10^{-12}$ -->
      <g transform="translate(21.16264 182.799805)scale(0.1 -0.1)">
       <use transform="scale(0.996264)" xlink:href="#CMR17-49"/>
       <use transform="translate(45.690477 0)scale(0.996264)" xlink:href="#CMR17-48"/>
       <use transform="translate(91.380954 36.153639)scale(0.697382)" xlink:href="#CMSY10-0"/>
       <use transform="translate(145.621947 36.153639)scale(0.697382)" xlink:href="#CMR17-49"/>
       <use transform="translate(177.605129 36.153639)scale(0.697382)" xlink:href="#CMR17-50"/>
      </g>
     </g>
    </g>
    <g id="ytick_4">
     <g id="line2d_25">
      <path clip-path="url(#pd1f5fdb3a3)" d="M 52.294451 152.780834 
L 387.094451 152.780834 
" style="fill:none;stroke:#b0b0b0;stroke-dasharray:0.8,1.32;stroke-dashoffset:0;stroke-width:0.8;"/>
     </g>
     <g id="line2d_26">
      <g>
       <use style="stroke:#000000;stroke-width:0.8;" x="52.294451" xlink:href="#m3cdb2248a6" y="152.780834"/>
      </g>
     </g>
     <g id="text_14">
      <!-- $10^{-10}$ -->
      <g transform="translate(21.16264 156.240083)scale(0.1 -0.1)">
       <use transform="scale(0.996264)" xlink:href="#CMR17-49"/>
       <use transform="translate(45.690477 0)scale(0.996264)" xlink:href="#CMR17-48"/>
       <use transform="translate(91.380954 36.153639)scale(0.697382)" xlink:href="#CMSY10-0"/>
       <use transform="translate(145.621947 36.153639)scale(0.697382)" xlink:href="#CMR17-49"/>
       <use transform="translate(177.605129 36.153639)scale(0.697382)" xlink:href="#CMR17-48"/>
      </g>
     </g>
    </g>
    <g id="ytick_5">
     <g id="line2d_27">
      <path clip-path="url(#pd1f5fdb3a3)" d="M 52.294451 126.221112 
L 387.094451 126.221112 
" style="fill:none;stroke:#b0b0b0;stroke-dasharray:0.8,1.32;stroke-dashoffset:0;stroke-width:0.8;"/>
     </g>
     <g id="line2d_28">
      <g>
       <use style="stroke:#000000;stroke-width:0.8;" x="52.294451" xlink:href="#m3cdb2248a6" y="126.221112"/>
      </g>
     </g>
     <g id="text_15">
      <!-- $10^{-8}$ -->
      <defs>
       <path d="M 27.203125 35.765625 
C 33.5 38.96875 39.90625 43.796875 39.90625 51.53125 
C 39.90625 60.6875 31.09375 66 23 66 
C 13.90625 66 5.90625 59.375 5.90625 50.234375 
C 5.90625 47.71875 6.5 43.390625 10.40625 39.578125 
C 11.40625 38.578125 15.59375 35.5625 18.296875 33.65625 
C 13.796875 31.34375 3.296875 25.8125 3.296875 14.765625 
C 3.296875 4.40625 13.09375 -2 22.796875 -2 
C 33.5 -2 42.5 5.71875 42.5 15.96875 
C 42.5 25.109375 36.40625 29.328125 32.40625 32.046875 
z
M 14.09375 44.609375 
C 13.296875 45.109375 9.296875 48.21875 9.296875 52.9375 
C 9.296875 59.078125 15.59375 63.6875 22.796875 63.6875 
C 30.703125 63.6875 36.5 58.0625 36.5 51.53125 
C 36.5 42.1875 26.09375 36.859375 25.59375 36.859375 
C 25.5 36.859375 25.40625 36.859375 24.59375 37.46875 
z
M 32.5 24 
C 34 22.90625 38.796875 19.578125 38.796875 13.453125 
C 38.796875 6.015625 31.40625 0.390625 23 0.390625 
C 13.90625 0.390625 7 6.921875 7 14.859375 
C 7 22.796875 13.09375 29.4375 20 32.546875 
z
" id="CMR17-56"/>
      </defs>
      <g transform="translate(25.133878 129.680361)scale(0.1 -0.1)">
       <use transform="scale(0.996264)" xlink:href="#CMR17-49"/>
       <use transform="translate(45.690477 0)scale(0.996264)" xlink:href="#CMR17-48"/>
       <use transform="translate(91.380954 36.153639)scale(0.697382)" xlink:href="#CMSY10-0"/>
       <use transform="translate(145.621947 36.153639)scale(0.697382)" xlink:href="#CMR17-56"/>
      </g>
     </g>
    </g>
    <g id="ytick_6">
     <g id="line2d_29">
      <path clip-path="url(#pd1f5fdb3a3)" d="M 52.294451 99.66139 
L 387.094451 99.66139 
" style="fill:none;stroke:#b0b0b0;stroke-dasharray:0.8,1.32;stroke-dashoffset:0;stroke-width:0.8;"/>
     </g>
     <g id="line2d_30">
      <g>
       <use style="stroke:#000000;stroke-width:0.8;" x="52.294451" xlink:href="#m3cdb2248a6" y="99.66139"/>
      </g>
     </g>
     <g id="text_16">
      <!-- $10^{-6}$ -->
      <g transform="translate(25.133878 103.120639)scale(0.1 -0.1)">
       <use transform="scale(0.996264)" xlink:href="#CMR17-49"/>
       <use transform="translate(45.690477 0)scale(0.996264)" xlink:href="#CMR17-48"/>
       <use transform="translate(91.380954 36.153639)scale(0.697382)" xlink:href="#CMSY10-0"/>
       <use transform="translate(145.621947 36.153639)scale(0.697382)" xlink:href="#CMR17-54"/>
      </g>
     </g>
    </g>
    <g id="ytick_7">
     <g id="line2d_31">
      <path clip-path="url(#pd1f5fdb3a3)" d="M 52.294451 73.101668 
L 387.094451 73.101668 
" style="fill:none;stroke:#b0b0b0;stroke-dasharray:0.8,1.32;stroke-dashoffset:0;stroke-width:0.8;"/>
     </g>
     <g id="line2d_32">
      <g>
       <use style="stroke:#000000;stroke-width:0.8;" x="52.294451" xlink:href="#m3cdb2248a6" y="73.101668"/>
      </g>
     </g>
     <g id="text_17">
      <!-- $10^{-4}$ -->
      <g transform="translate(25.133878 76.560918)scale(0.1 -0.1)">
       <use transform="scale(0.996264)" xlink:href="#CMR17-49"/>
       <use transform="translate(45.690477 0)scale(0.996264)" xlink:href="#CMR17-48"/>
       <use transform="translate(91.380954 36.153639)scale(0.697382)" xlink:href="#CMSY10-0"/>
       <use transform="translate(145.621947 36.153639)scale(0.697382)" xlink:href="#CMR17-52"/>
      </g>
     </g>
    </g>
    <g id="ytick_8">
     <g id="line2d_33">
      <path clip-path="url(#pd1f5fdb3a3)" d="M 52.294451 46.541946 
L 387.094451 46.541946 
" style="fill:none;stroke:#b0b0b0;stroke-dasharray:0.8,1.32;stroke-dashoffset:0;stroke-width:0.8;"/>
     </g>
     <g id="line2d_34">
      <g>
       <use style="stroke:#000000;stroke-width:0.8;" x="52.294451" xlink:href="#m3cdb2248a6" y="46.541946"/>
      </g>
     </g>
     <g id="text_18">
      <!-- $10^{-2}$ -->
      <g transform="translate(25.133878 50.001196)scale(0.1 -0.1)">
       <use transform="scale(0.996264)" xlink:href="#CMR17-49"/>
       <use transform="translate(45.690477 0)scale(0.996264)" xlink:href="#CMR17-48"/>
       <use transform="translate(91.380954 36.153639)scale(0.697382)" xlink:href="#CMSY10-0"/>
       <use transform="translate(145.621947 36.153639)scale(0.697382)" xlink:href="#CMR17-50"/>
      </g>
     </g>
    </g>
    <g id="ytick_9">
     <g id="line2d_35">
      <path clip-path="url(#pd1f5fdb3a3)" d="M 52.294451 19.982224 
L 387.094451 19.982224 
" style="fill:none;stroke:#b0b0b0;stroke-dasharray:0.8,1.32;stroke-dashoffset:0;stroke-width:0.8;"/>
     </g>
     <g id="line2d_36">
      <g>
       <use style="stroke:#000000;stroke-width:0.8;" x="52.294451" xlink:href="#m3cdb2248a6" y="19.982224"/>
      </g>
     </g>
     <g id="text_19">
      <!-- $10^{0}$ -->
      <g transform="translate(31.360543 23.441474)scale(0.1 -0.1)">
       <use transform="scale(0.996264)" xlink:href="#CMR17-49"/>
       <use transform="translate(45.690477 0)scale(0.996264)" xlink:href="#CMR17-48"/>
       <use transform="translate(91.380954 36.153639)scale(0.697382)" xlink:href="#CMR17-48"/>
      </g>
     </g>
    </g>
    <g id="text_20">
     <!-- $A$-norm of error: $\| x-x_k \|_A$ -->
     <defs>
      <path d="M 17 11.25 
C 13.5 5.234375 10.09375 3.203125 5.296875 2.890625 
C 4.203125 2.796875 3.40625 2.796875 3.40625 1 
C 3.40625 0.390625 3.90625 0 4.59375 0 
C 6.40625 0 10.90625 0.1875 12.703125 0.1875 
C 15.59375 0.1875 18.796875 0 21.59375 0 
C 22.203125 0 23.40625 0 23.40625 1.890625 
C 23.40625 2.796875 22.59375 2.890625 22 2.890625 
C 19.703125 3.09375 17.796875 3.90625 17.796875 6.359375 
C 17.796875 7.78125 18.40625 8.90625 19.703125 11.15625 
L 27.296875 24 
L 52.796875 24 
C 52.90625 23.078125 52.90625 22.265625 53 21.34375 
C 53.296875 18.6875 54.5 8.09375 54.5 6.15625 
C 54.5 3.09375 49.40625 2.890625 47.796875 2.890625 
C 46.703125 2.890625 45.59375 2.890625 45.59375 1.09375 
C 45.59375 0 46.5 0 47.09375 0 
C 48.796875 0 50.796875 0.1875 52.5 0.1875 
L 58.203125 0.1875 
C 64.296875 0.1875 68.703125 0 68.796875 0 
C 69.5 0 70.59375 0 70.59375 1.890625 
C 70.59375 2.890625 69.703125 2.890625 68.203125 2.890625 
C 62.703125 2.890625 62.59375 3.8125 62.296875 6.875 
L 56.203125 68.796875 
C 56 70.796875 55.59375 71 54.5 71 
C 53.5 71 52.90625 70.796875 52 69.296875 
z
M 29 26.890625 
L 49.09375 59.859375 
L 52.5 26.890625 
z
" id="CMMI12-65"/>
      <path d="M 25.5 19.59375 
L 25.5 24 
L 0.40625 24 
L 0.40625 19.59375 
z
" id="CMR17-45"/>
      <path d="M 67.59375 30.53125 
C 67.59375 35.5625 66.703125 44 54.796875 44 
C 48 44 43.296875 39.375 41.5 33.953125 
L 41.40625 33.953125 
C 40.203125 42.1875 34.296875 44 28.703125 44 
C 20.796875 44 16.703125 37.875 15.203125 33.84375 
L 15.09375 33.84375 
L 15.09375 44 
L 3.296875 42.890625 
L 3.296875 40.28125 
C 9.203125 40.28125 10.09375 39.6875 10.09375 34.859375 
L 10.09375 6.921875 
C 10.09375 3.09375 9.703125 2.59375 3.296875 2.59375 
L 3.296875 0 
C 5.703125 0.1875 10.09375 0.1875 12.703125 0.1875 
C 15.296875 0.1875 19.796875 0.1875 22.203125 0 
L 22.203125 2.59375 
C 15.796875 2.59375 15.40625 3 15.40625 6.921875 
L 15.40625 26.21875 
C 15.40625 35.453125 21 42.390625 28 42.390625 
C 35.40625 42.390625 36.203125 35.765625 36.203125 30.9375 
L 36.203125 6.921875 
C 36.203125 3.09375 35.796875 2.59375 29.40625 2.59375 
L 29.40625 0 
C 31.796875 0.1875 36.203125 0.1875 38.796875 0.1875 
C 41.40625 0.1875 45.90625 0.1875 48.296875 0 
L 48.296875 2.59375 
C 41.90625 2.59375 41.5 3 41.5 6.921875 
L 41.5 26.21875 
C 41.5 35.453125 47.09375 42.390625 54.09375 42.390625 
C 61.5 42.390625 62.296875 35.765625 62.296875 30.9375 
L 62.296875 6.921875 
C 62.296875 3.09375 61.90625 2.59375 55.5 2.59375 
L 55.5 0 
C 57.90625 0.1875 62.296875 0.1875 64.90625 0.1875 
C 67.5 0.1875 72 0.1875 74.40625 0 
L 74.40625 2.59375 
C 68 2.59375 67.59375 3 67.59375 6.921875 
z
" id="CMR17-109"/>
      <path d="M 15.296875 40.390625 
L 26.703125 40.390625 
L 26.703125 43 
L 15.09375 43 
L 15.09375 55.296875 
C 15.09375 63.6875 19.296875 68.390625 23.59375 68.390625 
C 24.90625 68.390625 26.40625 68.171875 27.40625 67.796875 
C 26.59375 67.59375 24.5 66.890625 24.5 64.390625 
C 24.5 61.796875 26.5 61 27.90625 61 
C 29.296875 61 31.296875 61.796875 31.296875 64.390625 
C 31.296875 68.015625 27.703125 70 23.703125 70 
C 18 70 10.203125 65.796875 10.203125 55.09375 
L 10.203125 43 
L 2.203125 43 
L 2.203125 40.390625 
L 10.203125 40.390625 
L 10.203125 6.890625 
C 10.203125 3.09375 9.796875 2.59375 3.40625 2.59375 
L 3.40625 0 
C 5.796875 0.1875 10.40625 0.1875 13 0.1875 
C 15.90625 0.1875 21 0.1875 23.703125 0 
L 23.703125 2.59375 
C 16.5 2.59375 15.296875 2.59375 15.296875 7.09375 
z
" id="CMR17-102"/>
      <path d="M 16.59375 38.890625 
C 16.59375 41.390625 14.59375 43 12.5 43 
C 10.5 43 8.40625 41.390625 8.40625 38.890625 
C 8.40625 36.390625 10.40625 34.796875 12.5 34.796875 
C 14.5 34.796875 16.59375 36.390625 16.59375 38.890625 
z
M 16.59375 4.09375 
C 16.59375 6.59375 14.59375 8.1875 12.5 8.1875 
C 10.5 8.1875 8.40625 6.59375 8.40625 4.09375 
C 8.40625 1.59375 10.40625 0 12.5 0 
C 14.5 0 16.59375 1.59375 16.59375 4.09375 
z
" id="CMR17-58"/>
      <path d="M 17.203125 71.59375 
C 17.203125 73.1875 17.203125 75 15.203125 75 
C 13.203125 75 13.203125 72.796875 13.203125 71.296875 
L 13.203125 -21.3125 
C 13.203125 -22.90625 13.203125 -25 15.203125 -25 
C 17.203125 -25 17.203125 -23.203125 17.203125 -21.609375 
z
M 36.703125 71.296875 
C 36.703125 72.890625 36.703125 75 34.703125 75 
C 32.703125 75 32.703125 73.1875 32.703125 71.59375 
L 32.703125 -21.609375 
C 32.703125 -23.203125 32.703125 -25 34.703125 -25 
C 36.703125 -25 36.703125 -22.8125 36.703125 -21.3125 
z
" id="CMSY10-107"/>
      <path d="M 47.40625 41 
C 44.203125 40.390625 43 37.984375 43 36.09375 
C 43 33.6875 44.90625 32.890625 46.296875 32.890625 
C 49.296875 32.890625 51.40625 35.484375 51.40625 38.1875 
C 51.40625 42.09375 46.59375 44 42.40625 44 
C 36.296875 44 32.90625 38.296875 32 36.390625 
C 29.703125 43.59375 23.5 44 21.703125 44 
C 11.5 44 6.09375 31.140625 6.09375 28.890625 
C 6.09375 28.484375 6.5 27.96875 7.203125 27.96875 
C 8 27.96875 8.203125 28.578125 8.40625 28.984375 
C 11.796875 40.1875 18.5 41.984375 21.40625 41.984375 
C 25.90625 41.984375 26.796875 38.09375 26.796875 35.6875 
C 26.796875 33.484375 26.203125 31.140625 25 26.21875 
L 21.59375 12.15625 
C 20.09375 6.09375 17.203125 1 11.90625 1 
C 11.40625 1 8.90625 1 6.796875 1.96875 
C 10.40625 2.59375 11.203125 5.59375 11.203125 6.796875 
C 11.203125 8.796875 9.703125 10 7.796875 10 
C 5.40625 10 2.796875 7.890625 2.796875 4.6875 
C 2.796875 0.890625 7.5 -1 11.796875 -1 
C 16.59375 -1 20 2.390625 22.09375 6.484375 
C 23.703125 1 28.703125 -1 32.40625 -1 
C 42.59375 -1 48 11.734375 48 14 
C 48 14.515625 47.59375 14.921875 47 14.921875 
C 46.09375 14.921875 46 14.40625 45.703125 13.59375 
C 43 4.6875 37.203125 1 32.703125 1 
C 29.203125 1 27.296875 3.1875 27.296875 7.296875 
C 27.296875 9.484375 27.703125 11.125 29.296875 17.90625 
L 32.796875 31.859375 
C 34.296875 37.890625 37.703125 41.984375 42.296875 41.984375 
C 42.5 41.984375 45.296875 41.984375 47.40625 41 
z
" id="CMMI12-120"/>
     </defs>
     <g transform="translate(15.225462 182.035642)rotate(-90)scale(0.1 -0.1)">
      <use transform="translate(0 14.943915)scale(0.996264)" xlink:href="#CMMI12-65"/>
      <use transform="translate(73.127885 14.943915)scale(0.996264)" xlink:href="#CMR17-45"/>
      <use transform="translate(103.203852 14.943915)scale(0.996264)" xlink:href="#CMR17-110"/>
      <use transform="translate(154.099221 14.943915)scale(0.996264)" xlink:href="#CMR17-111"/>
      <use transform="translate(199.789699 14.943915)scale(0.996264)" xlink:href="#CMR17-114"/>
      <use transform="translate(235.070466 14.943915)scale(0.996264)" xlink:href="#CMR17-109"/>
      <use transform="translate(342.066023 14.943915)scale(0.996264)" xlink:href="#CMR17-111"/>
      <use transform="translate(387.7565 14.943915)scale(0.996264)" xlink:href="#CMR17-102"/>
      <use transform="translate(445.305978 14.943915)scale(0.996264)" xlink:href="#CMR17-101"/>
      <use transform="translate(485.791639 14.943915)scale(0.996264)" xlink:href="#CMR17-114"/>
      <use transform="translate(521.072407 14.943915)scale(0.996264)" xlink:href="#CMR17-114"/>
      <use transform="translate(556.353174 14.943915)scale(0.996264)" xlink:href="#CMR17-111"/>
      <use transform="translate(602.043652 14.943915)scale(0.996264)" xlink:href="#CMR17-114"/>
      <use transform="translate(637.324419 14.943915)scale(0.996264)" xlink:href="#CMR17-58"/>
      <use transform="translate(702.681138 14.943915)scale(0.996264)" xlink:href="#CMSY10-107"/>
      <use transform="translate(752.494521 14.943915)scale(0.996264)" xlink:href="#CMMI12-120"/>
      <use transform="translate(830.067788 14.943915)scale(0.996264)" xlink:href="#CMSY10-0"/>
      <use transform="translate(929.694462 14.943915)scale(0.996264)" xlink:href="#CMMI12-120"/>
      <use transform="translate(985.128522 0)scale(0.697382)" xlink:href="#CMMI12-107"/>
      <use transform="translate(1023.481904 14.943915)scale(0.996264)" xlink:href="#CMSY10-107"/>
      <use transform="translate(1073.295287 0)scale(0.697382)" xlink:href="#CMMI12-65"/>
     </g>
    </g>
   </g>
   <g id="line2d_37">
    <path clip-path="url(#pd1f5fdb3a3)" d="M 67.512633 19.982224 
L 69.042098 24.604557 
L 70.571564 27.776623 
L 72.101029 30.400198 
L 73.630495 31.791779 
L 75.15996 32.67463 
L 76.689426 34.163404 
L 78.218891 34.978755 
L 79.748357 35.371273 
L 81.277823 36.065069 
L 82.807288 36.844598 
L 84.336754 38.39749 
L 85.866219 38.871566 
L 87.395685 39.130366 
L 88.92515 40.086476 
L 90.454616 41.348942 
L 91.984081 42.258999 
L 93.513547 43.674581 
L 95.043012 45.04087 
L 96.572478 45.90466 
L 98.101943 48.053661 
L 99.631409 49.845743 
L 101.160874 51.931641 
L 102.69034 54.358609 
L 104.219805 57.592274 
L 105.749271 59.800868 
L 107.278736 64.064173 
L 108.808202 67.956705 
L 110.337667 71.902378 
L 111.867133 75.809274 
L 113.396598 82.14131 
L 114.926064 88.163766 
L 116.455529 94.063353 
L 117.984995 99.333356 
L 119.51446 106.646458 
L 121.043926 112.424898 
L 122.573391 119.381855 
L 124.102857 129.499811 
L 125.632322 137.762649 
L 127.161788 149.487225 
L 128.691253 159.850959 
L 130.220719 170.694778 
L 131.750184 179.752169 
L 133.27965 192.754456 
L 134.809115 207.993625 
L 136.338581 212.156693 
L 137.868046 212.107789 
L 139.397512 212.11312 
" style="fill:none;stroke:#93a1a1;stroke-dasharray:1.5,2.475;stroke-dashoffset:0;stroke-width:1.5;"/>
   </g>
   <g id="line2d_38">
    <path clip-path="url(#pd1f5fdb3a3)" d="M 67.512633 19.982224 
L 69.042098 24.604557 
L 70.571564 27.776623 
L 72.101029 30.400198 
L 73.630495 31.791779 
L 75.15996 32.67463 
L 76.689426 34.163404 
L 78.218891 34.978755 
L 79.748357 35.371273 
L 82.807288 36.844598 
L 84.336754 38.39749 
L 85.866219 38.871566 
L 87.395685 39.130366 
L 88.92515 40.086476 
L 90.454616 41.348942 
L 91.984081 42.258999 
L 95.043012 44.990663 
L 96.572478 45.07963 
L 98.101943 45.927006 
L 99.631409 48.00293 
L 101.160874 48.152497 
L 102.69034 49.90423 
L 104.219805 50.079369 
L 105.749271 52.066267 
L 107.278736 52.320444 
L 110.337667 56.469668 
L 111.867133 57.747919 
L 113.396598 58.002373 
L 114.926064 59.991658 
L 116.455529 60.279567 
L 117.984995 61.71242 
L 121.043926 66.791274 
L 122.573391 68.290132 
L 125.632322 68.799421 
L 127.161788 72.280205 
L 130.220719 75.939486 
L 131.750184 76.253493 
L 133.27965 76.371731 
L 134.809115 82.15513 
L 136.338581 82.308912 
L 137.868046 82.632912 
L 139.397512 83.940663 
L 140.926977 85.600323 
L 142.456443 88.853321 
L 143.985908 90.524288 
L 145.515374 91.632058 
L 147.044839 94.879991 
L 148.574305 95.26472 
L 150.10377 97.541015 
L 151.633236 98.368591 
L 153.162701 100.145521 
L 154.692167 100.177096 
L 156.221632 100.51878 
L 157.751098 104.92007 
L 159.280563 107.815681 
L 160.810029 107.856433 
L 162.339495 108.495755 
L 163.86896 110.066032 
L 165.398426 113.145657 
L 166.927891 113.814051 
L 168.457357 115.290925 
L 169.986822 120.733135 
L 171.516288 121.343975 
L 173.045753 121.383375 
L 174.575219 121.786559 
L 176.104684 124.421136 
L 177.63415 130.692243 
L 179.163615 131.219111 
L 180.693081 132.816123 
L 182.222546 133.346849 
L 183.752012 134.764689 
L 185.281477 137.907334 
L 186.810943 139.672384 
L 188.340408 139.767657 
L 189.869874 140.852774 
L 191.399339 147.138549 
L 192.928805 147.847181 
L 194.45827 151.93606 
L 195.987736 152.473992 
L 197.517201 153.923246 
L 199.046667 156.847766 
L 200.576132 159.531337 
L 202.105598 160.803454 
L 203.635063 163.164063 
L 205.164529 163.26351 
L 206.693994 167.047461 
L 208.22346 167.194907 
L 209.752925 171.90565 
L 211.282391 172.442723 
L 212.811856 173.917356 
L 214.341322 175.184143 
L 215.870787 175.363178 
L 217.400253 175.891578 
L 218.929718 176.966555 
L 220.459184 181.867115 
L 221.988649 184.551902 
L 223.518115 184.939353 
L 225.04758 191.304793 
L 226.577046 192.390975 
L 229.635977 196.928311 
L 231.165442 197.80057 
L 232.694908 199.366801 
L 234.224373 208.581491 
L 235.753839 209.216143 
L 237.283304 209.443186 
L 244.930632 209.737242 
L 260.225287 209.903133 
L 371.876269 209.903747 
L 371.876269 209.903747 
" style="fill:none;stroke:#93a1a1;stroke-linecap:square;stroke-width:1.5;"/>
    <defs>
     <path d="M 0 3 
C 0.795609 3 1.55874 2.683901 2.12132 2.12132 
C 2.683901 1.55874 3 0.795609 3 0 
C 3 -0.795609 2.683901 -1.55874 2.12132 -2.12132 
C 1.55874 -2.683901 0.795609 -3 0 -3 
C -0.795609 -3 -1.55874 -2.683901 -2.12132 -2.12132 
C -2.683901 -1.55874 -3 -0.795609 -3 0 
C -3 0.795609 -2.683901 1.55874 -2.12132 2.12132 
C -1.55874 2.683901 -0.795609 3 0 3 
z
" id="m316128f098" style="stroke:#93a1a1;"/>
    </defs>
    <g clip-path="url(#pd1f5fdb3a3)">
     <use style="fill:#93a1a1;stroke:#93a1a1;" x="67.512633" xlink:href="#m316128f098" y="19.982224"/>
     <use style="fill:#93a1a1;stroke:#93a1a1;" x="128.691253" xlink:href="#m316128f098" y="74.088382"/>
     <use style="fill:#93a1a1;stroke:#93a1a1;" x="189.869874" xlink:href="#m316128f098" y="140.852774"/>
     <use style="fill:#93a1a1;stroke:#93a1a1;" x="251.048494" xlink:href="#m316128f098" y="209.886852"/>
     <use style="fill:#93a1a1;stroke:#93a1a1;" x="312.227114" xlink:href="#m316128f098" y="209.903747"/>
    </g>
   </g>
   <g id="line2d_39">
    <path clip-path="url(#pd1f5fdb3a3)" d="M 67.512633 19.982224 
L 69.042098 24.604557 
L 70.571564 27.776623 
L 72.101029 30.400198 
L 73.630495 31.791779 
L 75.15996 32.67463 
L 76.689426 34.163404 
L 78.218891 34.978755 
L 79.748357 35.371273 
L 82.807288 36.844598 
L 84.336754 38.39749 
L 85.866219 38.871566 
L 87.395685 39.130366 
L 88.92515 40.086476 
L 90.454616 41.348942 
L 91.984081 42.258998 
L 93.513547 43.672611 
L 95.043012 44.066147 
L 96.572478 45.074515 
L 98.101943 45.927008 
L 99.631409 48.058035 
L 101.160874 48.165163 
L 102.69034 49.8693 
L 104.219805 49.964136 
L 105.749271 51.877747 
L 107.278736 52.139673 
L 108.808202 54.442777 
L 110.337667 54.530797 
L 111.867133 57.66312 
L 113.396598 57.812973 
L 114.926064 59.81867 
L 116.455529 60.009661 
L 122.573391 68.258678 
L 125.632322 68.55582 
L 127.161788 72.245838 
L 128.691253 72.43703 
L 131.750184 76.247242 
L 133.27965 76.317911 
L 134.809115 78.856505 
L 136.338581 79.711995 
L 137.868046 82.598527 
L 139.397512 82.849616 
L 140.926977 87.809785 
L 142.456443 88.7496 
L 145.515374 89.112404 
L 147.044839 94.223103 
L 148.574305 95.062244 
L 150.10377 95.102788 
L 151.633236 96.229948 
L 153.162701 98.363846 
L 154.692167 98.994801 
L 156.221632 100.298198 
L 157.751098 101.3064 
L 159.280563 107.52122 
L 160.810029 107.810645 
L 162.339495 107.863351 
L 163.86896 108.428728 
L 165.398426 113.446767 
L 166.927891 113.989412 
L 168.457357 114.21081 
L 169.986822 117.088257 
L 171.516288 119.690785 
L 173.045753 120.913072 
L 174.575219 121.165478 
L 177.63415 121.264688 
L 179.163615 122.519226 
L 180.693081 130.992731 
L 182.222546 131.201784 
L 183.752012 135.003833 
L 185.281477 135.94214 
L 186.810943 136.33811 
L 188.340408 138.792758 
L 189.869874 140.012662 
L 191.399339 140.523157 
L 192.928805 146.06304 
L 194.45827 146.667934 
L 195.987736 150.101425 
L 197.517201 150.502321 
L 199.046667 150.631064 
L 200.576132 152.682617 
L 202.105598 153.847439 
L 203.635063 155.237204 
L 205.164529 159.054793 
L 208.22346 163.588795 
L 211.282391 164.517272 
L 212.811856 164.637208 
L 214.341322 167.357322 
L 215.870787 171.45791 
L 217.400253 173.217214 
L 218.929718 175.55488 
L 220.459184 179.847583 
L 221.988649 179.973979 
L 223.518115 180.562962 
L 225.04758 183.946365 
L 226.577046 186.437447 
L 228.106511 187.071629 
L 229.635977 194.405634 
L 231.165442 196.844143 
L 232.694908 197.586004 
L 235.753839 199.391526 
L 237.283304 199.461336 
L 238.81277 202.600846 
L 240.342235 202.719346 
L 243.401167 203.719518 
L 244.930632 209.192389 
L 247.989563 209.192566 
L 251.048494 209.138646 
L 254.107425 209.230382 
L 261.754753 209.199827 
L 293.873528 209.205263 
L 371.876269 209.205263 
L 371.876269 209.205263 
" style="fill:none;stroke:#93a1a1;stroke-linecap:square;stroke-width:1.5;"/>
    <defs>
     <path d="M 0 -3 
L -3 3 
L 3 3 
z
" id="m2018c28a89" style="stroke:#93a1a1;stroke-linejoin:miter;"/>
    </defs>
    <g clip-path="url(#pd1f5fdb3a3)">
     <use style="fill:#93a1a1;stroke:#93a1a1;stroke-linejoin:miter;" x="82.807288" xlink:href="#m2018c28a89" y="36.844598"/>
     <use style="fill:#93a1a1;stroke:#93a1a1;stroke-linejoin:miter;" x="143.985908" xlink:href="#m2018c28a89" y="88.925686"/>
     <use style="fill:#93a1a1;stroke:#93a1a1;stroke-linejoin:miter;" x="205.164529" xlink:href="#m2018c28a89" y="159.054793"/>
     <use style="fill:#93a1a1;stroke:#93a1a1;stroke-linejoin:miter;" x="266.343149" xlink:href="#m2018c28a89" y="209.205263"/>
     <use style="fill:#93a1a1;stroke:#93a1a1;stroke-linejoin:miter;" x="327.52177" xlink:href="#m2018c28a89" y="209.205263"/>
    </g>
   </g>
   <g id="line2d_40">
    <path clip-path="url(#pd1f5fdb3a3)" d="M 67.512633 19.982224 
L 69.042098 24.604557 
L 70.571564 27.776623 
L 72.101029 30.400198 
L 73.630495 31.791779 
L 75.15996 32.67463 
L 76.689426 34.163404 
L 78.218891 34.978755 
L 79.748357 35.371273 
L 82.807288 36.844598 
L 84.336754 38.39749 
L 85.866219 38.871566 
L 87.395685 39.130366 
L 88.92515 40.086476 
L 90.454616 41.348942 
L 91.984081 42.258997 
L 93.513547 43.669963 
L 95.043012 43.90039 
L 96.572478 45.074474 
L 98.101943 45.926972 
L 99.631409 47.562063 
L 101.160874 48.146045 
L 102.69034 49.875951 
L 104.219805 49.968966 
L 105.749271 51.595253 
L 107.278736 52.136586 
L 108.808202 54.449193 
L 110.337667 54.586205 
L 111.867133 57.488109 
L 113.396598 57.806817 
L 114.926064 59.693181 
L 117.984995 60.087679 
L 119.51446 64.239674 
L 121.043926 64.569298 
L 122.573391 68.23085 
L 125.632322 68.471613 
L 127.161788 71.771356 
L 128.691253 72.322748 
L 130.220719 72.406154 
L 131.750184 74.074127 
L 133.27965 76.079204 
L 134.809115 76.363238 
L 136.338581 76.416601 
L 137.868046 81.533979 
L 139.397512 82.714862 
L 140.926977 82.776678 
L 142.456443 83.896743 
L 143.985908 88.817659 
L 145.515374 89.120579 
L 147.044839 89.196809 
L 148.574305 92.305318 
L 150.10377 93.40925 
L 151.633236 95.122997 
L 153.162701 95.14452 
L 154.692167 95.669547 
L 156.221632 99.424148 
L 159.280563 100.332645 
L 160.810029 102.33404 
L 162.339495 106.232989 
L 163.86896 107.058593 
L 165.398426 108.140706 
L 168.457357 108.283926 
L 169.986822 108.841197 
L 171.516288 111.688501 
L 173.045753 113.010036 
L 174.575219 113.419854 
L 176.104684 114.276206 
L 177.63415 114.535339 
L 179.163615 120.947793 
L 182.222546 121.408324 
L 183.752012 125.932816 
L 185.281477 126.783136 
L 186.810943 129.799941 
L 188.340408 130.352342 
L 189.869874 130.547823 
L 191.399339 131.13917 
L 192.928805 131.237141 
L 194.45827 133.552552 
L 195.987736 134.727516 
L 199.046667 136.170962 
L 200.576132 137.755701 
L 202.105598 140.38633 
L 203.635063 140.698724 
L 206.693994 140.875277 
L 208.22346 141.121922 
L 209.752925 144.604537 
L 211.282391 147.065679 
L 212.811856 148.256982 
L 214.341322 152.158475 
L 215.870787 152.799506 
L 217.400253 152.902577 
L 218.929718 153.139183 
L 220.459184 153.188549 
L 221.988649 153.818532 
L 223.518115 155.103695 
L 225.04758 157.454117 
L 228.106511 161.54937 
L 229.635977 161.871288 
L 231.165442 161.950756 
L 232.694908 164.230169 
L 237.283304 165.128365 
L 238.81277 165.317557 
L 240.342235 165.969324 
L 241.871701 167.29671 
L 243.401167 171.493246 
L 244.930632 172.81134 
L 246.460098 173.266537 
L 249.519029 176.324423 
L 252.57796 176.445469 
L 254.107425 176.732698 
L 255.636891 177.142205 
L 257.166356 180.034223 
L 261.754753 180.560777 
L 263.284218 186.144752 
L 264.813684 187.028569 
L 266.343149 187.380931 
L 267.872615 187.564576 
L 270.931546 187.723039 
L 272.461011 188.296417 
L 275.519942 188.895999 
L 277.049408 190.265819 
L 278.578873 190.504971 
L 280.108339 191.339984 
L 281.637804 194.274522 
L 283.16727 196.13606 
L 289.285132 198.334076 
L 290.814597 198.619665 
L 292.344063 199.118837 
L 293.873528 201.826251 
L 295.402994 202.161068 
L 296.932459 202.634986 
L 299.99139 202.806165 
L 303.050321 203.279034 
L 304.579787 203.887442 
L 306.109252 204.12634 
L 309.168183 205.047544 
L 310.697649 206.389663 
L 312.227114 207.445046 
L 313.75658 208.194339 
L 315.286045 208.749316 
L 316.815511 208.862815 
L 318.344976 209.10437 
L 325.992304 209.590828 
L 364.228942 209.534006 
L 371.876269 209.533546 
L 371.876269 209.533546 
" style="fill:none;stroke:#93a1a1;stroke-linecap:square;stroke-width:1.5;"/>
    <defs>
     <path d="M -0 3 
L 3 -3 
L -3 -3 
z
" id="me2986a2fe7" style="stroke:#93a1a1;stroke-linejoin:miter;"/>
    </defs>
    <g clip-path="url(#pd1f5fdb3a3)">
     <use style="fill:#93a1a1;stroke:#93a1a1;stroke-linejoin:miter;" x="98.101943" xlink:href="#me2986a2fe7" y="45.926972"/>
     <use style="fill:#93a1a1;stroke:#93a1a1;stroke-linejoin:miter;" x="159.280563" xlink:href="#me2986a2fe7" y="100.332645"/>
     <use style="fill:#93a1a1;stroke:#93a1a1;stroke-linejoin:miter;" x="220.459184" xlink:href="#me2986a2fe7" y="153.188549"/>
     <use style="fill:#93a1a1;stroke:#93a1a1;stroke-linejoin:miter;" x="281.637804" xlink:href="#me2986a2fe7" y="194.274522"/>
     <use style="fill:#93a1a1;stroke:#93a1a1;stroke-linejoin:miter;" x="342.816425" xlink:href="#me2986a2fe7" y="209.520655"/>
    </g>
   </g>
   <g id="line2d_41">
    <path clip-path="url(#pd1f5fdb3a3)" d="M 67.512633 19.982224 
L 69.042098 24.604557 
L 70.571564 27.776623 
L 72.101029 30.400198 
L 73.630495 31.791779 
L 75.15996 32.67463 
L 76.689426 34.163404 
L 78.218891 34.978755 
L 79.748357 35.371273 
L 82.807288 36.844598 
L 84.336754 38.39749 
L 85.866219 38.871566 
L 87.395685 39.130366 
L 88.92515 40.086476 
L 90.454616 41.348942 
L 91.984081 42.258999 
L 93.513547 43.674498 
L 95.043012 44.895713 
L 96.572478 45.076107 
L 98.101943 45.92699 
L 99.631409 47.7773 
L 101.160874 48.146906 
L 102.69034 49.592224 
L 104.219805 49.952966 
L 105.749271 51.62825 
L 107.278736 52.136691 
L 108.808202 53.993414 
L 110.337667 54.498918 
L 111.867133 57.341122 
L 113.396598 57.805358 
L 114.926064 57.940151 
L 116.455529 59.240496 
L 117.984995 60.078075 
L 119.51446 63.134579 
L 121.043926 64.296251 
L 122.573391 64.597958 
L 124.102857 66.20291 
L 125.632322 68.397537 
L 127.161788 69.051894 
L 128.691253 71.350087 
L 130.220719 72.398566 
L 131.750184 72.581899 
L 133.27965 75.146609 
L 134.809115 75.6464 
L 136.338581 76.39556 
L 137.868046 76.898321 
L 139.397512 81.89606 
L 140.926977 82.678992 
L 143.985908 83.0039 
L 145.515374 84.305542 
L 147.044839 88.962163 
L 150.10377 89.110874 
L 151.633236 89.931294 
L 153.162701 91.685027 
L 154.692167 94.888594 
L 156.221632 95.140068 
L 157.751098 95.524796 
L 159.280563 95.780701 
L 160.810029 99.447047 
L 162.339495 100.404318 
L 165.398426 100.664085 
L 166.927891 100.793364 
L 168.457357 106.090243 
L 169.986822 108.224115 
L 171.516288 108.447236 
L 173.045753 108.936707 
L 176.104684 110.381043 
L 177.63415 113.225274 
L 179.163615 114.089274 
L 182.222546 114.347393 
L 183.752012 114.739558 
L 185.281477 115.258336 
L 186.810943 116.147042 
L 188.340408 119.579886 
L 189.869874 121.956293 
L 191.399339 122.106117 
L 192.928805 122.812179 
L 195.987736 123.729439 
L 197.517201 124.552928 
L 199.046667 125.06089 
L 200.576132 130.152313 
L 202.105598 131.372212 
L 203.635063 131.648064 
L 208.22346 131.913203 
L 209.752925 133.736626 
L 211.282391 134.893198 
L 212.811856 135.113465 
L 214.341322 137.124457 
L 215.870787 141.090773 
L 217.400253 141.790902 
L 218.929718 141.859831 
L 221.988649 142.431748 
L 225.04758 143.713299 
L 226.577046 144.232468 
L 228.106511 145.496212 
L 229.635977 147.244871 
L 231.165442 150.711394 
L 232.694908 150.935543 
L 234.224373 153.092674 
L 237.283304 153.247432 
L 240.342235 153.444442 
L 243.401167 153.920944 
L 244.930632 155.441371 
L 254.107425 155.7391 
L 258.695822 155.767842 
L 263.284218 155.722434 
L 264.813684 155.375343 
L 267.872615 155.235835 
L 280.108339 155.014796 
L 283.16727 154.815079 
L 284.696735 154.63965 
L 286.226201 154.594792 
L 287.755666 153.782025 
L 289.285132 153.204385 
L 290.814597 151.143844 
L 292.344063 134.286117 
L 293.873528 150.143258 
L 295.402994 153.244245 
L 296.932459 161.484123 
L 298.461925 159.785925 
L 299.99139 158.96436 
L 301.520856 158.420273 
L 303.050321 158.29346 
L 304.579787 158.03323 
L 309.168183 157.611988 
L 312.227114 157.138428 
L 316.815511 156.93144 
L 318.344976 156.520554 
L 319.874442 156.306078 
L 321.403907 155.957932 
L 324.462838 154.959145 
L 327.52177 154.33662 
L 329.051235 153.794878 
L 330.580701 144.832539 
L 332.110166 157.2717 
L 333.639632 160.857691 
L 335.169097 159.5632 
L 338.228028 159.298725 
L 339.757494 158.055691 
L 344.34589 157.520602 
L 347.404821 157.383805 
L 350.463752 156.94956 
L 351.993218 156.187646 
L 353.522683 154.173592 
L 355.052149 152.582869 
L 356.581614 150.040271 
L 358.11108 153.558885 
L 359.640545 160.436165 
L 361.170011 161.46821 
L 362.699476 159.872158 
L 364.228942 159.508594 
L 365.758407 159.401271 
L 367.287873 159.112792 
L 370.346804 158.749853 
L 371.876269 158.45842 
L 371.876269 158.45842 
" style="fill:none;stroke:#93a1a1;stroke-linecap:square;stroke-width:1.5;"/>
    <defs>
     <path d="M -3 3 
L 3 3 
L 3 -3 
L -3 -3 
z
" id="m2a47f2d541" style="stroke:#93a1a1;stroke-linejoin:miter;"/>
    </defs>
    <g clip-path="url(#pd1f5fdb3a3)">
     <use style="fill:#93a1a1;stroke:#93a1a1;stroke-linejoin:miter;" x="113.396598" xlink:href="#m2a47f2d541" y="57.805358"/>
     <use style="fill:#93a1a1;stroke:#93a1a1;stroke-linejoin:miter;" x="174.575219" xlink:href="#m2a47f2d541" y="109.69092"/>
     <use style="fill:#93a1a1;stroke:#93a1a1;stroke-linejoin:miter;" x="235.753839" xlink:href="#m2a47f2d541" y="153.212223"/>
     <use style="fill:#93a1a1;stroke:#93a1a1;stroke-linejoin:miter;" x="296.932459" xlink:href="#m2a47f2d541" y="161.484123"/>
     <use style="fill:#93a1a1;stroke:#93a1a1;stroke-linejoin:miter;" x="358.11108" xlink:href="#m2a47f2d541" y="153.558885"/>
    </g>
   </g>
   <g id="line2d_42">
    <path clip-path="url(#pd1f5fdb3a3)" d="M 67.512633 19.982224 
L 69.042098 24.604557 
L 70.571564 27.776623 
L 72.101029 30.400198 
L 73.630495 31.791779 
L 75.15996 32.67463 
L 76.689426 34.163404 
L 78.218891 34.978755 
L 79.748357 35.371273 
L 82.807288 36.844598 
L 84.336754 38.39749 
L 85.866219 38.871566 
L 87.395685 39.130366 
L 88.92515 40.086476 
L 90.454616 41.348941 
L 91.984081 42.258898 
L 93.513547 43.48936 
L 95.043012 43.739294 
L 96.572478 45.074445 
L 98.101943 45.926894 
L 101.160874 48.145374 
L 102.69034 49.836006 
L 104.219805 49.958331 
L 105.749271 51.78055 
L 107.278736 52.137986 
L 108.808202 54.449839 
L 110.337667 54.569537 
L 111.867133 57.485801 
L 113.396598 57.735171 
L 114.926064 57.82999 
L 116.455529 59.991681 
L 117.984995 60.138535 
L 119.51446 64.178488 
L 121.043926 64.307781 
L 122.573391 66.867824 
L 124.102857 67.786768 
L 125.632322 68.400861 
L 127.161788 70.083205 
L 128.691253 72.060112 
L 130.220719 72.329548 
L 131.750184 72.421738 
L 133.27965 72.709438 
L 134.809115 76.265771 
L 136.338581 76.581253 
L 137.868046 81.276343 
L 139.397512 82.637135 
L 140.926977 82.888486 
L 142.456443 83.258825 
L 143.985908 88.65736 
L 148.574305 89.096602 
L 150.10377 92.709211 
L 151.633236 93.719654 
L 153.162701 94.945326 
L 154.692167 95.157186 
L 156.221632 95.708026 
L 157.751098 98.241097 
L 159.280563 99.728792 
L 160.810029 100.380055 
L 162.339495 100.706076 
L 163.86896 101.260179 
L 165.398426 102.564917 
L 166.927891 103.176106 
L 168.457357 106.101709 
L 169.986822 108.261962 
L 171.516288 108.877028 
L 173.045753 110.611113 
L 174.575219 112.721851 
L 176.104684 112.908632 
L 177.63415 114.267501 
L 179.163615 114.292777 
L 180.693081 116.174542 
L 182.222546 120.361025 
L 183.752012 121.102593 
L 185.281477 121.354929 
L 186.810943 122.208224 
L 188.340408 122.388813 
L 189.869874 127.358277 
L 191.399339 129.310705 
L 192.928805 130.362166 
L 195.987736 131.203583 
L 197.517201 131.224123 
L 199.046667 132.121408 
L 200.576132 134.265095 
L 202.105598 137.09895 
L 205.164529 138.48515 
L 206.693994 139.782387 
L 208.22346 140.610488 
L 212.811856 141.301529 
L 214.341322 142.183992 
L 215.870787 143.413226 
L 217.400253 143.724238 
L 218.929718 149.268709 
L 220.459184 151.43338 
L 221.988649 152.140732 
L 223.518115 153.132031 
L 225.04758 153.200625 
L 226.577046 155.073449 
L 228.106511 156.557657 
L 229.635977 157.522759 
L 231.165442 158.207052 
L 232.694908 158.436826 
L 234.224373 158.904736 
L 237.283304 161.755344 
L 238.81277 164.433 
L 240.342235 164.73205 
L 243.401167 164.878732 
L 244.930632 165.639908 
L 246.460098 166.611269 
L 247.989563 167.757943 
L 249.519029 172.887884 
L 251.048494 173.894308 
L 252.57796 174.282136 
L 254.107425 174.385818 
L 255.636891 175.064363 
L 257.166356 175.468276 
L 258.695822 176.823477 
L 260.225287 177.12318 
L 261.754753 178.06312 
L 263.284218 178.098315 
L 264.813684 178.263747 
L 266.343149 178.640028 
L 267.872615 178.901152 
L 269.40208 179.944696 
L 270.931546 182.745628 
L 272.461011 185.090003 
L 273.990477 185.492045 
L 275.519942 186.018402 
L 277.049408 186.2854 
L 278.578873 187.538446 
L 280.108339 187.848694 
L 286.226201 188.695665 
L 287.755666 189.744796 
L 289.285132 190.573046 
L 290.814597 191.05905 
L 295.402994 191.673839 
L 296.932459 192.237205 
L 298.461925 197.662346 
L 299.99139 200.499068 
L 304.579787 201.810317 
L 307.638718 202.128757 
L 309.168183 202.76995 
L 310.697649 202.968847 
L 312.227114 203.388683 
L 316.815511 204.087218 
L 318.344976 204.330441 
L 319.874442 204.901995 
L 327.52177 206.35053 
L 330.580701 207.038233 
L 333.639632 207.272831 
L 336.698563 208.390189 
L 338.228028 208.563875 
L 342.816425 209.537533 
L 355.052149 209.687624 
L 371.876269 209.698332 
L 371.876269 209.698332 
" style="fill:none;stroke:#073642;stroke-dasharray:1.5,2.475;stroke-dashoffset:0;stroke-width:1.5;"/>
   </g>
   <g id="line2d_43">
    <path clip-path="url(#pd1f5fdb3a3)" d="M 67.512633 19.982224 
L 69.042098 24.604557 
L 70.571564 27.776623 
L 72.101029 30.400198 
L 73.630495 31.791779 
L 75.15996 32.67463 
L 76.689426 34.163404 
L 78.218891 34.978755 
L 79.748357 35.371273 
L 82.807288 36.844598 
L 84.336754 38.39749 
L 85.866219 38.871566 
L 87.395685 39.130366 
L 88.92515 40.086476 
L 90.454616 41.348942 
L 91.984081 42.258999 
L 95.043012 45.03514 
L 96.572478 45.119245 
L 99.631409 46.802179 
L 101.160874 48.143242 
L 102.69034 48.566065 
L 104.219805 49.948691 
L 105.749271 50.158857 
L 107.278736 52.125443 
L 108.808202 52.39837 
L 111.867133 56.430782 
L 113.396598 57.683671 
L 116.455529 57.992912 
L 117.984995 60.063651 
L 119.51446 60.295251 
L 121.043926 64.19059 
L 122.573391 64.310853 
L 124.102857 65.033894 
L 125.632322 66.835435 
L 127.161788 68.410491 
L 128.691253 68.539856 
L 131.750184 69.184857 
L 133.27965 72.116286 
L 136.338581 73.106284 
L 137.868046 75.274715 
L 139.397512 76.523477 
L 140.926977 76.6201 
L 142.456443 78.196964 
L 143.985908 78.563789 
L 145.515374 80.399922 
L 147.044839 82.665226 
L 151.633236 83.385084 
L 153.162701 89.144845 
L 154.692167 89.234956 
L 156.221632 89.485209 
L 157.751098 89.903001 
L 159.280563 90.071183 
L 160.810029 93.767495 
L 162.339495 94.315814 
L 163.86896 95.206695 
L 165.398426 95.718961 
L 166.927891 95.882551 
L 168.457357 96.451936 
L 171.516288 100.385749 
L 174.575219 100.944655 
L 177.63415 101.209572 
L 179.163615 102.289452 
L 180.693081 104.75872 
L 182.222546 108.376256 
L 183.752012 108.669012 
L 185.281477 109.430676 
L 188.340408 109.712774 
L 189.869874 110.149746 
L 191.399339 111.968613 
L 192.928805 114.244354 
L 194.45827 114.981048 
L 197.517201 115.192361 
L 200.576132 115.468108 
L 202.105598 117.134105 
L 203.635063 119.122002 
L 205.164529 120.171874 
L 206.693994 122.036454 
L 208.22346 122.602425 
L 209.752925 122.803912 
L 211.282391 123.202781 
L 215.870787 123.596943 
L 217.400253 127.321729 
L 218.929718 128.086856 
L 220.459184 128.287002 
L 221.988649 129.848658 
L 223.518115 130.769282 
L 225.04758 131.945435 
L 226.577046 132.05514 
L 228.106511 132.393183 
L 231.165442 132.676906 
L 232.694908 133.058553 
L 234.224373 133.959124 
L 235.753839 134.192603 
L 238.81277 137.513565 
L 240.342235 139.362086 
L 241.871701 141.554361 
L 243.401167 141.928152 
L 244.930632 142.071666 
L 246.460098 142.430199 
L 251.048494 142.812835 
L 252.57796 143.404752 
L 254.107425 144.262884 
L 255.636891 145.500916 
L 257.166356 147.203386 
L 258.695822 147.485469 
L 260.225287 148.024203 
L 261.754753 148.419716 
L 263.284218 149.009404 
L 264.813684 149.32058 
L 266.343149 150.909471 
L 267.872615 151.86208 
L 278.578873 153.528872 
L 283.16727 153.709307 
L 284.696735 154.354156 
L 296.932459 155.862993 
L 303.050321 155.909775 
L 335.169097 155.691742 
L 364.228942 155.673978 
L 370.346804 155.673978 
L 370.346804 155.673978 
" style="fill:none;stroke:#6c71c4;stroke-linecap:square;stroke-width:1.5;"/>
   </g>
   <g id="line2d_44">
    <path clip-path="url(#pd1f5fdb3a3)" d="M 67.512633 19.982224 
L 69.042098 24.604557 
L 70.571564 27.776623 
L 72.101029 30.400198 
L 73.630495 31.791779 
L 75.15996 32.67463 
L 76.689426 34.163404 
L 78.218891 34.978755 
L 79.748357 35.371273 
L 82.807288 36.844598 
L 84.336754 38.39749 
L 85.866219 38.871566 
L 87.395685 39.130366 
L 88.92515 40.086476 
L 90.454616 41.348941 
L 91.984081 42.258888 
L 93.513547 43.473759 
L 95.043012 43.738928 
L 96.572478 45.074445 
L 99.631409 46.680026 
L 101.160874 48.129519 
L 102.69034 48.265141 
L 104.219805 49.931256 
L 105.749271 50.02768 
L 107.278736 52.132315 
L 108.808202 52.7309 
L 110.337667 54.335744 
L 111.867133 54.515129 
L 113.396598 56.57458 
L 114.926064 57.822835 
L 116.455529 58.829527 
L 117.984995 60.07769 
L 119.51446 63.981734 
L 121.043926 64.215922 
L 124.102857 64.393178 
L 125.632322 64.658868 
L 127.161788 66.879135 
L 128.691253 68.32637 
L 131.750184 68.679508 
L 133.27965 70.776768 
L 134.809115 72.552293 
L 136.338581 72.627224 
L 137.868046 76.143887 
L 139.397512 76.292429 
L 140.926977 76.572145 
L 143.985908 76.752572 
L 145.515374 80.99481 
L 147.044839 81.612067 
L 148.574305 82.944136 
L 150.10377 83.346554 
L 151.633236 83.489516 
L 153.162701 88.564383 
L 154.692167 89.047717 
L 156.221632 89.349495 
L 157.751098 90.644407 
L 159.280563 91.305733 
L 160.810029 92.253908 
L 162.339495 94.570889 
L 163.86896 95.478425 
L 166.927891 95.665049 
L 168.457357 95.735578 
L 171.516288 98.80887 
L 173.045753 99.739941 
L 174.575219 100.175683 
L 176.104684 100.837105 
L 177.63415 100.917052 
L 179.163615 101.324882 
L 180.693081 101.391542 
L 182.222546 102.30153 
L 183.752012 108.341559 
L 185.281477 108.665307 
L 186.810943 108.768238 
L 188.340408 109.141405 
L 189.869874 109.238995 
L 191.399339 109.568903 
L 192.928805 110.190752 
L 194.45827 110.484814 
L 195.987736 112.730534 
L 197.517201 114.291709 
L 199.046667 114.793727 
L 200.576132 115.046259 
L 203.635063 115.252945 
L 205.164529 117.785658 
L 206.693994 119.055288 
L 208.22346 120.747576 
L 209.752925 120.887195 
L 211.282391 121.491836 
L 212.811856 121.761502 
L 214.341322 122.402615 
L 215.870787 122.842746 
L 217.400253 123.439977 
L 218.929718 123.526736 
L 220.459184 123.754958 
L 221.988649 127.63748 
L 223.518115 129.518119 
L 226.577046 130.434731 
L 228.106511 130.658979 
L 229.635977 131.053516 
L 231.165442 132.245399 
L 234.224373 132.798645 
L 237.283304 133.686147 
L 238.81277 134.631909 
L 240.342235 135.374027 
L 241.871701 136.551232 
L 244.930632 139.660964 
L 247.989563 140.317895 
L 249.519029 140.954553 
L 251.048494 141.820525 
L 252.57796 142.38268 
L 255.636891 143.142957 
L 257.166356 143.214307 
L 260.225287 143.508353 
L 264.813684 144.842454 
L 266.343149 147.28064 
L 267.872615 148.118978 
L 269.40208 148.670661 
L 272.461011 150.814609 
L 273.990477 151.598137 
L 277.049408 152.758737 
L 284.696735 153.35967 
L 287.755666 153.561564 
L 292.344063 154.399627 
L 303.050321 155.050541 
L 306.109252 155.426016 
L 310.697649 155.803282 
L 316.815511 155.889887 
L 325.992304 155.926097 
L 353.522683 155.719949 
L 364.228942 155.665871 
L 371.876269 155.665875 
L 371.876269 155.665875 
" style="fill:none;stroke:#2aa198;stroke-linecap:square;stroke-width:1.5;"/>
   </g>
   <g id="line2d_45">
    <path clip-path="url(#pd1f5fdb3a3)" d="M 67.512633 19.982224 
L 69.042098 24.604557 
L 70.571564 27.776623 
L 72.101029 30.400198 
L 73.630495 31.791779 
L 75.15996 32.67463 
L 76.689426 34.163404 
L 78.218891 34.978755 
L 79.748357 35.371273 
L 82.807288 36.844598 
L 84.336754 38.39749 
L 85.866219 38.871566 
L 87.395685 39.130366 
L 88.92515 40.086476 
L 90.454616 41.348942 
L 91.984081 42.258997 
L 93.513547 43.670244 
L 95.043012 43.909688 
L 96.572478 45.074476 
L 98.101943 45.927009 
L 99.631409 48.088456 
L 101.160874 48.369749 
L 102.69034 49.808964 
L 104.219805 49.955647 
L 105.749271 52.017687 
L 107.278736 52.15311 
L 108.808202 54.424155 
L 110.337667 54.511822 
L 111.867133 57.46484 
L 113.396598 57.805824 
L 114.926064 57.898122 
L 116.455529 59.96121 
L 117.984995 60.099738 
L 119.51446 64.225791 
L 121.043926 64.35043 
L 122.573391 66.721498 
L 124.102857 68.375781 
L 125.632322 68.490898 
L 127.161788 72.159755 
L 130.220719 72.444271 
L 131.750184 73.902585 
L 133.27965 76.123255 
L 134.809115 76.383237 
L 136.338581 76.449755 
L 137.868046 82.550963 
L 139.397512 82.643549 
L 140.926977 82.853907 
L 142.456443 83.798892 
L 143.985908 87.808743 
L 145.515374 89.021272 
L 147.044839 89.402136 
L 148.574305 89.490281 
L 150.10377 90.029474 
L 151.633236 91.229051 
L 154.692167 99.042393 
L 156.221632 99.295495 
L 157.751098 99.982421 
L 159.280563 100.257343 
L 160.810029 100.379593 
L 162.339495 101.814033 
L 163.86896 107.056779 
L 165.398426 107.538709 
L 166.927891 108.21002 
L 168.457357 108.26066 
L 169.986822 108.892944 
L 171.516288 110.197254 
L 173.045753 110.582029 
L 174.575219 113.804437 
L 176.104684 114.245577 
L 177.63415 114.459311 
L 179.163615 114.817252 
L 180.693081 118.4873 
L 182.222546 120.164891 
L 185.281477 120.660729 
L 186.810943 121.957251 
L 188.340408 124.706028 
L 189.869874 125.822041 
L 191.399339 130.084621 
L 192.928805 131.130192 
L 195.987736 131.298126 
L 197.517201 131.388569 
L 199.046667 132.926881 
L 200.576132 133.167242 
L 202.105598 133.661197 
L 203.635063 135.060404 
L 205.164529 136.065797 
L 206.693994 138.247291 
L 208.22346 140.905414 
L 209.752925 140.927101 
L 211.282391 141.883109 
L 212.811856 143.637093 
L 214.341322 145.967357 
L 215.870787 149.158188 
L 217.400253 151.751596 
L 218.929718 152.541659 
L 220.459184 153.044352 
L 225.04758 153.296065 
L 226.577046 153.600296 
L 228.106511 155.447423 
L 229.635977 159.421559 
L 232.694908 160.022368 
L 234.224373 163.012456 
L 235.753839 163.889998 
L 237.283304 164.181861 
L 238.81277 164.683787 
L 243.401167 165.066132 
L 244.930632 165.834336 
L 247.989563 166.93995 
L 249.519029 168.341102 
L 251.048494 169.556781 
L 252.57796 170.35052 
L 254.107425 176.26241 
L 255.636891 176.351412 
L 257.166356 176.684755 
L 258.695822 176.750032 
L 261.754753 177.766705 
L 263.284218 178.773732 
L 267.872615 179.60216 
L 269.40208 181.257746 
L 270.931546 182.184304 
L 272.461011 184.165974 
L 273.990477 185.557924 
L 275.519942 186.002586 
L 277.049408 187.382825 
L 278.578873 188.03577 
L 283.16727 188.347997 
L 284.696735 188.812224 
L 286.226201 190.675937 
L 289.285132 191.429184 
L 290.814597 191.568178 
L 295.402994 193.961174 
L 296.932459 195.203154 
L 298.461925 195.888477 
L 299.99139 197.769388 
L 301.520856 198.74987 
L 303.050321 199.244376 
L 304.579787 199.462227 
L 310.697649 199.744132 
L 313.75658 199.844248 
L 322.933373 200.93775 
L 324.462838 201.273237 
L 329.051235 201.444733 
L 330.580701 201.624507 
L 336.698563 201.782235 
L 358.11108 201.974993 
L 371.876269 201.982619 
L 371.876269 201.982619 
" style="fill:none;stroke:#859900;stroke-dasharray:1.5,2.475;stroke-dashoffset:0;stroke-width:1.5;"/>
   </g>
   <g id="line2d_46">
    <path clip-path="url(#pd1f5fdb3a3)" d="M 67.512633 19.982224 
L 69.042098 24.604557 
L 70.571564 27.776623 
L 72.101029 30.400198 
L 73.630495 31.791779 
L 75.15996 32.67463 
L 76.689426 34.163404 
L 78.218891 34.978755 
L 79.748357 35.371273 
L 82.807288 36.844598 
L 84.336754 38.39749 
L 85.866219 38.871566 
L 87.395685 39.130366 
L 88.92515 40.086476 
L 90.454616 41.348941 
L 91.984081 42.258919 
L 93.513547 43.5226 
L 95.043012 43.740323 
L 96.572478 45.074445 
L 98.101943 45.92665 
L 99.631409 46.479168 
L 101.160874 48.144814 
L 102.69034 49.234814 
L 104.219805 49.951712 
L 105.749271 50.545333 
L 107.278736 52.135183 
L 108.808202 54.262867 
L 110.337667 54.500254 
L 111.867133 56.85961 
L 113.396598 57.528264 
L 114.926064 57.825559 
L 117.984995 62.007388 
L 119.51446 64.174482 
L 121.043926 64.304115 
L 122.573391 65.508631 
L 124.102857 68.27362 
L 125.632322 68.471756 
L 127.161788 70.196985 
L 128.691253 71.722267 
L 131.750184 72.410339 
L 133.27965 72.48187 
L 134.809115 75.576811 
L 136.338581 76.398793 
L 137.868046 77.034752 
L 139.397512 82.24239 
L 140.926977 82.753375 
L 142.456443 82.820503 
L 143.985908 87.625042 
L 147.044839 88.507959 
L 148.574305 89.064841 
L 150.10377 91.046452 
L 151.633236 92.78585 
L 153.162701 95.079309 
L 154.692167 95.127364 
L 156.221632 95.324091 
L 157.751098 96.731762 
L 159.280563 99.729484 
L 160.810029 100.332911 
L 162.339495 100.36591 
L 163.86896 102.083513 
L 166.927891 103.57699 
L 168.457357 104.63027 
L 169.986822 108.025885 
L 173.045753 108.445061 
L 176.104684 110.600263 
L 177.63415 110.791991 
L 179.163615 114.121394 
L 182.222546 114.434218 
L 183.752012 119.97514 
L 185.281477 121.621409 
L 192.928805 122.450171 
L 194.45827 127.053665 
L 195.987736 130.545607 
L 197.517201 130.881779 
L 200.576132 131.265421 
L 202.105598 131.297968 
L 203.635063 132.324609 
L 205.164529 132.441402 
L 206.693994 135.564412 
L 208.22346 137.396439 
L 209.752925 140.408146 
L 211.282391 140.67398 
L 212.811856 141.409719 
L 214.341322 141.520552 
L 217.400253 142.178758 
L 218.929718 143.463614 
L 220.459184 146.923093 
L 221.988649 148.943175 
L 223.518115 150.678946 
L 225.04758 152.016089 
L 228.106511 152.873342 
L 231.165442 153.195393 
L 232.694908 153.665207 
L 234.224373 155.035615 
L 235.753839 157.897874 
L 237.283304 159.011458 
L 238.81277 159.748523 
L 240.342235 162.715255 
L 241.871701 163.110137 
L 243.401167 164.561957 
L 251.048494 165.222641 
L 252.57796 166.161362 
L 254.107425 167.580194 
L 257.166356 169.705691 
L 258.695822 171.084341 
L 260.225287 173.383426 
L 261.754753 174.877804 
L 264.813684 175.354822 
L 267.872615 177.774852 
L 269.40208 177.965445 
L 272.461011 178.169573 
L 273.990477 178.855822 
L 275.519942 179.135974 
L 277.049408 180.367212 
L 278.578873 180.872078 
L 280.108339 181.213531 
L 281.637804 183.573538 
L 283.16727 186.697473 
L 284.696735 187.328284 
L 287.755666 187.552889 
L 289.285132 187.776472 
L 290.814597 188.65703 
L 296.932459 190.349634 
L 301.520856 190.855605 
L 303.050321 191.040666 
L 304.579787 192.379871 
L 306.109252 193.198005 
L 307.638718 197.361146 
L 309.168183 198.249818 
L 312.227114 199.299015 
L 316.815511 199.756834 
L 318.344976 199.995511 
L 332.110166 200.622067 
L 333.639632 200.875557 
L 335.169097 201.397038 
L 338.228028 201.736353 
L 358.11108 202.211988 
L 371.876269 202.213848 
L 371.876269 202.213848 
" style="fill:none;stroke:#073642;stroke-linecap:square;stroke-width:1.5;"/>
   </g>
   <g id="patch_3">
    <path d="M 52.294451 232.46 
L 52.294451 10.7 
" style="fill:none;stroke:#000000;stroke-linecap:square;stroke-linejoin:miter;stroke-width:0.8;"/>
   </g>
   <g id="patch_4">
    <path d="M 387.094451 232.46 
L 387.094451 10.7 
" style="fill:none;stroke:#000000;stroke-linecap:square;stroke-linejoin:miter;stroke-width:0.8;"/>
   </g>
   <g id="patch_5">
    <path d="M 52.294451 232.46 
L 387.094451 232.46 
" style="fill:none;stroke:#000000;stroke-linecap:square;stroke-linejoin:miter;stroke-width:0.8;"/>
   </g>
   <g id="patch_6">
    <path d="M 52.294451 10.7 
L 387.094451 10.7 
" style="fill:none;stroke:#000000;stroke-linecap:square;stroke-linejoin:miter;stroke-width:0.8;"/>
   </g>
   <g id="legend_1">
    <g id="patch_7">
     <path d="M 394.094451 158.071783 
L 485.150183 158.071783 
Q 487.150183 158.071783 487.150183 156.071783 
L 487.150183 17.7 
Q 487.150183 15.7 485.150183 15.7 
L 394.094451 15.7 
Q 392.094451 15.7 392.094451 17.7 
L 392.094451 156.071783 
Q 392.094451 158.071783 394.094451 158.071783 
z
" style="fill:#ffffff;opacity:0.8;stroke:#cccccc;stroke-linejoin:miter;"/>
    </g>
    <g id="line2d_47">
     <path d="M 396.094451 23.2 
L 416.094451 23.2 
" style="fill:none;stroke:#073642;stroke-linecap:square;stroke-width:1.5;"/>
    </g>
    <g id="line2d_48"/>
    <g id="text_21">
     <!-- \textsc{{PPR-CG}} -->
     <defs>
      <path d="M 43 31.390625 
C 55.203125 31.390625 66.90625 39.171875 66.90625 49.4375 
C 66.90625 59.3125 56.296875 68 42.203125 68 
L 5.703125 68 
L 5.703125 64.890625 
L 8.09375 64.890625 
C 15.796875 64.890625 16 63.796875 16 60.203125 
L 16 7.765625 
C 16 4.1875 15.796875 3.09375 8.09375 3.09375 
L 5.703125 3.09375 
L 5.703125 0 
C 9.203125 0.296875 16.59375 0.296875 20.40625 0.296875 
C 24.203125 0.296875 31.703125 0.296875 35.203125 0 
L 35.203125 3.09375 
L 32.796875 3.09375 
C 25.09375 3.09375 24.90625 4.1875 24.90625 7.765625 
L 24.90625 31.390625 
z
M 24.59375 60.90625 
C 24.59375 64.1875 24.796875 64.890625 29.5 64.890625 
L 39.59375 64.890625 
C 56.59375 64.890625 56.59375 53.921875 56.59375 49.4375 
C 56.59375 45.15625 56.59375 34 39.59375 34 
L 24.59375 34 
z
" id="CMCSC10-80"/>
      <path d="M 24.59375 35.1875 
L 24.59375 60.921875 
C 24.59375 63.609375 24.796875 64.5 27.203125 64.796875 
C 28.09375 64.890625 31.203125 64.890625 33.203125 64.890625 
C 41.90625 64.890625 55.09375 64.890625 55.09375 50.09375 
C 55.09375 39.46875 48 35.1875 36.703125 35.1875 
z
M 47 33.890625 
C 59 36.78125 65.40625 43.34375 65.40625 50.09375 
C 65.40625 59.734375 53.203125 68 38.09375 68 
L 5.703125 68 
L 5.703125 64.890625 
L 8.09375 64.890625 
C 15.796875 64.890625 16 63.796875 16 60.21875 
L 16 7.921875 
C 16 4.359375 15.796875 3.265625 8.09375 3.265625 
L 5.703125 3.265625 
L 5.703125 0.1875 
C 9.296875 0.484375 16.40625 0.484375 20.296875 0.484375 
C 24.203125 0.484375 31.296875 0.484375 34.90625 0.1875 
L 34.90625 3.265625 
L 32.5 3.265625 
C 24.796875 3.265625 24.59375 4.359375 24.59375 7.921875 
L 24.59375 33 
L 37.09375 33 
C 42.5 33 45.703125 31.015625 47.40625 29.421875 
C 51.203125 25.75 51.203125 23.28125 51.203125 16.34375 
C 51.203125 9.5 51.203125 5.9375 55.5 2.078125 
C 59.203125 -1.109375 64.796875 -2 68.296875 -2 
C 76.296875 -2 78.203125 6.140625 78.203125 8.90625 
C 78.203125 9.5 78.203125 10.59375 76.90625 10.59375 
C 75.796875 10.59375 75.796875 9.703125 75.703125 9.015625 
C 74.90625 1.28125 70.796875 0.1875 68.703125 0.1875 
C 63.40625 0.1875 62.703125 4.65625 60.90625 16.140625 
C 59.796875 23.078125 59.40625 25.5625 56.203125 28.734375 
C 54.09375 30.90625 50.90625 32.796875 47 33.890625 
z
" id="CMCSC10-82"/>
      <path d="M 30.5 19 
L 30.5 24.796875 
L 2.59375 24.796875 
L 2.59375 19 
z
" id="CMCSC10-45"/>
      <path d="M 63.40625 62.0625 
C 60.09375 65.484375 54 71 43.703125 71 
C 24 71 7.203125 54.9375 7.203125 34.546875 
C 7.203125 14.046875 24 -2 43.796875 -2 
C 60.703125 -2 71.296875 11.640625 71.296875 23.59375 
C 71.296875 24.59375 71.296875 25.296875 70 25.296875 
C 68.90625 25.296875 68.90625 24.703125 68.796875 23.6875 
C 68 9.125 56.296875 1.09375 45.09375 1.09375 
C 36.296875 1.09375 17.5 6.3125 17.5 34.4375 
C 17.5 64.078125 38 67.890625 44.90625 67.890625 
C 55.59375 67.890625 65.796875 59.546875 68.09375 44.078125 
C 68.296875 42.671875 68.40625 42.375 69.703125 42.375 
C 71.296875 42.375 71.296875 42.671875 71.296875 44.78125 
L 71.296875 68.59375 
C 71.296875 70.296875 71.296875 71 70.203125 71 
C 69.796875 71 69.40625 71 68.59375 69.796875 
z
" id="CMCSC10-67"/>
      <path d="M 71.203125 68.59375 
C 71.203125 70.296875 71.203125 71 70.09375 71 
C 69.703125 71 69.296875 71 68.5 69.796875 
L 63.296875 62.125 
C 60.203125 65.109375 54.296875 71 43.703125 71 
C 23.796875 71 7.203125 54.859375 7.203125 34.859375 
C 7.203125 14.578125 23.59375 -2 43.90625 -2 
C 51.796875 -2 60.40625 0.59375 63.90625 6.609375 
C 65.203125 4.359375 69.203125 0.296875 70.296875 0.296875 
C 71.203125 0.296875 71.203125 1.09375 71.203125 2.625 
L 71.203125 20.390625 
C 71.203125 24.890625 72.296875 24.890625 78.5 24.890625 
L 78.5 28 
C 73.703125 27.796875 70.09375 27.6875 65.796875 27.6875 
C 61.703125 27.6875 52.796875 27.6875 49.203125 28 
L 49.203125 24.890625 
L 52.703125 24.890625 
C 62.296875 24.890625 62.296875 23.46875 62.296875 19.984375 
L 62.296875 13.453125 
C 62.296875 1.09375 46.796875 1.09375 45.59375 1.09375 
C 36.5 1.09375 17.5 6.40625 17.5 34.859375 
C 17.5 63.015625 36.703125 67.890625 44.90625 67.890625 
C 55.5 67.890625 65.703125 59.734375 68 44.3125 
C 68.203125 42.921875 68.296875 42.625 69.59375 42.625 
C 71.203125 42.625 71.203125 42.921875 71.203125 45 
z
" id="CMCSC10-71"/>
     </defs>
     <g transform="translate(424.094451 26.7)scale(0.1 -0.1)">
      <use transform="scale(0.996264)" xlink:href="#CMCSC10-80"/>
      <use transform="translate(73.888826 0)scale(0.996264)" xlink:href="#CMCSC10-80"/>
      <use transform="translate(147.777651 0)scale(0.996264)" xlink:href="#CMCSC10-82"/>
      <use transform="translate(227.478027 0)scale(0.996264)" xlink:href="#CMCSC10-45"/>
      <use transform="translate(265.114311 0)scale(0.996264)" xlink:href="#CMCSC10-67"/>
      <use transform="translate(343.431036 0)scale(0.996264)" xlink:href="#CMCSC10-71"/>
     </g>
    </g>
    <g id="line2d_49">
     <path d="M 396.094451 37.137178 
L 416.094451 37.137178 
" style="fill:none;stroke:#859900;stroke-dasharray:1.5,2.475;stroke-dashoffset:0;stroke-width:1.5;"/>
    </g>
    <g id="line2d_50"/>
    <g id="text_22">
     <!-- \textsc{{PPR-M-CG}} -->
     <defs>
      <path d="M 74.40625 65.09375 
L 74.5 64.984375 
L 74.5 7.765625 
C 74.5 4.1875 74.296875 3.09375 66.59375 3.09375 
L 64.203125 3.09375 
L 64.203125 0 
C 67.90625 0.296875 74.703125 0.296875 78.59375 0.296875 
C 82.5 0.296875 89.203125 0.296875 92.90625 0 
L 92.90625 3.09375 
L 90.5 3.09375 
C 82.796875 3.09375 82.59375 4.1875 82.59375 7.765625 
L 82.59375 60.21875 
C 82.59375 63.796875 82.796875 64.890625 90.5 64.890625 
L 92.90625 64.890625 
L 92.90625 68 
L 76 68 
C 73.703125 68 73.40625 68 72.59375 66.09375 
L 49.40625 9.46875 
L 26.203125 66.1875 
C 25.5 68 24.90625 68 22.796875 68 
L 5.90625 68 
L 5.90625 64.890625 
L 8.296875 64.890625 
C 16 64.890625 16.203125 63.796875 16.203125 60.21875 
L 16.203125 10.453125 
C 16.203125 7.765625 16.203125 3.09375 5.90625 3.09375 
L 5.90625 0 
C 9.40625 0.09375 14.296875 0.296875 17.59375 0.296875 
C 20.90625 0.296875 25.796875 0.09375 29.296875 0 
L 29.296875 3.09375 
C 19 3.09375 19 7.765625 19 10.453125 
L 19 64.296875 
L 19.09375 64.390625 
L 44.703125 1.796875 
C 45.09375 0.890625 45.59375 0 46.59375 0 
C 47.59375 0 48.09375 0.890625 48.5 1.796875 
z
" id="CMCSC10-77"/>
     </defs>
     <g transform="translate(424.094451 40.637178)scale(0.1 -0.1)">
      <use transform="scale(0.996264)" xlink:href="#CMCSC10-80"/>
      <use transform="translate(73.888826 0)scale(0.996264)" xlink:href="#CMCSC10-80"/>
      <use transform="translate(147.777651 0)scale(0.996264)" xlink:href="#CMCSC10-82"/>
      <use transform="translate(227.478027 0)scale(0.996264)" xlink:href="#CMCSC10-45"/>
      <use transform="translate(265.114311 0)scale(0.996264)" xlink:href="#CMCSC10-77"/>
      <use transform="translate(363.632776 0)scale(0.996264)" xlink:href="#CMCSC10-45"/>
      <use transform="translate(401.26906 0)scale(0.996264)" xlink:href="#CMCSC10-67"/>
      <use transform="translate(479.585785 0)scale(0.996264)" xlink:href="#CMCSC10-71"/>
     </g>
    </g>
    <g id="line2d_51">
     <path d="M 396.094451 51.074357 
L 416.094451 51.074357 
" style="fill:none;stroke:#2aa198;stroke-linecap:square;stroke-width:1.5;"/>
    </g>
    <g id="line2d_52"/>
    <g id="text_23">
     <!-- \textsc{{PP-CG}} -->
     <g transform="translate(424.094451 54.574357)scale(0.1 -0.1)">
      <use transform="scale(0.996264)" xlink:href="#CMCSC10-80"/>
      <use transform="translate(73.888826 0)scale(0.996264)" xlink:href="#CMCSC10-80"/>
      <use transform="translate(147.777651 0)scale(0.996264)" xlink:href="#CMCSC10-45"/>
      <use transform="translate(185.413935 0)scale(0.996264)" xlink:href="#CMCSC10-67"/>
      <use transform="translate(263.73066 0)scale(0.996264)" xlink:href="#CMCSC10-71"/>
     </g>
    </g>
    <g id="line2d_53">
     <path d="M 396.094451 65.011535 
L 416.094451 65.011535 
" style="fill:none;stroke:#6c71c4;stroke-linecap:square;stroke-width:1.5;"/>
    </g>
    <g id="line2d_54"/>
    <g id="text_24">
     <!-- \textsc{{P-M-CG}} -->
     <g transform="translate(424.094451 68.511535)scale(0.1 -0.1)">
      <use transform="scale(0.996264)" xlink:href="#CMCSC10-80"/>
      <use transform="translate(73.888826 0)scale(0.996264)" xlink:href="#CMCSC10-45"/>
      <use transform="translate(111.52511 0)scale(0.996264)" xlink:href="#CMCSC10-77"/>
      <use transform="translate(210.043574 0)scale(0.996264)" xlink:href="#CMCSC10-45"/>
      <use transform="translate(247.679858 0)scale(0.996264)" xlink:href="#CMCSC10-67"/>
      <use transform="translate(325.996583 0)scale(0.996264)" xlink:href="#CMCSC10-71"/>
     </g>
    </g>
    <g id="line2d_55">
     <path d="M 396.094451 78.948713 
L 416.094451 78.948713 
" style="fill:none;stroke:#073642;stroke-dasharray:1.5,2.475;stroke-dashoffset:0;stroke-width:1.5;"/>
    </g>
    <g id="line2d_56"/>
    <g id="text_25">
     <!-- \textsc{{PR-CG}} -->
     <g transform="translate(424.094451 82.448713)scale(0.1 -0.1)">
      <use transform="scale(0.996264)" xlink:href="#CMCSC10-80"/>
      <use transform="translate(73.888826 0)scale(0.996264)" xlink:href="#CMCSC10-82"/>
      <use transform="translate(153.589202 0)scale(0.996264)" xlink:href="#CMCSC10-45"/>
      <use transform="translate(191.225486 0)scale(0.996264)" xlink:href="#CMCSC10-67"/>
      <use transform="translate(269.54221 0)scale(0.996264)" xlink:href="#CMCSC10-71"/>
     </g>
    </g>
    <g id="line2d_57">
     <path d="M 396.094451 92.885892 
L 416.094451 92.885892 
" style="fill:none;stroke:#93a1a1;stroke-linecap:square;stroke-width:1.5;"/>
    </g>
    <g id="line2d_58">
     <g>
      <use style="fill:#93a1a1;stroke:#93a1a1;stroke-linejoin:miter;" x="406.094451" xlink:href="#m2a47f2d541" y="92.885892"/>
     </g>
    </g>
    <g id="text_26">
     <!-- \textsc{GV-CG} -->
     <defs>
      <path d="M 22.90625 60.328125 
C 22.703125 60.71875 22.40625 61.609375 22.40625 62.015625 
C 22.40625 64.890625 27.703125 64.890625 30.5 64.890625 
L 30.5 68 
C 27 67.6875 19.90625 67.6875 16.09375 67.6875 
C 11.296875 67.6875 7 67.890625 3.40625 68 
L 3.40625 64.890625 
C 11.09375 64.890625 11.90625 64.484375 13.296875 61.125 
L 38.203125 0 
C 38.796875 -1.40625 39 -2 40.59375 -2 
C 42.296875 -2 42.5 -1.5 43.09375 0 
L 66.796875 58.4375 
C 69.40625 64.890625 76 64.890625 77.90625 64.890625 
L 77.90625 68 
C 74.796875 67.796875 70.796875 67.6875 68.203125 67.6875 
C 65.203125 67.6875 59.40625 67.890625 56.796875 68 
L 56.796875 64.890625 
C 62.5 64.78125 63.90625 61.8125 63.90625 60.03125 
C 63.90625 59.53125 63.90625 59.328125 63.296875 58.046875 
L 43.59375 9.421875 
z
" id="CMCSC10-86"/>
     </defs>
     <g transform="translate(424.094451 96.385892)scale(0.1 -0.1)">
      <use transform="scale(0.996264)" xlink:href="#CMCSC10-71"/>
      <use transform="translate(84.820047 0)scale(0.996264)" xlink:href="#CMCSC10-86"/>
      <use transform="translate(165.904074 0)scale(0.996264)" xlink:href="#CMCSC10-45"/>
      <use transform="translate(203.540358 0)scale(0.996264)" xlink:href="#CMCSC10-67"/>
      <use transform="translate(281.857083 0)scale(0.996264)" xlink:href="#CMCSC10-71"/>
     </g>
    </g>
    <g id="line2d_59">
     <path d="M 396.094451 106.82307 
L 416.094451 106.82307 
" style="fill:none;stroke:#93a1a1;stroke-linecap:square;stroke-width:1.5;"/>
    </g>
    <g id="line2d_60">
     <g>
      <use style="fill:#93a1a1;stroke:#93a1a1;stroke-linejoin:miter;" x="406.094451" xlink:href="#me2986a2fe7" y="106.82307"/>
     </g>
    </g>
    <g id="text_27">
     <!-- \textsc{M-CG} -->
     <g transform="translate(424.094451 110.32307)scale(0.1 -0.1)">
      <use transform="scale(0.996264)" xlink:href="#CMCSC10-77"/>
      <use transform="translate(98.518465 0)scale(0.996264)" xlink:href="#CMCSC10-45"/>
      <use transform="translate(136.154749 0)scale(0.996264)" xlink:href="#CMCSC10-67"/>
      <use transform="translate(214.471474 0)scale(0.996264)" xlink:href="#CMCSC10-71"/>
     </g>
    </g>
    <g id="line2d_61">
     <path d="M 396.094451 120.760248 
L 416.094451 120.760248 
" style="fill:none;stroke:#93a1a1;stroke-linecap:square;stroke-width:1.5;"/>
    </g>
    <g id="line2d_62">
     <g>
      <use style="fill:#93a1a1;stroke:#93a1a1;stroke-linejoin:miter;" x="406.094451" xlink:href="#m2018c28a89" y="120.760248"/>
     </g>
    </g>
    <g id="text_28">
     <!-- \textsc{CG-CG} -->
     <g transform="translate(424.094451 124.260248)scale(0.1 -0.1)">
      <use transform="scale(0.996264)" xlink:href="#CMCSC10-67"/>
      <use transform="translate(78.316725 0)scale(0.996264)" xlink:href="#CMCSC10-71"/>
      <use transform="translate(163.136772 0)scale(0.996264)" xlink:href="#CMCSC10-45"/>
      <use transform="translate(200.773056 0)scale(0.996264)" xlink:href="#CMCSC10-67"/>
      <use transform="translate(279.089781 0)scale(0.996264)" xlink:href="#CMCSC10-71"/>
     </g>
    </g>
    <g id="line2d_63">
     <path d="M 396.094451 134.697427 
L 416.094451 134.697427 
" style="fill:none;stroke:#93a1a1;stroke-linecap:square;stroke-width:1.5;"/>
    </g>
    <g id="line2d_64">
     <g>
      <use style="fill:#93a1a1;stroke:#93a1a1;" x="406.094451" xlink:href="#m316128f098" y="134.697427"/>
     </g>
    </g>
    <g id="text_29">
     <!-- \textsc{HS-CG} -->
     <defs>
      <path d="M 56.59375 37 
L 24.703125 37 
L 24.703125 60.21875 
C 24.703125 63.796875 24.90625 64.890625 32.59375 64.890625 
L 35 64.890625 
L 35 68 
C 31.5 67.6875 24.09375 67.6875 20.296875 67.6875 
C 16.5 67.6875 9 67.6875 5.5 68 
L 5.5 64.890625 
L 7.90625 64.890625 
C 15.59375 64.890625 15.796875 63.796875 15.796875 60.21875 
L 15.796875 7.78125 
C 15.796875 4.1875 15.59375 3.09375 7.90625 3.09375 
L 5.5 3.09375 
L 5.5 0 
C 9 0.296875 16.40625 0.296875 20.203125 0.296875 
C 24 0.296875 31.5 0.296875 35 0 
L 35 3.09375 
L 32.59375 3.09375 
C 24.90625 3.09375 24.703125 4.1875 24.703125 7.78125 
L 24.703125 33.890625 
L 56.59375 33.890625 
L 56.59375 7.78125 
C 56.59375 4.1875 56.40625 3.09375 48.703125 3.09375 
L 46.296875 3.09375 
L 46.296875 0 
C 49.796875 0.296875 57.203125 0.296875 61 0.296875 
C 64.796875 0.296875 72.296875 0.296875 75.796875 0 
L 75.796875 3.09375 
L 73.40625 3.09375 
C 65.703125 3.09375 65.5 4.1875 65.5 7.78125 
L 65.5 60.21875 
C 65.5 63.796875 65.703125 64.890625 73.40625 64.890625 
L 75.796875 64.890625 
L 75.796875 68 
C 72.296875 67.6875 64.90625 67.6875 61.09375 67.6875 
C 57.296875 67.6875 49.796875 67.6875 46.296875 68 
L 46.296875 64.890625 
L 48.703125 64.890625 
C 56.40625 64.890625 56.59375 63.796875 56.59375 60.21875 
z
" id="CMCSC10-72"/>
      <path d="M 24.40625 42.375 
C 15.703125 44.484375 13.59375 51.421875 13.59375 55.03125 
C 13.59375 61.859375 19.296875 68.1875 27.796875 68.1875 
C 41.59375 68.1875 46.90625 58.046875 48.296875 47.796875 
C 48.5 46.5 48.5 46 49.59375 46 
C 50.90625 46 50.90625 46.5 50.90625 48.40625 
L 50.90625 68.59375 
C 50.90625 70.296875 50.90625 71 49.796875 71 
C 49.09375 71 49.09375 70.890625 48.296875 69.6875 
L 44.59375 63.765625 
C 41.90625 66.484375 37.296875 71 27.703125 71 
C 16.09375 71 7.203125 62.171875 7.203125 51.515625 
C 7.203125 45.09375 10.59375 40.5625 11.90625 39.0625 
C 16.59375 34.140625 19.59375 33.4375 27.90625 31.421875 
C 29.5 31.03125 31.203125 30.71875 32.796875 30.328125 
C 38.703125 28.921875 40.703125 28.421875 43.796875 25 
C 44.40625 24.296875 47.40625 20.875 47.40625 15.453125 
C 47.40625 8.328125 42.09375 1.09375 33 1.09375 
C 28.796875 1.09375 22.09375 1.890625 16.59375 6.21875 
C 10.09375 11.34375 9.796875 18.671875 9.703125 22.09375 
C 9.59375 22.796875 9 22.984375 8.5 22.984375 
C 7.203125 22.984375 7.203125 22.28125 7.203125 20.484375 
L 7.203125 0.390625 
C 7.203125 -1.3125 7.203125 -2 8.296875 -2 
C 9 -2 9.203125 -1.703125 9.796875 -0.8125 
L 13.5 5.203125 
C 16.296875 2.296875 22.796875 -2 33.09375 -2 
C 45.59375 -2 53.796875 8.125 53.796875 18.765625 
C 53.796875 26.8125 49 36.34375 38 39.0625 
z
" id="CMCSC10-83"/>
     </defs>
     <g transform="translate(424.094451 138.197427)scale(0.1 -0.1)">
      <use transform="scale(0.996264)" xlink:href="#CMCSC10-72"/>
      <use transform="translate(81.084027 0)scale(0.996264)" xlink:href="#CMCSC10-83"/>
      <use transform="translate(141.966208 0)scale(0.996264)" xlink:href="#CMCSC10-45"/>
      <use transform="translate(179.602492 0)scale(0.996264)" xlink:href="#CMCSC10-67"/>
      <use transform="translate(257.919217 0)scale(0.996264)" xlink:href="#CMCSC10-71"/>
     </g>
    </g>
    <g id="line2d_65">
     <path d="M 396.094451 148.634605 
L 416.094451 148.634605 
" style="fill:none;stroke:#93a1a1;stroke-dasharray:1.5,2.475;stroke-dashoffset:0;stroke-width:1.5;"/>
    </g>
    <g id="line2d_66"/>
    <g id="text_30">
     <!-- \textsc{EXACT-CG} -->
     <defs>
      <path d="M 64.09375 67.6875 
L 5.5 67.6875 
L 5.5 64.59375 
L 7.90625 64.59375 
C 15.59375 64.59375 15.796875 63.515625 15.796875 59.953125 
L 15.796875 7.8125 
C 15.796875 4.203125 15.59375 3.09375 7.90625 3.09375 
L 5.5 3.09375 
L 5.5 0 
L 65.59375 0 
L 69.796875 25.859375 
L 67.296875 25.859375 
C 64.796875 10.515625 62.40625 3.09375 44.703125 3.09375 
L 29.59375 3.09375 
C 24.90625 3.09375 24.703125 3.796875 24.703125 7.109375 
L 24.703125 33.890625 
L 34.5 33.890625 
C 44.40625 33.890625 45.796875 30.890625 45.796875 22.15625 
L 48.296875 22.15625 
L 48.296875 48.53125 
L 45.796875 48.53125 
C 45.796875 39.953125 44.40625 37 34.5 37 
L 24.703125 37 
L 24.703125 60.65625 
C 24.703125 63.90625 24.90625 64.59375 29.59375 64.59375 
L 43.90625 64.59375 
C 59.59375 64.59375 62.796875 59.5625 64.40625 45.46875 
L 66.90625 45.46875 
z
" id="CMCSC10-69"/>
      <path d="M 58.203125 58.625 
C 62.703125 64.890625 71 64.890625 73 64.890625 
L 73 68 
C 69.40625 67.890625 65.203125 67.6875 61.90625 67.6875 
C 58.203125 67.6875 52.703125 67.6875 49.09375 68 
L 49.09375 64.890625 
C 53.296875 64.796875 55 62.40625 55 60.515625 
C 55 60.015625 55 59.3125 53.90625 57.828125 
L 41.59375 40.90625 
L 27.5 60.515625 
C 26.796875 61.40625 26.796875 61.90625 26.796875 62 
C 26.796875 63.296875 29.296875 64.890625 33.09375 64.890625 
L 33.09375 68 
C 29.5 67.6875 22.203125 67.6875 18.296875 67.6875 
C 14.09375 67.6875 9.5 67.796875 5.296875 68 
L 5.296875 64.890625 
L 7.203125 64.890625 
C 13.40625 64.890625 14.90625 64 16.703125 61.40625 
L 36.40625 33.84375 
L 18.796875 9.46875 
C 14.296875 3.1875 6.40625 3.09375 3.90625 3.09375 
L 3.90625 0 
C 7.5 0.09375 11.703125 0.296875 15 0.296875 
C 19 0.296875 23.796875 0.296875 27.796875 0 
L 27.796875 3.09375 
C 23.296875 3.296875 21.90625 5.875 21.90625 7.46875 
C 21.90625 8.359375 22.203125 8.96875 22.90625 9.953125 
L 38.296875 31.15625 
L 55.09375 7.46875 
C 55.90625 6.375 55.90625 6.171875 55.90625 5.984375 
C 55.90625 5.078125 54.203125 3.1875 49.703125 3.09375 
L 49.703125 0 
C 53.203125 0.296875 60.59375 0.296875 64.40625 0.296875 
C 67.5 0.296875 73.703125 0.1875 77.40625 0 
L 77.40625 3.09375 
L 75.5 3.09375 
C 70.5 3.09375 68.203125 3.484375 65.90625 6.671875 
L 43.5 38.21875 
z
" id="CMCSC10-88"/>
      <path d="M 43.09375 69.796875 
C 42.40625 71.59375 42.296875 72 40.59375 72 
C 39 72 38.796875 71.390625 38.296875 70.09375 
L 16.203125 9.953125 
C 15.296875 7.671875 13.703125 3.1875 4.796875 3.09375 
L 4.796875 0 
C 6.90625 0.09375 10.90625 0.296875 14.90625 0.296875 
C 19.09375 0.296875 24.796875 0.09375 26.5 0 
L 26.5 3.09375 
C 21.40625 3.09375 19.09375 5.671875 19.09375 8.0625 
C 19.09375 8.671875 19.09375 8.859375 19.59375 10.0625 
L 24.40625 23 
L 51 23 
L 56.703125 7.765625 
C 57.203125 6.46875 57.203125 6.28125 57.203125 5.984375 
C 57.203125 3.09375 51.59375 3.09375 49 3.09375 
L 49 0 
C 52.59375 0.296875 59.59375 0.296875 63.40625 0.296875 
C 67.703125 0.296875 72.296875 0.1875 76.5 0 
L 76.5 3.09375 
L 74.703125 3.09375 
C 68.296875 3.09375 67.296875 3.984375 66.296875 6.78125 
z
M 49.90625 26.09375 
L 25.5 26.09375 
L 37.703125 59.46875 
z
" id="CMCSC10-65"/>
      <path d="M 71.40625 67.390625 
L 7.09375 67.390625 
L 5.203125 44.984375 
L 7.703125 44.984375 
C 9.09375 61.703125 11.09375 64.296875 26.796875 64.296875 
C 28.703125 64.296875 31.59375 64.296875 32.59375 64.09375 
C 34.796875 63.796875 34.796875 62.609375 34.796875 60.3125 
L 34.796875 7.875 
C 34.796875 4.484375 34.796875 3.09375 24.296875 3.09375 
L 20.296875 3.09375 
L 20.296875 0 
C 24.40625 0.296875 34.59375 0.296875 39.203125 0.296875 
C 43.796875 0.296875 54.09375 0.296875 58.203125 0 
L 58.203125 3.09375 
L 54.203125 3.09375 
C 43.703125 3.09375 43.703125 4.484375 43.703125 7.875 
L 43.703125 60.3125 
C 43.703125 62.609375 43.703125 63.796875 45.90625 64.09375 
C 46.90625 64.296875 49.796875 64.296875 51.703125 64.296875 
C 67.296875 64.296875 69.40625 61.703125 70.796875 44.984375 
L 73.296875 44.984375 
z
" id="CMCSC10-84"/>
     </defs>
     <g transform="translate(424.094451 152.134605)scale(0.1 -0.1)">
      <use transform="scale(0.996264)" xlink:href="#CMCSC10-69"/>
      <use transform="translate(73.888826 0)scale(0.996264)" xlink:href="#CMCSC10-88"/>
      <use transform="translate(154.972853 0)scale(0.996264)" xlink:href="#CMCSC10-65"/>
      <use transform="translate(233.151059 0)scale(0.996264)" xlink:href="#CMCSC10-67"/>
      <use transform="translate(311.467784 0)scale(0.996264)" xlink:href="#CMCSC10-84"/>
      <use transform="translate(389.784509 0)scale(0.996264)" xlink:href="#CMCSC10-45"/>
      <use transform="translate(427.420793 0)scale(0.996264)" xlink:href="#CMCSC10-67"/>
      <use transform="translate(505.737518 0)scale(0.996264)" xlink:href="#CMCSC10-71"/>
     </g>
    </g>
   </g>
  </g>
 </g>
 <defs>
  <clipPath id="pd1f5fdb3a3">
   <rect height="221.76" width="334.8" x="52.294451" y="10.7"/>
  </clipPath>
 </defs>
</svg>
