<?xml version="1.0" encoding="utf-8" standalone="no"?>
<!DOCTYPE svg PUBLIC "-//W3C//DTD SVG 1.1//EN"
  "http://www.w3.org/Graphics/SVG/1.1/DTD/svg11.dtd">
<!-- Created with matplotlib (https://matplotlib.org/) -->
<svg height="268.371353pt" version="1.1" viewBox="0 0 507.791371 268.371353" width="507.791371pt" xmlns="http://www.w3.org/2000/svg" xmlns:xlink="http://www.w3.org/1999/xlink">
 <defs>
  <style type="text/css">
*{stroke-linecap:butt;stroke-linejoin:round;}
  </style>
 </defs>
 <g id="figure_1">
  <g id="patch_1">
   <path d="M -0 268.371353 
L 507.791371 268.371353 
L 507.791371 0 
L -0 0 
z
" style="fill:#ffffff;"/>
  </g>
  <g id="axes_1">
   <g id="patch_2">
    <path d="M 52.294451 232.46 
L 387.094451 232.46 
L 387.094451 10.7 
L 52.294451 10.7 
z
" style="fill:#ffffff;"/>
   </g>
   <g id="matplotlib.axis_1">
    <g id="xtick_1">
     <g id="line2d_1">
      <path clip-path="url(#p8d7954bba3)" d="M 67.512633 232.46 
L 67.512633 10.7 
" style="fill:none;stroke:#b0b0b0;stroke-dasharray:0.8,1.32;stroke-dashoffset:0;stroke-width:0.8;"/>
     </g>
     <g id="line2d_2">
      <defs>
       <path d="M 0 0 
L 0 3.5 
" id="m306513f204" style="stroke:#000000;stroke-width:0.8;"/>
      </defs>
      <g>
       <use style="stroke:#000000;stroke-width:0.8;" x="67.512633" xlink:href="#m306513f204" y="232.46"/>
      </g>
     </g>
     <g id="text_1">
      <!-- $0$ -->
      <defs>
       <path d="M 42 31.84375 
C 42 37.96875 41.90625 48.421875 37.703125 56.453125 
C 34 63.484375 28.09375 66 22.90625 66 
C 18.09375 66 12 63.78125 8.203125 56.5625 
C 4.203125 49.015625 3.796875 39.671875 3.796875 31.84375 
C 3.796875 26.109375 3.90625 17.375 7 9.734375 
C 11.296875 -0.609375 19 -2 22.90625 -2 
C 27.5 -2 34.5 -0.109375 38.59375 9.4375 
C 41.59375 16.375 42 24.5 42 31.84375 
z
M 22.90625 -0.40625 
C 16.5 -0.40625 12.703125 5.125 11.296875 12.75 
C 10.203125 18.6875 10.203125 27.328125 10.203125 32.953125 
C 10.203125 40.6875 10.203125 47.109375 11.5 53.234375 
C 13.40625 61.78125 19 64.390625 22.90625 64.390625 
C 27 64.390625 32.296875 61.671875 34.203125 53.4375 
C 35.5 47.71875 35.59375 40.984375 35.59375 32.953125 
C 35.59375 26.421875 35.59375 18.375 34.40625 12.453125 
C 32.296875 1.5 26.40625 -0.40625 22.90625 -0.40625 
z
" id="CMR17-48"/>
      </defs>
      <g transform="translate(65.021965 246.378498)scale(0.1 -0.1)">
       <use transform="scale(0.996264)" xlink:href="#CMR17-48"/>
      </g>
     </g>
    </g>
    <g id="xtick_2">
     <g id="line2d_3">
      <path clip-path="url(#p8d7954bba3)" d="M 105.749271 232.46 
L 105.749271 10.7 
" style="fill:none;stroke:#b0b0b0;stroke-dasharray:0.8,1.32;stroke-dashoffset:0;stroke-width:0.8;"/>
     </g>
     <g id="line2d_4">
      <g>
       <use style="stroke:#000000;stroke-width:0.8;" x="105.749271" xlink:href="#m306513f204" y="232.46"/>
      </g>
     </g>
     <g id="text_2">
      <!-- $25$ -->
      <defs>
       <path d="M 41.703125 15.46875 
L 39.90625 15.46875 
C 38.90625 8.390625 38.09375 7.1875 37.703125 6.59375 
C 37.203125 5.796875 30 5.796875 28.59375 5.796875 
L 9.40625 5.796875 
C 13 9.6875 20 16.765625 28.5 24.9375 
C 34.59375 30.71875 41.703125 37.5 41.703125 47.390625 
C 41.703125 59.1875 32.296875 66 21.796875 66 
C 10.796875 66 4.09375 56.296875 4.09375 47.296875 
C 4.09375 43.390625 7 42.890625 8.203125 42.890625 
C 9.203125 42.890625 12.203125 43.484375 12.203125 46.984375 
C 12.203125 50.09375 9.59375 51 8.203125 51 
C 7.59375 51 7 50.890625 6.59375 50.6875 
C 8.5 59.1875 14.296875 63.390625 20.40625 63.390625 
C 29.09375 63.390625 34.796875 56.5 34.796875 47.390625 
C 34.796875 38.703125 29.703125 31.21875 24 24.734375 
L 4.09375 2.296875 
L 4.09375 0 
L 39.296875 0 
z
" id="CMR17-50"/>
       <path d="M 11.40625 58.59375 
C 12.40625 58.1875 16.5 56.890625 20.703125 56.890625 
C 30 56.890625 35.09375 61.890625 38 64.6875 
C 38 65.484375 38 66 37.40625 66 
C 37.296875 66 37.09375 66 36.296875 65.59375 
C 32.796875 64.09375 28.703125 63 23.703125 63 
C 20.703125 63 16.203125 63.359375 11.296875 65.484375 
C 10.203125 66 10 66 9.90625 66 
C 9.40625 66 9.296875 65.890625 9.296875 63.90625 
L 9.296875 34.859375 
C 9.296875 33.015625 9.296875 32.5 10.296875 32.5 
C 10.796875 32.5 11 32.703125 11.5 33.421875 
C 14.703125 38.046875 19.09375 40 24.09375 40 
C 27.59375 40 35.09375 37.734375 35.09375 20.203125 
C 35.09375 16.984375 35.09375 11.1875 32.09375 6.59375 
C 29.59375 2.484375 25.703125 0.390625 21.40625 0.390625 
C 14.796875 0.390625 8.09375 4.984375 6.296875 12.6875 
C 6.703125 12.59375 7.5 12.390625 7.90625 12.390625 
C 9.203125 12.390625 11.703125 13.09375 11.703125 16.1875 
C 11.703125 18.890625 9.796875 20 7.90625 20 
C 5.59375 20 4.09375 18.59375 4.09375 15.796875 
C 4.09375 7.09375 11 -2 21.59375 -2 
C 31.90625 -2 41.703125 6.890625 41.703125 19.796875 
C 41.703125 32.09375 33.90625 41.59375 24.203125 41.59375 
C 19.09375 41.59375 14.796875 39.6875 11.40625 36 
z
" id="CMR17-53"/>
      </defs>
      <g transform="translate(100.767935 246.378498)scale(0.1 -0.1)">
       <use transform="scale(0.996264)" xlink:href="#CMR17-50"/>
       <use transform="translate(45.690477 0)scale(0.996264)" xlink:href="#CMR17-53"/>
      </g>
     </g>
    </g>
    <g id="xtick_3">
     <g id="line2d_5">
      <path clip-path="url(#p8d7954bba3)" d="M 143.985908 232.46 
L 143.985908 10.7 
" style="fill:none;stroke:#b0b0b0;stroke-dasharray:0.8,1.32;stroke-dashoffset:0;stroke-width:0.8;"/>
     </g>
     <g id="line2d_6">
      <g>
       <use style="stroke:#000000;stroke-width:0.8;" x="143.985908" xlink:href="#m306513f204" y="232.46"/>
      </g>
     </g>
     <g id="text_3">
      <!-- $50$ -->
      <g transform="translate(139.004573 246.378498)scale(0.1 -0.1)">
       <use transform="scale(0.996264)" xlink:href="#CMR17-53"/>
       <use transform="translate(45.690477 0)scale(0.996264)" xlink:href="#CMR17-48"/>
      </g>
     </g>
    </g>
    <g id="xtick_4">
     <g id="line2d_7">
      <path clip-path="url(#p8d7954bba3)" d="M 182.222546 232.46 
L 182.222546 10.7 
" style="fill:none;stroke:#b0b0b0;stroke-dasharray:0.8,1.32;stroke-dashoffset:0;stroke-width:0.8;"/>
     </g>
     <g id="line2d_8">
      <g>
       <use style="stroke:#000000;stroke-width:0.8;" x="182.222546" xlink:href="#m306513f204" y="232.46"/>
      </g>
     </g>
     <g id="text_4">
      <!-- $75$ -->
      <defs>
       <path d="M 45.09375 61.796875 
L 45.09375 64 
L 21.59375 64 
C 9.90625 64 9.703125 65.09375 9.296875 67 
L 7.5 67 
L 4.59375 48.5 
L 6.40625 48.5 
C 6.703125 50.40625 7.40625 55.5 8.59375 57.390625 
C 9.203125 58.1875 16.59375 58.1875 18.296875 58.1875 
L 40.296875 58.1875 
L 29.203125 41.71875 
C 21.796875 30.640625 16.703125 15.671875 16.703125 2.59375 
C 16.703125 1.390625 16.703125 -2 20.296875 -2 
C 23.90625 -2 23.90625 1.390625 23.90625 2.6875 
L 23.90625 7.28125 
C 23.90625 23.65625 26.703125 34.4375 31.296875 41.3125 
z
" id="CMR17-55"/>
      </defs>
      <g transform="translate(177.241211 246.378498)scale(0.1 -0.1)">
       <use transform="scale(0.996264)" xlink:href="#CMR17-55"/>
       <use transform="translate(45.690477 0)scale(0.996264)" xlink:href="#CMR17-53"/>
      </g>
     </g>
    </g>
    <g id="xtick_5">
     <g id="line2d_9">
      <path clip-path="url(#p8d7954bba3)" d="M 220.459184 232.46 
L 220.459184 10.7 
" style="fill:none;stroke:#b0b0b0;stroke-dasharray:0.8,1.32;stroke-dashoffset:0;stroke-width:0.8;"/>
     </g>
     <g id="line2d_10">
      <g>
       <use style="stroke:#000000;stroke-width:0.8;" x="220.459184" xlink:href="#m306513f204" y="232.46"/>
      </g>
     </g>
     <g id="text_5">
      <!-- $100$ -->
      <defs>
       <path d="M 26.59375 63.796875 
C 26.59375 65.890625 26.5 66 25.09375 66 
C 21.203125 61.359375 15.296875 59.890625 9.703125 59.6875 
C 9.40625 59.6875 8.90625 59.6875 8.796875 59.5 
C 8.703125 59.296875 8.703125 59.09375 8.703125 57 
C 11.796875 57 17 57.59375 21 59.984375 
L 21 7.296875 
C 21 3.796875 20.796875 2.59375 12.203125 2.59375 
L 9.203125 2.59375 
L 9.203125 0 
C 14 0.09375 19 0.1875 23.796875 0.1875 
C 28.59375 0.1875 33.59375 0.09375 38.40625 0 
L 38.40625 2.59375 
L 35.40625 2.59375 
C 26.796875 2.59375 26.59375 3.6875 26.59375 7.296875 
z
" id="CMR17-49"/>
      </defs>
      <g transform="translate(212.987181 246.378498)scale(0.1 -0.1)">
       <use transform="scale(0.996264)" xlink:href="#CMR17-49"/>
       <use transform="translate(45.690477 0)scale(0.996264)" xlink:href="#CMR17-48"/>
       <use transform="translate(91.380954 0)scale(0.996264)" xlink:href="#CMR17-48"/>
      </g>
     </g>
    </g>
    <g id="xtick_6">
     <g id="line2d_11">
      <path clip-path="url(#p8d7954bba3)" d="M 258.695822 232.46 
L 258.695822 10.7 
" style="fill:none;stroke:#b0b0b0;stroke-dasharray:0.8,1.32;stroke-dashoffset:0;stroke-width:0.8;"/>
     </g>
     <g id="line2d_12">
      <g>
       <use style="stroke:#000000;stroke-width:0.8;" x="258.695822" xlink:href="#m306513f204" y="232.46"/>
      </g>
     </g>
     <g id="text_6">
      <!-- $125$ -->
      <g transform="translate(251.223819 246.378498)scale(0.1 -0.1)">
       <use transform="scale(0.996264)" xlink:href="#CMR17-49"/>
       <use transform="translate(45.690477 0)scale(0.996264)" xlink:href="#CMR17-50"/>
       <use transform="translate(91.380954 0)scale(0.996264)" xlink:href="#CMR17-53"/>
      </g>
     </g>
    </g>
    <g id="xtick_7">
     <g id="line2d_13">
      <path clip-path="url(#p8d7954bba3)" d="M 296.932459 232.46 
L 296.932459 10.7 
" style="fill:none;stroke:#b0b0b0;stroke-dasharray:0.8,1.32;stroke-dashoffset:0;stroke-width:0.8;"/>
     </g>
     <g id="line2d_14">
      <g>
       <use style="stroke:#000000;stroke-width:0.8;" x="296.932459" xlink:href="#m306513f204" y="232.46"/>
      </g>
     </g>
     <g id="text_7">
      <!-- $150$ -->
      <g transform="translate(289.460456 246.378498)scale(0.1 -0.1)">
       <use transform="scale(0.996264)" xlink:href="#CMR17-49"/>
       <use transform="translate(45.690477 0)scale(0.996264)" xlink:href="#CMR17-53"/>
       <use transform="translate(91.380954 0)scale(0.996264)" xlink:href="#CMR17-48"/>
      </g>
     </g>
    </g>
    <g id="xtick_8">
     <g id="line2d_15">
      <path clip-path="url(#p8d7954bba3)" d="M 335.169097 232.46 
L 335.169097 10.7 
" style="fill:none;stroke:#b0b0b0;stroke-dasharray:0.8,1.32;stroke-dashoffset:0;stroke-width:0.8;"/>
     </g>
     <g id="line2d_16">
      <g>
       <use style="stroke:#000000;stroke-width:0.8;" x="335.169097" xlink:href="#m306513f204" y="232.46"/>
      </g>
     </g>
     <g id="text_8">
      <!-- $175$ -->
      <g transform="translate(327.697094 246.378498)scale(0.1 -0.1)">
       <use transform="scale(0.996264)" xlink:href="#CMR17-49"/>
       <use transform="translate(45.690477 0)scale(0.996264)" xlink:href="#CMR17-55"/>
       <use transform="translate(91.380954 0)scale(0.996264)" xlink:href="#CMR17-53"/>
      </g>
     </g>
    </g>
    <g id="xtick_9">
     <g id="line2d_17">
      <path clip-path="url(#p8d7954bba3)" d="M 373.405735 232.46 
L 373.405735 10.7 
" style="fill:none;stroke:#b0b0b0;stroke-dasharray:0.8,1.32;stroke-dashoffset:0;stroke-width:0.8;"/>
     </g>
     <g id="line2d_18">
      <g>
       <use style="stroke:#000000;stroke-width:0.8;" x="373.405735" xlink:href="#m306513f204" y="232.46"/>
      </g>
     </g>
     <g id="text_9">
      <!-- $200$ -->
      <g transform="translate(365.933732 246.378498)scale(0.1 -0.1)">
       <use transform="scale(0.996264)" xlink:href="#CMR17-50"/>
       <use transform="translate(45.690477 0)scale(0.996264)" xlink:href="#CMR17-48"/>
       <use transform="translate(91.380954 0)scale(0.996264)" xlink:href="#CMR17-48"/>
      </g>
     </g>
    </g>
    <g id="text_10">
     <!-- iteration $k$ -->
     <defs>
      <path d="M 15.5 61.890625 
C 15.5 64.09375 13.703125 66 11.40625 66 
C 9.203125 66 7.296875 64.1875 7.296875 61.890625 
C 7.296875 59.6875 9.09375 57.796875 11.40625 57.796875 
C 13.59375 57.796875 15.5 59.59375 15.5 61.890625 
z
M 3.796875 42.890625 
L 3.796875 40.296875 
C 9.40625 40.296875 10.203125 39.6875 10.203125 34.859375 
L 10.203125 6.921875 
C 10.203125 3.09375 9.796875 2.59375 3.40625 2.59375 
L 3.40625 0 
C 5.796875 0.1875 10.09375 0.1875 12.59375 0.1875 
C 15 0.1875 19.09375 0.1875 21.40625 0 
L 21.40625 2.59375 
C 15.5 2.59375 15.296875 3.203125 15.296875 6.8125 
L 15.296875 44 
z
" id="CMR17-105"/>
      <path d="M 15.09375 40.390625 
L 29.09375 40.390625 
L 29.09375 43 
L 15.09375 43 
L 15.09375 62 
L 13.296875 62 
C 13.09375 51.4375 9.59375 42.1875 1.09375 41.984375 
L 1.09375 40.390625 
L 9.796875 40.390625 
L 9.796875 12.15625 
C 9.796875 10.234375 9.796875 -1 21.40625 -1 
C 27.296875 -1 30.703125 4.8125 30.703125 12.25 
L 30.703125 17.984375 
L 28.90625 17.984375 
L 28.90625 12.34375 
C 28.90625 5.421875 26.203125 0.796875 22 0.796875 
C 19.09375 0.796875 15.09375 2.796875 15.09375 11.953125 
z
" id="CMR17-116"/>
      <path d="M 38.09375 23.484375 
C 38.5 23.890625 38.5 24.09375 38.5 25.09375 
C 38.5 35.171875 33.09375 44 21.703125 44 
C 11.09375 44 2.703125 33.984375 2.703125 21.78125 
C 2.703125 8.65625 12.203125 -1 22.796875 -1 
C 34 -1 38.40625 9.671875 38.40625 11.796875 
C 38.40625 12.5 37.796875 12.5 37.59375 12.5 
C 36.90625 12.5 36.796875 12.296875 36.40625 11.078125 
C 34.203125 4.21875 28.703125 0.796875 23.5 0.796875 
C 19.203125 0.796875 14.90625 3.21875 12.203125 7.65625 
C 9.09375 12.796875 9.09375 18.75 9.09375 23.484375 
z
M 9.203125 25 
C 9.90625 39.234375 17.59375 42.390625 21.59375 42.390625 
C 28.40625 42.390625 33 36.0625 33.09375 25 
z
" id="CMR17-101"/>
      <path d="M 15 23.703125 
C 15 33.34375 19.09375 42.390625 26.59375 42.390625 
C 27.296875 42.390625 28 42.296875 28.703125 41.984375 
C 28.703125 41.984375 26.5 41.28125 26.5 38.671875 
C 26.5 36.265625 28.40625 35.265625 29.90625 35.265625 
C 31.09375 35.265625 33.296875 35.96875 33.296875 38.78125 
C 33.296875 41.984375 30.09375 44 26.703125 44 
C 19.09375 44 15.796875 36.5625 14.796875 33.046875 
L 14.703125 33.046875 
L 14.703125 44 
L 3.09375 42.890625 
L 3.09375 40.28125 
C 9 40.28125 9.90625 39.6875 9.90625 34.859375 
L 9.90625 6.921875 
C 9.90625 3.09375 9.5 2.59375 3.09375 2.59375 
L 3.09375 0 
C 5.5 0.1875 10.09375 0.1875 12.703125 0.1875 
C 15.59375 0.1875 20.703125 0.1875 23.40625 0 
L 23.40625 2.59375 
C 16.203125 2.59375 15 2.59375 15 7.109375 
z
" id="CMR17-114"/>
      <path d="M 36 25.875 
C 36 32 36 35.546875 31.796875 39.59375 
C 28.09375 42.984375 23.796875 44 20.40625 44 
C 12.5 44 6.796875 37.625 6.796875 30.890625 
C 6.796875 27.1875 9.796875 27 10.40625 27 
C 11.703125 27 14 27.796875 14 30.59375 
C 14 33.09375 12.09375 34.1875 10.40625 34.1875 
C 10 34.1875 9.5 34.09375 9.203125 34 
C 11.296875 40.53125 16.703125 42.390625 20.203125 42.390625 
C 25.203125 42.390625 30.703125 37.828125 30.703125 29.296875 
L 30.703125 25.5 
C 24.796875 25.296875 17.703125 24.5 12.09375 21.453125 
C 5.796875 17.921875 4 12.84375 4 9 
C 4 1.203125 13 -1 18.296875 -1 
C 23.796875 -1 28.90625 2.109375 31.09375 7.890625 
C 31.296875 3.421875 34.09375 -0.609375 38.5 -0.609375 
C 40.59375 -0.609375 45.90625 0.796875 45.90625 8.796875 
L 45.90625 14.46875 
L 44.09375 14.46875 
L 44.09375 8.703125 
C 44.09375 2.515625 41.40625 1.703125 40.09375 1.703125 
C 36 1.703125 36 6.96875 36 11.4375 
z
M 30.703125 13.859375 
C 30.703125 5.046875 24.5 0.59375 19 0.59375 
C 14 0.59375 10.09375 4.34375 10.09375 9 
C 10.09375 12.046875 11.40625 17.40625 17.203125 20.65625 
C 22 23.390625 27.5 23.796875 30.703125 24 
z
" id="CMR17-97"/>
      <path d="M 43.09375 21.1875 
C 43.09375 34 33.796875 44 22.90625 44 
C 12 44 2.703125 34 2.703125 21.1875 
C 2.703125 8.59375 12 -1 22.90625 -1 
C 33.796875 -1 43.09375 8.59375 43.09375 21.1875 
z
M 22.90625 0.796875 
C 18.203125 0.796875 14.203125 3.59375 11.90625 7.5 
C 9.40625 12 9.09375 17.59375 9.09375 22 
C 9.09375 26.1875 9.296875 31.390625 11.90625 35.890625 
C 13.90625 39.1875 17.796875 42.390625 22.90625 42.390625 
C 27.40625 42.390625 31.203125 39.890625 33.59375 36.390625 
C 36.703125 31.6875 36.703125 25.09375 36.703125 22 
C 36.703125 18.09375 36.5 12.09375 33.796875 7.296875 
C 31 2.6875 26.703125 0.796875 22.90625 0.796875 
z
" id="CMR17-111"/>
      <path d="M 41.5 30.53125 
C 41.5 35.65625 40.5 44 28.703125 44 
C 20.796875 44 16.703125 37.875 15.203125 33.84375 
L 15.09375 33.84375 
L 15.09375 44 
L 3.296875 42.890625 
L 3.296875 40.28125 
C 9.203125 40.28125 10.09375 39.6875 10.09375 34.859375 
L 10.09375 6.921875 
C 10.09375 3.09375 9.703125 2.59375 3.296875 2.59375 
L 3.296875 0 
C 5.703125 0.1875 10.09375 0.1875 12.703125 0.1875 
C 15.296875 0.1875 19.796875 0.1875 22.203125 0 
L 22.203125 2.59375 
C 15.796875 2.59375 15.40625 3 15.40625 6.921875 
L 15.40625 26.21875 
C 15.40625 35.453125 21 42.390625 28 42.390625 
C 35.40625 42.390625 36.203125 35.765625 36.203125 30.9375 
L 36.203125 6.921875 
C 36.203125 3.09375 35.796875 2.59375 29.40625 2.59375 
L 29.40625 0 
C 31.796875 0.1875 36.203125 0.1875 38.796875 0.1875 
C 41.40625 0.1875 45.90625 0.1875 48.296875 0 
L 48.296875 2.59375 
C 41.90625 2.59375 41.5 3 41.5 6.921875 
z
" id="CMR17-110"/>
      <path d="M 28.09375 66.484375 
C 28.203125 66.890625 28.40625 67.484375 28.40625 67.984375 
C 28.40625 69 27.40625 69 27.203125 69 
C 27.09375 69 23.5 68.6875 21.703125 68.484375 
C 20 68.390625 18.5 68.1875 16.703125 68.09375 
C 14.296875 67.890625 13.59375 67.796875 13.59375 65.984375 
C 13.59375 64.984375 14.59375 64.984375 15.59375 64.984375 
C 20.703125 64.984375 20.703125 64.109375 20.703125 63.125 
C 20.703125 62.71875 20.703125 62.53125 20.203125 60.75 
L 5.90625 3.90625 
C 5.5 2.390625 5.5 2.203125 5.5 1.59375 
C 5.5 -0.609375 7.203125 -1 8.203125 -1 
C 11 -1 11.59375 1.1875 12.40625 4.296875 
L 17.09375 23.0625 
C 24.296875 22.265625 28.59375 19.25 28.59375 14.4375 
C 28.59375 13.828125 28.59375 13.4375 28.296875 11.921875 
C 27.90625 10.421875 27.90625 9.21875 27.90625 8.71875 
C 27.90625 2.890625 31.703125 -1 36.796875 -1 
C 41.40625 -1 43.796875 3.203125 44.59375 4.609375 
C 46.703125 8.3125 48 13.9375 48 14.328125 
C 48 14.828125 47.59375 15.234375 47 15.234375 
C 46.09375 15.234375 46 14.828125 45.59375 13.234375 
C 44.203125 8.015625 42.09375 1 37 1 
C 35 1 33.703125 2 33.703125 5.8125 
C 33.703125 7.71875 34.09375 9.921875 34.5 11.421875 
C 34.90625 13.234375 34.90625 13.328125 34.90625 14.53125 
C 34.90625 20.453125 29.59375 23.765625 20.40625 24.96875 
C 24 27.171875 27.59375 31.078125 29 32.59375 
C 34.703125 38.984375 38.59375 41.984375 43.203125 41.984375 
C 45.5 41.984375 46.09375 41.484375 46.796875 41 
C 43.09375 40.59375 41.703125 37.984375 41.703125 35.984375 
C 41.703125 33.59375 43.59375 32.796875 45 32.796875 
C 47.703125 32.796875 50.09375 35.09375 50.09375 38.296875 
C 50.09375 41.15625 47.796875 44 43.296875 44 
C 37.796875 44 33.296875 40.296875 26.203125 32.296875 
C 25.203125 31.078125 21.5 27.28125 17.796875 25.875 
z
" id="CMMI12-107"/>
     </defs>
     <g transform="translate(196.885256 259.234175)scale(0.1 -0.1)">
      <use transform="scale(0.996264)" xlink:href="#CMR17-105"/>
      <use transform="translate(24.871058 0)scale(0.996264)" xlink:href="#CMR17-116"/>
      <use transform="translate(60.151826 0)scale(0.996264)" xlink:href="#CMR17-101"/>
      <use transform="translate(100.637487 0)scale(0.996264)" xlink:href="#CMR17-114"/>
      <use transform="translate(135.918255 0)scale(0.996264)" xlink:href="#CMR17-97"/>
      <use transform="translate(181.608732 0)scale(0.996264)" xlink:href="#CMR17-116"/>
      <use transform="translate(216.889499 0)scale(0.996264)" xlink:href="#CMR17-105"/>
      <use transform="translate(241.760558 0)scale(0.996264)" xlink:href="#CMR17-111"/>
      <use transform="translate(287.451035 0)scale(0.996264)" xlink:href="#CMR17-110"/>
      <use transform="translate(368.422371 0)scale(0.996264)" xlink:href="#CMMI12-107"/>
     </g>
    </g>
   </g>
   <g id="matplotlib.axis_2">
    <g id="ytick_1">
     <g id="line2d_19">
      <path clip-path="url(#p8d7954bba3)" d="M 52.294451 232.46 
L 387.094451 232.46 
" style="fill:none;stroke:#b0b0b0;stroke-dasharray:0.8,1.32;stroke-dashoffset:0;stroke-width:0.8;"/>
     </g>
     <g id="line2d_20">
      <defs>
       <path d="M 0 0 
L -3.5 0 
" id="me31b7fd841" style="stroke:#000000;stroke-width:0.8;"/>
      </defs>
      <g>
       <use style="stroke:#000000;stroke-width:0.8;" x="52.294451" xlink:href="#me31b7fd841" y="232.46"/>
      </g>
     </g>
     <g id="text_11">
      <!-- $10^{-16}$ -->
      <defs>
       <path d="M 65.90625 23 
C 67.59375 23 69.40625 23 69.40625 25 
C 69.40625 27 67.59375 27 65.90625 27 
L 11.796875 27 
C 10.09375 27 8.296875 27 8.296875 25 
C 8.296875 23 10.09375 23 11.796875 23 
z
" id="CMSY10-0"/>
       <path d="M 10.59375 34.34375 
C 10.59375 58 21.796875 63.6875 28.296875 63.6875 
C 30.40625 63.6875 35.5 63.265625 37.5 59.09375 
C 35.90625 59.09375 32.90625 59.09375 32.90625 55.59375 
C 32.90625 52.890625 35.09375 52 36.5 52 
C 37.40625 52 40.09375 52.390625 40.09375 55.796875 
C 40.09375 62.296875 35.09375 66 28.203125 66 
C 16.296875 66 3.796875 53.296875 3.796875 31.421875 
C 3.796875 4.015625 15.09375 -2 23.09375 -2 
C 32.796875 -2 42 6.734375 42 20.234375 
C 42 32.828125 33.90625 42 23.703125 42 
C 17.59375 42 13.09375 37.96875 10.59375 30.921875 
z
M 23.09375 0.390625 
C 10.796875 0.390625 10.796875 18.9375 10.796875 22.65625 
C 10.796875 29.90625 14.203125 40.390625 23.5 40.390625 
C 25.203125 40.390625 30.09375 40.390625 33.40625 33.4375 
C 35.203125 29.515625 35.203125 25.375 35.203125 20.34375 
C 35.203125 14.90625 35.203125 10.875 33.09375 6.84375 
C 30.90625 2.703125 27.703125 0.390625 23.09375 0.390625 
z
" id="CMR17-54"/>
      </defs>
      <g transform="translate(21.16264 235.919249)scale(0.1 -0.1)">
       <use transform="scale(0.996264)" xlink:href="#CMR17-49"/>
       <use transform="translate(45.690477 0)scale(0.996264)" xlink:href="#CMR17-48"/>
       <use transform="translate(91.380954 36.153639)scale(0.697382)" xlink:href="#CMSY10-0"/>
       <use transform="translate(145.621947 36.153639)scale(0.697382)" xlink:href="#CMR17-49"/>
       <use transform="translate(177.605129 36.153639)scale(0.697382)" xlink:href="#CMR17-54"/>
      </g>
     </g>
    </g>
    <g id="ytick_2">
     <g id="line2d_21">
      <path clip-path="url(#p8d7954bba3)" d="M 52.294451 205.900278 
L 387.094451 205.900278 
" style="fill:none;stroke:#b0b0b0;stroke-dasharray:0.8,1.32;stroke-dashoffset:0;stroke-width:0.8;"/>
     </g>
     <g id="line2d_22">
      <g>
       <use style="stroke:#000000;stroke-width:0.8;" x="52.294451" xlink:href="#me31b7fd841" y="205.900278"/>
      </g>
     </g>
     <g id="text_12">
      <!-- $10^{-14}$ -->
      <defs>
       <path d="M 33.59375 64.796875 
C 33.59375 66.890625 33.5 67 31.703125 67 
L 2 19.59375 
L 2 17 
L 27.796875 17 
L 27.796875 7.1875 
C 27.796875 3.59375 27.59375 2.59375 20.59375 2.59375 
L 18.703125 2.59375 
L 18.703125 0 
C 21.90625 0.1875 27.296875 0.1875 30.703125 0.1875 
C 34.09375 0.1875 39.5 0.1875 42.703125 0 
L 42.703125 2.59375 
L 40.796875 2.59375 
C 33.796875 2.59375 33.59375 3.59375 33.59375 7.1875 
L 33.59375 17 
L 43.796875 17 
L 43.796875 19.59375 
L 33.59375 19.59375 
z
M 28.09375 58.171875 
L 28.09375 19.59375 
L 4 19.59375 
z
" id="CMR17-52"/>
      </defs>
      <g transform="translate(21.16264 209.359527)scale(0.1 -0.1)">
       <use transform="scale(0.996264)" xlink:href="#CMR17-49"/>
       <use transform="translate(45.690477 0)scale(0.996264)" xlink:href="#CMR17-48"/>
       <use transform="translate(91.380954 36.153639)scale(0.697382)" xlink:href="#CMSY10-0"/>
       <use transform="translate(145.621947 36.153639)scale(0.697382)" xlink:href="#CMR17-49"/>
       <use transform="translate(177.605129 36.153639)scale(0.697382)" xlink:href="#CMR17-52"/>
      </g>
     </g>
    </g>
    <g id="ytick_3">
     <g id="line2d_23">
      <path clip-path="url(#p8d7954bba3)" d="M 52.294451 179.340556 
L 387.094451 179.340556 
" style="fill:none;stroke:#b0b0b0;stroke-dasharray:0.8,1.32;stroke-dashoffset:0;stroke-width:0.8;"/>
     </g>
     <g id="line2d_24">
      <g>
       <use style="stroke:#000000;stroke-width:0.8;" x="52.294451" xlink:href="#me31b7fd841" y="179.340556"/>
      </g>
     </g>
     <g id="text_13">
      <!-- $10^{-12}$ -->
      <g transform="translate(21.16264 182.799805)scale(0.1 -0.1)">
       <use transform="scale(0.996264)" xlink:href="#CMR17-49"/>
       <use transform="translate(45.690477 0)scale(0.996264)" xlink:href="#CMR17-48"/>
       <use transform="translate(91.380954 36.153639)scale(0.697382)" xlink:href="#CMSY10-0"/>
       <use transform="translate(145.621947 36.153639)scale(0.697382)" xlink:href="#CMR17-49"/>
       <use transform="translate(177.605129 36.153639)scale(0.697382)" xlink:href="#CMR17-50"/>
      </g>
     </g>
    </g>
    <g id="ytick_4">
     <g id="line2d_25">
      <path clip-path="url(#p8d7954bba3)" d="M 52.294451 152.780834 
L 387.094451 152.780834 
" style="fill:none;stroke:#b0b0b0;stroke-dasharray:0.8,1.32;stroke-dashoffset:0;stroke-width:0.8;"/>
     </g>
     <g id="line2d_26">
      <g>
       <use style="stroke:#000000;stroke-width:0.8;" x="52.294451" xlink:href="#me31b7fd841" y="152.780834"/>
      </g>
     </g>
     <g id="text_14">
      <!-- $10^{-10}$ -->
      <g transform="translate(21.16264 156.240083)scale(0.1 -0.1)">
       <use transform="scale(0.996264)" xlink:href="#CMR17-49"/>
       <use transform="translate(45.690477 0)scale(0.996264)" xlink:href="#CMR17-48"/>
       <use transform="translate(91.380954 36.153639)scale(0.697382)" xlink:href="#CMSY10-0"/>
       <use transform="translate(145.621947 36.153639)scale(0.697382)" xlink:href="#CMR17-49"/>
       <use transform="translate(177.605129 36.153639)scale(0.697382)" xlink:href="#CMR17-48"/>
      </g>
     </g>
    </g>
    <g id="ytick_5">
     <g id="line2d_27">
      <path clip-path="url(#p8d7954bba3)" d="M 52.294451 126.221112 
L 387.094451 126.221112 
" style="fill:none;stroke:#b0b0b0;stroke-dasharray:0.8,1.32;stroke-dashoffset:0;stroke-width:0.8;"/>
     </g>
     <g id="line2d_28">
      <g>
       <use style="stroke:#000000;stroke-width:0.8;" x="52.294451" xlink:href="#me31b7fd841" y="126.221112"/>
      </g>
     </g>
     <g id="text_15">
      <!-- $10^{-8}$ -->
      <defs>
       <path d="M 27.203125 35.765625 
C 33.5 38.96875 39.90625 43.796875 39.90625 51.53125 
C 39.90625 60.6875 31.09375 66 23 66 
C 13.90625 66 5.90625 59.375 5.90625 50.234375 
C 5.90625 47.71875 6.5 43.390625 10.40625 39.578125 
C 11.40625 38.578125 15.59375 35.5625 18.296875 33.65625 
C 13.796875 31.34375 3.296875 25.8125 3.296875 14.765625 
C 3.296875 4.40625 13.09375 -2 22.796875 -2 
C 33.5 -2 42.5 5.71875 42.5 15.96875 
C 42.5 25.109375 36.40625 29.328125 32.40625 32.046875 
z
M 14.09375 44.609375 
C 13.296875 45.109375 9.296875 48.21875 9.296875 52.9375 
C 9.296875 59.078125 15.59375 63.6875 22.796875 63.6875 
C 30.703125 63.6875 36.5 58.0625 36.5 51.53125 
C 36.5 42.1875 26.09375 36.859375 25.59375 36.859375 
C 25.5 36.859375 25.40625 36.859375 24.59375 37.46875 
z
M 32.5 24 
C 34 22.90625 38.796875 19.578125 38.796875 13.453125 
C 38.796875 6.015625 31.40625 0.390625 23 0.390625 
C 13.90625 0.390625 7 6.921875 7 14.859375 
C 7 22.796875 13.09375 29.4375 20 32.546875 
z
" id="CMR17-56"/>
      </defs>
      <g transform="translate(25.133878 129.680361)scale(0.1 -0.1)">
       <use transform="scale(0.996264)" xlink:href="#CMR17-49"/>
       <use transform="translate(45.690477 0)scale(0.996264)" xlink:href="#CMR17-48"/>
       <use transform="translate(91.380954 36.153639)scale(0.697382)" xlink:href="#CMSY10-0"/>
       <use transform="translate(145.621947 36.153639)scale(0.697382)" xlink:href="#CMR17-56"/>
      </g>
     </g>
    </g>
    <g id="ytick_6">
     <g id="line2d_29">
      <path clip-path="url(#p8d7954bba3)" d="M 52.294451 99.66139 
L 387.094451 99.66139 
" style="fill:none;stroke:#b0b0b0;stroke-dasharray:0.8,1.32;stroke-dashoffset:0;stroke-width:0.8;"/>
     </g>
     <g id="line2d_30">
      <g>
       <use style="stroke:#000000;stroke-width:0.8;" x="52.294451" xlink:href="#me31b7fd841" y="99.66139"/>
      </g>
     </g>
     <g id="text_16">
      <!-- $10^{-6}$ -->
      <g transform="translate(25.133878 103.120639)scale(0.1 -0.1)">
       <use transform="scale(0.996264)" xlink:href="#CMR17-49"/>
       <use transform="translate(45.690477 0)scale(0.996264)" xlink:href="#CMR17-48"/>
       <use transform="translate(91.380954 36.153639)scale(0.697382)" xlink:href="#CMSY10-0"/>
       <use transform="translate(145.621947 36.153639)scale(0.697382)" xlink:href="#CMR17-54"/>
      </g>
     </g>
    </g>
    <g id="ytick_7">
     <g id="line2d_31">
      <path clip-path="url(#p8d7954bba3)" d="M 52.294451 73.101668 
L 387.094451 73.101668 
" style="fill:none;stroke:#b0b0b0;stroke-dasharray:0.8,1.32;stroke-dashoffset:0;stroke-width:0.8;"/>
     </g>
     <g id="line2d_32">
      <g>
       <use style="stroke:#000000;stroke-width:0.8;" x="52.294451" xlink:href="#me31b7fd841" y="73.101668"/>
      </g>
     </g>
     <g id="text_17">
      <!-- $10^{-4}$ -->
      <g transform="translate(25.133878 76.560918)scale(0.1 -0.1)">
       <use transform="scale(0.996264)" xlink:href="#CMR17-49"/>
       <use transform="translate(45.690477 0)scale(0.996264)" xlink:href="#CMR17-48"/>
       <use transform="translate(91.380954 36.153639)scale(0.697382)" xlink:href="#CMSY10-0"/>
       <use transform="translate(145.621947 36.153639)scale(0.697382)" xlink:href="#CMR17-52"/>
      </g>
     </g>
    </g>
    <g id="ytick_8">
     <g id="line2d_33">
      <path clip-path="url(#p8d7954bba3)" d="M 52.294451 46.541946 
L 387.094451 46.541946 
" style="fill:none;stroke:#b0b0b0;stroke-dasharray:0.8,1.32;stroke-dashoffset:0;stroke-width:0.8;"/>
     </g>
     <g id="line2d_34">
      <g>
       <use style="stroke:#000000;stroke-width:0.8;" x="52.294451" xlink:href="#me31b7fd841" y="46.541946"/>
      </g>
     </g>
     <g id="text_18">
      <!-- $10^{-2}$ -->
      <g transform="translate(25.133878 50.001196)scale(0.1 -0.1)">
       <use transform="scale(0.996264)" xlink:href="#CMR17-49"/>
       <use transform="translate(45.690477 0)scale(0.996264)" xlink:href="#CMR17-48"/>
       <use transform="translate(91.380954 36.153639)scale(0.697382)" xlink:href="#CMSY10-0"/>
       <use transform="translate(145.621947 36.153639)scale(0.697382)" xlink:href="#CMR17-50"/>
      </g>
     </g>
    </g>
    <g id="ytick_9">
     <g id="line2d_35">
      <path clip-path="url(#p8d7954bba3)" d="M 52.294451 19.982224 
L 387.094451 19.982224 
" style="fill:none;stroke:#b0b0b0;stroke-dasharray:0.8,1.32;stroke-dashoffset:0;stroke-width:0.8;"/>
     </g>
     <g id="line2d_36">
      <g>
       <use style="stroke:#000000;stroke-width:0.8;" x="52.294451" xlink:href="#me31b7fd841" y="19.982224"/>
      </g>
     </g>
     <g id="text_19">
      <!-- $10^{0}$ -->
      <g transform="translate(31.360543 23.441474)scale(0.1 -0.1)">
       <use transform="scale(0.996264)" xlink:href="#CMR17-49"/>
       <use transform="translate(45.690477 0)scale(0.996264)" xlink:href="#CMR17-48"/>
       <use transform="translate(91.380954 36.153639)scale(0.697382)" xlink:href="#CMR17-48"/>
      </g>
     </g>
    </g>
    <g id="text_20">
     <!-- $\mathbf{A}$-norm of error: $\| \mathbf{x}-\mathbf{x}_k \|_\mathbf{A}$ -->
     <defs>
      <path d="M 45.796875 67.703125 
C 45.09375 69.5 44.90625 70 42.5 70 
C 40 70 39.796875 69.5 39.09375 67.703125 
L 14.296875 6.703125 
C 13.59375 5.09375 13.59375 4.890625 10.796875 4.59375 
C 8.296875 4.296875 7.90625 4.296875 5.703125 4.296875 
L 3.90625 4.296875 
L 3.90625 0 
C 6.5 0.1875 12.5 0.1875 15.40625 0.1875 
C 18.09375 0.1875 25.40625 0.1875 27.703125 0 
L 27.703125 4.296875 
C 25.5 4.296875 21.703125 4.296875 18.90625 5.40625 
C 19.203125 6.3125 19.203125 6.5 19.40625 6.90625 
L 24.703125 20 
L 51.5 20 
L 57.796875 4.296875 
L 48.40625 4.296875 
L 48.40625 0 
C 51.59375 0.1875 61.296875 0.1875 65.09375 0.1875 
C 68.296875 0.1875 78.5 0.1875 81 0 
L 81 4.296875 
L 71.5 4.296875 
z
M 38.09375 53.03125 
L 49.703125 24.296875 
L 26.40625 24.296875 
z
" id="CMBX12-65"/>
      <path d="M 25.5 19.59375 
L 25.5 24 
L 0.40625 24 
L 0.40625 19.59375 
z
" id="CMR17-45"/>
      <path d="M 67.59375 30.53125 
C 67.59375 35.5625 66.703125 44 54.796875 44 
C 48 44 43.296875 39.375 41.5 33.953125 
L 41.40625 33.953125 
C 40.203125 42.1875 34.296875 44 28.703125 44 
C 20.796875 44 16.703125 37.875 15.203125 33.84375 
L 15.09375 33.84375 
L 15.09375 44 
L 3.296875 42.890625 
L 3.296875 40.28125 
C 9.203125 40.28125 10.09375 39.6875 10.09375 34.859375 
L 10.09375 6.921875 
C 10.09375 3.09375 9.703125 2.59375 3.296875 2.59375 
L 3.296875 0 
C 5.703125 0.1875 10.09375 0.1875 12.703125 0.1875 
C 15.296875 0.1875 19.796875 0.1875 22.203125 0 
L 22.203125 2.59375 
C 15.796875 2.59375 15.40625 3 15.40625 6.921875 
L 15.40625 26.21875 
C 15.40625 35.453125 21 42.390625 28 42.390625 
C 35.40625 42.390625 36.203125 35.765625 36.203125 30.9375 
L 36.203125 6.921875 
C 36.203125 3.09375 35.796875 2.59375 29.40625 2.59375 
L 29.40625 0 
C 31.796875 0.1875 36.203125 0.1875 38.796875 0.1875 
C 41.40625 0.1875 45.90625 0.1875 48.296875 0 
L 48.296875 2.59375 
C 41.90625 2.59375 41.5 3 41.5 6.921875 
L 41.5 26.21875 
C 41.5 35.453125 47.09375 42.390625 54.09375 42.390625 
C 61.5 42.390625 62.296875 35.765625 62.296875 30.9375 
L 62.296875 6.921875 
C 62.296875 3.09375 61.90625 2.59375 55.5 2.59375 
L 55.5 0 
C 57.90625 0.1875 62.296875 0.1875 64.90625 0.1875 
C 67.5 0.1875 72 0.1875 74.40625 0 
L 74.40625 2.59375 
C 68 2.59375 67.59375 3 67.59375 6.921875 
z
" id="CMR17-109"/>
      <path d="M 15.296875 40.390625 
L 26.703125 40.390625 
L 26.703125 43 
L 15.09375 43 
L 15.09375 55.296875 
C 15.09375 63.6875 19.296875 68.390625 23.59375 68.390625 
C 24.90625 68.390625 26.40625 68.171875 27.40625 67.796875 
C 26.59375 67.59375 24.5 66.890625 24.5 64.390625 
C 24.5 61.796875 26.5 61 27.90625 61 
C 29.296875 61 31.296875 61.796875 31.296875 64.390625 
C 31.296875 68.015625 27.703125 70 23.703125 70 
C 18 70 10.203125 65.796875 10.203125 55.09375 
L 10.203125 43 
L 2.203125 43 
L 2.203125 40.390625 
L 10.203125 40.390625 
L 10.203125 6.890625 
C 10.203125 3.09375 9.796875 2.59375 3.40625 2.59375 
L 3.40625 0 
C 5.796875 0.1875 10.40625 0.1875 13 0.1875 
C 15.90625 0.1875 21 0.1875 23.703125 0 
L 23.703125 2.59375 
C 16.5 2.59375 15.296875 2.59375 15.296875 7.09375 
z
" id="CMR17-102"/>
      <path d="M 16.59375 38.890625 
C 16.59375 41.390625 14.59375 43 12.5 43 
C 10.5 43 8.40625 41.390625 8.40625 38.890625 
C 8.40625 36.390625 10.40625 34.796875 12.5 34.796875 
C 14.5 34.796875 16.59375 36.390625 16.59375 38.890625 
z
M 16.59375 4.09375 
C 16.59375 6.59375 14.59375 8.1875 12.5 8.1875 
C 10.5 8.1875 8.40625 6.59375 8.40625 4.09375 
C 8.40625 1.59375 10.40625 0 12.5 0 
C 14.5 0 16.59375 1.59375 16.59375 4.09375 
z
" id="CMR17-58"/>
      <path d="M 17.203125 71.59375 
C 17.203125 73.1875 17.203125 75 15.203125 75 
C 13.203125 75 13.203125 72.796875 13.203125 71.296875 
L 13.203125 -21.3125 
C 13.203125 -22.90625 13.203125 -25 15.203125 -25 
C 17.203125 -25 17.203125 -23.203125 17.203125 -21.609375 
z
M 36.703125 71.296875 
C 36.703125 72.890625 36.703125 75 34.703125 75 
C 32.703125 75 32.703125 73.1875 32.703125 71.59375 
L 32.703125 -21.609375 
C 32.703125 -23.203125 32.703125 -25 34.703125 -25 
C 36.703125 -25 36.703125 -22.8125 36.703125 -21.3125 
z
" id="CMSY10-107"/>
      <path d="M 33.703125 24.46875 
L 45.296875 37.609375 
C 46.40625 38.90625 47.296875 39.6875 55.59375 39.6875 
L 55.59375 44 
C 50 43.796875 49.796875 43.796875 46.40625 43.796875 
C 43.5 43.796875 39.203125 43.796875 36.40625 44 
L 36.40625 39.6875 
C 38.296875 39.6875 40.40625 39.203125 40.40625 38.5 
C 40.40625 38.3125 39.90625 37.609375 39.703125 37.421875 
L 31 27.71875 
L 21.09375 39.6875 
L 25.296875 39.6875 
L 25.296875 44 
C 23 43.796875 16.203125 43.796875 13.5 43.796875 
C 10.5 43.796875 5.09375 43.796875 2.296875 44 
L 2.296875 39.6875 
L 9.40625 39.6875 
L 25 20.90625 
L 12 6.375 
C 10.796875 4.984375 10.09375 4.296875 1.796875 4.296875 
L 1.796875 0 
C 7.796875 0.1875 8 0.1875 11.09375 0.1875 
C 14 0.1875 18.203125 0.1875 21 0 
L 21 4.296875 
C 19.09375 4.296875 17 4.78125 17 5.484375 
C 17 5.578125 17 5.671875 17.703125 6.46875 
L 27.703125 17.640625 
L 38.796875 4.296875 
L 34.59375 4.296875 
L 34.59375 0 
C 37 0.1875 43.703125 0.1875 46.5 0.1875 
C 49.5 0.1875 54.796875 0.1875 57.59375 0 
L 57.59375 4.296875 
L 50.59375 4.296875 
z
" id="CMBX12-120"/>
     </defs>
     <g transform="translate(15.225462 183.362537)rotate(-90)scale(0.1 -0.1)">
      <use transform="translate(0 14.943915)scale(0.996264)" xlink:href="#CMBX12-65"/>
      <use transform="translate(84.636395 14.943915)scale(0.996264)" xlink:href="#CMR17-45"/>
      <use transform="translate(114.712361 14.943915)scale(0.996264)" xlink:href="#CMR17-110"/>
      <use transform="translate(165.607731 14.943915)scale(0.996264)" xlink:href="#CMR17-111"/>
      <use transform="translate(211.298208 14.943915)scale(0.996264)" xlink:href="#CMR17-114"/>
      <use transform="translate(246.578976 14.943915)scale(0.996264)" xlink:href="#CMR17-109"/>
      <use transform="translate(353.574532 14.943915)scale(0.996264)" xlink:href="#CMR17-111"/>
      <use transform="translate(399.265009 14.943915)scale(0.996264)" xlink:href="#CMR17-102"/>
      <use transform="translate(456.814488 14.943915)scale(0.996264)" xlink:href="#CMR17-101"/>
      <use transform="translate(497.300148 14.943915)scale(0.996264)" xlink:href="#CMR17-114"/>
      <use transform="translate(532.580916 14.943915)scale(0.996264)" xlink:href="#CMR17-114"/>
      <use transform="translate(567.861684 14.943915)scale(0.996264)" xlink:href="#CMR17-111"/>
      <use transform="translate(613.552161 14.943915)scale(0.996264)" xlink:href="#CMR17-114"/>
      <use transform="translate(648.832929 14.943915)scale(0.996264)" xlink:href="#CMR17-58"/>
      <use transform="translate(714.189648 14.943915)scale(0.996264)" xlink:href="#CMSY10-107"/>
      <use transform="translate(764.003031 14.943915)scale(0.996264)" xlink:href="#CMBX12-120"/>
      <use transform="translate(845.295413 14.943915)scale(0.996264)" xlink:href="#CMSY10-0"/>
      <use transform="translate(944.922088 14.943915)scale(0.996264)" xlink:href="#CMBX12-120"/>
      <use transform="translate(1004.075263 0)scale(0.697382)" xlink:href="#CMMI12-107"/>
      <use transform="translate(1042.428646 14.943915)scale(0.996264)" xlink:href="#CMSY10-107"/>
      <use transform="translate(1092.242029 0)scale(0.697382)" xlink:href="#CMBX12-65"/>
     </g>
    </g>
   </g>
   <g id="line2d_37">
    <path clip-path="url(#p8d7954bba3)" d="M 67.512633 19.982224 
L 69.042098 20.850796 
L 70.571564 21.406362 
L 73.630495 21.979479 
L 75.15996 22.21848 
L 76.689426 22.665509 
L 79.748357 22.997253 
L 82.807288 23.773494 
L 84.336754 24.434693 
L 87.395685 24.875083 
L 88.92515 26.181885 
L 90.454616 27.647755 
L 91.984081 28.574619 
L 93.513547 29.951173 
L 95.043012 30.922337 
L 96.572478 30.97155 
L 98.101943 31.689829 
L 99.631409 34.048618 
L 101.160874 34.178625 
L 102.69034 36.005627 
L 104.219805 36.233022 
L 105.749271 38.312659 
L 107.278736 38.605449 
L 108.808202 40.302038 
L 110.337667 42.882136 
L 111.867133 43.727046 
L 113.396598 44.055068 
L 114.926064 45.974667 
L 116.455529 46.420376 
L 117.984995 48.234109 
L 119.51446 49.644637 
L 121.043926 53.041831 
L 122.573391 54.008853 
L 124.102857 54.305621 
L 125.632322 54.731787 
L 127.161788 57.859229 
L 128.691253 60.482139 
L 130.220719 61.959132 
L 133.27965 62.385502 
L 134.809115 67.974247 
L 137.868046 68.098955 
L 140.926977 72.625139 
L 142.456443 74.432568 
L 143.985908 77.034821 
L 145.515374 78.399863 
L 147.044839 80.393878 
L 148.574305 81.073652 
L 150.10377 84.024954 
L 153.162701 85.33478 
L 154.692167 85.384183 
L 156.221632 86.046995 
L 157.751098 92.445722 
L 159.280563 93.615395 
L 160.810029 93.645711 
L 162.339495 94.671509 
L 163.86896 96.686642 
L 165.398426 98.971361 
L 166.927891 99.152691 
L 168.457357 101.841342 
L 169.986822 106.110765 
L 171.516288 106.799064 
L 173.045753 106.854212 
L 174.575219 107.640516 
L 176.104684 112.297668 
L 177.63415 115.701224 
L 179.163615 116.676502 
L 180.693081 119.400554 
L 182.222546 120.193616 
L 183.752012 122.312624 
L 185.281477 124.768428 
L 186.810943 125.029711 
L 188.340408 125.05243 
L 189.869874 126.338361 
L 191.399339 135.84532 
L 192.928805 136.266189 
L 194.45827 137.06499 
L 195.987736 138.118903 
L 197.517201 140.864501 
L 199.046667 145.209481 
L 200.576132 146.751122 
L 202.105598 147.157169 
L 203.635063 148.231645 
L 205.164529 148.362342 
L 206.693994 154.249736 
L 208.22346 154.440193 
L 209.752925 159.683661 
L 211.282391 159.919258 
L 212.811856 160.322346 
L 214.341322 160.494823 
L 215.870787 160.525109 
L 217.400253 161.347474 
L 218.929718 163.34066 
L 220.459184 169.648178 
L 221.988649 170.209541 
L 223.518115 170.245151 
L 225.04758 179.443853 
L 226.577046 181.036802 
L 228.106511 183.242752 
L 229.635977 184.211313 
L 232.694908 184.520842 
L 234.224373 194.668676 
L 240.342235 194.787386 
L 241.871701 195.05975 
L 252.57796 195.204579 
L 310.697649 195.20596 
L 371.876269 195.20596 
L 371.876269 195.20596 
" style="fill:none;stroke:#93a1a1;stroke-linecap:square;stroke-width:1.5;"/>
    <defs>
     <path d="M 0 3 
C 0.795609 3 1.55874 2.683901 2.12132 2.12132 
C 2.683901 1.55874 3 0.795609 3 0 
C 3 -0.795609 2.683901 -1.55874 2.12132 -2.12132 
C 1.55874 -2.683901 0.795609 -3 0 -3 
C -0.795609 -3 -1.55874 -2.683901 -2.12132 -2.12132 
C -2.683901 -1.55874 -3 -0.795609 -3 0 
C -3 0.795609 -2.683901 1.55874 -2.12132 2.12132 
C -1.55874 2.683901 -0.795609 3 0 3 
z
" id="mca4e298259" style="stroke:#93a1a1;"/>
    </defs>
    <g clip-path="url(#p8d7954bba3)">
     <use style="fill:#93a1a1;stroke:#93a1a1;" x="67.512633" xlink:href="#mca4e298259" y="19.982224"/>
     <use style="fill:#93a1a1;stroke:#93a1a1;" x="128.691253" xlink:href="#mca4e298259" y="60.482139"/>
     <use style="fill:#93a1a1;stroke:#93a1a1;" x="189.869874" xlink:href="#mca4e298259" y="126.338361"/>
     <use style="fill:#93a1a1;stroke:#93a1a1;" x="251.048494" xlink:href="#mca4e298259" y="195.193082"/>
     <use style="fill:#93a1a1;stroke:#93a1a1;" x="312.227114" xlink:href="#mca4e298259" y="195.20596"/>
    </g>
   </g>
   <g id="line2d_38">
    <path clip-path="url(#p8d7954bba3)" d="M 67.512633 19.982224 
L 69.042098 20.850796 
L 70.571564 21.406362 
L 73.630495 21.979479 
L 75.15996 22.21848 
L 76.689426 22.665509 
L 79.748357 22.997253 
L 82.807288 23.773494 
L 84.336754 24.434693 
L 87.395685 24.875083 
L 88.92515 26.181885 
L 90.454616 27.647756 
L 91.984081 28.574598 
L 93.513547 29.950689 
L 95.043012 30.299484 
L 98.101943 31.689824 
L 99.631409 34.088985 
L 101.160874 34.195801 
L 102.69034 35.980926 
L 104.219805 36.072125 
L 105.749271 38.177578 
L 107.278736 38.383889 
L 108.808202 40.297976 
L 110.337667 40.396004 
L 111.867133 43.689766 
L 113.396598 43.789693 
L 114.926064 45.875744 
L 116.455529 45.99419 
L 117.984995 48.584702 
L 119.51446 49.644503 
L 121.043926 52.562531 
L 122.573391 53.988998 
L 125.632322 54.360125 
L 127.161788 57.84542 
L 128.691253 58.061805 
L 130.220719 60.782712 
L 131.750184 62.171764 
L 133.27965 62.284404 
L 134.809115 66.293367 
L 136.338581 67.080665 
L 137.868046 68.083914 
L 139.397512 68.398953 
L 140.926977 74.157191 
L 143.985908 74.551487 
L 145.515374 74.753215 
L 147.044839 80.212052 
L 148.574305 80.603824 
L 150.10377 80.631186 
L 151.633236 82.463848 
L 153.162701 84.682094 
L 156.221632 85.490081 
L 157.751098 87.425129 
L 159.280563 93.550947 
L 162.339495 93.689509 
L 163.86896 94.387412 
L 165.398426 99.07552 
L 166.927891 99.415333 
L 168.457357 99.614766 
L 169.986822 104.382149 
L 171.516288 106.28472 
L 173.045753 106.508097 
L 177.63415 106.619889 
L 179.163615 108.434695 
L 180.693081 116.006451 
L 182.222546 116.356491 
L 183.752012 122.567828 
L 185.281477 123.410508 
L 186.810943 123.767602 
L 188.340408 125.389781 
L 191.399339 125.672053 
L 192.928805 134.93084 
L 194.45827 135.499515 
L 195.987736 136.819019 
L 199.046667 136.968771 
L 200.576132 137.847646 
L 202.105598 140.081182 
L 203.635063 142.554185 
L 205.164529 147.306275 
L 206.693994 147.876793 
L 208.22346 148.952514 
L 209.752925 149.095452 
L 211.282391 149.82446 
L 212.811856 150.043984 
L 215.870787 159.989581 
L 217.400253 160.490257 
L 218.929718 160.690033 
L 220.459184 166.913458 
L 221.988649 167.014321 
L 223.518115 167.85991 
L 225.04758 170.840966 
L 226.577046 171.783817 
L 228.106511 172.95048 
L 229.635977 183.397428 
L 231.165442 184.052528 
L 237.283304 184.721831 
L 238.81277 188.894625 
L 240.342235 189.053946 
L 241.871701 189.643424 
L 243.401167 190.458148 
L 244.930632 194.528975 
L 371.876269 194.614393 
L 371.876269 194.614393 
" style="fill:none;stroke:#93a1a1;stroke-linecap:square;stroke-width:1.5;"/>
    <defs>
     <path d="M 0 -3 
L -3 3 
L 3 3 
z
" id="mab4a9d08a4" style="stroke:#93a1a1;stroke-linejoin:miter;"/>
    </defs>
    <g clip-path="url(#p8d7954bba3)">
     <use style="fill:#93a1a1;stroke:#93a1a1;stroke-linejoin:miter;" x="82.807288" xlink:href="#mab4a9d08a4" y="23.773494"/>
     <use style="fill:#93a1a1;stroke:#93a1a1;stroke-linejoin:miter;" x="143.985908" xlink:href="#mab4a9d08a4" y="74.551487"/>
     <use style="fill:#93a1a1;stroke:#93a1a1;stroke-linejoin:miter;" x="205.164529" xlink:href="#mab4a9d08a4" y="147.306275"/>
     <use style="fill:#93a1a1;stroke:#93a1a1;stroke-linejoin:miter;" x="266.343149" xlink:href="#mab4a9d08a4" y="194.614393"/>
     <use style="fill:#93a1a1;stroke:#93a1a1;stroke-linejoin:miter;" x="327.52177" xlink:href="#mab4a9d08a4" y="194.614393"/>
    </g>
   </g>
   <g id="line2d_39">
    <path clip-path="url(#p8d7954bba3)" d="M 67.512633 19.982224 
L 69.042098 20.850796 
L 70.571564 21.406362 
L 73.630495 21.979479 
L 75.15996 22.21848 
L 76.689426 22.665509 
L 79.748357 22.997253 
L 82.807288 23.773494 
L 84.336754 24.434693 
L 87.395685 24.875083 
L 88.92515 26.181885 
L 90.454616 27.647756 
L 91.984081 28.574587 
L 93.513547 29.949256 
L 95.043012 30.154532 
L 98.101943 31.689814 
L 99.631409 33.682528 
L 101.160874 34.169853 
L 102.69034 35.9856 
L 104.219805 36.078498 
L 105.749271 37.949902 
L 107.278736 38.380158 
L 108.808202 40.300022 
L 110.337667 40.481289 
L 111.867133 43.611223 
L 113.396598 43.780547 
L 114.926064 45.798555 
L 117.984995 46.081185 
L 119.51446 49.643087 
L 121.043926 50.168323 
L 122.573391 53.976903 
L 125.632322 54.226137 
L 127.161788 57.651905 
L 128.691253 57.93767 
L 130.220719 57.991998 
L 131.750184 60.456887 
L 133.27965 62.104829 
L 134.809115 62.330962 
L 136.338581 62.382716 
L 137.868046 67.962694 
L 139.397512 68.199634 
L 140.926977 68.236753 
L 142.456443 70.21938 
L 143.985908 74.462274 
L 145.515374 74.744862 
L 147.044839 74.858367 
L 148.574305 79.081102 
L 150.10377 79.936626 
L 151.633236 80.64395 
L 153.162701 80.666993 
L 154.692167 81.577089 
L 156.221632 85.142966 
L 159.280563 85.534453 
L 162.339495 93.21643 
L 165.398426 93.973698 
L 168.457357 94.060448 
L 169.986822 94.955726 
L 171.516288 98.489142 
L 173.045753 99.10118 
L 174.575219 99.218615 
L 177.63415 100.128268 
L 179.163615 106.551249 
L 182.222546 106.70117 
L 183.752012 114.066533 
L 185.281477 114.769599 
L 186.810943 115.722163 
L 189.869874 115.869356 
L 191.399339 116.22783 
L 192.928805 116.299709 
L 194.45827 120.42013 
L 195.987736 122.138914 
L 199.046667 123.852006 
L 200.576132 125.130395 
L 202.105598 125.864187 
L 205.164529 125.907536 
L 206.693994 126.130564 
L 208.22346 126.604345 
L 209.752925 132.446186 
L 211.282391 135.289047 
L 212.811856 136.131634 
L 214.341322 138.047067 
L 217.400253 138.117492 
L 218.929718 138.322656 
L 220.459184 138.397976 
L 221.988649 139.604836 
L 223.518115 142.007864 
L 225.04758 145.682142 
L 226.577046 147.508134 
L 228.106511 148.199226 
L 231.165442 148.325998 
L 232.694908 149.415633 
L 235.753839 149.965742 
L 237.283304 150.533528 
L 238.81277 150.874533 
L 240.342235 152.134529 
L 241.871701 154.629522 
L 243.401167 160.078905 
L 244.930632 160.674088 
L 246.460098 160.848154 
L 247.989563 161.395327 
L 249.519029 161.622771 
L 252.57796 161.694661 
L 254.107425 162.070077 
L 255.636891 162.728724 
L 257.166356 166.454009 
L 261.754753 167.124869 
L 263.284218 172.676922 
L 266.343149 172.903636 
L 270.931546 173.172713 
L 272.461011 173.980515 
L 275.519942 174.943854 
L 277.049408 177.345486 
L 278.578873 177.757498 
L 280.108339 179.294919 
L 281.637804 183.571355 
L 283.16727 184.974309 
L 286.226201 185.56295 
L 289.285132 186.114254 
L 290.814597 186.2762 
L 292.344063 186.684003 
L 293.873528 187.79245 
L 299.99139 188.089594 
L 303.050321 188.806071 
L 304.579787 189.784236 
L 306.109252 190.177668 
L 309.168183 191.60127 
L 310.697649 193.285575 
L 312.227114 194.163955 
L 313.75658 194.500721 
L 315.286045 194.67802 
L 333.639632 194.91309 
L 371.876269 194.928147 
L 371.876269 194.928147 
" style="fill:none;stroke:#93a1a1;stroke-linecap:square;stroke-width:1.5;"/>
    <defs>
     <path d="M -0 3 
L 3 -3 
L -3 -3 
z
" id="m028375ee26" style="stroke:#93a1a1;stroke-linejoin:miter;"/>
    </defs>
    <g clip-path="url(#p8d7954bba3)">
     <use style="fill:#93a1a1;stroke:#93a1a1;stroke-linejoin:miter;" x="98.101943" xlink:href="#m028375ee26" y="31.689814"/>
     <use style="fill:#93a1a1;stroke:#93a1a1;stroke-linejoin:miter;" x="159.280563" xlink:href="#m028375ee26" y="85.534453"/>
     <use style="fill:#93a1a1;stroke:#93a1a1;stroke-linejoin:miter;" x="220.459184" xlink:href="#m028375ee26" y="138.397976"/>
     <use style="fill:#93a1a1;stroke:#93a1a1;stroke-linejoin:miter;" x="281.637804" xlink:href="#m028375ee26" y="183.571355"/>
     <use style="fill:#93a1a1;stroke:#93a1a1;stroke-linejoin:miter;" x="342.816425" xlink:href="#m028375ee26" y="194.92956"/>
    </g>
   </g>
   <g id="line2d_40">
    <path clip-path="url(#p8d7954bba3)" d="M 67.512633 19.982224 
L 69.042098 20.850796 
L 70.571564 21.406362 
L 73.630495 21.979479 
L 75.15996 22.21848 
L 76.689426 22.665509 
L 79.748357 22.997253 
L 82.807288 23.773494 
L 84.336754 24.434693 
L 87.395685 24.875083 
L 88.92515 26.181885 
L 90.454616 27.647755 
L 91.984081 28.574613 
L 93.513547 29.951384 
L 95.043012 30.864999 
L 96.572478 30.969846 
L 98.101943 31.68979 
L 99.631409 33.870787 
L 101.160874 34.17104 
L 102.69034 35.764212 
L 104.219805 36.05677 
L 105.749271 37.977481 
L 107.278736 38.380194 
L 108.808202 40.077774 
L 110.337667 40.346561 
L 111.867133 43.52505 
L 114.926064 43.9666 
L 116.455529 45.459572 
L 117.984995 46.067827 
L 119.51446 49.27286 
L 122.573391 50.19047 
L 124.102857 52.448078 
L 125.632322 54.109439 
L 127.161788 55.108255 
L 128.691253 57.439156 
L 130.220719 57.980676 
L 131.750184 58.279283 
L 133.27965 61.490737 
L 134.809115 61.86462 
L 136.338581 62.354901 
L 137.868046 63.175643 
L 139.397512 68.082424 
L 143.985908 68.533637 
L 145.515374 70.810658 
L 147.044839 74.599621 
L 150.10377 74.708684 
L 151.633236 75.942812 
L 153.162701 78.526883 
L 154.692167 80.609074 
L 156.221632 80.74624 
L 159.280563 81.56996 
L 160.810029 85.412786 
L 162.339495 85.756884 
L 165.398426 85.867958 
L 166.927891 86.1062 
L 168.457357 93.499177 
L 169.986822 94.020175 
L 171.516288 94.30822 
L 173.045753 94.982207 
L 176.104684 96.937362 
L 177.63415 99.356121 
L 179.163615 99.617116 
L 182.222546 99.828165 
L 185.281477 100.960411 
L 186.810943 102.575108 
L 188.340408 106.609858 
L 189.869874 107.307217 
L 191.399339 107.487952 
L 192.928805 108.568832 
L 195.987736 110.049894 
L 197.517201 111.250519 
L 199.046667 112.141644 
L 200.576132 116.596901 
L 203.635063 116.723226 
L 205.164529 116.769932 
L 208.22346 117.018556 
L 209.752925 120.216333 
L 211.282391 121.847164 
L 212.811856 122.124388 
L 215.870787 126.857497 
L 217.400253 127.002876 
L 218.929718 127.029828 
L 220.459184 127.608407 
L 221.988649 128.029318 
L 223.518115 129.304665 
L 226.577046 131.25379 
L 228.106511 133.44295 
L 229.635977 135.854294 
L 231.165442 137.554007 
L 232.694908 137.609111 
L 234.224373 138.466798 
L 238.81277 138.63554 
L 240.342235 138.88018 
L 243.401167 139.861067 
L 244.930632 141.617829 
L 249.519029 141.669887 
L 263.284218 141.511948 
L 264.813684 141.149313 
L 267.872615 140.976864 
L 280.108339 140.77128 
L 283.16727 140.57668 
L 284.696735 140.395547 
L 286.226201 140.351408 
L 287.755666 139.562541 
L 289.285132 138.994749 
L 290.814597 136.944554 
L 292.344063 120.097386 
L 293.873528 135.967754 
L 295.402994 139.088238 
L 296.932459 147.322613 
L 298.461925 145.570033 
L 299.99139 144.730639 
L 301.520856 144.15718 
L 303.050321 144.023479 
L 304.579787 143.749786 
L 309.168183 143.31404 
L 312.227114 142.83802 
L 316.815511 142.630192 
L 318.344976 142.251446 
L 319.874442 142.066563 
L 321.403907 141.766123 
L 324.462838 140.876756 
L 327.52177 140.293313 
L 329.051235 139.766232 
L 330.580701 130.990064 
L 332.110166 143.639967 
L 333.639632 146.440317 
L 335.169097 145.221578 
L 338.228028 144.981908 
L 339.757494 143.854289 
L 345.875356 143.246628 
L 347.404821 143.192781 
L 350.463752 142.754156 
L 351.993218 142.005684 
L 353.522683 140.041178 
L 355.052149 138.478007 
L 356.581614 135.96579 
L 358.11108 139.646485 
L 359.640545 146.751091 
L 361.170011 147.232353 
L 362.699476 145.637735 
L 364.228942 145.27927 
L 365.758407 145.177091 
L 367.287873 144.902662 
L 370.346804 144.552509 
L 371.876269 144.268827 
L 371.876269 144.268827 
" style="fill:none;stroke:#93a1a1;stroke-linecap:square;stroke-width:1.5;"/>
    <defs>
     <path d="M -3 3 
L 3 3 
L 3 -3 
L -3 -3 
z
" id="m0398d7c5ba" style="stroke:#93a1a1;stroke-linejoin:miter;"/>
    </defs>
    <g clip-path="url(#p8d7954bba3)">
     <use style="fill:#93a1a1;stroke:#93a1a1;stroke-linejoin:miter;" x="113.396598" xlink:href="#m0398d7c5ba" y="43.778973"/>
     <use style="fill:#93a1a1;stroke:#93a1a1;stroke-linejoin:miter;" x="174.575219" xlink:href="#m0398d7c5ba" y="95.928296"/>
     <use style="fill:#93a1a1;stroke:#93a1a1;stroke-linejoin:miter;" x="235.753839" xlink:href="#m0398d7c5ba" y="138.512308"/>
     <use style="fill:#93a1a1;stroke:#93a1a1;stroke-linejoin:miter;" x="296.932459" xlink:href="#m0398d7c5ba" y="147.322613"/>
     <use style="fill:#93a1a1;stroke:#93a1a1;stroke-linejoin:miter;" x="358.11108" xlink:href="#m0398d7c5ba" y="139.646485"/>
    </g>
   </g>
   <g id="line2d_41">
    <path clip-path="url(#p8d7954bba3)" d="M 67.512633 19.982224 
L 69.042098 20.850796 
L 70.571564 21.406362 
L 73.630495 21.979479 
L 75.15996 22.21848 
L 76.689426 22.665509 
L 79.748357 22.997253 
L 82.807288 23.773494 
L 84.336754 24.434693 
L 87.395685 24.875083 
L 88.92515 26.181885 
L 90.454616 27.647755 
L 91.984081 28.574616 
L 93.513547 29.95131 
L 95.043012 30.938608 
L 96.572478 31.016077 
L 98.101943 31.689717 
L 101.160874 34.167158 
L 102.69034 34.699749 
L 104.219805 36.05297 
L 105.749271 36.331742 
L 107.278736 38.370567 
L 108.808202 38.680616 
L 110.337667 40.345934 
L 111.867133 42.845001 
L 113.396598 43.7167 
L 114.926064 43.79245 
L 116.455529 44.011873 
L 117.984995 46.057692 
L 119.51446 46.369931 
L 121.043926 49.673735 
L 122.573391 49.711942 
L 124.102857 50.882941 
L 125.632322 53.166204 
L 127.161788 54.13028 
L 128.691253 54.300028 
L 131.750184 55.196147 
L 133.27965 57.893369 
L 134.809115 58.162942 
L 136.338581 58.995427 
L 137.868046 61.630752 
L 139.397512 62.526021 
L 140.926977 62.618527 
L 142.456443 65.280015 
L 143.985908 65.809395 
L 145.515374 67.750965 
L 147.044839 68.389703 
L 148.574305 68.440971 
L 151.633236 68.992881 
L 153.162701 74.838674 
L 154.692167 74.878681 
L 156.221632 75.130853 
L 157.751098 75.644006 
L 159.280563 75.930396 
L 160.810029 80.294511 
L 165.398426 81.322449 
L 166.927891 81.436277 
L 168.457357 82.360149 
L 169.986822 84.738446 
L 171.516288 86.078789 
L 177.63415 86.535981 
L 179.163615 88.508127 
L 180.693081 92.434702 
L 182.222546 94.523423 
L 183.752012 94.557097 
L 185.281477 95.273448 
L 186.810943 95.36828 
L 188.340408 95.583824 
L 189.869874 96.268424 
L 191.399339 98.708395 
L 192.928805 100.231236 
L 194.45827 100.408268 
L 195.987736 100.458885 
L 200.576132 101.11088 
L 202.105598 104.002176 
L 203.635063 106.211543 
L 206.693994 108.097973 
L 208.22346 108.317659 
L 211.282391 108.57588 
L 214.341322 108.81756 
L 215.870787 109.162139 
L 217.400253 114.692077 
L 218.929718 115.283828 
L 220.459184 115.456288 
L 221.988649 116.755428 
L 225.04758 117.468054 
L 228.106511 117.593586 
L 231.165442 117.734215 
L 232.694908 118.399576 
L 234.224373 119.902638 
L 235.753839 120.332724 
L 237.283304 123.203015 
L 238.81277 125.399641 
L 240.342235 126.758086 
L 241.871701 127.406919 
L 244.930632 127.517143 
L 247.989563 127.81907 
L 251.048494 128.078416 
L 252.57796 129.189369 
L 254.107425 130.733344 
L 257.166356 134.636445 
L 258.695822 134.867732 
L 263.284218 136.310035 
L 264.813684 136.634701 
L 266.343149 137.795728 
L 267.872615 138.124154 
L 275.519942 138.739207 
L 277.049408 138.779108 
L 280.108339 138.977467 
L 283.16727 139.141464 
L 284.696735 140.007661 
L 295.402994 141.371943 
L 299.99139 141.399895 
L 370.346804 141.176014 
L 370.346804 141.176014 
" style="fill:none;stroke:#6c71c4;stroke-linecap:square;stroke-width:1.5;"/>
   </g>
   <g id="line2d_42">
    <path clip-path="url(#p8d7954bba3)" d="M 67.512633 19.982224 
L 69.042098 20.850796 
L 70.571564 21.406362 
L 73.630495 21.979479 
L 75.15996 22.21848 
L 76.689426 22.665509 
L 79.748357 22.997253 
L 82.807288 23.773494 
L 84.336754 24.434693 
L 87.395685 24.875083 
L 88.92515 26.181885 
L 90.454616 27.647756 
L 91.984081 28.574588 
L 93.513547 29.949415 
L 95.043012 30.162941 
L 98.101943 31.689822 
L 99.631409 34.110741 
L 101.160874 34.465607 
L 102.69034 35.936911 
L 104.219805 36.060481 
L 105.749271 38.279056 
L 107.278736 38.40069 
L 108.808202 40.291209 
L 110.337667 40.365831 
L 111.867133 43.593833 
L 114.926064 43.900587 
L 116.455529 45.97231 
L 117.984995 46.099017 
L 119.51446 49.637458 
L 121.043926 49.793073 
L 122.573391 53.021324 
L 124.102857 54.088593 
L 125.632322 54.258602 
L 127.161788 57.821577 
L 128.691253 57.877477 
L 130.220719 58.054669 
L 131.750184 60.234866 
L 133.27965 62.120137 
L 134.809115 62.349428 
L 136.338581 62.443132 
L 137.868046 68.073807 
L 139.397512 68.133511 
L 140.926977 68.389669 
L 142.456443 70.053823 
L 143.985908 74.153123 
L 147.044839 75.116854 
L 148.574305 75.237481 
L 150.10377 76.150114 
L 151.633236 77.971519 
L 153.162701 80.649751 
L 154.692167 85.126571 
L 156.221632 85.221611 
L 157.751098 85.451101 
L 160.810029 85.588314 
L 162.339495 87.95252 
L 163.86896 93.71791 
L 168.457357 94.025744 
L 169.986822 95.086284 
L 171.516288 96.916497 
L 173.045753 97.363035 
L 174.575219 99.466608 
L 176.104684 99.603026 
L 177.63415 99.944782 
L 179.163615 100.614732 
L 180.693081 105.737828 
L 182.222546 106.437761 
L 185.281477 106.655387 
L 186.810943 107.283564 
L 188.340408 112.147653 
L 189.869874 113.681769 
L 191.399339 116.069748 
L 197.517201 116.503093 
L 199.046667 119.175572 
L 200.576132 119.565723 
L 202.105598 120.420718 
L 203.635063 122.501377 
L 205.164529 123.831722 
L 206.693994 125.516429 
L 208.22346 126.066744 
L 209.752925 126.089897 
L 211.282391 127.924963 
L 214.341322 133.944789 
L 215.870787 137.00451 
L 217.400253 138.087096 
L 220.459184 138.260314 
L 221.988649 138.282866 
L 225.04758 138.524857 
L 226.577046 139.109931 
L 228.106511 142.590735 
L 229.635977 147.041937 
L 231.165442 147.234264 
L 232.694908 147.606347 
L 234.224373 149.248694 
L 235.753839 149.545846 
L 237.283304 149.608562 
L 240.342235 149.889392 
L 241.871701 149.955432 
L 243.401167 150.224725 
L 244.930632 151.590691 
L 247.989563 153.580073 
L 249.519029 155.967399 
L 251.048494 157.777437 
L 252.57796 158.863285 
L 254.107425 161.599821 
L 255.636891 161.648742 
L 257.166356 162.012753 
L 258.695822 162.10463 
L 261.754753 163.604201 
L 263.284218 164.819785 
L 266.343149 165.411797 
L 267.872615 165.965376 
L 269.40208 168.780974 
L 270.931546 170.092829 
L 272.461011 171.952997 
L 273.990477 172.596128 
L 275.519942 172.836968 
L 277.049408 173.444973 
L 280.108339 173.657331 
L 281.637804 173.721869 
L 283.16727 173.945312 
L 284.696735 174.641581 
L 286.226201 176.87413 
L 289.285132 177.759498 
L 290.814597 177.935782 
L 292.344063 179.292578 
L 295.402994 181.548022 
L 296.932459 182.976385 
L 298.461925 183.574833 
L 299.99139 184.488287 
L 301.520856 184.733425 
L 304.579787 184.824243 
L 310.697649 184.948999 
L 313.75658 185.090829 
L 319.874442 186.022795 
L 321.403907 186.149001 
L 324.462838 186.666338 
L 329.051235 186.806178 
L 330.580701 186.968551 
L 338.228028 187.112847 
L 365.758407 187.253383 
L 371.876269 187.253383 
L 371.876269 187.253383 
" style="fill:none;stroke:#859900;stroke-dasharray:1.5,2.475;stroke-dashoffset:0;stroke-width:1.5;"/>
   </g>
   <g id="line2d_43">
    <path clip-path="url(#p8d7954bba3)" d="M 67.512633 19.982224 
L 69.042098 20.850796 
L 70.571564 21.406362 
L 73.630495 21.979479 
L 75.15996 22.21848 
L 76.689426 22.665509 
L 79.748357 22.997253 
L 82.807288 23.773494 
L 84.336754 24.434693 
L 87.395685 24.875083 
L 88.92515 26.181886 
L 90.454616 27.647748 
L 91.984081 28.574725 
L 93.513547 29.808628 
L 95.043012 30.007792 
L 96.572478 30.967464 
L 98.101943 31.689708 
L 99.631409 33.129482 
L 101.160874 34.16899 
L 102.69034 35.952855 
L 104.219805 36.06523 
L 105.749271 38.100122 
L 107.278736 38.38208 
L 108.808202 40.298032 
L 110.337667 40.465853 
L 111.867133 43.602721 
L 114.926064 43.80472 
L 116.455529 45.987384 
L 117.984995 46.15782 
L 119.51446 49.633419 
L 121.043926 49.715837 
L 122.573391 53.140481 
L 124.102857 53.778919 
L 125.632322 54.114635 
L 127.161788 56.411307 
L 128.691253 57.795673 
L 131.750184 58.010134 
L 133.27965 58.468364 
L 134.809115 62.202522 
L 136.338581 62.692534 
L 137.868046 67.892186 
L 139.397512 68.105086 
L 140.926977 68.490257 
L 142.456443 69.105877 
L 143.985908 74.400807 
L 148.574305 74.702437 
L 150.10377 79.437113 
L 153.162701 80.594155 
L 154.692167 80.678782 
L 156.221632 81.640454 
L 157.751098 84.634842 
L 159.280563 85.230222 
L 160.810029 85.596283 
L 162.339495 86.195638 
L 163.86896 87.207491 
L 165.398426 89.440846 
L 166.927891 90.3728 
L 168.457357 93.423888 
L 169.986822 94.012145 
L 171.516288 95.064136 
L 173.045753 97.498593 
L 174.575219 99.006664 
L 176.104684 99.092401 
L 177.63415 99.620755 
L 179.163615 99.65981 
L 182.222546 106.474162 
L 185.281477 106.725248 
L 186.810943 107.868872 
L 188.340408 108.096617 
L 189.869874 115.146722 
L 191.399339 115.935304 
L 192.928805 116.105613 
L 197.517201 116.233989 
L 199.046667 117.931868 
L 200.576132 121.727002 
L 202.105598 124.382584 
L 205.164529 125.369873 
L 206.693994 125.876013 
L 211.282391 126.28182 
L 212.811856 126.676185 
L 214.341322 128.147867 
L 215.870787 129.906325 
L 217.400253 130.391399 
L 218.929718 137.557572 
L 220.459184 138.004939 
L 221.988649 138.052427 
L 225.04758 138.409674 
L 226.577046 141.781166 
L 228.106511 143.986788 
L 229.635977 145.073165 
L 231.165442 145.851603 
L 232.694908 146.111091 
L 234.224373 146.646333 
L 235.753839 147.997593 
L 237.283304 148.715171 
L 238.81277 149.660372 
L 243.401167 149.994099 
L 244.930632 151.443019 
L 246.460098 153.273958 
L 247.989563 155.300919 
L 249.519029 160.416532 
L 251.048494 160.685537 
L 254.107425 160.881368 
L 255.636891 161.468887 
L 257.166356 161.763304 
L 258.695822 162.568027 
L 260.225287 162.717478 
L 261.754753 163.374874 
L 263.284218 163.408381 
L 264.813684 163.672424 
L 266.343149 164.289178 
L 267.872615 164.746062 
L 269.40208 166.713572 
L 270.931546 170.869785 
L 272.461011 172.290777 
L 273.990477 172.436393 
L 275.519942 172.702466 
L 277.049408 172.850709 
L 278.578873 173.430169 
L 283.16727 173.78287 
L 284.696735 174.188086 
L 286.226201 174.420877 
L 287.755666 175.714662 
L 289.285132 176.791913 
L 290.814597 177.335257 
L 292.344063 177.575977 
L 295.402994 178.269232 
L 296.932459 179.318867 
L 298.461925 186.579388 
L 299.99139 187.255048 
L 306.109252 187.636007 
L 307.638718 187.777234 
L 309.168183 188.394703 
L 310.697649 188.579352 
L 312.227114 188.98634 
L 313.75658 189.240446 
L 315.286045 189.623106 
L 318.344976 190.128913 
L 319.874442 190.801413 
L 324.462838 191.689146 
L 325.992304 191.969449 
L 327.52177 192.37419 
L 329.051235 192.627793 
L 330.580701 193.015051 
L 332.110166 193.13272 
L 333.639632 193.37334 
L 335.169097 193.980992 
L 336.698563 194.458804 
L 344.34589 195.067349 
L 359.640545 195.110173 
L 371.876269 195.126166 
L 371.876269 195.126166 
" style="fill:none;stroke:#073642;stroke-dasharray:1.5,2.475;stroke-dashoffset:0;stroke-width:1.5;"/>
   </g>
   <g id="line2d_44">
    <path clip-path="url(#p8d7954bba3)" d="M 67.512633 19.982224 
L 69.042098 20.850796 
L 70.571564 21.406362 
L 73.630495 21.979479 
L 75.15996 22.21848 
L 76.689426 22.665509 
L 79.748357 22.997253 
L 82.807288 23.773494 
L 84.336754 24.434693 
L 87.395685 24.875083 
L 88.92515 26.181886 
L 90.454616 27.647748 
L 91.984081 28.574726 
L 93.513547 29.796344 
L 95.043012 30.007377 
L 96.572478 30.967467 
L 98.101943 31.689571 
L 99.631409 32.726168 
L 101.160874 34.158635 
L 102.69034 34.308558 
L 104.219805 36.040645 
L 105.749271 36.146419 
L 107.278736 38.376971 
L 108.808202 39.038654 
L 110.337667 40.263969 
L 111.867133 40.364419 
L 113.396598 42.985047 
L 114.926064 43.794452 
L 116.455529 45.062711 
L 117.984995 46.067486 
L 119.51446 49.585095 
L 124.102857 49.8312 
L 125.632322 50.276582 
L 127.161788 53.162675 
L 128.691253 54.113022 
L 130.220719 54.188588 
L 131.750184 54.437539 
L 133.27965 57.024033 
L 134.809115 58.145057 
L 136.338581 58.230581 
L 137.868046 62.234596 
L 139.397512 62.35245 
L 140.926977 62.585222 
L 143.985908 62.832299 
L 145.515374 67.96408 
L 148.574305 68.419327 
L 150.10377 68.96819 
L 151.633236 69.178154 
L 153.162701 74.748593 
L 156.221632 74.919674 
L 157.751098 76.953411 
L 159.280563 77.832107 
L 160.810029 78.880376 
L 162.339495 80.749843 
L 163.86896 81.078632 
L 168.457357 81.326277 
L 169.986822 83.638863 
L 171.516288 85.154435 
L 173.045753 85.638479 
L 177.63415 86.189258 
L 179.163615 86.787629 
L 180.693081 86.891556 
L 182.222546 88.476004 
L 183.752012 94.515492 
L 186.810943 94.598802 
L 188.340408 94.982101 
L 189.869874 95.094426 
L 191.399339 95.507269 
L 192.928805 96.242397 
L 194.45827 96.697714 
L 195.987736 99.408596 
L 197.517201 100.212519 
L 200.576132 100.493286 
L 203.635063 100.690973 
L 205.164529 104.972125 
L 206.693994 106.387933 
L 208.22346 107.337044 
L 209.752925 107.414279 
L 211.282391 107.731534 
L 212.811856 107.865498 
L 220.459184 109.409572 
L 221.988649 115.335499 
L 223.518115 116.328186 
L 229.635977 117.001105 
L 231.165442 117.524464 
L 232.694908 117.600341 
L 234.224373 118.009323 
L 235.753839 118.742074 
L 237.283304 119.607313 
L 238.81277 121.28545 
L 240.342235 122.502371 
L 243.401167 125.867321 
L 244.930632 126.55837 
L 247.989563 126.874473 
L 251.048494 127.866662 
L 255.636891 128.427089 
L 257.166356 128.517016 
L 260.225287 128.93813 
L 263.284218 130.24564 
L 264.813684 131.148988 
L 266.343149 135.044789 
L 267.872615 135.968518 
L 269.40208 136.491828 
L 270.931546 137.432858 
L 272.461011 137.94291 
L 273.990477 138.160417 
L 278.578873 138.38098 
L 280.108339 138.403891 
L 283.16727 138.669626 
L 287.755666 139.007182 
L 290.814597 139.758265 
L 292.344063 140.06031 
L 298.461925 140.492719 
L 301.520856 140.78163 
L 306.109252 141.344619 
L 310.697649 141.498342 
L 322.933373 141.502504 
L 371.876269 141.197938 
L 371.876269 141.197938 
" style="fill:none;stroke:#2aa198;stroke-linecap:square;stroke-width:1.5;"/>
   </g>
   <g id="line2d_45">
    <path clip-path="url(#p8d7954bba3)" d="M 67.512633 19.982224 
L 69.042098 20.850796 
L 70.571564 21.406362 
L 73.630495 21.979479 
L 75.15996 22.21848 
L 76.689426 22.665509 
L 79.748357 22.997253 
L 82.807288 23.773494 
L 84.336754 24.434693 
L 87.395685 24.875083 
L 88.92515 26.181886 
L 90.454616 27.647749 
L 91.984081 28.574721 
L 93.513547 29.834538 
L 95.043012 30.008949 
L 96.572478 30.967459 
L 99.631409 32.461906 
L 101.160874 34.168543 
L 102.69034 35.431144 
L 104.219805 36.055877 
L 105.749271 36.83808 
L 107.278736 38.378589 
L 108.808202 40.204234 
L 110.337667 40.350041 
L 111.867133 43.224509 
L 113.396598 43.634664 
L 114.926064 43.798638 
L 116.455529 45.993523 
L 117.984995 48.510232 
L 119.51446 49.633519 
L 121.043926 49.710671 
L 122.573391 51.615824 
L 124.102857 54.003565 
L 125.632322 54.2281 
L 127.161788 56.497681 
L 128.691253 57.656672 
L 133.27965 58.095856 
L 134.809115 61.814072 
L 136.338581 62.349197 
L 137.868046 63.536945 
L 139.397512 68.069861 
L 142.456443 68.294778 
L 143.985908 74.103691 
L 147.044839 74.45038 
L 148.574305 74.647082 
L 150.10377 77.626393 
L 151.633236 79.584016 
L 153.162701 80.632889 
L 154.692167 80.658965 
L 156.221632 80.93468 
L 157.751098 83.032516 
L 159.280563 85.431059 
L 162.339495 85.555793 
L 163.86896 88.695444 
L 165.398426 89.917989 
L 166.927891 90.976955 
L 168.457357 92.221292 
L 169.986822 93.982782 
L 171.516288 94.030907 
L 173.045753 94.273653 
L 174.575219 96.039689 
L 176.104684 97.355354 
L 177.63415 97.583828 
L 179.163615 99.593296 
L 180.693081 99.62637 
L 182.222546 99.861363 
L 183.752012 106.368483 
L 185.281477 107.134111 
L 189.869874 107.389199 
L 191.399339 107.607774 
L 192.928805 108.110134 
L 194.45827 115.150838 
L 195.987736 116.130229 
L 202.105598 116.34173 
L 203.635063 117.994197 
L 205.164529 118.166021 
L 206.693994 123.569494 
L 208.22346 125.304145 
L 209.752925 125.924964 
L 211.282391 126.133736 
L 212.811856 126.803415 
L 214.341322 126.932367 
L 215.870787 127.395935 
L 217.400253 127.722077 
L 218.929718 130.226581 
L 220.459184 135.828357 
L 221.988649 137.405082 
L 223.518115 137.98274 
L 225.04758 138.220354 
L 231.165442 138.408931 
L 232.694908 139.1599 
L 234.224373 140.992711 
L 235.753839 145.930771 
L 237.283304 147.300334 
L 238.81277 148.05782 
L 240.342235 149.397926 
L 241.871701 149.509924 
L 243.401167 149.795416 
L 246.460098 149.884125 
L 247.989563 149.990764 
L 249.519029 150.296565 
L 251.048494 150.441655 
L 252.57796 152.126895 
L 254.107425 154.504679 
L 257.166356 157.899812 
L 258.695822 159.620454 
L 260.225287 161.148439 
L 261.754753 161.464864 
L 263.284218 161.500035 
L 264.813684 161.667487 
L 266.343149 162.626688 
L 267.872615 163.065014 
L 272.461011 163.514782 
L 273.990477 164.523986 
L 275.519942 164.895713 
L 277.049408 166.966515 
L 278.578873 167.744795 
L 280.108339 168.302497 
L 281.637804 171.488644 
L 283.16727 173.014364 
L 289.285132 173.596986 
L 290.814597 174.576254 
L 296.932459 176.201688 
L 299.99139 176.44204 
L 301.520856 176.90111 
L 303.050321 177.232926 
L 304.579787 179.774028 
L 306.109252 181.266744 
L 307.638718 185.043541 
L 312.227114 185.261707 
L 321.403907 185.453475 
L 329.051235 185.88385 
L 332.110166 186.051282 
L 333.639632 186.370845 
L 335.169097 186.961894 
L 338.228028 187.250825 
L 355.052149 187.555552 
L 371.876269 187.566253 
L 371.876269 187.566253 
" style="fill:none;stroke:#073642;stroke-linecap:square;stroke-width:1.5;"/>
   </g>
   <g id="patch_3">
    <path d="M 52.294451 232.46 
L 52.294451 10.7 
" style="fill:none;stroke:#000000;stroke-linecap:square;stroke-linejoin:miter;stroke-width:0.8;"/>
   </g>
   <g id="patch_4">
    <path d="M 387.094451 232.46 
L 387.094451 10.7 
" style="fill:none;stroke:#000000;stroke-linecap:square;stroke-linejoin:miter;stroke-width:0.8;"/>
   </g>
   <g id="patch_5">
    <path d="M 52.294451 232.46 
L 387.094451 232.46 
" style="fill:none;stroke:#000000;stroke-linecap:square;stroke-linejoin:miter;stroke-width:0.8;"/>
   </g>
   <g id="patch_6">
    <path d="M 52.294451 10.7 
L 387.094451 10.7 
" style="fill:none;stroke:#000000;stroke-linecap:square;stroke-linejoin:miter;stroke-width:0.8;"/>
   </g>
   <g id="legend_1">
    <g id="patch_7">
     <path d="M 394.094451 144.134605 
L 498.591371 144.134605 
Q 500.591371 144.134605 500.591371 142.134605 
L 500.591371 17.7 
Q 500.591371 15.7 498.591371 15.7 
L 394.094451 15.7 
Q 392.094451 15.7 392.094451 17.7 
L 392.094451 142.134605 
Q 392.094451 144.134605 394.094451 144.134605 
z
" style="fill:#ffffff;opacity:0.8;stroke:#cccccc;stroke-linejoin:miter;"/>
    </g>
    <g id="line2d_46">
     <path d="M 396.094451 23.2 
L 416.094451 23.2 
" style="fill:none;stroke:#073642;stroke-linecap:square;stroke-width:1.5;"/>
    </g>
    <g id="line2d_47"/>
    <g id="text_21">
     <!-- \textsc{pipe-PR-CG} -->
     <defs>
      <path d="M 32.296875 23 
C 42.296875 23 50.703125 29.296875 50.703125 36.890625 
C 50.703125 44.09375 43.09375 51 31.59375 51 
L 4.5 51 
L 4.5 48.484375 
C 11.203125 48.484375 11.703125 47.890625 11.703125 43.796875 
L 11.703125 7.109375 
C 11.703125 3.078125 11.203125 2.5 4.5 2.5 
L 4.5 0 
C 7.40625 0.09375 13.09375 0.296875 15.296875 0.296875 
C 17.5 0.296875 23.09375 0.09375 26.09375 0 
L 26.09375 2.5 
C 19.40625 2.5 18.90625 3.078125 18.90625 7.109375 
L 18.90625 23 
z
M 18.59375 44.1875 
C 18.59375 48.1875 19.09375 48.484375 22.59375 48.484375 
L 29.5 48.484375 
C 42.09375 48.484375 42.09375 40.890625 42.09375 36.890625 
C 42.09375 33 42.09375 25.296875 29.5 25.296875 
L 18.59375 25.296875 
z
" id="CMCSC10-112"/>
      <path d="M 18.703125 43.734375 
C 18.703125 48 19.203125 48.484375 26.296875 48.484375 
L 26.296875 51 
C 22.90625 50.890625 17.703125 50.6875 15.09375 50.6875 
C 12.5 50.6875 7.296875 50.890625 3.90625 51 
L 3.90625 48.484375 
C 11 48.484375 11.5 48 11.5 43.734375 
L 11.5 7.25 
C 11.5 2.984375 11 2.5 3.90625 2.5 
L 3.90625 0 
C 7.296875 0.09375 12.5 0.296875 15.09375 0.296875 
C 17.703125 0.296875 22.90625 0.09375 26.296875 0 
L 26.296875 2.5 
C 19.203125 2.5 18.703125 2.984375 18.703125 7.25 
z
" id="CMCSC10-105"/>
      <path d="M 48.796875 50.6875 
L 4.296875 50.6875 
L 4.296875 48.1875 
C 11 48.1875 11.5 47.59375 11.5 43.515625 
L 11.5 7.125 
C 11.5 3.078125 11 2.5 4.296875 2.5 
L 4.296875 0 
L 50 0 
L 52.90625 19.171875 
L 50.40625 19.171875 
C 48.703125 7.234375 46.296875 2.5 33.5 2.5 
L 22.703125 2.5 
C 19.203125 2.5 18.703125 2.78125 18.703125 6.734375 
L 18.703125 25 
L 25.703125 25 
C 33.09375 25 34.296875 23.015625 34.296875 16.40625 
L 36.796875 16.40625 
L 36.796875 36.15625 
L 34.296875 36.15625 
C 34.296875 29.484375 33.09375 27.5 25.703125 27.5 
L 18.703125 27.5 
L 18.703125 43.90625 
C 18.703125 47.890625 19.203125 48.1875 22.703125 48.1875 
L 32.90625 48.1875 
C 44.5 48.1875 47.09375 44.703125 48.203125 33.859375 
L 50.703125 33.859375 
z
" id="CMCSC10-101"/>
      <path d="M 30.5 19 
L 30.5 24.796875 
L 2.59375 24.796875 
L 2.59375 19 
z
" id="CMCSC10-45"/>
      <path d="M 43 31.390625 
C 55.203125 31.390625 66.90625 39.171875 66.90625 49.4375 
C 66.90625 59.3125 56.296875 68 42.203125 68 
L 5.703125 68 
L 5.703125 64.890625 
L 8.09375 64.890625 
C 15.796875 64.890625 16 63.796875 16 60.203125 
L 16 7.765625 
C 16 4.1875 15.796875 3.09375 8.09375 3.09375 
L 5.703125 3.09375 
L 5.703125 0 
C 9.203125 0.296875 16.59375 0.296875 20.40625 0.296875 
C 24.203125 0.296875 31.703125 0.296875 35.203125 0 
L 35.203125 3.09375 
L 32.796875 3.09375 
C 25.09375 3.09375 24.90625 4.1875 24.90625 7.765625 
L 24.90625 31.390625 
z
M 24.59375 60.90625 
C 24.59375 64.1875 24.796875 64.890625 29.5 64.890625 
L 39.59375 64.890625 
C 56.59375 64.890625 56.59375 53.921875 56.59375 49.4375 
C 56.59375 45.15625 56.59375 34 39.59375 34 
L 24.59375 34 
z
" id="CMCSC10-80"/>
      <path d="M 24.59375 35.1875 
L 24.59375 60.921875 
C 24.59375 63.609375 24.796875 64.5 27.203125 64.796875 
C 28.09375 64.890625 31.203125 64.890625 33.203125 64.890625 
C 41.90625 64.890625 55.09375 64.890625 55.09375 50.09375 
C 55.09375 39.46875 48 35.1875 36.703125 35.1875 
z
M 47 33.890625 
C 59 36.78125 65.40625 43.34375 65.40625 50.09375 
C 65.40625 59.734375 53.203125 68 38.09375 68 
L 5.703125 68 
L 5.703125 64.890625 
L 8.09375 64.890625 
C 15.796875 64.890625 16 63.796875 16 60.21875 
L 16 7.921875 
C 16 4.359375 15.796875 3.265625 8.09375 3.265625 
L 5.703125 3.265625 
L 5.703125 0.1875 
C 9.296875 0.484375 16.40625 0.484375 20.296875 0.484375 
C 24.203125 0.484375 31.296875 0.484375 34.90625 0.1875 
L 34.90625 3.265625 
L 32.5 3.265625 
C 24.796875 3.265625 24.59375 4.359375 24.59375 7.921875 
L 24.59375 33 
L 37.09375 33 
C 42.5 33 45.703125 31.015625 47.40625 29.421875 
C 51.203125 25.75 51.203125 23.28125 51.203125 16.34375 
C 51.203125 9.5 51.203125 5.9375 55.5 2.078125 
C 59.203125 -1.109375 64.796875 -2 68.296875 -2 
C 76.296875 -2 78.203125 6.140625 78.203125 8.90625 
C 78.203125 9.5 78.203125 10.59375 76.90625 10.59375 
C 75.796875 10.59375 75.796875 9.703125 75.703125 9.015625 
C 74.90625 1.28125 70.796875 0.1875 68.703125 0.1875 
C 63.40625 0.1875 62.703125 4.65625 60.90625 16.140625 
C 59.796875 23.078125 59.40625 25.5625 56.203125 28.734375 
C 54.09375 30.90625 50.90625 32.796875 47 33.890625 
z
" id="CMCSC10-82"/>
      <path d="M 63.40625 62.0625 
C 60.09375 65.484375 54 71 43.703125 71 
C 24 71 7.203125 54.9375 7.203125 34.546875 
C 7.203125 14.046875 24 -2 43.796875 -2 
C 60.703125 -2 71.296875 11.640625 71.296875 23.59375 
C 71.296875 24.59375 71.296875 25.296875 70 25.296875 
C 68.90625 25.296875 68.90625 24.703125 68.796875 23.6875 
C 68 9.125 56.296875 1.09375 45.09375 1.09375 
C 36.296875 1.09375 17.5 6.3125 17.5 34.4375 
C 17.5 64.078125 38 67.890625 44.90625 67.890625 
C 55.59375 67.890625 65.796875 59.546875 68.09375 44.078125 
C 68.296875 42.671875 68.40625 42.375 69.703125 42.375 
C 71.296875 42.375 71.296875 42.671875 71.296875 44.78125 
L 71.296875 68.59375 
C 71.296875 70.296875 71.296875 71 70.203125 71 
C 69.796875 71 69.40625 71 68.59375 69.796875 
z
" id="CMCSC10-67"/>
      <path d="M 71.203125 68.59375 
C 71.203125 70.296875 71.203125 71 70.09375 71 
C 69.703125 71 69.296875 71 68.5 69.796875 
L 63.296875 62.125 
C 60.203125 65.109375 54.296875 71 43.703125 71 
C 23.796875 71 7.203125 54.859375 7.203125 34.859375 
C 7.203125 14.578125 23.59375 -2 43.90625 -2 
C 51.796875 -2 60.40625 0.59375 63.90625 6.609375 
C 65.203125 4.359375 69.203125 0.296875 70.296875 0.296875 
C 71.203125 0.296875 71.203125 1.09375 71.203125 2.625 
L 71.203125 20.390625 
C 71.203125 24.890625 72.296875 24.890625 78.5 24.890625 
L 78.5 28 
C 73.703125 27.796875 70.09375 27.6875 65.796875 27.6875 
C 61.703125 27.6875 52.796875 27.6875 49.203125 28 
L 49.203125 24.890625 
L 52.703125 24.890625 
C 62.296875 24.890625 62.296875 23.46875 62.296875 19.984375 
L 62.296875 13.453125 
C 62.296875 1.09375 46.796875 1.09375 45.59375 1.09375 
C 36.5 1.09375 17.5 6.40625 17.5 34.859375 
C 17.5 63.015625 36.703125 67.890625 44.90625 67.890625 
C 55.5 67.890625 65.703125 59.734375 68 44.3125 
C 68.203125 42.921875 68.296875 42.625 69.59375 42.625 
C 71.203125 42.625 71.203125 42.921875 71.203125 45 
z
" id="CMCSC10-71"/>
     </defs>
     <g transform="translate(424.094451 26.7)scale(0.1 -0.1)">
      <use transform="scale(0.996264)" xlink:href="#CMCSC10-112"/>
      <use transform="translate(55.569158 0)scale(0.996264)" xlink:href="#CMCSC10-105"/>
      <use transform="translate(85.67837 0)scale(0.996264)" xlink:href="#CMCSC10-112"/>
      <use transform="translate(141.247528 0)scale(0.996264)" xlink:href="#CMCSC10-101"/>
      <use transform="translate(196.816686 0)scale(0.996264)" xlink:href="#CMCSC10-45"/>
      <use transform="translate(234.45297 0)scale(0.996264)" xlink:href="#CMCSC10-80"/>
      <use transform="translate(308.341796 0)scale(0.996264)" xlink:href="#CMCSC10-82"/>
      <use transform="translate(388.042172 0)scale(0.996264)" xlink:href="#CMCSC10-45"/>
      <use transform="translate(425.678456 0)scale(0.996264)" xlink:href="#CMCSC10-67"/>
      <use transform="translate(503.99518 0)scale(0.996264)" xlink:href="#CMCSC10-71"/>
     </g>
    </g>
    <g id="line2d_48">
     <path d="M 396.094451 37.137178 
L 416.094451 37.137178 
" style="fill:none;stroke:#2aa198;stroke-linecap:square;stroke-width:1.5;"/>
    </g>
    <g id="line2d_49"/>
    <g id="text_22">
     <!-- \textsc{pipe-P-CG} -->
     <g transform="translate(424.094451 40.637178)scale(0.1 -0.1)">
      <use transform="scale(0.996264)" xlink:href="#CMCSC10-112"/>
      <use transform="translate(55.569158 0)scale(0.996264)" xlink:href="#CMCSC10-105"/>
      <use transform="translate(85.67837 0)scale(0.996264)" xlink:href="#CMCSC10-112"/>
      <use transform="translate(141.247528 0)scale(0.996264)" xlink:href="#CMCSC10-101"/>
      <use transform="translate(196.816686 0)scale(0.996264)" xlink:href="#CMCSC10-45"/>
      <use transform="translate(234.45297 0)scale(0.996264)" xlink:href="#CMCSC10-80"/>
      <use transform="translate(308.341796 0)scale(0.996264)" xlink:href="#CMCSC10-45"/>
      <use transform="translate(345.97808 0)scale(0.996264)" xlink:href="#CMCSC10-67"/>
      <use transform="translate(424.294805 0)scale(0.996264)" xlink:href="#CMCSC10-71"/>
     </g>
    </g>
    <g id="line2d_50">
     <path d="M 396.094451 51.074357 
L 416.094451 51.074357 
" style="fill:none;stroke:#073642;stroke-dasharray:1.5,2.475;stroke-dashoffset:0;stroke-width:1.5;"/>
    </g>
    <g id="line2d_51"/>
    <g id="text_23">
     <!-- PR-CG -->
     <defs>
      <path d="M 19.796875 32 
L 35.796875 32 
C 48.703125 32 58.09375 40.359375 58.09375 49.796875 
C 58.09375 59.234375 48.90625 68 35.796875 68 
L 5.203125 68 
L 5.203125 65.390625 
C 12.09375 65.390625 13.203125 65.390625 13.203125 60.921875 
L 13.203125 7.078125 
C 13.203125 2.59375 12.09375 2.59375 5.203125 2.59375 
L 5.203125 0 
C 8.09375 0.1875 13.40625 0.1875 16.5 0.1875 
C 19.59375 0.1875 24.90625 0.1875 27.796875 0 
L 27.796875 2.59375 
C 20.90625 2.59375 19.796875 2.59375 19.796875 7.078125 
z
M 19.59375 34.09375 
L 19.59375 61.515625 
C 19.59375 64.890625 19.796875 65.390625 23.796875 65.390625 
L 33.90625 65.390625 
C 46.796875 65.390625 50.5 58.046875 50.5 49.796875 
C 50.5 40.75 46.09375 34.09375 33.90625 34.09375 
z
" id="CMR17-80"/>
      <path d="M 39.203125 33.6875 
C 48.703125 35.59375 56.703125 42.015625 56.703125 50.046875 
C 56.703125 59.46875 46.09375 68 32.09375 68 
L 5.203125 68 
L 5.203125 65.390625 
C 12.09375 65.390625 13.203125 65.390625 13.203125 60.875 
L 13.203125 6.6875 
C 13.203125 2.1875 12.09375 2.1875 5.203125 2.1875 
L 5.203125 -0.40625 
C 8.09375 -0.203125 13.296875 -0.203125 16.40625 -0.203125 
C 19.5 -0.203125 24.703125 -0.203125 27.59375 -0.40625 
L 27.59375 2.1875 
C 20.703125 2.1875 19.59375 2.1875 19.59375 6.6875 
L 19.59375 33 
L 31.296875 33 
C 37 33 40.203125 30.6875 41.59375 29.390625 
C 45.59375 25.5 45.59375 22.796875 45.59375 16 
C 45.59375 9.296875 45.59375 5.890625 48.59375 2.5 
C 52.40625 -1.609375 57.5 -2 59.703125 -2 
C 67.09375 -2 68.203125 6.296875 68.203125 8 
C 68.203125 8.59375 68.203125 9.296875 67.296875 9.296875 
C 66.5 9.296875 66.40625 8.6875 66.40625 8.296875 
C 65.90625 1.796875 63 -0.40625 59.90625 -0.40625 
C 54.40625 -0.40625 53.796875 5.890625 53.203125 12 
C 52.90625 14.09375 52.703125 15.59375 52.5 17.796875 
C 51.90625 22.796875 51.09375 30.09375 39.203125 33.6875 
z
M 31 34.59375 
L 19.59375 34.59375 
L 19.59375 61.484375 
C 19.59375 64.890625 19.796875 65.390625 23.796875 65.390625 
L 31.09375 65.390625 
C 39.40625 65.390625 49.09375 62.484375 49.09375 50.046875 
C 49.09375 37.09375 38.5 34.59375 31 34.59375 
z
" id="CMR17-82"/>
      <path d="M 62.09375 67.984375 
C 62.09375 69.796875 62 69.890625 61.40625 69.890625 
C 61 69.890625 60.90625 69.796875 60.203125 68.59375 
L 55.796875 60.140625 
C 50.90625 66.390625 44.90625 70 37.203125 70 
C 20.09375 70 4.59375 54.796875 4.59375 34.046875 
C 4.59375 13.078125 20.09375 -2 37.296875 -2 
C 52.59375 -2 62.09375 11.578125 62.09375 23.15625 
C 62.09375 24.171875 62.09375 24.578125 61.203125 24.578125 
C 60.40625 24.578125 60.40625 24.265625 60.296875 23.359375 
C 59.5 9.25 49.5 0.59375 38.703125 0.59375 
C 28.5 0.59375 12.203125 7.84375 12.203125 34.046875 
C 12.203125 60.34375 28.796875 67.390625 38.5 67.390625 
C 49.796875 67.390625 58 57.515625 59.90625 43.515625 
C 60.09375 42.296875 60.09375 42.109375 61 42.109375 
C 62.09375 42.109375 62.09375 42.296875 62.09375 44.125 
z
" id="CMR17-67"/>
      <path d="M 62.09375 19.65625 
C 62.09375 23.484375 62.40625 24 68.59375 24 
L 68.59375 26.59375 
C 66.203125 26.390625 60.796875 26.390625 58.09375 26.390625 
C 55.296875 26.390625 47.5 26.5 43.703125 26.59375 
L 43.703125 24 
L 46.703125 24 
C 55.296875 24 55.5 22.875 55.5 19.25 
L 55.5 12.59375 
C 55.5 1.5 42.5 0.59375 39.40625 0.59375 
C 29.09375 0.59375 12.203125 7.75 12.203125 34.046875 
C 12.203125 60.34375 28.796875 67.390625 38.5 67.390625 
C 49.796875 67.390625 58 57.515625 59.90625 43.515625 
C 60.09375 42.3125 60.09375 42.109375 61 42.109375 
C 62.09375 42.109375 62.09375 42.3125 62.09375 44.125 
L 62.09375 67.984375 
C 62.09375 69.796875 62 69.890625 61.40625 69.890625 
C 61 69.890625 60.90625 69.796875 60.203125 68.59375 
L 55.796875 60.140625 
C 50.90625 66.390625 44.90625 70 37.203125 70 
C 20.09375 70 4.59375 54.796875 4.59375 34.046875 
C 4.59375 13.40625 19.796875 -2 37.40625 -2 
C 45.5 -2 53.40625 0.890625 56.5 6.640625 
C 58.203125 2.515625 61 -0.3125 61.5 -0.3125 
C 62 -0.3125 62.09375 -0.203125 62.09375 1.59375 
z
" id="CMR17-71"/>
     </defs>
     <g transform="translate(424.094451 54.574357)scale(0.1 -0.1)">
      <use transform="scale(0.996264)" xlink:href="#CMR17-80"/>
      <use transform="translate(62.586301 0)scale(0.996264)" xlink:href="#CMR17-82"/>
      <use transform="translate(130.377402 0)scale(0.996264)" xlink:href="#CMR17-45"/>
      <use transform="translate(160.453369 0)scale(0.996264)" xlink:href="#CMR17-67"/>
      <use transform="translate(226.963249 0)scale(0.996264)" xlink:href="#CMR17-71"/>
     </g>
    </g>
    <g id="line2d_52">
     <path d="M 396.094451 65.011535 
L 416.094451 65.011535 
" style="fill:none;stroke:#859900;stroke-dasharray:1.5,2.475;stroke-dashoffset:0;stroke-width:1.5;"/>
    </g>
    <g id="line2d_53"/>
    <g id="text_24">
     <!-- \textsc{pipe-PR-M-CG} -->
     <defs>
      <path d="M 74.40625 65.09375 
L 74.5 64.984375 
L 74.5 7.765625 
C 74.5 4.1875 74.296875 3.09375 66.59375 3.09375 
L 64.203125 3.09375 
L 64.203125 0 
C 67.90625 0.296875 74.703125 0.296875 78.59375 0.296875 
C 82.5 0.296875 89.203125 0.296875 92.90625 0 
L 92.90625 3.09375 
L 90.5 3.09375 
C 82.796875 3.09375 82.59375 4.1875 82.59375 7.765625 
L 82.59375 60.21875 
C 82.59375 63.796875 82.796875 64.890625 90.5 64.890625 
L 92.90625 64.890625 
L 92.90625 68 
L 76 68 
C 73.703125 68 73.40625 68 72.59375 66.09375 
L 49.40625 9.46875 
L 26.203125 66.1875 
C 25.5 68 24.90625 68 22.796875 68 
L 5.90625 68 
L 5.90625 64.890625 
L 8.296875 64.890625 
C 16 64.890625 16.203125 63.796875 16.203125 60.21875 
L 16.203125 10.453125 
C 16.203125 7.765625 16.203125 3.09375 5.90625 3.09375 
L 5.90625 0 
C 9.40625 0.09375 14.296875 0.296875 17.59375 0.296875 
C 20.90625 0.296875 25.796875 0.09375 29.296875 0 
L 29.296875 3.09375 
C 19 3.09375 19 7.765625 19 10.453125 
L 19 64.296875 
L 19.09375 64.390625 
L 44.703125 1.796875 
C 45.09375 0.890625 45.59375 0 46.59375 0 
C 47.59375 0 48.09375 0.890625 48.5 1.796875 
z
" id="CMCSC10-77"/>
     </defs>
     <g transform="translate(424.094451 68.511535)scale(0.1 -0.1)">
      <use transform="scale(0.996264)" xlink:href="#CMCSC10-112"/>
      <use transform="translate(55.569158 0)scale(0.996264)" xlink:href="#CMCSC10-105"/>
      <use transform="translate(85.67837 0)scale(0.996264)" xlink:href="#CMCSC10-112"/>
      <use transform="translate(141.247528 0)scale(0.996264)" xlink:href="#CMCSC10-101"/>
      <use transform="translate(196.816686 0)scale(0.996264)" xlink:href="#CMCSC10-45"/>
      <use transform="translate(234.45297 0)scale(0.996264)" xlink:href="#CMCSC10-80"/>
      <use transform="translate(308.341796 0)scale(0.996264)" xlink:href="#CMCSC10-82"/>
      <use transform="translate(388.042172 0)scale(0.996264)" xlink:href="#CMCSC10-45"/>
      <use transform="translate(425.678456 0)scale(0.996264)" xlink:href="#CMCSC10-77"/>
      <use transform="translate(524.19692 0)scale(0.996264)" xlink:href="#CMCSC10-45"/>
      <use transform="translate(561.833204 0)scale(0.996264)" xlink:href="#CMCSC10-67"/>
      <use transform="translate(640.149929 0)scale(0.996264)" xlink:href="#CMCSC10-71"/>
     </g>
    </g>
    <g id="line2d_54">
     <path d="M 396.094451 78.948713 
L 416.094451 78.948713 
" style="fill:none;stroke:#6c71c4;stroke-linecap:square;stroke-width:1.5;"/>
    </g>
    <g id="line2d_55"/>
    <g id="text_25">
     <!-- \textsc{pipe-P-M-CG} -->
     <g transform="translate(424.094451 82.448713)scale(0.1 -0.1)">
      <use transform="scale(0.996264)" xlink:href="#CMCSC10-112"/>
      <use transform="translate(55.569158 0)scale(0.996264)" xlink:href="#CMCSC10-105"/>
      <use transform="translate(85.67837 0)scale(0.996264)" xlink:href="#CMCSC10-112"/>
      <use transform="translate(141.247528 0)scale(0.996264)" xlink:href="#CMCSC10-101"/>
      <use transform="translate(196.816686 0)scale(0.996264)" xlink:href="#CMCSC10-45"/>
      <use transform="translate(234.45297 0)scale(0.996264)" xlink:href="#CMCSC10-80"/>
      <use transform="translate(308.341796 0)scale(0.996264)" xlink:href="#CMCSC10-45"/>
      <use transform="translate(345.97808 0)scale(0.996264)" xlink:href="#CMCSC10-77"/>
      <use transform="translate(444.496544 0)scale(0.996264)" xlink:href="#CMCSC10-45"/>
      <use transform="translate(482.132828 0)scale(0.996264)" xlink:href="#CMCSC10-67"/>
      <use transform="translate(560.449553 0)scale(0.996264)" xlink:href="#CMCSC10-71"/>
     </g>
    </g>
    <g id="line2d_56">
     <path d="M 396.094451 92.885892 
L 416.094451 92.885892 
" style="fill:none;stroke:#93a1a1;stroke-linecap:square;stroke-width:1.5;"/>
    </g>
    <g id="line2d_57">
     <g>
      <use style="fill:#93a1a1;stroke:#93a1a1;stroke-linejoin:miter;" x="406.094451" xlink:href="#m0398d7c5ba" y="92.885892"/>
     </g>
    </g>
    <g id="text_26">
     <!-- GV-CG -->
     <defs>
      <path d="M 59 58.78125 
C 59.90625 60.984375 61.5 65.296875 68.203125 65.390625 
L 68.203125 68 
C 65.90625 67.796875 63.296875 67.796875 60.796875 67.796875 
C 58.40625 67.796875 54.296875 67.796875 52 68 
L 52 65.390625 
C 57 65.09375 57.203125 61.59375 57.203125 60.984375 
C 57.203125 59.890625 56.90625 59.1875 56.59375 58.390625 
L 36.90625 7 
L 16.296875 60.984375 
C 16 61.6875 15.796875 62.1875 15.796875 62.6875 
C 15.796875 65.390625 19.796875 65.390625 21.90625 65.390625 
L 21.90625 68 
C 18.703125 67.796875 14 67.796875 10.703125 67.796875 
C 8.09375 67.796875 3.40625 67.796875 1 68 
L 1 65.390625 
C 6.796875 65.390625 7.90625 65 9.09375 61.796875 
L 32.90625 -0.40625 
C 33.40625 -1.8125 33.5 -2 34.59375 -2 
C 35.703125 -2 35.796875 -1.8125 36.296875 -0.40625 
z
" id="CMR17-86"/>
     </defs>
     <g transform="translate(424.094451 96.385892)scale(0.1 -0.1)">
      <use transform="scale(0.996264)" xlink:href="#CMR17-71"/>
      <use transform="translate(72.355346 0)scale(0.996264)" xlink:href="#CMR17-86"/>
      <use transform="translate(141.427776 0)scale(0.996264)" xlink:href="#CMR17-45"/>
      <use transform="translate(171.503742 0)scale(0.996264)" xlink:href="#CMR17-67"/>
      <use transform="translate(238.013623 0)scale(0.996264)" xlink:href="#CMR17-71"/>
     </g>
    </g>
    <g id="line2d_58">
     <path d="M 396.094451 106.82307 
L 416.094451 106.82307 
" style="fill:none;stroke:#93a1a1;stroke-linecap:square;stroke-width:1.5;"/>
    </g>
    <g id="line2d_59">
     <g>
      <use style="fill:#93a1a1;stroke:#93a1a1;stroke-linejoin:miter;" x="406.094451" xlink:href="#m028375ee26" y="106.82307"/>
     </g>
    </g>
    <g id="text_27">
     <!-- M-CG -->
     <defs>
      <path d="M 20.90625 66.390625 
C 20.296875 67.890625 20.203125 68 18.09375 68 
L 5.296875 68 
L 5.296875 65.390625 
C 12.203125 65.390625 13.296875 65.390625 13.296875 60.90625 
L 13.296875 9.75 
C 13.296875 7.265625 13.296875 2.59375 5.296875 2.59375 
L 5.296875 0 
C 7.59375 0.1875 11.796875 0.1875 14.296875 0.1875 
C 16.796875 0.1875 21 0.1875 23.296875 0 
L 23.296875 2.59375 
C 15.296875 2.59375 15.296875 7.265625 15.296875 9.75 
L 15.296875 64.984375 
L 15.40625 64.984375 
L 38.90625 1.59375 
C 39.296875 0.59375 39.5 0 40.296875 0 
C 41.09375 0 41.296875 0.59375 41.703125 1.59375 
L 65.40625 65.484375 
L 65.5 65.484375 
L 65.5 7.078125 
C 65.5 2.59375 64.40625 2.59375 57.5 2.59375 
L 57.5 0 
C 60.203125 0.1875 65.59375 0.1875 68.5 0.1875 
C 71.40625 0.1875 76.90625 0.1875 79.59375 0 
L 79.59375 2.59375 
C 72.703125 2.59375 71.59375 2.59375 71.59375 7.078125 
L 71.59375 60.90625 
C 71.59375 65.390625 72.703125 65.390625 79.59375 65.390625 
L 79.59375 68 
L 66.90625 68 
C 64.796875 68 64.703125 67.890625 64.09375 66.390625 
L 42.5 8.0625 
z
" id="CMR17-77"/>
     </defs>
     <g transform="translate(424.094451 110.32307)scale(0.1 -0.1)">
      <use transform="scale(0.996264)" xlink:href="#CMR17-77"/>
      <use transform="translate(84.686941 0)scale(0.996264)" xlink:href="#CMR17-45"/>
      <use transform="translate(114.762907 0)scale(0.996264)" xlink:href="#CMR17-67"/>
      <use transform="translate(181.272787 0)scale(0.996264)" xlink:href="#CMR17-71"/>
     </g>
    </g>
    <g id="line2d_60">
     <path d="M 396.094451 120.760248 
L 416.094451 120.760248 
" style="fill:none;stroke:#93a1a1;stroke-linecap:square;stroke-width:1.5;"/>
    </g>
    <g id="line2d_61">
     <g>
      <use style="fill:#93a1a1;stroke:#93a1a1;stroke-linejoin:miter;" x="406.094451" xlink:href="#mab4a9d08a4" y="120.760248"/>
     </g>
    </g>
    <g id="text_28">
     <!-- CG-CG -->
     <g transform="translate(424.094451 124.260248)scale(0.1 -0.1)">
      <use transform="scale(0.996264)" xlink:href="#CMR17-67"/>
      <use transform="translate(66.509881 0)scale(0.996264)" xlink:href="#CMR17-71"/>
      <use transform="translate(138.865226 0)scale(0.996264)" xlink:href="#CMR17-45"/>
      <use transform="translate(168.941193 0)scale(0.996264)" xlink:href="#CMR17-67"/>
      <use transform="translate(235.451073 0)scale(0.996264)" xlink:href="#CMR17-71"/>
     </g>
    </g>
    <g id="line2d_62">
     <path d="M 396.094451 134.697427 
L 416.094451 134.697427 
" style="fill:none;stroke:#93a1a1;stroke-linecap:square;stroke-width:1.5;"/>
    </g>
    <g id="line2d_63">
     <g>
      <use style="fill:#93a1a1;stroke:#93a1a1;" x="406.094451" xlink:href="#mca4e298259" y="134.697427"/>
     </g>
    </g>
    <g id="text_29">
     <!-- HS-CG -->
     <defs>
      <path d="M 56.09375 60.90625 
C 56.09375 65.390625 57.203125 65.390625 64.09375 65.390625 
L 64.09375 68 
C 61.203125 67.796875 55.90625 67.796875 52.796875 67.796875 
C 49.703125 67.796875 44.40625 67.796875 41.5 68 
L 41.5 65.390625 
C 48.40625 65.390625 49.5 65.390625 49.5 60.90625 
L 49.5 36.59375 
L 19.703125 36.59375 
L 19.703125 60.90625 
C 19.703125 65.390625 20.796875 65.390625 27.703125 65.390625 
L 27.703125 68 
C 24.796875 67.796875 19.5 67.796875 16.40625 67.796875 
C 13.296875 67.796875 8 67.796875 5.09375 68 
L 5.09375 65.390625 
C 12 65.390625 13.09375 65.390625 13.09375 60.90625 
L 13.09375 7.0625 
C 13.09375 2.59375 12 2.59375 5.09375 2.59375 
L 5.09375 0 
C 8 0.1875 13.296875 0.1875 16.40625 0.1875 
C 19.5 0.1875 24.796875 0.1875 27.703125 0 
L 27.703125 2.59375 
C 20.796875 2.59375 19.703125 2.59375 19.703125 7.0625 
L 19.703125 34 
L 49.5 34 
L 49.5 7.0625 
C 49.5 2.59375 48.40625 2.59375 41.5 2.59375 
L 41.5 0 
C 44.40625 0.1875 49.703125 0.1875 52.796875 0.1875 
C 55.90625 0.1875 61.203125 0.1875 64.09375 0 
L 64.09375 2.59375 
C 57.203125 2.59375 56.09375 2.59375 56.09375 7.0625 
z
" id="CMR17-72"/>
      <path d="M 43.796875 67.984375 
C 43.796875 69.796875 43.703125 69.890625 43.09375 69.890625 
C 42.5 69.890625 42.296875 69.484375 41.90625 68.59375 
L 38.90625 61.953125 
C 35.09375 67.5 29.296875 70 23 70 
C 12.796875 70 4.59375 61.84375 4.59375 51.578125 
C 4.59375 48.453125 5.296875 44.015625 8.703125 39.78125 
C 12.40625 35.15625 15.90625 34.34375 23.90625 32.234375 
C 26.90625 31.421875 31.90625 30.109375 32.90625 29.703125 
C 38.59375 27.296875 41.59375 21.25 41.59375 15.609375 
C 41.59375 8.34375 36.5 0.59375 27.796875 0.59375 
C 17.09375 0.59375 7.09375 6.640625 6.40625 20.75 
C 6.296875 22.359375 6.203125 22.453125 5.5 22.453125 
C 4.703125 22.453125 4.59375 22.359375 4.59375 20.34375 
L 4.59375 0 
C 4.59375 -1.8125 4.703125 -1.90625 5.296875 -1.90625 
C 6 -1.90625 6.203125 -1.40625 7.59375 1.703125 
C 7.703125 2 7.703125 2.203125 9.59375 6.03125 
C 14.59375 -0.609375 23 -2 27.796875 -2 
C 38.703125 -2 46.40625 7.140625 46.40625 17.828125 
C 46.40625 23.0625 44.5 27.09375 43.40625 28.90625 
C 39.203125 35.359375 34.703125 36.5625 29.90625 37.765625 
C 29.203125 38.078125 29 38.078125 23.40625 39.484375 
C 18 40.890625 15.703125 41.59375 13.203125 44.3125 
C 10.40625 47.4375 9.40625 50.671875 9.40625 53.890625 
C 9.40625 60.4375 14.59375 67.59375 23.09375 67.59375 
C 33.703125 67.59375 40.296875 60.03125 41.796875 47.4375 
C 42.09375 45.625 42.203125 45.53125 42.90625 45.53125 
C 43.796875 45.53125 43.796875 45.828125 43.796875 47.546875 
z
" id="CMR17-83"/>
     </defs>
     <g transform="translate(424.094451 138.197427)scale(0.1 -0.1)">
      <use transform="scale(0.996264)" xlink:href="#CMR17-72"/>
      <use transform="translate(69.07243 0)scale(0.996264)" xlink:href="#CMR17-83"/>
      <use transform="translate(119.9678 0)scale(0.996264)" xlink:href="#CMR17-45"/>
      <use transform="translate(150.043766 0)scale(0.996264)" xlink:href="#CMR17-67"/>
      <use transform="translate(216.553646 0)scale(0.996264)" xlink:href="#CMR17-71"/>
     </g>
    </g>
   </g>
  </g>
 </g>
 <defs>
  <clipPath id="p8d7954bba3">
   <rect height="221.76" width="334.8" x="52.294451" y="10.7"/>
  </clipPath>
 </defs>
</svg>
