<?xml version="1.0" encoding="utf-8" standalone="no"?>
<!DOCTYPE svg PUBLIC "-//W3C//DTD SVG 1.1//EN"
  "http://www.w3.org/Graphics/SVG/1.1/DTD/svg11.dtd">
<!-- Created with matplotlib (https://matplotlib.org/) -->
<svg height="268.371353pt" version="1.1" viewBox="0 0 507.791371 268.371353" width="507.791371pt" xmlns="http://www.w3.org/2000/svg" xmlns:xlink="http://www.w3.org/1999/xlink">
 <defs>
  <style type="text/css">
*{stroke-linecap:butt;stroke-linejoin:round;}
  </style>
 </defs>
 <g id="figure_1">
  <g id="patch_1">
   <path d="M -0 268.371353 
L 507.791371 268.371353 
L 507.791371 0 
L -0 0 
z
" style="fill:#ffffff;"/>
  </g>
  <g id="axes_1">
   <g id="patch_2">
    <path d="M 52.294451 232.46 
L 387.094451 232.46 
L 387.094451 10.7 
L 52.294451 10.7 
z
" style="fill:#ffffff;"/>
   </g>
   <g id="matplotlib.axis_1">
    <g id="xtick_1">
     <g id="line2d_1">
      <path clip-path="url(#p80e0ffa006)" d="M 67.512633 232.46 
L 67.512633 10.7 
" style="fill:none;stroke:#b0b0b0;stroke-dasharray:0.8,1.32;stroke-dashoffset:0;stroke-width:0.8;"/>
     </g>
     <g id="line2d_2">
      <defs>
       <path d="M 0 0 
L 0 3.5 
" id="mca87b92ce0" style="stroke:#000000;stroke-width:0.8;"/>
      </defs>
      <g>
       <use style="stroke:#000000;stroke-width:0.8;" x="67.512633" xlink:href="#mca87b92ce0" y="232.46"/>
      </g>
     </g>
     <g id="text_1">
      <!-- $0$ -->
      <defs>
       <path d="M 42 31.84375 
C 42 37.96875 41.90625 48.421875 37.703125 56.453125 
C 34 63.484375 28.09375 66 22.90625 66 
C 18.09375 66 12 63.78125 8.203125 56.5625 
C 4.203125 49.015625 3.796875 39.671875 3.796875 31.84375 
C 3.796875 26.109375 3.90625 17.375 7 9.734375 
C 11.296875 -0.609375 19 -2 22.90625 -2 
C 27.5 -2 34.5 -0.109375 38.59375 9.4375 
C 41.59375 16.375 42 24.5 42 31.84375 
z
M 22.90625 -0.40625 
C 16.5 -0.40625 12.703125 5.125 11.296875 12.75 
C 10.203125 18.6875 10.203125 27.328125 10.203125 32.953125 
C 10.203125 40.6875 10.203125 47.109375 11.5 53.234375 
C 13.40625 61.78125 19 64.390625 22.90625 64.390625 
C 27 64.390625 32.296875 61.671875 34.203125 53.4375 
C 35.5 47.71875 35.59375 40.984375 35.59375 32.953125 
C 35.59375 26.421875 35.59375 18.375 34.40625 12.453125 
C 32.296875 1.5 26.40625 -0.40625 22.90625 -0.40625 
z
" id="CMR17-48"/>
      </defs>
      <g transform="translate(65.021965 246.378498)scale(0.1 -0.1)">
       <use transform="scale(0.996264)" xlink:href="#CMR17-48"/>
      </g>
     </g>
    </g>
    <g id="xtick_2">
     <g id="line2d_3">
      <path clip-path="url(#p80e0ffa006)" d="M 135.216701 232.46 
L 135.216701 10.7 
" style="fill:none;stroke:#b0b0b0;stroke-dasharray:0.8,1.32;stroke-dashoffset:0;stroke-width:0.8;"/>
     </g>
     <g id="line2d_4">
      <g>
       <use style="stroke:#000000;stroke-width:0.8;" x="135.216701" xlink:href="#mca87b92ce0" y="232.46"/>
      </g>
     </g>
     <g id="text_2">
      <!-- $10000$ -->
      <defs>
       <path d="M 26.59375 63.796875 
C 26.59375 65.890625 26.5 66 25.09375 66 
C 21.203125 61.359375 15.296875 59.890625 9.703125 59.6875 
C 9.40625 59.6875 8.90625 59.6875 8.796875 59.5 
C 8.703125 59.296875 8.703125 59.09375 8.703125 57 
C 11.796875 57 17 57.59375 21 59.984375 
L 21 7.296875 
C 21 3.796875 20.796875 2.59375 12.203125 2.59375 
L 9.203125 2.59375 
L 9.203125 0 
C 14 0.09375 19 0.1875 23.796875 0.1875 
C 28.59375 0.1875 33.59375 0.09375 38.40625 0 
L 38.40625 2.59375 
L 35.40625 2.59375 
C 26.796875 2.59375 26.59375 3.6875 26.59375 7.296875 
z
" id="CMR17-49"/>
      </defs>
      <g transform="translate(122.763362 246.378498)scale(0.1 -0.1)">
       <use transform="scale(0.996264)" xlink:href="#CMR17-49"/>
       <use transform="translate(45.690477 0)scale(0.996264)" xlink:href="#CMR17-48"/>
       <use transform="translate(91.380954 0)scale(0.996264)" xlink:href="#CMR17-48"/>
       <use transform="translate(137.071431 0)scale(0.996264)" xlink:href="#CMR17-48"/>
       <use transform="translate(182.761908 0)scale(0.996264)" xlink:href="#CMR17-48"/>
      </g>
     </g>
    </g>
    <g id="xtick_3">
     <g id="line2d_5">
      <path clip-path="url(#p80e0ffa006)" d="M 202.920768 232.46 
L 202.920768 10.7 
" style="fill:none;stroke:#b0b0b0;stroke-dasharray:0.8,1.32;stroke-dashoffset:0;stroke-width:0.8;"/>
     </g>
     <g id="line2d_6">
      <g>
       <use style="stroke:#000000;stroke-width:0.8;" x="202.920768" xlink:href="#mca87b92ce0" y="232.46"/>
      </g>
     </g>
     <g id="text_3">
      <!-- $20000$ -->
      <defs>
       <path d="M 41.703125 15.46875 
L 39.90625 15.46875 
C 38.90625 8.390625 38.09375 7.1875 37.703125 6.59375 
C 37.203125 5.796875 30 5.796875 28.59375 5.796875 
L 9.40625 5.796875 
C 13 9.6875 20 16.765625 28.5 24.9375 
C 34.59375 30.71875 41.703125 37.5 41.703125 47.390625 
C 41.703125 59.1875 32.296875 66 21.796875 66 
C 10.796875 66 4.09375 56.296875 4.09375 47.296875 
C 4.09375 43.390625 7 42.890625 8.203125 42.890625 
C 9.203125 42.890625 12.203125 43.484375 12.203125 46.984375 
C 12.203125 50.09375 9.59375 51 8.203125 51 
C 7.59375 51 7 50.890625 6.59375 50.6875 
C 8.5 59.1875 14.296875 63.390625 20.40625 63.390625 
C 29.09375 63.390625 34.796875 56.5 34.796875 47.390625 
C 34.796875 38.703125 29.703125 31.21875 24 24.734375 
L 4.09375 2.296875 
L 4.09375 0 
L 39.296875 0 
z
" id="CMR17-50"/>
      </defs>
      <g transform="translate(190.46743 246.378498)scale(0.1 -0.1)">
       <use transform="scale(0.996264)" xlink:href="#CMR17-50"/>
       <use transform="translate(45.690477 0)scale(0.996264)" xlink:href="#CMR17-48"/>
       <use transform="translate(91.380954 0)scale(0.996264)" xlink:href="#CMR17-48"/>
       <use transform="translate(137.071431 0)scale(0.996264)" xlink:href="#CMR17-48"/>
       <use transform="translate(182.761908 0)scale(0.996264)" xlink:href="#CMR17-48"/>
      </g>
     </g>
    </g>
    <g id="xtick_4">
     <g id="line2d_7">
      <path clip-path="url(#p80e0ffa006)" d="M 270.624836 232.46 
L 270.624836 10.7 
" style="fill:none;stroke:#b0b0b0;stroke-dasharray:0.8,1.32;stroke-dashoffset:0;stroke-width:0.8;"/>
     </g>
     <g id="line2d_8">
      <g>
       <use style="stroke:#000000;stroke-width:0.8;" x="270.624836" xlink:href="#mca87b92ce0" y="232.46"/>
      </g>
     </g>
     <g id="text_4">
      <!-- $30000$ -->
      <defs>
       <path d="M 22.09375 34 
C 31 34 34.90625 26.140625 34.90625 17.09375 
C 34.90625 5.03125 28.5 0.390625 22.703125 0.390625 
C 17.40625 0.390625 8.796875 3.015625 6.09375 10.796875 
C 6.59375 10.59375 7.09375 10.59375 7.59375 10.59375 
C 10 10.59375 11.796875 12.1875 11.796875 14.796875 
C 11.796875 17.6875 9.59375 19 7.59375 19 
C 5.90625 19 3.296875 18.1875 3.296875 14.484375 
C 3.296875 5.234375 12.296875 -2 22.90625 -2 
C 34 -2 42.5 6.75 42.5 16.984375 
C 42.5 26.84375 34.5 34 25 35.09375 
C 32.59375 36.671875 39.90625 43.375 39.90625 52.390625 
C 39.90625 60.25 32 66 23 66 
C 13.90625 66 5.90625 60.34375 5.90625 52.296875 
C 5.90625 48.796875 8.5 48.1875 9.796875 48.1875 
C 11.90625 48.1875 13.703125 49.484375 13.703125 52.09375 
C 13.703125 54.6875 11.90625 56 9.796875 56 
C 9.40625 56 8.90625 56 8.5 55.796875 
C 11.40625 62.484375 19.296875 63.6875 22.796875 63.6875 
C 26.296875 63.6875 32.90625 61.96875 32.90625 52.296875 
C 32.90625 49.484375 32.5 44.546875 29.09375 40.21875 
C 26.09375 36.390625 22.703125 36.1875 19.40625 35.890625 
C 18.90625 35.890625 16.59375 35.6875 16.203125 35.6875 
C 15.5 35.59375 15.09375 35.5 15.09375 34.796875 
C 15.09375 34.09375 15.203125 34 17.203125 34 
z
" id="CMR17-51"/>
      </defs>
      <g transform="translate(258.171498 246.378498)scale(0.1 -0.1)">
       <use transform="scale(0.996264)" xlink:href="#CMR17-51"/>
       <use transform="translate(45.690477 0)scale(0.996264)" xlink:href="#CMR17-48"/>
       <use transform="translate(91.380954 0)scale(0.996264)" xlink:href="#CMR17-48"/>
       <use transform="translate(137.071431 0)scale(0.996264)" xlink:href="#CMR17-48"/>
       <use transform="translate(182.761908 0)scale(0.996264)" xlink:href="#CMR17-48"/>
      </g>
     </g>
    </g>
    <g id="xtick_5">
     <g id="line2d_9">
      <path clip-path="url(#p80e0ffa006)" d="M 338.328904 232.46 
L 338.328904 10.7 
" style="fill:none;stroke:#b0b0b0;stroke-dasharray:0.8,1.32;stroke-dashoffset:0;stroke-width:0.8;"/>
     </g>
     <g id="line2d_10">
      <g>
       <use style="stroke:#000000;stroke-width:0.8;" x="338.328904" xlink:href="#mca87b92ce0" y="232.46"/>
      </g>
     </g>
     <g id="text_5">
      <!-- $40000$ -->
      <defs>
       <path d="M 33.59375 64.796875 
C 33.59375 66.890625 33.5 67 31.703125 67 
L 2 19.59375 
L 2 17 
L 27.796875 17 
L 27.796875 7.1875 
C 27.796875 3.59375 27.59375 2.59375 20.59375 2.59375 
L 18.703125 2.59375 
L 18.703125 0 
C 21.90625 0.1875 27.296875 0.1875 30.703125 0.1875 
C 34.09375 0.1875 39.5 0.1875 42.703125 0 
L 42.703125 2.59375 
L 40.796875 2.59375 
C 33.796875 2.59375 33.59375 3.59375 33.59375 7.1875 
L 33.59375 17 
L 43.796875 17 
L 43.796875 19.59375 
L 33.59375 19.59375 
z
M 28.09375 58.171875 
L 28.09375 19.59375 
L 4 19.59375 
z
" id="CMR17-52"/>
      </defs>
      <g transform="translate(325.875566 246.378498)scale(0.1 -0.1)">
       <use transform="scale(0.996264)" xlink:href="#CMR17-52"/>
       <use transform="translate(45.690477 0)scale(0.996264)" xlink:href="#CMR17-48"/>
       <use transform="translate(91.380954 0)scale(0.996264)" xlink:href="#CMR17-48"/>
       <use transform="translate(137.071431 0)scale(0.996264)" xlink:href="#CMR17-48"/>
       <use transform="translate(182.761908 0)scale(0.996264)" xlink:href="#CMR17-48"/>
      </g>
     </g>
    </g>
    <g id="text_6">
     <!-- iteration $k$ -->
     <defs>
      <path d="M 15.5 61.890625 
C 15.5 64.09375 13.703125 66 11.40625 66 
C 9.203125 66 7.296875 64.1875 7.296875 61.890625 
C 7.296875 59.6875 9.09375 57.796875 11.40625 57.796875 
C 13.59375 57.796875 15.5 59.59375 15.5 61.890625 
z
M 3.796875 42.890625 
L 3.796875 40.296875 
C 9.40625 40.296875 10.203125 39.6875 10.203125 34.859375 
L 10.203125 6.921875 
C 10.203125 3.09375 9.796875 2.59375 3.40625 2.59375 
L 3.40625 0 
C 5.796875 0.1875 10.09375 0.1875 12.59375 0.1875 
C 15 0.1875 19.09375 0.1875 21.40625 0 
L 21.40625 2.59375 
C 15.5 2.59375 15.296875 3.203125 15.296875 6.8125 
L 15.296875 44 
z
" id="CMR17-105"/>
      <path d="M 15.09375 40.390625 
L 29.09375 40.390625 
L 29.09375 43 
L 15.09375 43 
L 15.09375 62 
L 13.296875 62 
C 13.09375 51.4375 9.59375 42.1875 1.09375 41.984375 
L 1.09375 40.390625 
L 9.796875 40.390625 
L 9.796875 12.15625 
C 9.796875 10.234375 9.796875 -1 21.40625 -1 
C 27.296875 -1 30.703125 4.8125 30.703125 12.25 
L 30.703125 17.984375 
L 28.90625 17.984375 
L 28.90625 12.34375 
C 28.90625 5.421875 26.203125 0.796875 22 0.796875 
C 19.09375 0.796875 15.09375 2.796875 15.09375 11.953125 
z
" id="CMR17-116"/>
      <path d="M 38.09375 23.484375 
C 38.5 23.890625 38.5 24.09375 38.5 25.09375 
C 38.5 35.171875 33.09375 44 21.703125 44 
C 11.09375 44 2.703125 33.984375 2.703125 21.78125 
C 2.703125 8.65625 12.203125 -1 22.796875 -1 
C 34 -1 38.40625 9.671875 38.40625 11.796875 
C 38.40625 12.5 37.796875 12.5 37.59375 12.5 
C 36.90625 12.5 36.796875 12.296875 36.40625 11.078125 
C 34.203125 4.21875 28.703125 0.796875 23.5 0.796875 
C 19.203125 0.796875 14.90625 3.21875 12.203125 7.65625 
C 9.09375 12.796875 9.09375 18.75 9.09375 23.484375 
z
M 9.203125 25 
C 9.90625 39.234375 17.59375 42.390625 21.59375 42.390625 
C 28.40625 42.390625 33 36.0625 33.09375 25 
z
" id="CMR17-101"/>
      <path d="M 15 23.703125 
C 15 33.34375 19.09375 42.390625 26.59375 42.390625 
C 27.296875 42.390625 28 42.296875 28.703125 41.984375 
C 28.703125 41.984375 26.5 41.28125 26.5 38.671875 
C 26.5 36.265625 28.40625 35.265625 29.90625 35.265625 
C 31.09375 35.265625 33.296875 35.96875 33.296875 38.78125 
C 33.296875 41.984375 30.09375 44 26.703125 44 
C 19.09375 44 15.796875 36.5625 14.796875 33.046875 
L 14.703125 33.046875 
L 14.703125 44 
L 3.09375 42.890625 
L 3.09375 40.28125 
C 9 40.28125 9.90625 39.6875 9.90625 34.859375 
L 9.90625 6.921875 
C 9.90625 3.09375 9.5 2.59375 3.09375 2.59375 
L 3.09375 0 
C 5.5 0.1875 10.09375 0.1875 12.703125 0.1875 
C 15.59375 0.1875 20.703125 0.1875 23.40625 0 
L 23.40625 2.59375 
C 16.203125 2.59375 15 2.59375 15 7.109375 
z
" id="CMR17-114"/>
      <path d="M 36 25.875 
C 36 32 36 35.546875 31.796875 39.59375 
C 28.09375 42.984375 23.796875 44 20.40625 44 
C 12.5 44 6.796875 37.625 6.796875 30.890625 
C 6.796875 27.1875 9.796875 27 10.40625 27 
C 11.703125 27 14 27.796875 14 30.59375 
C 14 33.09375 12.09375 34.1875 10.40625 34.1875 
C 10 34.1875 9.5 34.09375 9.203125 34 
C 11.296875 40.53125 16.703125 42.390625 20.203125 42.390625 
C 25.203125 42.390625 30.703125 37.828125 30.703125 29.296875 
L 30.703125 25.5 
C 24.796875 25.296875 17.703125 24.5 12.09375 21.453125 
C 5.796875 17.921875 4 12.84375 4 9 
C 4 1.203125 13 -1 18.296875 -1 
C 23.796875 -1 28.90625 2.109375 31.09375 7.890625 
C 31.296875 3.421875 34.09375 -0.609375 38.5 -0.609375 
C 40.59375 -0.609375 45.90625 0.796875 45.90625 8.796875 
L 45.90625 14.46875 
L 44.09375 14.46875 
L 44.09375 8.703125 
C 44.09375 2.515625 41.40625 1.703125 40.09375 1.703125 
C 36 1.703125 36 6.96875 36 11.4375 
z
M 30.703125 13.859375 
C 30.703125 5.046875 24.5 0.59375 19 0.59375 
C 14 0.59375 10.09375 4.34375 10.09375 9 
C 10.09375 12.046875 11.40625 17.40625 17.203125 20.65625 
C 22 23.390625 27.5 23.796875 30.703125 24 
z
" id="CMR17-97"/>
      <path d="M 43.09375 21.1875 
C 43.09375 34 33.796875 44 22.90625 44 
C 12 44 2.703125 34 2.703125 21.1875 
C 2.703125 8.59375 12 -1 22.90625 -1 
C 33.796875 -1 43.09375 8.59375 43.09375 21.1875 
z
M 22.90625 0.796875 
C 18.203125 0.796875 14.203125 3.59375 11.90625 7.5 
C 9.40625 12 9.09375 17.59375 9.09375 22 
C 9.09375 26.1875 9.296875 31.390625 11.90625 35.890625 
C 13.90625 39.1875 17.796875 42.390625 22.90625 42.390625 
C 27.40625 42.390625 31.203125 39.890625 33.59375 36.390625 
C 36.703125 31.6875 36.703125 25.09375 36.703125 22 
C 36.703125 18.09375 36.5 12.09375 33.796875 7.296875 
C 31 2.6875 26.703125 0.796875 22.90625 0.796875 
z
" id="CMR17-111"/>
      <path d="M 41.5 30.53125 
C 41.5 35.65625 40.5 44 28.703125 44 
C 20.796875 44 16.703125 37.875 15.203125 33.84375 
L 15.09375 33.84375 
L 15.09375 44 
L 3.296875 42.890625 
L 3.296875 40.28125 
C 9.203125 40.28125 10.09375 39.6875 10.09375 34.859375 
L 10.09375 6.921875 
C 10.09375 3.09375 9.703125 2.59375 3.296875 2.59375 
L 3.296875 0 
C 5.703125 0.1875 10.09375 0.1875 12.703125 0.1875 
C 15.296875 0.1875 19.796875 0.1875 22.203125 0 
L 22.203125 2.59375 
C 15.796875 2.59375 15.40625 3 15.40625 6.921875 
L 15.40625 26.21875 
C 15.40625 35.453125 21 42.390625 28 42.390625 
C 35.40625 42.390625 36.203125 35.765625 36.203125 30.9375 
L 36.203125 6.921875 
C 36.203125 3.09375 35.796875 2.59375 29.40625 2.59375 
L 29.40625 0 
C 31.796875 0.1875 36.203125 0.1875 38.796875 0.1875 
C 41.40625 0.1875 45.90625 0.1875 48.296875 0 
L 48.296875 2.59375 
C 41.90625 2.59375 41.5 3 41.5 6.921875 
z
" id="CMR17-110"/>
      <path d="M 28.09375 66.484375 
C 28.203125 66.890625 28.40625 67.484375 28.40625 67.984375 
C 28.40625 69 27.40625 69 27.203125 69 
C 27.09375 69 23.5 68.6875 21.703125 68.484375 
C 20 68.390625 18.5 68.1875 16.703125 68.09375 
C 14.296875 67.890625 13.59375 67.796875 13.59375 65.984375 
C 13.59375 64.984375 14.59375 64.984375 15.59375 64.984375 
C 20.703125 64.984375 20.703125 64.109375 20.703125 63.125 
C 20.703125 62.71875 20.703125 62.53125 20.203125 60.75 
L 5.90625 3.90625 
C 5.5 2.390625 5.5 2.203125 5.5 1.59375 
C 5.5 -0.609375 7.203125 -1 8.203125 -1 
C 11 -1 11.59375 1.1875 12.40625 4.296875 
L 17.09375 23.0625 
C 24.296875 22.265625 28.59375 19.25 28.59375 14.4375 
C 28.59375 13.828125 28.59375 13.4375 28.296875 11.921875 
C 27.90625 10.421875 27.90625 9.21875 27.90625 8.71875 
C 27.90625 2.890625 31.703125 -1 36.796875 -1 
C 41.40625 -1 43.796875 3.203125 44.59375 4.609375 
C 46.703125 8.3125 48 13.9375 48 14.328125 
C 48 14.828125 47.59375 15.234375 47 15.234375 
C 46.09375 15.234375 46 14.828125 45.59375 13.234375 
C 44.203125 8.015625 42.09375 1 37 1 
C 35 1 33.703125 2 33.703125 5.8125 
C 33.703125 7.71875 34.09375 9.921875 34.5 11.421875 
C 34.90625 13.234375 34.90625 13.328125 34.90625 14.53125 
C 34.90625 20.453125 29.59375 23.765625 20.40625 24.96875 
C 24 27.171875 27.59375 31.078125 29 32.59375 
C 34.703125 38.984375 38.59375 41.984375 43.203125 41.984375 
C 45.5 41.984375 46.09375 41.484375 46.796875 41 
C 43.09375 40.59375 41.703125 37.984375 41.703125 35.984375 
C 41.703125 33.59375 43.59375 32.796875 45 32.796875 
C 47.703125 32.796875 50.09375 35.09375 50.09375 38.296875 
C 50.09375 41.15625 47.796875 44 43.296875 44 
C 37.796875 44 33.296875 40.296875 26.203125 32.296875 
C 25.203125 31.078125 21.5 27.28125 17.796875 25.875 
z
" id="CMMI12-107"/>
     </defs>
     <g transform="translate(196.885256 259.234175)scale(0.1 -0.1)">
      <use transform="scale(0.996264)" xlink:href="#CMR17-105"/>
      <use transform="translate(24.871058 0)scale(0.996264)" xlink:href="#CMR17-116"/>
      <use transform="translate(60.151826 0)scale(0.996264)" xlink:href="#CMR17-101"/>
      <use transform="translate(100.637487 0)scale(0.996264)" xlink:href="#CMR17-114"/>
      <use transform="translate(135.918255 0)scale(0.996264)" xlink:href="#CMR17-97"/>
      <use transform="translate(181.608732 0)scale(0.996264)" xlink:href="#CMR17-116"/>
      <use transform="translate(216.889499 0)scale(0.996264)" xlink:href="#CMR17-105"/>
      <use transform="translate(241.760558 0)scale(0.996264)" xlink:href="#CMR17-111"/>
      <use transform="translate(287.451035 0)scale(0.996264)" xlink:href="#CMR17-110"/>
      <use transform="translate(368.422371 0)scale(0.996264)" xlink:href="#CMMI12-107"/>
     </g>
    </g>
   </g>
   <g id="matplotlib.axis_2">
    <g id="ytick_1">
     <g id="line2d_11">
      <path clip-path="url(#p80e0ffa006)" d="M 52.294451 232.46 
L 387.094451 232.46 
" style="fill:none;stroke:#b0b0b0;stroke-dasharray:0.8,1.32;stroke-dashoffset:0;stroke-width:0.8;"/>
     </g>
     <g id="line2d_12">
      <defs>
       <path d="M 0 0 
L -3.5 0 
" id="mb3e36f3dcc" style="stroke:#000000;stroke-width:0.8;"/>
      </defs>
      <g>
       <use style="stroke:#000000;stroke-width:0.8;" x="52.294451" xlink:href="#mb3e36f3dcc" y="232.46"/>
      </g>
     </g>
     <g id="text_7">
      <!-- $10^{-16}$ -->
      <defs>
       <path d="M 65.90625 23 
C 67.59375 23 69.40625 23 69.40625 25 
C 69.40625 27 67.59375 27 65.90625 27 
L 11.796875 27 
C 10.09375 27 8.296875 27 8.296875 25 
C 8.296875 23 10.09375 23 11.796875 23 
z
" id="CMSY10-0"/>
       <path d="M 10.59375 34.34375 
C 10.59375 58 21.796875 63.6875 28.296875 63.6875 
C 30.40625 63.6875 35.5 63.265625 37.5 59.09375 
C 35.90625 59.09375 32.90625 59.09375 32.90625 55.59375 
C 32.90625 52.890625 35.09375 52 36.5 52 
C 37.40625 52 40.09375 52.390625 40.09375 55.796875 
C 40.09375 62.296875 35.09375 66 28.203125 66 
C 16.296875 66 3.796875 53.296875 3.796875 31.421875 
C 3.796875 4.015625 15.09375 -2 23.09375 -2 
C 32.796875 -2 42 6.734375 42 20.234375 
C 42 32.828125 33.90625 42 23.703125 42 
C 17.59375 42 13.09375 37.96875 10.59375 30.921875 
z
M 23.09375 0.390625 
C 10.796875 0.390625 10.796875 18.9375 10.796875 22.65625 
C 10.796875 29.90625 14.203125 40.390625 23.5 40.390625 
C 25.203125 40.390625 30.09375 40.390625 33.40625 33.4375 
C 35.203125 29.515625 35.203125 25.375 35.203125 20.34375 
C 35.203125 14.90625 35.203125 10.875 33.09375 6.84375 
C 30.90625 2.703125 27.703125 0.390625 23.09375 0.390625 
z
" id="CMR17-54"/>
      </defs>
      <g transform="translate(21.16264 235.919249)scale(0.1 -0.1)">
       <use transform="scale(0.996264)" xlink:href="#CMR17-49"/>
       <use transform="translate(45.690477 0)scale(0.996264)" xlink:href="#CMR17-48"/>
       <use transform="translate(91.380954 36.153639)scale(0.697382)" xlink:href="#CMSY10-0"/>
       <use transform="translate(145.621947 36.153639)scale(0.697382)" xlink:href="#CMR17-49"/>
       <use transform="translate(177.605129 36.153639)scale(0.697382)" xlink:href="#CMR17-54"/>
      </g>
     </g>
    </g>
    <g id="ytick_2">
     <g id="line2d_13">
      <path clip-path="url(#p80e0ffa006)" d="M 52.294451 205.900278 
L 387.094451 205.900278 
" style="fill:none;stroke:#b0b0b0;stroke-dasharray:0.8,1.32;stroke-dashoffset:0;stroke-width:0.8;"/>
     </g>
     <g id="line2d_14">
      <g>
       <use style="stroke:#000000;stroke-width:0.8;" x="52.294451" xlink:href="#mb3e36f3dcc" y="205.900278"/>
      </g>
     </g>
     <g id="text_8">
      <!-- $10^{-14}$ -->
      <g transform="translate(21.16264 209.359527)scale(0.1 -0.1)">
       <use transform="scale(0.996264)" xlink:href="#CMR17-49"/>
       <use transform="translate(45.690477 0)scale(0.996264)" xlink:href="#CMR17-48"/>
       <use transform="translate(91.380954 36.153639)scale(0.697382)" xlink:href="#CMSY10-0"/>
       <use transform="translate(145.621947 36.153639)scale(0.697382)" xlink:href="#CMR17-49"/>
       <use transform="translate(177.605129 36.153639)scale(0.697382)" xlink:href="#CMR17-52"/>
      </g>
     </g>
    </g>
    <g id="ytick_3">
     <g id="line2d_15">
      <path clip-path="url(#p80e0ffa006)" d="M 52.294451 179.340556 
L 387.094451 179.340556 
" style="fill:none;stroke:#b0b0b0;stroke-dasharray:0.8,1.32;stroke-dashoffset:0;stroke-width:0.8;"/>
     </g>
     <g id="line2d_16">
      <g>
       <use style="stroke:#000000;stroke-width:0.8;" x="52.294451" xlink:href="#mb3e36f3dcc" y="179.340556"/>
      </g>
     </g>
     <g id="text_9">
      <!-- $10^{-12}$ -->
      <g transform="translate(21.16264 182.799805)scale(0.1 -0.1)">
       <use transform="scale(0.996264)" xlink:href="#CMR17-49"/>
       <use transform="translate(45.690477 0)scale(0.996264)" xlink:href="#CMR17-48"/>
       <use transform="translate(91.380954 36.153639)scale(0.697382)" xlink:href="#CMSY10-0"/>
       <use transform="translate(145.621947 36.153639)scale(0.697382)" xlink:href="#CMR17-49"/>
       <use transform="translate(177.605129 36.153639)scale(0.697382)" xlink:href="#CMR17-50"/>
      </g>
     </g>
    </g>
    <g id="ytick_4">
     <g id="line2d_17">
      <path clip-path="url(#p80e0ffa006)" d="M 52.294451 152.780834 
L 387.094451 152.780834 
" style="fill:none;stroke:#b0b0b0;stroke-dasharray:0.8,1.32;stroke-dashoffset:0;stroke-width:0.8;"/>
     </g>
     <g id="line2d_18">
      <g>
       <use style="stroke:#000000;stroke-width:0.8;" x="52.294451" xlink:href="#mb3e36f3dcc" y="152.780834"/>
      </g>
     </g>
     <g id="text_10">
      <!-- $10^{-10}$ -->
      <g transform="translate(21.16264 156.240083)scale(0.1 -0.1)">
       <use transform="scale(0.996264)" xlink:href="#CMR17-49"/>
       <use transform="translate(45.690477 0)scale(0.996264)" xlink:href="#CMR17-48"/>
       <use transform="translate(91.380954 36.153639)scale(0.697382)" xlink:href="#CMSY10-0"/>
       <use transform="translate(145.621947 36.153639)scale(0.697382)" xlink:href="#CMR17-49"/>
       <use transform="translate(177.605129 36.153639)scale(0.697382)" xlink:href="#CMR17-48"/>
      </g>
     </g>
    </g>
    <g id="ytick_5">
     <g id="line2d_19">
      <path clip-path="url(#p80e0ffa006)" d="M 52.294451 126.221112 
L 387.094451 126.221112 
" style="fill:none;stroke:#b0b0b0;stroke-dasharray:0.8,1.32;stroke-dashoffset:0;stroke-width:0.8;"/>
     </g>
     <g id="line2d_20">
      <g>
       <use style="stroke:#000000;stroke-width:0.8;" x="52.294451" xlink:href="#mb3e36f3dcc" y="126.221112"/>
      </g>
     </g>
     <g id="text_11">
      <!-- $10^{-8}$ -->
      <defs>
       <path d="M 27.203125 35.765625 
C 33.5 38.96875 39.90625 43.796875 39.90625 51.53125 
C 39.90625 60.6875 31.09375 66 23 66 
C 13.90625 66 5.90625 59.375 5.90625 50.234375 
C 5.90625 47.71875 6.5 43.390625 10.40625 39.578125 
C 11.40625 38.578125 15.59375 35.5625 18.296875 33.65625 
C 13.796875 31.34375 3.296875 25.8125 3.296875 14.765625 
C 3.296875 4.40625 13.09375 -2 22.796875 -2 
C 33.5 -2 42.5 5.71875 42.5 15.96875 
C 42.5 25.109375 36.40625 29.328125 32.40625 32.046875 
z
M 14.09375 44.609375 
C 13.296875 45.109375 9.296875 48.21875 9.296875 52.9375 
C 9.296875 59.078125 15.59375 63.6875 22.796875 63.6875 
C 30.703125 63.6875 36.5 58.0625 36.5 51.53125 
C 36.5 42.1875 26.09375 36.859375 25.59375 36.859375 
C 25.5 36.859375 25.40625 36.859375 24.59375 37.46875 
z
M 32.5 24 
C 34 22.90625 38.796875 19.578125 38.796875 13.453125 
C 38.796875 6.015625 31.40625 0.390625 23 0.390625 
C 13.90625 0.390625 7 6.921875 7 14.859375 
C 7 22.796875 13.09375 29.4375 20 32.546875 
z
" id="CMR17-56"/>
      </defs>
      <g transform="translate(25.133878 129.680361)scale(0.1 -0.1)">
       <use transform="scale(0.996264)" xlink:href="#CMR17-49"/>
       <use transform="translate(45.690477 0)scale(0.996264)" xlink:href="#CMR17-48"/>
       <use transform="translate(91.380954 36.153639)scale(0.697382)" xlink:href="#CMSY10-0"/>
       <use transform="translate(145.621947 36.153639)scale(0.697382)" xlink:href="#CMR17-56"/>
      </g>
     </g>
    </g>
    <g id="ytick_6">
     <g id="line2d_21">
      <path clip-path="url(#p80e0ffa006)" d="M 52.294451 99.66139 
L 387.094451 99.66139 
" style="fill:none;stroke:#b0b0b0;stroke-dasharray:0.8,1.32;stroke-dashoffset:0;stroke-width:0.8;"/>
     </g>
     <g id="line2d_22">
      <g>
       <use style="stroke:#000000;stroke-width:0.8;" x="52.294451" xlink:href="#mb3e36f3dcc" y="99.66139"/>
      </g>
     </g>
     <g id="text_12">
      <!-- $10^{-6}$ -->
      <g transform="translate(25.133878 103.120639)scale(0.1 -0.1)">
       <use transform="scale(0.996264)" xlink:href="#CMR17-49"/>
       <use transform="translate(45.690477 0)scale(0.996264)" xlink:href="#CMR17-48"/>
       <use transform="translate(91.380954 36.153639)scale(0.697382)" xlink:href="#CMSY10-0"/>
       <use transform="translate(145.621947 36.153639)scale(0.697382)" xlink:href="#CMR17-54"/>
      </g>
     </g>
    </g>
    <g id="ytick_7">
     <g id="line2d_23">
      <path clip-path="url(#p80e0ffa006)" d="M 52.294451 73.101668 
L 387.094451 73.101668 
" style="fill:none;stroke:#b0b0b0;stroke-dasharray:0.8,1.32;stroke-dashoffset:0;stroke-width:0.8;"/>
     </g>
     <g id="line2d_24">
      <g>
       <use style="stroke:#000000;stroke-width:0.8;" x="52.294451" xlink:href="#mb3e36f3dcc" y="73.101668"/>
      </g>
     </g>
     <g id="text_13">
      <!-- $10^{-4}$ -->
      <g transform="translate(25.133878 76.560918)scale(0.1 -0.1)">
       <use transform="scale(0.996264)" xlink:href="#CMR17-49"/>
       <use transform="translate(45.690477 0)scale(0.996264)" xlink:href="#CMR17-48"/>
       <use transform="translate(91.380954 36.153639)scale(0.697382)" xlink:href="#CMSY10-0"/>
       <use transform="translate(145.621947 36.153639)scale(0.697382)" xlink:href="#CMR17-52"/>
      </g>
     </g>
    </g>
    <g id="ytick_8">
     <g id="line2d_25">
      <path clip-path="url(#p80e0ffa006)" d="M 52.294451 46.541946 
L 387.094451 46.541946 
" style="fill:none;stroke:#b0b0b0;stroke-dasharray:0.8,1.32;stroke-dashoffset:0;stroke-width:0.8;"/>
     </g>
     <g id="line2d_26">
      <g>
       <use style="stroke:#000000;stroke-width:0.8;" x="52.294451" xlink:href="#mb3e36f3dcc" y="46.541946"/>
      </g>
     </g>
     <g id="text_14">
      <!-- $10^{-2}$ -->
      <g transform="translate(25.133878 50.001196)scale(0.1 -0.1)">
       <use transform="scale(0.996264)" xlink:href="#CMR17-49"/>
       <use transform="translate(45.690477 0)scale(0.996264)" xlink:href="#CMR17-48"/>
       <use transform="translate(91.380954 36.153639)scale(0.697382)" xlink:href="#CMSY10-0"/>
       <use transform="translate(145.621947 36.153639)scale(0.697382)" xlink:href="#CMR17-50"/>
      </g>
     </g>
    </g>
    <g id="ytick_9">
     <g id="line2d_27">
      <path clip-path="url(#p80e0ffa006)" d="M 52.294451 19.982224 
L 387.094451 19.982224 
" style="fill:none;stroke:#b0b0b0;stroke-dasharray:0.8,1.32;stroke-dashoffset:0;stroke-width:0.8;"/>
     </g>
     <g id="line2d_28">
      <g>
       <use style="stroke:#000000;stroke-width:0.8;" x="52.294451" xlink:href="#mb3e36f3dcc" y="19.982224"/>
      </g>
     </g>
     <g id="text_15">
      <!-- $10^{0}$ -->
      <g transform="translate(31.360543 23.441474)scale(0.1 -0.1)">
       <use transform="scale(0.996264)" xlink:href="#CMR17-49"/>
       <use transform="translate(45.690477 0)scale(0.996264)" xlink:href="#CMR17-48"/>
       <use transform="translate(91.380954 36.153639)scale(0.697382)" xlink:href="#CMR17-48"/>
      </g>
     </g>
    </g>
    <g id="text_16">
     <!-- $\mathbf{A}$-norm of error: $\| \mathbf{x}-\mathbf{x}_k \|_\mathbf{A}$ -->
     <defs>
      <path d="M 45.796875 67.703125 
C 45.09375 69.5 44.90625 70 42.5 70 
C 40 70 39.796875 69.5 39.09375 67.703125 
L 14.296875 6.703125 
C 13.59375 5.09375 13.59375 4.890625 10.796875 4.59375 
C 8.296875 4.296875 7.90625 4.296875 5.703125 4.296875 
L 3.90625 4.296875 
L 3.90625 0 
C 6.5 0.1875 12.5 0.1875 15.40625 0.1875 
C 18.09375 0.1875 25.40625 0.1875 27.703125 0 
L 27.703125 4.296875 
C 25.5 4.296875 21.703125 4.296875 18.90625 5.40625 
C 19.203125 6.3125 19.203125 6.5 19.40625 6.90625 
L 24.703125 20 
L 51.5 20 
L 57.796875 4.296875 
L 48.40625 4.296875 
L 48.40625 0 
C 51.59375 0.1875 61.296875 0.1875 65.09375 0.1875 
C 68.296875 0.1875 78.5 0.1875 81 0 
L 81 4.296875 
L 71.5 4.296875 
z
M 38.09375 53.03125 
L 49.703125 24.296875 
L 26.40625 24.296875 
z
" id="CMBX12-65"/>
      <path d="M 25.5 19.59375 
L 25.5 24 
L 0.40625 24 
L 0.40625 19.59375 
z
" id="CMR17-45"/>
      <path d="M 67.59375 30.53125 
C 67.59375 35.5625 66.703125 44 54.796875 44 
C 48 44 43.296875 39.375 41.5 33.953125 
L 41.40625 33.953125 
C 40.203125 42.1875 34.296875 44 28.703125 44 
C 20.796875 44 16.703125 37.875 15.203125 33.84375 
L 15.09375 33.84375 
L 15.09375 44 
L 3.296875 42.890625 
L 3.296875 40.28125 
C 9.203125 40.28125 10.09375 39.6875 10.09375 34.859375 
L 10.09375 6.921875 
C 10.09375 3.09375 9.703125 2.59375 3.296875 2.59375 
L 3.296875 0 
C 5.703125 0.1875 10.09375 0.1875 12.703125 0.1875 
C 15.296875 0.1875 19.796875 0.1875 22.203125 0 
L 22.203125 2.59375 
C 15.796875 2.59375 15.40625 3 15.40625 6.921875 
L 15.40625 26.21875 
C 15.40625 35.453125 21 42.390625 28 42.390625 
C 35.40625 42.390625 36.203125 35.765625 36.203125 30.9375 
L 36.203125 6.921875 
C 36.203125 3.09375 35.796875 2.59375 29.40625 2.59375 
L 29.40625 0 
C 31.796875 0.1875 36.203125 0.1875 38.796875 0.1875 
C 41.40625 0.1875 45.90625 0.1875 48.296875 0 
L 48.296875 2.59375 
C 41.90625 2.59375 41.5 3 41.5 6.921875 
L 41.5 26.21875 
C 41.5 35.453125 47.09375 42.390625 54.09375 42.390625 
C 61.5 42.390625 62.296875 35.765625 62.296875 30.9375 
L 62.296875 6.921875 
C 62.296875 3.09375 61.90625 2.59375 55.5 2.59375 
L 55.5 0 
C 57.90625 0.1875 62.296875 0.1875 64.90625 0.1875 
C 67.5 0.1875 72 0.1875 74.40625 0 
L 74.40625 2.59375 
C 68 2.59375 67.59375 3 67.59375 6.921875 
z
" id="CMR17-109"/>
      <path d="M 15.296875 40.390625 
L 26.703125 40.390625 
L 26.703125 43 
L 15.09375 43 
L 15.09375 55.296875 
C 15.09375 63.6875 19.296875 68.390625 23.59375 68.390625 
C 24.90625 68.390625 26.40625 68.171875 27.40625 67.796875 
C 26.59375 67.59375 24.5 66.890625 24.5 64.390625 
C 24.5 61.796875 26.5 61 27.90625 61 
C 29.296875 61 31.296875 61.796875 31.296875 64.390625 
C 31.296875 68.015625 27.703125 70 23.703125 70 
C 18 70 10.203125 65.796875 10.203125 55.09375 
L 10.203125 43 
L 2.203125 43 
L 2.203125 40.390625 
L 10.203125 40.390625 
L 10.203125 6.890625 
C 10.203125 3.09375 9.796875 2.59375 3.40625 2.59375 
L 3.40625 0 
C 5.796875 0.1875 10.40625 0.1875 13 0.1875 
C 15.90625 0.1875 21 0.1875 23.703125 0 
L 23.703125 2.59375 
C 16.5 2.59375 15.296875 2.59375 15.296875 7.09375 
z
" id="CMR17-102"/>
      <path d="M 16.59375 38.890625 
C 16.59375 41.390625 14.59375 43 12.5 43 
C 10.5 43 8.40625 41.390625 8.40625 38.890625 
C 8.40625 36.390625 10.40625 34.796875 12.5 34.796875 
C 14.5 34.796875 16.59375 36.390625 16.59375 38.890625 
z
M 16.59375 4.09375 
C 16.59375 6.59375 14.59375 8.1875 12.5 8.1875 
C 10.5 8.1875 8.40625 6.59375 8.40625 4.09375 
C 8.40625 1.59375 10.40625 0 12.5 0 
C 14.5 0 16.59375 1.59375 16.59375 4.09375 
z
" id="CMR17-58"/>
      <path d="M 17.203125 71.59375 
C 17.203125 73.1875 17.203125 75 15.203125 75 
C 13.203125 75 13.203125 72.796875 13.203125 71.296875 
L 13.203125 -21.3125 
C 13.203125 -22.90625 13.203125 -25 15.203125 -25 
C 17.203125 -25 17.203125 -23.203125 17.203125 -21.609375 
z
M 36.703125 71.296875 
C 36.703125 72.890625 36.703125 75 34.703125 75 
C 32.703125 75 32.703125 73.1875 32.703125 71.59375 
L 32.703125 -21.609375 
C 32.703125 -23.203125 32.703125 -25 34.703125 -25 
C 36.703125 -25 36.703125 -22.8125 36.703125 -21.3125 
z
" id="CMSY10-107"/>
      <path d="M 33.703125 24.46875 
L 45.296875 37.609375 
C 46.40625 38.90625 47.296875 39.6875 55.59375 39.6875 
L 55.59375 44 
C 50 43.796875 49.796875 43.796875 46.40625 43.796875 
C 43.5 43.796875 39.203125 43.796875 36.40625 44 
L 36.40625 39.6875 
C 38.296875 39.6875 40.40625 39.203125 40.40625 38.5 
C 40.40625 38.3125 39.90625 37.609375 39.703125 37.421875 
L 31 27.71875 
L 21.09375 39.6875 
L 25.296875 39.6875 
L 25.296875 44 
C 23 43.796875 16.203125 43.796875 13.5 43.796875 
C 10.5 43.796875 5.09375 43.796875 2.296875 44 
L 2.296875 39.6875 
L 9.40625 39.6875 
L 25 20.90625 
L 12 6.375 
C 10.796875 4.984375 10.09375 4.296875 1.796875 4.296875 
L 1.796875 0 
C 7.796875 0.1875 8 0.1875 11.09375 0.1875 
C 14 0.1875 18.203125 0.1875 21 0 
L 21 4.296875 
C 19.09375 4.296875 17 4.78125 17 5.484375 
C 17 5.578125 17 5.671875 17.703125 6.46875 
L 27.703125 17.640625 
L 38.796875 4.296875 
L 34.59375 4.296875 
L 34.59375 0 
C 37 0.1875 43.703125 0.1875 46.5 0.1875 
C 49.5 0.1875 54.796875 0.1875 57.59375 0 
L 57.59375 4.296875 
L 50.59375 4.296875 
z
" id="CMBX12-120"/>
     </defs>
     <g transform="translate(15.225462 183.362537)rotate(-90)scale(0.1 -0.1)">
      <use transform="translate(0 14.943915)scale(0.996264)" xlink:href="#CMBX12-65"/>
      <use transform="translate(84.636395 14.943915)scale(0.996264)" xlink:href="#CMR17-45"/>
      <use transform="translate(114.712361 14.943915)scale(0.996264)" xlink:href="#CMR17-110"/>
      <use transform="translate(165.607731 14.943915)scale(0.996264)" xlink:href="#CMR17-111"/>
      <use transform="translate(211.298208 14.943915)scale(0.996264)" xlink:href="#CMR17-114"/>
      <use transform="translate(246.578976 14.943915)scale(0.996264)" xlink:href="#CMR17-109"/>
      <use transform="translate(353.574532 14.943915)scale(0.996264)" xlink:href="#CMR17-111"/>
      <use transform="translate(399.265009 14.943915)scale(0.996264)" xlink:href="#CMR17-102"/>
      <use transform="translate(456.814488 14.943915)scale(0.996264)" xlink:href="#CMR17-101"/>
      <use transform="translate(497.300148 14.943915)scale(0.996264)" xlink:href="#CMR17-114"/>
      <use transform="translate(532.580916 14.943915)scale(0.996264)" xlink:href="#CMR17-114"/>
      <use transform="translate(567.861684 14.943915)scale(0.996264)" xlink:href="#CMR17-111"/>
      <use transform="translate(613.552161 14.943915)scale(0.996264)" xlink:href="#CMR17-114"/>
      <use transform="translate(648.832929 14.943915)scale(0.996264)" xlink:href="#CMR17-58"/>
      <use transform="translate(714.189648 14.943915)scale(0.996264)" xlink:href="#CMSY10-107"/>
      <use transform="translate(764.003031 14.943915)scale(0.996264)" xlink:href="#CMBX12-120"/>
      <use transform="translate(845.295413 14.943915)scale(0.996264)" xlink:href="#CMSY10-0"/>
      <use transform="translate(944.922088 14.943915)scale(0.996264)" xlink:href="#CMBX12-120"/>
      <use transform="translate(1004.075263 0)scale(0.697382)" xlink:href="#CMMI12-107"/>
      <use transform="translate(1042.428646 14.943915)scale(0.996264)" xlink:href="#CMSY10-107"/>
      <use transform="translate(1092.242029 0)scale(0.697382)" xlink:href="#CMBX12-65"/>
     </g>
    </g>
   </g>
   <g id="line2d_29">
    <path clip-path="url(#p80e0ffa006)" d="M 67.512633 19.982224 
L 68.426638 45.523708 
L 68.731306 48.477123 
L 69.340643 49.844934 
L 69.645311 50.24332 
L 69.949979 52.62081 
L 70.863984 53.752105 
L 71.473321 54.294558 
L 71.777989 54.482708 
L 72.082657 55.057056 
L 72.691994 55.328754 
L 72.996662 55.650253 
L 77.871355 57.877872 
L 83.964721 59.49789 
L 84.878726 59.655109 
L 89.753419 60.533981 
L 96.76079 61.484265 
L 104.072829 62.225599 
L 115.345557 62.739497 
L 117.478235 62.896171 
L 129.664967 63.887206 
L 132.406982 64.133941 
L 144.593714 65.053096 
L 157.085114 65.959654 
L 160.436466 66.330249 
L 179.021232 67.764544 
L 186.942608 68.076784 
L 194.254648 68.368662 
L 199.129341 68.512607 
L 208.878726 68.711831 
L 217.104771 68.984213 
L 225.026146 69.619589 
L 229.900839 69.863912 
L 232.642854 70.007796 
L 237.822215 70.129086 
L 259.758333 70.630788 
L 260.977006 70.931205 
L 261.891011 71.521832 
L 264.023689 74.219444 
L 264.937694 76.656236 
L 265.242363 77.698641 
L 266.765704 80.623236 
L 267.679709 81.558504 
L 268.593714 83.320112 
L 268.898382 84.234515 
L 271.03106 92.651433 
L 271.640397 94.875121 
L 272.249734 96.327859 
L 273.163739 97.035102 
L 273.773075 97.28169 
L 274.077743 97.644513 
L 274.68708 98.810857 
L 275.296417 99.772408 
L 275.601085 100.52353 
L 275.905753 100.625468 
L 276.51509 100.994691 
L 277.124427 101.254396 
L 278.3431 102.769082 
L 278.952436 103.283416 
L 279.866441 104.148605 
L 280.17111 104.293145 
L 280.475778 105.173518 
L 282.303788 106.496799 
L 282.608456 106.617604 
L 283.217793 107.017523 
L 283.522461 107.237324 
L 284.131798 107.325153 
L 284.741134 107.629521 
L 285.045802 107.745708 
L 285.350471 108.065634 
L 285.959807 108.456183 
L 286.873812 109.003312 
L 287.178481 109.137601 
L 287.787817 110.433551 
L 288.397154 110.624736 
L 289.00649 111.338535 
L 289.311159 111.761426 
L 289.615827 111.993676 
L 289.920495 112.606636 
L 290.225164 112.87131 
L 290.529832 112.974291 
L 291.139169 113.620853 
L 292.967178 114.505387 
L 293.576515 114.706628 
L 293.881183 114.900659 
L 294.49052 115.087683 
L 294.795188 115.319155 
L 295.404525 116.636755 
L 295.709193 117.410209 
L 296.013861 118.610001 
L 296.31853 120.448674 
L 296.927866 121.615469 
L 297.537203 123.912518 
L 298.755876 125.492889 
L 299.669881 126.048262 
L 299.974549 126.330829 
L 301.497891 126.822724 
L 302.107228 126.930119 
L 303.935237 127.602668 
L 307.286589 127.759239 
L 308.80993 127.92013 
L 309.419267 128.104941 
L 310.028603 128.556416 
L 310.63794 129.13819 
L 311.551945 129.831224 
L 311.856613 130.013934 
L 312.46595 131.031322 
L 313.379955 132.82047 
L 314.29396 139.205097 
L 314.598628 139.83386 
L 314.903296 141.688492 
L 315.207965 142.683155 
L 315.512633 144.267154 
L 315.817301 144.802558 
L 316.12197 146.274794 
L 316.731306 151.37443 
L 317.035974 153.004686 
L 317.340643 153.527965 
L 317.645311 154.966019 
L 318.254648 160.462526 
L 318.863984 163.031074 
L 319.168653 164.874463 
L 319.777989 167.253936 
L 320.082657 168.583538 
L 320.387326 169.168675 
L 321.301331 169.905163 
L 325.871355 169.939587 
L 371.876269 169.933414 
L 371.876269 169.933414 
" style="fill:none;stroke:#93a1a1;stroke-linecap:square;stroke-width:1.5;"/>
    <defs>
     <path d="M 0 3 
C 0.795609 3 1.55874 2.683901 2.12132 2.12132 
C 2.683901 1.55874 3 0.795609 3 0 
C 3 -0.795609 2.683901 -1.55874 2.12132 -2.12132 
C 1.55874 -2.683901 0.795609 -3 0 -3 
C -0.795609 -3 -1.55874 -2.683901 -2.12132 -2.12132 
C -2.683901 -1.55874 -3 -0.795609 -3 0 
C -3 0.795609 -2.683901 1.55874 -2.12132 2.12132 
C -1.55874 2.683901 -0.795609 3 0 3 
z
" id="mcade47ecaa" style="stroke:#93a1a1;"/>
    </defs>
    <g clip-path="url(#p80e0ffa006)">
     <use style="fill:#93a1a1;stroke:#93a1a1;" x="67.512633" xlink:href="#mcade47ecaa" y="19.982224"/>
     <use style="fill:#93a1a1;stroke:#93a1a1;" x="128.446294" xlink:href="#mcade47ecaa" y="63.795191"/>
     <use style="fill:#93a1a1;stroke:#93a1a1;" x="189.379955" xlink:href="#mcade47ecaa" y="68.166442"/>
     <use style="fill:#93a1a1;stroke:#93a1a1;" x="250.313616" xlink:href="#mcade47ecaa" y="70.4146"/>
     <use style="fill:#93a1a1;stroke:#93a1a1;" x="311.247277" xlink:href="#mcade47ecaa" y="129.661888"/>
    </g>
   </g>
   <g id="line2d_30">
    <path clip-path="url(#p80e0ffa006)" d="M 67.512633 19.982224 
L 68.426638 45.523708 
L 68.731306 48.477123 
L 69.340643 49.844934 
L 69.645311 50.24332 
L 69.949979 52.619304 
L 70.863984 53.732312 
L 71.473321 54.064866 
L 71.777989 54.273964 
L 72.387326 55.035485 
L 73.301331 55.52526 
L 73.910667 55.753596 
L 74.215336 56.063271 
L 74.520004 56.171433 
L 75.129341 56.521961 
L 76.043345 56.862846 
L 76.652682 57.156962 
L 79.699365 58.150194 
L 85.183395 59.486801 
L 86.706736 59.748188 
L 88.230078 60.070616 
L 89.753419 60.296244 
L 91.581429 60.577945 
L 100.721478 61.717103 
L 110.166196 62.438763 
L 116.56423 62.646409 
L 150.077743 65.197476 
L 153.733763 65.404155 
L 162.873812 66.248891 
L 165.311159 66.41896 
L 170.49052 66.86743 
L 178.107228 67.423883 
L 179.630569 67.532499 
L 181.458579 67.667749 
L 186.942608 67.908828 
L 202.78536 68.488296 
L 212.230078 68.686065 
L 220.76079 68.88726 
L 232.033517 69.72191 
L 244.829586 70.162886 
L 251.532289 70.318808 
L 265.547031 70.680684 
L 266.156368 70.854592 
L 267.375041 71.590319 
L 268.289046 72.483005 
L 269.203051 73.914936 
L 269.812387 75.260704 
L 270.117056 75.545476 
L 272.249734 80.417373 
L 272.554402 80.955422 
L 273.468407 81.835024 
L 274.382412 83.509378 
L 275.601085 88.936771 
L 276.210422 90.879642 
L 276.51509 92.711838 
L 277.429095 95.540124 
L 277.733763 96.098522 
L 278.038431 96.271498 
L 278.647768 96.918597 
L 278.952436 97.018573 
L 279.561773 97.585924 
L 279.866441 97.870587 
L 280.475778 99.287304 
L 280.780446 99.632539 
L 281.085114 100.42238 
L 282.608456 101.345868 
L 283.217793 101.605734 
L 284.741134 103.44327 
L 285.350471 104.036128 
L 285.655139 104.108862 
L 286.264476 104.939825 
L 286.569144 105.244753 
L 286.873812 105.791747 
L 287.483149 106.203318 
L 289.311159 107.121726 
L 289.615827 107.274971 
L 289.920495 107.298605 
L 291.139169 107.966874 
L 291.443837 108.022782 
L 292.053173 108.65662 
L 293.576515 109.552391 
L 294.185852 110.108115 
L 294.49052 110.30172 
L 295.099857 110.967465 
L 295.709193 111.362195 
L 296.31853 112.325435 
L 297.232535 113.117185 
L 298.451208 113.804208 
L 299.974549 114.507849 
L 300.583886 114.723039 
L 301.193223 114.950923 
L 301.802559 115.265286 
L 302.411896 115.921292 
L 302.716564 116.75569 
L 303.021232 118.523188 
L 303.325901 119.465347 
L 303.630569 119.84194 
L 304.239906 122.489379 
L 304.544574 123.154794 
L 304.849242 123.513378 
L 305.458579 124.726094 
L 305.763247 125.219146 
L 307.286589 126.29965 
L 312.161282 127.669197 
L 316.426638 127.969106 
L 317.340643 128.211114 
L 319.168653 129.65144 
L 320.082657 130.643345 
L 320.691994 131.762907 
L 321.301331 134.062746 
L 321.605999 135.253966 
L 322.215336 138.692144 
L 322.520004 140.327613 
L 322.824672 141.12872 
L 324.652682 149.939658 
L 325.262019 154.337477 
L 325.871355 156.640051 
L 327.090029 163.438132 
L 328.004033 165.424502 
L 328.61337 165.928374 
L 329.527375 166.07143 
L 331.964721 166.223146 
L 332.878726 166.709633 
L 333.488063 166.931453 
L 336.839414 167.434587 
L 337.448751 167.590622 
L 338.362756 167.694066 
L 340.190766 167.858071 
L 341.409439 168.248943 
L 342.628112 168.326397 
L 344.151454 168.481122 
L 348.41681 168.745859 
L 361.822215 168.851837 
L 371.876269 168.620355 
L 371.876269 168.620355 
" style="fill:none;stroke:#93a1a1;stroke-linecap:square;stroke-width:1.5;"/>
    <defs>
     <path d="M 0 -3 
L -3 3 
L 3 3 
z
" id="m71bc37771e" style="stroke:#93a1a1;stroke-linejoin:miter;"/>
    </defs>
    <g clip-path="url(#p80e0ffa006)">
     <use style="fill:#93a1a1;stroke:#93a1a1;stroke-linejoin:miter;" x="82.746048" xlink:href="#m71bc37771e" y="58.95414"/>
     <use style="fill:#93a1a1;stroke:#93a1a1;stroke-linejoin:miter;" x="143.679709" xlink:href="#m71bc37771e" y="64.763755"/>
     <use style="fill:#93a1a1;stroke:#93a1a1;stroke-linejoin:miter;" x="204.61337" xlink:href="#m71bc37771e" y="68.526955"/>
     <use style="fill:#93a1a1;stroke:#93a1a1;stroke-linejoin:miter;" x="265.547031" xlink:href="#m71bc37771e" y="70.680684"/>
     <use style="fill:#93a1a1;stroke:#93a1a1;stroke-linejoin:miter;" x="326.480692" xlink:href="#m71bc37771e" y="159.9746"/>
    </g>
   </g>
   <g id="line2d_31">
    <path clip-path="url(#p80e0ffa006)" d="M 67.512633 19.982224 
L 68.426638 45.523708 
L 68.731306 48.477123 
L 69.340643 49.844934 
L 69.645311 50.24332 
L 69.949979 52.619564 
L 70.559316 53.399329 
L 71.473321 54.049842 
L 71.777989 54.125185 
L 72.387326 55.012029 
L 72.996662 55.34447 
L 73.605999 55.615912 
L 74.215336 55.986504 
L 74.520004 56.224869 
L 75.434009 56.595561 
L 77.871355 57.594146 
L 79.090029 57.944302 
L 79.699365 58.14295 
L 82.136712 58.756325 
L 85.792731 59.55959 
L 89.753419 60.256278 
L 91.581429 60.51402 
L 94.628112 60.94032 
L 98.5888 61.404778 
L 100.112142 61.575509 
L 112.298874 62.462939 
L 120.829586 62.840307 
L 122.962264 63.003084 
L 129.664967 63.491773 
L 132.71165 63.736642 
L 134.53966 63.881045 
L 138.805016 64.192024 
L 140.633026 64.347992 
L 143.679709 64.566098 
L 150.077743 64.998579 
L 157.085114 65.382813 
L 164.701822 65.989519 
L 168.357842 66.346717 
L 174.14654 66.756286 
L 175.669881 66.886321 
L 178.411896 67.060423 
L 179.935237 67.184096 
L 183.591257 67.431582 
L 186.333272 67.613313 
L 210.0974 68.489844 
L 231.728849 69.074904 
L 234.775532 69.346734 
L 238.126884 69.520159 
L 243.915581 69.809923 
L 253.664967 70.128885 
L 278.3431 70.629014 
L 279.257105 70.9107 
L 280.780446 71.618627 
L 281.389783 72.301929 
L 282.303788 73.43744 
L 282.913124 74.287228 
L 283.217793 74.8483 
L 283.522461 75.136551 
L 283.827129 76.727231 
L 284.131798 77.489906 
L 284.436466 77.8023 
L 285.959807 80.330056 
L 286.264476 80.782298 
L 286.873812 81.404396 
L 287.178481 82.151419 
L 287.483149 82.285952 
L 288.092486 83.305645 
L 289.311159 87.24918 
L 289.615827 88.872283 
L 290.529832 91.551106 
L 291.139169 94.144044 
L 292.357842 96.540527 
L 293.271847 97.256948 
L 294.185852 97.796269 
L 295.099857 99.356956 
L 296.623198 100.891643 
L 297.537203 101.50075 
L 298.14654 101.869966 
L 298.451208 102.172637 
L 298.755876 102.790398 
L 299.365213 103.275228 
L 300.583886 104.099914 
L 301.802559 105.158964 
L 302.107228 105.809918 
L 302.411896 105.955686 
L 302.716564 106.298495 
L 303.021232 106.367292 
L 303.325901 106.704241 
L 303.935237 106.876296 
L 304.544574 107.133501 
L 305.458579 107.397192 
L 306.98192 107.842792 
L 307.286589 108.173631 
L 307.591257 108.311712 
L 307.895925 108.84626 
L 308.200594 109.107964 
L 309.419267 109.667755 
L 310.028603 110.017603 
L 311.247277 111.111399 
L 311.551945 111.324521 
L 311.856613 111.971012 
L 312.770618 112.734431 
L 313.075286 112.867912 
L 313.684623 113.338903 
L 313.989291 113.398621 
L 314.598628 113.894117 
L 315.207965 114.122031 
L 316.426638 114.572855 
L 317.035974 114.742126 
L 317.645311 115.16745 
L 317.949979 115.244006 
L 318.254648 115.463044 
L 318.559316 115.86026 
L 318.863984 115.988436 
L 319.168653 116.643647 
L 320.691994 121.497017 
L 320.996662 121.888067 
L 321.301331 123.087937 
L 322.215336 124.981078 
L 322.520004 125.283312 
L 322.824672 125.405124 
L 323.434009 125.949495 
L 323.738677 126.045704 
L 324.348014 126.35261 
L 326.176024 126.925356 
L 327.394697 127.183157 
L 327.699365 127.393987 
L 330.136712 127.694051 
L 333.792731 127.929891 
L 334.402068 128.013636 
L 335.011404 128.244648 
L 336.534746 129.58393 
L 337.448751 130.013864 
L 337.753419 130.432219 
L 338.058087 131.4486 
L 338.362756 131.815312 
L 338.972092 133.129118 
L 339.581429 135.87452 
L 339.886097 136.604512 
L 340.800102 141.520588 
L 341.104771 143.283747 
L 341.714107 145.355886 
L 342.628112 148.411662 
L 342.93278 151.357604 
L 343.237449 152.157894 
L 343.846785 155.820335 
L 344.151454 157.202328 
L 344.456122 159.809774 
L 344.76079 160.939632 
L 345.370127 164.230011 
L 345.979463 166.969817 
L 346.893468 169.102299 
L 347.502805 169.675047 
L 348.112142 169.927723 
L 349.330815 169.997803 
L 371.876269 170.006032 
L 371.876269 170.006032 
" style="fill:none;stroke:#93a1a1;stroke-linecap:square;stroke-width:1.5;"/>
    <defs>
     <path d="M -0 3 
L 3 -3 
L -3 -3 
z
" id="m6feba40b49" style="stroke:#93a1a1;stroke-linejoin:miter;"/>
    </defs>
    <g clip-path="url(#p80e0ffa006)">
     <use style="fill:#93a1a1;stroke:#93a1a1;stroke-linejoin:miter;" x="97.979463" xlink:href="#m6feba40b49" y="61.32559"/>
     <use style="fill:#93a1a1;stroke:#93a1a1;stroke-linejoin:miter;" x="158.913124" xlink:href="#m6feba40b49" y="65.485216"/>
     <use style="fill:#93a1a1;stroke:#93a1a1;stroke-linejoin:miter;" x="219.846785" xlink:href="#m6feba40b49" y="68.677503"/>
     <use style="fill:#93a1a1;stroke:#93a1a1;stroke-linejoin:miter;" x="280.780446" xlink:href="#m6feba40b49" y="71.618627"/>
     <use style="fill:#93a1a1;stroke:#93a1a1;stroke-linejoin:miter;" x="341.714107" xlink:href="#m6feba40b49" y="145.355886"/>
    </g>
   </g>
   <g id="line2d_32">
    <path clip-path="url(#p80e0ffa006)" d="M 67.512633 19.982224 
L 68.426638 45.523708 
L 68.731306 48.477123 
L 69.340643 49.844934 
L 69.645311 50.24332 
L 69.949979 52.157127 
L 70.559316 53.047395 
L 70.863984 53.365155 
L 71.168653 53.451788 
L 71.473321 53.748748 
L 71.777989 53.813646 
L 72.082657 54.381374 
L 72.691994 54.804295 
L 74.215336 55.567672 
L 76.95735 56.776243 
L 77.566687 56.933203 
L 79.090029 57.449718 
L 80.308702 57.706573 
L 82.136712 58.220312 
L 92.495434 60.054687 
L 95.237449 60.40473 
L 98.893468 60.847269 
L 101.026146 61.045101 
L 104.377498 61.379917 
L 109.861527 61.839344 
L 121.134255 62.415811 
L 130.578972 62.636112 
L 144.289046 62.880104 
L 150.68708 62.725384 
L 156.780446 62.302784 
L 163.178481 61.457331 
L 167.748505 60.606436 
L 169.576515 60.111346 
L 171.404525 59.609341 
L 175.974549 57.823188 
L 176.583886 57.391344 
L 176.888554 57.330297 
L 179.630569 55.43127 
L 180.544574 54.48468 
L 180.849242 54.003092 
L 181.153911 53.785018 
L 182.372584 52.040407 
L 182.677252 51.510876 
L 183.895925 48.385196 
L 184.200594 46.905782 
L 184.505262 44.820249 
L 184.80993 43.695081 
L 185.723935 32.637531 
L 186.028603 41.31535 
L 186.333272 44.532238 
L 186.63794 45.31902 
L 187.247277 48.007086 
L 187.551945 48.39897 
L 187.856613 49.314727 
L 189.075286 51.196582 
L 189.379955 51.351583 
L 189.684623 51.657547 
L 189.989291 51.757239 
L 190.598628 52.088381 
L 191.512633 52.666718 
L 192.12197 52.866591 
L 193.035974 53.314708 
L 193.645311 53.788915 
L 195.473321 54.378774 
L 196.387326 54.698191 
L 197.910667 55.145771 
L 199.738677 55.523946 
L 200.652682 55.752757 
L 202.78536 56.186302 
L 203.394697 56.311074 
L 204.308702 56.458022 
L 205.832043 56.749592 
L 206.746048 56.827769 
L 207.355385 56.953956 
L 210.0974 57.325044 
L 228.682166 58.840019 
L 233.252191 59.104403 
L 257.016318 59.734556 
L 268.593714 59.956131 
L 277.124427 60.06475 
L 288.397154 59.94643 
L 290.8345 59.763023 
L 295.099857 59.116829 
L 297.537203 58.277427 
L 298.451208 57.303613 
L 299.060544 56.136425 
L 299.365213 55.503146 
L 300.583886 51.517729 
L 301.193223 49.270145 
L 301.497891 45.005417 
L 301.802559 30.982636 
L 302.107228 45.921659 
L 302.411896 49.685395 
L 302.716564 51.241726 
L 303.325901 52.525469 
L 303.935237 53.81483 
L 304.239906 54.230253 
L 304.849242 55.592134 
L 305.153911 55.847703 
L 305.458579 56.329091 
L 305.763247 56.507189 
L 306.067915 56.983816 
L 306.98192 57.519549 
L 308.200594 57.918579 
L 311.247277 58.488574 
L 313.379955 58.625827 
L 320.691994 58.887185 
L 337.753419 59.344694 
L 341.409439 59.457071 
L 343.542117 59.631679 
L 345.370127 59.718063 
L 345.674795 59.566352 
L 345.979463 59.281329 
L 346.284132 58.328929 
L 346.5888 56.68158 
L 347.198137 51.195317 
L 347.807473 39.393007 
L 348.112142 50.356463 
L 348.41681 51.082686 
L 348.721478 51.393766 
L 349.026146 52.106323 
L 349.940151 52.599491 
L 350.24482 52.713541 
L 350.854156 53.160641 
L 351.158825 53.239833 
L 351.768161 53.833417 
L 352.377498 55.166164 
L 352.682166 55.330599 
L 352.986834 55.791591 
L 354.205508 56.601791 
L 356.947522 57.48 
L 357.252191 57.731671 
L 362.73622 58.389689 
L 366.696908 58.689111 
L 371.876269 59.074199 
L 371.876269 59.074199 
" style="fill:none;stroke:#93a1a1;stroke-linecap:square;stroke-width:1.5;"/>
    <defs>
     <path d="M -3 3 
L 3 3 
L 3 -3 
L -3 -3 
z
" id="md9213b3a01" style="stroke:#93a1a1;stroke-linejoin:miter;"/>
    </defs>
    <g clip-path="url(#p80e0ffa006)">
     <use style="fill:#93a1a1;stroke:#93a1a1;stroke-linejoin:miter;" x="113.212879" xlink:href="#md9213b3a01" y="62.067625"/>
     <use style="fill:#93a1a1;stroke:#93a1a1;stroke-linejoin:miter;" x="174.14654" xlink:href="#md9213b3a01" y="58.639895"/>
     <use style="fill:#93a1a1;stroke:#93a1a1;stroke-linejoin:miter;" x="235.0802" xlink:href="#md9213b3a01" y="59.179425"/>
     <use style="fill:#93a1a1;stroke:#93a1a1;stroke-linejoin:miter;" x="296.013861" xlink:href="#md9213b3a01" y="58.927608"/>
     <use style="fill:#93a1a1;stroke:#93a1a1;stroke-linejoin:miter;" x="356.947522" xlink:href="#md9213b3a01" y="57.48"/>
    </g>
   </g>
   <g id="line2d_33">
    <path clip-path="url(#p80e0ffa006)" d="M 67.512633 19.982224 
L 68.426638 45.523708 
L 68.731306 48.477123 
L 69.340643 49.844934 
L 69.645311 50.24332 
L 69.949979 52.151725 
L 70.254648 52.62449 
L 71.777989 53.806091 
L 72.082657 54.251363 
L 73.605999 55.108836 
L 74.215336 55.423089 
L 75.738677 56.144381 
L 76.348014 56.345929 
L 76.95735 56.651252 
L 77.566687 56.803144 
L 79.394697 57.421449 
L 80.918038 57.739087 
L 83.964721 58.476509 
L 85.183395 58.686406 
L 89.753419 59.448743 
L 98.893468 60.614676 
L 101.940151 60.941163 
L 106.814844 61.389652 
L 110.470864 61.686031 
L 116.868898 62.135126 
L 124.790274 62.44788 
L 140.328358 63.023276 
L 145.507719 63.297385 
L 149.163739 63.502563 
L 160.131798 64.114806 
L 200.95735 66.17264 
L 202.78536 66.305106 
L 206.746048 66.511516 
L 209.792731 66.680847 
L 241.782903 67.869712 
L 253.969635 68.142283 
L 259.758333 68.291098 
L 273.468407 68.52517 
L 294.49052 68.758938 
L 298.755876 68.931718 
L 311.551945 69.408166 
L 320.691994 69.653756 
L 323.738677 69.738095 
L 360.603542 70.144695 
L 369.134255 70.266454 
L 370.962264 70.552719 
L 371.876269 70.754227 
L 371.876269 70.754227 
" style="fill:none;stroke:#6c71c4;stroke-linecap:square;stroke-width:1.5;"/>
   </g>
   <g id="line2d_34">
    <path clip-path="url(#p80e0ffa006)" d="M 67.512633 19.982224 
L 68.426638 45.523708 
L 68.731306 48.477123 
L 69.340643 49.844934 
L 69.645311 50.24332 
L 69.949979 52.619718 
L 70.559316 53.400438 
L 70.863984 53.66857 
L 71.168653 53.77747 
L 71.473321 54.057237 
L 71.777989 54.150336 
L 72.387326 54.96713 
L 75.129341 56.466239 
L 77.871355 57.576758 
L 78.480692 57.724192 
L 79.090029 57.995408 
L 80.004033 58.227715 
L 81.832043 58.675229 
L 88.230078 60.004046 
L 91.276761 60.473468 
L 96.151454 61.153753 
L 106.205508 62.164172 
L 111.0802 62.439667 
L 122.352928 62.981689 
L 142.156368 64.528232 
L 143.984377 64.682624 
L 156.780446 65.439479 
L 176.888554 67.113029 
L 179.935237 67.332974 
L 183.591257 67.575847 
L 186.63794 67.740681 
L 190.29396 67.900989 
L 217.104771 68.682846 
L 226.854156 68.902529 
L 228.986834 69.134873 
L 230.205508 69.272257 
L 236.90821 69.637917 
L 257.625655 70.252791 
L 274.991748 70.751866 
L 275.601085 70.918988 
L 276.819758 71.514757 
L 277.429095 72.143089 
L 279.257105 74.79366 
L 281.999119 80.13952 
L 283.217793 81.959763 
L 283.827129 82.602454 
L 284.741134 84.383159 
L 285.045802 85.831266 
L 285.959807 88.65572 
L 287.178481 93.68734 
L 287.483149 94.223995 
L 287.787817 95.780758 
L 289.00649 96.954387 
L 289.920495 97.45302 
L 290.8345 98.285903 
L 291.443837 99.477766 
L 291.748505 99.738206 
L 292.357842 100.637197 
L 292.66251 100.781185 
L 292.967178 101.059779 
L 293.576515 101.281128 
L 294.185852 101.826892 
L 294.49052 101.981538 
L 294.795188 102.459702 
L 297.537203 104.546971 
L 297.841871 105.216259 
L 298.451208 105.469446 
L 298.755876 106.010804 
L 299.974549 106.664256 
L 300.583886 106.770642 
L 300.888554 107.072559 
L 301.497891 107.269558 
L 301.802559 107.413142 
L 302.411896 107.524904 
L 302.716564 107.703808 
L 303.021232 107.738063 
L 303.935237 108.336368 
L 304.239906 108.792268 
L 304.849242 108.974546 
L 305.153911 109.299743 
L 305.763247 109.454678 
L 306.067915 109.862116 
L 306.98192 110.419316 
L 307.591257 111.074481 
L 307.895925 111.356811 
L 308.80993 112.642765 
L 309.114599 112.724227 
L 309.723935 113.048334 
L 312.770618 114.506518 
L 314.598628 115.350556 
L 315.207965 115.865548 
L 315.512633 116.187749 
L 315.817301 117.033295 
L 316.12197 118.85136 
L 316.426638 119.467324 
L 317.340643 122.892221 
L 318.254648 124.243587 
L 318.559316 124.367292 
L 319.168653 125.341464 
L 320.082657 126.024988 
L 320.691994 126.354496 
L 322.520004 126.859901 
L 323.738677 127.133886 
L 324.348014 127.335179 
L 324.95735 127.576508 
L 326.176024 127.680266 
L 330.44138 127.903985 
L 331.355385 128.106537 
L 331.660053 128.242619 
L 332.878726 129.142503 
L 334.0974 130.108783 
L 334.706736 130.743974 
L 335.316073 132.380013 
L 336.230078 134.784724 
L 336.839414 138.191218 
L 337.144083 138.863429 
L 338.667424 146.509163 
L 338.972092 146.886306 
L 339.276761 148.00542 
L 340.800102 157.155266 
L 341.104771 157.956468 
L 341.409439 159.892002 
L 342.93278 164.978435 
L 343.846785 165.79596 
L 345.370127 165.957577 
L 362.431552 165.882881 
L 366.087571 165.828923 
L 371.876269 165.752741 
L 371.876269 165.752741 
" style="fill:none;stroke:#859900;stroke-dasharray:1.5,2.475;stroke-dashoffset:0;stroke-width:1.5;"/>
   </g>
   <g id="line2d_35">
    <path clip-path="url(#p80e0ffa006)" d="M 67.512633 19.982224 
L 68.426638 45.523708 
L 68.731306 48.477123 
L 69.340643 49.844934 
L 69.645311 50.24332 
L 69.949979 52.620499 
L 70.863984 53.740051 
L 71.473321 54.274536 
L 71.777989 54.407636 
L 72.082657 54.876307 
L 73.301331 55.811092 
L 73.910667 56.041909 
L 74.824672 56.569129 
L 77.262019 57.659946 
L 78.176024 57.924937 
L 82.44138 59.097921 
L 86.706736 60.003544 
L 92.800102 60.987059 
L 94.018775 61.140809 
L 95.542117 61.328505 
L 104.986834 62.288549 
L 108.947522 62.470205 
L 113.822215 62.606655 
L 115.650225 62.797108 
L 118.696908 62.999898 
L 123.266933 63.368072 
L 129.664967 63.909195 
L 139.719021 64.73455 
L 142.461036 64.925988 
L 157.694451 66.0772 
L 160.131798 66.331693 
L 164.092486 66.666002 
L 171.099857 67.223144 
L 175.060544 67.518073 
L 178.107228 67.749954 
L 182.372584 67.922693 
L 210.402068 68.746897 
L 215.276761 68.877895 
L 221.065458 69.399601 
L 231.424181 69.980852 
L 235.689537 70.103198 
L 259.148997 70.638992 
L 260.36767 70.922776 
L 261.891011 72.221052 
L 262.500348 72.926926 
L 263.414353 74.672863 
L 264.023689 76.217469 
L 264.328358 76.623601 
L 264.937694 78.23289 
L 265.242363 78.754255 
L 265.851699 80.080836 
L 266.461036 80.962729 
L 266.765704 81.276875 
L 267.375041 82.43132 
L 267.679709 82.659358 
L 267.984377 83.170282 
L 268.593714 86.019828 
L 268.898382 86.654658 
L 269.203051 87.580046 
L 270.421724 93.379996 
L 271.640397 96.278333 
L 272.249734 96.771757 
L 272.554402 96.845587 
L 274.382412 99.161947 
L 274.991748 100.203105 
L 275.601085 100.763778 
L 277.429095 102.07743 
L 277.733763 102.807687 
L 278.038431 102.991117 
L 278.647768 103.629338 
L 278.952436 103.739435 
L 279.257105 104.060817 
L 279.561773 104.174201 
L 280.17111 105.183176 
L 281.085114 106.120814 
L 281.389783 106.202496 
L 281.999119 106.642372 
L 282.303788 106.713862 
L 282.913124 107.076573 
L 284.741134 107.779309 
L 285.655139 108.708003 
L 285.959807 108.769559 
L 286.264476 109.154604 
L 286.873812 109.381566 
L 287.178481 109.802443 
L 287.483149 109.932831 
L 287.787817 110.24545 
L 288.092486 110.74607 
L 288.397154 111.652422 
L 288.701822 112.026347 
L 289.311159 112.451985 
L 289.615827 112.789402 
L 290.529832 113.145395 
L 291.139169 113.9907 
L 291.748505 114.171384 
L 292.053173 114.212667 
L 292.66251 114.465101 
L 293.881183 115.085747 
L 294.49052 115.464163 
L 295.099857 116.824103 
L 295.404525 118.203366 
L 295.709193 120.15291 
L 296.31853 121.859679 
L 296.623198 123.209934 
L 296.927866 123.473395 
L 298.14654 125.4512 
L 299.669881 126.328366 
L 301.802559 127.047681 
L 302.716564 127.337622 
L 303.325901 127.590636 
L 305.153911 127.700435 
L 307.895925 127.843099 
L 308.80993 128.075608 
L 309.114599 128.231407 
L 309.723935 128.798677 
L 310.333272 129.095383 
L 311.247277 130.084241 
L 312.161282 131.367094 
L 312.46595 132.052642 
L 313.989291 138.86544 
L 314.598628 141.404388 
L 316.12197 149.849402 
L 316.426638 152.052981 
L 316.731306 153.34189 
L 317.035974 154.041224 
L 317.340643 156.520346 
L 317.645311 160.01276 
L 317.949979 160.892541 
L 318.254648 163.557704 
L 318.863984 166.081427 
L 319.168653 167.731519 
L 319.473321 168.578761 
L 319.777989 168.904825 
L 320.082657 169.478587 
L 320.387326 169.79268 
L 321.605999 169.959112 
L 326.78536 169.969313 
L 371.876269 169.968738 
L 371.876269 169.968738 
" style="fill:none;stroke:#073642;stroke-dasharray:1.5,2.475;stroke-dashoffset:0;stroke-width:1.5;"/>
   </g>
   <g id="line2d_36">
    <path clip-path="url(#p80e0ffa006)" d="M 67.512633 19.982224 
L 68.426638 45.523708 
L 68.731306 48.477123 
L 69.340643 49.844934 
L 69.645311 50.24332 
L 69.949979 52.155589 
L 70.559316 53.047668 
L 71.168653 53.743251 
L 71.777989 54.077918 
L 72.387326 54.650584 
L 72.996662 55.09378 
L 73.910667 55.401845 
L 74.520004 55.804574 
L 74.824672 55.891262 
L 75.434009 56.170441 
L 76.95735 56.780311 
L 80.004033 57.707107 
L 86.706736 59.117317 
L 87.620741 59.276891 
L 89.448751 59.550995 
L 90.667424 59.734014 
L 92.190766 59.943451 
L 94.628112 60.274863 
L 96.456122 60.496384 
L 98.5888 60.703749 
L 104.072829 61.249268 
L 107.728849 61.559514 
L 111.994205 61.893821 
L 116.868898 62.210791 
L 122.048259 62.418785 
L 138.500348 63.025986 
L 180.544574 65.236549 
L 194.559316 65.969415 
L 196.996662 66.187349 
L 200.95735 66.393656 
L 208.26939 66.793244 
L 218.018775 67.253149 
L 227.158825 67.597096 
L 234.470864 67.792539 
L 263.109685 68.43986 
L 281.389783 68.652145 
L 289.615827 68.831735 
L 293.271847 69.064681 
L 296.927866 69.180078 
L 303.630569 69.385879 
L 319.473321 69.732253 
L 364.56423 70.034116 
L 367.001576 69.916539 
L 371.876269 69.876541 
L 371.876269 69.876541 
" style="fill:none;stroke:#2aa198;stroke-linecap:square;stroke-width:1.5;"/>
   </g>
   <g id="line2d_37">
    <path clip-path="url(#p80e0ffa006)" d="M 67.512633 19.982224 
L 68.426638 45.523708 
L 68.731306 48.477123 
L 69.340643 49.844934 
L 69.645311 50.24332 
L 69.949979 52.619512 
L 70.863984 53.738351 
L 71.168653 54.039678 
L 71.473321 54.117582 
L 71.777989 54.346115 
L 72.082657 54.855956 
L 72.996662 55.507748 
L 74.824672 56.480042 
L 76.043345 56.99933 
L 77.566687 57.681553 
L 81.222707 58.732174 
L 84.574058 59.510026 
L 85.488063 59.705777 
L 87.620741 60.12199 
L 92.495434 60.874556 
L 99.502805 61.761868 
L 106.205508 62.324889 
L 111.0802 62.507521 
L 114.431552 62.622337 
L 116.56423 62.809503 
L 122.048259 63.216036 
L 125.094943 63.472005 
L 138.19568 64.577223 
L 147.640397 65.23233 
L 155.866441 65.816957 
L 164.701822 66.685211 
L 167.748505 66.927259 
L 174.755876 67.470142 
L 176.583886 67.615694 
L 177.802559 67.704609 
L 181.458579 67.876188 
L 192.731306 68.312891 
L 200.043345 68.535963 
L 217.104771 69.024396 
L 219.846785 69.317322 
L 231.728849 69.985872 
L 238.126884 70.14418 
L 246.962264 70.361517 
L 250.922952 70.427525 
L 259.148997 70.649105 
L 260.36767 70.969877 
L 261.586343 71.921446 
L 263.414353 74.548767 
L 263.719021 75.201517 
L 264.023689 76.49626 
L 264.633026 78.013685 
L 266.156368 80.284558 
L 266.765704 81.496932 
L 267.375041 82.406903 
L 268.289046 84.76058 
L 268.593714 85.481702 
L 269.203051 87.882032 
L 270.421724 93.136149 
L 271.03106 95.009347 
L 271.335729 95.909887 
L 272.249734 96.86162 
L 272.85907 97.297425 
L 273.773075 98.194745 
L 274.077743 99.172993 
L 274.382412 99.681082 
L 274.68708 99.888813 
L 275.601085 100.946807 
L 276.210422 101.201738 
L 276.51509 101.537622 
L 276.819758 101.63017 
L 277.429095 102.731008 
L 278.038431 103.056734 
L 278.3431 103.49932 
L 278.647768 103.605364 
L 279.561773 104.434742 
L 279.866441 105.204911 
L 280.475778 105.512682 
L 280.780446 105.950973 
L 281.389783 106.161935 
L 281.999119 106.803474 
L 282.913124 107.25139 
L 283.522461 107.369723 
L 283.827129 107.554338 
L 284.436466 107.678716 
L 286.264476 109.169414 
L 286.569144 109.379237 
L 286.873812 109.922415 
L 287.178481 110.062456 
L 287.483149 110.557001 
L 288.397154 111.092153 
L 288.701822 112.012478 
L 289.311159 112.447346 
L 289.615827 112.876444 
L 290.225164 113.14248 
L 290.529832 113.617493 
L 291.748505 114.164941 
L 292.967178 114.655629 
L 294.185852 115.296698 
L 294.49052 115.663482 
L 294.795188 116.722444 
L 295.404525 117.915115 
L 295.709193 120.385884 
L 296.623198 122.45249 
L 296.927866 122.975333 
L 297.232535 123.941204 
L 297.841871 124.761452 
L 298.451208 125.830014 
L 298.755876 125.890986 
L 299.974549 126.480789 
L 304.239906 127.661636 
L 308.505262 127.984805 
L 309.114599 128.254411 
L 309.723935 128.618404 
L 310.028603 128.981851 
L 310.942608 129.66214 
L 311.551945 130.331313 
L 312.46595 131.918643 
L 313.075286 134.075828 
L 313.379955 135.458697 
L 314.29396 141.24923 
L 314.903296 142.798065 
L 315.512633 145.853225 
L 315.817301 147.903371 
L 316.12197 148.856965 
L 316.731306 153.128676 
L 317.035974 155.419715 
L 317.340643 156.525018 
L 318.254648 162.511896 
L 318.863984 164.404475 
L 319.168653 165.138433 
L 319.473321 165.252593 
L 319.777989 165.519828 
L 320.996662 165.779949 
L 327.394697 165.827562 
L 371.876269 165.828504 
L 371.876269 165.828504 
" style="fill:none;stroke:#073642;stroke-linecap:square;stroke-width:1.5;"/>
   </g>
   <g id="patch_3">
    <path d="M 52.294451 232.46 
L 52.294451 10.7 
" style="fill:none;stroke:#000000;stroke-linecap:square;stroke-linejoin:miter;stroke-width:0.8;"/>
   </g>
   <g id="patch_4">
    <path d="M 387.094451 232.46 
L 387.094451 10.7 
" style="fill:none;stroke:#000000;stroke-linecap:square;stroke-linejoin:miter;stroke-width:0.8;"/>
   </g>
   <g id="patch_5">
    <path d="M 52.294451 232.46 
L 387.094451 232.46 
" style="fill:none;stroke:#000000;stroke-linecap:square;stroke-linejoin:miter;stroke-width:0.8;"/>
   </g>
   <g id="patch_6">
    <path d="M 52.294451 10.7 
L 387.094451 10.7 
" style="fill:none;stroke:#000000;stroke-linecap:square;stroke-linejoin:miter;stroke-width:0.8;"/>
   </g>
   <g id="legend_1">
    <g id="patch_7">
     <path d="M 394.094451 144.134605 
L 498.591371 144.134605 
Q 500.591371 144.134605 500.591371 142.134605 
L 500.591371 17.7 
Q 500.591371 15.7 498.591371 15.7 
L 394.094451 15.7 
Q 392.094451 15.7 392.094451 17.7 
L 392.094451 142.134605 
Q 392.094451 144.134605 394.094451 144.134605 
z
" style="fill:#ffffff;opacity:0.8;stroke:#cccccc;stroke-linejoin:miter;"/>
    </g>
    <g id="line2d_38">
     <path d="M 396.094451 23.2 
L 416.094451 23.2 
" style="fill:none;stroke:#073642;stroke-linecap:square;stroke-width:1.5;"/>
    </g>
    <g id="line2d_39"/>
    <g id="text_17">
     <!-- \textsc{pipe-PR-CG} -->
     <defs>
      <path d="M 32.296875 23 
C 42.296875 23 50.703125 29.296875 50.703125 36.890625 
C 50.703125 44.09375 43.09375 51 31.59375 51 
L 4.5 51 
L 4.5 48.484375 
C 11.203125 48.484375 11.703125 47.890625 11.703125 43.796875 
L 11.703125 7.109375 
C 11.703125 3.078125 11.203125 2.5 4.5 2.5 
L 4.5 0 
C 7.40625 0.09375 13.09375 0.296875 15.296875 0.296875 
C 17.5 0.296875 23.09375 0.09375 26.09375 0 
L 26.09375 2.5 
C 19.40625 2.5 18.90625 3.078125 18.90625 7.109375 
L 18.90625 23 
z
M 18.59375 44.1875 
C 18.59375 48.1875 19.09375 48.484375 22.59375 48.484375 
L 29.5 48.484375 
C 42.09375 48.484375 42.09375 40.890625 42.09375 36.890625 
C 42.09375 33 42.09375 25.296875 29.5 25.296875 
L 18.59375 25.296875 
z
" id="CMCSC10-112"/>
      <path d="M 18.703125 43.734375 
C 18.703125 48 19.203125 48.484375 26.296875 48.484375 
L 26.296875 51 
C 22.90625 50.890625 17.703125 50.6875 15.09375 50.6875 
C 12.5 50.6875 7.296875 50.890625 3.90625 51 
L 3.90625 48.484375 
C 11 48.484375 11.5 48 11.5 43.734375 
L 11.5 7.25 
C 11.5 2.984375 11 2.5 3.90625 2.5 
L 3.90625 0 
C 7.296875 0.09375 12.5 0.296875 15.09375 0.296875 
C 17.703125 0.296875 22.90625 0.09375 26.296875 0 
L 26.296875 2.5 
C 19.203125 2.5 18.703125 2.984375 18.703125 7.25 
z
" id="CMCSC10-105"/>
      <path d="M 48.796875 50.6875 
L 4.296875 50.6875 
L 4.296875 48.1875 
C 11 48.1875 11.5 47.59375 11.5 43.515625 
L 11.5 7.125 
C 11.5 3.078125 11 2.5 4.296875 2.5 
L 4.296875 0 
L 50 0 
L 52.90625 19.171875 
L 50.40625 19.171875 
C 48.703125 7.234375 46.296875 2.5 33.5 2.5 
L 22.703125 2.5 
C 19.203125 2.5 18.703125 2.78125 18.703125 6.734375 
L 18.703125 25 
L 25.703125 25 
C 33.09375 25 34.296875 23.015625 34.296875 16.40625 
L 36.796875 16.40625 
L 36.796875 36.15625 
L 34.296875 36.15625 
C 34.296875 29.484375 33.09375 27.5 25.703125 27.5 
L 18.703125 27.5 
L 18.703125 43.90625 
C 18.703125 47.890625 19.203125 48.1875 22.703125 48.1875 
L 32.90625 48.1875 
C 44.5 48.1875 47.09375 44.703125 48.203125 33.859375 
L 50.703125 33.859375 
z
" id="CMCSC10-101"/>
      <path d="M 30.5 19 
L 30.5 24.796875 
L 2.59375 24.796875 
L 2.59375 19 
z
" id="CMCSC10-45"/>
      <path d="M 43 31.390625 
C 55.203125 31.390625 66.90625 39.171875 66.90625 49.4375 
C 66.90625 59.3125 56.296875 68 42.203125 68 
L 5.703125 68 
L 5.703125 64.890625 
L 8.09375 64.890625 
C 15.796875 64.890625 16 63.796875 16 60.203125 
L 16 7.765625 
C 16 4.1875 15.796875 3.09375 8.09375 3.09375 
L 5.703125 3.09375 
L 5.703125 0 
C 9.203125 0.296875 16.59375 0.296875 20.40625 0.296875 
C 24.203125 0.296875 31.703125 0.296875 35.203125 0 
L 35.203125 3.09375 
L 32.796875 3.09375 
C 25.09375 3.09375 24.90625 4.1875 24.90625 7.765625 
L 24.90625 31.390625 
z
M 24.59375 60.90625 
C 24.59375 64.1875 24.796875 64.890625 29.5 64.890625 
L 39.59375 64.890625 
C 56.59375 64.890625 56.59375 53.921875 56.59375 49.4375 
C 56.59375 45.15625 56.59375 34 39.59375 34 
L 24.59375 34 
z
" id="CMCSC10-80"/>
      <path d="M 24.59375 35.1875 
L 24.59375 60.921875 
C 24.59375 63.609375 24.796875 64.5 27.203125 64.796875 
C 28.09375 64.890625 31.203125 64.890625 33.203125 64.890625 
C 41.90625 64.890625 55.09375 64.890625 55.09375 50.09375 
C 55.09375 39.46875 48 35.1875 36.703125 35.1875 
z
M 47 33.890625 
C 59 36.78125 65.40625 43.34375 65.40625 50.09375 
C 65.40625 59.734375 53.203125 68 38.09375 68 
L 5.703125 68 
L 5.703125 64.890625 
L 8.09375 64.890625 
C 15.796875 64.890625 16 63.796875 16 60.21875 
L 16 7.921875 
C 16 4.359375 15.796875 3.265625 8.09375 3.265625 
L 5.703125 3.265625 
L 5.703125 0.1875 
C 9.296875 0.484375 16.40625 0.484375 20.296875 0.484375 
C 24.203125 0.484375 31.296875 0.484375 34.90625 0.1875 
L 34.90625 3.265625 
L 32.5 3.265625 
C 24.796875 3.265625 24.59375 4.359375 24.59375 7.921875 
L 24.59375 33 
L 37.09375 33 
C 42.5 33 45.703125 31.015625 47.40625 29.421875 
C 51.203125 25.75 51.203125 23.28125 51.203125 16.34375 
C 51.203125 9.5 51.203125 5.9375 55.5 2.078125 
C 59.203125 -1.109375 64.796875 -2 68.296875 -2 
C 76.296875 -2 78.203125 6.140625 78.203125 8.90625 
C 78.203125 9.5 78.203125 10.59375 76.90625 10.59375 
C 75.796875 10.59375 75.796875 9.703125 75.703125 9.015625 
C 74.90625 1.28125 70.796875 0.1875 68.703125 0.1875 
C 63.40625 0.1875 62.703125 4.65625 60.90625 16.140625 
C 59.796875 23.078125 59.40625 25.5625 56.203125 28.734375 
C 54.09375 30.90625 50.90625 32.796875 47 33.890625 
z
" id="CMCSC10-82"/>
      <path d="M 63.40625 62.0625 
C 60.09375 65.484375 54 71 43.703125 71 
C 24 71 7.203125 54.9375 7.203125 34.546875 
C 7.203125 14.046875 24 -2 43.796875 -2 
C 60.703125 -2 71.296875 11.640625 71.296875 23.59375 
C 71.296875 24.59375 71.296875 25.296875 70 25.296875 
C 68.90625 25.296875 68.90625 24.703125 68.796875 23.6875 
C 68 9.125 56.296875 1.09375 45.09375 1.09375 
C 36.296875 1.09375 17.5 6.3125 17.5 34.4375 
C 17.5 64.078125 38 67.890625 44.90625 67.890625 
C 55.59375 67.890625 65.796875 59.546875 68.09375 44.078125 
C 68.296875 42.671875 68.40625 42.375 69.703125 42.375 
C 71.296875 42.375 71.296875 42.671875 71.296875 44.78125 
L 71.296875 68.59375 
C 71.296875 70.296875 71.296875 71 70.203125 71 
C 69.796875 71 69.40625 71 68.59375 69.796875 
z
" id="CMCSC10-67"/>
      <path d="M 71.203125 68.59375 
C 71.203125 70.296875 71.203125 71 70.09375 71 
C 69.703125 71 69.296875 71 68.5 69.796875 
L 63.296875 62.125 
C 60.203125 65.109375 54.296875 71 43.703125 71 
C 23.796875 71 7.203125 54.859375 7.203125 34.859375 
C 7.203125 14.578125 23.59375 -2 43.90625 -2 
C 51.796875 -2 60.40625 0.59375 63.90625 6.609375 
C 65.203125 4.359375 69.203125 0.296875 70.296875 0.296875 
C 71.203125 0.296875 71.203125 1.09375 71.203125 2.625 
L 71.203125 20.390625 
C 71.203125 24.890625 72.296875 24.890625 78.5 24.890625 
L 78.5 28 
C 73.703125 27.796875 70.09375 27.6875 65.796875 27.6875 
C 61.703125 27.6875 52.796875 27.6875 49.203125 28 
L 49.203125 24.890625 
L 52.703125 24.890625 
C 62.296875 24.890625 62.296875 23.46875 62.296875 19.984375 
L 62.296875 13.453125 
C 62.296875 1.09375 46.796875 1.09375 45.59375 1.09375 
C 36.5 1.09375 17.5 6.40625 17.5 34.859375 
C 17.5 63.015625 36.703125 67.890625 44.90625 67.890625 
C 55.5 67.890625 65.703125 59.734375 68 44.3125 
C 68.203125 42.921875 68.296875 42.625 69.59375 42.625 
C 71.203125 42.625 71.203125 42.921875 71.203125 45 
z
" id="CMCSC10-71"/>
     </defs>
     <g transform="translate(424.094451 26.7)scale(0.1 -0.1)">
      <use transform="scale(0.996264)" xlink:href="#CMCSC10-112"/>
      <use transform="translate(55.569158 0)scale(0.996264)" xlink:href="#CMCSC10-105"/>
      <use transform="translate(85.67837 0)scale(0.996264)" xlink:href="#CMCSC10-112"/>
      <use transform="translate(141.247528 0)scale(0.996264)" xlink:href="#CMCSC10-101"/>
      <use transform="translate(196.816686 0)scale(0.996264)" xlink:href="#CMCSC10-45"/>
      <use transform="translate(234.45297 0)scale(0.996264)" xlink:href="#CMCSC10-80"/>
      <use transform="translate(308.341796 0)scale(0.996264)" xlink:href="#CMCSC10-82"/>
      <use transform="translate(388.042172 0)scale(0.996264)" xlink:href="#CMCSC10-45"/>
      <use transform="translate(425.678456 0)scale(0.996264)" xlink:href="#CMCSC10-67"/>
      <use transform="translate(503.99518 0)scale(0.996264)" xlink:href="#CMCSC10-71"/>
     </g>
    </g>
    <g id="line2d_40">
     <path d="M 396.094451 37.137178 
L 416.094451 37.137178 
" style="fill:none;stroke:#2aa198;stroke-linecap:square;stroke-width:1.5;"/>
    </g>
    <g id="line2d_41"/>
    <g id="text_18">
     <!-- \textsc{pipe-P-CG} -->
     <g transform="translate(424.094451 40.637178)scale(0.1 -0.1)">
      <use transform="scale(0.996264)" xlink:href="#CMCSC10-112"/>
      <use transform="translate(55.569158 0)scale(0.996264)" xlink:href="#CMCSC10-105"/>
      <use transform="translate(85.67837 0)scale(0.996264)" xlink:href="#CMCSC10-112"/>
      <use transform="translate(141.247528 0)scale(0.996264)" xlink:href="#CMCSC10-101"/>
      <use transform="translate(196.816686 0)scale(0.996264)" xlink:href="#CMCSC10-45"/>
      <use transform="translate(234.45297 0)scale(0.996264)" xlink:href="#CMCSC10-80"/>
      <use transform="translate(308.341796 0)scale(0.996264)" xlink:href="#CMCSC10-45"/>
      <use transform="translate(345.97808 0)scale(0.996264)" xlink:href="#CMCSC10-67"/>
      <use transform="translate(424.294805 0)scale(0.996264)" xlink:href="#CMCSC10-71"/>
     </g>
    </g>
    <g id="line2d_42">
     <path d="M 396.094451 51.074357 
L 416.094451 51.074357 
" style="fill:none;stroke:#073642;stroke-dasharray:1.5,2.475;stroke-dashoffset:0;stroke-width:1.5;"/>
    </g>
    <g id="line2d_43"/>
    <g id="text_19">
     <!-- PR-CG -->
     <defs>
      <path d="M 19.796875 32 
L 35.796875 32 
C 48.703125 32 58.09375 40.359375 58.09375 49.796875 
C 58.09375 59.234375 48.90625 68 35.796875 68 
L 5.203125 68 
L 5.203125 65.390625 
C 12.09375 65.390625 13.203125 65.390625 13.203125 60.921875 
L 13.203125 7.078125 
C 13.203125 2.59375 12.09375 2.59375 5.203125 2.59375 
L 5.203125 0 
C 8.09375 0.1875 13.40625 0.1875 16.5 0.1875 
C 19.59375 0.1875 24.90625 0.1875 27.796875 0 
L 27.796875 2.59375 
C 20.90625 2.59375 19.796875 2.59375 19.796875 7.078125 
z
M 19.59375 34.09375 
L 19.59375 61.515625 
C 19.59375 64.890625 19.796875 65.390625 23.796875 65.390625 
L 33.90625 65.390625 
C 46.796875 65.390625 50.5 58.046875 50.5 49.796875 
C 50.5 40.75 46.09375 34.09375 33.90625 34.09375 
z
" id="CMR17-80"/>
      <path d="M 39.203125 33.6875 
C 48.703125 35.59375 56.703125 42.015625 56.703125 50.046875 
C 56.703125 59.46875 46.09375 68 32.09375 68 
L 5.203125 68 
L 5.203125 65.390625 
C 12.09375 65.390625 13.203125 65.390625 13.203125 60.875 
L 13.203125 6.6875 
C 13.203125 2.1875 12.09375 2.1875 5.203125 2.1875 
L 5.203125 -0.40625 
C 8.09375 -0.203125 13.296875 -0.203125 16.40625 -0.203125 
C 19.5 -0.203125 24.703125 -0.203125 27.59375 -0.40625 
L 27.59375 2.1875 
C 20.703125 2.1875 19.59375 2.1875 19.59375 6.6875 
L 19.59375 33 
L 31.296875 33 
C 37 33 40.203125 30.6875 41.59375 29.390625 
C 45.59375 25.5 45.59375 22.796875 45.59375 16 
C 45.59375 9.296875 45.59375 5.890625 48.59375 2.5 
C 52.40625 -1.609375 57.5 -2 59.703125 -2 
C 67.09375 -2 68.203125 6.296875 68.203125 8 
C 68.203125 8.59375 68.203125 9.296875 67.296875 9.296875 
C 66.5 9.296875 66.40625 8.6875 66.40625 8.296875 
C 65.90625 1.796875 63 -0.40625 59.90625 -0.40625 
C 54.40625 -0.40625 53.796875 5.890625 53.203125 12 
C 52.90625 14.09375 52.703125 15.59375 52.5 17.796875 
C 51.90625 22.796875 51.09375 30.09375 39.203125 33.6875 
z
M 31 34.59375 
L 19.59375 34.59375 
L 19.59375 61.484375 
C 19.59375 64.890625 19.796875 65.390625 23.796875 65.390625 
L 31.09375 65.390625 
C 39.40625 65.390625 49.09375 62.484375 49.09375 50.046875 
C 49.09375 37.09375 38.5 34.59375 31 34.59375 
z
" id="CMR17-82"/>
      <path d="M 62.09375 67.984375 
C 62.09375 69.796875 62 69.890625 61.40625 69.890625 
C 61 69.890625 60.90625 69.796875 60.203125 68.59375 
L 55.796875 60.140625 
C 50.90625 66.390625 44.90625 70 37.203125 70 
C 20.09375 70 4.59375 54.796875 4.59375 34.046875 
C 4.59375 13.078125 20.09375 -2 37.296875 -2 
C 52.59375 -2 62.09375 11.578125 62.09375 23.15625 
C 62.09375 24.171875 62.09375 24.578125 61.203125 24.578125 
C 60.40625 24.578125 60.40625 24.265625 60.296875 23.359375 
C 59.5 9.25 49.5 0.59375 38.703125 0.59375 
C 28.5 0.59375 12.203125 7.84375 12.203125 34.046875 
C 12.203125 60.34375 28.796875 67.390625 38.5 67.390625 
C 49.796875 67.390625 58 57.515625 59.90625 43.515625 
C 60.09375 42.296875 60.09375 42.109375 61 42.109375 
C 62.09375 42.109375 62.09375 42.296875 62.09375 44.125 
z
" id="CMR17-67"/>
      <path d="M 62.09375 19.65625 
C 62.09375 23.484375 62.40625 24 68.59375 24 
L 68.59375 26.59375 
C 66.203125 26.390625 60.796875 26.390625 58.09375 26.390625 
C 55.296875 26.390625 47.5 26.5 43.703125 26.59375 
L 43.703125 24 
L 46.703125 24 
C 55.296875 24 55.5 22.875 55.5 19.25 
L 55.5 12.59375 
C 55.5 1.5 42.5 0.59375 39.40625 0.59375 
C 29.09375 0.59375 12.203125 7.75 12.203125 34.046875 
C 12.203125 60.34375 28.796875 67.390625 38.5 67.390625 
C 49.796875 67.390625 58 57.515625 59.90625 43.515625 
C 60.09375 42.3125 60.09375 42.109375 61 42.109375 
C 62.09375 42.109375 62.09375 42.3125 62.09375 44.125 
L 62.09375 67.984375 
C 62.09375 69.796875 62 69.890625 61.40625 69.890625 
C 61 69.890625 60.90625 69.796875 60.203125 68.59375 
L 55.796875 60.140625 
C 50.90625 66.390625 44.90625 70 37.203125 70 
C 20.09375 70 4.59375 54.796875 4.59375 34.046875 
C 4.59375 13.40625 19.796875 -2 37.40625 -2 
C 45.5 -2 53.40625 0.890625 56.5 6.640625 
C 58.203125 2.515625 61 -0.3125 61.5 -0.3125 
C 62 -0.3125 62.09375 -0.203125 62.09375 1.59375 
z
" id="CMR17-71"/>
     </defs>
     <g transform="translate(424.094451 54.574357)scale(0.1 -0.1)">
      <use transform="scale(0.996264)" xlink:href="#CMR17-80"/>
      <use transform="translate(62.586301 0)scale(0.996264)" xlink:href="#CMR17-82"/>
      <use transform="translate(130.377402 0)scale(0.996264)" xlink:href="#CMR17-45"/>
      <use transform="translate(160.453369 0)scale(0.996264)" xlink:href="#CMR17-67"/>
      <use transform="translate(226.963249 0)scale(0.996264)" xlink:href="#CMR17-71"/>
     </g>
    </g>
    <g id="line2d_44">
     <path d="M 396.094451 65.011535 
L 416.094451 65.011535 
" style="fill:none;stroke:#859900;stroke-dasharray:1.5,2.475;stroke-dashoffset:0;stroke-width:1.5;"/>
    </g>
    <g id="line2d_45"/>
    <g id="text_20">
     <!-- \textsc{pipe-PR-M-CG} -->
     <defs>
      <path d="M 74.40625 65.09375 
L 74.5 64.984375 
L 74.5 7.765625 
C 74.5 4.1875 74.296875 3.09375 66.59375 3.09375 
L 64.203125 3.09375 
L 64.203125 0 
C 67.90625 0.296875 74.703125 0.296875 78.59375 0.296875 
C 82.5 0.296875 89.203125 0.296875 92.90625 0 
L 92.90625 3.09375 
L 90.5 3.09375 
C 82.796875 3.09375 82.59375 4.1875 82.59375 7.765625 
L 82.59375 60.21875 
C 82.59375 63.796875 82.796875 64.890625 90.5 64.890625 
L 92.90625 64.890625 
L 92.90625 68 
L 76 68 
C 73.703125 68 73.40625 68 72.59375 66.09375 
L 49.40625 9.46875 
L 26.203125 66.1875 
C 25.5 68 24.90625 68 22.796875 68 
L 5.90625 68 
L 5.90625 64.890625 
L 8.296875 64.890625 
C 16 64.890625 16.203125 63.796875 16.203125 60.21875 
L 16.203125 10.453125 
C 16.203125 7.765625 16.203125 3.09375 5.90625 3.09375 
L 5.90625 0 
C 9.40625 0.09375 14.296875 0.296875 17.59375 0.296875 
C 20.90625 0.296875 25.796875 0.09375 29.296875 0 
L 29.296875 3.09375 
C 19 3.09375 19 7.765625 19 10.453125 
L 19 64.296875 
L 19.09375 64.390625 
L 44.703125 1.796875 
C 45.09375 0.890625 45.59375 0 46.59375 0 
C 47.59375 0 48.09375 0.890625 48.5 1.796875 
z
" id="CMCSC10-77"/>
     </defs>
     <g transform="translate(424.094451 68.511535)scale(0.1 -0.1)">
      <use transform="scale(0.996264)" xlink:href="#CMCSC10-112"/>
      <use transform="translate(55.569158 0)scale(0.996264)" xlink:href="#CMCSC10-105"/>
      <use transform="translate(85.67837 0)scale(0.996264)" xlink:href="#CMCSC10-112"/>
      <use transform="translate(141.247528 0)scale(0.996264)" xlink:href="#CMCSC10-101"/>
      <use transform="translate(196.816686 0)scale(0.996264)" xlink:href="#CMCSC10-45"/>
      <use transform="translate(234.45297 0)scale(0.996264)" xlink:href="#CMCSC10-80"/>
      <use transform="translate(308.341796 0)scale(0.996264)" xlink:href="#CMCSC10-82"/>
      <use transform="translate(388.042172 0)scale(0.996264)" xlink:href="#CMCSC10-45"/>
      <use transform="translate(425.678456 0)scale(0.996264)" xlink:href="#CMCSC10-77"/>
      <use transform="translate(524.19692 0)scale(0.996264)" xlink:href="#CMCSC10-45"/>
      <use transform="translate(561.833204 0)scale(0.996264)" xlink:href="#CMCSC10-67"/>
      <use transform="translate(640.149929 0)scale(0.996264)" xlink:href="#CMCSC10-71"/>
     </g>
    </g>
    <g id="line2d_46">
     <path d="M 396.094451 78.948713 
L 416.094451 78.948713 
" style="fill:none;stroke:#6c71c4;stroke-linecap:square;stroke-width:1.5;"/>
    </g>
    <g id="line2d_47"/>
    <g id="text_21">
     <!-- \textsc{pipe-P-M-CG} -->
     <g transform="translate(424.094451 82.448713)scale(0.1 -0.1)">
      <use transform="scale(0.996264)" xlink:href="#CMCSC10-112"/>
      <use transform="translate(55.569158 0)scale(0.996264)" xlink:href="#CMCSC10-105"/>
      <use transform="translate(85.67837 0)scale(0.996264)" xlink:href="#CMCSC10-112"/>
      <use transform="translate(141.247528 0)scale(0.996264)" xlink:href="#CMCSC10-101"/>
      <use transform="translate(196.816686 0)scale(0.996264)" xlink:href="#CMCSC10-45"/>
      <use transform="translate(234.45297 0)scale(0.996264)" xlink:href="#CMCSC10-80"/>
      <use transform="translate(308.341796 0)scale(0.996264)" xlink:href="#CMCSC10-45"/>
      <use transform="translate(345.97808 0)scale(0.996264)" xlink:href="#CMCSC10-77"/>
      <use transform="translate(444.496544 0)scale(0.996264)" xlink:href="#CMCSC10-45"/>
      <use transform="translate(482.132828 0)scale(0.996264)" xlink:href="#CMCSC10-67"/>
      <use transform="translate(560.449553 0)scale(0.996264)" xlink:href="#CMCSC10-71"/>
     </g>
    </g>
    <g id="line2d_48">
     <path d="M 396.094451 92.885892 
L 416.094451 92.885892 
" style="fill:none;stroke:#93a1a1;stroke-linecap:square;stroke-width:1.5;"/>
    </g>
    <g id="line2d_49">
     <g>
      <use style="fill:#93a1a1;stroke:#93a1a1;stroke-linejoin:miter;" x="406.094451" xlink:href="#md9213b3a01" y="92.885892"/>
     </g>
    </g>
    <g id="text_22">
     <!-- GV-CG -->
     <defs>
      <path d="M 59 58.78125 
C 59.90625 60.984375 61.5 65.296875 68.203125 65.390625 
L 68.203125 68 
C 65.90625 67.796875 63.296875 67.796875 60.796875 67.796875 
C 58.40625 67.796875 54.296875 67.796875 52 68 
L 52 65.390625 
C 57 65.09375 57.203125 61.59375 57.203125 60.984375 
C 57.203125 59.890625 56.90625 59.1875 56.59375 58.390625 
L 36.90625 7 
L 16.296875 60.984375 
C 16 61.6875 15.796875 62.1875 15.796875 62.6875 
C 15.796875 65.390625 19.796875 65.390625 21.90625 65.390625 
L 21.90625 68 
C 18.703125 67.796875 14 67.796875 10.703125 67.796875 
C 8.09375 67.796875 3.40625 67.796875 1 68 
L 1 65.390625 
C 6.796875 65.390625 7.90625 65 9.09375 61.796875 
L 32.90625 -0.40625 
C 33.40625 -1.8125 33.5 -2 34.59375 -2 
C 35.703125 -2 35.796875 -1.8125 36.296875 -0.40625 
z
" id="CMR17-86"/>
     </defs>
     <g transform="translate(424.094451 96.385892)scale(0.1 -0.1)">
      <use transform="scale(0.996264)" xlink:href="#CMR17-71"/>
      <use transform="translate(72.355346 0)scale(0.996264)" xlink:href="#CMR17-86"/>
      <use transform="translate(141.427776 0)scale(0.996264)" xlink:href="#CMR17-45"/>
      <use transform="translate(171.503742 0)scale(0.996264)" xlink:href="#CMR17-67"/>
      <use transform="translate(238.013623 0)scale(0.996264)" xlink:href="#CMR17-71"/>
     </g>
    </g>
    <g id="line2d_50">
     <path d="M 396.094451 106.82307 
L 416.094451 106.82307 
" style="fill:none;stroke:#93a1a1;stroke-linecap:square;stroke-width:1.5;"/>
    </g>
    <g id="line2d_51">
     <g>
      <use style="fill:#93a1a1;stroke:#93a1a1;stroke-linejoin:miter;" x="406.094451" xlink:href="#m6feba40b49" y="106.82307"/>
     </g>
    </g>
    <g id="text_23">
     <!-- M-CG -->
     <defs>
      <path d="M 20.90625 66.390625 
C 20.296875 67.890625 20.203125 68 18.09375 68 
L 5.296875 68 
L 5.296875 65.390625 
C 12.203125 65.390625 13.296875 65.390625 13.296875 60.90625 
L 13.296875 9.75 
C 13.296875 7.265625 13.296875 2.59375 5.296875 2.59375 
L 5.296875 0 
C 7.59375 0.1875 11.796875 0.1875 14.296875 0.1875 
C 16.796875 0.1875 21 0.1875 23.296875 0 
L 23.296875 2.59375 
C 15.296875 2.59375 15.296875 7.265625 15.296875 9.75 
L 15.296875 64.984375 
L 15.40625 64.984375 
L 38.90625 1.59375 
C 39.296875 0.59375 39.5 0 40.296875 0 
C 41.09375 0 41.296875 0.59375 41.703125 1.59375 
L 65.40625 65.484375 
L 65.5 65.484375 
L 65.5 7.078125 
C 65.5 2.59375 64.40625 2.59375 57.5 2.59375 
L 57.5 0 
C 60.203125 0.1875 65.59375 0.1875 68.5 0.1875 
C 71.40625 0.1875 76.90625 0.1875 79.59375 0 
L 79.59375 2.59375 
C 72.703125 2.59375 71.59375 2.59375 71.59375 7.078125 
L 71.59375 60.90625 
C 71.59375 65.390625 72.703125 65.390625 79.59375 65.390625 
L 79.59375 68 
L 66.90625 68 
C 64.796875 68 64.703125 67.890625 64.09375 66.390625 
L 42.5 8.0625 
z
" id="CMR17-77"/>
     </defs>
     <g transform="translate(424.094451 110.32307)scale(0.1 -0.1)">
      <use transform="scale(0.996264)" xlink:href="#CMR17-77"/>
      <use transform="translate(84.686941 0)scale(0.996264)" xlink:href="#CMR17-45"/>
      <use transform="translate(114.762907 0)scale(0.996264)" xlink:href="#CMR17-67"/>
      <use transform="translate(181.272787 0)scale(0.996264)" xlink:href="#CMR17-71"/>
     </g>
    </g>
    <g id="line2d_52">
     <path d="M 396.094451 120.760248 
L 416.094451 120.760248 
" style="fill:none;stroke:#93a1a1;stroke-linecap:square;stroke-width:1.5;"/>
    </g>
    <g id="line2d_53">
     <g>
      <use style="fill:#93a1a1;stroke:#93a1a1;stroke-linejoin:miter;" x="406.094451" xlink:href="#m71bc37771e" y="120.760248"/>
     </g>
    </g>
    <g id="text_24">
     <!-- CG-CG -->
     <g transform="translate(424.094451 124.260248)scale(0.1 -0.1)">
      <use transform="scale(0.996264)" xlink:href="#CMR17-67"/>
      <use transform="translate(66.509881 0)scale(0.996264)" xlink:href="#CMR17-71"/>
      <use transform="translate(138.865226 0)scale(0.996264)" xlink:href="#CMR17-45"/>
      <use transform="translate(168.941193 0)scale(0.996264)" xlink:href="#CMR17-67"/>
      <use transform="translate(235.451073 0)scale(0.996264)" xlink:href="#CMR17-71"/>
     </g>
    </g>
    <g id="line2d_54">
     <path d="M 396.094451 134.697427 
L 416.094451 134.697427 
" style="fill:none;stroke:#93a1a1;stroke-linecap:square;stroke-width:1.5;"/>
    </g>
    <g id="line2d_55">
     <g>
      <use style="fill:#93a1a1;stroke:#93a1a1;" x="406.094451" xlink:href="#mcade47ecaa" y="134.697427"/>
     </g>
    </g>
    <g id="text_25">
     <!-- HS-CG -->
     <defs>
      <path d="M 56.09375 60.90625 
C 56.09375 65.390625 57.203125 65.390625 64.09375 65.390625 
L 64.09375 68 
C 61.203125 67.796875 55.90625 67.796875 52.796875 67.796875 
C 49.703125 67.796875 44.40625 67.796875 41.5 68 
L 41.5 65.390625 
C 48.40625 65.390625 49.5 65.390625 49.5 60.90625 
L 49.5 36.59375 
L 19.703125 36.59375 
L 19.703125 60.90625 
C 19.703125 65.390625 20.796875 65.390625 27.703125 65.390625 
L 27.703125 68 
C 24.796875 67.796875 19.5 67.796875 16.40625 67.796875 
C 13.296875 67.796875 8 67.796875 5.09375 68 
L 5.09375 65.390625 
C 12 65.390625 13.09375 65.390625 13.09375 60.90625 
L 13.09375 7.0625 
C 13.09375 2.59375 12 2.59375 5.09375 2.59375 
L 5.09375 0 
C 8 0.1875 13.296875 0.1875 16.40625 0.1875 
C 19.5 0.1875 24.796875 0.1875 27.703125 0 
L 27.703125 2.59375 
C 20.796875 2.59375 19.703125 2.59375 19.703125 7.0625 
L 19.703125 34 
L 49.5 34 
L 49.5 7.0625 
C 49.5 2.59375 48.40625 2.59375 41.5 2.59375 
L 41.5 0 
C 44.40625 0.1875 49.703125 0.1875 52.796875 0.1875 
C 55.90625 0.1875 61.203125 0.1875 64.09375 0 
L 64.09375 2.59375 
C 57.203125 2.59375 56.09375 2.59375 56.09375 7.0625 
z
" id="CMR17-72"/>
      <path d="M 43.796875 67.984375 
C 43.796875 69.796875 43.703125 69.890625 43.09375 69.890625 
C 42.5 69.890625 42.296875 69.484375 41.90625 68.59375 
L 38.90625 61.953125 
C 35.09375 67.5 29.296875 70 23 70 
C 12.796875 70 4.59375 61.84375 4.59375 51.578125 
C 4.59375 48.453125 5.296875 44.015625 8.703125 39.78125 
C 12.40625 35.15625 15.90625 34.34375 23.90625 32.234375 
C 26.90625 31.421875 31.90625 30.109375 32.90625 29.703125 
C 38.59375 27.296875 41.59375 21.25 41.59375 15.609375 
C 41.59375 8.34375 36.5 0.59375 27.796875 0.59375 
C 17.09375 0.59375 7.09375 6.640625 6.40625 20.75 
C 6.296875 22.359375 6.203125 22.453125 5.5 22.453125 
C 4.703125 22.453125 4.59375 22.359375 4.59375 20.34375 
L 4.59375 0 
C 4.59375 -1.8125 4.703125 -1.90625 5.296875 -1.90625 
C 6 -1.90625 6.203125 -1.40625 7.59375 1.703125 
C 7.703125 2 7.703125 2.203125 9.59375 6.03125 
C 14.59375 -0.609375 23 -2 27.796875 -2 
C 38.703125 -2 46.40625 7.140625 46.40625 17.828125 
C 46.40625 23.0625 44.5 27.09375 43.40625 28.90625 
C 39.203125 35.359375 34.703125 36.5625 29.90625 37.765625 
C 29.203125 38.078125 29 38.078125 23.40625 39.484375 
C 18 40.890625 15.703125 41.59375 13.203125 44.3125 
C 10.40625 47.4375 9.40625 50.671875 9.40625 53.890625 
C 9.40625 60.4375 14.59375 67.59375 23.09375 67.59375 
C 33.703125 67.59375 40.296875 60.03125 41.796875 47.4375 
C 42.09375 45.625 42.203125 45.53125 42.90625 45.53125 
C 43.796875 45.53125 43.796875 45.828125 43.796875 47.546875 
z
" id="CMR17-83"/>
     </defs>
     <g transform="translate(424.094451 138.197427)scale(0.1 -0.1)">
      <use transform="scale(0.996264)" xlink:href="#CMR17-72"/>
      <use transform="translate(69.07243 0)scale(0.996264)" xlink:href="#CMR17-83"/>
      <use transform="translate(119.9678 0)scale(0.996264)" xlink:href="#CMR17-45"/>
      <use transform="translate(150.043766 0)scale(0.996264)" xlink:href="#CMR17-67"/>
      <use transform="translate(216.553646 0)scale(0.996264)" xlink:href="#CMR17-71"/>
     </g>
    </g>
   </g>
  </g>
 </g>
 <defs>
  <clipPath id="p80e0ffa006">
   <rect height="221.76" width="334.8" x="52.294451" y="10.7"/>
  </clipPath>
 </defs>
</svg>
