<?xml version="1.0" encoding="utf-8" standalone="no"?>
<!DOCTYPE svg PUBLIC "-//W3C//DTD SVG 1.1//EN"
  "http://www.w3.org/Graphics/SVG/1.1/DTD/svg11.dtd">
<!-- Created with matplotlib (https://matplotlib.org/) -->
<svg height="268.371353pt" version="1.1" viewBox="0 0 507.791371 268.371353" width="507.791371pt" xmlns="http://www.w3.org/2000/svg" xmlns:xlink="http://www.w3.org/1999/xlink">
 <defs>
  <style type="text/css">
*{stroke-linecap:butt;stroke-linejoin:round;}
  </style>
 </defs>
 <g id="figure_1">
  <g id="patch_1">
   <path d="M -0 268.371353 
L 507.791371 268.371353 
L 507.791371 0 
L -0 0 
z
" style="fill:#ffffff;"/>
  </g>
  <g id="axes_1">
   <g id="patch_2">
    <path d="M 52.294451 232.46 
L 387.094451 232.46 
L 387.094451 10.7 
L 52.294451 10.7 
z
" style="fill:#ffffff;"/>
   </g>
   <g id="matplotlib.axis_1">
    <g id="xtick_1">
     <g id="line2d_1">
      <path clip-path="url(#p297b1bc1fd)" d="M 67.512633 232.46 
L 67.512633 10.7 
" style="fill:none;stroke:#b0b0b0;stroke-dasharray:0.8,1.32;stroke-dashoffset:0;stroke-width:0.8;"/>
     </g>
     <g id="line2d_2">
      <defs>
       <path d="M 0 0 
L 0 3.5 
" id="m941ff2a431" style="stroke:#000000;stroke-width:0.8;"/>
      </defs>
      <g>
       <use style="stroke:#000000;stroke-width:0.8;" x="67.512633" xlink:href="#m941ff2a431" y="232.46"/>
      </g>
     </g>
     <g id="text_1">
      <!-- $0$ -->
      <defs>
       <path d="M 42 31.84375 
C 42 37.96875 41.90625 48.421875 37.703125 56.453125 
C 34 63.484375 28.09375 66 22.90625 66 
C 18.09375 66 12 63.78125 8.203125 56.5625 
C 4.203125 49.015625 3.796875 39.671875 3.796875 31.84375 
C 3.796875 26.109375 3.90625 17.375 7 9.734375 
C 11.296875 -0.609375 19 -2 22.90625 -2 
C 27.5 -2 34.5 -0.109375 38.59375 9.4375 
C 41.59375 16.375 42 24.5 42 31.84375 
z
M 22.90625 -0.40625 
C 16.5 -0.40625 12.703125 5.125 11.296875 12.75 
C 10.203125 18.6875 10.203125 27.328125 10.203125 32.953125 
C 10.203125 40.6875 10.203125 47.109375 11.5 53.234375 
C 13.40625 61.78125 19 64.390625 22.90625 64.390625 
C 27 64.390625 32.296875 61.671875 34.203125 53.4375 
C 35.5 47.71875 35.59375 40.984375 35.59375 32.953125 
C 35.59375 26.421875 35.59375 18.375 34.40625 12.453125 
C 32.296875 1.5 26.40625 -0.40625 22.90625 -0.40625 
z
" id="CMR17-48"/>
      </defs>
      <g transform="translate(65.021965 246.378498)scale(0.1 -0.1)">
       <use transform="scale(0.996264)" xlink:href="#CMR17-48"/>
      </g>
     </g>
    </g>
    <g id="xtick_2">
     <g id="line2d_3">
      <path clip-path="url(#p297b1bc1fd)" d="M 105.653439 232.46 
L 105.653439 10.7 
" style="fill:none;stroke:#b0b0b0;stroke-dasharray:0.8,1.32;stroke-dashoffset:0;stroke-width:0.8;"/>
     </g>
     <g id="line2d_4">
      <g>
       <use style="stroke:#000000;stroke-width:0.8;" x="105.653439" xlink:href="#m941ff2a431" y="232.46"/>
      </g>
     </g>
     <g id="text_2">
      <!-- $50$ -->
      <defs>
       <path d="M 11.40625 58.59375 
C 12.40625 58.1875 16.5 56.890625 20.703125 56.890625 
C 30 56.890625 35.09375 61.890625 38 64.6875 
C 38 65.484375 38 66 37.40625 66 
C 37.296875 66 37.09375 66 36.296875 65.59375 
C 32.796875 64.09375 28.703125 63 23.703125 63 
C 20.703125 63 16.203125 63.359375 11.296875 65.484375 
C 10.203125 66 10 66 9.90625 66 
C 9.40625 66 9.296875 65.890625 9.296875 63.90625 
L 9.296875 34.859375 
C 9.296875 33.015625 9.296875 32.5 10.296875 32.5 
C 10.796875 32.5 11 32.703125 11.5 33.421875 
C 14.703125 38.046875 19.09375 40 24.09375 40 
C 27.59375 40 35.09375 37.734375 35.09375 20.203125 
C 35.09375 16.984375 35.09375 11.1875 32.09375 6.59375 
C 29.59375 2.484375 25.703125 0.390625 21.40625 0.390625 
C 14.796875 0.390625 8.09375 4.984375 6.296875 12.6875 
C 6.703125 12.59375 7.5 12.390625 7.90625 12.390625 
C 9.203125 12.390625 11.703125 13.09375 11.703125 16.1875 
C 11.703125 18.890625 9.796875 20 7.90625 20 
C 5.59375 20 4.09375 18.59375 4.09375 15.796875 
C 4.09375 7.09375 11 -2 21.59375 -2 
C 31.90625 -2 41.703125 6.890625 41.703125 19.796875 
C 41.703125 32.09375 33.90625 41.59375 24.203125 41.59375 
C 19.09375 41.59375 14.796875 39.6875 11.40625 36 
z
" id="CMR17-53"/>
      </defs>
      <g transform="translate(100.672104 246.378498)scale(0.1 -0.1)">
       <use transform="scale(0.996264)" xlink:href="#CMR17-53"/>
       <use transform="translate(45.690477 0)scale(0.996264)" xlink:href="#CMR17-48"/>
      </g>
     </g>
    </g>
    <g id="xtick_3">
     <g id="line2d_5">
      <path clip-path="url(#p297b1bc1fd)" d="M 143.794246 232.46 
L 143.794246 10.7 
" style="fill:none;stroke:#b0b0b0;stroke-dasharray:0.8,1.32;stroke-dashoffset:0;stroke-width:0.8;"/>
     </g>
     <g id="line2d_6">
      <g>
       <use style="stroke:#000000;stroke-width:0.8;" x="143.794246" xlink:href="#m941ff2a431" y="232.46"/>
      </g>
     </g>
     <g id="text_3">
      <!-- $100$ -->
      <defs>
       <path d="M 26.59375 63.796875 
C 26.59375 65.890625 26.5 66 25.09375 66 
C 21.203125 61.359375 15.296875 59.890625 9.703125 59.6875 
C 9.40625 59.6875 8.90625 59.6875 8.796875 59.5 
C 8.703125 59.296875 8.703125 59.09375 8.703125 57 
C 11.796875 57 17 57.59375 21 59.984375 
L 21 7.296875 
C 21 3.796875 20.796875 2.59375 12.203125 2.59375 
L 9.203125 2.59375 
L 9.203125 0 
C 14 0.09375 19 0.1875 23.796875 0.1875 
C 28.59375 0.1875 33.59375 0.09375 38.40625 0 
L 38.40625 2.59375 
L 35.40625 2.59375 
C 26.796875 2.59375 26.59375 3.6875 26.59375 7.296875 
z
" id="CMR17-49"/>
      </defs>
      <g transform="translate(136.322243 246.378498)scale(0.1 -0.1)">
       <use transform="scale(0.996264)" xlink:href="#CMR17-49"/>
       <use transform="translate(45.690477 0)scale(0.996264)" xlink:href="#CMR17-48"/>
       <use transform="translate(91.380954 0)scale(0.996264)" xlink:href="#CMR17-48"/>
      </g>
     </g>
    </g>
    <g id="xtick_4">
     <g id="line2d_7">
      <path clip-path="url(#p297b1bc1fd)" d="M 181.935053 232.46 
L 181.935053 10.7 
" style="fill:none;stroke:#b0b0b0;stroke-dasharray:0.8,1.32;stroke-dashoffset:0;stroke-width:0.8;"/>
     </g>
     <g id="line2d_8">
      <g>
       <use style="stroke:#000000;stroke-width:0.8;" x="181.935053" xlink:href="#m941ff2a431" y="232.46"/>
      </g>
     </g>
     <g id="text_4">
      <!-- $150$ -->
      <g transform="translate(174.46305 246.378498)scale(0.1 -0.1)">
       <use transform="scale(0.996264)" xlink:href="#CMR17-49"/>
       <use transform="translate(45.690477 0)scale(0.996264)" xlink:href="#CMR17-53"/>
       <use transform="translate(91.380954 0)scale(0.996264)" xlink:href="#CMR17-48"/>
      </g>
     </g>
    </g>
    <g id="xtick_5">
     <g id="line2d_9">
      <path clip-path="url(#p297b1bc1fd)" d="M 220.075859 232.46 
L 220.075859 10.7 
" style="fill:none;stroke:#b0b0b0;stroke-dasharray:0.8,1.32;stroke-dashoffset:0;stroke-width:0.8;"/>
     </g>
     <g id="line2d_10">
      <g>
       <use style="stroke:#000000;stroke-width:0.8;" x="220.075859" xlink:href="#m941ff2a431" y="232.46"/>
      </g>
     </g>
     <g id="text_5">
      <!-- $200$ -->
      <defs>
       <path d="M 41.703125 15.46875 
L 39.90625 15.46875 
C 38.90625 8.390625 38.09375 7.1875 37.703125 6.59375 
C 37.203125 5.796875 30 5.796875 28.59375 5.796875 
L 9.40625 5.796875 
C 13 9.6875 20 16.765625 28.5 24.9375 
C 34.59375 30.71875 41.703125 37.5 41.703125 47.390625 
C 41.703125 59.1875 32.296875 66 21.796875 66 
C 10.796875 66 4.09375 56.296875 4.09375 47.296875 
C 4.09375 43.390625 7 42.890625 8.203125 42.890625 
C 9.203125 42.890625 12.203125 43.484375 12.203125 46.984375 
C 12.203125 50.09375 9.59375 51 8.203125 51 
C 7.59375 51 7 50.890625 6.59375 50.6875 
C 8.5 59.1875 14.296875 63.390625 20.40625 63.390625 
C 29.09375 63.390625 34.796875 56.5 34.796875 47.390625 
C 34.796875 38.703125 29.703125 31.21875 24 24.734375 
L 4.09375 2.296875 
L 4.09375 0 
L 39.296875 0 
z
" id="CMR17-50"/>
      </defs>
      <g transform="translate(212.603856 246.378498)scale(0.1 -0.1)">
       <use transform="scale(0.996264)" xlink:href="#CMR17-50"/>
       <use transform="translate(45.690477 0)scale(0.996264)" xlink:href="#CMR17-48"/>
       <use transform="translate(91.380954 0)scale(0.996264)" xlink:href="#CMR17-48"/>
      </g>
     </g>
    </g>
    <g id="xtick_6">
     <g id="line2d_11">
      <path clip-path="url(#p297b1bc1fd)" d="M 258.216666 232.46 
L 258.216666 10.7 
" style="fill:none;stroke:#b0b0b0;stroke-dasharray:0.8,1.32;stroke-dashoffset:0;stroke-width:0.8;"/>
     </g>
     <g id="line2d_12">
      <g>
       <use style="stroke:#000000;stroke-width:0.8;" x="258.216666" xlink:href="#m941ff2a431" y="232.46"/>
      </g>
     </g>
     <g id="text_6">
      <!-- $250$ -->
      <g transform="translate(250.744663 246.378498)scale(0.1 -0.1)">
       <use transform="scale(0.996264)" xlink:href="#CMR17-50"/>
       <use transform="translate(45.690477 0)scale(0.996264)" xlink:href="#CMR17-53"/>
       <use transform="translate(91.380954 0)scale(0.996264)" xlink:href="#CMR17-48"/>
      </g>
     </g>
    </g>
    <g id="xtick_7">
     <g id="line2d_13">
      <path clip-path="url(#p297b1bc1fd)" d="M 296.357472 232.46 
L 296.357472 10.7 
" style="fill:none;stroke:#b0b0b0;stroke-dasharray:0.8,1.32;stroke-dashoffset:0;stroke-width:0.8;"/>
     </g>
     <g id="line2d_14">
      <g>
       <use style="stroke:#000000;stroke-width:0.8;" x="296.357472" xlink:href="#m941ff2a431" y="232.46"/>
      </g>
     </g>
     <g id="text_7">
      <!-- $300$ -->
      <defs>
       <path d="M 22.09375 34 
C 31 34 34.90625 26.140625 34.90625 17.09375 
C 34.90625 5.03125 28.5 0.390625 22.703125 0.390625 
C 17.40625 0.390625 8.796875 3.015625 6.09375 10.796875 
C 6.59375 10.59375 7.09375 10.59375 7.59375 10.59375 
C 10 10.59375 11.796875 12.1875 11.796875 14.796875 
C 11.796875 17.6875 9.59375 19 7.59375 19 
C 5.90625 19 3.296875 18.1875 3.296875 14.484375 
C 3.296875 5.234375 12.296875 -2 22.90625 -2 
C 34 -2 42.5 6.75 42.5 16.984375 
C 42.5 26.84375 34.5 34 25 35.09375 
C 32.59375 36.671875 39.90625 43.375 39.90625 52.390625 
C 39.90625 60.25 32 66 23 66 
C 13.90625 66 5.90625 60.34375 5.90625 52.296875 
C 5.90625 48.796875 8.5 48.1875 9.796875 48.1875 
C 11.90625 48.1875 13.703125 49.484375 13.703125 52.09375 
C 13.703125 54.6875 11.90625 56 9.796875 56 
C 9.40625 56 8.90625 56 8.5 55.796875 
C 11.40625 62.484375 19.296875 63.6875 22.796875 63.6875 
C 26.296875 63.6875 32.90625 61.96875 32.90625 52.296875 
C 32.90625 49.484375 32.5 44.546875 29.09375 40.21875 
C 26.09375 36.390625 22.703125 36.1875 19.40625 35.890625 
C 18.90625 35.890625 16.59375 35.6875 16.203125 35.6875 
C 15.5 35.59375 15.09375 35.5 15.09375 34.796875 
C 15.09375 34.09375 15.203125 34 17.203125 34 
z
" id="CMR17-51"/>
      </defs>
      <g transform="translate(288.885469 246.378498)scale(0.1 -0.1)">
       <use transform="scale(0.996264)" xlink:href="#CMR17-51"/>
       <use transform="translate(45.690477 0)scale(0.996264)" xlink:href="#CMR17-48"/>
       <use transform="translate(91.380954 0)scale(0.996264)" xlink:href="#CMR17-48"/>
      </g>
     </g>
    </g>
    <g id="xtick_8">
     <g id="line2d_15">
      <path clip-path="url(#p297b1bc1fd)" d="M 334.498279 232.46 
L 334.498279 10.7 
" style="fill:none;stroke:#b0b0b0;stroke-dasharray:0.8,1.32;stroke-dashoffset:0;stroke-width:0.8;"/>
     </g>
     <g id="line2d_16">
      <g>
       <use style="stroke:#000000;stroke-width:0.8;" x="334.498279" xlink:href="#m941ff2a431" y="232.46"/>
      </g>
     </g>
     <g id="text_8">
      <!-- $350$ -->
      <g transform="translate(327.026276 246.378498)scale(0.1 -0.1)">
       <use transform="scale(0.996264)" xlink:href="#CMR17-51"/>
       <use transform="translate(45.690477 0)scale(0.996264)" xlink:href="#CMR17-53"/>
       <use transform="translate(91.380954 0)scale(0.996264)" xlink:href="#CMR17-48"/>
      </g>
     </g>
    </g>
    <g id="xtick_9">
     <g id="line2d_17">
      <path clip-path="url(#p297b1bc1fd)" d="M 372.639085 232.46 
L 372.639085 10.7 
" style="fill:none;stroke:#b0b0b0;stroke-dasharray:0.8,1.32;stroke-dashoffset:0;stroke-width:0.8;"/>
     </g>
     <g id="line2d_18">
      <g>
       <use style="stroke:#000000;stroke-width:0.8;" x="372.639085" xlink:href="#m941ff2a431" y="232.46"/>
      </g>
     </g>
     <g id="text_9">
      <!-- $400$ -->
      <defs>
       <path d="M 33.59375 64.796875 
C 33.59375 66.890625 33.5 67 31.703125 67 
L 2 19.59375 
L 2 17 
L 27.796875 17 
L 27.796875 7.1875 
C 27.796875 3.59375 27.59375 2.59375 20.59375 2.59375 
L 18.703125 2.59375 
L 18.703125 0 
C 21.90625 0.1875 27.296875 0.1875 30.703125 0.1875 
C 34.09375 0.1875 39.5 0.1875 42.703125 0 
L 42.703125 2.59375 
L 40.796875 2.59375 
C 33.796875 2.59375 33.59375 3.59375 33.59375 7.1875 
L 33.59375 17 
L 43.796875 17 
L 43.796875 19.59375 
L 33.59375 19.59375 
z
M 28.09375 58.171875 
L 28.09375 19.59375 
L 4 19.59375 
z
" id="CMR17-52"/>
      </defs>
      <g transform="translate(365.167083 246.378498)scale(0.1 -0.1)">
       <use transform="scale(0.996264)" xlink:href="#CMR17-52"/>
       <use transform="translate(45.690477 0)scale(0.996264)" xlink:href="#CMR17-48"/>
       <use transform="translate(91.380954 0)scale(0.996264)" xlink:href="#CMR17-48"/>
      </g>
     </g>
    </g>
    <g id="text_10">
     <!-- iteration $k$ -->
     <defs>
      <path d="M 15.5 61.890625 
C 15.5 64.09375 13.703125 66 11.40625 66 
C 9.203125 66 7.296875 64.1875 7.296875 61.890625 
C 7.296875 59.6875 9.09375 57.796875 11.40625 57.796875 
C 13.59375 57.796875 15.5 59.59375 15.5 61.890625 
z
M 3.796875 42.890625 
L 3.796875 40.296875 
C 9.40625 40.296875 10.203125 39.6875 10.203125 34.859375 
L 10.203125 6.921875 
C 10.203125 3.09375 9.796875 2.59375 3.40625 2.59375 
L 3.40625 0 
C 5.796875 0.1875 10.09375 0.1875 12.59375 0.1875 
C 15 0.1875 19.09375 0.1875 21.40625 0 
L 21.40625 2.59375 
C 15.5 2.59375 15.296875 3.203125 15.296875 6.8125 
L 15.296875 44 
z
" id="CMR17-105"/>
      <path d="M 15.09375 40.390625 
L 29.09375 40.390625 
L 29.09375 43 
L 15.09375 43 
L 15.09375 62 
L 13.296875 62 
C 13.09375 51.4375 9.59375 42.1875 1.09375 41.984375 
L 1.09375 40.390625 
L 9.796875 40.390625 
L 9.796875 12.15625 
C 9.796875 10.234375 9.796875 -1 21.40625 -1 
C 27.296875 -1 30.703125 4.8125 30.703125 12.25 
L 30.703125 17.984375 
L 28.90625 17.984375 
L 28.90625 12.34375 
C 28.90625 5.421875 26.203125 0.796875 22 0.796875 
C 19.09375 0.796875 15.09375 2.796875 15.09375 11.953125 
z
" id="CMR17-116"/>
      <path d="M 38.09375 23.484375 
C 38.5 23.890625 38.5 24.09375 38.5 25.09375 
C 38.5 35.171875 33.09375 44 21.703125 44 
C 11.09375 44 2.703125 33.984375 2.703125 21.78125 
C 2.703125 8.65625 12.203125 -1 22.796875 -1 
C 34 -1 38.40625 9.671875 38.40625 11.796875 
C 38.40625 12.5 37.796875 12.5 37.59375 12.5 
C 36.90625 12.5 36.796875 12.296875 36.40625 11.078125 
C 34.203125 4.21875 28.703125 0.796875 23.5 0.796875 
C 19.203125 0.796875 14.90625 3.21875 12.203125 7.65625 
C 9.09375 12.796875 9.09375 18.75 9.09375 23.484375 
z
M 9.203125 25 
C 9.90625 39.234375 17.59375 42.390625 21.59375 42.390625 
C 28.40625 42.390625 33 36.0625 33.09375 25 
z
" id="CMR17-101"/>
      <path d="M 15 23.703125 
C 15 33.34375 19.09375 42.390625 26.59375 42.390625 
C 27.296875 42.390625 28 42.296875 28.703125 41.984375 
C 28.703125 41.984375 26.5 41.28125 26.5 38.671875 
C 26.5 36.265625 28.40625 35.265625 29.90625 35.265625 
C 31.09375 35.265625 33.296875 35.96875 33.296875 38.78125 
C 33.296875 41.984375 30.09375 44 26.703125 44 
C 19.09375 44 15.796875 36.5625 14.796875 33.046875 
L 14.703125 33.046875 
L 14.703125 44 
L 3.09375 42.890625 
L 3.09375 40.28125 
C 9 40.28125 9.90625 39.6875 9.90625 34.859375 
L 9.90625 6.921875 
C 9.90625 3.09375 9.5 2.59375 3.09375 2.59375 
L 3.09375 0 
C 5.5 0.1875 10.09375 0.1875 12.703125 0.1875 
C 15.59375 0.1875 20.703125 0.1875 23.40625 0 
L 23.40625 2.59375 
C 16.203125 2.59375 15 2.59375 15 7.109375 
z
" id="CMR17-114"/>
      <path d="M 36 25.875 
C 36 32 36 35.546875 31.796875 39.59375 
C 28.09375 42.984375 23.796875 44 20.40625 44 
C 12.5 44 6.796875 37.625 6.796875 30.890625 
C 6.796875 27.1875 9.796875 27 10.40625 27 
C 11.703125 27 14 27.796875 14 30.59375 
C 14 33.09375 12.09375 34.1875 10.40625 34.1875 
C 10 34.1875 9.5 34.09375 9.203125 34 
C 11.296875 40.53125 16.703125 42.390625 20.203125 42.390625 
C 25.203125 42.390625 30.703125 37.828125 30.703125 29.296875 
L 30.703125 25.5 
C 24.796875 25.296875 17.703125 24.5 12.09375 21.453125 
C 5.796875 17.921875 4 12.84375 4 9 
C 4 1.203125 13 -1 18.296875 -1 
C 23.796875 -1 28.90625 2.109375 31.09375 7.890625 
C 31.296875 3.421875 34.09375 -0.609375 38.5 -0.609375 
C 40.59375 -0.609375 45.90625 0.796875 45.90625 8.796875 
L 45.90625 14.46875 
L 44.09375 14.46875 
L 44.09375 8.703125 
C 44.09375 2.515625 41.40625 1.703125 40.09375 1.703125 
C 36 1.703125 36 6.96875 36 11.4375 
z
M 30.703125 13.859375 
C 30.703125 5.046875 24.5 0.59375 19 0.59375 
C 14 0.59375 10.09375 4.34375 10.09375 9 
C 10.09375 12.046875 11.40625 17.40625 17.203125 20.65625 
C 22 23.390625 27.5 23.796875 30.703125 24 
z
" id="CMR17-97"/>
      <path d="M 43.09375 21.1875 
C 43.09375 34 33.796875 44 22.90625 44 
C 12 44 2.703125 34 2.703125 21.1875 
C 2.703125 8.59375 12 -1 22.90625 -1 
C 33.796875 -1 43.09375 8.59375 43.09375 21.1875 
z
M 22.90625 0.796875 
C 18.203125 0.796875 14.203125 3.59375 11.90625 7.5 
C 9.40625 12 9.09375 17.59375 9.09375 22 
C 9.09375 26.1875 9.296875 31.390625 11.90625 35.890625 
C 13.90625 39.1875 17.796875 42.390625 22.90625 42.390625 
C 27.40625 42.390625 31.203125 39.890625 33.59375 36.390625 
C 36.703125 31.6875 36.703125 25.09375 36.703125 22 
C 36.703125 18.09375 36.5 12.09375 33.796875 7.296875 
C 31 2.6875 26.703125 0.796875 22.90625 0.796875 
z
" id="CMR17-111"/>
      <path d="M 41.5 30.53125 
C 41.5 35.65625 40.5 44 28.703125 44 
C 20.796875 44 16.703125 37.875 15.203125 33.84375 
L 15.09375 33.84375 
L 15.09375 44 
L 3.296875 42.890625 
L 3.296875 40.28125 
C 9.203125 40.28125 10.09375 39.6875 10.09375 34.859375 
L 10.09375 6.921875 
C 10.09375 3.09375 9.703125 2.59375 3.296875 2.59375 
L 3.296875 0 
C 5.703125 0.1875 10.09375 0.1875 12.703125 0.1875 
C 15.296875 0.1875 19.796875 0.1875 22.203125 0 
L 22.203125 2.59375 
C 15.796875 2.59375 15.40625 3 15.40625 6.921875 
L 15.40625 26.21875 
C 15.40625 35.453125 21 42.390625 28 42.390625 
C 35.40625 42.390625 36.203125 35.765625 36.203125 30.9375 
L 36.203125 6.921875 
C 36.203125 3.09375 35.796875 2.59375 29.40625 2.59375 
L 29.40625 0 
C 31.796875 0.1875 36.203125 0.1875 38.796875 0.1875 
C 41.40625 0.1875 45.90625 0.1875 48.296875 0 
L 48.296875 2.59375 
C 41.90625 2.59375 41.5 3 41.5 6.921875 
z
" id="CMR17-110"/>
      <path d="M 28.09375 66.484375 
C 28.203125 66.890625 28.40625 67.484375 28.40625 67.984375 
C 28.40625 69 27.40625 69 27.203125 69 
C 27.09375 69 23.5 68.6875 21.703125 68.484375 
C 20 68.390625 18.5 68.1875 16.703125 68.09375 
C 14.296875 67.890625 13.59375 67.796875 13.59375 65.984375 
C 13.59375 64.984375 14.59375 64.984375 15.59375 64.984375 
C 20.703125 64.984375 20.703125 64.109375 20.703125 63.125 
C 20.703125 62.71875 20.703125 62.53125 20.203125 60.75 
L 5.90625 3.90625 
C 5.5 2.390625 5.5 2.203125 5.5 1.59375 
C 5.5 -0.609375 7.203125 -1 8.203125 -1 
C 11 -1 11.59375 1.1875 12.40625 4.296875 
L 17.09375 23.0625 
C 24.296875 22.265625 28.59375 19.25 28.59375 14.4375 
C 28.59375 13.828125 28.59375 13.4375 28.296875 11.921875 
C 27.90625 10.421875 27.90625 9.21875 27.90625 8.71875 
C 27.90625 2.890625 31.703125 -1 36.796875 -1 
C 41.40625 -1 43.796875 3.203125 44.59375 4.609375 
C 46.703125 8.3125 48 13.9375 48 14.328125 
C 48 14.828125 47.59375 15.234375 47 15.234375 
C 46.09375 15.234375 46 14.828125 45.59375 13.234375 
C 44.203125 8.015625 42.09375 1 37 1 
C 35 1 33.703125 2 33.703125 5.8125 
C 33.703125 7.71875 34.09375 9.921875 34.5 11.421875 
C 34.90625 13.234375 34.90625 13.328125 34.90625 14.53125 
C 34.90625 20.453125 29.59375 23.765625 20.40625 24.96875 
C 24 27.171875 27.59375 31.078125 29 32.59375 
C 34.703125 38.984375 38.59375 41.984375 43.203125 41.984375 
C 45.5 41.984375 46.09375 41.484375 46.796875 41 
C 43.09375 40.59375 41.703125 37.984375 41.703125 35.984375 
C 41.703125 33.59375 43.59375 32.796875 45 32.796875 
C 47.703125 32.796875 50.09375 35.09375 50.09375 38.296875 
C 50.09375 41.15625 47.796875 44 43.296875 44 
C 37.796875 44 33.296875 40.296875 26.203125 32.296875 
C 25.203125 31.078125 21.5 27.28125 17.796875 25.875 
z
" id="CMMI12-107"/>
     </defs>
     <g transform="translate(196.885256 259.234175)scale(0.1 -0.1)">
      <use transform="scale(0.996264)" xlink:href="#CMR17-105"/>
      <use transform="translate(24.871058 0)scale(0.996264)" xlink:href="#CMR17-116"/>
      <use transform="translate(60.151826 0)scale(0.996264)" xlink:href="#CMR17-101"/>
      <use transform="translate(100.637487 0)scale(0.996264)" xlink:href="#CMR17-114"/>
      <use transform="translate(135.918255 0)scale(0.996264)" xlink:href="#CMR17-97"/>
      <use transform="translate(181.608732 0)scale(0.996264)" xlink:href="#CMR17-116"/>
      <use transform="translate(216.889499 0)scale(0.996264)" xlink:href="#CMR17-105"/>
      <use transform="translate(241.760558 0)scale(0.996264)" xlink:href="#CMR17-111"/>
      <use transform="translate(287.451035 0)scale(0.996264)" xlink:href="#CMR17-110"/>
      <use transform="translate(368.422371 0)scale(0.996264)" xlink:href="#CMMI12-107"/>
     </g>
    </g>
   </g>
   <g id="matplotlib.axis_2">
    <g id="ytick_1">
     <g id="line2d_19">
      <path clip-path="url(#p297b1bc1fd)" d="M 52.294451 232.46 
L 387.094451 232.46 
" style="fill:none;stroke:#b0b0b0;stroke-dasharray:0.8,1.32;stroke-dashoffset:0;stroke-width:0.8;"/>
     </g>
     <g id="line2d_20">
      <defs>
       <path d="M 0 0 
L -3.5 0 
" id="me25b10148d" style="stroke:#000000;stroke-width:0.8;"/>
      </defs>
      <g>
       <use style="stroke:#000000;stroke-width:0.8;" x="52.294451" xlink:href="#me25b10148d" y="232.46"/>
      </g>
     </g>
     <g id="text_11">
      <!-- $10^{-16}$ -->
      <defs>
       <path d="M 65.90625 23 
C 67.59375 23 69.40625 23 69.40625 25 
C 69.40625 27 67.59375 27 65.90625 27 
L 11.796875 27 
C 10.09375 27 8.296875 27 8.296875 25 
C 8.296875 23 10.09375 23 11.796875 23 
z
" id="CMSY10-0"/>
       <path d="M 10.59375 34.34375 
C 10.59375 58 21.796875 63.6875 28.296875 63.6875 
C 30.40625 63.6875 35.5 63.265625 37.5 59.09375 
C 35.90625 59.09375 32.90625 59.09375 32.90625 55.59375 
C 32.90625 52.890625 35.09375 52 36.5 52 
C 37.40625 52 40.09375 52.390625 40.09375 55.796875 
C 40.09375 62.296875 35.09375 66 28.203125 66 
C 16.296875 66 3.796875 53.296875 3.796875 31.421875 
C 3.796875 4.015625 15.09375 -2 23.09375 -2 
C 32.796875 -2 42 6.734375 42 20.234375 
C 42 32.828125 33.90625 42 23.703125 42 
C 17.59375 42 13.09375 37.96875 10.59375 30.921875 
z
M 23.09375 0.390625 
C 10.796875 0.390625 10.796875 18.9375 10.796875 22.65625 
C 10.796875 29.90625 14.203125 40.390625 23.5 40.390625 
C 25.203125 40.390625 30.09375 40.390625 33.40625 33.4375 
C 35.203125 29.515625 35.203125 25.375 35.203125 20.34375 
C 35.203125 14.90625 35.203125 10.875 33.09375 6.84375 
C 30.90625 2.703125 27.703125 0.390625 23.09375 0.390625 
z
" id="CMR17-54"/>
      </defs>
      <g transform="translate(21.16264 235.919249)scale(0.1 -0.1)">
       <use transform="scale(0.996264)" xlink:href="#CMR17-49"/>
       <use transform="translate(45.690477 0)scale(0.996264)" xlink:href="#CMR17-48"/>
       <use transform="translate(91.380954 36.153639)scale(0.697382)" xlink:href="#CMSY10-0"/>
       <use transform="translate(145.621947 36.153639)scale(0.697382)" xlink:href="#CMR17-49"/>
       <use transform="translate(177.605129 36.153639)scale(0.697382)" xlink:href="#CMR17-54"/>
      </g>
     </g>
    </g>
    <g id="ytick_2">
     <g id="line2d_21">
      <path clip-path="url(#p297b1bc1fd)" d="M 52.294451 205.900278 
L 387.094451 205.900278 
" style="fill:none;stroke:#b0b0b0;stroke-dasharray:0.8,1.32;stroke-dashoffset:0;stroke-width:0.8;"/>
     </g>
     <g id="line2d_22">
      <g>
       <use style="stroke:#000000;stroke-width:0.8;" x="52.294451" xlink:href="#me25b10148d" y="205.900278"/>
      </g>
     </g>
     <g id="text_12">
      <!-- $10^{-14}$ -->
      <g transform="translate(21.16264 209.359527)scale(0.1 -0.1)">
       <use transform="scale(0.996264)" xlink:href="#CMR17-49"/>
       <use transform="translate(45.690477 0)scale(0.996264)" xlink:href="#CMR17-48"/>
       <use transform="translate(91.380954 36.153639)scale(0.697382)" xlink:href="#CMSY10-0"/>
       <use transform="translate(145.621947 36.153639)scale(0.697382)" xlink:href="#CMR17-49"/>
       <use transform="translate(177.605129 36.153639)scale(0.697382)" xlink:href="#CMR17-52"/>
      </g>
     </g>
    </g>
    <g id="ytick_3">
     <g id="line2d_23">
      <path clip-path="url(#p297b1bc1fd)" d="M 52.294451 179.340556 
L 387.094451 179.340556 
" style="fill:none;stroke:#b0b0b0;stroke-dasharray:0.8,1.32;stroke-dashoffset:0;stroke-width:0.8;"/>
     </g>
     <g id="line2d_24">
      <g>
       <use style="stroke:#000000;stroke-width:0.8;" x="52.294451" xlink:href="#me25b10148d" y="179.340556"/>
      </g>
     </g>
     <g id="text_13">
      <!-- $10^{-12}$ -->
      <g transform="translate(21.16264 182.799805)scale(0.1 -0.1)">
       <use transform="scale(0.996264)" xlink:href="#CMR17-49"/>
       <use transform="translate(45.690477 0)scale(0.996264)" xlink:href="#CMR17-48"/>
       <use transform="translate(91.380954 36.153639)scale(0.697382)" xlink:href="#CMSY10-0"/>
       <use transform="translate(145.621947 36.153639)scale(0.697382)" xlink:href="#CMR17-49"/>
       <use transform="translate(177.605129 36.153639)scale(0.697382)" xlink:href="#CMR17-50"/>
      </g>
     </g>
    </g>
    <g id="ytick_4">
     <g id="line2d_25">
      <path clip-path="url(#p297b1bc1fd)" d="M 52.294451 152.780834 
L 387.094451 152.780834 
" style="fill:none;stroke:#b0b0b0;stroke-dasharray:0.8,1.32;stroke-dashoffset:0;stroke-width:0.8;"/>
     </g>
     <g id="line2d_26">
      <g>
       <use style="stroke:#000000;stroke-width:0.8;" x="52.294451" xlink:href="#me25b10148d" y="152.780834"/>
      </g>
     </g>
     <g id="text_14">
      <!-- $10^{-10}$ -->
      <g transform="translate(21.16264 156.240083)scale(0.1 -0.1)">
       <use transform="scale(0.996264)" xlink:href="#CMR17-49"/>
       <use transform="translate(45.690477 0)scale(0.996264)" xlink:href="#CMR17-48"/>
       <use transform="translate(91.380954 36.153639)scale(0.697382)" xlink:href="#CMSY10-0"/>
       <use transform="translate(145.621947 36.153639)scale(0.697382)" xlink:href="#CMR17-49"/>
       <use transform="translate(177.605129 36.153639)scale(0.697382)" xlink:href="#CMR17-48"/>
      </g>
     </g>
    </g>
    <g id="ytick_5">
     <g id="line2d_27">
      <path clip-path="url(#p297b1bc1fd)" d="M 52.294451 126.221112 
L 387.094451 126.221112 
" style="fill:none;stroke:#b0b0b0;stroke-dasharray:0.8,1.32;stroke-dashoffset:0;stroke-width:0.8;"/>
     </g>
     <g id="line2d_28">
      <g>
       <use style="stroke:#000000;stroke-width:0.8;" x="52.294451" xlink:href="#me25b10148d" y="126.221112"/>
      </g>
     </g>
     <g id="text_15">
      <!-- $10^{-8}$ -->
      <defs>
       <path d="M 27.203125 35.765625 
C 33.5 38.96875 39.90625 43.796875 39.90625 51.53125 
C 39.90625 60.6875 31.09375 66 23 66 
C 13.90625 66 5.90625 59.375 5.90625 50.234375 
C 5.90625 47.71875 6.5 43.390625 10.40625 39.578125 
C 11.40625 38.578125 15.59375 35.5625 18.296875 33.65625 
C 13.796875 31.34375 3.296875 25.8125 3.296875 14.765625 
C 3.296875 4.40625 13.09375 -2 22.796875 -2 
C 33.5 -2 42.5 5.71875 42.5 15.96875 
C 42.5 25.109375 36.40625 29.328125 32.40625 32.046875 
z
M 14.09375 44.609375 
C 13.296875 45.109375 9.296875 48.21875 9.296875 52.9375 
C 9.296875 59.078125 15.59375 63.6875 22.796875 63.6875 
C 30.703125 63.6875 36.5 58.0625 36.5 51.53125 
C 36.5 42.1875 26.09375 36.859375 25.59375 36.859375 
C 25.5 36.859375 25.40625 36.859375 24.59375 37.46875 
z
M 32.5 24 
C 34 22.90625 38.796875 19.578125 38.796875 13.453125 
C 38.796875 6.015625 31.40625 0.390625 23 0.390625 
C 13.90625 0.390625 7 6.921875 7 14.859375 
C 7 22.796875 13.09375 29.4375 20 32.546875 
z
" id="CMR17-56"/>
      </defs>
      <g transform="translate(25.133878 129.680361)scale(0.1 -0.1)">
       <use transform="scale(0.996264)" xlink:href="#CMR17-49"/>
       <use transform="translate(45.690477 0)scale(0.996264)" xlink:href="#CMR17-48"/>
       <use transform="translate(91.380954 36.153639)scale(0.697382)" xlink:href="#CMSY10-0"/>
       <use transform="translate(145.621947 36.153639)scale(0.697382)" xlink:href="#CMR17-56"/>
      </g>
     </g>
    </g>
    <g id="ytick_6">
     <g id="line2d_29">
      <path clip-path="url(#p297b1bc1fd)" d="M 52.294451 99.66139 
L 387.094451 99.66139 
" style="fill:none;stroke:#b0b0b0;stroke-dasharray:0.8,1.32;stroke-dashoffset:0;stroke-width:0.8;"/>
     </g>
     <g id="line2d_30">
      <g>
       <use style="stroke:#000000;stroke-width:0.8;" x="52.294451" xlink:href="#me25b10148d" y="99.66139"/>
      </g>
     </g>
     <g id="text_16">
      <!-- $10^{-6}$ -->
      <g transform="translate(25.133878 103.120639)scale(0.1 -0.1)">
       <use transform="scale(0.996264)" xlink:href="#CMR17-49"/>
       <use transform="translate(45.690477 0)scale(0.996264)" xlink:href="#CMR17-48"/>
       <use transform="translate(91.380954 36.153639)scale(0.697382)" xlink:href="#CMSY10-0"/>
       <use transform="translate(145.621947 36.153639)scale(0.697382)" xlink:href="#CMR17-54"/>
      </g>
     </g>
    </g>
    <g id="ytick_7">
     <g id="line2d_31">
      <path clip-path="url(#p297b1bc1fd)" d="M 52.294451 73.101668 
L 387.094451 73.101668 
" style="fill:none;stroke:#b0b0b0;stroke-dasharray:0.8,1.32;stroke-dashoffset:0;stroke-width:0.8;"/>
     </g>
     <g id="line2d_32">
      <g>
       <use style="stroke:#000000;stroke-width:0.8;" x="52.294451" xlink:href="#me25b10148d" y="73.101668"/>
      </g>
     </g>
     <g id="text_17">
      <!-- $10^{-4}$ -->
      <g transform="translate(25.133878 76.560918)scale(0.1 -0.1)">
       <use transform="scale(0.996264)" xlink:href="#CMR17-49"/>
       <use transform="translate(45.690477 0)scale(0.996264)" xlink:href="#CMR17-48"/>
       <use transform="translate(91.380954 36.153639)scale(0.697382)" xlink:href="#CMSY10-0"/>
       <use transform="translate(145.621947 36.153639)scale(0.697382)" xlink:href="#CMR17-52"/>
      </g>
     </g>
    </g>
    <g id="ytick_8">
     <g id="line2d_33">
      <path clip-path="url(#p297b1bc1fd)" d="M 52.294451 46.541946 
L 387.094451 46.541946 
" style="fill:none;stroke:#b0b0b0;stroke-dasharray:0.8,1.32;stroke-dashoffset:0;stroke-width:0.8;"/>
     </g>
     <g id="line2d_34">
      <g>
       <use style="stroke:#000000;stroke-width:0.8;" x="52.294451" xlink:href="#me25b10148d" y="46.541946"/>
      </g>
     </g>
     <g id="text_18">
      <!-- $10^{-2}$ -->
      <g transform="translate(25.133878 50.001196)scale(0.1 -0.1)">
       <use transform="scale(0.996264)" xlink:href="#CMR17-49"/>
       <use transform="translate(45.690477 0)scale(0.996264)" xlink:href="#CMR17-48"/>
       <use transform="translate(91.380954 36.153639)scale(0.697382)" xlink:href="#CMSY10-0"/>
       <use transform="translate(145.621947 36.153639)scale(0.697382)" xlink:href="#CMR17-50"/>
      </g>
     </g>
    </g>
    <g id="ytick_9">
     <g id="line2d_35">
      <path clip-path="url(#p297b1bc1fd)" d="M 52.294451 19.982224 
L 387.094451 19.982224 
" style="fill:none;stroke:#b0b0b0;stroke-dasharray:0.8,1.32;stroke-dashoffset:0;stroke-width:0.8;"/>
     </g>
     <g id="line2d_36">
      <g>
       <use style="stroke:#000000;stroke-width:0.8;" x="52.294451" xlink:href="#me25b10148d" y="19.982224"/>
      </g>
     </g>
     <g id="text_19">
      <!-- $10^{0}$ -->
      <g transform="translate(31.360543 23.441474)scale(0.1 -0.1)">
       <use transform="scale(0.996264)" xlink:href="#CMR17-49"/>
       <use transform="translate(45.690477 0)scale(0.996264)" xlink:href="#CMR17-48"/>
       <use transform="translate(91.380954 36.153639)scale(0.697382)" xlink:href="#CMR17-48"/>
      </g>
     </g>
    </g>
    <g id="text_20">
     <!-- $\mathbf{A}$-norm of error: $\| \mathbf{x}-\mathbf{x}_k \|_\mathbf{A}$ -->
     <defs>
      <path d="M 45.796875 67.703125 
C 45.09375 69.5 44.90625 70 42.5 70 
C 40 70 39.796875 69.5 39.09375 67.703125 
L 14.296875 6.703125 
C 13.59375 5.09375 13.59375 4.890625 10.796875 4.59375 
C 8.296875 4.296875 7.90625 4.296875 5.703125 4.296875 
L 3.90625 4.296875 
L 3.90625 0 
C 6.5 0.1875 12.5 0.1875 15.40625 0.1875 
C 18.09375 0.1875 25.40625 0.1875 27.703125 0 
L 27.703125 4.296875 
C 25.5 4.296875 21.703125 4.296875 18.90625 5.40625 
C 19.203125 6.3125 19.203125 6.5 19.40625 6.90625 
L 24.703125 20 
L 51.5 20 
L 57.796875 4.296875 
L 48.40625 4.296875 
L 48.40625 0 
C 51.59375 0.1875 61.296875 0.1875 65.09375 0.1875 
C 68.296875 0.1875 78.5 0.1875 81 0 
L 81 4.296875 
L 71.5 4.296875 
z
M 38.09375 53.03125 
L 49.703125 24.296875 
L 26.40625 24.296875 
z
" id="CMBX12-65"/>
      <path d="M 25.5 19.59375 
L 25.5 24 
L 0.40625 24 
L 0.40625 19.59375 
z
" id="CMR17-45"/>
      <path d="M 67.59375 30.53125 
C 67.59375 35.5625 66.703125 44 54.796875 44 
C 48 44 43.296875 39.375 41.5 33.953125 
L 41.40625 33.953125 
C 40.203125 42.1875 34.296875 44 28.703125 44 
C 20.796875 44 16.703125 37.875 15.203125 33.84375 
L 15.09375 33.84375 
L 15.09375 44 
L 3.296875 42.890625 
L 3.296875 40.28125 
C 9.203125 40.28125 10.09375 39.6875 10.09375 34.859375 
L 10.09375 6.921875 
C 10.09375 3.09375 9.703125 2.59375 3.296875 2.59375 
L 3.296875 0 
C 5.703125 0.1875 10.09375 0.1875 12.703125 0.1875 
C 15.296875 0.1875 19.796875 0.1875 22.203125 0 
L 22.203125 2.59375 
C 15.796875 2.59375 15.40625 3 15.40625 6.921875 
L 15.40625 26.21875 
C 15.40625 35.453125 21 42.390625 28 42.390625 
C 35.40625 42.390625 36.203125 35.765625 36.203125 30.9375 
L 36.203125 6.921875 
C 36.203125 3.09375 35.796875 2.59375 29.40625 2.59375 
L 29.40625 0 
C 31.796875 0.1875 36.203125 0.1875 38.796875 0.1875 
C 41.40625 0.1875 45.90625 0.1875 48.296875 0 
L 48.296875 2.59375 
C 41.90625 2.59375 41.5 3 41.5 6.921875 
L 41.5 26.21875 
C 41.5 35.453125 47.09375 42.390625 54.09375 42.390625 
C 61.5 42.390625 62.296875 35.765625 62.296875 30.9375 
L 62.296875 6.921875 
C 62.296875 3.09375 61.90625 2.59375 55.5 2.59375 
L 55.5 0 
C 57.90625 0.1875 62.296875 0.1875 64.90625 0.1875 
C 67.5 0.1875 72 0.1875 74.40625 0 
L 74.40625 2.59375 
C 68 2.59375 67.59375 3 67.59375 6.921875 
z
" id="CMR17-109"/>
      <path d="M 15.296875 40.390625 
L 26.703125 40.390625 
L 26.703125 43 
L 15.09375 43 
L 15.09375 55.296875 
C 15.09375 63.6875 19.296875 68.390625 23.59375 68.390625 
C 24.90625 68.390625 26.40625 68.171875 27.40625 67.796875 
C 26.59375 67.59375 24.5 66.890625 24.5 64.390625 
C 24.5 61.796875 26.5 61 27.90625 61 
C 29.296875 61 31.296875 61.796875 31.296875 64.390625 
C 31.296875 68.015625 27.703125 70 23.703125 70 
C 18 70 10.203125 65.796875 10.203125 55.09375 
L 10.203125 43 
L 2.203125 43 
L 2.203125 40.390625 
L 10.203125 40.390625 
L 10.203125 6.890625 
C 10.203125 3.09375 9.796875 2.59375 3.40625 2.59375 
L 3.40625 0 
C 5.796875 0.1875 10.40625 0.1875 13 0.1875 
C 15.90625 0.1875 21 0.1875 23.703125 0 
L 23.703125 2.59375 
C 16.5 2.59375 15.296875 2.59375 15.296875 7.09375 
z
" id="CMR17-102"/>
      <path d="M 16.59375 38.890625 
C 16.59375 41.390625 14.59375 43 12.5 43 
C 10.5 43 8.40625 41.390625 8.40625 38.890625 
C 8.40625 36.390625 10.40625 34.796875 12.5 34.796875 
C 14.5 34.796875 16.59375 36.390625 16.59375 38.890625 
z
M 16.59375 4.09375 
C 16.59375 6.59375 14.59375 8.1875 12.5 8.1875 
C 10.5 8.1875 8.40625 6.59375 8.40625 4.09375 
C 8.40625 1.59375 10.40625 0 12.5 0 
C 14.5 0 16.59375 1.59375 16.59375 4.09375 
z
" id="CMR17-58"/>
      <path d="M 17.203125 71.59375 
C 17.203125 73.1875 17.203125 75 15.203125 75 
C 13.203125 75 13.203125 72.796875 13.203125 71.296875 
L 13.203125 -21.3125 
C 13.203125 -22.90625 13.203125 -25 15.203125 -25 
C 17.203125 -25 17.203125 -23.203125 17.203125 -21.609375 
z
M 36.703125 71.296875 
C 36.703125 72.890625 36.703125 75 34.703125 75 
C 32.703125 75 32.703125 73.1875 32.703125 71.59375 
L 32.703125 -21.609375 
C 32.703125 -23.203125 32.703125 -25 34.703125 -25 
C 36.703125 -25 36.703125 -22.8125 36.703125 -21.3125 
z
" id="CMSY10-107"/>
      <path d="M 33.703125 24.46875 
L 45.296875 37.609375 
C 46.40625 38.90625 47.296875 39.6875 55.59375 39.6875 
L 55.59375 44 
C 50 43.796875 49.796875 43.796875 46.40625 43.796875 
C 43.5 43.796875 39.203125 43.796875 36.40625 44 
L 36.40625 39.6875 
C 38.296875 39.6875 40.40625 39.203125 40.40625 38.5 
C 40.40625 38.3125 39.90625 37.609375 39.703125 37.421875 
L 31 27.71875 
L 21.09375 39.6875 
L 25.296875 39.6875 
L 25.296875 44 
C 23 43.796875 16.203125 43.796875 13.5 43.796875 
C 10.5 43.796875 5.09375 43.796875 2.296875 44 
L 2.296875 39.6875 
L 9.40625 39.6875 
L 25 20.90625 
L 12 6.375 
C 10.796875 4.984375 10.09375 4.296875 1.796875 4.296875 
L 1.796875 0 
C 7.796875 0.1875 8 0.1875 11.09375 0.1875 
C 14 0.1875 18.203125 0.1875 21 0 
L 21 4.296875 
C 19.09375 4.296875 17 4.78125 17 5.484375 
C 17 5.578125 17 5.671875 17.703125 6.46875 
L 27.703125 17.640625 
L 38.796875 4.296875 
L 34.59375 4.296875 
L 34.59375 0 
C 37 0.1875 43.703125 0.1875 46.5 0.1875 
C 49.5 0.1875 54.796875 0.1875 57.59375 0 
L 57.59375 4.296875 
L 50.59375 4.296875 
z
" id="CMBX12-120"/>
     </defs>
     <g transform="translate(15.225462 183.362537)rotate(-90)scale(0.1 -0.1)">
      <use transform="translate(0 14.943915)scale(0.996264)" xlink:href="#CMBX12-65"/>
      <use transform="translate(84.636395 14.943915)scale(0.996264)" xlink:href="#CMR17-45"/>
      <use transform="translate(114.712361 14.943915)scale(0.996264)" xlink:href="#CMR17-110"/>
      <use transform="translate(165.607731 14.943915)scale(0.996264)" xlink:href="#CMR17-111"/>
      <use transform="translate(211.298208 14.943915)scale(0.996264)" xlink:href="#CMR17-114"/>
      <use transform="translate(246.578976 14.943915)scale(0.996264)" xlink:href="#CMR17-109"/>
      <use transform="translate(353.574532 14.943915)scale(0.996264)" xlink:href="#CMR17-111"/>
      <use transform="translate(399.265009 14.943915)scale(0.996264)" xlink:href="#CMR17-102"/>
      <use transform="translate(456.814488 14.943915)scale(0.996264)" xlink:href="#CMR17-101"/>
      <use transform="translate(497.300148 14.943915)scale(0.996264)" xlink:href="#CMR17-114"/>
      <use transform="translate(532.580916 14.943915)scale(0.996264)" xlink:href="#CMR17-114"/>
      <use transform="translate(567.861684 14.943915)scale(0.996264)" xlink:href="#CMR17-111"/>
      <use transform="translate(613.552161 14.943915)scale(0.996264)" xlink:href="#CMR17-114"/>
      <use transform="translate(648.832929 14.943915)scale(0.996264)" xlink:href="#CMR17-58"/>
      <use transform="translate(714.189648 14.943915)scale(0.996264)" xlink:href="#CMSY10-107"/>
      <use transform="translate(764.003031 14.943915)scale(0.996264)" xlink:href="#CMBX12-120"/>
      <use transform="translate(845.295413 14.943915)scale(0.996264)" xlink:href="#CMSY10-0"/>
      <use transform="translate(944.922088 14.943915)scale(0.996264)" xlink:href="#CMBX12-120"/>
      <use transform="translate(1004.075263 0)scale(0.697382)" xlink:href="#CMMI12-107"/>
      <use transform="translate(1042.428646 14.943915)scale(0.996264)" xlink:href="#CMSY10-107"/>
      <use transform="translate(1092.242029 0)scale(0.697382)" xlink:href="#CMBX12-65"/>
     </g>
    </g>
   </g>
   <g id="line2d_37">
    <path clip-path="url(#p297b1bc1fd)" d="M 67.512633 19.982224 
L 72.08953 20.285464 
L 87.345852 21.207576 
L 95.73683 21.864546 
L 98.788094 22.299072 
L 101.076543 22.66755 
L 107.179072 23.332174 
L 110.993152 23.642338 
L 118.621314 23.854573 
L 133.11482 24.025768 
L 147.608327 24.217914 
L 152.185223 24.508073 
L 154.473672 24.892873 
L 158.287753 25.82602 
L 162.864649 27.214149 
L 166.67873 28.146299 
L 172.781259 29.168888 
L 181.935053 30.656748 
L 184.223501 31.210875 
L 185.749133 31.812928 
L 187.274766 32.765921 
L 188.800398 34.124231 
L 191.088846 36.558838 
L 191.851662 37.56934 
L 196.428559 44.704231 
L 197.191375 45.773836 
L 198.717007 48.799743 
L 200.24264 52.123146 
L 201.005456 53.294173 
L 203.293904 55.772659 
L 206.345169 58.498097 
L 207.870801 59.744769 
L 209.396433 60.643383 
L 211.684882 62.394905 
L 212.447698 63.135547 
L 213.97333 65.278557 
L 214.736146 66.456239 
L 216.261779 68.204684 
L 217.787411 69.784222 
L 221.601491 74.460018 
L 223.88994 77.549951 
L 225.415572 79.44394 
L 226.941204 81.457324 
L 228.466837 83.043966 
L 230.755285 85.555483 
L 235.332182 89.232962 
L 238.383446 92.935459 
L 240.671895 97.53215 
L 241.434711 98.99589 
L 243.723159 102.523882 
L 245.248792 104.958452 
L 246.774424 106.666761 
L 247.53724 107.583842 
L 250.588504 110.615718 
L 251.351321 111.646749 
L 254.402585 114.464455 
L 256.691033 116.400795 
L 258.979482 118.897316 
L 262.030746 123.198955 
L 263.556379 125.175569 
L 265.082011 127.430439 
L 266.607643 130.778246 
L 269.658908 134.999131 
L 271.18454 136.556887 
L 273.472988 139.537877 
L 274.998621 142.809718 
L 275.761437 144.553047 
L 276.524253 145.877944 
L 277.287069 147.52727 
L 280.338334 155.349596 
L 282.626782 159.012823 
L 283.389598 160.238077 
L 284.152414 161.714483 
L 285.678046 165.24339 
L 288.729311 169.679642 
L 290.254943 171.787122 
L 291.017759 172.643864 
L 292.543392 174.677078 
L 295.594656 178.530321 
L 297.120288 180.447605 
L 298.645921 182.261378 
L 299.408737 183.131391 
L 300.171553 183.725825 
L 301.697185 184.560699 
L 302.460001 184.876175 
L 303.985634 185.118838 
L 306.274082 185.258374 
L 312.376611 185.296978 
L 371.876269 185.250839 
L 371.876269 185.250839 
" style="fill:none;stroke:#93a1a1;stroke-linecap:square;stroke-width:1.5;"/>
    <defs>
     <path d="M 0 3 
C 0.795609 3 1.55874 2.683901 2.12132 2.12132 
C 2.683901 1.55874 3 0.795609 3 0 
C 3 -0.795609 2.683901 -1.55874 2.12132 -2.12132 
C 1.55874 -2.683901 0.795609 -3 0 -3 
C -0.795609 -3 -1.55874 -2.683901 -2.12132 -2.12132 
C -2.683901 -1.55874 -3 -0.795609 -3 0 
C -3 0.795609 -2.683901 1.55874 -2.12132 2.12132 
C -1.55874 2.683901 -0.795609 3 0 3 
z
" id="mec6f27540c" style="stroke:#93a1a1;"/>
    </defs>
    <g clip-path="url(#p297b1bc1fd)">
     <use style="fill:#93a1a1;stroke:#93a1a1;" x="67.512633" xlink:href="#mec6f27540c" y="19.982224"/>
     <use style="fill:#93a1a1;stroke:#93a1a1;" x="128.537923" xlink:href="#mec6f27540c" y="23.995751"/>
     <use style="fill:#93a1a1;stroke:#93a1a1;" x="189.563214" xlink:href="#mec6f27540c" y="34.888094"/>
     <use style="fill:#93a1a1;stroke:#93a1a1;" x="250.588504" xlink:href="#mec6f27540c" y="110.615718"/>
     <use style="fill:#93a1a1;stroke:#93a1a1;" x="311.613795" xlink:href="#mec6f27540c" y="185.296773"/>
    </g>
   </g>
   <g id="line2d_38">
    <path clip-path="url(#p297b1bc1fd)" d="M 67.512633 19.982224 
L 72.08953 20.285464 
L 87.345852 21.207576 
L 95.73683 21.864546 
L 98.788094 22.299072 
L 101.076543 22.66755 
L 107.179072 23.332174 
L 110.993152 23.642338 
L 118.621314 23.854573 
L 133.11482 24.025768 
L 147.608327 24.217914 
L 152.185223 24.506879 
L 154.473672 24.866089 
L 158.287753 25.825608 
L 162.101833 26.969838 
L 166.67873 28.146227 
L 172.781259 29.167555 
L 181.172236 30.525015 
L 183.460685 30.997548 
L 184.986317 31.487744 
L 185.749133 31.813486 
L 187.274766 32.77584 
L 188.800398 34.12507 
L 191.088846 36.558855 
L 191.851662 37.569322 
L 195.665743 43.61917 
L 197.191375 45.706916 
L 198.717007 48.79234 
L 200.24264 52.197432 
L 201.005456 53.466347 
L 202.531088 55.152293 
L 205.582353 57.870895 
L 207.870801 59.755264 
L 209.396433 60.661157 
L 211.684882 62.557272 
L 213.210514 64.301327 
L 215.498962 67.319341 
L 220.838675 73.409197 
L 222.364308 75.53653 
L 223.127124 76.73461 
L 227.70402 82.206426 
L 229.229653 83.847032 
L 230.755285 85.51179 
L 233.80655 87.792734 
L 236.857814 90.917977 
L 237.62063 91.766305 
L 238.383446 92.924246 
L 240.671895 97.480958 
L 241.434711 98.984508 
L 245.248792 104.849344 
L 246.774424 106.649496 
L 247.53724 107.594317 
L 249.062872 108.98817 
L 249.825688 109.678257 
L 252.114137 112.34938 
L 256.691033 116.481279 
L 258.979482 118.93939 
L 260.505114 121.097325 
L 262.030746 123.391206 
L 262.793563 124.195318 
L 265.082011 127.515925 
L 265.844827 129.057547 
L 266.607643 130.881132 
L 268.133275 133.184095 
L 270.421724 136.123507 
L 272.710172 138.753455 
L 274.235804 141.208748 
L 278.049885 149.619324 
L 279.575517 153.743592 
L 280.338334 155.442183 
L 281.10115 156.851778 
L 282.626782 159.293332 
L 285.678046 165.372333 
L 287.203679 167.602781 
L 289.492127 170.675166 
L 290.254943 171.478255 
L 291.780576 173.708083 
L 292.543392 174.852387 
L 298.645921 182.271426 
L 300.171553 183.197665 
L 300.934369 183.561961 
L 303.222817 184.108282 
L 305.511266 184.246474 
L 310.850979 184.293949 
L 326.870118 184.414761 
L 328.39575 184.625485 
L 329.921382 185.182187 
L 330.684198 185.511448 
L 332.20983 186.827933 
L 334.498279 188.803989 
L 336.023911 189.463897 
L 337.549543 189.698222 
L 340.600808 189.779774 
L 371.876269 189.853064 
L 371.876269 189.853064 
" style="fill:none;stroke:#93a1a1;stroke-linecap:square;stroke-width:1.5;"/>
    <defs>
     <path d="M 0 -3 
L -3 3 
L 3 3 
z
" id="mc478d8c067" style="stroke:#93a1a1;stroke-linejoin:miter;"/>
    </defs>
    <g clip-path="url(#p297b1bc1fd)">
     <use style="fill:#93a1a1;stroke:#93a1a1;stroke-linejoin:miter;" x="82.768956" xlink:href="#mc478d8c067" y="20.908432"/>
     <use style="fill:#93a1a1;stroke:#93a1a1;stroke-linejoin:miter;" x="143.794246" xlink:href="#mc478d8c067" y="24.104738"/>
     <use style="fill:#93a1a1;stroke:#93a1a1;stroke-linejoin:miter;" x="204.819537" xlink:href="#mc478d8c067" y="57.171545"/>
     <use style="fill:#93a1a1;stroke:#93a1a1;stroke-linejoin:miter;" x="265.844827" xlink:href="#mc478d8c067" y="129.057547"/>
     <use style="fill:#93a1a1;stroke:#93a1a1;stroke-linejoin:miter;" x="326.870118" xlink:href="#mc478d8c067" y="184.414761"/>
    </g>
   </g>
   <g id="line2d_39">
    <path clip-path="url(#p297b1bc1fd)" d="M 67.512633 19.982224 
L 72.08953 20.285464 
L 87.345852 21.207576 
L 95.73683 21.864546 
L 98.788094 22.299072 
L 101.076543 22.66755 
L 107.179072 23.332174 
L 110.993152 23.642338 
L 118.621314 23.854573 
L 133.11482 24.025768 
L 147.608327 24.217913 
L 152.185223 24.502038 
L 154.473672 24.855902 
L 158.287753 25.825618 
L 162.864649 27.210815 
L 166.67873 28.146282 
L 172.781259 29.168434 
L 181.935053 30.66883 
L 184.223501 31.213155 
L 185.749133 31.830924 
L 187.274766 32.915072 
L 188.800398 34.158166 
L 190.32603 35.627237 
L 191.851662 37.569382 
L 195.665743 43.545224 
L 197.191375 45.670822 
L 198.717007 48.790008 
L 200.24264 52.184299 
L 201.005456 53.427752 
L 202.531088 55.015092 
L 204.05672 56.488867 
L 207.107985 59.070577 
L 208.633617 60.158851 
L 210.159249 61.249121 
L 211.684882 62.573882 
L 213.210514 64.450459 
L 216.261779 68.285174 
L 217.787411 69.796103 
L 220.075859 72.582716 
L 223.88994 77.718459 
L 225.415572 79.510834 
L 227.70402 82.429001 
L 231.518101 86.177788 
L 234.569366 88.57488 
L 235.332182 89.243082 
L 236.857814 91.060896 
L 238.383446 93.184349 
L 239.146262 94.60556 
L 240.671895 97.902843 
L 241.434711 99.203811 
L 242.960343 101.370392 
L 245.248792 104.931591 
L 246.774424 106.644892 
L 247.53724 107.547547 
L 249.825688 109.629154 
L 251.351321 111.649454 
L 252.876953 113.027002 
L 253.639769 113.664307 
L 254.402585 114.446637 
L 255.928217 115.59982 
L 258.979482 118.872429 
L 262.030746 123.130722 
L 264.319195 126.134222 
L 265.082011 127.347667 
L 266.607643 130.769504 
L 269.658908 135.207703 
L 271.947356 137.722174 
L 272.710172 138.780706 
L 274.998621 142.920694 
L 275.761437 144.575725 
L 276.524253 145.866373 
L 277.287069 147.529778 
L 279.575517 153.637755 
L 281.10115 156.394867 
L 281.863966 157.682883 
L 283.389598 160.622377 
L 284.152414 161.834582 
L 285.678046 165.268559 
L 289.492127 170.497151 
L 290.254943 171.365005 
L 291.780576 173.638353 
L 292.543392 174.545589 
L 294.83184 177.782669 
L 296.357472 179.477172 
L 297.883105 181.566517 
L 300.171553 183.763241 
L 301.697185 184.555241 
L 302.460001 184.84734 
L 304.74845 185.184627 
L 307.799714 185.286081 
L 326.107301 185.297245 
L 371.876269 185.211542 
L 371.876269 185.211542 
" style="fill:none;stroke:#93a1a1;stroke-linecap:square;stroke-width:1.5;"/>
    <defs>
     <path d="M -0 3 
L 3 -3 
L -3 -3 
z
" id="m281cf5085c" style="stroke:#93a1a1;stroke-linejoin:miter;"/>
    </defs>
    <g clip-path="url(#p297b1bc1fd)">
     <use style="fill:#93a1a1;stroke:#93a1a1;stroke-linejoin:miter;" x="98.025278" xlink:href="#m281cf5085c" y="22.166558"/>
     <use style="fill:#93a1a1;stroke:#93a1a1;stroke-linejoin:miter;" x="159.050569" xlink:href="#m281cf5085c" y="26.073898"/>
     <use style="fill:#93a1a1;stroke:#93a1a1;stroke-linejoin:miter;" x="220.075859" xlink:href="#m281cf5085c" y="72.582716"/>
     <use style="fill:#93a1a1;stroke:#93a1a1;stroke-linejoin:miter;" x="281.10115" xlink:href="#m281cf5085c" y="156.394867"/>
     <use style="fill:#93a1a1;stroke:#93a1a1;stroke-linejoin:miter;" x="342.12644" xlink:href="#m281cf5085c" y="185.272766"/>
    </g>
   </g>
   <g id="line2d_40">
    <path clip-path="url(#p297b1bc1fd)" d="M 67.512633 19.982224 
L 72.08953 20.285464 
L 87.345852 21.207576 
L 95.73683 21.864546 
L 98.788094 22.299072 
L 101.076543 22.66755 
L 107.179072 23.332174 
L 110.993152 23.642338 
L 118.621314 23.854573 
L 133.11482 24.025768 
L 147.608327 24.217914 
L 152.185223 24.506587 
L 154.473672 24.864151 
L 158.287753 25.825601 
L 162.101833 26.969812 
L 166.67873 28.146226 
L 172.018443 29.019828 
L 182.697869 30.802127 
L 184.986317 31.439624 
L 185.749133 31.719784 
L 187.274766 32.691754 
L 188.800398 34.120644 
L 191.088846 36.55793 
L 191.851662 37.566772 
L 194.140111 41.117988 
L 195.665743 43.276465 
L 197.191375 45.635769 
L 201.005456 53.095833 
L 202.531088 54.939324 
L 204.05672 56.472528 
L 206.345169 58.286538 
L 209.396433 60.486876 
L 210.159249 60.956673 
L 211.684882 62.26781 
L 213.210514 63.950583 
L 217.024595 68.91282 
L 220.838675 73.270618 
L 223.88994 77.302635 
L 226.178388 80.362871 
L 227.70402 82.063893 
L 229.992469 84.704801 
L 230.755285 85.439604 
L 233.80655 87.782205 
L 236.857814 90.670701 
L 237.62063 91.647397 
L 239.146262 94.076229 
L 239.909079 95.532003 
L 241.434711 98.776218 
L 243.723159 101.95236 
L 245.248792 104.233352 
L 248.300056 108.023106 
L 250.588504 110.239432 
L 252.114137 112.110279 
L 256.691033 115.983956 
L 258.979482 118.269474 
L 262.793563 123.639326 
L 263.556379 124.440254 
L 264.319195 125.434671 
L 265.844827 128.097732 
L 267.370459 131.099161 
L 269.658908 134.700605 
L 272.710172 138.19384 
L 273.472988 139.324153 
L 278.049885 147.873666 
L 278.812701 149.429446 
L 279.575517 150.664523 
L 280.338334 151.36213 
L 281.10115 151.771092 
L 282.626782 152.229185 
L 284.91523 152.504226 
L 287.966495 152.559829 
L 300.934369 152.472963 
L 302.460001 152.355733 
L 303.222817 152.20025 
L 304.74845 151.598953 
L 305.511266 150.857905 
L 306.274082 149.504873 
L 307.799714 146.112192 
L 310.088163 140.07208 
L 311.613795 134.614333 
L 313.902243 128.114238 
L 315.427876 124.459969 
L 316.190692 122.914194 
L 317.716324 121.144304 
L 318.47914 120.631987 
L 320.004772 120.086276 
L 322.293221 119.637574 
L 324.581669 119.111592 
L 326.107301 118.352223 
L 327.632934 116.571131 
L 328.39575 115.240973 
L 329.921382 111.840309 
L 331.447014 106.979737 
L 332.20983 104.11361 
L 332.972647 100.773519 
L 333.735463 94.966469 
L 334.498279 87.97131 
L 335.261095 97.120299 
L 336.023911 100.887555 
L 337.549543 106.236067 
L 339.075176 110.916254 
L 339.837992 113.109276 
L 341.363624 116.225554 
L 342.12644 117.532624 
L 343.652072 119.137228 
L 344.414889 119.65233 
L 345.940521 120.303205 
L 348.228969 120.678324 
L 359.671211 121.691395 
L 361.196843 122.058448 
L 365.77374 123.847967 
L 371.876269 125.212479 
L 371.876269 125.212479 
" style="fill:none;stroke:#93a1a1;stroke-linecap:square;stroke-width:1.5;"/>
    <defs>
     <path d="M -3 3 
L 3 3 
L 3 -3 
L -3 -3 
z
" id="m03636cf80f" style="stroke:#93a1a1;stroke-linejoin:miter;"/>
    </defs>
    <g clip-path="url(#p297b1bc1fd)">
     <use style="fill:#93a1a1;stroke:#93a1a1;stroke-linejoin:miter;" x="113.281601" xlink:href="#m03636cf80f" y="23.724471"/>
     <use style="fill:#93a1a1;stroke:#93a1a1;stroke-linejoin:miter;" x="174.306891" xlink:href="#m03636cf80f" y="29.375669"/>
     <use style="fill:#93a1a1;stroke:#93a1a1;stroke-linejoin:miter;" x="235.332182" xlink:href="#m03636cf80f" y="89.099805"/>
     <use style="fill:#93a1a1;stroke:#93a1a1;stroke-linejoin:miter;" x="296.357472" xlink:href="#m03636cf80f" y="152.542456"/>
     <use style="fill:#93a1a1;stroke:#93a1a1;stroke-linejoin:miter;" x="357.382763" xlink:href="#m03636cf80f" y="121.395004"/>
    </g>
   </g>
   <g id="line2d_41">
    <path clip-path="url(#p297b1bc1fd)" d="M 67.512633 19.982224 
L 72.08953 20.285464 
L 87.345852 21.207576 
L 95.73683 21.864546 
L 98.788094 22.299072 
L 101.076543 22.66755 
L 107.179072 23.332174 
L 110.993152 23.642338 
L 118.621314 23.854573 
L 133.11482 24.025768 
L 147.608327 24.217435 
L 152.185223 24.479138 
L 154.473672 24.852922 
L 158.287753 25.819285 
L 165.915914 27.999296 
L 170.492811 28.774913 
L 174.306891 29.374215 
L 184.223501 31.137867 
L 185.749133 31.699132 
L 187.274766 32.688369 
L 188.800398 34.119898 
L 191.088846 36.502549 
L 192.614478 38.388031 
L 197.954191 46.593821 
L 198.717007 48.033436 
L 200.24264 51.46697 
L 201.005456 52.923722 
L 201.768272 53.878401 
L 204.819537 56.883997 
L 206.345169 58.185034 
L 207.870801 59.307798 
L 209.396433 60.429819 
L 210.922066 61.516862 
L 211.684882 62.054557 
L 212.447698 62.78353 
L 214.736146 65.733119 
L 217.024595 68.567115 
L 220.075859 71.873702 
L 220.838675 72.788216 
L 223.127124 76.215574 
L 224.652756 78.083088 
L 226.941204 81.047938 
L 228.466837 82.934708 
L 230.755285 85.271828 
L 232.280917 86.551658 
L 234.569366 88.270204 
L 236.857814 90.45201 
L 237.62063 91.266018 
L 238.383446 92.327168 
L 239.909079 95.102736 
L 241.434711 98.064223 
L 242.197527 99.586563 
L 246.774424 105.740716 
L 248.300056 107.567454 
L 251.351321 110.571005 
L 253.639769 112.995685 
L 254.402585 113.606109 
L 255.165401 114.368882 
L 256.691033 115.586064 
L 258.979482 117.777562 
L 262.030746 121.931376 
L 263.556379 124.206809 
L 265.082011 126.420628 
L 265.844827 127.602498 
L 267.370459 130.868706 
L 268.133275 132.124682 
L 269.658908 134.152513 
L 270.421724 135.142158 
L 271.947356 136.674112 
L 273.472988 138.681957 
L 274.235804 139.796735 
L 274.998621 141.183698 
L 277.287069 145.983347 
L 278.049885 147.515965 
L 279.575517 151.216294 
L 281.10115 154.021103 
L 281.863966 155.063776 
L 282.626782 155.842374 
L 284.152414 156.944184 
L 285.678046 157.59427 
L 287.203679 157.829549 
L 290.254943 157.951969 
L 300.171553 157.987787 
L 336.786727 157.884968 
L 339.075176 157.722998 
L 339.837992 157.500798 
L 340.600808 159.424539 
L 341.363624 158.215493 
L 342.12644 156.517999 
L 342.889256 158.47291 
L 343.652072 150.439554 
L 344.414889 159.002616 
L 345.177705 153.246659 
L 345.940521 159.462354 
L 346.703337 153.353324 
L 347.466153 159.86072 
L 348.228969 152.911673 
L 348.991785 160.026712 
L 349.754601 152.215555 
L 350.517418 159.631956 
L 351.280234 151.352421 
L 352.04305 158.492716 
L 352.805866 150.363323 
L 353.568682 156.833084 
L 354.331498 149.274596 
L 355.094314 154.984885 
L 355.857131 148.106098 
L 356.619947 153.130661 
L 357.382763 146.877151 
L 358.145579 151.336032 
L 358.908395 145.578456 
L 359.671211 149.568921 
L 360.434027 143.847125 
L 361.196843 146.691055 
L 361.95966 139.118313 
L 362.722476 136.732392 
L 363.485292 141.609756 
L 364.248108 139.135845 
L 365.010924 142.1643 
L 365.77374 139.631293 
L 366.536556 142.272749 
L 367.299373 140.271886 
L 368.062189 142.546561 
L 368.825005 140.366118 
L 369.587821 142.629748 
L 370.350637 140.546994 
L 371.113453 142.67511 
L 371.876269 140.613653 
L 371.876269 140.613653 
" style="fill:none;stroke:#6c71c4;stroke-linecap:square;stroke-width:1.5;"/>
   </g>
   <g id="line2d_42">
    <path clip-path="url(#p297b1bc1fd)" d="M 67.512633 19.982224 
L 72.08953 20.285464 
L 87.345852 21.207576 
L 95.73683 21.864546 
L 98.788094 22.299072 
L 101.076543 22.66755 
L 107.179072 23.332174 
L 110.993152 23.642338 
L 118.621314 23.854573 
L 133.11482 24.025768 
L 147.608327 24.217912 
L 152.185223 24.500862 
L 154.473672 24.855327 
L 158.287753 25.825618 
L 162.864649 27.21372 
L 166.67873 28.146297 
L 172.781259 29.158889 
L 177.358156 29.904421 
L 182.697869 30.809593 
L 184.986317 31.489462 
L 185.749133 31.821482 
L 187.274766 32.823577 
L 188.037582 33.400875 
L 190.32603 35.62513 
L 191.851662 37.569287 
L 195.665743 43.556461 
L 197.191375 45.675926 
L 198.717007 48.787762 
L 200.24264 52.104131 
L 201.005456 53.274424 
L 203.293904 55.77209 
L 205.582353 57.851244 
L 208.633617 60.122302 
L 210.922066 61.65019 
L 212.447698 63.088983 
L 216.261779 68.13224 
L 218.550227 70.651146 
L 220.838675 73.362078 
L 222.364308 75.52796 
L 223.127124 76.709162 
L 225.415572 79.473696 
L 226.178388 80.471207 
L 227.70402 82.096867 
L 229.992469 84.629264 
L 231.518101 85.967881 
L 233.80655 87.790128 
L 237.62063 91.69375 
L 238.383446 92.90601 
L 240.671895 97.533526 
L 241.434711 98.998363 
L 245.248792 104.533423 
L 246.774424 106.511436 
L 250.588504 110.606715 
L 251.351321 111.647461 
L 252.876953 113.027499 
L 255.928217 115.585549 
L 258.979482 118.878216 
L 262.030746 123.138873 
L 263.556379 125.128485 
L 265.082011 127.376037 
L 266.607643 130.703867 
L 269.658908 134.878851 
L 271.18454 136.547893 
L 273.472988 139.502103 
L 274.998621 142.814852 
L 275.761437 144.580869 
L 276.524253 145.949824 
L 277.287069 147.586052 
L 278.812701 151.715579 
L 279.575517 153.753708 
L 280.338334 155.425957 
L 281.10115 156.731808 
L 281.863966 157.781608 
L 284.91523 163.52817 
L 285.678046 165.279411 
L 289.492127 170.58762 
L 290.254943 171.405541 
L 292.543392 174.799399 
L 297.883105 181.366923 
L 300.171553 183.526826 
L 301.697185 184.243752 
L 302.460001 184.510073 
L 304.74845 184.800288 
L 307.799714 184.887847 
L 327.632934 184.893493 
L 345.940521 184.761186 
L 348.991785 184.608623 
L 353.568682 184.301806 
L 365.010924 184.257245 
L 371.876269 184.25047 
L 371.876269 184.25047 
" style="fill:none;stroke:#859900;stroke-dasharray:1.5,2.475;stroke-dashoffset:0;stroke-width:1.5;"/>
   </g>
   <g id="line2d_43">
    <path clip-path="url(#p297b1bc1fd)" d="M 67.512633 19.982224 
L 72.08953 20.285464 
L 87.345852 21.207576 
L 95.73683 21.864546 
L 98.788094 22.299072 
L 101.076543 22.66755 
L 107.179072 23.332174 
L 110.993152 23.642338 
L 118.621314 23.854573 
L 133.11482 24.025768 
L 147.608327 24.217914 
L 152.185223 24.506305 
L 154.473672 24.862776 
L 158.287753 25.82497 
L 161.339017 26.720814 
L 166.67873 28.146214 
L 172.781259 29.167669 
L 181.935053 30.65014 
L 184.223501 31.208064 
L 185.749133 31.783171 
L 187.274766 32.716854 
L 188.800398 34.121648 
L 191.088846 36.558752 
L 191.851662 37.569228 
L 195.665743 43.524353 
L 197.191375 45.665255 
L 198.717007 48.788482 
L 200.24264 52.153026 
L 201.005456 53.354317 
L 203.293904 55.775286 
L 205.582353 57.846307 
L 209.396433 60.605861 
L 210.922066 61.634047 
L 212.447698 63.088027 
L 217.024595 68.915641 
L 220.838675 73.353894 
L 226.178388 80.379991 
L 227.70402 82.068328 
L 229.992469 84.673072 
L 231.518101 85.980834 
L 233.80655 87.788885 
L 237.62063 91.661165 
L 238.383446 92.899106 
L 240.671895 97.464301 
L 241.434711 98.983977 
L 245.248792 104.731488 
L 247.53724 107.542159 
L 249.825688 109.620669 
L 251.351321 111.512689 
L 254.402585 114.426413 
L 255.928217 115.590669 
L 258.979482 118.841265 
L 260.505114 120.962677 
L 264.319195 126.047379 
L 265.082011 127.245009 
L 267.370459 131.60659 
L 268.133275 132.818152 
L 270.421724 135.656071 
L 272.710172 138.345284 
L 273.472988 139.399947 
L 277.287069 147.456687 
L 279.575517 153.592023 
L 281.10115 156.349279 
L 283.389598 160.025287 
L 285.678046 165.072511 
L 294.83184 177.51124 
L 296.357472 179.450206 
L 297.883105 181.669393 
L 299.408737 183.152834 
L 300.171553 183.737917 
L 302.460001 184.777686 
L 303.985634 185.015852 
L 307.036898 185.162034 
L 317.716324 185.181714 
L 371.876269 185.131858 
L 371.876269 185.131858 
" style="fill:none;stroke:#073642;stroke-dasharray:1.5,2.475;stroke-dashoffset:0;stroke-width:1.5;"/>
   </g>
   <g id="line2d_44">
    <path clip-path="url(#p297b1bc1fd)" d="M 67.512633 19.982224 
L 72.08953 20.285464 
L 87.345852 21.207576 
L 95.73683 21.864546 
L 98.788094 22.299072 
L 101.076543 22.66755 
L 107.179072 23.332174 
L 110.993152 23.642338 
L 118.621314 23.854573 
L 133.11482 24.025768 
L 147.608327 24.217311 
L 152.185223 24.479077 
L 154.473672 24.852909 
L 159.050569 26.035456 
L 162.101833 26.924903 
L 166.67873 28.146171 
L 170.492811 28.761791 
L 173.544075 29.2472 
L 183.460685 30.935627 
L 184.986317 31.399049 
L 185.749133 31.699038 
L 187.274766 32.688306 
L 188.800398 34.118993 
L 191.088846 36.448801 
L 192.614478 38.324818 
L 198.717007 48.07738 
L 200.24264 51.340383 
L 201.005456 52.662302 
L 202.531088 54.586462 
L 204.05672 56.193684 
L 206.345169 58.131291 
L 207.870801 59.291723 
L 208.633617 59.933384 
L 210.922066 61.526137 
L 211.684882 62.068104 
L 212.447698 62.791409 
L 214.736146 65.804517 
L 217.024595 68.567072 
L 220.075859 71.870234 
L 220.838675 72.784506 
L 223.127124 76.109645 
L 227.70402 81.905663 
L 229.992469 84.340155 
L 230.755285 85.246145 
L 232.280917 86.536268 
L 233.80655 87.59387 
L 236.094998 89.729414 
L 237.62063 91.360777 
L 238.383446 92.366929 
L 239.146262 93.602888 
L 242.960343 100.655921 
L 244.485975 102.70204 
L 245.248792 103.965763 
L 246.011608 105.004662 
L 247.53724 106.676614 
L 249.062872 108.389026 
L 250.588504 109.700738 
L 252.114137 111.542143 
L 253.639769 113.015326 
L 254.402585 113.619054 
L 255.165401 114.377864 
L 256.691033 115.553909 
L 258.979482 117.787648 
L 260.505114 119.899366 
L 265.844827 127.604496 
L 267.370459 130.859606 
L 268.896092 133.329168 
L 271.18454 136.119971 
L 272.710172 137.691896 
L 274.235804 139.754399 
L 274.998621 141.147029 
L 279.575517 151.301801 
L 280.338334 152.782813 
L 281.863966 154.720924 
L 283.389598 155.935714 
L 284.91523 156.641912 
L 286.440863 157.011867 
L 289.492127 157.143743 
L 300.171553 157.173995 
L 316.953508 157.073339 
L 326.107301 156.511567 
L 332.20983 156.405483 
L 333.735463 156.175461 
L 334.498279 155.895392 
L 335.261095 155.154437 
L 336.023911 152.353963 
L 336.786727 163.658389 
L 337.549543 159.913154 
L 338.31236 159.041225 
L 339.075176 158.581715 
L 339.837992 158.343209 
L 342.12644 158.121379 
L 352.04305 157.611302 
L 355.094314 157.285357 
L 359.671211 156.57723 
L 362.722476 156.180603 
L 363.485292 155.953508 
L 364.248108 155.544105 
L 365.010924 154.219642 
L 365.77374 156.192352 
L 366.536556 158.972848 
L 367.299373 157.315075 
L 368.062189 156.525353 
L 368.825005 155.393524 
L 369.587821 149.313557 
L 370.350637 159.253952 
L 371.113453 157.732956 
L 371.876269 157.139983 
L 371.876269 157.139983 
" style="fill:none;stroke:#2aa198;stroke-linecap:square;stroke-width:1.5;"/>
   </g>
   <g id="line2d_45">
    <path clip-path="url(#p297b1bc1fd)" d="M 67.512633 19.982224 
L 72.08953 20.285464 
L 87.345852 21.207576 
L 95.73683 21.864546 
L 98.788094 22.299072 
L 101.076543 22.66755 
L 107.179072 23.332174 
L 110.993152 23.642338 
L 118.621314 23.854573 
L 133.11482 24.025768 
L 147.608327 24.217867 
L 152.185223 24.481602 
L 154.473672 24.853013 
L 158.287753 25.824379 
L 162.101833 26.930079 
L 166.67873 28.146213 
L 172.018443 29.020098 
L 182.697869 30.799959 
L 184.986317 31.41624 
L 185.749133 31.705776 
L 187.274766 32.689355 
L 188.800398 34.120563 
L 191.088846 36.558708 
L 191.851662 37.569161 
L 195.665743 43.482645 
L 197.191375 45.657792 
L 198.717007 48.78058 
L 200.24264 52.009574 
L 201.005456 53.184997 
L 202.531088 54.943575 
L 204.05672 56.476056 
L 206.345169 58.287939 
L 211.684882 62.294757 
L 212.447698 63.087014 
L 217.024595 68.915538 
L 220.838675 73.288067 
L 226.941204 81.209523 
L 230.755285 85.502369 
L 233.80655 87.790645 
L 237.62063 91.666042 
L 238.383446 92.900274 
L 240.671895 97.470751 
L 241.434711 98.980372 
L 242.960343 101.272826 
L 244.485975 103.255882 
L 246.011608 105.55143 
L 247.53724 107.320338 
L 249.825688 109.612368 
L 251.351321 111.410121 
L 252.876953 112.945634 
L 254.402585 114.12547 
L 257.45385 117.033186 
L 258.216666 117.780975 
L 261.26793 121.793024 
L 262.030746 123.052007 
L 265.082011 127.174327 
L 266.607643 130.258022 
L 268.133275 132.911915 
L 269.658908 135.01451 
L 271.18454 136.564704 
L 273.472988 139.597621 
L 274.235804 141.067209 
L 276.524253 146.125178 
L 278.049885 149.576753 
L 279.575517 153.380846 
L 284.152414 161.749507 
L 285.678046 165.325974 
L 287.203679 167.443177 
L 288.729311 169.54556 
L 290.254943 171.344122 
L 291.780576 173.593104 
L 293.306208 175.498295 
L 294.069024 176.453855 
L 297.120288 179.547368 
L 297.883105 180.444934 
L 299.408737 181.621749 
L 300.171553 181.990794 
L 301.697185 182.372413 
L 303.222817 182.573559 
L 307.799714 182.684256 
L 351.280234 182.689072 
L 371.876269 182.7015 
L 371.876269 182.7015 
" style="fill:none;stroke:#073642;stroke-linecap:square;stroke-width:1.5;"/>
   </g>
   <g id="patch_3">
    <path d="M 52.294451 232.46 
L 52.294451 10.7 
" style="fill:none;stroke:#000000;stroke-linecap:square;stroke-linejoin:miter;stroke-width:0.8;"/>
   </g>
   <g id="patch_4">
    <path d="M 387.094451 232.46 
L 387.094451 10.7 
" style="fill:none;stroke:#000000;stroke-linecap:square;stroke-linejoin:miter;stroke-width:0.8;"/>
   </g>
   <g id="patch_5">
    <path d="M 52.294451 232.46 
L 387.094451 232.46 
" style="fill:none;stroke:#000000;stroke-linecap:square;stroke-linejoin:miter;stroke-width:0.8;"/>
   </g>
   <g id="patch_6">
    <path d="M 52.294451 10.7 
L 387.094451 10.7 
" style="fill:none;stroke:#000000;stroke-linecap:square;stroke-linejoin:miter;stroke-width:0.8;"/>
   </g>
   <g id="legend_1">
    <g id="patch_7">
     <path d="M 394.094451 144.134605 
L 498.591371 144.134605 
Q 500.591371 144.134605 500.591371 142.134605 
L 500.591371 17.7 
Q 500.591371 15.7 498.591371 15.7 
L 394.094451 15.7 
Q 392.094451 15.7 392.094451 17.7 
L 392.094451 142.134605 
Q 392.094451 144.134605 394.094451 144.134605 
z
" style="fill:#ffffff;opacity:0.8;stroke:#cccccc;stroke-linejoin:miter;"/>
    </g>
    <g id="line2d_46">
     <path d="M 396.094451 23.2 
L 416.094451 23.2 
" style="fill:none;stroke:#073642;stroke-linecap:square;stroke-width:1.5;"/>
    </g>
    <g id="line2d_47"/>
    <g id="text_21">
     <!-- \textsc{pipe-PR-CG} -->
     <defs>
      <path d="M 32.296875 23 
C 42.296875 23 50.703125 29.296875 50.703125 36.890625 
C 50.703125 44.09375 43.09375 51 31.59375 51 
L 4.5 51 
L 4.5 48.484375 
C 11.203125 48.484375 11.703125 47.890625 11.703125 43.796875 
L 11.703125 7.109375 
C 11.703125 3.078125 11.203125 2.5 4.5 2.5 
L 4.5 0 
C 7.40625 0.09375 13.09375 0.296875 15.296875 0.296875 
C 17.5 0.296875 23.09375 0.09375 26.09375 0 
L 26.09375 2.5 
C 19.40625 2.5 18.90625 3.078125 18.90625 7.109375 
L 18.90625 23 
z
M 18.59375 44.1875 
C 18.59375 48.1875 19.09375 48.484375 22.59375 48.484375 
L 29.5 48.484375 
C 42.09375 48.484375 42.09375 40.890625 42.09375 36.890625 
C 42.09375 33 42.09375 25.296875 29.5 25.296875 
L 18.59375 25.296875 
z
" id="CMCSC10-112"/>
      <path d="M 18.703125 43.734375 
C 18.703125 48 19.203125 48.484375 26.296875 48.484375 
L 26.296875 51 
C 22.90625 50.890625 17.703125 50.6875 15.09375 50.6875 
C 12.5 50.6875 7.296875 50.890625 3.90625 51 
L 3.90625 48.484375 
C 11 48.484375 11.5 48 11.5 43.734375 
L 11.5 7.25 
C 11.5 2.984375 11 2.5 3.90625 2.5 
L 3.90625 0 
C 7.296875 0.09375 12.5 0.296875 15.09375 0.296875 
C 17.703125 0.296875 22.90625 0.09375 26.296875 0 
L 26.296875 2.5 
C 19.203125 2.5 18.703125 2.984375 18.703125 7.25 
z
" id="CMCSC10-105"/>
      <path d="M 48.796875 50.6875 
L 4.296875 50.6875 
L 4.296875 48.1875 
C 11 48.1875 11.5 47.59375 11.5 43.515625 
L 11.5 7.125 
C 11.5 3.078125 11 2.5 4.296875 2.5 
L 4.296875 0 
L 50 0 
L 52.90625 19.171875 
L 50.40625 19.171875 
C 48.703125 7.234375 46.296875 2.5 33.5 2.5 
L 22.703125 2.5 
C 19.203125 2.5 18.703125 2.78125 18.703125 6.734375 
L 18.703125 25 
L 25.703125 25 
C 33.09375 25 34.296875 23.015625 34.296875 16.40625 
L 36.796875 16.40625 
L 36.796875 36.15625 
L 34.296875 36.15625 
C 34.296875 29.484375 33.09375 27.5 25.703125 27.5 
L 18.703125 27.5 
L 18.703125 43.90625 
C 18.703125 47.890625 19.203125 48.1875 22.703125 48.1875 
L 32.90625 48.1875 
C 44.5 48.1875 47.09375 44.703125 48.203125 33.859375 
L 50.703125 33.859375 
z
" id="CMCSC10-101"/>
      <path d="M 30.5 19 
L 30.5 24.796875 
L 2.59375 24.796875 
L 2.59375 19 
z
" id="CMCSC10-45"/>
      <path d="M 43 31.390625 
C 55.203125 31.390625 66.90625 39.171875 66.90625 49.4375 
C 66.90625 59.3125 56.296875 68 42.203125 68 
L 5.703125 68 
L 5.703125 64.890625 
L 8.09375 64.890625 
C 15.796875 64.890625 16 63.796875 16 60.203125 
L 16 7.765625 
C 16 4.1875 15.796875 3.09375 8.09375 3.09375 
L 5.703125 3.09375 
L 5.703125 0 
C 9.203125 0.296875 16.59375 0.296875 20.40625 0.296875 
C 24.203125 0.296875 31.703125 0.296875 35.203125 0 
L 35.203125 3.09375 
L 32.796875 3.09375 
C 25.09375 3.09375 24.90625 4.1875 24.90625 7.765625 
L 24.90625 31.390625 
z
M 24.59375 60.90625 
C 24.59375 64.1875 24.796875 64.890625 29.5 64.890625 
L 39.59375 64.890625 
C 56.59375 64.890625 56.59375 53.921875 56.59375 49.4375 
C 56.59375 45.15625 56.59375 34 39.59375 34 
L 24.59375 34 
z
" id="CMCSC10-80"/>
      <path d="M 24.59375 35.1875 
L 24.59375 60.921875 
C 24.59375 63.609375 24.796875 64.5 27.203125 64.796875 
C 28.09375 64.890625 31.203125 64.890625 33.203125 64.890625 
C 41.90625 64.890625 55.09375 64.890625 55.09375 50.09375 
C 55.09375 39.46875 48 35.1875 36.703125 35.1875 
z
M 47 33.890625 
C 59 36.78125 65.40625 43.34375 65.40625 50.09375 
C 65.40625 59.734375 53.203125 68 38.09375 68 
L 5.703125 68 
L 5.703125 64.890625 
L 8.09375 64.890625 
C 15.796875 64.890625 16 63.796875 16 60.21875 
L 16 7.921875 
C 16 4.359375 15.796875 3.265625 8.09375 3.265625 
L 5.703125 3.265625 
L 5.703125 0.1875 
C 9.296875 0.484375 16.40625 0.484375 20.296875 0.484375 
C 24.203125 0.484375 31.296875 0.484375 34.90625 0.1875 
L 34.90625 3.265625 
L 32.5 3.265625 
C 24.796875 3.265625 24.59375 4.359375 24.59375 7.921875 
L 24.59375 33 
L 37.09375 33 
C 42.5 33 45.703125 31.015625 47.40625 29.421875 
C 51.203125 25.75 51.203125 23.28125 51.203125 16.34375 
C 51.203125 9.5 51.203125 5.9375 55.5 2.078125 
C 59.203125 -1.109375 64.796875 -2 68.296875 -2 
C 76.296875 -2 78.203125 6.140625 78.203125 8.90625 
C 78.203125 9.5 78.203125 10.59375 76.90625 10.59375 
C 75.796875 10.59375 75.796875 9.703125 75.703125 9.015625 
C 74.90625 1.28125 70.796875 0.1875 68.703125 0.1875 
C 63.40625 0.1875 62.703125 4.65625 60.90625 16.140625 
C 59.796875 23.078125 59.40625 25.5625 56.203125 28.734375 
C 54.09375 30.90625 50.90625 32.796875 47 33.890625 
z
" id="CMCSC10-82"/>
      <path d="M 63.40625 62.0625 
C 60.09375 65.484375 54 71 43.703125 71 
C 24 71 7.203125 54.9375 7.203125 34.546875 
C 7.203125 14.046875 24 -2 43.796875 -2 
C 60.703125 -2 71.296875 11.640625 71.296875 23.59375 
C 71.296875 24.59375 71.296875 25.296875 70 25.296875 
C 68.90625 25.296875 68.90625 24.703125 68.796875 23.6875 
C 68 9.125 56.296875 1.09375 45.09375 1.09375 
C 36.296875 1.09375 17.5 6.3125 17.5 34.4375 
C 17.5 64.078125 38 67.890625 44.90625 67.890625 
C 55.59375 67.890625 65.796875 59.546875 68.09375 44.078125 
C 68.296875 42.671875 68.40625 42.375 69.703125 42.375 
C 71.296875 42.375 71.296875 42.671875 71.296875 44.78125 
L 71.296875 68.59375 
C 71.296875 70.296875 71.296875 71 70.203125 71 
C 69.796875 71 69.40625 71 68.59375 69.796875 
z
" id="CMCSC10-67"/>
      <path d="M 71.203125 68.59375 
C 71.203125 70.296875 71.203125 71 70.09375 71 
C 69.703125 71 69.296875 71 68.5 69.796875 
L 63.296875 62.125 
C 60.203125 65.109375 54.296875 71 43.703125 71 
C 23.796875 71 7.203125 54.859375 7.203125 34.859375 
C 7.203125 14.578125 23.59375 -2 43.90625 -2 
C 51.796875 -2 60.40625 0.59375 63.90625 6.609375 
C 65.203125 4.359375 69.203125 0.296875 70.296875 0.296875 
C 71.203125 0.296875 71.203125 1.09375 71.203125 2.625 
L 71.203125 20.390625 
C 71.203125 24.890625 72.296875 24.890625 78.5 24.890625 
L 78.5 28 
C 73.703125 27.796875 70.09375 27.6875 65.796875 27.6875 
C 61.703125 27.6875 52.796875 27.6875 49.203125 28 
L 49.203125 24.890625 
L 52.703125 24.890625 
C 62.296875 24.890625 62.296875 23.46875 62.296875 19.984375 
L 62.296875 13.453125 
C 62.296875 1.09375 46.796875 1.09375 45.59375 1.09375 
C 36.5 1.09375 17.5 6.40625 17.5 34.859375 
C 17.5 63.015625 36.703125 67.890625 44.90625 67.890625 
C 55.5 67.890625 65.703125 59.734375 68 44.3125 
C 68.203125 42.921875 68.296875 42.625 69.59375 42.625 
C 71.203125 42.625 71.203125 42.921875 71.203125 45 
z
" id="CMCSC10-71"/>
     </defs>
     <g transform="translate(424.094451 26.7)scale(0.1 -0.1)">
      <use transform="scale(0.996264)" xlink:href="#CMCSC10-112"/>
      <use transform="translate(55.569158 0)scale(0.996264)" xlink:href="#CMCSC10-105"/>
      <use transform="translate(85.67837 0)scale(0.996264)" xlink:href="#CMCSC10-112"/>
      <use transform="translate(141.247528 0)scale(0.996264)" xlink:href="#CMCSC10-101"/>
      <use transform="translate(196.816686 0)scale(0.996264)" xlink:href="#CMCSC10-45"/>
      <use transform="translate(234.45297 0)scale(0.996264)" xlink:href="#CMCSC10-80"/>
      <use transform="translate(308.341796 0)scale(0.996264)" xlink:href="#CMCSC10-82"/>
      <use transform="translate(388.042172 0)scale(0.996264)" xlink:href="#CMCSC10-45"/>
      <use transform="translate(425.678456 0)scale(0.996264)" xlink:href="#CMCSC10-67"/>
      <use transform="translate(503.99518 0)scale(0.996264)" xlink:href="#CMCSC10-71"/>
     </g>
    </g>
    <g id="line2d_48">
     <path d="M 396.094451 37.137178 
L 416.094451 37.137178 
" style="fill:none;stroke:#2aa198;stroke-linecap:square;stroke-width:1.5;"/>
    </g>
    <g id="line2d_49"/>
    <g id="text_22">
     <!-- \textsc{pipe-P-CG} -->
     <g transform="translate(424.094451 40.637178)scale(0.1 -0.1)">
      <use transform="scale(0.996264)" xlink:href="#CMCSC10-112"/>
      <use transform="translate(55.569158 0)scale(0.996264)" xlink:href="#CMCSC10-105"/>
      <use transform="translate(85.67837 0)scale(0.996264)" xlink:href="#CMCSC10-112"/>
      <use transform="translate(141.247528 0)scale(0.996264)" xlink:href="#CMCSC10-101"/>
      <use transform="translate(196.816686 0)scale(0.996264)" xlink:href="#CMCSC10-45"/>
      <use transform="translate(234.45297 0)scale(0.996264)" xlink:href="#CMCSC10-80"/>
      <use transform="translate(308.341796 0)scale(0.996264)" xlink:href="#CMCSC10-45"/>
      <use transform="translate(345.97808 0)scale(0.996264)" xlink:href="#CMCSC10-67"/>
      <use transform="translate(424.294805 0)scale(0.996264)" xlink:href="#CMCSC10-71"/>
     </g>
    </g>
    <g id="line2d_50">
     <path d="M 396.094451 51.074357 
L 416.094451 51.074357 
" style="fill:none;stroke:#073642;stroke-dasharray:1.5,2.475;stroke-dashoffset:0;stroke-width:1.5;"/>
    </g>
    <g id="line2d_51"/>
    <g id="text_23">
     <!-- PR-CG -->
     <defs>
      <path d="M 19.796875 32 
L 35.796875 32 
C 48.703125 32 58.09375 40.359375 58.09375 49.796875 
C 58.09375 59.234375 48.90625 68 35.796875 68 
L 5.203125 68 
L 5.203125 65.390625 
C 12.09375 65.390625 13.203125 65.390625 13.203125 60.921875 
L 13.203125 7.078125 
C 13.203125 2.59375 12.09375 2.59375 5.203125 2.59375 
L 5.203125 0 
C 8.09375 0.1875 13.40625 0.1875 16.5 0.1875 
C 19.59375 0.1875 24.90625 0.1875 27.796875 0 
L 27.796875 2.59375 
C 20.90625 2.59375 19.796875 2.59375 19.796875 7.078125 
z
M 19.59375 34.09375 
L 19.59375 61.515625 
C 19.59375 64.890625 19.796875 65.390625 23.796875 65.390625 
L 33.90625 65.390625 
C 46.796875 65.390625 50.5 58.046875 50.5 49.796875 
C 50.5 40.75 46.09375 34.09375 33.90625 34.09375 
z
" id="CMR17-80"/>
      <path d="M 39.203125 33.6875 
C 48.703125 35.59375 56.703125 42.015625 56.703125 50.046875 
C 56.703125 59.46875 46.09375 68 32.09375 68 
L 5.203125 68 
L 5.203125 65.390625 
C 12.09375 65.390625 13.203125 65.390625 13.203125 60.875 
L 13.203125 6.6875 
C 13.203125 2.1875 12.09375 2.1875 5.203125 2.1875 
L 5.203125 -0.40625 
C 8.09375 -0.203125 13.296875 -0.203125 16.40625 -0.203125 
C 19.5 -0.203125 24.703125 -0.203125 27.59375 -0.40625 
L 27.59375 2.1875 
C 20.703125 2.1875 19.59375 2.1875 19.59375 6.6875 
L 19.59375 33 
L 31.296875 33 
C 37 33 40.203125 30.6875 41.59375 29.390625 
C 45.59375 25.5 45.59375 22.796875 45.59375 16 
C 45.59375 9.296875 45.59375 5.890625 48.59375 2.5 
C 52.40625 -1.609375 57.5 -2 59.703125 -2 
C 67.09375 -2 68.203125 6.296875 68.203125 8 
C 68.203125 8.59375 68.203125 9.296875 67.296875 9.296875 
C 66.5 9.296875 66.40625 8.6875 66.40625 8.296875 
C 65.90625 1.796875 63 -0.40625 59.90625 -0.40625 
C 54.40625 -0.40625 53.796875 5.890625 53.203125 12 
C 52.90625 14.09375 52.703125 15.59375 52.5 17.796875 
C 51.90625 22.796875 51.09375 30.09375 39.203125 33.6875 
z
M 31 34.59375 
L 19.59375 34.59375 
L 19.59375 61.484375 
C 19.59375 64.890625 19.796875 65.390625 23.796875 65.390625 
L 31.09375 65.390625 
C 39.40625 65.390625 49.09375 62.484375 49.09375 50.046875 
C 49.09375 37.09375 38.5 34.59375 31 34.59375 
z
" id="CMR17-82"/>
      <path d="M 62.09375 67.984375 
C 62.09375 69.796875 62 69.890625 61.40625 69.890625 
C 61 69.890625 60.90625 69.796875 60.203125 68.59375 
L 55.796875 60.140625 
C 50.90625 66.390625 44.90625 70 37.203125 70 
C 20.09375 70 4.59375 54.796875 4.59375 34.046875 
C 4.59375 13.078125 20.09375 -2 37.296875 -2 
C 52.59375 -2 62.09375 11.578125 62.09375 23.15625 
C 62.09375 24.171875 62.09375 24.578125 61.203125 24.578125 
C 60.40625 24.578125 60.40625 24.265625 60.296875 23.359375 
C 59.5 9.25 49.5 0.59375 38.703125 0.59375 
C 28.5 0.59375 12.203125 7.84375 12.203125 34.046875 
C 12.203125 60.34375 28.796875 67.390625 38.5 67.390625 
C 49.796875 67.390625 58 57.515625 59.90625 43.515625 
C 60.09375 42.296875 60.09375 42.109375 61 42.109375 
C 62.09375 42.109375 62.09375 42.296875 62.09375 44.125 
z
" id="CMR17-67"/>
      <path d="M 62.09375 19.65625 
C 62.09375 23.484375 62.40625 24 68.59375 24 
L 68.59375 26.59375 
C 66.203125 26.390625 60.796875 26.390625 58.09375 26.390625 
C 55.296875 26.390625 47.5 26.5 43.703125 26.59375 
L 43.703125 24 
L 46.703125 24 
C 55.296875 24 55.5 22.875 55.5 19.25 
L 55.5 12.59375 
C 55.5 1.5 42.5 0.59375 39.40625 0.59375 
C 29.09375 0.59375 12.203125 7.75 12.203125 34.046875 
C 12.203125 60.34375 28.796875 67.390625 38.5 67.390625 
C 49.796875 67.390625 58 57.515625 59.90625 43.515625 
C 60.09375 42.3125 60.09375 42.109375 61 42.109375 
C 62.09375 42.109375 62.09375 42.3125 62.09375 44.125 
L 62.09375 67.984375 
C 62.09375 69.796875 62 69.890625 61.40625 69.890625 
C 61 69.890625 60.90625 69.796875 60.203125 68.59375 
L 55.796875 60.140625 
C 50.90625 66.390625 44.90625 70 37.203125 70 
C 20.09375 70 4.59375 54.796875 4.59375 34.046875 
C 4.59375 13.40625 19.796875 -2 37.40625 -2 
C 45.5 -2 53.40625 0.890625 56.5 6.640625 
C 58.203125 2.515625 61 -0.3125 61.5 -0.3125 
C 62 -0.3125 62.09375 -0.203125 62.09375 1.59375 
z
" id="CMR17-71"/>
     </defs>
     <g transform="translate(424.094451 54.574357)scale(0.1 -0.1)">
      <use transform="scale(0.996264)" xlink:href="#CMR17-80"/>
      <use transform="translate(62.586301 0)scale(0.996264)" xlink:href="#CMR17-82"/>
      <use transform="translate(130.377402 0)scale(0.996264)" xlink:href="#CMR17-45"/>
      <use transform="translate(160.453369 0)scale(0.996264)" xlink:href="#CMR17-67"/>
      <use transform="translate(226.963249 0)scale(0.996264)" xlink:href="#CMR17-71"/>
     </g>
    </g>
    <g id="line2d_52">
     <path d="M 396.094451 65.011535 
L 416.094451 65.011535 
" style="fill:none;stroke:#859900;stroke-dasharray:1.5,2.475;stroke-dashoffset:0;stroke-width:1.5;"/>
    </g>
    <g id="line2d_53"/>
    <g id="text_24">
     <!-- \textsc{pipe-PR-M-CG} -->
     <defs>
      <path d="M 74.40625 65.09375 
L 74.5 64.984375 
L 74.5 7.765625 
C 74.5 4.1875 74.296875 3.09375 66.59375 3.09375 
L 64.203125 3.09375 
L 64.203125 0 
C 67.90625 0.296875 74.703125 0.296875 78.59375 0.296875 
C 82.5 0.296875 89.203125 0.296875 92.90625 0 
L 92.90625 3.09375 
L 90.5 3.09375 
C 82.796875 3.09375 82.59375 4.1875 82.59375 7.765625 
L 82.59375 60.21875 
C 82.59375 63.796875 82.796875 64.890625 90.5 64.890625 
L 92.90625 64.890625 
L 92.90625 68 
L 76 68 
C 73.703125 68 73.40625 68 72.59375 66.09375 
L 49.40625 9.46875 
L 26.203125 66.1875 
C 25.5 68 24.90625 68 22.796875 68 
L 5.90625 68 
L 5.90625 64.890625 
L 8.296875 64.890625 
C 16 64.890625 16.203125 63.796875 16.203125 60.21875 
L 16.203125 10.453125 
C 16.203125 7.765625 16.203125 3.09375 5.90625 3.09375 
L 5.90625 0 
C 9.40625 0.09375 14.296875 0.296875 17.59375 0.296875 
C 20.90625 0.296875 25.796875 0.09375 29.296875 0 
L 29.296875 3.09375 
C 19 3.09375 19 7.765625 19 10.453125 
L 19 64.296875 
L 19.09375 64.390625 
L 44.703125 1.796875 
C 45.09375 0.890625 45.59375 0 46.59375 0 
C 47.59375 0 48.09375 0.890625 48.5 1.796875 
z
" id="CMCSC10-77"/>
     </defs>
     <g transform="translate(424.094451 68.511535)scale(0.1 -0.1)">
      <use transform="scale(0.996264)" xlink:href="#CMCSC10-112"/>
      <use transform="translate(55.569158 0)scale(0.996264)" xlink:href="#CMCSC10-105"/>
      <use transform="translate(85.67837 0)scale(0.996264)" xlink:href="#CMCSC10-112"/>
      <use transform="translate(141.247528 0)scale(0.996264)" xlink:href="#CMCSC10-101"/>
      <use transform="translate(196.816686 0)scale(0.996264)" xlink:href="#CMCSC10-45"/>
      <use transform="translate(234.45297 0)scale(0.996264)" xlink:href="#CMCSC10-80"/>
      <use transform="translate(308.341796 0)scale(0.996264)" xlink:href="#CMCSC10-82"/>
      <use transform="translate(388.042172 0)scale(0.996264)" xlink:href="#CMCSC10-45"/>
      <use transform="translate(425.678456 0)scale(0.996264)" xlink:href="#CMCSC10-77"/>
      <use transform="translate(524.19692 0)scale(0.996264)" xlink:href="#CMCSC10-45"/>
      <use transform="translate(561.833204 0)scale(0.996264)" xlink:href="#CMCSC10-67"/>
      <use transform="translate(640.149929 0)scale(0.996264)" xlink:href="#CMCSC10-71"/>
     </g>
    </g>
    <g id="line2d_54">
     <path d="M 396.094451 78.948713 
L 416.094451 78.948713 
" style="fill:none;stroke:#6c71c4;stroke-linecap:square;stroke-width:1.5;"/>
    </g>
    <g id="line2d_55"/>
    <g id="text_25">
     <!-- \textsc{pipe-P-M-CG} -->
     <g transform="translate(424.094451 82.448713)scale(0.1 -0.1)">
      <use transform="scale(0.996264)" xlink:href="#CMCSC10-112"/>
      <use transform="translate(55.569158 0)scale(0.996264)" xlink:href="#CMCSC10-105"/>
      <use transform="translate(85.67837 0)scale(0.996264)" xlink:href="#CMCSC10-112"/>
      <use transform="translate(141.247528 0)scale(0.996264)" xlink:href="#CMCSC10-101"/>
      <use transform="translate(196.816686 0)scale(0.996264)" xlink:href="#CMCSC10-45"/>
      <use transform="translate(234.45297 0)scale(0.996264)" xlink:href="#CMCSC10-80"/>
      <use transform="translate(308.341796 0)scale(0.996264)" xlink:href="#CMCSC10-45"/>
      <use transform="translate(345.97808 0)scale(0.996264)" xlink:href="#CMCSC10-77"/>
      <use transform="translate(444.496544 0)scale(0.996264)" xlink:href="#CMCSC10-45"/>
      <use transform="translate(482.132828 0)scale(0.996264)" xlink:href="#CMCSC10-67"/>
      <use transform="translate(560.449553 0)scale(0.996264)" xlink:href="#CMCSC10-71"/>
     </g>
    </g>
    <g id="line2d_56">
     <path d="M 396.094451 92.885892 
L 416.094451 92.885892 
" style="fill:none;stroke:#93a1a1;stroke-linecap:square;stroke-width:1.5;"/>
    </g>
    <g id="line2d_57">
     <g>
      <use style="fill:#93a1a1;stroke:#93a1a1;stroke-linejoin:miter;" x="406.094451" xlink:href="#m03636cf80f" y="92.885892"/>
     </g>
    </g>
    <g id="text_26">
     <!-- GV-CG -->
     <defs>
      <path d="M 59 58.78125 
C 59.90625 60.984375 61.5 65.296875 68.203125 65.390625 
L 68.203125 68 
C 65.90625 67.796875 63.296875 67.796875 60.796875 67.796875 
C 58.40625 67.796875 54.296875 67.796875 52 68 
L 52 65.390625 
C 57 65.09375 57.203125 61.59375 57.203125 60.984375 
C 57.203125 59.890625 56.90625 59.1875 56.59375 58.390625 
L 36.90625 7 
L 16.296875 60.984375 
C 16 61.6875 15.796875 62.1875 15.796875 62.6875 
C 15.796875 65.390625 19.796875 65.390625 21.90625 65.390625 
L 21.90625 68 
C 18.703125 67.796875 14 67.796875 10.703125 67.796875 
C 8.09375 67.796875 3.40625 67.796875 1 68 
L 1 65.390625 
C 6.796875 65.390625 7.90625 65 9.09375 61.796875 
L 32.90625 -0.40625 
C 33.40625 -1.8125 33.5 -2 34.59375 -2 
C 35.703125 -2 35.796875 -1.8125 36.296875 -0.40625 
z
" id="CMR17-86"/>
     </defs>
     <g transform="translate(424.094451 96.385892)scale(0.1 -0.1)">
      <use transform="scale(0.996264)" xlink:href="#CMR17-71"/>
      <use transform="translate(72.355346 0)scale(0.996264)" xlink:href="#CMR17-86"/>
      <use transform="translate(141.427776 0)scale(0.996264)" xlink:href="#CMR17-45"/>
      <use transform="translate(171.503742 0)scale(0.996264)" xlink:href="#CMR17-67"/>
      <use transform="translate(238.013623 0)scale(0.996264)" xlink:href="#CMR17-71"/>
     </g>
    </g>
    <g id="line2d_58">
     <path d="M 396.094451 106.82307 
L 416.094451 106.82307 
" style="fill:none;stroke:#93a1a1;stroke-linecap:square;stroke-width:1.5;"/>
    </g>
    <g id="line2d_59">
     <g>
      <use style="fill:#93a1a1;stroke:#93a1a1;stroke-linejoin:miter;" x="406.094451" xlink:href="#m281cf5085c" y="106.82307"/>
     </g>
    </g>
    <g id="text_27">
     <!-- M-CG -->
     <defs>
      <path d="M 20.90625 66.390625 
C 20.296875 67.890625 20.203125 68 18.09375 68 
L 5.296875 68 
L 5.296875 65.390625 
C 12.203125 65.390625 13.296875 65.390625 13.296875 60.90625 
L 13.296875 9.75 
C 13.296875 7.265625 13.296875 2.59375 5.296875 2.59375 
L 5.296875 0 
C 7.59375 0.1875 11.796875 0.1875 14.296875 0.1875 
C 16.796875 0.1875 21 0.1875 23.296875 0 
L 23.296875 2.59375 
C 15.296875 2.59375 15.296875 7.265625 15.296875 9.75 
L 15.296875 64.984375 
L 15.40625 64.984375 
L 38.90625 1.59375 
C 39.296875 0.59375 39.5 0 40.296875 0 
C 41.09375 0 41.296875 0.59375 41.703125 1.59375 
L 65.40625 65.484375 
L 65.5 65.484375 
L 65.5 7.078125 
C 65.5 2.59375 64.40625 2.59375 57.5 2.59375 
L 57.5 0 
C 60.203125 0.1875 65.59375 0.1875 68.5 0.1875 
C 71.40625 0.1875 76.90625 0.1875 79.59375 0 
L 79.59375 2.59375 
C 72.703125 2.59375 71.59375 2.59375 71.59375 7.078125 
L 71.59375 60.90625 
C 71.59375 65.390625 72.703125 65.390625 79.59375 65.390625 
L 79.59375 68 
L 66.90625 68 
C 64.796875 68 64.703125 67.890625 64.09375 66.390625 
L 42.5 8.0625 
z
" id="CMR17-77"/>
     </defs>
     <g transform="translate(424.094451 110.32307)scale(0.1 -0.1)">
      <use transform="scale(0.996264)" xlink:href="#CMR17-77"/>
      <use transform="translate(84.686941 0)scale(0.996264)" xlink:href="#CMR17-45"/>
      <use transform="translate(114.762907 0)scale(0.996264)" xlink:href="#CMR17-67"/>
      <use transform="translate(181.272787 0)scale(0.996264)" xlink:href="#CMR17-71"/>
     </g>
    </g>
    <g id="line2d_60">
     <path d="M 396.094451 120.760248 
L 416.094451 120.760248 
" style="fill:none;stroke:#93a1a1;stroke-linecap:square;stroke-width:1.5;"/>
    </g>
    <g id="line2d_61">
     <g>
      <use style="fill:#93a1a1;stroke:#93a1a1;stroke-linejoin:miter;" x="406.094451" xlink:href="#mc478d8c067" y="120.760248"/>
     </g>
    </g>
    <g id="text_28">
     <!-- CG-CG -->
     <g transform="translate(424.094451 124.260248)scale(0.1 -0.1)">
      <use transform="scale(0.996264)" xlink:href="#CMR17-67"/>
      <use transform="translate(66.509881 0)scale(0.996264)" xlink:href="#CMR17-71"/>
      <use transform="translate(138.865226 0)scale(0.996264)" xlink:href="#CMR17-45"/>
      <use transform="translate(168.941193 0)scale(0.996264)" xlink:href="#CMR17-67"/>
      <use transform="translate(235.451073 0)scale(0.996264)" xlink:href="#CMR17-71"/>
     </g>
    </g>
    <g id="line2d_62">
     <path d="M 396.094451 134.697427 
L 416.094451 134.697427 
" style="fill:none;stroke:#93a1a1;stroke-linecap:square;stroke-width:1.5;"/>
    </g>
    <g id="line2d_63">
     <g>
      <use style="fill:#93a1a1;stroke:#93a1a1;" x="406.094451" xlink:href="#mec6f27540c" y="134.697427"/>
     </g>
    </g>
    <g id="text_29">
     <!-- HS-CG -->
     <defs>
      <path d="M 56.09375 60.90625 
C 56.09375 65.390625 57.203125 65.390625 64.09375 65.390625 
L 64.09375 68 
C 61.203125 67.796875 55.90625 67.796875 52.796875 67.796875 
C 49.703125 67.796875 44.40625 67.796875 41.5 68 
L 41.5 65.390625 
C 48.40625 65.390625 49.5 65.390625 49.5 60.90625 
L 49.5 36.59375 
L 19.703125 36.59375 
L 19.703125 60.90625 
C 19.703125 65.390625 20.796875 65.390625 27.703125 65.390625 
L 27.703125 68 
C 24.796875 67.796875 19.5 67.796875 16.40625 67.796875 
C 13.296875 67.796875 8 67.796875 5.09375 68 
L 5.09375 65.390625 
C 12 65.390625 13.09375 65.390625 13.09375 60.90625 
L 13.09375 7.0625 
C 13.09375 2.59375 12 2.59375 5.09375 2.59375 
L 5.09375 0 
C 8 0.1875 13.296875 0.1875 16.40625 0.1875 
C 19.5 0.1875 24.796875 0.1875 27.703125 0 
L 27.703125 2.59375 
C 20.796875 2.59375 19.703125 2.59375 19.703125 7.0625 
L 19.703125 34 
L 49.5 34 
L 49.5 7.0625 
C 49.5 2.59375 48.40625 2.59375 41.5 2.59375 
L 41.5 0 
C 44.40625 0.1875 49.703125 0.1875 52.796875 0.1875 
C 55.90625 0.1875 61.203125 0.1875 64.09375 0 
L 64.09375 2.59375 
C 57.203125 2.59375 56.09375 2.59375 56.09375 7.0625 
z
" id="CMR17-72"/>
      <path d="M 43.796875 67.984375 
C 43.796875 69.796875 43.703125 69.890625 43.09375 69.890625 
C 42.5 69.890625 42.296875 69.484375 41.90625 68.59375 
L 38.90625 61.953125 
C 35.09375 67.5 29.296875 70 23 70 
C 12.796875 70 4.59375 61.84375 4.59375 51.578125 
C 4.59375 48.453125 5.296875 44.015625 8.703125 39.78125 
C 12.40625 35.15625 15.90625 34.34375 23.90625 32.234375 
C 26.90625 31.421875 31.90625 30.109375 32.90625 29.703125 
C 38.59375 27.296875 41.59375 21.25 41.59375 15.609375 
C 41.59375 8.34375 36.5 0.59375 27.796875 0.59375 
C 17.09375 0.59375 7.09375 6.640625 6.40625 20.75 
C 6.296875 22.359375 6.203125 22.453125 5.5 22.453125 
C 4.703125 22.453125 4.59375 22.359375 4.59375 20.34375 
L 4.59375 0 
C 4.59375 -1.8125 4.703125 -1.90625 5.296875 -1.90625 
C 6 -1.90625 6.203125 -1.40625 7.59375 1.703125 
C 7.703125 2 7.703125 2.203125 9.59375 6.03125 
C 14.59375 -0.609375 23 -2 27.796875 -2 
C 38.703125 -2 46.40625 7.140625 46.40625 17.828125 
C 46.40625 23.0625 44.5 27.09375 43.40625 28.90625 
C 39.203125 35.359375 34.703125 36.5625 29.90625 37.765625 
C 29.203125 38.078125 29 38.078125 23.40625 39.484375 
C 18 40.890625 15.703125 41.59375 13.203125 44.3125 
C 10.40625 47.4375 9.40625 50.671875 9.40625 53.890625 
C 9.40625 60.4375 14.59375 67.59375 23.09375 67.59375 
C 33.703125 67.59375 40.296875 60.03125 41.796875 47.4375 
C 42.09375 45.625 42.203125 45.53125 42.90625 45.53125 
C 43.796875 45.53125 43.796875 45.828125 43.796875 47.546875 
z
" id="CMR17-83"/>
     </defs>
     <g transform="translate(424.094451 138.197427)scale(0.1 -0.1)">
      <use transform="scale(0.996264)" xlink:href="#CMR17-72"/>
      <use transform="translate(69.07243 0)scale(0.996264)" xlink:href="#CMR17-83"/>
      <use transform="translate(119.9678 0)scale(0.996264)" xlink:href="#CMR17-45"/>
      <use transform="translate(150.043766 0)scale(0.996264)" xlink:href="#CMR17-67"/>
      <use transform="translate(216.553646 0)scale(0.996264)" xlink:href="#CMR17-71"/>
     </g>
    </g>
   </g>
  </g>
 </g>
 <defs>
  <clipPath id="p297b1bc1fd">
   <rect height="221.76" width="334.8" x="52.294451" y="10.7"/>
  </clipPath>
 </defs>
</svg>
