<?xml version="1.0" encoding="utf-8" standalone="no"?>
<!DOCTYPE svg PUBLIC "-//W3C//DTD SVG 1.1//EN"
  "http://www.w3.org/Graphics/SVG/1.1/DTD/svg11.dtd">
<!-- Created with matplotlib (https://matplotlib.org/) -->
<svg height="268.371353pt" version="1.1" viewBox="0 0 494.350183 268.371353" width="494.350183pt" xmlns="http://www.w3.org/2000/svg" xmlns:xlink="http://www.w3.org/1999/xlink">
 <defs>
  <style type="text/css">
*{stroke-linecap:butt;stroke-linejoin:round;}
  </style>
 </defs>
 <g id="figure_1">
  <g id="patch_1">
   <path d="M -0 268.371353 
L 494.350183 268.371353 
L 494.350183 0 
L -0 0 
z
" style="fill:#ffffff;"/>
  </g>
  <g id="axes_1">
   <g id="patch_2">
    <path d="M 52.294451 232.46 
L 387.094451 232.46 
L 387.094451 10.7 
L 52.294451 10.7 
z
" style="fill:#ffffff;"/>
   </g>
   <g id="matplotlib.axis_1">
    <g id="xtick_1">
     <g id="line2d_1">
      <path clip-path="url(#pb8383fd70a)" d="M 67.512633 232.46 
L 67.512633 10.7 
" style="fill:none;stroke:#b0b0b0;stroke-dasharray:0.8,1.32;stroke-dashoffset:0;stroke-width:0.8;"/>
     </g>
     <g id="line2d_2">
      <defs>
       <path d="M 0 0 
L 0 3.5 
" id="m299cd3372f" style="stroke:#000000;stroke-width:0.8;"/>
      </defs>
      <g>
       <use style="stroke:#000000;stroke-width:0.8;" x="67.512633" xlink:href="#m299cd3372f" y="232.46"/>
      </g>
     </g>
     <g id="text_1">
      <!-- $0$ -->
      <defs>
       <path d="M 42 31.84375 
C 42 37.96875 41.90625 48.421875 37.703125 56.453125 
C 34 63.484375 28.09375 66 22.90625 66 
C 18.09375 66 12 63.78125 8.203125 56.5625 
C 4.203125 49.015625 3.796875 39.671875 3.796875 31.84375 
C 3.796875 26.109375 3.90625 17.375 7 9.734375 
C 11.296875 -0.609375 19 -2 22.90625 -2 
C 27.5 -2 34.5 -0.109375 38.59375 9.4375 
C 41.59375 16.375 42 24.5 42 31.84375 
z
M 22.90625 -0.40625 
C 16.5 -0.40625 12.703125 5.125 11.296875 12.75 
C 10.203125 18.6875 10.203125 27.328125 10.203125 32.953125 
C 10.203125 40.6875 10.203125 47.109375 11.5 53.234375 
C 13.40625 61.78125 19 64.390625 22.90625 64.390625 
C 27 64.390625 32.296875 61.671875 34.203125 53.4375 
C 35.5 47.71875 35.59375 40.984375 35.59375 32.953125 
C 35.59375 26.421875 35.59375 18.375 34.40625 12.453125 
C 32.296875 1.5 26.40625 -0.40625 22.90625 -0.40625 
z
" id="CMR17-48"/>
      </defs>
      <g transform="translate(65.021965 246.378498)scale(0.1 -0.1)">
       <use transform="scale(0.996264)" xlink:href="#CMR17-48"/>
      </g>
     </g>
    </g>
    <g id="xtick_2">
     <g id="line2d_3">
      <path clip-path="url(#pb8383fd70a)" d="M 108.366812 232.46 
L 108.366812 10.7 
" style="fill:none;stroke:#b0b0b0;stroke-dasharray:0.8,1.32;stroke-dashoffset:0;stroke-width:0.8;"/>
     </g>
     <g id="line2d_4">
      <g>
       <use style="stroke:#000000;stroke-width:0.8;" x="108.366812" xlink:href="#m299cd3372f" y="232.46"/>
      </g>
     </g>
     <g id="text_2">
      <!-- $20$ -->
      <defs>
       <path d="M 41.703125 15.46875 
L 39.90625 15.46875 
C 38.90625 8.390625 38.09375 7.1875 37.703125 6.59375 
C 37.203125 5.796875 30 5.796875 28.59375 5.796875 
L 9.40625 5.796875 
C 13 9.6875 20 16.765625 28.5 24.9375 
C 34.59375 30.71875 41.703125 37.5 41.703125 47.390625 
C 41.703125 59.1875 32.296875 66 21.796875 66 
C 10.796875 66 4.09375 56.296875 4.09375 47.296875 
C 4.09375 43.390625 7 42.890625 8.203125 42.890625 
C 9.203125 42.890625 12.203125 43.484375 12.203125 46.984375 
C 12.203125 50.09375 9.59375 51 8.203125 51 
C 7.59375 51 7 50.890625 6.59375 50.6875 
C 8.5 59.1875 14.296875 63.390625 20.40625 63.390625 
C 29.09375 63.390625 34.796875 56.5 34.796875 47.390625 
C 34.796875 38.703125 29.703125 31.21875 24 24.734375 
L 4.09375 2.296875 
L 4.09375 0 
L 39.296875 0 
z
" id="CMR17-50"/>
      </defs>
      <g transform="translate(103.385477 246.378498)scale(0.1 -0.1)">
       <use transform="scale(0.996264)" xlink:href="#CMR17-50"/>
       <use transform="translate(45.690477 0)scale(0.996264)" xlink:href="#CMR17-48"/>
      </g>
     </g>
    </g>
    <g id="xtick_3">
     <g id="line2d_5">
      <path clip-path="url(#pb8383fd70a)" d="M 149.220992 232.46 
L 149.220992 10.7 
" style="fill:none;stroke:#b0b0b0;stroke-dasharray:0.8,1.32;stroke-dashoffset:0;stroke-width:0.8;"/>
     </g>
     <g id="line2d_6">
      <g>
       <use style="stroke:#000000;stroke-width:0.8;" x="149.220992" xlink:href="#m299cd3372f" y="232.46"/>
      </g>
     </g>
     <g id="text_3">
      <!-- $40$ -->
      <defs>
       <path d="M 33.59375 64.796875 
C 33.59375 66.890625 33.5 67 31.703125 67 
L 2 19.59375 
L 2 17 
L 27.796875 17 
L 27.796875 7.1875 
C 27.796875 3.59375 27.59375 2.59375 20.59375 2.59375 
L 18.703125 2.59375 
L 18.703125 0 
C 21.90625 0.1875 27.296875 0.1875 30.703125 0.1875 
C 34.09375 0.1875 39.5 0.1875 42.703125 0 
L 42.703125 2.59375 
L 40.796875 2.59375 
C 33.796875 2.59375 33.59375 3.59375 33.59375 7.1875 
L 33.59375 17 
L 43.796875 17 
L 43.796875 19.59375 
L 33.59375 19.59375 
z
M 28.09375 58.171875 
L 28.09375 19.59375 
L 4 19.59375 
z
" id="CMR17-52"/>
      </defs>
      <g transform="translate(144.239656 246.378498)scale(0.1 -0.1)">
       <use transform="scale(0.996264)" xlink:href="#CMR17-52"/>
       <use transform="translate(45.690477 0)scale(0.996264)" xlink:href="#CMR17-48"/>
      </g>
     </g>
    </g>
    <g id="xtick_4">
     <g id="line2d_7">
      <path clip-path="url(#pb8383fd70a)" d="M 190.075171 232.46 
L 190.075171 10.7 
" style="fill:none;stroke:#b0b0b0;stroke-dasharray:0.8,1.32;stroke-dashoffset:0;stroke-width:0.8;"/>
     </g>
     <g id="line2d_8">
      <g>
       <use style="stroke:#000000;stroke-width:0.8;" x="190.075171" xlink:href="#m299cd3372f" y="232.46"/>
      </g>
     </g>
     <g id="text_4">
      <!-- $60$ -->
      <defs>
       <path d="M 10.59375 34.34375 
C 10.59375 58 21.796875 63.6875 28.296875 63.6875 
C 30.40625 63.6875 35.5 63.265625 37.5 59.09375 
C 35.90625 59.09375 32.90625 59.09375 32.90625 55.59375 
C 32.90625 52.890625 35.09375 52 36.5 52 
C 37.40625 52 40.09375 52.390625 40.09375 55.796875 
C 40.09375 62.296875 35.09375 66 28.203125 66 
C 16.296875 66 3.796875 53.296875 3.796875 31.421875 
C 3.796875 4.015625 15.09375 -2 23.09375 -2 
C 32.796875 -2 42 6.734375 42 20.234375 
C 42 32.828125 33.90625 42 23.703125 42 
C 17.59375 42 13.09375 37.96875 10.59375 30.921875 
z
M 23.09375 0.390625 
C 10.796875 0.390625 10.796875 18.9375 10.796875 22.65625 
C 10.796875 29.90625 14.203125 40.390625 23.5 40.390625 
C 25.203125 40.390625 30.09375 40.390625 33.40625 33.4375 
C 35.203125 29.515625 35.203125 25.375 35.203125 20.34375 
C 35.203125 14.90625 35.203125 10.875 33.09375 6.84375 
C 30.90625 2.703125 27.703125 0.390625 23.09375 0.390625 
z
" id="CMR17-54"/>
      </defs>
      <g transform="translate(185.093836 246.378498)scale(0.1 -0.1)">
       <use transform="scale(0.996264)" xlink:href="#CMR17-54"/>
       <use transform="translate(45.690477 0)scale(0.996264)" xlink:href="#CMR17-48"/>
      </g>
     </g>
    </g>
    <g id="xtick_5">
     <g id="line2d_9">
      <path clip-path="url(#pb8383fd70a)" d="M 230.92935 232.46 
L 230.92935 10.7 
" style="fill:none;stroke:#b0b0b0;stroke-dasharray:0.8,1.32;stroke-dashoffset:0;stroke-width:0.8;"/>
     </g>
     <g id="line2d_10">
      <g>
       <use style="stroke:#000000;stroke-width:0.8;" x="230.92935" xlink:href="#m299cd3372f" y="232.46"/>
      </g>
     </g>
     <g id="text_5">
      <!-- $80$ -->
      <defs>
       <path d="M 27.203125 35.765625 
C 33.5 38.96875 39.90625 43.796875 39.90625 51.53125 
C 39.90625 60.6875 31.09375 66 23 66 
C 13.90625 66 5.90625 59.375 5.90625 50.234375 
C 5.90625 47.71875 6.5 43.390625 10.40625 39.578125 
C 11.40625 38.578125 15.59375 35.5625 18.296875 33.65625 
C 13.796875 31.34375 3.296875 25.8125 3.296875 14.765625 
C 3.296875 4.40625 13.09375 -2 22.796875 -2 
C 33.5 -2 42.5 5.71875 42.5 15.96875 
C 42.5 25.109375 36.40625 29.328125 32.40625 32.046875 
z
M 14.09375 44.609375 
C 13.296875 45.109375 9.296875 48.21875 9.296875 52.9375 
C 9.296875 59.078125 15.59375 63.6875 22.796875 63.6875 
C 30.703125 63.6875 36.5 58.0625 36.5 51.53125 
C 36.5 42.1875 26.09375 36.859375 25.59375 36.859375 
C 25.5 36.859375 25.40625 36.859375 24.59375 37.46875 
z
M 32.5 24 
C 34 22.90625 38.796875 19.578125 38.796875 13.453125 
C 38.796875 6.015625 31.40625 0.390625 23 0.390625 
C 13.90625 0.390625 7 6.921875 7 14.859375 
C 7 22.796875 13.09375 29.4375 20 32.546875 
z
" id="CMR17-56"/>
      </defs>
      <g transform="translate(225.948015 246.378498)scale(0.1 -0.1)">
       <use transform="scale(0.996264)" xlink:href="#CMR17-56"/>
       <use transform="translate(45.690477 0)scale(0.996264)" xlink:href="#CMR17-48"/>
      </g>
     </g>
    </g>
    <g id="xtick_6">
     <g id="line2d_11">
      <path clip-path="url(#pb8383fd70a)" d="M 271.78353 232.46 
L 271.78353 10.7 
" style="fill:none;stroke:#b0b0b0;stroke-dasharray:0.8,1.32;stroke-dashoffset:0;stroke-width:0.8;"/>
     </g>
     <g id="line2d_12">
      <g>
       <use style="stroke:#000000;stroke-width:0.8;" x="271.78353" xlink:href="#m299cd3372f" y="232.46"/>
      </g>
     </g>
     <g id="text_6">
      <!-- $100$ -->
      <defs>
       <path d="M 26.59375 63.796875 
C 26.59375 65.890625 26.5 66 25.09375 66 
C 21.203125 61.359375 15.296875 59.890625 9.703125 59.6875 
C 9.40625 59.6875 8.90625 59.6875 8.796875 59.5 
C 8.703125 59.296875 8.703125 59.09375 8.703125 57 
C 11.796875 57 17 57.59375 21 59.984375 
L 21 7.296875 
C 21 3.796875 20.796875 2.59375 12.203125 2.59375 
L 9.203125 2.59375 
L 9.203125 0 
C 14 0.09375 19 0.1875 23.796875 0.1875 
C 28.59375 0.1875 33.59375 0.09375 38.40625 0 
L 38.40625 2.59375 
L 35.40625 2.59375 
C 26.796875 2.59375 26.59375 3.6875 26.59375 7.296875 
z
" id="CMR17-49"/>
      </defs>
      <g transform="translate(264.311527 246.378498)scale(0.1 -0.1)">
       <use transform="scale(0.996264)" xlink:href="#CMR17-49"/>
       <use transform="translate(45.690477 0)scale(0.996264)" xlink:href="#CMR17-48"/>
       <use transform="translate(91.380954 0)scale(0.996264)" xlink:href="#CMR17-48"/>
      </g>
     </g>
    </g>
    <g id="xtick_7">
     <g id="line2d_13">
      <path clip-path="url(#pb8383fd70a)" d="M 312.637709 232.46 
L 312.637709 10.7 
" style="fill:none;stroke:#b0b0b0;stroke-dasharray:0.8,1.32;stroke-dashoffset:0;stroke-width:0.8;"/>
     </g>
     <g id="line2d_14">
      <g>
       <use style="stroke:#000000;stroke-width:0.8;" x="312.637709" xlink:href="#m299cd3372f" y="232.46"/>
      </g>
     </g>
     <g id="text_7">
      <!-- $120$ -->
      <g transform="translate(305.165706 246.378498)scale(0.1 -0.1)">
       <use transform="scale(0.996264)" xlink:href="#CMR17-49"/>
       <use transform="translate(45.690477 0)scale(0.996264)" xlink:href="#CMR17-50"/>
       <use transform="translate(91.380954 0)scale(0.996264)" xlink:href="#CMR17-48"/>
      </g>
     </g>
    </g>
    <g id="xtick_8">
     <g id="line2d_15">
      <path clip-path="url(#pb8383fd70a)" d="M 353.491889 232.46 
L 353.491889 10.7 
" style="fill:none;stroke:#b0b0b0;stroke-dasharray:0.8,1.32;stroke-dashoffset:0;stroke-width:0.8;"/>
     </g>
     <g id="line2d_16">
      <g>
       <use style="stroke:#000000;stroke-width:0.8;" x="353.491889" xlink:href="#m299cd3372f" y="232.46"/>
      </g>
     </g>
     <g id="text_8">
      <!-- $140$ -->
      <g transform="translate(346.019886 246.378498)scale(0.1 -0.1)">
       <use transform="scale(0.996264)" xlink:href="#CMR17-49"/>
       <use transform="translate(45.690477 0)scale(0.996264)" xlink:href="#CMR17-52"/>
       <use transform="translate(91.380954 0)scale(0.996264)" xlink:href="#CMR17-48"/>
      </g>
     </g>
    </g>
    <g id="text_9">
     <!-- iteration $k$ -->
     <defs>
      <path d="M 15.5 61.890625 
C 15.5 64.09375 13.703125 66 11.40625 66 
C 9.203125 66 7.296875 64.1875 7.296875 61.890625 
C 7.296875 59.6875 9.09375 57.796875 11.40625 57.796875 
C 13.59375 57.796875 15.5 59.59375 15.5 61.890625 
z
M 3.796875 42.890625 
L 3.796875 40.296875 
C 9.40625 40.296875 10.203125 39.6875 10.203125 34.859375 
L 10.203125 6.921875 
C 10.203125 3.09375 9.796875 2.59375 3.40625 2.59375 
L 3.40625 0 
C 5.796875 0.1875 10.09375 0.1875 12.59375 0.1875 
C 15 0.1875 19.09375 0.1875 21.40625 0 
L 21.40625 2.59375 
C 15.5 2.59375 15.296875 3.203125 15.296875 6.8125 
L 15.296875 44 
z
" id="CMR17-105"/>
      <path d="M 15.09375 40.390625 
L 29.09375 40.390625 
L 29.09375 43 
L 15.09375 43 
L 15.09375 62 
L 13.296875 62 
C 13.09375 51.4375 9.59375 42.1875 1.09375 41.984375 
L 1.09375 40.390625 
L 9.796875 40.390625 
L 9.796875 12.15625 
C 9.796875 10.234375 9.796875 -1 21.40625 -1 
C 27.296875 -1 30.703125 4.8125 30.703125 12.25 
L 30.703125 17.984375 
L 28.90625 17.984375 
L 28.90625 12.34375 
C 28.90625 5.421875 26.203125 0.796875 22 0.796875 
C 19.09375 0.796875 15.09375 2.796875 15.09375 11.953125 
z
" id="CMR17-116"/>
      <path d="M 38.09375 23.484375 
C 38.5 23.890625 38.5 24.09375 38.5 25.09375 
C 38.5 35.171875 33.09375 44 21.703125 44 
C 11.09375 44 2.703125 33.984375 2.703125 21.78125 
C 2.703125 8.65625 12.203125 -1 22.796875 -1 
C 34 -1 38.40625 9.671875 38.40625 11.796875 
C 38.40625 12.5 37.796875 12.5 37.59375 12.5 
C 36.90625 12.5 36.796875 12.296875 36.40625 11.078125 
C 34.203125 4.21875 28.703125 0.796875 23.5 0.796875 
C 19.203125 0.796875 14.90625 3.21875 12.203125 7.65625 
C 9.09375 12.796875 9.09375 18.75 9.09375 23.484375 
z
M 9.203125 25 
C 9.90625 39.234375 17.59375 42.390625 21.59375 42.390625 
C 28.40625 42.390625 33 36.0625 33.09375 25 
z
" id="CMR17-101"/>
      <path d="M 15 23.703125 
C 15 33.34375 19.09375 42.390625 26.59375 42.390625 
C 27.296875 42.390625 28 42.296875 28.703125 41.984375 
C 28.703125 41.984375 26.5 41.28125 26.5 38.671875 
C 26.5 36.265625 28.40625 35.265625 29.90625 35.265625 
C 31.09375 35.265625 33.296875 35.96875 33.296875 38.78125 
C 33.296875 41.984375 30.09375 44 26.703125 44 
C 19.09375 44 15.796875 36.5625 14.796875 33.046875 
L 14.703125 33.046875 
L 14.703125 44 
L 3.09375 42.890625 
L 3.09375 40.28125 
C 9 40.28125 9.90625 39.6875 9.90625 34.859375 
L 9.90625 6.921875 
C 9.90625 3.09375 9.5 2.59375 3.09375 2.59375 
L 3.09375 0 
C 5.5 0.1875 10.09375 0.1875 12.703125 0.1875 
C 15.59375 0.1875 20.703125 0.1875 23.40625 0 
L 23.40625 2.59375 
C 16.203125 2.59375 15 2.59375 15 7.109375 
z
" id="CMR17-114"/>
      <path d="M 36 25.875 
C 36 32 36 35.546875 31.796875 39.59375 
C 28.09375 42.984375 23.796875 44 20.40625 44 
C 12.5 44 6.796875 37.625 6.796875 30.890625 
C 6.796875 27.1875 9.796875 27 10.40625 27 
C 11.703125 27 14 27.796875 14 30.59375 
C 14 33.09375 12.09375 34.1875 10.40625 34.1875 
C 10 34.1875 9.5 34.09375 9.203125 34 
C 11.296875 40.53125 16.703125 42.390625 20.203125 42.390625 
C 25.203125 42.390625 30.703125 37.828125 30.703125 29.296875 
L 30.703125 25.5 
C 24.796875 25.296875 17.703125 24.5 12.09375 21.453125 
C 5.796875 17.921875 4 12.84375 4 9 
C 4 1.203125 13 -1 18.296875 -1 
C 23.796875 -1 28.90625 2.109375 31.09375 7.890625 
C 31.296875 3.421875 34.09375 -0.609375 38.5 -0.609375 
C 40.59375 -0.609375 45.90625 0.796875 45.90625 8.796875 
L 45.90625 14.46875 
L 44.09375 14.46875 
L 44.09375 8.703125 
C 44.09375 2.515625 41.40625 1.703125 40.09375 1.703125 
C 36 1.703125 36 6.96875 36 11.4375 
z
M 30.703125 13.859375 
C 30.703125 5.046875 24.5 0.59375 19 0.59375 
C 14 0.59375 10.09375 4.34375 10.09375 9 
C 10.09375 12.046875 11.40625 17.40625 17.203125 20.65625 
C 22 23.390625 27.5 23.796875 30.703125 24 
z
" id="CMR17-97"/>
      <path d="M 43.09375 21.1875 
C 43.09375 34 33.796875 44 22.90625 44 
C 12 44 2.703125 34 2.703125 21.1875 
C 2.703125 8.59375 12 -1 22.90625 -1 
C 33.796875 -1 43.09375 8.59375 43.09375 21.1875 
z
M 22.90625 0.796875 
C 18.203125 0.796875 14.203125 3.59375 11.90625 7.5 
C 9.40625 12 9.09375 17.59375 9.09375 22 
C 9.09375 26.1875 9.296875 31.390625 11.90625 35.890625 
C 13.90625 39.1875 17.796875 42.390625 22.90625 42.390625 
C 27.40625 42.390625 31.203125 39.890625 33.59375 36.390625 
C 36.703125 31.6875 36.703125 25.09375 36.703125 22 
C 36.703125 18.09375 36.5 12.09375 33.796875 7.296875 
C 31 2.6875 26.703125 0.796875 22.90625 0.796875 
z
" id="CMR17-111"/>
      <path d="M 41.5 30.53125 
C 41.5 35.65625 40.5 44 28.703125 44 
C 20.796875 44 16.703125 37.875 15.203125 33.84375 
L 15.09375 33.84375 
L 15.09375 44 
L 3.296875 42.890625 
L 3.296875 40.28125 
C 9.203125 40.28125 10.09375 39.6875 10.09375 34.859375 
L 10.09375 6.921875 
C 10.09375 3.09375 9.703125 2.59375 3.296875 2.59375 
L 3.296875 0 
C 5.703125 0.1875 10.09375 0.1875 12.703125 0.1875 
C 15.296875 0.1875 19.796875 0.1875 22.203125 0 
L 22.203125 2.59375 
C 15.796875 2.59375 15.40625 3 15.40625 6.921875 
L 15.40625 26.21875 
C 15.40625 35.453125 21 42.390625 28 42.390625 
C 35.40625 42.390625 36.203125 35.765625 36.203125 30.9375 
L 36.203125 6.921875 
C 36.203125 3.09375 35.796875 2.59375 29.40625 2.59375 
L 29.40625 0 
C 31.796875 0.1875 36.203125 0.1875 38.796875 0.1875 
C 41.40625 0.1875 45.90625 0.1875 48.296875 0 
L 48.296875 2.59375 
C 41.90625 2.59375 41.5 3 41.5 6.921875 
z
" id="CMR17-110"/>
      <path d="M 28.09375 66.484375 
C 28.203125 66.890625 28.40625 67.484375 28.40625 67.984375 
C 28.40625 69 27.40625 69 27.203125 69 
C 27.09375 69 23.5 68.6875 21.703125 68.484375 
C 20 68.390625 18.5 68.1875 16.703125 68.09375 
C 14.296875 67.890625 13.59375 67.796875 13.59375 65.984375 
C 13.59375 64.984375 14.59375 64.984375 15.59375 64.984375 
C 20.703125 64.984375 20.703125 64.109375 20.703125 63.125 
C 20.703125 62.71875 20.703125 62.53125 20.203125 60.75 
L 5.90625 3.90625 
C 5.5 2.390625 5.5 2.203125 5.5 1.59375 
C 5.5 -0.609375 7.203125 -1 8.203125 -1 
C 11 -1 11.59375 1.1875 12.40625 4.296875 
L 17.09375 23.0625 
C 24.296875 22.265625 28.59375 19.25 28.59375 14.4375 
C 28.59375 13.828125 28.59375 13.4375 28.296875 11.921875 
C 27.90625 10.421875 27.90625 9.21875 27.90625 8.71875 
C 27.90625 2.890625 31.703125 -1 36.796875 -1 
C 41.40625 -1 43.796875 3.203125 44.59375 4.609375 
C 46.703125 8.3125 48 13.9375 48 14.328125 
C 48 14.828125 47.59375 15.234375 47 15.234375 
C 46.09375 15.234375 46 14.828125 45.59375 13.234375 
C 44.203125 8.015625 42.09375 1 37 1 
C 35 1 33.703125 2 33.703125 5.8125 
C 33.703125 7.71875 34.09375 9.921875 34.5 11.421875 
C 34.90625 13.234375 34.90625 13.328125 34.90625 14.53125 
C 34.90625 20.453125 29.59375 23.765625 20.40625 24.96875 
C 24 27.171875 27.59375 31.078125 29 32.59375 
C 34.703125 38.984375 38.59375 41.984375 43.203125 41.984375 
C 45.5 41.984375 46.09375 41.484375 46.796875 41 
C 43.09375 40.59375 41.703125 37.984375 41.703125 35.984375 
C 41.703125 33.59375 43.59375 32.796875 45 32.796875 
C 47.703125 32.796875 50.09375 35.09375 50.09375 38.296875 
C 50.09375 41.15625 47.796875 44 43.296875 44 
C 37.796875 44 33.296875 40.296875 26.203125 32.296875 
C 25.203125 31.078125 21.5 27.28125 17.796875 25.875 
z
" id="CMMI12-107"/>
     </defs>
     <g transform="translate(196.885256 259.234175)scale(0.1 -0.1)">
      <use transform="scale(0.996264)" xlink:href="#CMR17-105"/>
      <use transform="translate(24.871058 0)scale(0.996264)" xlink:href="#CMR17-116"/>
      <use transform="translate(60.151826 0)scale(0.996264)" xlink:href="#CMR17-101"/>
      <use transform="translate(100.637487 0)scale(0.996264)" xlink:href="#CMR17-114"/>
      <use transform="translate(135.918255 0)scale(0.996264)" xlink:href="#CMR17-97"/>
      <use transform="translate(181.608732 0)scale(0.996264)" xlink:href="#CMR17-116"/>
      <use transform="translate(216.889499 0)scale(0.996264)" xlink:href="#CMR17-105"/>
      <use transform="translate(241.760558 0)scale(0.996264)" xlink:href="#CMR17-111"/>
      <use transform="translate(287.451035 0)scale(0.996264)" xlink:href="#CMR17-110"/>
      <use transform="translate(368.422371 0)scale(0.996264)" xlink:href="#CMMI12-107"/>
     </g>
    </g>
   </g>
   <g id="matplotlib.axis_2">
    <g id="ytick_1">
     <g id="line2d_17">
      <path clip-path="url(#pb8383fd70a)" d="M 52.294451 232.46 
L 387.094451 232.46 
" style="fill:none;stroke:#b0b0b0;stroke-dasharray:0.8,1.32;stroke-dashoffset:0;stroke-width:0.8;"/>
     </g>
     <g id="line2d_18">
      <defs>
       <path d="M 0 0 
L -3.5 0 
" id="maa229425ef" style="stroke:#000000;stroke-width:0.8;"/>
      </defs>
      <g>
       <use style="stroke:#000000;stroke-width:0.8;" x="52.294451" xlink:href="#maa229425ef" y="232.46"/>
      </g>
     </g>
     <g id="text_10">
      <!-- $10^{-16}$ -->
      <defs>
       <path d="M 65.90625 23 
C 67.59375 23 69.40625 23 69.40625 25 
C 69.40625 27 67.59375 27 65.90625 27 
L 11.796875 27 
C 10.09375 27 8.296875 27 8.296875 25 
C 8.296875 23 10.09375 23 11.796875 23 
z
" id="CMSY10-0"/>
      </defs>
      <g transform="translate(21.16264 235.919249)scale(0.1 -0.1)">
       <use transform="scale(0.996264)" xlink:href="#CMR17-49"/>
       <use transform="translate(45.690477 0)scale(0.996264)" xlink:href="#CMR17-48"/>
       <use transform="translate(91.380954 36.153639)scale(0.697382)" xlink:href="#CMSY10-0"/>
       <use transform="translate(145.621947 36.153639)scale(0.697382)" xlink:href="#CMR17-49"/>
       <use transform="translate(177.605129 36.153639)scale(0.697382)" xlink:href="#CMR17-54"/>
      </g>
     </g>
    </g>
    <g id="ytick_2">
     <g id="line2d_19">
      <path clip-path="url(#pb8383fd70a)" d="M 52.294451 205.900278 
L 387.094451 205.900278 
" style="fill:none;stroke:#b0b0b0;stroke-dasharray:0.8,1.32;stroke-dashoffset:0;stroke-width:0.8;"/>
     </g>
     <g id="line2d_20">
      <g>
       <use style="stroke:#000000;stroke-width:0.8;" x="52.294451" xlink:href="#maa229425ef" y="205.900278"/>
      </g>
     </g>
     <g id="text_11">
      <!-- $10^{-14}$ -->
      <g transform="translate(21.16264 209.359527)scale(0.1 -0.1)">
       <use transform="scale(0.996264)" xlink:href="#CMR17-49"/>
       <use transform="translate(45.690477 0)scale(0.996264)" xlink:href="#CMR17-48"/>
       <use transform="translate(91.380954 36.153639)scale(0.697382)" xlink:href="#CMSY10-0"/>
       <use transform="translate(145.621947 36.153639)scale(0.697382)" xlink:href="#CMR17-49"/>
       <use transform="translate(177.605129 36.153639)scale(0.697382)" xlink:href="#CMR17-52"/>
      </g>
     </g>
    </g>
    <g id="ytick_3">
     <g id="line2d_21">
      <path clip-path="url(#pb8383fd70a)" d="M 52.294451 179.340556 
L 387.094451 179.340556 
" style="fill:none;stroke:#b0b0b0;stroke-dasharray:0.8,1.32;stroke-dashoffset:0;stroke-width:0.8;"/>
     </g>
     <g id="line2d_22">
      <g>
       <use style="stroke:#000000;stroke-width:0.8;" x="52.294451" xlink:href="#maa229425ef" y="179.340556"/>
      </g>
     </g>
     <g id="text_12">
      <!-- $10^{-12}$ -->
      <g transform="translate(21.16264 182.799805)scale(0.1 -0.1)">
       <use transform="scale(0.996264)" xlink:href="#CMR17-49"/>
       <use transform="translate(45.690477 0)scale(0.996264)" xlink:href="#CMR17-48"/>
       <use transform="translate(91.380954 36.153639)scale(0.697382)" xlink:href="#CMSY10-0"/>
       <use transform="translate(145.621947 36.153639)scale(0.697382)" xlink:href="#CMR17-49"/>
       <use transform="translate(177.605129 36.153639)scale(0.697382)" xlink:href="#CMR17-50"/>
      </g>
     </g>
    </g>
    <g id="ytick_4">
     <g id="line2d_23">
      <path clip-path="url(#pb8383fd70a)" d="M 52.294451 152.780834 
L 387.094451 152.780834 
" style="fill:none;stroke:#b0b0b0;stroke-dasharray:0.8,1.32;stroke-dashoffset:0;stroke-width:0.8;"/>
     </g>
     <g id="line2d_24">
      <g>
       <use style="stroke:#000000;stroke-width:0.8;" x="52.294451" xlink:href="#maa229425ef" y="152.780834"/>
      </g>
     </g>
     <g id="text_13">
      <!-- $10^{-10}$ -->
      <g transform="translate(21.16264 156.240083)scale(0.1 -0.1)">
       <use transform="scale(0.996264)" xlink:href="#CMR17-49"/>
       <use transform="translate(45.690477 0)scale(0.996264)" xlink:href="#CMR17-48"/>
       <use transform="translate(91.380954 36.153639)scale(0.697382)" xlink:href="#CMSY10-0"/>
       <use transform="translate(145.621947 36.153639)scale(0.697382)" xlink:href="#CMR17-49"/>
       <use transform="translate(177.605129 36.153639)scale(0.697382)" xlink:href="#CMR17-48"/>
      </g>
     </g>
    </g>
    <g id="ytick_5">
     <g id="line2d_25">
      <path clip-path="url(#pb8383fd70a)" d="M 52.294451 126.221112 
L 387.094451 126.221112 
" style="fill:none;stroke:#b0b0b0;stroke-dasharray:0.8,1.32;stroke-dashoffset:0;stroke-width:0.8;"/>
     </g>
     <g id="line2d_26">
      <g>
       <use style="stroke:#000000;stroke-width:0.8;" x="52.294451" xlink:href="#maa229425ef" y="126.221112"/>
      </g>
     </g>
     <g id="text_14">
      <!-- $10^{-8}$ -->
      <g transform="translate(25.133878 129.680361)scale(0.1 -0.1)">
       <use transform="scale(0.996264)" xlink:href="#CMR17-49"/>
       <use transform="translate(45.690477 0)scale(0.996264)" xlink:href="#CMR17-48"/>
       <use transform="translate(91.380954 36.153639)scale(0.697382)" xlink:href="#CMSY10-0"/>
       <use transform="translate(145.621947 36.153639)scale(0.697382)" xlink:href="#CMR17-56"/>
      </g>
     </g>
    </g>
    <g id="ytick_6">
     <g id="line2d_27">
      <path clip-path="url(#pb8383fd70a)" d="M 52.294451 99.66139 
L 387.094451 99.66139 
" style="fill:none;stroke:#b0b0b0;stroke-dasharray:0.8,1.32;stroke-dashoffset:0;stroke-width:0.8;"/>
     </g>
     <g id="line2d_28">
      <g>
       <use style="stroke:#000000;stroke-width:0.8;" x="52.294451" xlink:href="#maa229425ef" y="99.66139"/>
      </g>
     </g>
     <g id="text_15">
      <!-- $10^{-6}$ -->
      <g transform="translate(25.133878 103.120639)scale(0.1 -0.1)">
       <use transform="scale(0.996264)" xlink:href="#CMR17-49"/>
       <use transform="translate(45.690477 0)scale(0.996264)" xlink:href="#CMR17-48"/>
       <use transform="translate(91.380954 36.153639)scale(0.697382)" xlink:href="#CMSY10-0"/>
       <use transform="translate(145.621947 36.153639)scale(0.697382)" xlink:href="#CMR17-54"/>
      </g>
     </g>
    </g>
    <g id="ytick_7">
     <g id="line2d_29">
      <path clip-path="url(#pb8383fd70a)" d="M 52.294451 73.101668 
L 387.094451 73.101668 
" style="fill:none;stroke:#b0b0b0;stroke-dasharray:0.8,1.32;stroke-dashoffset:0;stroke-width:0.8;"/>
     </g>
     <g id="line2d_30">
      <g>
       <use style="stroke:#000000;stroke-width:0.8;" x="52.294451" xlink:href="#maa229425ef" y="73.101668"/>
      </g>
     </g>
     <g id="text_16">
      <!-- $10^{-4}$ -->
      <g transform="translate(25.133878 76.560918)scale(0.1 -0.1)">
       <use transform="scale(0.996264)" xlink:href="#CMR17-49"/>
       <use transform="translate(45.690477 0)scale(0.996264)" xlink:href="#CMR17-48"/>
       <use transform="translate(91.380954 36.153639)scale(0.697382)" xlink:href="#CMSY10-0"/>
       <use transform="translate(145.621947 36.153639)scale(0.697382)" xlink:href="#CMR17-52"/>
      </g>
     </g>
    </g>
    <g id="ytick_8">
     <g id="line2d_31">
      <path clip-path="url(#pb8383fd70a)" d="M 52.294451 46.541946 
L 387.094451 46.541946 
" style="fill:none;stroke:#b0b0b0;stroke-dasharray:0.8,1.32;stroke-dashoffset:0;stroke-width:0.8;"/>
     </g>
     <g id="line2d_32">
      <g>
       <use style="stroke:#000000;stroke-width:0.8;" x="52.294451" xlink:href="#maa229425ef" y="46.541946"/>
      </g>
     </g>
     <g id="text_17">
      <!-- $10^{-2}$ -->
      <g transform="translate(25.133878 50.001196)scale(0.1 -0.1)">
       <use transform="scale(0.996264)" xlink:href="#CMR17-49"/>
       <use transform="translate(45.690477 0)scale(0.996264)" xlink:href="#CMR17-48"/>
       <use transform="translate(91.380954 36.153639)scale(0.697382)" xlink:href="#CMSY10-0"/>
       <use transform="translate(145.621947 36.153639)scale(0.697382)" xlink:href="#CMR17-50"/>
      </g>
     </g>
    </g>
    <g id="ytick_9">
     <g id="line2d_33">
      <path clip-path="url(#pb8383fd70a)" d="M 52.294451 19.982224 
L 387.094451 19.982224 
" style="fill:none;stroke:#b0b0b0;stroke-dasharray:0.8,1.32;stroke-dashoffset:0;stroke-width:0.8;"/>
     </g>
     <g id="line2d_34">
      <g>
       <use style="stroke:#000000;stroke-width:0.8;" x="52.294451" xlink:href="#maa229425ef" y="19.982224"/>
      </g>
     </g>
     <g id="text_18">
      <!-- $10^{0}$ -->
      <g transform="translate(31.360543 23.441474)scale(0.1 -0.1)">
       <use transform="scale(0.996264)" xlink:href="#CMR17-49"/>
       <use transform="translate(45.690477 0)scale(0.996264)" xlink:href="#CMR17-48"/>
       <use transform="translate(91.380954 36.153639)scale(0.697382)" xlink:href="#CMR17-48"/>
      </g>
     </g>
    </g>
    <g id="text_19">
     <!-- $A$-norm of error: $\| x-x_k \|_A$ -->
     <defs>
      <path d="M 17 11.25 
C 13.5 5.234375 10.09375 3.203125 5.296875 2.890625 
C 4.203125 2.796875 3.40625 2.796875 3.40625 1 
C 3.40625 0.390625 3.90625 0 4.59375 0 
C 6.40625 0 10.90625 0.1875 12.703125 0.1875 
C 15.59375 0.1875 18.796875 0 21.59375 0 
C 22.203125 0 23.40625 0 23.40625 1.890625 
C 23.40625 2.796875 22.59375 2.890625 22 2.890625 
C 19.703125 3.09375 17.796875 3.90625 17.796875 6.359375 
C 17.796875 7.78125 18.40625 8.90625 19.703125 11.15625 
L 27.296875 24 
L 52.796875 24 
C 52.90625 23.078125 52.90625 22.265625 53 21.34375 
C 53.296875 18.6875 54.5 8.09375 54.5 6.15625 
C 54.5 3.09375 49.40625 2.890625 47.796875 2.890625 
C 46.703125 2.890625 45.59375 2.890625 45.59375 1.09375 
C 45.59375 0 46.5 0 47.09375 0 
C 48.796875 0 50.796875 0.1875 52.5 0.1875 
L 58.203125 0.1875 
C 64.296875 0.1875 68.703125 0 68.796875 0 
C 69.5 0 70.59375 0 70.59375 1.890625 
C 70.59375 2.890625 69.703125 2.890625 68.203125 2.890625 
C 62.703125 2.890625 62.59375 3.8125 62.296875 6.875 
L 56.203125 68.796875 
C 56 70.796875 55.59375 71 54.5 71 
C 53.5 71 52.90625 70.796875 52 69.296875 
z
M 29 26.890625 
L 49.09375 59.859375 
L 52.5 26.890625 
z
" id="CMMI12-65"/>
      <path d="M 25.5 19.59375 
L 25.5 24 
L 0.40625 24 
L 0.40625 19.59375 
z
" id="CMR17-45"/>
      <path d="M 67.59375 30.53125 
C 67.59375 35.5625 66.703125 44 54.796875 44 
C 48 44 43.296875 39.375 41.5 33.953125 
L 41.40625 33.953125 
C 40.203125 42.1875 34.296875 44 28.703125 44 
C 20.796875 44 16.703125 37.875 15.203125 33.84375 
L 15.09375 33.84375 
L 15.09375 44 
L 3.296875 42.890625 
L 3.296875 40.28125 
C 9.203125 40.28125 10.09375 39.6875 10.09375 34.859375 
L 10.09375 6.921875 
C 10.09375 3.09375 9.703125 2.59375 3.296875 2.59375 
L 3.296875 0 
C 5.703125 0.1875 10.09375 0.1875 12.703125 0.1875 
C 15.296875 0.1875 19.796875 0.1875 22.203125 0 
L 22.203125 2.59375 
C 15.796875 2.59375 15.40625 3 15.40625 6.921875 
L 15.40625 26.21875 
C 15.40625 35.453125 21 42.390625 28 42.390625 
C 35.40625 42.390625 36.203125 35.765625 36.203125 30.9375 
L 36.203125 6.921875 
C 36.203125 3.09375 35.796875 2.59375 29.40625 2.59375 
L 29.40625 0 
C 31.796875 0.1875 36.203125 0.1875 38.796875 0.1875 
C 41.40625 0.1875 45.90625 0.1875 48.296875 0 
L 48.296875 2.59375 
C 41.90625 2.59375 41.5 3 41.5 6.921875 
L 41.5 26.21875 
C 41.5 35.453125 47.09375 42.390625 54.09375 42.390625 
C 61.5 42.390625 62.296875 35.765625 62.296875 30.9375 
L 62.296875 6.921875 
C 62.296875 3.09375 61.90625 2.59375 55.5 2.59375 
L 55.5 0 
C 57.90625 0.1875 62.296875 0.1875 64.90625 0.1875 
C 67.5 0.1875 72 0.1875 74.40625 0 
L 74.40625 2.59375 
C 68 2.59375 67.59375 3 67.59375 6.921875 
z
" id="CMR17-109"/>
      <path d="M 15.296875 40.390625 
L 26.703125 40.390625 
L 26.703125 43 
L 15.09375 43 
L 15.09375 55.296875 
C 15.09375 63.6875 19.296875 68.390625 23.59375 68.390625 
C 24.90625 68.390625 26.40625 68.171875 27.40625 67.796875 
C 26.59375 67.59375 24.5 66.890625 24.5 64.390625 
C 24.5 61.796875 26.5 61 27.90625 61 
C 29.296875 61 31.296875 61.796875 31.296875 64.390625 
C 31.296875 68.015625 27.703125 70 23.703125 70 
C 18 70 10.203125 65.796875 10.203125 55.09375 
L 10.203125 43 
L 2.203125 43 
L 2.203125 40.390625 
L 10.203125 40.390625 
L 10.203125 6.890625 
C 10.203125 3.09375 9.796875 2.59375 3.40625 2.59375 
L 3.40625 0 
C 5.796875 0.1875 10.40625 0.1875 13 0.1875 
C 15.90625 0.1875 21 0.1875 23.703125 0 
L 23.703125 2.59375 
C 16.5 2.59375 15.296875 2.59375 15.296875 7.09375 
z
" id="CMR17-102"/>
      <path d="M 16.59375 38.890625 
C 16.59375 41.390625 14.59375 43 12.5 43 
C 10.5 43 8.40625 41.390625 8.40625 38.890625 
C 8.40625 36.390625 10.40625 34.796875 12.5 34.796875 
C 14.5 34.796875 16.59375 36.390625 16.59375 38.890625 
z
M 16.59375 4.09375 
C 16.59375 6.59375 14.59375 8.1875 12.5 8.1875 
C 10.5 8.1875 8.40625 6.59375 8.40625 4.09375 
C 8.40625 1.59375 10.40625 0 12.5 0 
C 14.5 0 16.59375 1.59375 16.59375 4.09375 
z
" id="CMR17-58"/>
      <path d="M 17.203125 71.59375 
C 17.203125 73.1875 17.203125 75 15.203125 75 
C 13.203125 75 13.203125 72.796875 13.203125 71.296875 
L 13.203125 -21.3125 
C 13.203125 -22.90625 13.203125 -25 15.203125 -25 
C 17.203125 -25 17.203125 -23.203125 17.203125 -21.609375 
z
M 36.703125 71.296875 
C 36.703125 72.890625 36.703125 75 34.703125 75 
C 32.703125 75 32.703125 73.1875 32.703125 71.59375 
L 32.703125 -21.609375 
C 32.703125 -23.203125 32.703125 -25 34.703125 -25 
C 36.703125 -25 36.703125 -22.8125 36.703125 -21.3125 
z
" id="CMSY10-107"/>
      <path d="M 47.40625 41 
C 44.203125 40.390625 43 37.984375 43 36.09375 
C 43 33.6875 44.90625 32.890625 46.296875 32.890625 
C 49.296875 32.890625 51.40625 35.484375 51.40625 38.1875 
C 51.40625 42.09375 46.59375 44 42.40625 44 
C 36.296875 44 32.90625 38.296875 32 36.390625 
C 29.703125 43.59375 23.5 44 21.703125 44 
C 11.5 44 6.09375 31.140625 6.09375 28.890625 
C 6.09375 28.484375 6.5 27.96875 7.203125 27.96875 
C 8 27.96875 8.203125 28.578125 8.40625 28.984375 
C 11.796875 40.1875 18.5 41.984375 21.40625 41.984375 
C 25.90625 41.984375 26.796875 38.09375 26.796875 35.6875 
C 26.796875 33.484375 26.203125 31.140625 25 26.21875 
L 21.59375 12.15625 
C 20.09375 6.09375 17.203125 1 11.90625 1 
C 11.40625 1 8.90625 1 6.796875 1.96875 
C 10.40625 2.59375 11.203125 5.59375 11.203125 6.796875 
C 11.203125 8.796875 9.703125 10 7.796875 10 
C 5.40625 10 2.796875 7.890625 2.796875 4.6875 
C 2.796875 0.890625 7.5 -1 11.796875 -1 
C 16.59375 -1 20 2.390625 22.09375 6.484375 
C 23.703125 1 28.703125 -1 32.40625 -1 
C 42.59375 -1 48 11.734375 48 14 
C 48 14.515625 47.59375 14.921875 47 14.921875 
C 46.09375 14.921875 46 14.40625 45.703125 13.59375 
C 43 4.6875 37.203125 1 32.703125 1 
C 29.203125 1 27.296875 3.1875 27.296875 7.296875 
C 27.296875 9.484375 27.703125 11.125 29.296875 17.90625 
L 32.796875 31.859375 
C 34.296875 37.890625 37.703125 41.984375 42.296875 41.984375 
C 42.5 41.984375 45.296875 41.984375 47.40625 41 
z
" id="CMMI12-120"/>
     </defs>
     <g transform="translate(15.225462 182.035642)rotate(-90)scale(0.1 -0.1)">
      <use transform="translate(0 14.943915)scale(0.996264)" xlink:href="#CMMI12-65"/>
      <use transform="translate(73.127885 14.943915)scale(0.996264)" xlink:href="#CMR17-45"/>
      <use transform="translate(103.203852 14.943915)scale(0.996264)" xlink:href="#CMR17-110"/>
      <use transform="translate(154.099221 14.943915)scale(0.996264)" xlink:href="#CMR17-111"/>
      <use transform="translate(199.789699 14.943915)scale(0.996264)" xlink:href="#CMR17-114"/>
      <use transform="translate(235.070466 14.943915)scale(0.996264)" xlink:href="#CMR17-109"/>
      <use transform="translate(342.066023 14.943915)scale(0.996264)" xlink:href="#CMR17-111"/>
      <use transform="translate(387.7565 14.943915)scale(0.996264)" xlink:href="#CMR17-102"/>
      <use transform="translate(445.305978 14.943915)scale(0.996264)" xlink:href="#CMR17-101"/>
      <use transform="translate(485.791639 14.943915)scale(0.996264)" xlink:href="#CMR17-114"/>
      <use transform="translate(521.072407 14.943915)scale(0.996264)" xlink:href="#CMR17-114"/>
      <use transform="translate(556.353174 14.943915)scale(0.996264)" xlink:href="#CMR17-111"/>
      <use transform="translate(602.043652 14.943915)scale(0.996264)" xlink:href="#CMR17-114"/>
      <use transform="translate(637.324419 14.943915)scale(0.996264)" xlink:href="#CMR17-58"/>
      <use transform="translate(702.681138 14.943915)scale(0.996264)" xlink:href="#CMSY10-107"/>
      <use transform="translate(752.494521 14.943915)scale(0.996264)" xlink:href="#CMMI12-120"/>
      <use transform="translate(830.067788 14.943915)scale(0.996264)" xlink:href="#CMSY10-0"/>
      <use transform="translate(929.694462 14.943915)scale(0.996264)" xlink:href="#CMMI12-120"/>
      <use transform="translate(985.128522 0)scale(0.697382)" xlink:href="#CMMI12-107"/>
      <use transform="translate(1023.481904 14.943915)scale(0.996264)" xlink:href="#CMSY10-107"/>
      <use transform="translate(1073.295287 0)scale(0.697382)" xlink:href="#CMMI12-65"/>
     </g>
    </g>
   </g>
   <g id="line2d_35">
    <path clip-path="url(#pb8383fd70a)" d="M 67.512633 19.982224 
L 69.555342 23.859967 
L 71.598051 25.957822 
L 73.64076 27.596009 
L 75.683469 28.865266 
L 77.726178 30.012382 
L 79.768887 30.695023 
L 81.811596 31.538183 
L 83.854305 32.260298 
L 85.897014 32.761086 
L 87.939723 30.821325 
L 89.982432 31.335009 
L 92.025141 32.274422 
L 94.06785 33.556424 
L 96.110558 35.049133 
L 98.153267 35.93128 
L 100.195976 36.336708 
L 102.238685 37.163445 
L 104.281394 37.747737 
L 106.324103 38.339126 
L 108.366812 40.089215 
L 110.409521 41.524023 
L 112.45223 42.83937 
L 114.494939 43.066109 
L 116.537648 43.931707 
L 118.580357 43.665476 
L 120.623066 43.163026 
L 122.665775 43.040056 
L 124.708484 42.332094 
L 126.751193 42.999612 
L 128.793902 43.251966 
L 130.836611 42.883667 
L 132.87932 41.976145 
L 134.922029 42.274921 
L 136.964738 41.027779 
L 139.007447 41.514375 
L 141.050156 41.310615 
L 143.092865 41.237509 
L 145.135574 40.032256 
L 147.178283 41.255698 
L 149.220992 42.783656 
L 151.263701 43.201488 
L 153.30641 44.801359 
L 155.349119 44.928285 
L 157.391828 46.798844 
L 159.434537 47.754252 
L 161.477245 48.064679 
L 163.519954 47.602379 
L 165.562663 48.068795 
L 167.605372 47.821128 
L 169.648081 47.697679 
L 171.69079 46.869223 
L 173.733499 48.561533 
L 175.776208 50.653233 
L 177.818917 52.236126 
L 179.861626 56.148812 
L 181.904335 57.078661 
L 183.947044 58.744677 
L 185.989753 61.406714 
L 188.032462 63.536635 
L 190.075171 64.409974 
L 192.11788 64.989569 
L 194.160589 65.875836 
L 196.203298 69.924985 
L 198.246007 70.476691 
L 200.288716 71.886826 
L 202.331425 74.334778 
L 204.374134 75.340037 
L 206.416843 78.200229 
L 208.459552 79.891815 
L 210.502261 84.16942 
L 212.54497 88.751046 
L 214.587679 92.267393 
L 216.630388 94.288357 
L 218.673097 98.34648 
L 220.715806 100.292531 
L 222.758515 105.771894 
L 224.801224 110.558269 
L 226.843932 113.914896 
L 228.886641 119.746997 
L 230.92935 125.417603 
L 232.972059 130.541712 
L 235.014768 134.018736 
L 237.057477 135.724783 
L 239.100186 139.420969 
L 241.142895 144.19863 
L 243.185604 147.597854 
L 245.228313 156.499867 
L 247.271022 158.661973 
L 249.313731 162.65612 
L 251.35644 166.536162 
L 253.399149 173.042115 
L 255.441858 181.232538 
L 257.484567 190.676948 
L 259.527276 199.229041 
L 261.569985 205.172365 
L 263.612694 225.422541 
L 265.655403 233.485072 
L 267.698112 244.309475 
L 269.740821 256.269065 
" style="fill:none;stroke:#93a1a1;stroke-dasharray:1.5,2.475;stroke-dashoffset:0;stroke-width:1.5;"/>
   </g>
   <g id="line2d_36">
    <path clip-path="url(#pb8383fd70a)" d="M 67.512633 19.982224 
L 69.555342 23.859967 
L 71.598051 25.957822 
L 73.64076 27.596009 
L 77.726178 30.012382 
L 79.768887 30.695023 
L 81.811596 31.538183 
L 83.854305 32.260298 
L 85.897014 32.761086 
L 87.939723 30.821325 
L 89.982432 31.335009 
L 92.025141 32.274422 
L 94.06785 33.556424 
L 96.110558 35.049133 
L 98.153267 35.93128 
L 100.195976 36.336708 
L 102.238685 37.163445 
L 106.324103 38.339126 
L 108.366812 40.089215 
L 112.45223 42.83937 
L 114.494939 43.066109 
L 116.537648 43.931707 
L 118.580357 43.665476 
L 120.623066 43.163026 
L 122.665775 43.040056 
L 124.708484 42.332094 
L 126.751193 42.999612 
L 128.793902 43.251966 
L 130.836611 42.883667 
L 132.87932 41.976145 
L 134.922029 42.274921 
L 136.964738 41.027779 
L 139.007447 41.514375 
L 141.050156 41.310615 
L 143.092865 41.237509 
L 145.135574 40.032256 
L 147.178283 41.255698 
L 149.220992 42.783656 
L 151.263701 43.201488 
L 153.30641 44.801359 
L 155.349119 44.928285 
L 157.391828 46.798844 
L 159.434537 47.754252 
L 161.477245 48.064679 
L 163.519954 47.602379 
L 165.562663 48.068795 
L 167.605372 47.821128 
L 169.648081 47.697679 
L 171.69079 46.869223 
L 173.733499 48.561533 
L 175.776208 50.653233 
L 177.818917 52.236126 
L 179.861626 56.148812 
L 181.904335 57.078661 
L 183.947044 58.744677 
L 185.989753 61.406712 
L 188.032462 63.536612 
L 190.075171 64.409209 
L 192.11788 64.981739 
L 194.160589 65.792717 
L 196.203298 69.16683 
L 198.246007 68.778632 
L 200.288716 71.128517 
L 204.374134 75.151021 
L 206.416843 75.788916 
L 208.459552 78.666815 
L 210.502261 80.864236 
L 212.54497 86.370964 
L 214.587679 89.514869 
L 216.630388 92.17845 
L 218.673097 93.979858 
L 220.715806 97.062239 
L 222.758515 98.38026 
L 224.801224 99.202164 
L 226.843932 105.23801 
L 230.92935 113.574522 
L 232.972059 120.220316 
L 235.014768 121.572994 
L 237.057477 125.762046 
L 239.100186 131.018117 
L 241.142895 134.939247 
L 245.228313 137.688613 
L 247.271022 141.121252 
L 249.313731 146.427432 
L 253.399149 152.849897 
L 255.441858 159.170408 
L 257.484567 159.977865 
L 259.527276 164.504398 
L 261.569985 167.586875 
L 263.612694 172.579155 
L 265.655403 176.789405 
L 267.698112 183.444055 
L 269.740821 185.223133 
L 271.78353 191.650078 
L 273.826239 202.213691 
L 275.868948 205.084084 
L 277.911657 209.374301 
L 279.954366 211.061658 
L 281.997075 211.557676 
L 286.082493 211.456564 
L 371.876269 211.456564 
L 371.876269 211.456564 
" style="fill:none;stroke:#93a1a1;stroke-linecap:square;stroke-width:1.5;"/>
    <defs>
     <path d="M 0 3 
C 0.795609 3 1.55874 2.683901 2.12132 2.12132 
C 2.683901 1.55874 3 0.795609 3 0 
C 3 -0.795609 2.683901 -1.55874 2.12132 -2.12132 
C 1.55874 -2.683901 0.795609 -3 0 -3 
C -0.795609 -3 -1.55874 -2.683901 -2.12132 -2.12132 
C -2.683901 -1.55874 -3 -0.795609 -3 0 
C -3 0.795609 -2.683901 1.55874 -2.12132 2.12132 
C -1.55874 2.683901 -0.795609 3 0 3 
z
" id="m6e8ce31d82" style="stroke:#93a1a1;"/>
    </defs>
    <g clip-path="url(#pb8383fd70a)">
     <use style="fill:#93a1a1;stroke:#93a1a1;" x="67.512633" xlink:href="#m6e8ce31d82" y="19.982224"/>
     <use style="fill:#93a1a1;stroke:#93a1a1;" x="128.793902" xlink:href="#m6e8ce31d82" y="43.251966"/>
     <use style="fill:#93a1a1;stroke:#93a1a1;" x="190.075171" xlink:href="#m6e8ce31d82" y="64.409209"/>
     <use style="fill:#93a1a1;stroke:#93a1a1;" x="251.35644" xlink:href="#m6e8ce31d82" y="149.603523"/>
     <use style="fill:#93a1a1;stroke:#93a1a1;" x="312.637709" xlink:href="#m6e8ce31d82" y="211.456564"/>
    </g>
   </g>
   <g id="line2d_37">
    <path clip-path="url(#pb8383fd70a)" d="M 67.512633 19.982224 
L 69.555342 23.859967 
L 71.598051 25.957822 
L 73.64076 27.596009 
L 77.726178 30.012382 
L 79.768887 30.695023 
L 81.811596 31.538183 
L 83.854305 32.260298 
L 85.897014 32.761086 
L 87.939723 30.821325 
L 89.982432 31.335009 
L 92.025141 32.274422 
L 94.06785 33.556424 
L 96.110558 35.049133 
L 98.153267 35.93128 
L 100.195976 36.336708 
L 102.238685 37.163445 
L 106.324103 38.339126 
L 108.366812 40.089215 
L 112.45223 42.83937 
L 114.494939 43.066109 
L 116.537648 43.931707 
L 118.580357 43.665476 
L 120.623066 43.163026 
L 122.665775 43.040056 
L 124.708484 42.332094 
L 126.751193 42.999612 
L 128.793902 43.251966 
L 130.836611 42.883667 
L 132.87932 41.976145 
L 134.922029 42.274921 
L 136.964738 41.027779 
L 139.007447 41.514375 
L 141.050156 41.310615 
L 143.092865 41.237509 
L 145.135574 40.032256 
L 147.178283 41.255698 
L 149.220992 42.783656 
L 151.263701 43.201488 
L 153.30641 44.801359 
L 155.349119 44.928285 
L 157.391828 46.798844 
L 159.434537 47.754252 
L 161.477245 48.064679 
L 163.519954 47.602379 
L 165.562663 48.068795 
L 167.605372 47.821128 
L 169.648081 47.697679 
L 171.69079 46.869223 
L 173.733499 48.561533 
L 175.776208 50.653233 
L 177.818917 52.236126 
L 179.861626 56.148812 
L 181.904335 57.078661 
L 183.947044 58.744677 
L 185.989753 61.406711 
L 188.032462 63.536604 
L 190.075171 64.408962 
L 192.11788 64.979225 
L 194.160589 65.767395 
L 196.203298 69.002011 
L 198.246007 68.911631 
L 200.288716 71.150664 
L 204.374134 75.151171 
L 206.416843 75.788938 
L 208.459552 78.66686 
L 210.502261 80.865676 
L 212.54497 86.440861 
L 214.587679 89.857284 
L 216.630388 92.061761 
L 218.673097 93.926129 
L 220.715806 97.101856 
L 222.758515 98.630738 
L 224.801224 100.406899 
L 228.886641 109.468215 
L 230.92935 113.575842 
L 232.972059 120.379653 
L 235.014768 123.152707 
L 237.057477 127.374884 
L 239.100186 130.640592 
L 241.142895 134.932006 
L 243.185604 136.59444 
L 245.228313 137.829558 
L 247.271022 141.046735 
L 249.313731 146.763401 
L 251.35644 150.739975 
L 253.399149 153.979523 
L 255.441858 159.037915 
L 257.484567 161.194546 
L 259.527276 164.263661 
L 261.569985 167.623024 
L 263.612694 174.381215 
L 267.698112 184.129311 
L 269.740821 188.301778 
L 271.78353 192.157907 
L 273.826239 202.050671 
L 275.868948 204.600628 
L 277.911657 208.21548 
L 279.954366 211.060918 
L 281.997075 211.341843 
L 286.082493 211.434571 
L 290.167911 211.4577 
L 292.21062 211.554811 
L 296.296037 211.415507 
L 316.723127 211.442436 
L 371.876269 211.442436 
L 371.876269 211.442436 
" style="fill:none;stroke:#93a1a1;stroke-linecap:square;stroke-width:1.5;"/>
    <defs>
     <path d="M 0 -3 
L -3 3 
L 3 3 
z
" id="m0a429d7d67" style="stroke:#93a1a1;stroke-linejoin:miter;"/>
    </defs>
    <g clip-path="url(#pb8383fd70a)">
     <use style="fill:#93a1a1;stroke:#93a1a1;stroke-linejoin:miter;" x="81.811596" xlink:href="#m0a429d7d67" y="31.538183"/>
     <use style="fill:#93a1a1;stroke:#93a1a1;stroke-linejoin:miter;" x="143.092865" xlink:href="#m0a429d7d67" y="41.237509"/>
     <use style="fill:#93a1a1;stroke:#93a1a1;stroke-linejoin:miter;" x="204.374134" xlink:href="#m0a429d7d67" y="75.151171"/>
     <use style="fill:#93a1a1;stroke:#93a1a1;stroke-linejoin:miter;" x="265.655403" xlink:href="#m0a429d7d67" y="179.129344"/>
     <use style="fill:#93a1a1;stroke:#93a1a1;stroke-linejoin:miter;" x="326.936672" xlink:href="#m0a429d7d67" y="211.442436"/>
    </g>
   </g>
   <g id="line2d_38">
    <path clip-path="url(#pb8383fd70a)" d="M 67.512633 19.982224 
L 69.555342 23.859967 
L 71.598051 25.957822 
L 73.64076 27.596009 
L 77.726178 30.012382 
L 79.768887 30.695023 
L 81.811596 31.538183 
L 83.854305 32.260298 
L 85.897014 32.761086 
L 87.939723 30.821325 
L 89.982432 31.335009 
L 92.025141 32.274422 
L 94.06785 33.556424 
L 96.110558 35.049133 
L 98.153267 35.93128 
L 100.195976 36.336708 
L 102.238685 37.163445 
L 106.324103 38.339126 
L 108.366812 40.089215 
L 112.45223 42.83937 
L 114.494939 43.066109 
L 116.537648 43.931707 
L 118.580357 43.665476 
L 120.623066 43.163026 
L 122.665775 43.040056 
L 124.708484 42.332094 
L 126.751193 42.999612 
L 128.793902 43.251966 
L 130.836611 42.883667 
L 132.87932 41.976145 
L 134.922029 42.274921 
L 136.964738 41.027779 
L 139.007447 41.514375 
L 141.050156 41.310615 
L 143.092865 41.237509 
L 145.135574 40.032256 
L 147.178283 41.255698 
L 149.220992 42.783656 
L 151.263701 43.201488 
L 153.30641 44.801359 
L 155.349119 44.928285 
L 157.391828 46.798844 
L 159.434537 47.754252 
L 161.477245 48.064679 
L 163.519954 47.602379 
L 165.562663 48.068795 
L 167.605372 47.821128 
L 169.648081 47.697679 
L 171.69079 46.869223 
L 173.733499 48.561533 
L 175.776208 50.653233 
L 177.818917 52.236126 
L 179.861626 56.148812 
L 181.904335 57.078661 
L 183.947044 58.744677 
L 185.989753 61.406714 
L 188.032462 63.536634 
L 190.075171 64.409936 
L 192.11788 64.989173 
L 194.160589 65.871468 
L 196.203298 69.873682 
L 198.246007 69.588298 
L 200.288716 70.421838 
L 202.331425 73.083556 
L 204.374134 75.139647 
L 206.416843 75.787718 
L 208.459552 78.666724 
L 210.502261 80.865979 
L 212.54497 86.463698 
L 214.587679 90.082356 
L 218.673097 93.969508 
L 220.715806 97.173333 
L 222.758515 98.705212 
L 224.801224 101.926015 
L 226.843932 104.793811 
L 228.886641 109.440054 
L 230.92935 113.575016 
L 232.972059 120.382975 
L 235.014768 123.220198 
L 237.057477 127.812681 
L 239.100186 130.537006 
L 241.142895 134.885328 
L 243.185604 135.790719 
L 245.228313 137.758026 
L 247.271022 141.200654 
L 249.313731 146.62053 
L 251.35644 150.123371 
L 253.399149 153.100621 
L 255.441858 159.133126 
L 257.484567 159.325004 
L 259.527276 164.475172 
L 261.569985 167.607392 
L 263.612694 173.157153 
L 265.655403 176.745762 
L 267.698112 183.772293 
L 269.740821 185.515138 
L 271.78353 191.530777 
L 273.826239 200.457212 
L 275.868948 203.91623 
L 277.911657 208.400107 
L 279.954366 211.768208 
L 281.997075 212.573671 
L 286.082493 212.517822 
L 302.424164 212.438401 
L 304.466873 212.299479 
L 308.552291 212.369178 
L 371.876269 212.369178 
L 371.876269 212.369178 
" style="fill:none;stroke:#93a1a1;stroke-linecap:square;stroke-width:1.5;"/>
    <defs>
     <path d="M -0 3 
L 3 -3 
L -3 -3 
z
" id="mc9bfa54e34" style="stroke:#93a1a1;stroke-linejoin:miter;"/>
    </defs>
    <g clip-path="url(#pb8383fd70a)">
     <use style="fill:#93a1a1;stroke:#93a1a1;stroke-linejoin:miter;" x="98.153267" xlink:href="#mc9bfa54e34" y="35.93128"/>
     <use style="fill:#93a1a1;stroke:#93a1a1;stroke-linejoin:miter;" x="159.434537" xlink:href="#mc9bfa54e34" y="47.754252"/>
     <use style="fill:#93a1a1;stroke:#93a1a1;stroke-linejoin:miter;" x="220.715806" xlink:href="#mc9bfa54e34" y="97.173333"/>
     <use style="fill:#93a1a1;stroke:#93a1a1;stroke-linejoin:miter;" x="281.997075" xlink:href="#mc9bfa54e34" y="212.573671"/>
     <use style="fill:#93a1a1;stroke:#93a1a1;stroke-linejoin:miter;" x="343.278344" xlink:href="#mc9bfa54e34" y="212.369178"/>
    </g>
   </g>
   <g id="line2d_39">
    <path clip-path="url(#pb8383fd70a)" d="M 67.512633 19.982224 
L 69.555342 23.859967 
L 71.598051 25.957822 
L 73.64076 27.596009 
L 77.726178 30.012382 
L 79.768887 30.695023 
L 81.811596 31.538183 
L 83.854305 32.260298 
L 85.897014 32.761086 
L 87.939723 30.821325 
L 89.982432 31.335009 
L 92.025141 32.274422 
L 94.06785 33.556424 
L 96.110558 35.049133 
L 98.153267 35.93128 
L 100.195976 36.336708 
L 102.238685 37.163445 
L 106.324103 38.339126 
L 108.366812 40.089215 
L 112.45223 42.83937 
L 114.494939 43.066109 
L 116.537648 43.931707 
L 118.580357 43.665476 
L 120.623066 43.163026 
L 122.665775 43.040056 
L 124.708484 42.332094 
L 126.751193 42.999612 
L 128.793902 43.251966 
L 130.836611 42.883667 
L 132.87932 41.976145 
L 134.922029 42.274921 
L 136.964738 41.027779 
L 139.007447 41.514375 
L 141.050156 41.310615 
L 143.092865 41.237509 
L 145.135574 40.032256 
L 147.178283 41.255698 
L 149.220992 42.783656 
L 151.263701 43.201488 
L 153.30641 44.801359 
L 155.349119 44.928285 
L 157.391828 46.798844 
L 159.434537 47.754252 
L 161.477245 48.064679 
L 163.519954 47.602379 
L 165.562663 48.068795 
L 167.605372 47.821128 
L 169.648081 47.697679 
L 171.69079 46.869223 
L 173.733499 48.561533 
L 175.776208 50.653233 
L 177.818917 52.236126 
L 179.861626 56.148812 
L 181.904335 57.078661 
L 183.947044 58.744676 
L 185.989753 61.406703 
L 188.032462 63.53654 
L 190.075171 64.406834 
L 194.160589 65.575159 
L 196.203298 68.238277 
L 198.246007 69.490048 
L 200.288716 71.199425 
L 204.374134 75.151119 
L 206.416843 75.785813 
L 208.459552 78.639987 
L 212.54497 81.609274 
L 214.587679 88.57673 
L 216.630388 92.557984 
L 218.673097 93.932175 
L 220.715806 96.660706 
L 222.758515 98.021392 
L 224.801224 99.041573 
L 226.843932 105.300109 
L 230.92935 113.573633 
L 232.972059 120.131784 
L 235.014768 121.229401 
L 237.057477 125.762121 
L 239.100186 131.023244 
L 241.142895 134.729417 
L 243.185604 134.580311 
L 245.228313 138.106536 
L 247.271022 141.069957 
L 249.313731 142.488891 
L 251.35644 149.218796 
L 253.399149 152.808485 
L 255.441858 157.140146 
L 257.484567 158.770569 
L 259.527276 164.084228 
L 261.569985 165.724865 
L 263.612694 169.551852 
L 265.655403 174.344259 
L 267.698112 175.056839 
L 269.740821 175.115924 
L 271.78353 175.467488 
L 275.868948 175.368484 
L 277.911657 175.215951 
L 279.954366 174.876678 
L 281.997075 173.779261 
L 284.039784 173.004657 
L 286.082493 172.838769 
L 290.167911 172.814338 
L 298.338746 171.694273 
L 306.509582 171.168343 
L 310.595 171.052262 
L 312.637709 170.708595 
L 316.723127 170.341781 
L 318.765836 169.930506 
L 322.851254 169.464553 
L 324.893963 169.117915 
L 328.979381 168.008127 
L 331.02209 167.668263 
L 333.064799 167.447145 
L 335.107508 167.392566 
L 339.192926 167.062385 
L 341.235635 166.523896 
L 343.278344 165.714785 
L 349.406471 165.070501 
L 355.534598 164.834562 
L 371.876269 164.527349 
L 371.876269 164.527349 
" style="fill:none;stroke:#93a1a1;stroke-linecap:square;stroke-width:1.5;"/>
    <defs>
     <path d="M -3 3 
L 3 3 
L 3 -3 
L -3 -3 
z
" id="m2ec9d85fb8" style="stroke:#93a1a1;stroke-linejoin:miter;"/>
    </defs>
    <g clip-path="url(#pb8383fd70a)">
     <use style="fill:#93a1a1;stroke:#93a1a1;stroke-linejoin:miter;" x="112.45223" xlink:href="#m2ec9d85fb8" y="42.83937"/>
     <use style="fill:#93a1a1;stroke:#93a1a1;stroke-linejoin:miter;" x="173.733499" xlink:href="#m2ec9d85fb8" y="48.561533"/>
     <use style="fill:#93a1a1;stroke:#93a1a1;stroke-linejoin:miter;" x="235.014768" xlink:href="#m2ec9d85fb8" y="121.229401"/>
     <use style="fill:#93a1a1;stroke:#93a1a1;stroke-linejoin:miter;" x="296.296037" xlink:href="#m2ec9d85fb8" y="171.978277"/>
     <use style="fill:#93a1a1;stroke:#93a1a1;stroke-linejoin:miter;" x="357.577307" xlink:href="#m2ec9d85fb8" y="164.786254"/>
    </g>
   </g>
   <g id="line2d_40">
    <path clip-path="url(#pb8383fd70a)" d="M 67.512633 19.982224 
L 69.555342 23.859967 
L 71.598051 25.957822 
L 73.64076 27.596009 
L 77.726178 30.012382 
L 79.768887 30.695023 
L 81.811596 31.538183 
L 83.854305 32.260298 
L 85.897014 32.761086 
L 87.939723 30.821325 
L 89.982432 31.335009 
L 92.025141 32.274422 
L 94.06785 33.556424 
L 96.110558 35.049133 
L 98.153267 35.93128 
L 100.195976 36.336708 
L 102.238685 37.163445 
L 106.324103 38.339126 
L 108.366812 40.089215 
L 112.45223 42.83937 
L 114.494939 43.066109 
L 116.537648 43.931707 
L 118.580357 43.665476 
L 120.623066 43.163026 
L 122.665775 43.040056 
L 124.708484 42.332094 
L 126.751193 42.999612 
L 128.793902 43.251966 
L 130.836611 42.883667 
L 132.87932 41.976145 
L 134.922029 42.274921 
L 136.964738 41.027779 
L 139.007447 41.514375 
L 141.050156 41.310615 
L 143.092865 41.237509 
L 145.135574 40.032256 
L 147.178283 41.255698 
L 149.220992 42.783656 
L 151.263701 43.201488 
L 153.30641 44.801359 
L 155.349119 44.928285 
L 157.391828 46.798844 
L 159.434537 47.754252 
L 161.477245 48.064679 
L 163.519954 47.602379 
L 165.562663 48.068795 
L 167.605372 47.821128 
L 169.648081 47.697679 
L 171.69079 46.869223 
L 173.733499 48.561533 
L 175.776208 50.653233 
L 177.818917 52.236126 
L 179.861626 56.148812 
L 181.904335 57.07866 
L 183.947044 58.74467 
L 185.989753 61.40661 
L 188.032462 63.535742 
L 190.075171 64.380464 
L 192.11788 64.726785 
L 194.160589 64.749562 
L 196.203298 67.60114 
L 198.246007 70.003291 
L 200.288716 71.221112 
L 204.374134 75.151598 
L 206.416843 75.788828 
L 208.459552 78.665539 
L 210.502261 80.816917 
L 212.54497 84.68444 
L 214.587679 88.250685 
L 216.630388 92.515569 
L 218.673097 93.928407 
L 220.715806 96.639961 
L 222.758515 98.010257 
L 224.801224 99.046051 
L 226.843932 105.301103 
L 230.92935 113.521236 
L 232.972059 117.540208 
L 235.014768 121.250586 
L 237.057477 125.831941 
L 239.100186 131.053611 
L 241.142895 134.931522 
L 243.185604 136.157126 
L 245.228313 137.703577 
L 247.271022 141.156424 
L 249.313731 146.442581 
L 253.399149 152.858737 
L 255.441858 158.905413 
L 257.484567 157.732378 
L 259.527276 164.626677 
L 261.569985 167.518458 
L 263.612694 172.257296 
L 265.655403 176.682669 
L 267.698112 183.454496 
L 269.740821 185.344102 
L 271.78353 191.614124 
L 273.826239 201.914947 
L 275.868948 204.664348 
L 279.954366 211.24046 
L 281.997075 211.477742 
L 341.235635 211.437908 
L 371.876269 211.437908 
L 371.876269 211.437908 
" style="fill:none;stroke:#073642;stroke-dasharray:1.5,2.475;stroke-dashoffset:0;stroke-width:1.5;"/>
   </g>
   <g id="line2d_41">
    <path clip-path="url(#pb8383fd70a)" d="M 67.512633 19.982224 
L 69.555342 23.859967 
L 71.598051 25.957822 
L 73.64076 27.596009 
L 77.726178 30.012382 
L 79.768887 30.695023 
L 81.811596 31.538183 
L 83.854305 32.260298 
L 85.897014 32.761086 
L 87.939723 30.821325 
L 89.982432 31.335009 
L 92.025141 32.274422 
L 94.06785 33.556424 
L 96.110558 35.049133 
L 98.153267 35.93128 
L 100.195976 36.336708 
L 102.238685 37.163445 
L 106.324103 38.339126 
L 108.366812 40.089215 
L 112.45223 42.83937 
L 114.494939 43.066109 
L 116.537648 43.931707 
L 118.580357 43.665476 
L 120.623066 43.163026 
L 122.665775 43.040056 
L 124.708484 42.332094 
L 126.751193 42.999612 
L 128.793902 43.251966 
L 130.836611 42.883667 
L 132.87932 41.976145 
L 134.922029 42.274921 
L 136.964738 41.027779 
L 139.007447 41.514375 
L 141.050156 41.310615 
L 143.092865 41.237509 
L 145.135574 40.032256 
L 147.178283 41.255698 
L 149.220992 42.783656 
L 151.263701 43.201488 
L 153.30641 44.801359 
L 155.349119 44.928285 
L 157.391828 46.798844 
L 159.434537 47.754252 
L 161.477245 48.064679 
L 163.519954 47.602379 
L 165.562663 48.068795 
L 167.605372 47.821128 
L 169.648081 47.697679 
L 171.69079 46.869223 
L 173.733499 48.561533 
L 175.776208 50.653233 
L 177.818917 52.236126 
L 179.861626 56.148812 
L 181.904335 57.07866 
L 183.947044 58.744666 
L 185.989753 61.406561 
L 188.032462 63.535327 
L 190.075171 64.366903 
L 192.11788 64.628702 
L 194.160589 64.671029 
L 196.203298 67.608632 
L 198.246007 70.028488 
L 200.288716 71.221934 
L 204.374134 75.151199 
L 206.416843 75.785353 
L 208.459552 78.636148 
L 210.502261 79.984814 
L 212.54497 81.593732 
L 214.587679 88.579668 
L 216.630388 92.496708 
L 218.673097 93.459406 
L 220.715806 95.678271 
L 222.758515 98.206857 
L 224.801224 99.19519 
L 226.843932 105.314429 
L 232.972059 117.86187 
L 235.014768 121.176132 
L 237.057477 125.820377 
L 239.100186 130.907115 
L 243.185604 134.975296 
L 245.228313 138.199731 
L 249.313731 141.543499 
L 251.35644 149.005251 
L 253.399149 151.174876 
L 255.441858 155.586488 
L 257.484567 159.434578 
L 259.527276 160.684937 
L 261.569985 166.003857 
L 263.612694 169.825654 
L 265.655403 174.960491 
L 267.698112 179.272144 
L 269.740821 182.750986 
L 271.78353 183.361411 
L 273.826239 184.405421 
L 279.954366 184.380959 
L 286.082493 184.268564 
L 288.125202 183.840974 
L 290.167911 182.388856 
L 292.21062 178.154551 
L 294.253328 163.252925 
L 296.296037 161.18551 
L 298.338746 132.54976 
L 300.381455 130.614343 
L 302.424164 102.003109 
L 304.466873 100.066455 
L 306.509582 71.455959 
L 308.552291 69.519271 
L 310.595 40.889712 
L 312.637709 38.909671 
L 314.680418 10.700928 
L 316.723127 3.01708 
L 318.765836 13.598313 
L 320.808545 10.777656 
L 324.893963 15.720645 
L 324.893963 15.720645 
" style="fill:none;stroke:#6c71c4;stroke-linecap:square;stroke-width:1.5;"/>
   </g>
   <g id="line2d_42">
    <path clip-path="url(#pb8383fd70a)" d="M 67.512633 19.982224 
L 69.555342 23.859967 
L 71.598051 25.957822 
L 73.64076 27.596009 
L 77.726178 30.012382 
L 79.768887 30.695023 
L 81.811596 31.538183 
L 83.854305 32.260298 
L 85.897014 32.761086 
L 87.939723 30.821325 
L 89.982432 31.335009 
L 92.025141 32.274422 
L 94.06785 33.556424 
L 96.110558 35.049133 
L 98.153267 35.93128 
L 100.195976 36.336708 
L 102.238685 37.163445 
L 106.324103 38.339126 
L 108.366812 40.089215 
L 112.45223 42.83937 
L 114.494939 43.066109 
L 116.537648 43.931707 
L 118.580357 43.665476 
L 120.623066 43.163026 
L 122.665775 43.040056 
L 124.708484 42.332094 
L 126.751193 42.999612 
L 128.793902 43.251966 
L 130.836611 42.883667 
L 132.87932 41.976145 
L 134.922029 42.274921 
L 136.964738 41.027779 
L 139.007447 41.514375 
L 141.050156 41.310615 
L 143.092865 41.237509 
L 145.135574 40.032256 
L 147.178283 41.255698 
L 149.220992 42.783656 
L 151.263701 43.201488 
L 153.30641 44.801359 
L 155.349119 44.928285 
L 157.391828 46.798844 
L 159.434537 47.754252 
L 161.477245 48.064679 
L 163.519954 47.602379 
L 165.562663 48.068795 
L 167.605372 47.821128 
L 169.648081 47.697679 
L 171.69079 46.869223 
L 173.733499 48.561533 
L 175.776208 50.653233 
L 177.818917 52.236126 
L 179.861626 56.148812 
L 181.904335 57.07866 
L 183.947044 58.744672 
L 185.989753 61.406646 
L 188.032462 63.536049 
L 190.075171 64.390551 
L 192.11788 64.80825 
L 194.160589 64.891451 
L 196.203298 67.610724 
L 198.246007 69.9629 
L 200.288716 71.219718 
L 204.374134 75.146116 
L 206.416843 75.742547 
L 208.459552 78.322257 
L 210.502261 78.041091 
L 212.54497 82.004438 
L 214.587679 88.61372 
L 216.630388 92.563261 
L 218.673097 93.962424 
L 220.715806 96.822719 
L 222.758515 98.106877 
L 224.801224 99.012821 
L 226.843932 105.289671 
L 230.92935 113.544915 
L 232.972059 118.383486 
L 235.014768 121.038505 
L 237.057477 125.828961 
L 239.100186 130.957773 
L 241.142895 133.307067 
L 243.185604 134.776923 
L 245.228313 138.207263 
L 247.271022 139.985293 
L 249.313731 141.49879 
L 251.35644 148.932406 
L 253.399149 150.984024 
L 255.441858 155.576427 
L 257.484567 159.461854 
L 259.527276 160.911455 
L 261.569985 165.997569 
L 263.612694 170.010507 
L 265.655403 176.307582 
L 267.698112 181.086391 
L 269.740821 182.377272 
L 271.78353 183.8728 
L 273.826239 184.537468 
L 281.997075 184.431136 
L 286.082493 184.380009 
L 288.125202 183.615843 
L 290.167911 179.332974 
L 292.21062 177.220713 
L 294.253328 176.052084 
L 296.296037 175.158073 
L 298.338746 174.7782 
L 302.424164 174.560686 
L 312.637709 174.42105 
L 326.936672 174.243274 
L 333.064799 173.973048 
L 337.150217 173.675269 
L 341.235635 173.131196 
L 343.278344 172.368566 
L 345.321053 174.653849 
L 347.363762 181.793706 
L 349.406471 162.642416 
L 351.44918 164.672809 
L 353.491889 170.647539 
L 355.534598 174.40618 
L 359.620015 177.565915 
L 361.662724 180.177654 
L 363.705433 186.04985 
L 367.790851 175.288727 
L 369.83356 171.585426 
L 371.876269 168.534382 
L 371.876269 168.534382 
" style="fill:none;stroke:#2aa198;stroke-linecap:square;stroke-width:1.5;"/>
   </g>
   <g id="line2d_43">
    <path clip-path="url(#pb8383fd70a)" d="M 67.512633 19.982224 
L 69.555342 23.859967 
L 71.598051 25.957822 
L 73.64076 27.596009 
L 77.726178 30.012382 
L 79.768887 30.695023 
L 81.811596 31.538183 
L 83.854305 32.260298 
L 85.897014 32.761086 
L 87.939723 30.821325 
L 89.982432 31.335009 
L 92.025141 32.274422 
L 94.06785 33.556424 
L 96.110558 35.049133 
L 98.153267 35.93128 
L 100.195976 36.336708 
L 102.238685 37.163445 
L 106.324103 38.339126 
L 108.366812 40.089215 
L 112.45223 42.83937 
L 114.494939 43.066109 
L 116.537648 43.931707 
L 118.580357 43.665476 
L 120.623066 43.163026 
L 122.665775 43.040056 
L 124.708484 42.332094 
L 126.751193 42.999612 
L 128.793902 43.251966 
L 130.836611 42.883667 
L 132.87932 41.976145 
L 134.922029 42.274921 
L 136.964738 41.027779 
L 139.007447 41.514375 
L 141.050156 41.310615 
L 143.092865 41.237509 
L 145.135574 40.032256 
L 147.178283 41.255698 
L 149.220992 42.783656 
L 151.263701 43.201488 
L 153.30641 44.801359 
L 155.349119 44.928285 
L 157.391828 46.798844 
L 159.434537 47.754252 
L 161.477245 48.064679 
L 163.519954 47.602379 
L 165.562663 48.068795 
L 167.605372 47.821128 
L 169.648081 47.697679 
L 171.69079 46.869223 
L 173.733499 48.561533 
L 175.776208 50.653233 
L 177.818917 52.236126 
L 179.861626 56.148812 
L 181.904335 57.078661 
L 183.947044 58.744676 
L 185.989753 61.406697 
L 188.032462 63.536485 
L 190.075171 64.40498 
L 194.160589 65.438991 
L 196.203298 67.968127 
L 198.246007 69.671496 
L 200.288716 71.208361 
L 204.374134 75.15153 
L 206.416843 75.788909 
L 208.459552 78.666326 
L 210.502261 80.84649 
L 212.54497 85.600367 
L 214.587679 88.338047 
L 216.630388 92.469424 
L 218.673097 93.934195 
L 220.715806 96.574127 
L 222.758515 97.968973 
L 224.801224 99.061303 
L 226.843932 105.30447 
L 230.92935 113.576163 
L 232.972059 120.370388 
L 235.014768 122.98854 
L 237.057477 126.75968 
L 241.142895 134.902777 
L 243.185604 135.797671 
L 245.228313 137.735101 
L 247.271022 141.185406 
L 249.313731 145.990793 
L 251.35644 149.136447 
L 253.399149 152.875002 
L 255.441858 159.172 
L 257.484567 159.622778 
L 259.527276 164.475363 
L 261.569985 167.110093 
L 263.612694 170.952434 
L 265.655403 176.877745 
L 267.698112 183.710644 
L 269.740821 185.326563 
L 271.78353 191.599885 
L 273.826239 202.072363 
L 275.868948 204.346217 
L 277.911657 208.079696 
L 279.954366 212.132554 
L 281.997075 212.073996 
L 284.039784 212.389988 
L 371.876269 212.393661 
L 371.876269 212.393661 
" style="fill:none;stroke:#859900;stroke-dasharray:1.5,2.475;stroke-dashoffset:0;stroke-width:1.5;"/>
   </g>
   <g id="line2d_44">
    <path clip-path="url(#pb8383fd70a)" d="M 67.512633 19.982224 
L 69.555342 23.859967 
L 71.598051 25.957822 
L 73.64076 27.596009 
L 77.726178 30.012382 
L 79.768887 30.695023 
L 81.811596 31.538183 
L 83.854305 32.260298 
L 85.897014 32.761086 
L 87.939723 30.821325 
L 89.982432 31.335009 
L 92.025141 32.274422 
L 94.06785 33.556424 
L 96.110558 35.049133 
L 98.153267 35.93128 
L 100.195976 36.336708 
L 102.238685 37.163445 
L 106.324103 38.339126 
L 108.366812 40.089215 
L 112.45223 42.83937 
L 114.494939 43.066109 
L 116.537648 43.931707 
L 118.580357 43.665476 
L 120.623066 43.163026 
L 122.665775 43.040056 
L 124.708484 42.332094 
L 126.751193 42.999612 
L 128.793902 43.251966 
L 130.836611 42.883667 
L 132.87932 41.976145 
L 134.922029 42.274921 
L 136.964738 41.027779 
L 139.007447 41.514375 
L 141.050156 41.310615 
L 143.092865 41.237509 
L 145.135574 40.032256 
L 147.178283 41.255698 
L 149.220992 42.783656 
L 151.263701 43.201488 
L 153.30641 44.801359 
L 155.349119 44.928285 
L 157.391828 46.798844 
L 159.434537 47.754252 
L 161.477245 48.064679 
L 163.519954 47.602379 
L 165.562663 48.068795 
L 167.605372 47.821128 
L 169.648081 47.697679 
L 171.69079 46.869223 
L 173.733499 48.561533 
L 175.776208 50.653233 
L 177.818917 52.236126 
L 179.861626 56.148812 
L 181.904335 57.07866 
L 183.947044 58.744672 
L 185.989753 61.406649 
L 188.032462 63.536077 
L 190.075171 64.391472 
L 192.11788 64.816087 
L 194.160589 64.910567 
L 196.203298 67.613754 
L 198.246007 69.95714 
L 200.288716 71.219556 
L 204.374134 75.151584 
L 206.416843 75.788791 
L 208.459552 78.665233 
L 210.502261 80.805949 
L 214.587679 88.27612 
L 216.630388 92.521361 
L 218.673097 93.899421 
L 220.715806 96.50253 
L 222.758515 97.992418 
L 224.801224 99.076992 
L 226.843932 105.305398 
L 230.92935 113.574557 
L 232.972059 120.216888 
L 235.014768 121.567183 
L 237.057477 125.773511 
L 239.100186 131.001442 
L 241.142895 134.473473 
L 243.185604 134.263023 
L 245.228313 138.236256 
L 247.271022 141.247494 
L 249.313731 145.565989 
L 251.35644 149.012161 
L 253.399149 152.885984 
L 255.441858 158.682314 
L 257.484567 157.738457 
L 259.527276 164.519655 
L 261.569985 166.421363 
L 263.612694 170.183368 
L 265.655403 176.576724 
L 267.698112 181.325416 
L 269.740821 185.581909 
L 271.78353 191.672568 
L 273.826239 201.157143 
L 275.868948 203.723 
L 277.911657 207.710321 
L 279.954366 210.791136 
L 281.997075 211.196183 
L 284.039784 211.019788 
L 296.296037 211.019788 
L 298.338746 210.819269 
L 371.876269 210.768035 
L 371.876269 210.768035 
" style="fill:none;stroke:#073642;stroke-linecap:square;stroke-width:1.5;"/>
   </g>
   <g id="patch_3">
    <path d="M 52.294451 232.46 
L 52.294451 10.7 
" style="fill:none;stroke:#000000;stroke-linecap:square;stroke-linejoin:miter;stroke-width:0.8;"/>
   </g>
   <g id="patch_4">
    <path d="M 387.094451 232.46 
L 387.094451 10.7 
" style="fill:none;stroke:#000000;stroke-linecap:square;stroke-linejoin:miter;stroke-width:0.8;"/>
   </g>
   <g id="patch_5">
    <path d="M 52.294451 232.46 
L 387.094451 232.46 
" style="fill:none;stroke:#000000;stroke-linecap:square;stroke-linejoin:miter;stroke-width:0.8;"/>
   </g>
   <g id="patch_6">
    <path d="M 52.294451 10.7 
L 387.094451 10.7 
" style="fill:none;stroke:#000000;stroke-linecap:square;stroke-linejoin:miter;stroke-width:0.8;"/>
   </g>
   <g id="legend_1">
    <g id="patch_7">
     <path d="M 394.094451 158.071783 
L 485.150183 158.071783 
Q 487.150183 158.071783 487.150183 156.071783 
L 487.150183 17.7 
Q 487.150183 15.7 485.150183 15.7 
L 394.094451 15.7 
Q 392.094451 15.7 392.094451 17.7 
L 392.094451 156.071783 
Q 392.094451 158.071783 394.094451 158.071783 
z
" style="fill:#ffffff;opacity:0.8;stroke:#cccccc;stroke-linejoin:miter;"/>
    </g>
    <g id="line2d_45">
     <path d="M 396.094451 23.2 
L 416.094451 23.2 
" style="fill:none;stroke:#073642;stroke-linecap:square;stroke-width:1.5;"/>
    </g>
    <g id="line2d_46"/>
    <g id="text_20">
     <!-- \textsc{{PPR-CG}} -->
     <defs>
      <path d="M 43 31.390625 
C 55.203125 31.390625 66.90625 39.171875 66.90625 49.4375 
C 66.90625 59.3125 56.296875 68 42.203125 68 
L 5.703125 68 
L 5.703125 64.890625 
L 8.09375 64.890625 
C 15.796875 64.890625 16 63.796875 16 60.203125 
L 16 7.765625 
C 16 4.1875 15.796875 3.09375 8.09375 3.09375 
L 5.703125 3.09375 
L 5.703125 0 
C 9.203125 0.296875 16.59375 0.296875 20.40625 0.296875 
C 24.203125 0.296875 31.703125 0.296875 35.203125 0 
L 35.203125 3.09375 
L 32.796875 3.09375 
C 25.09375 3.09375 24.90625 4.1875 24.90625 7.765625 
L 24.90625 31.390625 
z
M 24.59375 60.90625 
C 24.59375 64.1875 24.796875 64.890625 29.5 64.890625 
L 39.59375 64.890625 
C 56.59375 64.890625 56.59375 53.921875 56.59375 49.4375 
C 56.59375 45.15625 56.59375 34 39.59375 34 
L 24.59375 34 
z
" id="CMCSC10-80"/>
      <path d="M 24.59375 35.1875 
L 24.59375 60.921875 
C 24.59375 63.609375 24.796875 64.5 27.203125 64.796875 
C 28.09375 64.890625 31.203125 64.890625 33.203125 64.890625 
C 41.90625 64.890625 55.09375 64.890625 55.09375 50.09375 
C 55.09375 39.46875 48 35.1875 36.703125 35.1875 
z
M 47 33.890625 
C 59 36.78125 65.40625 43.34375 65.40625 50.09375 
C 65.40625 59.734375 53.203125 68 38.09375 68 
L 5.703125 68 
L 5.703125 64.890625 
L 8.09375 64.890625 
C 15.796875 64.890625 16 63.796875 16 60.21875 
L 16 7.921875 
C 16 4.359375 15.796875 3.265625 8.09375 3.265625 
L 5.703125 3.265625 
L 5.703125 0.1875 
C 9.296875 0.484375 16.40625 0.484375 20.296875 0.484375 
C 24.203125 0.484375 31.296875 0.484375 34.90625 0.1875 
L 34.90625 3.265625 
L 32.5 3.265625 
C 24.796875 3.265625 24.59375 4.359375 24.59375 7.921875 
L 24.59375 33 
L 37.09375 33 
C 42.5 33 45.703125 31.015625 47.40625 29.421875 
C 51.203125 25.75 51.203125 23.28125 51.203125 16.34375 
C 51.203125 9.5 51.203125 5.9375 55.5 2.078125 
C 59.203125 -1.109375 64.796875 -2 68.296875 -2 
C 76.296875 -2 78.203125 6.140625 78.203125 8.90625 
C 78.203125 9.5 78.203125 10.59375 76.90625 10.59375 
C 75.796875 10.59375 75.796875 9.703125 75.703125 9.015625 
C 74.90625 1.28125 70.796875 0.1875 68.703125 0.1875 
C 63.40625 0.1875 62.703125 4.65625 60.90625 16.140625 
C 59.796875 23.078125 59.40625 25.5625 56.203125 28.734375 
C 54.09375 30.90625 50.90625 32.796875 47 33.890625 
z
" id="CMCSC10-82"/>
      <path d="M 30.5 19 
L 30.5 24.796875 
L 2.59375 24.796875 
L 2.59375 19 
z
" id="CMCSC10-45"/>
      <path d="M 63.40625 62.0625 
C 60.09375 65.484375 54 71 43.703125 71 
C 24 71 7.203125 54.9375 7.203125 34.546875 
C 7.203125 14.046875 24 -2 43.796875 -2 
C 60.703125 -2 71.296875 11.640625 71.296875 23.59375 
C 71.296875 24.59375 71.296875 25.296875 70 25.296875 
C 68.90625 25.296875 68.90625 24.703125 68.796875 23.6875 
C 68 9.125 56.296875 1.09375 45.09375 1.09375 
C 36.296875 1.09375 17.5 6.3125 17.5 34.4375 
C 17.5 64.078125 38 67.890625 44.90625 67.890625 
C 55.59375 67.890625 65.796875 59.546875 68.09375 44.078125 
C 68.296875 42.671875 68.40625 42.375 69.703125 42.375 
C 71.296875 42.375 71.296875 42.671875 71.296875 44.78125 
L 71.296875 68.59375 
C 71.296875 70.296875 71.296875 71 70.203125 71 
C 69.796875 71 69.40625 71 68.59375 69.796875 
z
" id="CMCSC10-67"/>
      <path d="M 71.203125 68.59375 
C 71.203125 70.296875 71.203125 71 70.09375 71 
C 69.703125 71 69.296875 71 68.5 69.796875 
L 63.296875 62.125 
C 60.203125 65.109375 54.296875 71 43.703125 71 
C 23.796875 71 7.203125 54.859375 7.203125 34.859375 
C 7.203125 14.578125 23.59375 -2 43.90625 -2 
C 51.796875 -2 60.40625 0.59375 63.90625 6.609375 
C 65.203125 4.359375 69.203125 0.296875 70.296875 0.296875 
C 71.203125 0.296875 71.203125 1.09375 71.203125 2.625 
L 71.203125 20.390625 
C 71.203125 24.890625 72.296875 24.890625 78.5 24.890625 
L 78.5 28 
C 73.703125 27.796875 70.09375 27.6875 65.796875 27.6875 
C 61.703125 27.6875 52.796875 27.6875 49.203125 28 
L 49.203125 24.890625 
L 52.703125 24.890625 
C 62.296875 24.890625 62.296875 23.46875 62.296875 19.984375 
L 62.296875 13.453125 
C 62.296875 1.09375 46.796875 1.09375 45.59375 1.09375 
C 36.5 1.09375 17.5 6.40625 17.5 34.859375 
C 17.5 63.015625 36.703125 67.890625 44.90625 67.890625 
C 55.5 67.890625 65.703125 59.734375 68 44.3125 
C 68.203125 42.921875 68.296875 42.625 69.59375 42.625 
C 71.203125 42.625 71.203125 42.921875 71.203125 45 
z
" id="CMCSC10-71"/>
     </defs>
     <g transform="translate(424.094451 26.7)scale(0.1 -0.1)">
      <use transform="scale(0.996264)" xlink:href="#CMCSC10-80"/>
      <use transform="translate(73.888826 0)scale(0.996264)" xlink:href="#CMCSC10-80"/>
      <use transform="translate(147.777651 0)scale(0.996264)" xlink:href="#CMCSC10-82"/>
      <use transform="translate(227.478027 0)scale(0.996264)" xlink:href="#CMCSC10-45"/>
      <use transform="translate(265.114311 0)scale(0.996264)" xlink:href="#CMCSC10-67"/>
      <use transform="translate(343.431036 0)scale(0.996264)" xlink:href="#CMCSC10-71"/>
     </g>
    </g>
    <g id="line2d_47">
     <path d="M 396.094451 37.137178 
L 416.094451 37.137178 
" style="fill:none;stroke:#859900;stroke-dasharray:1.5,2.475;stroke-dashoffset:0;stroke-width:1.5;"/>
    </g>
    <g id="line2d_48"/>
    <g id="text_21">
     <!-- \textsc{{PPR-M-CG}} -->
     <defs>
      <path d="M 74.40625 65.09375 
L 74.5 64.984375 
L 74.5 7.765625 
C 74.5 4.1875 74.296875 3.09375 66.59375 3.09375 
L 64.203125 3.09375 
L 64.203125 0 
C 67.90625 0.296875 74.703125 0.296875 78.59375 0.296875 
C 82.5 0.296875 89.203125 0.296875 92.90625 0 
L 92.90625 3.09375 
L 90.5 3.09375 
C 82.796875 3.09375 82.59375 4.1875 82.59375 7.765625 
L 82.59375 60.21875 
C 82.59375 63.796875 82.796875 64.890625 90.5 64.890625 
L 92.90625 64.890625 
L 92.90625 68 
L 76 68 
C 73.703125 68 73.40625 68 72.59375 66.09375 
L 49.40625 9.46875 
L 26.203125 66.1875 
C 25.5 68 24.90625 68 22.796875 68 
L 5.90625 68 
L 5.90625 64.890625 
L 8.296875 64.890625 
C 16 64.890625 16.203125 63.796875 16.203125 60.21875 
L 16.203125 10.453125 
C 16.203125 7.765625 16.203125 3.09375 5.90625 3.09375 
L 5.90625 0 
C 9.40625 0.09375 14.296875 0.296875 17.59375 0.296875 
C 20.90625 0.296875 25.796875 0.09375 29.296875 0 
L 29.296875 3.09375 
C 19 3.09375 19 7.765625 19 10.453125 
L 19 64.296875 
L 19.09375 64.390625 
L 44.703125 1.796875 
C 45.09375 0.890625 45.59375 0 46.59375 0 
C 47.59375 0 48.09375 0.890625 48.5 1.796875 
z
" id="CMCSC10-77"/>
     </defs>
     <g transform="translate(424.094451 40.637178)scale(0.1 -0.1)">
      <use transform="scale(0.996264)" xlink:href="#CMCSC10-80"/>
      <use transform="translate(73.888826 0)scale(0.996264)" xlink:href="#CMCSC10-80"/>
      <use transform="translate(147.777651 0)scale(0.996264)" xlink:href="#CMCSC10-82"/>
      <use transform="translate(227.478027 0)scale(0.996264)" xlink:href="#CMCSC10-45"/>
      <use transform="translate(265.114311 0)scale(0.996264)" xlink:href="#CMCSC10-77"/>
      <use transform="translate(363.632776 0)scale(0.996264)" xlink:href="#CMCSC10-45"/>
      <use transform="translate(401.26906 0)scale(0.996264)" xlink:href="#CMCSC10-67"/>
      <use transform="translate(479.585785 0)scale(0.996264)" xlink:href="#CMCSC10-71"/>
     </g>
    </g>
    <g id="line2d_49">
     <path d="M 396.094451 51.074357 
L 416.094451 51.074357 
" style="fill:none;stroke:#2aa198;stroke-linecap:square;stroke-width:1.5;"/>
    </g>
    <g id="line2d_50"/>
    <g id="text_22">
     <!-- \textsc{{PP-CG}} -->
     <g transform="translate(424.094451 54.574357)scale(0.1 -0.1)">
      <use transform="scale(0.996264)" xlink:href="#CMCSC10-80"/>
      <use transform="translate(73.888826 0)scale(0.996264)" xlink:href="#CMCSC10-80"/>
      <use transform="translate(147.777651 0)scale(0.996264)" xlink:href="#CMCSC10-45"/>
      <use transform="translate(185.413935 0)scale(0.996264)" xlink:href="#CMCSC10-67"/>
      <use transform="translate(263.73066 0)scale(0.996264)" xlink:href="#CMCSC10-71"/>
     </g>
    </g>
    <g id="line2d_51">
     <path d="M 396.094451 65.011535 
L 416.094451 65.011535 
" style="fill:none;stroke:#6c71c4;stroke-linecap:square;stroke-width:1.5;"/>
    </g>
    <g id="line2d_52"/>
    <g id="text_23">
     <!-- \textsc{{P-M-CG}} -->
     <g transform="translate(424.094451 68.511535)scale(0.1 -0.1)">
      <use transform="scale(0.996264)" xlink:href="#CMCSC10-80"/>
      <use transform="translate(73.888826 0)scale(0.996264)" xlink:href="#CMCSC10-45"/>
      <use transform="translate(111.52511 0)scale(0.996264)" xlink:href="#CMCSC10-77"/>
      <use transform="translate(210.043574 0)scale(0.996264)" xlink:href="#CMCSC10-45"/>
      <use transform="translate(247.679858 0)scale(0.996264)" xlink:href="#CMCSC10-67"/>
      <use transform="translate(325.996583 0)scale(0.996264)" xlink:href="#CMCSC10-71"/>
     </g>
    </g>
    <g id="line2d_53">
     <path d="M 396.094451 78.948713 
L 416.094451 78.948713 
" style="fill:none;stroke:#073642;stroke-dasharray:1.5,2.475;stroke-dashoffset:0;stroke-width:1.5;"/>
    </g>
    <g id="line2d_54"/>
    <g id="text_24">
     <!-- \textsc{{PR-CG}} -->
     <g transform="translate(424.094451 82.448713)scale(0.1 -0.1)">
      <use transform="scale(0.996264)" xlink:href="#CMCSC10-80"/>
      <use transform="translate(73.888826 0)scale(0.996264)" xlink:href="#CMCSC10-82"/>
      <use transform="translate(153.589202 0)scale(0.996264)" xlink:href="#CMCSC10-45"/>
      <use transform="translate(191.225486 0)scale(0.996264)" xlink:href="#CMCSC10-67"/>
      <use transform="translate(269.54221 0)scale(0.996264)" xlink:href="#CMCSC10-71"/>
     </g>
    </g>
    <g id="line2d_55">
     <path d="M 396.094451 92.885892 
L 416.094451 92.885892 
" style="fill:none;stroke:#93a1a1;stroke-linecap:square;stroke-width:1.5;"/>
    </g>
    <g id="line2d_56">
     <g>
      <use style="fill:#93a1a1;stroke:#93a1a1;stroke-linejoin:miter;" x="406.094451" xlink:href="#m2ec9d85fb8" y="92.885892"/>
     </g>
    </g>
    <g id="text_25">
     <!-- \textsc{GV-CG} -->
     <defs>
      <path d="M 22.90625 60.328125 
C 22.703125 60.71875 22.40625 61.609375 22.40625 62.015625 
C 22.40625 64.890625 27.703125 64.890625 30.5 64.890625 
L 30.5 68 
C 27 67.6875 19.90625 67.6875 16.09375 67.6875 
C 11.296875 67.6875 7 67.890625 3.40625 68 
L 3.40625 64.890625 
C 11.09375 64.890625 11.90625 64.484375 13.296875 61.125 
L 38.203125 0 
C 38.796875 -1.40625 39 -2 40.59375 -2 
C 42.296875 -2 42.5 -1.5 43.09375 0 
L 66.796875 58.4375 
C 69.40625 64.890625 76 64.890625 77.90625 64.890625 
L 77.90625 68 
C 74.796875 67.796875 70.796875 67.6875 68.203125 67.6875 
C 65.203125 67.6875 59.40625 67.890625 56.796875 68 
L 56.796875 64.890625 
C 62.5 64.78125 63.90625 61.8125 63.90625 60.03125 
C 63.90625 59.53125 63.90625 59.328125 63.296875 58.046875 
L 43.59375 9.421875 
z
" id="CMCSC10-86"/>
     </defs>
     <g transform="translate(424.094451 96.385892)scale(0.1 -0.1)">
      <use transform="scale(0.996264)" xlink:href="#CMCSC10-71"/>
      <use transform="translate(84.820047 0)scale(0.996264)" xlink:href="#CMCSC10-86"/>
      <use transform="translate(165.904074 0)scale(0.996264)" xlink:href="#CMCSC10-45"/>
      <use transform="translate(203.540358 0)scale(0.996264)" xlink:href="#CMCSC10-67"/>
      <use transform="translate(281.857083 0)scale(0.996264)" xlink:href="#CMCSC10-71"/>
     </g>
    </g>
    <g id="line2d_57">
     <path d="M 396.094451 106.82307 
L 416.094451 106.82307 
" style="fill:none;stroke:#93a1a1;stroke-linecap:square;stroke-width:1.5;"/>
    </g>
    <g id="line2d_58">
     <g>
      <use style="fill:#93a1a1;stroke:#93a1a1;stroke-linejoin:miter;" x="406.094451" xlink:href="#mc9bfa54e34" y="106.82307"/>
     </g>
    </g>
    <g id="text_26">
     <!-- \textsc{M-CG} -->
     <g transform="translate(424.094451 110.32307)scale(0.1 -0.1)">
      <use transform="scale(0.996264)" xlink:href="#CMCSC10-77"/>
      <use transform="translate(98.518465 0)scale(0.996264)" xlink:href="#CMCSC10-45"/>
      <use transform="translate(136.154749 0)scale(0.996264)" xlink:href="#CMCSC10-67"/>
      <use transform="translate(214.471474 0)scale(0.996264)" xlink:href="#CMCSC10-71"/>
     </g>
    </g>
    <g id="line2d_59">
     <path d="M 396.094451 120.760248 
L 416.094451 120.760248 
" style="fill:none;stroke:#93a1a1;stroke-linecap:square;stroke-width:1.5;"/>
    </g>
    <g id="line2d_60">
     <g>
      <use style="fill:#93a1a1;stroke:#93a1a1;stroke-linejoin:miter;" x="406.094451" xlink:href="#m0a429d7d67" y="120.760248"/>
     </g>
    </g>
    <g id="text_27">
     <!-- \textsc{CG-CG} -->
     <g transform="translate(424.094451 124.260248)scale(0.1 -0.1)">
      <use transform="scale(0.996264)" xlink:href="#CMCSC10-67"/>
      <use transform="translate(78.316725 0)scale(0.996264)" xlink:href="#CMCSC10-71"/>
      <use transform="translate(163.136772 0)scale(0.996264)" xlink:href="#CMCSC10-45"/>
      <use transform="translate(200.773056 0)scale(0.996264)" xlink:href="#CMCSC10-67"/>
      <use transform="translate(279.089781 0)scale(0.996264)" xlink:href="#CMCSC10-71"/>
     </g>
    </g>
    <g id="line2d_61">
     <path d="M 396.094451 134.697427 
L 416.094451 134.697427 
" style="fill:none;stroke:#93a1a1;stroke-linecap:square;stroke-width:1.5;"/>
    </g>
    <g id="line2d_62">
     <g>
      <use style="fill:#93a1a1;stroke:#93a1a1;" x="406.094451" xlink:href="#m6e8ce31d82" y="134.697427"/>
     </g>
    </g>
    <g id="text_28">
     <!-- \textsc{HS-CG} -->
     <defs>
      <path d="M 56.59375 37 
L 24.703125 37 
L 24.703125 60.21875 
C 24.703125 63.796875 24.90625 64.890625 32.59375 64.890625 
L 35 64.890625 
L 35 68 
C 31.5 67.6875 24.09375 67.6875 20.296875 67.6875 
C 16.5 67.6875 9 67.6875 5.5 68 
L 5.5 64.890625 
L 7.90625 64.890625 
C 15.59375 64.890625 15.796875 63.796875 15.796875 60.21875 
L 15.796875 7.78125 
C 15.796875 4.1875 15.59375 3.09375 7.90625 3.09375 
L 5.5 3.09375 
L 5.5 0 
C 9 0.296875 16.40625 0.296875 20.203125 0.296875 
C 24 0.296875 31.5 0.296875 35 0 
L 35 3.09375 
L 32.59375 3.09375 
C 24.90625 3.09375 24.703125 4.1875 24.703125 7.78125 
L 24.703125 33.890625 
L 56.59375 33.890625 
L 56.59375 7.78125 
C 56.59375 4.1875 56.40625 3.09375 48.703125 3.09375 
L 46.296875 3.09375 
L 46.296875 0 
C 49.796875 0.296875 57.203125 0.296875 61 0.296875 
C 64.796875 0.296875 72.296875 0.296875 75.796875 0 
L 75.796875 3.09375 
L 73.40625 3.09375 
C 65.703125 3.09375 65.5 4.1875 65.5 7.78125 
L 65.5 60.21875 
C 65.5 63.796875 65.703125 64.890625 73.40625 64.890625 
L 75.796875 64.890625 
L 75.796875 68 
C 72.296875 67.6875 64.90625 67.6875 61.09375 67.6875 
C 57.296875 67.6875 49.796875 67.6875 46.296875 68 
L 46.296875 64.890625 
L 48.703125 64.890625 
C 56.40625 64.890625 56.59375 63.796875 56.59375 60.21875 
z
" id="CMCSC10-72"/>
      <path d="M 24.40625 42.375 
C 15.703125 44.484375 13.59375 51.421875 13.59375 55.03125 
C 13.59375 61.859375 19.296875 68.1875 27.796875 68.1875 
C 41.59375 68.1875 46.90625 58.046875 48.296875 47.796875 
C 48.5 46.5 48.5 46 49.59375 46 
C 50.90625 46 50.90625 46.5 50.90625 48.40625 
L 50.90625 68.59375 
C 50.90625 70.296875 50.90625 71 49.796875 71 
C 49.09375 71 49.09375 70.890625 48.296875 69.6875 
L 44.59375 63.765625 
C 41.90625 66.484375 37.296875 71 27.703125 71 
C 16.09375 71 7.203125 62.171875 7.203125 51.515625 
C 7.203125 45.09375 10.59375 40.5625 11.90625 39.0625 
C 16.59375 34.140625 19.59375 33.4375 27.90625 31.421875 
C 29.5 31.03125 31.203125 30.71875 32.796875 30.328125 
C 38.703125 28.921875 40.703125 28.421875 43.796875 25 
C 44.40625 24.296875 47.40625 20.875 47.40625 15.453125 
C 47.40625 8.328125 42.09375 1.09375 33 1.09375 
C 28.796875 1.09375 22.09375 1.890625 16.59375 6.21875 
C 10.09375 11.34375 9.796875 18.671875 9.703125 22.09375 
C 9.59375 22.796875 9 22.984375 8.5 22.984375 
C 7.203125 22.984375 7.203125 22.28125 7.203125 20.484375 
L 7.203125 0.390625 
C 7.203125 -1.3125 7.203125 -2 8.296875 -2 
C 9 -2 9.203125 -1.703125 9.796875 -0.8125 
L 13.5 5.203125 
C 16.296875 2.296875 22.796875 -2 33.09375 -2 
C 45.59375 -2 53.796875 8.125 53.796875 18.765625 
C 53.796875 26.8125 49 36.34375 38 39.0625 
z
" id="CMCSC10-83"/>
     </defs>
     <g transform="translate(424.094451 138.197427)scale(0.1 -0.1)">
      <use transform="scale(0.996264)" xlink:href="#CMCSC10-72"/>
      <use transform="translate(81.084027 0)scale(0.996264)" xlink:href="#CMCSC10-83"/>
      <use transform="translate(141.966208 0)scale(0.996264)" xlink:href="#CMCSC10-45"/>
      <use transform="translate(179.602492 0)scale(0.996264)" xlink:href="#CMCSC10-67"/>
      <use transform="translate(257.919217 0)scale(0.996264)" xlink:href="#CMCSC10-71"/>
     </g>
    </g>
    <g id="line2d_63">
     <path d="M 396.094451 148.634605 
L 416.094451 148.634605 
" style="fill:none;stroke:#93a1a1;stroke-dasharray:1.5,2.475;stroke-dashoffset:0;stroke-width:1.5;"/>
    </g>
    <g id="line2d_64"/>
    <g id="text_29">
     <!-- \textsc{EXACT-CG} -->
     <defs>
      <path d="M 64.09375 67.6875 
L 5.5 67.6875 
L 5.5 64.59375 
L 7.90625 64.59375 
C 15.59375 64.59375 15.796875 63.515625 15.796875 59.953125 
L 15.796875 7.8125 
C 15.796875 4.203125 15.59375 3.09375 7.90625 3.09375 
L 5.5 3.09375 
L 5.5 0 
L 65.59375 0 
L 69.796875 25.859375 
L 67.296875 25.859375 
C 64.796875 10.515625 62.40625 3.09375 44.703125 3.09375 
L 29.59375 3.09375 
C 24.90625 3.09375 24.703125 3.796875 24.703125 7.109375 
L 24.703125 33.890625 
L 34.5 33.890625 
C 44.40625 33.890625 45.796875 30.890625 45.796875 22.15625 
L 48.296875 22.15625 
L 48.296875 48.53125 
L 45.796875 48.53125 
C 45.796875 39.953125 44.40625 37 34.5 37 
L 24.703125 37 
L 24.703125 60.65625 
C 24.703125 63.90625 24.90625 64.59375 29.59375 64.59375 
L 43.90625 64.59375 
C 59.59375 64.59375 62.796875 59.5625 64.40625 45.46875 
L 66.90625 45.46875 
z
" id="CMCSC10-69"/>
      <path d="M 58.203125 58.625 
C 62.703125 64.890625 71 64.890625 73 64.890625 
L 73 68 
C 69.40625 67.890625 65.203125 67.6875 61.90625 67.6875 
C 58.203125 67.6875 52.703125 67.6875 49.09375 68 
L 49.09375 64.890625 
C 53.296875 64.796875 55 62.40625 55 60.515625 
C 55 60.015625 55 59.3125 53.90625 57.828125 
L 41.59375 40.90625 
L 27.5 60.515625 
C 26.796875 61.40625 26.796875 61.90625 26.796875 62 
C 26.796875 63.296875 29.296875 64.890625 33.09375 64.890625 
L 33.09375 68 
C 29.5 67.6875 22.203125 67.6875 18.296875 67.6875 
C 14.09375 67.6875 9.5 67.796875 5.296875 68 
L 5.296875 64.890625 
L 7.203125 64.890625 
C 13.40625 64.890625 14.90625 64 16.703125 61.40625 
L 36.40625 33.84375 
L 18.796875 9.46875 
C 14.296875 3.1875 6.40625 3.09375 3.90625 3.09375 
L 3.90625 0 
C 7.5 0.09375 11.703125 0.296875 15 0.296875 
C 19 0.296875 23.796875 0.296875 27.796875 0 
L 27.796875 3.09375 
C 23.296875 3.296875 21.90625 5.875 21.90625 7.46875 
C 21.90625 8.359375 22.203125 8.96875 22.90625 9.953125 
L 38.296875 31.15625 
L 55.09375 7.46875 
C 55.90625 6.375 55.90625 6.171875 55.90625 5.984375 
C 55.90625 5.078125 54.203125 3.1875 49.703125 3.09375 
L 49.703125 0 
C 53.203125 0.296875 60.59375 0.296875 64.40625 0.296875 
C 67.5 0.296875 73.703125 0.1875 77.40625 0 
L 77.40625 3.09375 
L 75.5 3.09375 
C 70.5 3.09375 68.203125 3.484375 65.90625 6.671875 
L 43.5 38.21875 
z
" id="CMCSC10-88"/>
      <path d="M 43.09375 69.796875 
C 42.40625 71.59375 42.296875 72 40.59375 72 
C 39 72 38.796875 71.390625 38.296875 70.09375 
L 16.203125 9.953125 
C 15.296875 7.671875 13.703125 3.1875 4.796875 3.09375 
L 4.796875 0 
C 6.90625 0.09375 10.90625 0.296875 14.90625 0.296875 
C 19.09375 0.296875 24.796875 0.09375 26.5 0 
L 26.5 3.09375 
C 21.40625 3.09375 19.09375 5.671875 19.09375 8.0625 
C 19.09375 8.671875 19.09375 8.859375 19.59375 10.0625 
L 24.40625 23 
L 51 23 
L 56.703125 7.765625 
C 57.203125 6.46875 57.203125 6.28125 57.203125 5.984375 
C 57.203125 3.09375 51.59375 3.09375 49 3.09375 
L 49 0 
C 52.59375 0.296875 59.59375 0.296875 63.40625 0.296875 
C 67.703125 0.296875 72.296875 0.1875 76.5 0 
L 76.5 3.09375 
L 74.703125 3.09375 
C 68.296875 3.09375 67.296875 3.984375 66.296875 6.78125 
z
M 49.90625 26.09375 
L 25.5 26.09375 
L 37.703125 59.46875 
z
" id="CMCSC10-65"/>
      <path d="M 71.40625 67.390625 
L 7.09375 67.390625 
L 5.203125 44.984375 
L 7.703125 44.984375 
C 9.09375 61.703125 11.09375 64.296875 26.796875 64.296875 
C 28.703125 64.296875 31.59375 64.296875 32.59375 64.09375 
C 34.796875 63.796875 34.796875 62.609375 34.796875 60.3125 
L 34.796875 7.875 
C 34.796875 4.484375 34.796875 3.09375 24.296875 3.09375 
L 20.296875 3.09375 
L 20.296875 0 
C 24.40625 0.296875 34.59375 0.296875 39.203125 0.296875 
C 43.796875 0.296875 54.09375 0.296875 58.203125 0 
L 58.203125 3.09375 
L 54.203125 3.09375 
C 43.703125 3.09375 43.703125 4.484375 43.703125 7.875 
L 43.703125 60.3125 
C 43.703125 62.609375 43.703125 63.796875 45.90625 64.09375 
C 46.90625 64.296875 49.796875 64.296875 51.703125 64.296875 
C 67.296875 64.296875 69.40625 61.703125 70.796875 44.984375 
L 73.296875 44.984375 
z
" id="CMCSC10-84"/>
     </defs>
     <g transform="translate(424.094451 152.134605)scale(0.1 -0.1)">
      <use transform="scale(0.996264)" xlink:href="#CMCSC10-69"/>
      <use transform="translate(73.888826 0)scale(0.996264)" xlink:href="#CMCSC10-88"/>
      <use transform="translate(154.972853 0)scale(0.996264)" xlink:href="#CMCSC10-65"/>
      <use transform="translate(233.151059 0)scale(0.996264)" xlink:href="#CMCSC10-67"/>
      <use transform="translate(311.467784 0)scale(0.996264)" xlink:href="#CMCSC10-84"/>
      <use transform="translate(389.784509 0)scale(0.996264)" xlink:href="#CMCSC10-45"/>
      <use transform="translate(427.420793 0)scale(0.996264)" xlink:href="#CMCSC10-67"/>
      <use transform="translate(505.737518 0)scale(0.996264)" xlink:href="#CMCSC10-71"/>
     </g>
    </g>
   </g>
  </g>
 </g>
 <defs>
  <clipPath id="pb8383fd70a">
   <rect height="221.76" width="334.8" x="52.294451" y="10.7"/>
  </clipPath>
 </defs>
</svg>
