<?xml version="1.0" encoding="utf-8" standalone="no"?>
<!DOCTYPE svg PUBLIC "-//W3C//DTD SVG 1.1//EN"
  "http://www.w3.org/Graphics/SVG/1.1/DTD/svg11.dtd">
<!-- Created with matplotlib (https://matplotlib.org/) -->
<svg height="268.371353pt" version="1.1" viewBox="0 0 507.791371 268.371353" width="507.791371pt" xmlns="http://www.w3.org/2000/svg" xmlns:xlink="http://www.w3.org/1999/xlink">
 <defs>
  <style type="text/css">
*{stroke-linecap:butt;stroke-linejoin:round;}
  </style>
 </defs>
 <g id="figure_1">
  <g id="patch_1">
   <path d="M -0 268.371353 
L 507.791371 268.371353 
L 507.791371 0 
L -0 0 
z
" style="fill:#ffffff;"/>
  </g>
  <g id="axes_1">
   <g id="patch_2">
    <path d="M 52.294451 232.46 
L 387.094451 232.46 
L 387.094451 10.7 
L 52.294451 10.7 
z
" style="fill:#ffffff;"/>
   </g>
   <g id="matplotlib.axis_1">
    <g id="xtick_1">
     <g id="line2d_1">
      <path clip-path="url(#pe47388b075)" d="M 67.512633 232.46 
L 67.512633 10.7 
" style="fill:none;stroke:#b0b0b0;stroke-dasharray:0.8,1.32;stroke-dashoffset:0;stroke-width:0.8;"/>
     </g>
     <g id="line2d_2">
      <defs>
       <path d="M 0 0 
L 0 3.5 
" id="m33871bd837" style="stroke:#000000;stroke-width:0.8;"/>
      </defs>
      <g>
       <use style="stroke:#000000;stroke-width:0.8;" x="67.512633" xlink:href="#m33871bd837" y="232.46"/>
      </g>
     </g>
     <g id="text_1">
      <!-- $0$ -->
      <defs>
       <path d="M 42 31.84375 
C 42 37.96875 41.90625 48.421875 37.703125 56.453125 
C 34 63.484375 28.09375 66 22.90625 66 
C 18.09375 66 12 63.78125 8.203125 56.5625 
C 4.203125 49.015625 3.796875 39.671875 3.796875 31.84375 
C 3.796875 26.109375 3.90625 17.375 7 9.734375 
C 11.296875 -0.609375 19 -2 22.90625 -2 
C 27.5 -2 34.5 -0.109375 38.59375 9.4375 
C 41.59375 16.375 42 24.5 42 31.84375 
z
M 22.90625 -0.40625 
C 16.5 -0.40625 12.703125 5.125 11.296875 12.75 
C 10.203125 18.6875 10.203125 27.328125 10.203125 32.953125 
C 10.203125 40.6875 10.203125 47.109375 11.5 53.234375 
C 13.40625 61.78125 19 64.390625 22.90625 64.390625 
C 27 64.390625 32.296875 61.671875 34.203125 53.4375 
C 35.5 47.71875 35.59375 40.984375 35.59375 32.953125 
C 35.59375 26.421875 35.59375 18.375 34.40625 12.453125 
C 32.296875 1.5 26.40625 -0.40625 22.90625 -0.40625 
z
" id="CMR17-48"/>
      </defs>
      <g transform="translate(65.021965 246.378498)scale(0.1 -0.1)">
       <use transform="scale(0.996264)" xlink:href="#CMR17-48"/>
      </g>
     </g>
    </g>
    <g id="xtick_2">
     <g id="line2d_3">
      <path clip-path="url(#pe47388b075)" d="M 118.282214 232.46 
L 118.282214 10.7 
" style="fill:none;stroke:#b0b0b0;stroke-dasharray:0.8,1.32;stroke-dashoffset:0;stroke-width:0.8;"/>
     </g>
     <g id="line2d_4">
      <g>
       <use style="stroke:#000000;stroke-width:0.8;" x="118.282214" xlink:href="#m33871bd837" y="232.46"/>
      </g>
     </g>
     <g id="text_2">
      <!-- $200$ -->
      <defs>
       <path d="M 41.703125 15.46875 
L 39.90625 15.46875 
C 38.90625 8.390625 38.09375 7.1875 37.703125 6.59375 
C 37.203125 5.796875 30 5.796875 28.59375 5.796875 
L 9.40625 5.796875 
C 13 9.6875 20 16.765625 28.5 24.9375 
C 34.59375 30.71875 41.703125 37.5 41.703125 47.390625 
C 41.703125 59.1875 32.296875 66 21.796875 66 
C 10.796875 66 4.09375 56.296875 4.09375 47.296875 
C 4.09375 43.390625 7 42.890625 8.203125 42.890625 
C 9.203125 42.890625 12.203125 43.484375 12.203125 46.984375 
C 12.203125 50.09375 9.59375 51 8.203125 51 
C 7.59375 51 7 50.890625 6.59375 50.6875 
C 8.5 59.1875 14.296875 63.390625 20.40625 63.390625 
C 29.09375 63.390625 34.796875 56.5 34.796875 47.390625 
C 34.796875 38.703125 29.703125 31.21875 24 24.734375 
L 4.09375 2.296875 
L 4.09375 0 
L 39.296875 0 
z
" id="CMR17-50"/>
      </defs>
      <g transform="translate(110.810211 246.378498)scale(0.1 -0.1)">
       <use transform="scale(0.996264)" xlink:href="#CMR17-50"/>
       <use transform="translate(45.690477 0)scale(0.996264)" xlink:href="#CMR17-48"/>
       <use transform="translate(91.380954 0)scale(0.996264)" xlink:href="#CMR17-48"/>
      </g>
     </g>
    </g>
    <g id="xtick_3">
     <g id="line2d_5">
      <path clip-path="url(#pe47388b075)" d="M 169.051794 232.46 
L 169.051794 10.7 
" style="fill:none;stroke:#b0b0b0;stroke-dasharray:0.8,1.32;stroke-dashoffset:0;stroke-width:0.8;"/>
     </g>
     <g id="line2d_6">
      <g>
       <use style="stroke:#000000;stroke-width:0.8;" x="169.051794" xlink:href="#m33871bd837" y="232.46"/>
      </g>
     </g>
     <g id="text_3">
      <!-- $400$ -->
      <defs>
       <path d="M 33.59375 64.796875 
C 33.59375 66.890625 33.5 67 31.703125 67 
L 2 19.59375 
L 2 17 
L 27.796875 17 
L 27.796875 7.1875 
C 27.796875 3.59375 27.59375 2.59375 20.59375 2.59375 
L 18.703125 2.59375 
L 18.703125 0 
C 21.90625 0.1875 27.296875 0.1875 30.703125 0.1875 
C 34.09375 0.1875 39.5 0.1875 42.703125 0 
L 42.703125 2.59375 
L 40.796875 2.59375 
C 33.796875 2.59375 33.59375 3.59375 33.59375 7.1875 
L 33.59375 17 
L 43.796875 17 
L 43.796875 19.59375 
L 33.59375 19.59375 
z
M 28.09375 58.171875 
L 28.09375 19.59375 
L 4 19.59375 
z
" id="CMR17-52"/>
      </defs>
      <g transform="translate(161.579791 246.378498)scale(0.1 -0.1)">
       <use transform="scale(0.996264)" xlink:href="#CMR17-52"/>
       <use transform="translate(45.690477 0)scale(0.996264)" xlink:href="#CMR17-48"/>
       <use transform="translate(91.380954 0)scale(0.996264)" xlink:href="#CMR17-48"/>
      </g>
     </g>
    </g>
    <g id="xtick_4">
     <g id="line2d_7">
      <path clip-path="url(#pe47388b075)" d="M 219.821375 232.46 
L 219.821375 10.7 
" style="fill:none;stroke:#b0b0b0;stroke-dasharray:0.8,1.32;stroke-dashoffset:0;stroke-width:0.8;"/>
     </g>
     <g id="line2d_8">
      <g>
       <use style="stroke:#000000;stroke-width:0.8;" x="219.821375" xlink:href="#m33871bd837" y="232.46"/>
      </g>
     </g>
     <g id="text_4">
      <!-- $600$ -->
      <defs>
       <path d="M 10.59375 34.34375 
C 10.59375 58 21.796875 63.6875 28.296875 63.6875 
C 30.40625 63.6875 35.5 63.265625 37.5 59.09375 
C 35.90625 59.09375 32.90625 59.09375 32.90625 55.59375 
C 32.90625 52.890625 35.09375 52 36.5 52 
C 37.40625 52 40.09375 52.390625 40.09375 55.796875 
C 40.09375 62.296875 35.09375 66 28.203125 66 
C 16.296875 66 3.796875 53.296875 3.796875 31.421875 
C 3.796875 4.015625 15.09375 -2 23.09375 -2 
C 32.796875 -2 42 6.734375 42 20.234375 
C 42 32.828125 33.90625 42 23.703125 42 
C 17.59375 42 13.09375 37.96875 10.59375 30.921875 
z
M 23.09375 0.390625 
C 10.796875 0.390625 10.796875 18.9375 10.796875 22.65625 
C 10.796875 29.90625 14.203125 40.390625 23.5 40.390625 
C 25.203125 40.390625 30.09375 40.390625 33.40625 33.4375 
C 35.203125 29.515625 35.203125 25.375 35.203125 20.34375 
C 35.203125 14.90625 35.203125 10.875 33.09375 6.84375 
C 30.90625 2.703125 27.703125 0.390625 23.09375 0.390625 
z
" id="CMR17-54"/>
      </defs>
      <g transform="translate(212.349372 246.378498)scale(0.1 -0.1)">
       <use transform="scale(0.996264)" xlink:href="#CMR17-54"/>
       <use transform="translate(45.690477 0)scale(0.996264)" xlink:href="#CMR17-48"/>
       <use transform="translate(91.380954 0)scale(0.996264)" xlink:href="#CMR17-48"/>
      </g>
     </g>
    </g>
    <g id="xtick_5">
     <g id="line2d_9">
      <path clip-path="url(#pe47388b075)" d="M 270.590956 232.46 
L 270.590956 10.7 
" style="fill:none;stroke:#b0b0b0;stroke-dasharray:0.8,1.32;stroke-dashoffset:0;stroke-width:0.8;"/>
     </g>
     <g id="line2d_10">
      <g>
       <use style="stroke:#000000;stroke-width:0.8;" x="270.590956" xlink:href="#m33871bd837" y="232.46"/>
      </g>
     </g>
     <g id="text_5">
      <!-- $800$ -->
      <defs>
       <path d="M 27.203125 35.765625 
C 33.5 38.96875 39.90625 43.796875 39.90625 51.53125 
C 39.90625 60.6875 31.09375 66 23 66 
C 13.90625 66 5.90625 59.375 5.90625 50.234375 
C 5.90625 47.71875 6.5 43.390625 10.40625 39.578125 
C 11.40625 38.578125 15.59375 35.5625 18.296875 33.65625 
C 13.796875 31.34375 3.296875 25.8125 3.296875 14.765625 
C 3.296875 4.40625 13.09375 -2 22.796875 -2 
C 33.5 -2 42.5 5.71875 42.5 15.96875 
C 42.5 25.109375 36.40625 29.328125 32.40625 32.046875 
z
M 14.09375 44.609375 
C 13.296875 45.109375 9.296875 48.21875 9.296875 52.9375 
C 9.296875 59.078125 15.59375 63.6875 22.796875 63.6875 
C 30.703125 63.6875 36.5 58.0625 36.5 51.53125 
C 36.5 42.1875 26.09375 36.859375 25.59375 36.859375 
C 25.5 36.859375 25.40625 36.859375 24.59375 37.46875 
z
M 32.5 24 
C 34 22.90625 38.796875 19.578125 38.796875 13.453125 
C 38.796875 6.015625 31.40625 0.390625 23 0.390625 
C 13.90625 0.390625 7 6.921875 7 14.859375 
C 7 22.796875 13.09375 29.4375 20 32.546875 
z
" id="CMR17-56"/>
      </defs>
      <g transform="translate(263.118953 246.378498)scale(0.1 -0.1)">
       <use transform="scale(0.996264)" xlink:href="#CMR17-56"/>
       <use transform="translate(45.690477 0)scale(0.996264)" xlink:href="#CMR17-48"/>
       <use transform="translate(91.380954 0)scale(0.996264)" xlink:href="#CMR17-48"/>
      </g>
     </g>
    </g>
    <g id="xtick_6">
     <g id="line2d_11">
      <path clip-path="url(#pe47388b075)" d="M 321.360536 232.46 
L 321.360536 10.7 
" style="fill:none;stroke:#b0b0b0;stroke-dasharray:0.8,1.32;stroke-dashoffset:0;stroke-width:0.8;"/>
     </g>
     <g id="line2d_12">
      <g>
       <use style="stroke:#000000;stroke-width:0.8;" x="321.360536" xlink:href="#m33871bd837" y="232.46"/>
      </g>
     </g>
     <g id="text_6">
      <!-- $1000$ -->
      <defs>
       <path d="M 26.59375 63.796875 
C 26.59375 65.890625 26.5 66 25.09375 66 
C 21.203125 61.359375 15.296875 59.890625 9.703125 59.6875 
C 9.40625 59.6875 8.90625 59.6875 8.796875 59.5 
C 8.703125 59.296875 8.703125 59.09375 8.703125 57 
C 11.796875 57 17 57.59375 21 59.984375 
L 21 7.296875 
C 21 3.796875 20.796875 2.59375 12.203125 2.59375 
L 9.203125 2.59375 
L 9.203125 0 
C 14 0.09375 19 0.1875 23.796875 0.1875 
C 28.59375 0.1875 33.59375 0.09375 38.40625 0 
L 38.40625 2.59375 
L 35.40625 2.59375 
C 26.796875 2.59375 26.59375 3.6875 26.59375 7.296875 
z
" id="CMR17-49"/>
      </defs>
      <g transform="translate(311.397866 246.378498)scale(0.1 -0.1)">
       <use transform="scale(0.996264)" xlink:href="#CMR17-49"/>
       <use transform="translate(45.690477 0)scale(0.996264)" xlink:href="#CMR17-48"/>
       <use transform="translate(91.380954 0)scale(0.996264)" xlink:href="#CMR17-48"/>
       <use transform="translate(137.071431 0)scale(0.996264)" xlink:href="#CMR17-48"/>
      </g>
     </g>
    </g>
    <g id="xtick_7">
     <g id="line2d_13">
      <path clip-path="url(#pe47388b075)" d="M 372.130117 232.46 
L 372.130117 10.7 
" style="fill:none;stroke:#b0b0b0;stroke-dasharray:0.8,1.32;stroke-dashoffset:0;stroke-width:0.8;"/>
     </g>
     <g id="line2d_14">
      <g>
       <use style="stroke:#000000;stroke-width:0.8;" x="372.130117" xlink:href="#m33871bd837" y="232.46"/>
      </g>
     </g>
     <g id="text_7">
      <!-- $1200$ -->
      <g transform="translate(362.167447 246.378498)scale(0.1 -0.1)">
       <use transform="scale(0.996264)" xlink:href="#CMR17-49"/>
       <use transform="translate(45.690477 0)scale(0.996264)" xlink:href="#CMR17-50"/>
       <use transform="translate(91.380954 0)scale(0.996264)" xlink:href="#CMR17-48"/>
       <use transform="translate(137.071431 0)scale(0.996264)" xlink:href="#CMR17-48"/>
      </g>
     </g>
    </g>
    <g id="text_8">
     <!-- iteration $k$ -->
     <defs>
      <path d="M 15.5 61.890625 
C 15.5 64.09375 13.703125 66 11.40625 66 
C 9.203125 66 7.296875 64.1875 7.296875 61.890625 
C 7.296875 59.6875 9.09375 57.796875 11.40625 57.796875 
C 13.59375 57.796875 15.5 59.59375 15.5 61.890625 
z
M 3.796875 42.890625 
L 3.796875 40.296875 
C 9.40625 40.296875 10.203125 39.6875 10.203125 34.859375 
L 10.203125 6.921875 
C 10.203125 3.09375 9.796875 2.59375 3.40625 2.59375 
L 3.40625 0 
C 5.796875 0.1875 10.09375 0.1875 12.59375 0.1875 
C 15 0.1875 19.09375 0.1875 21.40625 0 
L 21.40625 2.59375 
C 15.5 2.59375 15.296875 3.203125 15.296875 6.8125 
L 15.296875 44 
z
" id="CMR17-105"/>
      <path d="M 15.09375 40.390625 
L 29.09375 40.390625 
L 29.09375 43 
L 15.09375 43 
L 15.09375 62 
L 13.296875 62 
C 13.09375 51.4375 9.59375 42.1875 1.09375 41.984375 
L 1.09375 40.390625 
L 9.796875 40.390625 
L 9.796875 12.15625 
C 9.796875 10.234375 9.796875 -1 21.40625 -1 
C 27.296875 -1 30.703125 4.8125 30.703125 12.25 
L 30.703125 17.984375 
L 28.90625 17.984375 
L 28.90625 12.34375 
C 28.90625 5.421875 26.203125 0.796875 22 0.796875 
C 19.09375 0.796875 15.09375 2.796875 15.09375 11.953125 
z
" id="CMR17-116"/>
      <path d="M 38.09375 23.484375 
C 38.5 23.890625 38.5 24.09375 38.5 25.09375 
C 38.5 35.171875 33.09375 44 21.703125 44 
C 11.09375 44 2.703125 33.984375 2.703125 21.78125 
C 2.703125 8.65625 12.203125 -1 22.796875 -1 
C 34 -1 38.40625 9.671875 38.40625 11.796875 
C 38.40625 12.5 37.796875 12.5 37.59375 12.5 
C 36.90625 12.5 36.796875 12.296875 36.40625 11.078125 
C 34.203125 4.21875 28.703125 0.796875 23.5 0.796875 
C 19.203125 0.796875 14.90625 3.21875 12.203125 7.65625 
C 9.09375 12.796875 9.09375 18.75 9.09375 23.484375 
z
M 9.203125 25 
C 9.90625 39.234375 17.59375 42.390625 21.59375 42.390625 
C 28.40625 42.390625 33 36.0625 33.09375 25 
z
" id="CMR17-101"/>
      <path d="M 15 23.703125 
C 15 33.34375 19.09375 42.390625 26.59375 42.390625 
C 27.296875 42.390625 28 42.296875 28.703125 41.984375 
C 28.703125 41.984375 26.5 41.28125 26.5 38.671875 
C 26.5 36.265625 28.40625 35.265625 29.90625 35.265625 
C 31.09375 35.265625 33.296875 35.96875 33.296875 38.78125 
C 33.296875 41.984375 30.09375 44 26.703125 44 
C 19.09375 44 15.796875 36.5625 14.796875 33.046875 
L 14.703125 33.046875 
L 14.703125 44 
L 3.09375 42.890625 
L 3.09375 40.28125 
C 9 40.28125 9.90625 39.6875 9.90625 34.859375 
L 9.90625 6.921875 
C 9.90625 3.09375 9.5 2.59375 3.09375 2.59375 
L 3.09375 0 
C 5.5 0.1875 10.09375 0.1875 12.703125 0.1875 
C 15.59375 0.1875 20.703125 0.1875 23.40625 0 
L 23.40625 2.59375 
C 16.203125 2.59375 15 2.59375 15 7.109375 
z
" id="CMR17-114"/>
      <path d="M 36 25.875 
C 36 32 36 35.546875 31.796875 39.59375 
C 28.09375 42.984375 23.796875 44 20.40625 44 
C 12.5 44 6.796875 37.625 6.796875 30.890625 
C 6.796875 27.1875 9.796875 27 10.40625 27 
C 11.703125 27 14 27.796875 14 30.59375 
C 14 33.09375 12.09375 34.1875 10.40625 34.1875 
C 10 34.1875 9.5 34.09375 9.203125 34 
C 11.296875 40.53125 16.703125 42.390625 20.203125 42.390625 
C 25.203125 42.390625 30.703125 37.828125 30.703125 29.296875 
L 30.703125 25.5 
C 24.796875 25.296875 17.703125 24.5 12.09375 21.453125 
C 5.796875 17.921875 4 12.84375 4 9 
C 4 1.203125 13 -1 18.296875 -1 
C 23.796875 -1 28.90625 2.109375 31.09375 7.890625 
C 31.296875 3.421875 34.09375 -0.609375 38.5 -0.609375 
C 40.59375 -0.609375 45.90625 0.796875 45.90625 8.796875 
L 45.90625 14.46875 
L 44.09375 14.46875 
L 44.09375 8.703125 
C 44.09375 2.515625 41.40625 1.703125 40.09375 1.703125 
C 36 1.703125 36 6.96875 36 11.4375 
z
M 30.703125 13.859375 
C 30.703125 5.046875 24.5 0.59375 19 0.59375 
C 14 0.59375 10.09375 4.34375 10.09375 9 
C 10.09375 12.046875 11.40625 17.40625 17.203125 20.65625 
C 22 23.390625 27.5 23.796875 30.703125 24 
z
" id="CMR17-97"/>
      <path d="M 43.09375 21.1875 
C 43.09375 34 33.796875 44 22.90625 44 
C 12 44 2.703125 34 2.703125 21.1875 
C 2.703125 8.59375 12 -1 22.90625 -1 
C 33.796875 -1 43.09375 8.59375 43.09375 21.1875 
z
M 22.90625 0.796875 
C 18.203125 0.796875 14.203125 3.59375 11.90625 7.5 
C 9.40625 12 9.09375 17.59375 9.09375 22 
C 9.09375 26.1875 9.296875 31.390625 11.90625 35.890625 
C 13.90625 39.1875 17.796875 42.390625 22.90625 42.390625 
C 27.40625 42.390625 31.203125 39.890625 33.59375 36.390625 
C 36.703125 31.6875 36.703125 25.09375 36.703125 22 
C 36.703125 18.09375 36.5 12.09375 33.796875 7.296875 
C 31 2.6875 26.703125 0.796875 22.90625 0.796875 
z
" id="CMR17-111"/>
      <path d="M 41.5 30.53125 
C 41.5 35.65625 40.5 44 28.703125 44 
C 20.796875 44 16.703125 37.875 15.203125 33.84375 
L 15.09375 33.84375 
L 15.09375 44 
L 3.296875 42.890625 
L 3.296875 40.28125 
C 9.203125 40.28125 10.09375 39.6875 10.09375 34.859375 
L 10.09375 6.921875 
C 10.09375 3.09375 9.703125 2.59375 3.296875 2.59375 
L 3.296875 0 
C 5.703125 0.1875 10.09375 0.1875 12.703125 0.1875 
C 15.296875 0.1875 19.796875 0.1875 22.203125 0 
L 22.203125 2.59375 
C 15.796875 2.59375 15.40625 3 15.40625 6.921875 
L 15.40625 26.21875 
C 15.40625 35.453125 21 42.390625 28 42.390625 
C 35.40625 42.390625 36.203125 35.765625 36.203125 30.9375 
L 36.203125 6.921875 
C 36.203125 3.09375 35.796875 2.59375 29.40625 2.59375 
L 29.40625 0 
C 31.796875 0.1875 36.203125 0.1875 38.796875 0.1875 
C 41.40625 0.1875 45.90625 0.1875 48.296875 0 
L 48.296875 2.59375 
C 41.90625 2.59375 41.5 3 41.5 6.921875 
z
" id="CMR17-110"/>
      <path d="M 28.09375 66.484375 
C 28.203125 66.890625 28.40625 67.484375 28.40625 67.984375 
C 28.40625 69 27.40625 69 27.203125 69 
C 27.09375 69 23.5 68.6875 21.703125 68.484375 
C 20 68.390625 18.5 68.1875 16.703125 68.09375 
C 14.296875 67.890625 13.59375 67.796875 13.59375 65.984375 
C 13.59375 64.984375 14.59375 64.984375 15.59375 64.984375 
C 20.703125 64.984375 20.703125 64.109375 20.703125 63.125 
C 20.703125 62.71875 20.703125 62.53125 20.203125 60.75 
L 5.90625 3.90625 
C 5.5 2.390625 5.5 2.203125 5.5 1.59375 
C 5.5 -0.609375 7.203125 -1 8.203125 -1 
C 11 -1 11.59375 1.1875 12.40625 4.296875 
L 17.09375 23.0625 
C 24.296875 22.265625 28.59375 19.25 28.59375 14.4375 
C 28.59375 13.828125 28.59375 13.4375 28.296875 11.921875 
C 27.90625 10.421875 27.90625 9.21875 27.90625 8.71875 
C 27.90625 2.890625 31.703125 -1 36.796875 -1 
C 41.40625 -1 43.796875 3.203125 44.59375 4.609375 
C 46.703125 8.3125 48 13.9375 48 14.328125 
C 48 14.828125 47.59375 15.234375 47 15.234375 
C 46.09375 15.234375 46 14.828125 45.59375 13.234375 
C 44.203125 8.015625 42.09375 1 37 1 
C 35 1 33.703125 2 33.703125 5.8125 
C 33.703125 7.71875 34.09375 9.921875 34.5 11.421875 
C 34.90625 13.234375 34.90625 13.328125 34.90625 14.53125 
C 34.90625 20.453125 29.59375 23.765625 20.40625 24.96875 
C 24 27.171875 27.59375 31.078125 29 32.59375 
C 34.703125 38.984375 38.59375 41.984375 43.203125 41.984375 
C 45.5 41.984375 46.09375 41.484375 46.796875 41 
C 43.09375 40.59375 41.703125 37.984375 41.703125 35.984375 
C 41.703125 33.59375 43.59375 32.796875 45 32.796875 
C 47.703125 32.796875 50.09375 35.09375 50.09375 38.296875 
C 50.09375 41.15625 47.796875 44 43.296875 44 
C 37.796875 44 33.296875 40.296875 26.203125 32.296875 
C 25.203125 31.078125 21.5 27.28125 17.796875 25.875 
z
" id="CMMI12-107"/>
     </defs>
     <g transform="translate(196.885256 259.234175)scale(0.1 -0.1)">
      <use transform="scale(0.996264)" xlink:href="#CMR17-105"/>
      <use transform="translate(24.871058 0)scale(0.996264)" xlink:href="#CMR17-116"/>
      <use transform="translate(60.151826 0)scale(0.996264)" xlink:href="#CMR17-101"/>
      <use transform="translate(100.637487 0)scale(0.996264)" xlink:href="#CMR17-114"/>
      <use transform="translate(135.918255 0)scale(0.996264)" xlink:href="#CMR17-97"/>
      <use transform="translate(181.608732 0)scale(0.996264)" xlink:href="#CMR17-116"/>
      <use transform="translate(216.889499 0)scale(0.996264)" xlink:href="#CMR17-105"/>
      <use transform="translate(241.760558 0)scale(0.996264)" xlink:href="#CMR17-111"/>
      <use transform="translate(287.451035 0)scale(0.996264)" xlink:href="#CMR17-110"/>
      <use transform="translate(368.422371 0)scale(0.996264)" xlink:href="#CMMI12-107"/>
     </g>
    </g>
   </g>
   <g id="matplotlib.axis_2">
    <g id="ytick_1">
     <g id="line2d_15">
      <path clip-path="url(#pe47388b075)" d="M 52.294451 232.46 
L 387.094451 232.46 
" style="fill:none;stroke:#b0b0b0;stroke-dasharray:0.8,1.32;stroke-dashoffset:0;stroke-width:0.8;"/>
     </g>
     <g id="line2d_16">
      <defs>
       <path d="M 0 0 
L -3.5 0 
" id="mb7dea016cc" style="stroke:#000000;stroke-width:0.8;"/>
      </defs>
      <g>
       <use style="stroke:#000000;stroke-width:0.8;" x="52.294451" xlink:href="#mb7dea016cc" y="232.46"/>
      </g>
     </g>
     <g id="text_9">
      <!-- $10^{-16}$ -->
      <defs>
       <path d="M 65.90625 23 
C 67.59375 23 69.40625 23 69.40625 25 
C 69.40625 27 67.59375 27 65.90625 27 
L 11.796875 27 
C 10.09375 27 8.296875 27 8.296875 25 
C 8.296875 23 10.09375 23 11.796875 23 
z
" id="CMSY10-0"/>
      </defs>
      <g transform="translate(21.16264 235.919249)scale(0.1 -0.1)">
       <use transform="scale(0.996264)" xlink:href="#CMR17-49"/>
       <use transform="translate(45.690477 0)scale(0.996264)" xlink:href="#CMR17-48"/>
       <use transform="translate(91.380954 36.153639)scale(0.697382)" xlink:href="#CMSY10-0"/>
       <use transform="translate(145.621947 36.153639)scale(0.697382)" xlink:href="#CMR17-49"/>
       <use transform="translate(177.605129 36.153639)scale(0.697382)" xlink:href="#CMR17-54"/>
      </g>
     </g>
    </g>
    <g id="ytick_2">
     <g id="line2d_17">
      <path clip-path="url(#pe47388b075)" d="M 52.294451 205.900278 
L 387.094451 205.900278 
" style="fill:none;stroke:#b0b0b0;stroke-dasharray:0.8,1.32;stroke-dashoffset:0;stroke-width:0.8;"/>
     </g>
     <g id="line2d_18">
      <g>
       <use style="stroke:#000000;stroke-width:0.8;" x="52.294451" xlink:href="#mb7dea016cc" y="205.900278"/>
      </g>
     </g>
     <g id="text_10">
      <!-- $10^{-14}$ -->
      <g transform="translate(21.16264 209.359527)scale(0.1 -0.1)">
       <use transform="scale(0.996264)" xlink:href="#CMR17-49"/>
       <use transform="translate(45.690477 0)scale(0.996264)" xlink:href="#CMR17-48"/>
       <use transform="translate(91.380954 36.153639)scale(0.697382)" xlink:href="#CMSY10-0"/>
       <use transform="translate(145.621947 36.153639)scale(0.697382)" xlink:href="#CMR17-49"/>
       <use transform="translate(177.605129 36.153639)scale(0.697382)" xlink:href="#CMR17-52"/>
      </g>
     </g>
    </g>
    <g id="ytick_3">
     <g id="line2d_19">
      <path clip-path="url(#pe47388b075)" d="M 52.294451 179.340556 
L 387.094451 179.340556 
" style="fill:none;stroke:#b0b0b0;stroke-dasharray:0.8,1.32;stroke-dashoffset:0;stroke-width:0.8;"/>
     </g>
     <g id="line2d_20">
      <g>
       <use style="stroke:#000000;stroke-width:0.8;" x="52.294451" xlink:href="#mb7dea016cc" y="179.340556"/>
      </g>
     </g>
     <g id="text_11">
      <!-- $10^{-12}$ -->
      <g transform="translate(21.16264 182.799805)scale(0.1 -0.1)">
       <use transform="scale(0.996264)" xlink:href="#CMR17-49"/>
       <use transform="translate(45.690477 0)scale(0.996264)" xlink:href="#CMR17-48"/>
       <use transform="translate(91.380954 36.153639)scale(0.697382)" xlink:href="#CMSY10-0"/>
       <use transform="translate(145.621947 36.153639)scale(0.697382)" xlink:href="#CMR17-49"/>
       <use transform="translate(177.605129 36.153639)scale(0.697382)" xlink:href="#CMR17-50"/>
      </g>
     </g>
    </g>
    <g id="ytick_4">
     <g id="line2d_21">
      <path clip-path="url(#pe47388b075)" d="M 52.294451 152.780834 
L 387.094451 152.780834 
" style="fill:none;stroke:#b0b0b0;stroke-dasharray:0.8,1.32;stroke-dashoffset:0;stroke-width:0.8;"/>
     </g>
     <g id="line2d_22">
      <g>
       <use style="stroke:#000000;stroke-width:0.8;" x="52.294451" xlink:href="#mb7dea016cc" y="152.780834"/>
      </g>
     </g>
     <g id="text_12">
      <!-- $10^{-10}$ -->
      <g transform="translate(21.16264 156.240083)scale(0.1 -0.1)">
       <use transform="scale(0.996264)" xlink:href="#CMR17-49"/>
       <use transform="translate(45.690477 0)scale(0.996264)" xlink:href="#CMR17-48"/>
       <use transform="translate(91.380954 36.153639)scale(0.697382)" xlink:href="#CMSY10-0"/>
       <use transform="translate(145.621947 36.153639)scale(0.697382)" xlink:href="#CMR17-49"/>
       <use transform="translate(177.605129 36.153639)scale(0.697382)" xlink:href="#CMR17-48"/>
      </g>
     </g>
    </g>
    <g id="ytick_5">
     <g id="line2d_23">
      <path clip-path="url(#pe47388b075)" d="M 52.294451 126.221112 
L 387.094451 126.221112 
" style="fill:none;stroke:#b0b0b0;stroke-dasharray:0.8,1.32;stroke-dashoffset:0;stroke-width:0.8;"/>
     </g>
     <g id="line2d_24">
      <g>
       <use style="stroke:#000000;stroke-width:0.8;" x="52.294451" xlink:href="#mb7dea016cc" y="126.221112"/>
      </g>
     </g>
     <g id="text_13">
      <!-- $10^{-8}$ -->
      <g transform="translate(25.133878 129.680361)scale(0.1 -0.1)">
       <use transform="scale(0.996264)" xlink:href="#CMR17-49"/>
       <use transform="translate(45.690477 0)scale(0.996264)" xlink:href="#CMR17-48"/>
       <use transform="translate(91.380954 36.153639)scale(0.697382)" xlink:href="#CMSY10-0"/>
       <use transform="translate(145.621947 36.153639)scale(0.697382)" xlink:href="#CMR17-56"/>
      </g>
     </g>
    </g>
    <g id="ytick_6">
     <g id="line2d_25">
      <path clip-path="url(#pe47388b075)" d="M 52.294451 99.66139 
L 387.094451 99.66139 
" style="fill:none;stroke:#b0b0b0;stroke-dasharray:0.8,1.32;stroke-dashoffset:0;stroke-width:0.8;"/>
     </g>
     <g id="line2d_26">
      <g>
       <use style="stroke:#000000;stroke-width:0.8;" x="52.294451" xlink:href="#mb7dea016cc" y="99.66139"/>
      </g>
     </g>
     <g id="text_14">
      <!-- $10^{-6}$ -->
      <g transform="translate(25.133878 103.120639)scale(0.1 -0.1)">
       <use transform="scale(0.996264)" xlink:href="#CMR17-49"/>
       <use transform="translate(45.690477 0)scale(0.996264)" xlink:href="#CMR17-48"/>
       <use transform="translate(91.380954 36.153639)scale(0.697382)" xlink:href="#CMSY10-0"/>
       <use transform="translate(145.621947 36.153639)scale(0.697382)" xlink:href="#CMR17-54"/>
      </g>
     </g>
    </g>
    <g id="ytick_7">
     <g id="line2d_27">
      <path clip-path="url(#pe47388b075)" d="M 52.294451 73.101668 
L 387.094451 73.101668 
" style="fill:none;stroke:#b0b0b0;stroke-dasharray:0.8,1.32;stroke-dashoffset:0;stroke-width:0.8;"/>
     </g>
     <g id="line2d_28">
      <g>
       <use style="stroke:#000000;stroke-width:0.8;" x="52.294451" xlink:href="#mb7dea016cc" y="73.101668"/>
      </g>
     </g>
     <g id="text_15">
      <!-- $10^{-4}$ -->
      <g transform="translate(25.133878 76.560918)scale(0.1 -0.1)">
       <use transform="scale(0.996264)" xlink:href="#CMR17-49"/>
       <use transform="translate(45.690477 0)scale(0.996264)" xlink:href="#CMR17-48"/>
       <use transform="translate(91.380954 36.153639)scale(0.697382)" xlink:href="#CMSY10-0"/>
       <use transform="translate(145.621947 36.153639)scale(0.697382)" xlink:href="#CMR17-52"/>
      </g>
     </g>
    </g>
    <g id="ytick_8">
     <g id="line2d_29">
      <path clip-path="url(#pe47388b075)" d="M 52.294451 46.541946 
L 387.094451 46.541946 
" style="fill:none;stroke:#b0b0b0;stroke-dasharray:0.8,1.32;stroke-dashoffset:0;stroke-width:0.8;"/>
     </g>
     <g id="line2d_30">
      <g>
       <use style="stroke:#000000;stroke-width:0.8;" x="52.294451" xlink:href="#mb7dea016cc" y="46.541946"/>
      </g>
     </g>
     <g id="text_16">
      <!-- $10^{-2}$ -->
      <g transform="translate(25.133878 50.001196)scale(0.1 -0.1)">
       <use transform="scale(0.996264)" xlink:href="#CMR17-49"/>
       <use transform="translate(45.690477 0)scale(0.996264)" xlink:href="#CMR17-48"/>
       <use transform="translate(91.380954 36.153639)scale(0.697382)" xlink:href="#CMSY10-0"/>
       <use transform="translate(145.621947 36.153639)scale(0.697382)" xlink:href="#CMR17-50"/>
      </g>
     </g>
    </g>
    <g id="ytick_9">
     <g id="line2d_31">
      <path clip-path="url(#pe47388b075)" d="M 52.294451 19.982224 
L 387.094451 19.982224 
" style="fill:none;stroke:#b0b0b0;stroke-dasharray:0.8,1.32;stroke-dashoffset:0;stroke-width:0.8;"/>
     </g>
     <g id="line2d_32">
      <g>
       <use style="stroke:#000000;stroke-width:0.8;" x="52.294451" xlink:href="#mb7dea016cc" y="19.982224"/>
      </g>
     </g>
     <g id="text_17">
      <!-- $10^{0}$ -->
      <g transform="translate(31.360543 23.441474)scale(0.1 -0.1)">
       <use transform="scale(0.996264)" xlink:href="#CMR17-49"/>
       <use transform="translate(45.690477 0)scale(0.996264)" xlink:href="#CMR17-48"/>
       <use transform="translate(91.380954 36.153639)scale(0.697382)" xlink:href="#CMR17-48"/>
      </g>
     </g>
    </g>
    <g id="text_18">
     <!-- $\mathbf{A}$-norm of error: $\| \mathbf{x}-\mathbf{x}_k \|_\mathbf{A}$ -->
     <defs>
      <path d="M 45.796875 67.703125 
C 45.09375 69.5 44.90625 70 42.5 70 
C 40 70 39.796875 69.5 39.09375 67.703125 
L 14.296875 6.703125 
C 13.59375 5.09375 13.59375 4.890625 10.796875 4.59375 
C 8.296875 4.296875 7.90625 4.296875 5.703125 4.296875 
L 3.90625 4.296875 
L 3.90625 0 
C 6.5 0.1875 12.5 0.1875 15.40625 0.1875 
C 18.09375 0.1875 25.40625 0.1875 27.703125 0 
L 27.703125 4.296875 
C 25.5 4.296875 21.703125 4.296875 18.90625 5.40625 
C 19.203125 6.3125 19.203125 6.5 19.40625 6.90625 
L 24.703125 20 
L 51.5 20 
L 57.796875 4.296875 
L 48.40625 4.296875 
L 48.40625 0 
C 51.59375 0.1875 61.296875 0.1875 65.09375 0.1875 
C 68.296875 0.1875 78.5 0.1875 81 0 
L 81 4.296875 
L 71.5 4.296875 
z
M 38.09375 53.03125 
L 49.703125 24.296875 
L 26.40625 24.296875 
z
" id="CMBX12-65"/>
      <path d="M 25.5 19.59375 
L 25.5 24 
L 0.40625 24 
L 0.40625 19.59375 
z
" id="CMR17-45"/>
      <path d="M 67.59375 30.53125 
C 67.59375 35.5625 66.703125 44 54.796875 44 
C 48 44 43.296875 39.375 41.5 33.953125 
L 41.40625 33.953125 
C 40.203125 42.1875 34.296875 44 28.703125 44 
C 20.796875 44 16.703125 37.875 15.203125 33.84375 
L 15.09375 33.84375 
L 15.09375 44 
L 3.296875 42.890625 
L 3.296875 40.28125 
C 9.203125 40.28125 10.09375 39.6875 10.09375 34.859375 
L 10.09375 6.921875 
C 10.09375 3.09375 9.703125 2.59375 3.296875 2.59375 
L 3.296875 0 
C 5.703125 0.1875 10.09375 0.1875 12.703125 0.1875 
C 15.296875 0.1875 19.796875 0.1875 22.203125 0 
L 22.203125 2.59375 
C 15.796875 2.59375 15.40625 3 15.40625 6.921875 
L 15.40625 26.21875 
C 15.40625 35.453125 21 42.390625 28 42.390625 
C 35.40625 42.390625 36.203125 35.765625 36.203125 30.9375 
L 36.203125 6.921875 
C 36.203125 3.09375 35.796875 2.59375 29.40625 2.59375 
L 29.40625 0 
C 31.796875 0.1875 36.203125 0.1875 38.796875 0.1875 
C 41.40625 0.1875 45.90625 0.1875 48.296875 0 
L 48.296875 2.59375 
C 41.90625 2.59375 41.5 3 41.5 6.921875 
L 41.5 26.21875 
C 41.5 35.453125 47.09375 42.390625 54.09375 42.390625 
C 61.5 42.390625 62.296875 35.765625 62.296875 30.9375 
L 62.296875 6.921875 
C 62.296875 3.09375 61.90625 2.59375 55.5 2.59375 
L 55.5 0 
C 57.90625 0.1875 62.296875 0.1875 64.90625 0.1875 
C 67.5 0.1875 72 0.1875 74.40625 0 
L 74.40625 2.59375 
C 68 2.59375 67.59375 3 67.59375 6.921875 
z
" id="CMR17-109"/>
      <path d="M 15.296875 40.390625 
L 26.703125 40.390625 
L 26.703125 43 
L 15.09375 43 
L 15.09375 55.296875 
C 15.09375 63.6875 19.296875 68.390625 23.59375 68.390625 
C 24.90625 68.390625 26.40625 68.171875 27.40625 67.796875 
C 26.59375 67.59375 24.5 66.890625 24.5 64.390625 
C 24.5 61.796875 26.5 61 27.90625 61 
C 29.296875 61 31.296875 61.796875 31.296875 64.390625 
C 31.296875 68.015625 27.703125 70 23.703125 70 
C 18 70 10.203125 65.796875 10.203125 55.09375 
L 10.203125 43 
L 2.203125 43 
L 2.203125 40.390625 
L 10.203125 40.390625 
L 10.203125 6.890625 
C 10.203125 3.09375 9.796875 2.59375 3.40625 2.59375 
L 3.40625 0 
C 5.796875 0.1875 10.40625 0.1875 13 0.1875 
C 15.90625 0.1875 21 0.1875 23.703125 0 
L 23.703125 2.59375 
C 16.5 2.59375 15.296875 2.59375 15.296875 7.09375 
z
" id="CMR17-102"/>
      <path d="M 16.59375 38.890625 
C 16.59375 41.390625 14.59375 43 12.5 43 
C 10.5 43 8.40625 41.390625 8.40625 38.890625 
C 8.40625 36.390625 10.40625 34.796875 12.5 34.796875 
C 14.5 34.796875 16.59375 36.390625 16.59375 38.890625 
z
M 16.59375 4.09375 
C 16.59375 6.59375 14.59375 8.1875 12.5 8.1875 
C 10.5 8.1875 8.40625 6.59375 8.40625 4.09375 
C 8.40625 1.59375 10.40625 0 12.5 0 
C 14.5 0 16.59375 1.59375 16.59375 4.09375 
z
" id="CMR17-58"/>
      <path d="M 17.203125 71.59375 
C 17.203125 73.1875 17.203125 75 15.203125 75 
C 13.203125 75 13.203125 72.796875 13.203125 71.296875 
L 13.203125 -21.3125 
C 13.203125 -22.90625 13.203125 -25 15.203125 -25 
C 17.203125 -25 17.203125 -23.203125 17.203125 -21.609375 
z
M 36.703125 71.296875 
C 36.703125 72.890625 36.703125 75 34.703125 75 
C 32.703125 75 32.703125 73.1875 32.703125 71.59375 
L 32.703125 -21.609375 
C 32.703125 -23.203125 32.703125 -25 34.703125 -25 
C 36.703125 -25 36.703125 -22.8125 36.703125 -21.3125 
z
" id="CMSY10-107"/>
      <path d="M 33.703125 24.46875 
L 45.296875 37.609375 
C 46.40625 38.90625 47.296875 39.6875 55.59375 39.6875 
L 55.59375 44 
C 50 43.796875 49.796875 43.796875 46.40625 43.796875 
C 43.5 43.796875 39.203125 43.796875 36.40625 44 
L 36.40625 39.6875 
C 38.296875 39.6875 40.40625 39.203125 40.40625 38.5 
C 40.40625 38.3125 39.90625 37.609375 39.703125 37.421875 
L 31 27.71875 
L 21.09375 39.6875 
L 25.296875 39.6875 
L 25.296875 44 
C 23 43.796875 16.203125 43.796875 13.5 43.796875 
C 10.5 43.796875 5.09375 43.796875 2.296875 44 
L 2.296875 39.6875 
L 9.40625 39.6875 
L 25 20.90625 
L 12 6.375 
C 10.796875 4.984375 10.09375 4.296875 1.796875 4.296875 
L 1.796875 0 
C 7.796875 0.1875 8 0.1875 11.09375 0.1875 
C 14 0.1875 18.203125 0.1875 21 0 
L 21 4.296875 
C 19.09375 4.296875 17 4.78125 17 5.484375 
C 17 5.578125 17 5.671875 17.703125 6.46875 
L 27.703125 17.640625 
L 38.796875 4.296875 
L 34.59375 4.296875 
L 34.59375 0 
C 37 0.1875 43.703125 0.1875 46.5 0.1875 
C 49.5 0.1875 54.796875 0.1875 57.59375 0 
L 57.59375 4.296875 
L 50.59375 4.296875 
z
" id="CMBX12-120"/>
     </defs>
     <g transform="translate(15.225462 183.362537)rotate(-90)scale(0.1 -0.1)">
      <use transform="translate(0 14.943915)scale(0.996264)" xlink:href="#CMBX12-65"/>
      <use transform="translate(84.636395 14.943915)scale(0.996264)" xlink:href="#CMR17-45"/>
      <use transform="translate(114.712361 14.943915)scale(0.996264)" xlink:href="#CMR17-110"/>
      <use transform="translate(165.607731 14.943915)scale(0.996264)" xlink:href="#CMR17-111"/>
      <use transform="translate(211.298208 14.943915)scale(0.996264)" xlink:href="#CMR17-114"/>
      <use transform="translate(246.578976 14.943915)scale(0.996264)" xlink:href="#CMR17-109"/>
      <use transform="translate(353.574532 14.943915)scale(0.996264)" xlink:href="#CMR17-111"/>
      <use transform="translate(399.265009 14.943915)scale(0.996264)" xlink:href="#CMR17-102"/>
      <use transform="translate(456.814488 14.943915)scale(0.996264)" xlink:href="#CMR17-101"/>
      <use transform="translate(497.300148 14.943915)scale(0.996264)" xlink:href="#CMR17-114"/>
      <use transform="translate(532.580916 14.943915)scale(0.996264)" xlink:href="#CMR17-114"/>
      <use transform="translate(567.861684 14.943915)scale(0.996264)" xlink:href="#CMR17-111"/>
      <use transform="translate(613.552161 14.943915)scale(0.996264)" xlink:href="#CMR17-114"/>
      <use transform="translate(648.832929 14.943915)scale(0.996264)" xlink:href="#CMR17-58"/>
      <use transform="translate(714.189648 14.943915)scale(0.996264)" xlink:href="#CMSY10-107"/>
      <use transform="translate(764.003031 14.943915)scale(0.996264)" xlink:href="#CMBX12-120"/>
      <use transform="translate(845.295413 14.943915)scale(0.996264)" xlink:href="#CMSY10-0"/>
      <use transform="translate(944.922088 14.943915)scale(0.996264)" xlink:href="#CMBX12-120"/>
      <use transform="translate(1004.075263 0)scale(0.697382)" xlink:href="#CMMI12-107"/>
      <use transform="translate(1042.428646 14.943915)scale(0.996264)" xlink:href="#CMSY10-107"/>
      <use transform="translate(1092.242029 0)scale(0.697382)" xlink:href="#CMBX12-65"/>
     </g>
    </g>
   </g>
   <g id="line2d_33">
    <path clip-path="url(#pe47388b075)" d="M 67.512633 19.982224 
L 68.020329 21.67467 
L 68.274177 21.970416 
L 68.528025 21.899608 
L 69.03572 21.939811 
L 69.797264 21.864489 
L 70.558808 21.743436 
L 72.335743 21.693522 
L 74.620374 21.194482 
L 75.635766 21.070464 
L 77.158853 20.74458 
L 78.428093 20.62462 
L 80.205028 20.229563 
L 81.474268 20.468781 
L 82.235811 20.490942 
L 83.251203 20.434519 
L 85.281986 21.121787 
L 86.805074 21.098433 
L 88.074313 21.284061 
L 100.259012 21.520543 
L 112.69756 21.548493 
L 126.151499 21.718119 
L 134.274632 22.016332 
L 141.382373 22.567355 
L 145.443939 23.170923 
L 146.713179 23.610734 
L 147.72857 24.162164 
L 149.251658 25.072579 
L 150.774745 25.66309 
L 153.82092 26.727788 
L 155.09016 27.480497 
L 156.613247 28.732742 
L 158.64403 30.560016 
L 159.91327 31.369198 
L 160.928661 31.795598 
L 163.213293 32.436794 
L 169.305642 33.883097 
L 171.082578 34.364632 
L 174.890296 35.026326 
L 178.951863 35.700262 
L 180.728798 36.167838 
L 184.028821 37.447238 
L 185.044212 38.06142 
L 186.313452 39.176251 
L 188.344235 41.09804 
L 191.898106 43.772716 
L 196.21352 47.904602 
L 197.990455 49.145843 
L 199.259695 49.501607 
L 205.605892 51.065565 
L 207.890524 52.110137 
L 208.905915 52.736294 
L 210.429003 53.653607 
L 212.713634 54.589381 
L 214.236721 54.990583 
L 217.282896 55.802525 
L 219.567527 56.859166 
L 220.836767 57.896269 
L 222.359854 59.352939 
L 223.375246 60.679681 
L 224.898333 62.884298 
L 225.659877 63.594324 
L 226.929116 64.295132 
L 228.452204 65.102065 
L 229.467595 66.005426 
L 232.006074 68.415398 
L 233.275314 69.175891 
L 235.052249 69.942 
L 236.575337 70.60816 
L 238.098424 71.322549 
L 239.621512 71.989861 
L 240.383055 72.517501 
L 241.144599 73.412411 
L 243.683078 77.006043 
L 244.69847 77.723472 
L 249.52158 80.720648 
L 252.060059 82.456605 
L 257.137017 85.750167 
L 257.898561 86.526763 
L 261.198583 90.577665 
L 262.467823 92.213634 
L 263.483214 93.802571 
L 265.006302 96.417454 
L 265.767846 97.356536 
L 269.575564 101.029471 
L 270.590956 101.785201 
L 272.114043 102.821405 
L 273.129435 103.925878 
L 274.652522 105.680792 
L 277.444849 108.835245 
L 278.967937 110.092965 
L 280.237176 110.836623 
L 282.267959 112.064501 
L 285.060286 114.043792 
L 288.868005 117.451532 
L 290.898788 120.357148 
L 291.660332 121.624364 
L 293.691115 125.901721 
L 295.46805 129.78865 
L 296.229594 131.039439 
L 299.529617 135.642874 
L 301.5604 138.924019 
L 302.575792 141.177858 
L 306.38351 150.810875 
L 307.145054 152.310096 
L 309.683533 156.068223 
L 312.729708 161.469155 
L 314.506643 164.212242 
L 316.283578 167.564023 
L 319.583601 173.055272 
L 321.360536 175.25496 
L 322.12208 175.848138 
L 323.137472 176.275382 
L 324.406711 176.551331 
L 326.183647 176.637388 
L 334.30678 176.676805 
L 371.876269 176.643766 
L 371.876269 176.643766 
" style="fill:none;stroke:#93a1a1;stroke-linecap:square;stroke-width:1.5;"/>
    <defs>
     <path d="M 0 3 
C 0.795609 3 1.55874 2.683901 2.12132 2.12132 
C 2.683901 1.55874 3 0.795609 3 0 
C 3 -0.795609 2.683901 -1.55874 2.12132 -2.12132 
C 1.55874 -2.683901 0.795609 -3 0 -3 
C -0.795609 -3 -1.55874 -2.683901 -2.12132 -2.12132 
C -2.683901 -1.55874 -3 -0.795609 -3 0 
C -3 0.795609 -2.683901 1.55874 -2.12132 2.12132 
C -1.55874 2.683901 -0.795609 3 0 3 
z
" id="m25a15ae876" style="stroke:#93a1a1;"/>
    </defs>
    <g clip-path="url(#pe47388b075)">
     <use style="fill:#93a1a1;stroke:#93a1a1;" x="67.512633" xlink:href="#m25a15ae876" y="19.982224"/>
     <use style="fill:#93a1a1;stroke:#93a1a1;" x="128.43613" xlink:href="#m25a15ae876" y="21.765519"/>
     <use style="fill:#93a1a1;stroke:#93a1a1;" x="189.359627" xlink:href="#m25a15ae876" y="41.77897"/>
     <use style="fill:#93a1a1;stroke:#93a1a1;" x="250.283123" xlink:href="#m25a15ae876" y="81.267509"/>
     <use style="fill:#93a1a1;stroke:#93a1a1;" x="311.20662" xlink:href="#m25a15ae876" y="158.798737"/>
    </g>
   </g>
   <g id="line2d_34">
    <path clip-path="url(#pe47388b075)" d="M 67.512633 19.982224 
L 68.020329 21.67467 
L 68.274177 21.970416 
L 68.528025 21.899608 
L 69.03572 21.939811 
L 69.797264 21.864489 
L 70.558808 21.743436 
L 72.335743 21.693522 
L 74.620374 21.194482 
L 75.635766 21.070464 
L 77.158853 20.74458 
L 78.428093 20.62462 
L 80.205028 20.229563 
L 81.474268 20.468781 
L 82.235811 20.490942 
L 83.251203 20.434519 
L 85.281986 21.121787 
L 86.805074 21.098433 
L 88.074313 21.284061 
L 100.259012 21.520543 
L 112.69756 21.548499 
L 126.151499 21.716956 
L 134.274632 22.015334 
L 141.382373 22.56429 
L 145.190091 23.105835 
L 146.459331 23.508627 
L 147.474723 24.002435 
L 149.505506 25.188632 
L 151.282441 25.828563 
L 153.567072 26.602757 
L 155.09016 27.452646 
L 156.613247 28.672846 
L 158.64403 30.554135 
L 159.91327 31.360946 
L 161.182509 31.873686 
L 163.46714 32.495694 
L 168.544099 33.664863 
L 171.336425 34.416275 
L 176.159536 35.228137 
L 179.713406 35.864049 
L 181.490342 36.439184 
L 184.790364 37.881646 
L 185.805756 38.698291 
L 189.105779 41.623188 
L 190.882714 42.811228 
L 192.405801 44.348616 
L 194.690433 46.617339 
L 196.721216 48.348185 
L 197.736607 49.029059 
L 198.751999 49.38969 
L 205.85974 51.177811 
L 208.652067 52.58501 
L 210.175155 53.53457 
L 211.698242 54.211986 
L 213.729025 54.877037 
L 217.282896 55.819761 
L 219.313679 56.704073 
L 220.329071 57.482149 
L 222.106006 59.060248 
L 223.121398 60.352145 
L 225.406029 63.417327 
L 226.421421 64.036806 
L 228.452204 65.169526 
L 229.721443 66.34702 
L 230.990683 67.645476 
L 232.259922 68.60197 
L 233.529162 69.313546 
L 235.306097 70.065703 
L 236.575337 70.641044 
L 238.098424 71.336091 
L 239.367664 71.865224 
L 240.129207 72.352 
L 240.890751 73.156411 
L 241.652295 74.31557 
L 242.667686 75.928348 
L 243.42923 76.831675 
L 244.444622 77.580461 
L 250.029276 81.095534 
L 252.821603 82.983304 
L 257.137017 85.759118 
L 257.898561 86.580959 
L 260.944735 90.338336 
L 261.960127 91.594013 
L 263.483214 93.937492 
L 265.006302 96.553271 
L 265.767846 97.418081 
L 270.08326 101.458621 
L 272.621739 103.413029 
L 277.444849 108.922164 
L 278.967937 110.170176 
L 284.298743 113.535638 
L 288.360309 116.91034 
L 289.375701 118.173343 
L 291.406484 121.145031 
L 292.675723 123.741591 
L 295.975746 130.889572 
L 297.244986 132.520043 
L 298.260377 133.8806 
L 301.5604 139.170389 
L 302.575792 141.519221 
L 306.38351 150.887481 
L 307.145054 152.392099 
L 309.175837 155.339627 
L 312.983556 161.930835 
L 314.252795 163.862889 
L 315.014339 165.359494 
L 316.283578 167.838646 
L 318.822057 172.418777 
L 322.375928 179.240807 
L 323.39132 180.579166 
L 324.152863 181.300474 
L 324.914407 181.686823 
L 325.929799 181.901425 
L 328.722126 182.121491 
L 334.052932 182.158562 
L 342.68376 182.045904 
L 344.460696 181.842426 
L 345.476087 181.559079 
L 346.237631 181.127933 
L 346.745327 180.601625 
L 347.506871 179.349149 
L 348.77611 177.089802 
L 349.537654 176.241629 
L 350.299197 175.728813 
L 351.314589 175.372977 
L 352.583829 175.179391 
L 355.122308 175.102911 
L 371.876269 175.08724 
L 371.876269 175.08724 
" style="fill:none;stroke:#93a1a1;stroke-linecap:square;stroke-width:1.5;"/>
    <defs>
     <path d="M 0 -3 
L -3 3 
L 3 3 
z
" id="m6d78f6930a" style="stroke:#93a1a1;stroke-linejoin:miter;"/>
    </defs>
    <g clip-path="url(#pe47388b075)">
     <use style="fill:#93a1a1;stroke:#93a1a1;stroke-linejoin:miter;" x="82.743507" xlink:href="#m6d78f6930a" y="20.401485"/>
     <use style="fill:#93a1a1;stroke:#93a1a1;stroke-linejoin:miter;" x="143.667004" xlink:href="#m6d78f6930a" y="22.854103"/>
     <use style="fill:#93a1a1;stroke:#93a1a1;stroke-linejoin:miter;" x="204.590501" xlink:href="#m6d78f6930a" y="50.713223"/>
     <use style="fill:#93a1a1;stroke:#93a1a1;stroke-linejoin:miter;" x="265.513998" xlink:href="#m6d78f6930a" y="97.162273"/>
     <use style="fill:#93a1a1;stroke:#93a1a1;stroke-linejoin:miter;" x="326.437495" xlink:href="#m6d78f6930a" y="181.959055"/>
    </g>
   </g>
   <g id="line2d_35">
    <path clip-path="url(#pe47388b075)" d="M 67.512633 19.982224 
L 68.020329 21.67467 
L 68.274177 21.970416 
L 68.528025 21.899608 
L 69.03572 21.939811 
L 69.797264 21.864489 
L 70.558808 21.743436 
L 72.335743 21.693522 
L 74.620374 21.194482 
L 75.635766 21.070464 
L 77.158853 20.74458 
L 78.428093 20.62462 
L 80.205028 20.229563 
L 81.474268 20.468781 
L 82.235811 20.490942 
L 83.251203 20.434519 
L 85.281986 21.121787 
L 86.805074 21.098433 
L 88.074313 21.284061 
L 100.259012 21.520543 
L 112.69756 21.548685 
L 125.897651 21.711732 
L 133.513088 21.964165 
L 141.890069 22.626163 
L 145.697787 23.242828 
L 146.967027 23.725302 
L 147.982418 24.34898 
L 149.251658 25.07413 
L 150.774745 25.653749 
L 154.074768 26.829706 
L 155.344008 27.581764 
L 156.867095 28.856334 
L 158.64403 30.528853 
L 159.659422 31.185038 
L 160.674814 31.67604 
L 162.705597 32.306271 
L 165.244076 32.85919 
L 169.051794 33.800262 
L 171.336425 34.409446 
L 175.65184 35.142141 
L 180.221102 35.984896 
L 181.74419 36.521812 
L 184.282669 37.561943 
L 185.29806 38.209661 
L 186.313452 39.12943 
L 188.090387 40.838806 
L 189.867322 42.052137 
L 190.882714 42.742115 
L 192.151954 43.962666 
L 194.690433 46.522252 
L 197.228912 48.627476 
L 197.990455 49.091993 
L 199.005847 49.42379 
L 205.85974 51.130804 
L 208.398219 52.380542 
L 210.429003 53.644242 
L 212.713634 54.572961 
L 214.490569 55.037595 
L 217.029048 55.692049 
L 219.567527 56.799354 
L 220.582919 57.574083 
L 222.613702 59.536506 
L 223.882942 61.312793 
L 225.152181 63.04502 
L 225.913725 63.688605 
L 226.929116 64.232021 
L 228.452204 65.050366 
L 229.213747 65.691021 
L 232.259922 68.479021 
L 233.529162 69.252267 
L 235.306097 70.00318 
L 236.829185 70.694081 
L 238.098424 71.295804 
L 239.621512 71.928681 
L 240.636903 72.668344 
L 241.398447 73.608547 
L 243.42923 76.654499 
L 244.190774 77.32544 
L 245.967709 78.426955 
L 248.25234 79.750434 
L 253.07545 83.019793 
L 256.883169 85.478375 
L 257.644713 86.132957 
L 259.1678 87.947673 
L 260.944735 90.111923 
L 262.213975 91.651981 
L 263.229367 93.124909 
L 265.513998 96.845619 
L 266.275541 97.672168 
L 267.798629 99.141299 
L 269.067868 100.451226 
L 270.844804 101.822144 
L 272.114043 102.670164 
L 272.875587 103.386812 
L 275.921762 106.995001 
L 277.191001 108.381786 
L 278.714089 109.753924 
L 279.983328 110.576554 
L 281.252568 111.298886 
L 284.044895 113.136099 
L 285.314134 114.128115 
L 287.344917 115.86232 
L 288.360309 116.643409 
L 289.121853 117.446043 
L 290.137244 118.823053 
L 291.91418 121.646078 
L 294.198811 126.445121 
L 295.975746 130.193708 
L 296.991138 131.672874 
L 299.275769 134.707351 
L 301.814248 138.75587 
L 302.82964 140.936122 
L 304.860423 146.03386 
L 305.875814 148.659155 
L 307.145054 151.63901 
L 308.160445 153.187957 
L 309.429685 154.951533 
L 311.714316 158.849231 
L 313.237404 161.5754 
L 315.014339 164.301022 
L 317.552818 168.936687 
L 321.106689 174.541687 
L 322.12208 175.720145 
L 322.883624 176.274223 
L 323.899016 176.680674 
L 324.914407 176.913962 
L 326.691342 177.019679 
L 334.30678 177.067815 
L 353.59922 177.068546 
L 353.59922 177.068546 
" style="fill:none;stroke:#93a1a1;stroke-linecap:square;stroke-width:1.5;"/>
    <defs>
     <path d="M -0 3 
L 3 -3 
L -3 -3 
z
" id="ma9a1587c2d" style="stroke:#93a1a1;stroke-linejoin:miter;"/>
    </defs>
    <g clip-path="url(#pe47388b075)">
     <use style="fill:#93a1a1;stroke:#93a1a1;stroke-linejoin:miter;" x="97.974381" xlink:href="#ma9a1587c2d" y="21.484164"/>
     <use style="fill:#93a1a1;stroke:#93a1a1;stroke-linejoin:miter;" x="158.897878" xlink:href="#ma9a1587c2d" y="30.72503"/>
     <use style="fill:#93a1a1;stroke:#93a1a1;stroke-linejoin:miter;" x="219.821375" xlink:href="#ma9a1587c2d" y="56.970495"/>
     <use style="fill:#93a1a1;stroke:#93a1a1;stroke-linejoin:miter;" x="280.744872" xlink:href="#ma9a1587c2d" y="110.983298"/>
     <use style="fill:#93a1a1;stroke:#93a1a1;stroke-linejoin:miter;" x="341.668369" xlink:href="#ma9a1587c2d" y="177.068557"/>
    </g>
   </g>
   <g id="line2d_36">
    <path clip-path="url(#pe47388b075)" d="M 67.512633 19.982224 
L 68.020329 21.67467 
L 68.274177 21.970416 
L 68.528025 21.899608 
L 69.03572 21.939811 
L 69.797264 21.864489 
L 70.558808 21.743436 
L 72.335743 21.693522 
L 74.620374 21.194482 
L 75.635766 21.070464 
L 77.158853 20.74458 
L 78.428093 20.62462 
L 80.205028 20.229563 
L 81.474268 20.468781 
L 82.235811 20.490942 
L 83.251203 20.434519 
L 85.281986 21.121787 
L 86.805074 21.098433 
L 88.074313 21.284061 
L 100.259012 21.520543 
L 112.69756 21.548491 
L 126.151499 21.716277 
L 134.020784 21.995646 
L 141.636221 22.591256 
L 145.697787 23.202463 
L 146.967027 23.661547 
L 147.982418 24.253663 
L 149.251658 25.023832 
L 150.520897 25.538983 
L 154.836312 27.20231 
L 156.105551 28.148483 
L 157.374791 29.31028 
L 158.897878 30.66588 
L 160.167118 31.432981 
L 161.436357 31.927887 
L 163.974836 32.570453 
L 168.797946 33.687782 
L 171.590273 34.432075 
L 176.159536 35.206438 
L 180.221102 35.955602 
L 181.74419 36.483012 
L 184.790364 37.785156 
L 186.059604 38.737767 
L 187.328843 40.016854 
L 188.598083 41.12255 
L 191.898106 43.520358 
L 193.675041 45.331214 
L 194.944281 46.563639 
L 197.736607 48.906034 
L 198.498151 49.258085 
L 200.275086 49.707247 
L 205.352045 50.87971 
L 207.636676 51.866083 
L 208.905915 52.573456 
L 210.682851 53.691146 
L 212.459786 54.415609 
L 213.982873 54.886003 
L 217.790592 55.899002 
L 219.567527 56.684489 
L 220.582919 57.40262 
L 222.86755 59.600047 
L 223.882942 61.005716 
L 225.406029 63.060518 
L 226.167573 63.715876 
L 227.69066 64.501942 
L 228.706052 65.073921 
L 229.721443 65.961351 
L 232.006074 68.176034 
L 233.275314 68.982347 
L 234.798401 69.709409 
L 240.129207 72.087119 
L 240.890751 72.666369 
L 241.652295 73.648264 
L 243.175382 76.128376 
L 243.936926 76.930992 
L 244.952318 77.650702 
L 250.536971 81.156393 
L 252.313907 82.369567 
L 257.390865 85.632232 
L 258.152408 86.332002 
L 260.944735 89.777823 
L 263.229367 92.647255 
L 266.275541 97.406542 
L 270.08326 101.019136 
L 271.098652 101.728565 
L 272.367891 102.532533 
L 273.383283 103.519804 
L 275.667914 105.999281 
L 277.191001 107.532432 
L 278.714089 108.688341 
L 279.983328 109.41443 
L 284.55259 111.645913 
L 288.106461 113.46223 
L 291.406484 114.601065 
L 292.675723 114.732522 
L 294.960355 114.66874 
L 298.768073 114.550133 
L 312.729708 114.402146 
L 313.998947 114.153122 
L 314.760491 113.807296 
L 315.268187 113.27496 
L 315.522035 112.724138 
L 315.775883 111.454486 
L 316.029731 107.013671 
L 316.283578 111.569705 
L 316.537426 118.716323 
L 317.045122 117.096245 
L 317.552818 116.362292 
L 318.314362 115.915353 
L 319.329753 115.670327 
L 321.106689 115.5346 
L 325.929799 115.477102 
L 333.03754 115.362834 
L 333.799084 115.195041 
L 334.052932 115.052705 
L 334.30678 114.742223 
L 334.560627 113.731953 
L 334.814475 116.862236 
L 335.068323 117.101212 
L 335.322171 116.407622 
L 335.829867 116.054065 
L 336.591411 115.902025 
L 338.622194 115.803608 
L 354.106916 115.438428 
L 356.391547 115.165159 
L 357.660787 114.81222 
L 358.168482 114.481725 
L 358.42233 114.166976 
L 358.676178 113.560492 
L 358.930026 112.0821 
L 359.183874 103.90659 
L 359.437722 117.075026 
L 359.69157 118.257691 
L 360.199266 117.090313 
L 360.706962 116.64273 
L 361.468505 116.366034 
L 362.737745 116.186996 
L 366.037768 116.073508 
L 369.591638 115.863566 
L 371.876269 115.757993 
L 371.876269 115.757993 
" style="fill:none;stroke:#93a1a1;stroke-linecap:square;stroke-width:1.5;"/>
    <defs>
     <path d="M -3 3 
L 3 3 
L 3 -3 
L -3 -3 
z
" id="mcc0daaa9e1" style="stroke:#93a1a1;stroke-linejoin:miter;"/>
    </defs>
    <g clip-path="url(#pe47388b075)">
     <use style="fill:#93a1a1;stroke:#93a1a1;stroke-linejoin:miter;" x="113.205256" xlink:href="#mcc0daaa9e1" y="21.550727"/>
     <use style="fill:#93a1a1;stroke:#93a1a1;stroke-linejoin:miter;" x="174.128752" xlink:href="#mcc0daaa9e1" y="34.901778"/>
     <use style="fill:#93a1a1;stroke:#93a1a1;stroke-linejoin:miter;" x="235.052249" xlink:href="#mcc0daaa9e1" y="69.817133"/>
     <use style="fill:#93a1a1;stroke:#93a1a1;stroke-linejoin:miter;" x="295.975746" xlink:href="#mcc0daaa9e1" y="114.616421"/>
     <use style="fill:#93a1a1;stroke:#93a1a1;stroke-linejoin:miter;" x="356.899243" xlink:href="#mcc0daaa9e1" y="115.060099"/>
    </g>
   </g>
   <g id="line2d_37">
    <path clip-path="url(#pe47388b075)" d="M 67.512633 19.982224 
L 68.020329 21.67467 
L 68.274177 21.970416 
L 68.528025 21.899608 
L 69.03572 21.939811 
L 69.797264 21.864489 
L 70.558808 21.743436 
L 72.335743 21.693522 
L 74.620374 21.194482 
L 75.635766 21.070464 
L 77.158853 20.74458 
L 78.428093 20.62462 
L 80.205028 20.229563 
L 81.474268 20.468781 
L 82.235811 20.490942 
L 83.251203 20.434519 
L 85.281986 21.121787 
L 86.805074 21.098433 
L 88.074313 21.284061 
L 100.259012 21.520543 
L 112.69756 21.548491 
L 126.405347 21.719985 
L 134.274632 22.005747 
L 141.636221 22.57493 
L 145.697787 23.186776 
L 146.967027 23.623881 
L 147.982418 24.193774 
L 149.251658 24.96179 
L 150.520897 25.496418 
L 154.582464 26.976372 
L 155.597855 27.642884 
L 157.120943 28.945602 
L 158.64403 30.318055 
L 159.659422 31.042639 
L 161.182509 31.763929 
L 163.213293 32.362482 
L 166.767163 33.131237 
L 169.55949 33.862006 
L 171.082578 34.281716 
L 174.3826 34.907851 
L 179.967254 35.822411 
L 181.490342 36.2875 
L 185.044212 37.776781 
L 186.313452 38.720235 
L 187.328843 39.74431 
L 188.344235 40.703499 
L 190.12117 41.941349 
L 191.644258 43.014998 
L 197.736607 48.666337 
L 198.498151 49.113219 
L 199.767391 49.492164 
L 206.621284 51.24751 
L 209.413611 52.673449 
L 210.936698 53.603093 
L 212.459786 54.242052 
L 213.982873 54.766223 
L 218.552136 56.027928 
L 220.075223 56.699556 
L 220.836767 57.207412 
L 222.86755 59.006357 
L 223.882942 60.230524 
L 225.913725 63.019862 
L 226.675268 63.685899 
L 227.944508 64.352077 
L 229.213747 65.0418 
L 230.229139 65.90328 
L 232.767618 68.329678 
L 234.036858 69.129714 
L 235.559945 69.82675 
L 237.590728 70.686803 
L 239.367664 71.452713 
L 240.636903 72.030329 
L 241.398447 72.612911 
L 242.159991 73.53857 
L 244.444622 76.815173 
L 245.460013 77.580497 
L 247.236949 78.614506 
L 249.013884 79.631693 
L 252.821603 82.286114 
L 258.152408 85.692174 
L 258.913952 86.398745 
L 263.737062 92.375987 
L 264.752454 93.977209 
L 266.021694 96.118972 
L 266.783237 97.09776 
L 268.052477 98.315709 
L 269.575564 99.912323 
L 270.844804 101.040267 
L 272.114043 101.955236 
L 273.383283 102.83445 
L 274.144826 103.638152 
L 276.429458 106.289221 
L 278.460241 108.54223 
L 279.983328 109.860094 
L 280.99872 110.527918 
L 283.283351 111.82086 
L 285.567982 113.361954 
L 286.837222 114.384806 
L 288.360309 115.664338 
L 289.629549 116.601411 
L 290.64494 117.671802 
L 292.421875 120.109589 
L 293.437267 121.824161 
L 295.975746 127.015621 
L 297.244986 129.659701 
L 298.006529 130.947143 
L 299.529617 132.875732 
L 301.306552 134.935611 
L 302.068096 135.539525 
L 303.083487 135.994973 
L 304.352727 136.296527 
L 305.368119 136.288666 
L 309.429685 136.066585 
L 320.852841 136.055608 
L 322.375928 136.055608 
L 322.375928 136.055608 
" style="fill:none;stroke:#6c71c4;stroke-linecap:square;stroke-width:1.5;"/>
   </g>
   <g id="line2d_38">
    <path clip-path="url(#pe47388b075)" d="M 67.512633 19.982224 
L 68.020329 21.67467 
L 68.274177 21.970416 
L 68.528025 21.899608 
L 69.03572 21.939811 
L 69.797264 21.864489 
L 70.558808 21.743436 
L 72.335743 21.693522 
L 74.620374 21.194482 
L 75.635766 21.070464 
L 77.158853 20.74458 
L 78.428093 20.62462 
L 80.205028 20.229563 
L 81.474268 20.468781 
L 82.235811 20.490942 
L 83.251203 20.434519 
L 85.281986 21.121787 
L 86.805074 21.098433 
L 88.074313 21.284061 
L 100.259012 21.520543 
L 112.69756 21.548492 
L 126.151499 21.716939 
L 134.274632 22.012316 
L 141.636221 22.591335 
L 145.697787 23.220137 
L 146.967027 23.693295 
L 147.982418 24.305973 
L 149.251658 25.02773 
L 150.520897 25.541886 
L 154.836312 27.196948 
L 155.851703 27.932876 
L 159.659422 31.141367 
L 160.674814 31.656546 
L 162.451749 32.213112 
L 165.497924 32.890839 
L 168.797946 33.699091 
L 171.336425 34.385071 
L 176.159536 35.20427 
L 180.221102 35.951078 
L 181.74419 36.481944 
L 184.790364 37.831961 
L 185.805756 38.609164 
L 187.074995 39.860245 
L 188.344235 40.965149 
L 189.867322 41.977485 
L 191.136562 42.882227 
L 192.659649 44.336402 
L 195.198128 46.839693 
L 197.228912 48.559437 
L 197.990455 49.051244 
L 199.005847 49.403202 
L 205.605892 50.978836 
L 208.144371 52.162361 
L 209.413611 52.979222 
L 210.429003 53.59216 
L 211.95209 54.233726 
L 213.982873 54.879716 
L 217.536744 55.8169 
L 219.567527 56.697904 
L 220.582919 57.424448 
L 222.86755 59.586774 
L 223.882942 60.994841 
L 225.406029 63.090038 
L 226.167573 63.737973 
L 227.436812 64.396013 
L 228.706052 65.115397 
L 229.721443 66.030252 
L 232.259922 68.39643 
L 233.529162 69.150216 
L 235.559945 70.011939 
L 236.829185 70.577357 
L 238.352272 71.300886 
L 239.875359 71.961294 
L 240.636903 72.501799 
L 241.398447 73.385909 
L 242.159991 74.564809 
L 243.175382 76.17845 
L 243.936926 76.965369 
L 245.206165 77.841568 
L 249.52158 80.518009 
L 251.552363 81.934239 
L 257.898561 86.140336 
L 258.913952 87.351019 
L 260.944735 89.872676 
L 262.721671 92.016466 
L 263.737062 93.511603 
L 265.513998 96.5151 
L 266.529389 97.645168 
L 268.052477 99.098367 
L 269.321716 100.394761 
L 270.844804 101.644216 
L 272.875587 103.066748 
L 275.160218 105.76235 
L 278.206393 109.122783 
L 279.475632 110.159983 
L 281.252568 111.156394 
L 283.537199 112.598433 
L 285.82183 114.282067 
L 287.852613 115.954895 
L 288.868005 116.782156 
L 289.629549 117.619808 
L 291.660332 120.539665 
L 292.421875 121.953215 
L 294.706507 126.828973 
L 296.229594 130.048197 
L 296.991138 131.257898 
L 299.783465 134.916968 
L 302.321944 139.031593 
L 303.083487 140.692967 
L 307.65275 151.85268 
L 308.668141 153.358099 
L 310.191229 155.558289 
L 312.222012 159.146354 
L 314.252795 162.545387 
L 315.268187 164.112203 
L 316.029731 165.687783 
L 317.045122 167.682352 
L 318.822057 170.794886 
L 321.868232 177.192854 
L 323.39132 180.873473 
L 325.422103 184.966193 
L 326.183647 185.729059 
L 326.94519 186.042436 
L 329.483669 186.574553 
L 331.768301 186.619234 
L 349.283806 186.709648 
L 349.283806 186.709648 
" style="fill:none;stroke:#859900;stroke-dasharray:1.5,2.475;stroke-dashoffset:0;stroke-width:1.5;"/>
   </g>
   <g id="line2d_39">
    <path clip-path="url(#pe47388b075)" d="M 67.512633 19.982224 
L 68.020329 21.67467 
L 68.274177 21.970416 
L 68.528025 21.899608 
L 69.03572 21.939811 
L 69.797264 21.864489 
L 70.558808 21.743436 
L 72.335743 21.693522 
L 74.620374 21.194482 
L 75.635766 21.070464 
L 77.158853 20.74458 
L 78.428093 20.62462 
L 80.205028 20.229563 
L 81.474268 20.468781 
L 82.235811 20.490942 
L 83.251203 20.434519 
L 85.281986 21.121787 
L 86.805074 21.098433 
L 88.074313 21.284061 
L 100.259012 21.520543 
L 112.69756 21.548492 
L 126.151499 21.71627 
L 134.020784 21.997684 
L 141.382373 22.562295 
L 145.443939 23.155352 
L 146.713179 23.591683 
L 147.72857 24.113957 
L 149.251658 25.029201 
L 150.520897 25.556121 
L 154.582464 27.077682 
L 155.597855 27.758712 
L 157.374791 29.386157 
L 158.897878 30.725278 
L 160.167118 31.462514 
L 161.690205 32.008158 
L 163.974836 32.585485 
L 169.051794 33.780728 
L 172.097969 34.549672 
L 174.636448 34.978231 
L 178.190319 35.538711 
L 180.47495 36.028982 
L 182.505733 36.805064 
L 184.536516 37.691545 
L 185.551908 38.409614 
L 186.821148 39.647982 
L 187.836539 40.606909 
L 189.105779 41.552724 
L 191.136562 42.914127 
L 192.151954 43.890203 
L 194.944281 46.684746 
L 196.721216 48.206536 
L 197.736607 48.95016 
L 198.498151 49.275714 
L 200.782782 49.827026 
L 203.575109 50.431012 
L 205.605892 51.021062 
L 208.144371 52.212656 
L 209.413611 53.027755 
L 210.936698 53.858742 
L 212.967482 54.640152 
L 214.744417 55.081574 
L 216.7752 55.578187 
L 219.059831 56.473249 
L 220.075223 57.085129 
L 221.344462 58.197302 
L 222.86755 59.707776 
L 224.390637 61.872101 
L 225.406029 63.174003 
L 226.167573 63.786355 
L 227.436812 64.444804 
L 228.706052 65.195677 
L 229.721443 66.129157 
L 231.752227 68.095499 
L 233.021466 68.943806 
L 234.544553 69.667714 
L 239.875359 72.01769 
L 240.636903 72.591124 
L 241.398447 73.53516 
L 243.42923 76.573317 
L 244.444622 77.439719 
L 246.729253 78.761705 
L 247.998492 79.495024 
L 250.536971 81.314028 
L 252.060059 82.357376 
L 254.852386 84.039872 
L 256.629321 85.204019 
L 257.898561 86.265335 
L 262.467823 91.896981 
L 263.483214 93.374785 
L 265.767846 96.989327 
L 267.290933 98.509857 
L 268.560173 99.828718 
L 269.575564 100.767761 
L 271.352499 102.057328 
L 272.367891 102.810501 
L 273.129435 103.633688 
L 276.683305 107.769586 
L 278.206393 109.229122 
L 279.475632 110.232601 
L 280.99872 111.094042 
L 283.791047 112.864961 
L 285.567982 114.240432 
L 287.598765 115.914284 
L 288.614157 116.717891 
L 289.375701 117.552065 
L 290.64494 119.33528 
L 292.168028 121.836462 
L 294.452659 126.649642 
L 295.721898 129.435103 
L 296.73729 131.187359 
L 299.529617 134.87969 
L 302.575792 139.986745 
L 305.875814 148.287414 
L 307.145054 151.325784 
L 307.906598 152.621775 
L 309.937381 155.488342 
L 311.968164 159.013121 
L 313.745099 162.106883 
L 315.268187 164.526583 
L 317.045122 167.914395 
L 319.329753 171.717295 
L 320.345145 173.385323 
L 322.12208 175.685718 
L 322.883624 176.329529 
L 323.899016 176.804749 
L 325.168255 177.12183 
L 326.94519 177.219701 
L 333.799084 177.26718 
L 371.876269 177.26837 
L 371.876269 177.26837 
" style="fill:none;stroke:#073642;stroke-dasharray:1.5,2.475;stroke-dashoffset:0;stroke-width:1.5;"/>
   </g>
   <g id="line2d_40">
    <path clip-path="url(#pe47388b075)" d="M 67.512633 19.982224 
L 68.020329 21.67467 
L 68.274177 21.970416 
L 68.528025 21.899608 
L 69.03572 21.939811 
L 69.797264 21.864489 
L 70.558808 21.743436 
L 72.335743 21.693522 
L 74.620374 21.194482 
L 75.635766 21.070464 
L 77.158853 20.74458 
L 78.428093 20.62462 
L 80.205028 20.229563 
L 81.474268 20.468781 
L 82.235811 20.490942 
L 83.251203 20.434519 
L 85.281986 21.121787 
L 86.805074 21.098433 
L 88.074313 21.284061 
L 100.259012 21.520542 
L 112.69756 21.548392 
L 126.151499 21.713578 
L 134.020784 21.989035 
L 141.890069 22.599873 
L 145.697787 23.167522 
L 146.967027 23.615083 
L 147.982418 24.16016 
L 149.251658 24.931644 
L 150.520897 25.481711 
L 152.805529 26.194554 
L 154.074768 26.693615 
L 155.344008 27.399047 
L 156.867095 28.61648 
L 158.897878 30.491455 
L 160.420966 31.442259 
L 161.690205 31.911424 
L 164.73638 32.68586 
L 168.797946 33.620076 
L 172.097969 34.479774 
L 174.890296 34.967741 
L 178.698015 35.568314 
L 180.728798 36.005276 
L 182.505733 36.635454 
L 185.29806 37.888859 
L 186.5673 38.904342 
L 189.105779 41.250021 
L 191.898106 43.210224 
L 197.228912 48.216201 
L 198.498151 49.072382 
L 199.513543 49.40744 
L 205.85974 50.929504 
L 207.890524 51.821497 
L 209.413611 52.660711 
L 210.936698 53.578856 
L 213.22133 54.516169 
L 214.490569 54.872157 
L 218.298288 55.875755 
L 220.329071 56.78633 
L 221.090615 57.349907 
L 223.375246 59.503552 
L 224.390637 60.908286 
L 226.167573 63.283398 
L 226.929116 63.824131 
L 229.721443 65.426989 
L 233.275314 68.63037 
L 234.798401 69.440454 
L 241.144599 72.315045 
L 241.906143 73.072426 
L 242.667686 74.184353 
L 243.683078 75.854516 
L 244.444622 76.760525 
L 245.460013 77.553153 
L 251.044667 81.000489 
L 254.34469 83.150327 
L 257.137017 84.844628 
L 258.660104 85.99932 
L 259.675496 87.201701 
L 261.960127 90.029485 
L 263.483214 91.87552 
L 264.752454 93.778077 
L 266.275541 96.345595 
L 267.290933 97.53421 
L 271.860195 101.689132 
L 273.637131 102.929237 
L 274.652522 104.056682 
L 278.206393 108.123893 
L 279.983328 109.71641 
L 281.252568 110.544298 
L 283.283351 111.667092 
L 285.82183 113.331419 
L 287.09107 114.333016 
L 288.614157 115.51498 
L 290.137244 116.644551 
L 291.152636 117.749584 
L 294.452659 121.574148 
L 295.46805 122.45948 
L 296.229594 122.910843 
L 297.244986 123.223675 
L 298.768073 123.410514 
L 302.82964 123.543089 
L 317.045122 123.556913 
L 371.876269 123.556764 
L 371.876269 123.556764 
" style="fill:none;stroke:#2aa198;stroke-linecap:square;stroke-width:1.5;"/>
   </g>
   <g id="line2d_41">
    <path clip-path="url(#pe47388b075)" d="M 67.512633 19.982224 
L 68.020329 21.67467 
L 68.274177 21.970416 
L 68.528025 21.899608 
L 69.03572 21.939811 
L 69.797264 21.864489 
L 70.558808 21.743436 
L 72.335743 21.693522 
L 74.620374 21.194482 
L 75.635766 21.070464 
L 77.158853 20.74458 
L 78.428093 20.62462 
L 80.205028 20.229563 
L 81.474268 20.468781 
L 82.235811 20.490942 
L 83.251203 20.434519 
L 85.281986 21.121787 
L 86.805074 21.098433 
L 88.074313 21.284061 
L 100.259012 21.520543 
L 112.69756 21.548491 
L 126.151499 21.715134 
L 134.274632 22.012133 
L 141.636221 22.5908 
L 145.697787 23.218361 
L 146.967027 23.675117 
L 147.982418 24.260493 
L 149.251658 25.024959 
L 150.520897 25.538945 
L 152.805529 26.247349 
L 154.074768 26.767091 
L 155.09016 27.333106 
L 156.613247 28.578063 
L 159.151726 30.814389 
L 160.420966 31.526186 
L 161.944053 32.04324 
L 164.482532 32.670019 
L 169.051794 33.763797 
L 172.097969 34.534074 
L 174.636448 34.966442 
L 178.190319 35.533453 
L 180.221102 35.951724 
L 181.998037 36.57297 
L 184.790364 37.778029 
L 186.059604 38.737122 
L 189.105779 41.467603 
L 191.644258 43.282319 
L 196.21352 47.70973 
L 197.990455 48.989401 
L 199.005847 49.376029 
L 202.052022 50.041722 
L 204.590501 50.658472 
L 205.85974 51.100525 
L 208.652067 52.441257 
L 210.682851 53.667171 
L 212.713634 54.48362 
L 214.236721 54.921741 
L 217.790592 55.880198 
L 219.567527 56.627841 
L 220.582919 57.355936 
L 222.613702 59.214886 
L 223.629094 60.537716 
L 225.406029 63.059916 
L 226.167573 63.697068 
L 227.436812 64.361903 
L 228.706052 65.077187 
L 229.467595 65.704327 
L 232.51377 68.478483 
L 233.78301 69.223249 
L 235.559945 69.980652 
L 236.829185 70.527341 
L 238.352272 71.258732 
L 240.129207 72.048759 
L 240.890751 72.629813 
L 241.652295 73.545329 
L 242.413838 74.839386 
L 243.175382 76.043471 
L 243.936926 76.903404 
L 244.69847 77.485869 
L 250.536971 81.163305 
L 252.060059 82.204865 
L 256.629321 85.05004 
L 258.152408 86.283181 
L 261.452431 90.293172 
L 262.975519 92.242581 
L 264.244758 94.274145 
L 265.26015 96.042941 
L 266.021694 97.054415 
L 267.544781 98.50184 
L 270.337108 101.18637 
L 271.606347 102.047058 
L 272.621739 102.767976 
L 273.383283 103.551396 
L 275.160218 105.617453 
L 278.206393 108.994703 
L 279.983328 110.376378 
L 284.806438 113.373294 
L 286.583374 114.88169 
L 287.852613 115.888399 
L 288.868005 116.694343 
L 289.883396 117.870489 
L 291.406484 120.056244 
L 292.675723 122.282809 
L 294.452659 125.961035 
L 295.975746 129.336095 
L 296.991138 131.087101 
L 300.037313 135.110574 
L 301.814248 137.883187 
L 302.82964 139.834056 
L 305.875814 147.416795 
L 307.398902 151.173551 
L 308.160445 152.48125 
L 310.952772 156.63328 
L 313.237404 160.646975 
L 314.252795 162.202334 
L 315.268187 163.656481 
L 316.283578 165.505607 
L 317.29897 167.046719 
L 319.329753 169.375033 
L 320.345145 170.16841 
L 321.360536 170.658836 
L 322.629776 171.041495 
L 324.152863 171.187237 
L 327.706734 171.245433 
L 368.830094 171.252232 
L 371.876269 171.252232 
L 371.876269 171.252232 
" style="fill:none;stroke:#073642;stroke-linecap:square;stroke-width:1.5;"/>
   </g>
   <g id="patch_3">
    <path d="M 52.294451 232.46 
L 52.294451 10.7 
" style="fill:none;stroke:#000000;stroke-linecap:square;stroke-linejoin:miter;stroke-width:0.8;"/>
   </g>
   <g id="patch_4">
    <path d="M 387.094451 232.46 
L 387.094451 10.7 
" style="fill:none;stroke:#000000;stroke-linecap:square;stroke-linejoin:miter;stroke-width:0.8;"/>
   </g>
   <g id="patch_5">
    <path d="M 52.294451 232.46 
L 387.094451 232.46 
" style="fill:none;stroke:#000000;stroke-linecap:square;stroke-linejoin:miter;stroke-width:0.8;"/>
   </g>
   <g id="patch_6">
    <path d="M 52.294451 10.7 
L 387.094451 10.7 
" style="fill:none;stroke:#000000;stroke-linecap:square;stroke-linejoin:miter;stroke-width:0.8;"/>
   </g>
   <g id="legend_1">
    <g id="patch_7">
     <path d="M 394.094451 144.134605 
L 498.591371 144.134605 
Q 500.591371 144.134605 500.591371 142.134605 
L 500.591371 17.7 
Q 500.591371 15.7 498.591371 15.7 
L 394.094451 15.7 
Q 392.094451 15.7 392.094451 17.7 
L 392.094451 142.134605 
Q 392.094451 144.134605 394.094451 144.134605 
z
" style="fill:#ffffff;opacity:0.8;stroke:#cccccc;stroke-linejoin:miter;"/>
    </g>
    <g id="line2d_42">
     <path d="M 396.094451 23.2 
L 416.094451 23.2 
" style="fill:none;stroke:#073642;stroke-linecap:square;stroke-width:1.5;"/>
    </g>
    <g id="line2d_43"/>
    <g id="text_19">
     <!-- \textsc{pipe-PR-CG} -->
     <defs>
      <path d="M 32.296875 23 
C 42.296875 23 50.703125 29.296875 50.703125 36.890625 
C 50.703125 44.09375 43.09375 51 31.59375 51 
L 4.5 51 
L 4.5 48.484375 
C 11.203125 48.484375 11.703125 47.890625 11.703125 43.796875 
L 11.703125 7.109375 
C 11.703125 3.078125 11.203125 2.5 4.5 2.5 
L 4.5 0 
C 7.40625 0.09375 13.09375 0.296875 15.296875 0.296875 
C 17.5 0.296875 23.09375 0.09375 26.09375 0 
L 26.09375 2.5 
C 19.40625 2.5 18.90625 3.078125 18.90625 7.109375 
L 18.90625 23 
z
M 18.59375 44.1875 
C 18.59375 48.1875 19.09375 48.484375 22.59375 48.484375 
L 29.5 48.484375 
C 42.09375 48.484375 42.09375 40.890625 42.09375 36.890625 
C 42.09375 33 42.09375 25.296875 29.5 25.296875 
L 18.59375 25.296875 
z
" id="CMCSC10-112"/>
      <path d="M 18.703125 43.734375 
C 18.703125 48 19.203125 48.484375 26.296875 48.484375 
L 26.296875 51 
C 22.90625 50.890625 17.703125 50.6875 15.09375 50.6875 
C 12.5 50.6875 7.296875 50.890625 3.90625 51 
L 3.90625 48.484375 
C 11 48.484375 11.5 48 11.5 43.734375 
L 11.5 7.25 
C 11.5 2.984375 11 2.5 3.90625 2.5 
L 3.90625 0 
C 7.296875 0.09375 12.5 0.296875 15.09375 0.296875 
C 17.703125 0.296875 22.90625 0.09375 26.296875 0 
L 26.296875 2.5 
C 19.203125 2.5 18.703125 2.984375 18.703125 7.25 
z
" id="CMCSC10-105"/>
      <path d="M 48.796875 50.6875 
L 4.296875 50.6875 
L 4.296875 48.1875 
C 11 48.1875 11.5 47.59375 11.5 43.515625 
L 11.5 7.125 
C 11.5 3.078125 11 2.5 4.296875 2.5 
L 4.296875 0 
L 50 0 
L 52.90625 19.171875 
L 50.40625 19.171875 
C 48.703125 7.234375 46.296875 2.5 33.5 2.5 
L 22.703125 2.5 
C 19.203125 2.5 18.703125 2.78125 18.703125 6.734375 
L 18.703125 25 
L 25.703125 25 
C 33.09375 25 34.296875 23.015625 34.296875 16.40625 
L 36.796875 16.40625 
L 36.796875 36.15625 
L 34.296875 36.15625 
C 34.296875 29.484375 33.09375 27.5 25.703125 27.5 
L 18.703125 27.5 
L 18.703125 43.90625 
C 18.703125 47.890625 19.203125 48.1875 22.703125 48.1875 
L 32.90625 48.1875 
C 44.5 48.1875 47.09375 44.703125 48.203125 33.859375 
L 50.703125 33.859375 
z
" id="CMCSC10-101"/>
      <path d="M 30.5 19 
L 30.5 24.796875 
L 2.59375 24.796875 
L 2.59375 19 
z
" id="CMCSC10-45"/>
      <path d="M 43 31.390625 
C 55.203125 31.390625 66.90625 39.171875 66.90625 49.4375 
C 66.90625 59.3125 56.296875 68 42.203125 68 
L 5.703125 68 
L 5.703125 64.890625 
L 8.09375 64.890625 
C 15.796875 64.890625 16 63.796875 16 60.203125 
L 16 7.765625 
C 16 4.1875 15.796875 3.09375 8.09375 3.09375 
L 5.703125 3.09375 
L 5.703125 0 
C 9.203125 0.296875 16.59375 0.296875 20.40625 0.296875 
C 24.203125 0.296875 31.703125 0.296875 35.203125 0 
L 35.203125 3.09375 
L 32.796875 3.09375 
C 25.09375 3.09375 24.90625 4.1875 24.90625 7.765625 
L 24.90625 31.390625 
z
M 24.59375 60.90625 
C 24.59375 64.1875 24.796875 64.890625 29.5 64.890625 
L 39.59375 64.890625 
C 56.59375 64.890625 56.59375 53.921875 56.59375 49.4375 
C 56.59375 45.15625 56.59375 34 39.59375 34 
L 24.59375 34 
z
" id="CMCSC10-80"/>
      <path d="M 24.59375 35.1875 
L 24.59375 60.921875 
C 24.59375 63.609375 24.796875 64.5 27.203125 64.796875 
C 28.09375 64.890625 31.203125 64.890625 33.203125 64.890625 
C 41.90625 64.890625 55.09375 64.890625 55.09375 50.09375 
C 55.09375 39.46875 48 35.1875 36.703125 35.1875 
z
M 47 33.890625 
C 59 36.78125 65.40625 43.34375 65.40625 50.09375 
C 65.40625 59.734375 53.203125 68 38.09375 68 
L 5.703125 68 
L 5.703125 64.890625 
L 8.09375 64.890625 
C 15.796875 64.890625 16 63.796875 16 60.21875 
L 16 7.921875 
C 16 4.359375 15.796875 3.265625 8.09375 3.265625 
L 5.703125 3.265625 
L 5.703125 0.1875 
C 9.296875 0.484375 16.40625 0.484375 20.296875 0.484375 
C 24.203125 0.484375 31.296875 0.484375 34.90625 0.1875 
L 34.90625 3.265625 
L 32.5 3.265625 
C 24.796875 3.265625 24.59375 4.359375 24.59375 7.921875 
L 24.59375 33 
L 37.09375 33 
C 42.5 33 45.703125 31.015625 47.40625 29.421875 
C 51.203125 25.75 51.203125 23.28125 51.203125 16.34375 
C 51.203125 9.5 51.203125 5.9375 55.5 2.078125 
C 59.203125 -1.109375 64.796875 -2 68.296875 -2 
C 76.296875 -2 78.203125 6.140625 78.203125 8.90625 
C 78.203125 9.5 78.203125 10.59375 76.90625 10.59375 
C 75.796875 10.59375 75.796875 9.703125 75.703125 9.015625 
C 74.90625 1.28125 70.796875 0.1875 68.703125 0.1875 
C 63.40625 0.1875 62.703125 4.65625 60.90625 16.140625 
C 59.796875 23.078125 59.40625 25.5625 56.203125 28.734375 
C 54.09375 30.90625 50.90625 32.796875 47 33.890625 
z
" id="CMCSC10-82"/>
      <path d="M 63.40625 62.0625 
C 60.09375 65.484375 54 71 43.703125 71 
C 24 71 7.203125 54.9375 7.203125 34.546875 
C 7.203125 14.046875 24 -2 43.796875 -2 
C 60.703125 -2 71.296875 11.640625 71.296875 23.59375 
C 71.296875 24.59375 71.296875 25.296875 70 25.296875 
C 68.90625 25.296875 68.90625 24.703125 68.796875 23.6875 
C 68 9.125 56.296875 1.09375 45.09375 1.09375 
C 36.296875 1.09375 17.5 6.3125 17.5 34.4375 
C 17.5 64.078125 38 67.890625 44.90625 67.890625 
C 55.59375 67.890625 65.796875 59.546875 68.09375 44.078125 
C 68.296875 42.671875 68.40625 42.375 69.703125 42.375 
C 71.296875 42.375 71.296875 42.671875 71.296875 44.78125 
L 71.296875 68.59375 
C 71.296875 70.296875 71.296875 71 70.203125 71 
C 69.796875 71 69.40625 71 68.59375 69.796875 
z
" id="CMCSC10-67"/>
      <path d="M 71.203125 68.59375 
C 71.203125 70.296875 71.203125 71 70.09375 71 
C 69.703125 71 69.296875 71 68.5 69.796875 
L 63.296875 62.125 
C 60.203125 65.109375 54.296875 71 43.703125 71 
C 23.796875 71 7.203125 54.859375 7.203125 34.859375 
C 7.203125 14.578125 23.59375 -2 43.90625 -2 
C 51.796875 -2 60.40625 0.59375 63.90625 6.609375 
C 65.203125 4.359375 69.203125 0.296875 70.296875 0.296875 
C 71.203125 0.296875 71.203125 1.09375 71.203125 2.625 
L 71.203125 20.390625 
C 71.203125 24.890625 72.296875 24.890625 78.5 24.890625 
L 78.5 28 
C 73.703125 27.796875 70.09375 27.6875 65.796875 27.6875 
C 61.703125 27.6875 52.796875 27.6875 49.203125 28 
L 49.203125 24.890625 
L 52.703125 24.890625 
C 62.296875 24.890625 62.296875 23.46875 62.296875 19.984375 
L 62.296875 13.453125 
C 62.296875 1.09375 46.796875 1.09375 45.59375 1.09375 
C 36.5 1.09375 17.5 6.40625 17.5 34.859375 
C 17.5 63.015625 36.703125 67.890625 44.90625 67.890625 
C 55.5 67.890625 65.703125 59.734375 68 44.3125 
C 68.203125 42.921875 68.296875 42.625 69.59375 42.625 
C 71.203125 42.625 71.203125 42.921875 71.203125 45 
z
" id="CMCSC10-71"/>
     </defs>
     <g transform="translate(424.094451 26.7)scale(0.1 -0.1)">
      <use transform="scale(0.996264)" xlink:href="#CMCSC10-112"/>
      <use transform="translate(55.569158 0)scale(0.996264)" xlink:href="#CMCSC10-105"/>
      <use transform="translate(85.67837 0)scale(0.996264)" xlink:href="#CMCSC10-112"/>
      <use transform="translate(141.247528 0)scale(0.996264)" xlink:href="#CMCSC10-101"/>
      <use transform="translate(196.816686 0)scale(0.996264)" xlink:href="#CMCSC10-45"/>
      <use transform="translate(234.45297 0)scale(0.996264)" xlink:href="#CMCSC10-80"/>
      <use transform="translate(308.341796 0)scale(0.996264)" xlink:href="#CMCSC10-82"/>
      <use transform="translate(388.042172 0)scale(0.996264)" xlink:href="#CMCSC10-45"/>
      <use transform="translate(425.678456 0)scale(0.996264)" xlink:href="#CMCSC10-67"/>
      <use transform="translate(503.99518 0)scale(0.996264)" xlink:href="#CMCSC10-71"/>
     </g>
    </g>
    <g id="line2d_44">
     <path d="M 396.094451 37.137178 
L 416.094451 37.137178 
" style="fill:none;stroke:#2aa198;stroke-linecap:square;stroke-width:1.5;"/>
    </g>
    <g id="line2d_45"/>
    <g id="text_20">
     <!-- \textsc{pipe-P-CG} -->
     <g transform="translate(424.094451 40.637178)scale(0.1 -0.1)">
      <use transform="scale(0.996264)" xlink:href="#CMCSC10-112"/>
      <use transform="translate(55.569158 0)scale(0.996264)" xlink:href="#CMCSC10-105"/>
      <use transform="translate(85.67837 0)scale(0.996264)" xlink:href="#CMCSC10-112"/>
      <use transform="translate(141.247528 0)scale(0.996264)" xlink:href="#CMCSC10-101"/>
      <use transform="translate(196.816686 0)scale(0.996264)" xlink:href="#CMCSC10-45"/>
      <use transform="translate(234.45297 0)scale(0.996264)" xlink:href="#CMCSC10-80"/>
      <use transform="translate(308.341796 0)scale(0.996264)" xlink:href="#CMCSC10-45"/>
      <use transform="translate(345.97808 0)scale(0.996264)" xlink:href="#CMCSC10-67"/>
      <use transform="translate(424.294805 0)scale(0.996264)" xlink:href="#CMCSC10-71"/>
     </g>
    </g>
    <g id="line2d_46">
     <path d="M 396.094451 51.074357 
L 416.094451 51.074357 
" style="fill:none;stroke:#073642;stroke-dasharray:1.5,2.475;stroke-dashoffset:0;stroke-width:1.5;"/>
    </g>
    <g id="line2d_47"/>
    <g id="text_21">
     <!-- PR-CG -->
     <defs>
      <path d="M 19.796875 32 
L 35.796875 32 
C 48.703125 32 58.09375 40.359375 58.09375 49.796875 
C 58.09375 59.234375 48.90625 68 35.796875 68 
L 5.203125 68 
L 5.203125 65.390625 
C 12.09375 65.390625 13.203125 65.390625 13.203125 60.921875 
L 13.203125 7.078125 
C 13.203125 2.59375 12.09375 2.59375 5.203125 2.59375 
L 5.203125 0 
C 8.09375 0.1875 13.40625 0.1875 16.5 0.1875 
C 19.59375 0.1875 24.90625 0.1875 27.796875 0 
L 27.796875 2.59375 
C 20.90625 2.59375 19.796875 2.59375 19.796875 7.078125 
z
M 19.59375 34.09375 
L 19.59375 61.515625 
C 19.59375 64.890625 19.796875 65.390625 23.796875 65.390625 
L 33.90625 65.390625 
C 46.796875 65.390625 50.5 58.046875 50.5 49.796875 
C 50.5 40.75 46.09375 34.09375 33.90625 34.09375 
z
" id="CMR17-80"/>
      <path d="M 39.203125 33.6875 
C 48.703125 35.59375 56.703125 42.015625 56.703125 50.046875 
C 56.703125 59.46875 46.09375 68 32.09375 68 
L 5.203125 68 
L 5.203125 65.390625 
C 12.09375 65.390625 13.203125 65.390625 13.203125 60.875 
L 13.203125 6.6875 
C 13.203125 2.1875 12.09375 2.1875 5.203125 2.1875 
L 5.203125 -0.40625 
C 8.09375 -0.203125 13.296875 -0.203125 16.40625 -0.203125 
C 19.5 -0.203125 24.703125 -0.203125 27.59375 -0.40625 
L 27.59375 2.1875 
C 20.703125 2.1875 19.59375 2.1875 19.59375 6.6875 
L 19.59375 33 
L 31.296875 33 
C 37 33 40.203125 30.6875 41.59375 29.390625 
C 45.59375 25.5 45.59375 22.796875 45.59375 16 
C 45.59375 9.296875 45.59375 5.890625 48.59375 2.5 
C 52.40625 -1.609375 57.5 -2 59.703125 -2 
C 67.09375 -2 68.203125 6.296875 68.203125 8 
C 68.203125 8.59375 68.203125 9.296875 67.296875 9.296875 
C 66.5 9.296875 66.40625 8.6875 66.40625 8.296875 
C 65.90625 1.796875 63 -0.40625 59.90625 -0.40625 
C 54.40625 -0.40625 53.796875 5.890625 53.203125 12 
C 52.90625 14.09375 52.703125 15.59375 52.5 17.796875 
C 51.90625 22.796875 51.09375 30.09375 39.203125 33.6875 
z
M 31 34.59375 
L 19.59375 34.59375 
L 19.59375 61.484375 
C 19.59375 64.890625 19.796875 65.390625 23.796875 65.390625 
L 31.09375 65.390625 
C 39.40625 65.390625 49.09375 62.484375 49.09375 50.046875 
C 49.09375 37.09375 38.5 34.59375 31 34.59375 
z
" id="CMR17-82"/>
      <path d="M 62.09375 67.984375 
C 62.09375 69.796875 62 69.890625 61.40625 69.890625 
C 61 69.890625 60.90625 69.796875 60.203125 68.59375 
L 55.796875 60.140625 
C 50.90625 66.390625 44.90625 70 37.203125 70 
C 20.09375 70 4.59375 54.796875 4.59375 34.046875 
C 4.59375 13.078125 20.09375 -2 37.296875 -2 
C 52.59375 -2 62.09375 11.578125 62.09375 23.15625 
C 62.09375 24.171875 62.09375 24.578125 61.203125 24.578125 
C 60.40625 24.578125 60.40625 24.265625 60.296875 23.359375 
C 59.5 9.25 49.5 0.59375 38.703125 0.59375 
C 28.5 0.59375 12.203125 7.84375 12.203125 34.046875 
C 12.203125 60.34375 28.796875 67.390625 38.5 67.390625 
C 49.796875 67.390625 58 57.515625 59.90625 43.515625 
C 60.09375 42.296875 60.09375 42.109375 61 42.109375 
C 62.09375 42.109375 62.09375 42.296875 62.09375 44.125 
z
" id="CMR17-67"/>
      <path d="M 62.09375 19.65625 
C 62.09375 23.484375 62.40625 24 68.59375 24 
L 68.59375 26.59375 
C 66.203125 26.390625 60.796875 26.390625 58.09375 26.390625 
C 55.296875 26.390625 47.5 26.5 43.703125 26.59375 
L 43.703125 24 
L 46.703125 24 
C 55.296875 24 55.5 22.875 55.5 19.25 
L 55.5 12.59375 
C 55.5 1.5 42.5 0.59375 39.40625 0.59375 
C 29.09375 0.59375 12.203125 7.75 12.203125 34.046875 
C 12.203125 60.34375 28.796875 67.390625 38.5 67.390625 
C 49.796875 67.390625 58 57.515625 59.90625 43.515625 
C 60.09375 42.3125 60.09375 42.109375 61 42.109375 
C 62.09375 42.109375 62.09375 42.3125 62.09375 44.125 
L 62.09375 67.984375 
C 62.09375 69.796875 62 69.890625 61.40625 69.890625 
C 61 69.890625 60.90625 69.796875 60.203125 68.59375 
L 55.796875 60.140625 
C 50.90625 66.390625 44.90625 70 37.203125 70 
C 20.09375 70 4.59375 54.796875 4.59375 34.046875 
C 4.59375 13.40625 19.796875 -2 37.40625 -2 
C 45.5 -2 53.40625 0.890625 56.5 6.640625 
C 58.203125 2.515625 61 -0.3125 61.5 -0.3125 
C 62 -0.3125 62.09375 -0.203125 62.09375 1.59375 
z
" id="CMR17-71"/>
     </defs>
     <g transform="translate(424.094451 54.574357)scale(0.1 -0.1)">
      <use transform="scale(0.996264)" xlink:href="#CMR17-80"/>
      <use transform="translate(62.586301 0)scale(0.996264)" xlink:href="#CMR17-82"/>
      <use transform="translate(130.377402 0)scale(0.996264)" xlink:href="#CMR17-45"/>
      <use transform="translate(160.453369 0)scale(0.996264)" xlink:href="#CMR17-67"/>
      <use transform="translate(226.963249 0)scale(0.996264)" xlink:href="#CMR17-71"/>
     </g>
    </g>
    <g id="line2d_48">
     <path d="M 396.094451 65.011535 
L 416.094451 65.011535 
" style="fill:none;stroke:#859900;stroke-dasharray:1.5,2.475;stroke-dashoffset:0;stroke-width:1.5;"/>
    </g>
    <g id="line2d_49"/>
    <g id="text_22">
     <!-- \textsc{pipe-PR-M-CG} -->
     <defs>
      <path d="M 74.40625 65.09375 
L 74.5 64.984375 
L 74.5 7.765625 
C 74.5 4.1875 74.296875 3.09375 66.59375 3.09375 
L 64.203125 3.09375 
L 64.203125 0 
C 67.90625 0.296875 74.703125 0.296875 78.59375 0.296875 
C 82.5 0.296875 89.203125 0.296875 92.90625 0 
L 92.90625 3.09375 
L 90.5 3.09375 
C 82.796875 3.09375 82.59375 4.1875 82.59375 7.765625 
L 82.59375 60.21875 
C 82.59375 63.796875 82.796875 64.890625 90.5 64.890625 
L 92.90625 64.890625 
L 92.90625 68 
L 76 68 
C 73.703125 68 73.40625 68 72.59375 66.09375 
L 49.40625 9.46875 
L 26.203125 66.1875 
C 25.5 68 24.90625 68 22.796875 68 
L 5.90625 68 
L 5.90625 64.890625 
L 8.296875 64.890625 
C 16 64.890625 16.203125 63.796875 16.203125 60.21875 
L 16.203125 10.453125 
C 16.203125 7.765625 16.203125 3.09375 5.90625 3.09375 
L 5.90625 0 
C 9.40625 0.09375 14.296875 0.296875 17.59375 0.296875 
C 20.90625 0.296875 25.796875 0.09375 29.296875 0 
L 29.296875 3.09375 
C 19 3.09375 19 7.765625 19 10.453125 
L 19 64.296875 
L 19.09375 64.390625 
L 44.703125 1.796875 
C 45.09375 0.890625 45.59375 0 46.59375 0 
C 47.59375 0 48.09375 0.890625 48.5 1.796875 
z
" id="CMCSC10-77"/>
     </defs>
     <g transform="translate(424.094451 68.511535)scale(0.1 -0.1)">
      <use transform="scale(0.996264)" xlink:href="#CMCSC10-112"/>
      <use transform="translate(55.569158 0)scale(0.996264)" xlink:href="#CMCSC10-105"/>
      <use transform="translate(85.67837 0)scale(0.996264)" xlink:href="#CMCSC10-112"/>
      <use transform="translate(141.247528 0)scale(0.996264)" xlink:href="#CMCSC10-101"/>
      <use transform="translate(196.816686 0)scale(0.996264)" xlink:href="#CMCSC10-45"/>
      <use transform="translate(234.45297 0)scale(0.996264)" xlink:href="#CMCSC10-80"/>
      <use transform="translate(308.341796 0)scale(0.996264)" xlink:href="#CMCSC10-82"/>
      <use transform="translate(388.042172 0)scale(0.996264)" xlink:href="#CMCSC10-45"/>
      <use transform="translate(425.678456 0)scale(0.996264)" xlink:href="#CMCSC10-77"/>
      <use transform="translate(524.19692 0)scale(0.996264)" xlink:href="#CMCSC10-45"/>
      <use transform="translate(561.833204 0)scale(0.996264)" xlink:href="#CMCSC10-67"/>
      <use transform="translate(640.149929 0)scale(0.996264)" xlink:href="#CMCSC10-71"/>
     </g>
    </g>
    <g id="line2d_50">
     <path d="M 396.094451 78.948713 
L 416.094451 78.948713 
" style="fill:none;stroke:#6c71c4;stroke-linecap:square;stroke-width:1.5;"/>
    </g>
    <g id="line2d_51"/>
    <g id="text_23">
     <!-- \textsc{pipe-P-M-CG} -->
     <g transform="translate(424.094451 82.448713)scale(0.1 -0.1)">
      <use transform="scale(0.996264)" xlink:href="#CMCSC10-112"/>
      <use transform="translate(55.569158 0)scale(0.996264)" xlink:href="#CMCSC10-105"/>
      <use transform="translate(85.67837 0)scale(0.996264)" xlink:href="#CMCSC10-112"/>
      <use transform="translate(141.247528 0)scale(0.996264)" xlink:href="#CMCSC10-101"/>
      <use transform="translate(196.816686 0)scale(0.996264)" xlink:href="#CMCSC10-45"/>
      <use transform="translate(234.45297 0)scale(0.996264)" xlink:href="#CMCSC10-80"/>
      <use transform="translate(308.341796 0)scale(0.996264)" xlink:href="#CMCSC10-45"/>
      <use transform="translate(345.97808 0)scale(0.996264)" xlink:href="#CMCSC10-77"/>
      <use transform="translate(444.496544 0)scale(0.996264)" xlink:href="#CMCSC10-45"/>
      <use transform="translate(482.132828 0)scale(0.996264)" xlink:href="#CMCSC10-67"/>
      <use transform="translate(560.449553 0)scale(0.996264)" xlink:href="#CMCSC10-71"/>
     </g>
    </g>
    <g id="line2d_52">
     <path d="M 396.094451 92.885892 
L 416.094451 92.885892 
" style="fill:none;stroke:#93a1a1;stroke-linecap:square;stroke-width:1.5;"/>
    </g>
    <g id="line2d_53">
     <g>
      <use style="fill:#93a1a1;stroke:#93a1a1;stroke-linejoin:miter;" x="406.094451" xlink:href="#mcc0daaa9e1" y="92.885892"/>
     </g>
    </g>
    <g id="text_24">
     <!-- GV-CG -->
     <defs>
      <path d="M 59 58.78125 
C 59.90625 60.984375 61.5 65.296875 68.203125 65.390625 
L 68.203125 68 
C 65.90625 67.796875 63.296875 67.796875 60.796875 67.796875 
C 58.40625 67.796875 54.296875 67.796875 52 68 
L 52 65.390625 
C 57 65.09375 57.203125 61.59375 57.203125 60.984375 
C 57.203125 59.890625 56.90625 59.1875 56.59375 58.390625 
L 36.90625 7 
L 16.296875 60.984375 
C 16 61.6875 15.796875 62.1875 15.796875 62.6875 
C 15.796875 65.390625 19.796875 65.390625 21.90625 65.390625 
L 21.90625 68 
C 18.703125 67.796875 14 67.796875 10.703125 67.796875 
C 8.09375 67.796875 3.40625 67.796875 1 68 
L 1 65.390625 
C 6.796875 65.390625 7.90625 65 9.09375 61.796875 
L 32.90625 -0.40625 
C 33.40625 -1.8125 33.5 -2 34.59375 -2 
C 35.703125 -2 35.796875 -1.8125 36.296875 -0.40625 
z
" id="CMR17-86"/>
     </defs>
     <g transform="translate(424.094451 96.385892)scale(0.1 -0.1)">
      <use transform="scale(0.996264)" xlink:href="#CMR17-71"/>
      <use transform="translate(72.355346 0)scale(0.996264)" xlink:href="#CMR17-86"/>
      <use transform="translate(141.427776 0)scale(0.996264)" xlink:href="#CMR17-45"/>
      <use transform="translate(171.503742 0)scale(0.996264)" xlink:href="#CMR17-67"/>
      <use transform="translate(238.013623 0)scale(0.996264)" xlink:href="#CMR17-71"/>
     </g>
    </g>
    <g id="line2d_54">
     <path d="M 396.094451 106.82307 
L 416.094451 106.82307 
" style="fill:none;stroke:#93a1a1;stroke-linecap:square;stroke-width:1.5;"/>
    </g>
    <g id="line2d_55">
     <g>
      <use style="fill:#93a1a1;stroke:#93a1a1;stroke-linejoin:miter;" x="406.094451" xlink:href="#ma9a1587c2d" y="106.82307"/>
     </g>
    </g>
    <g id="text_25">
     <!-- M-CG -->
     <defs>
      <path d="M 20.90625 66.390625 
C 20.296875 67.890625 20.203125 68 18.09375 68 
L 5.296875 68 
L 5.296875 65.390625 
C 12.203125 65.390625 13.296875 65.390625 13.296875 60.90625 
L 13.296875 9.75 
C 13.296875 7.265625 13.296875 2.59375 5.296875 2.59375 
L 5.296875 0 
C 7.59375 0.1875 11.796875 0.1875 14.296875 0.1875 
C 16.796875 0.1875 21 0.1875 23.296875 0 
L 23.296875 2.59375 
C 15.296875 2.59375 15.296875 7.265625 15.296875 9.75 
L 15.296875 64.984375 
L 15.40625 64.984375 
L 38.90625 1.59375 
C 39.296875 0.59375 39.5 0 40.296875 0 
C 41.09375 0 41.296875 0.59375 41.703125 1.59375 
L 65.40625 65.484375 
L 65.5 65.484375 
L 65.5 7.078125 
C 65.5 2.59375 64.40625 2.59375 57.5 2.59375 
L 57.5 0 
C 60.203125 0.1875 65.59375 0.1875 68.5 0.1875 
C 71.40625 0.1875 76.90625 0.1875 79.59375 0 
L 79.59375 2.59375 
C 72.703125 2.59375 71.59375 2.59375 71.59375 7.078125 
L 71.59375 60.90625 
C 71.59375 65.390625 72.703125 65.390625 79.59375 65.390625 
L 79.59375 68 
L 66.90625 68 
C 64.796875 68 64.703125 67.890625 64.09375 66.390625 
L 42.5 8.0625 
z
" id="CMR17-77"/>
     </defs>
     <g transform="translate(424.094451 110.32307)scale(0.1 -0.1)">
      <use transform="scale(0.996264)" xlink:href="#CMR17-77"/>
      <use transform="translate(84.686941 0)scale(0.996264)" xlink:href="#CMR17-45"/>
      <use transform="translate(114.762907 0)scale(0.996264)" xlink:href="#CMR17-67"/>
      <use transform="translate(181.272787 0)scale(0.996264)" xlink:href="#CMR17-71"/>
     </g>
    </g>
    <g id="line2d_56">
     <path d="M 396.094451 120.760248 
L 416.094451 120.760248 
" style="fill:none;stroke:#93a1a1;stroke-linecap:square;stroke-width:1.5;"/>
    </g>
    <g id="line2d_57">
     <g>
      <use style="fill:#93a1a1;stroke:#93a1a1;stroke-linejoin:miter;" x="406.094451" xlink:href="#m6d78f6930a" y="120.760248"/>
     </g>
    </g>
    <g id="text_26">
     <!-- CG-CG -->
     <g transform="translate(424.094451 124.260248)scale(0.1 -0.1)">
      <use transform="scale(0.996264)" xlink:href="#CMR17-67"/>
      <use transform="translate(66.509881 0)scale(0.996264)" xlink:href="#CMR17-71"/>
      <use transform="translate(138.865226 0)scale(0.996264)" xlink:href="#CMR17-45"/>
      <use transform="translate(168.941193 0)scale(0.996264)" xlink:href="#CMR17-67"/>
      <use transform="translate(235.451073 0)scale(0.996264)" xlink:href="#CMR17-71"/>
     </g>
    </g>
    <g id="line2d_58">
     <path d="M 396.094451 134.697427 
L 416.094451 134.697427 
" style="fill:none;stroke:#93a1a1;stroke-linecap:square;stroke-width:1.5;"/>
    </g>
    <g id="line2d_59">
     <g>
      <use style="fill:#93a1a1;stroke:#93a1a1;" x="406.094451" xlink:href="#m25a15ae876" y="134.697427"/>
     </g>
    </g>
    <g id="text_27">
     <!-- HS-CG -->
     <defs>
      <path d="M 56.09375 60.90625 
C 56.09375 65.390625 57.203125 65.390625 64.09375 65.390625 
L 64.09375 68 
C 61.203125 67.796875 55.90625 67.796875 52.796875 67.796875 
C 49.703125 67.796875 44.40625 67.796875 41.5 68 
L 41.5 65.390625 
C 48.40625 65.390625 49.5 65.390625 49.5 60.90625 
L 49.5 36.59375 
L 19.703125 36.59375 
L 19.703125 60.90625 
C 19.703125 65.390625 20.796875 65.390625 27.703125 65.390625 
L 27.703125 68 
C 24.796875 67.796875 19.5 67.796875 16.40625 67.796875 
C 13.296875 67.796875 8 67.796875 5.09375 68 
L 5.09375 65.390625 
C 12 65.390625 13.09375 65.390625 13.09375 60.90625 
L 13.09375 7.0625 
C 13.09375 2.59375 12 2.59375 5.09375 2.59375 
L 5.09375 0 
C 8 0.1875 13.296875 0.1875 16.40625 0.1875 
C 19.5 0.1875 24.796875 0.1875 27.703125 0 
L 27.703125 2.59375 
C 20.796875 2.59375 19.703125 2.59375 19.703125 7.0625 
L 19.703125 34 
L 49.5 34 
L 49.5 7.0625 
C 49.5 2.59375 48.40625 2.59375 41.5 2.59375 
L 41.5 0 
C 44.40625 0.1875 49.703125 0.1875 52.796875 0.1875 
C 55.90625 0.1875 61.203125 0.1875 64.09375 0 
L 64.09375 2.59375 
C 57.203125 2.59375 56.09375 2.59375 56.09375 7.0625 
z
" id="CMR17-72"/>
      <path d="M 43.796875 67.984375 
C 43.796875 69.796875 43.703125 69.890625 43.09375 69.890625 
C 42.5 69.890625 42.296875 69.484375 41.90625 68.59375 
L 38.90625 61.953125 
C 35.09375 67.5 29.296875 70 23 70 
C 12.796875 70 4.59375 61.84375 4.59375 51.578125 
C 4.59375 48.453125 5.296875 44.015625 8.703125 39.78125 
C 12.40625 35.15625 15.90625 34.34375 23.90625 32.234375 
C 26.90625 31.421875 31.90625 30.109375 32.90625 29.703125 
C 38.59375 27.296875 41.59375 21.25 41.59375 15.609375 
C 41.59375 8.34375 36.5 0.59375 27.796875 0.59375 
C 17.09375 0.59375 7.09375 6.640625 6.40625 20.75 
C 6.296875 22.359375 6.203125 22.453125 5.5 22.453125 
C 4.703125 22.453125 4.59375 22.359375 4.59375 20.34375 
L 4.59375 0 
C 4.59375 -1.8125 4.703125 -1.90625 5.296875 -1.90625 
C 6 -1.90625 6.203125 -1.40625 7.59375 1.703125 
C 7.703125 2 7.703125 2.203125 9.59375 6.03125 
C 14.59375 -0.609375 23 -2 27.796875 -2 
C 38.703125 -2 46.40625 7.140625 46.40625 17.828125 
C 46.40625 23.0625 44.5 27.09375 43.40625 28.90625 
C 39.203125 35.359375 34.703125 36.5625 29.90625 37.765625 
C 29.203125 38.078125 29 38.078125 23.40625 39.484375 
C 18 40.890625 15.703125 41.59375 13.203125 44.3125 
C 10.40625 47.4375 9.40625 50.671875 9.40625 53.890625 
C 9.40625 60.4375 14.59375 67.59375 23.09375 67.59375 
C 33.703125 67.59375 40.296875 60.03125 41.796875 47.4375 
C 42.09375 45.625 42.203125 45.53125 42.90625 45.53125 
C 43.796875 45.53125 43.796875 45.828125 43.796875 47.546875 
z
" id="CMR17-83"/>
     </defs>
     <g transform="translate(424.094451 138.197427)scale(0.1 -0.1)">
      <use transform="scale(0.996264)" xlink:href="#CMR17-72"/>
      <use transform="translate(69.07243 0)scale(0.996264)" xlink:href="#CMR17-83"/>
      <use transform="translate(119.9678 0)scale(0.996264)" xlink:href="#CMR17-45"/>
      <use transform="translate(150.043766 0)scale(0.996264)" xlink:href="#CMR17-67"/>
      <use transform="translate(216.553646 0)scale(0.996264)" xlink:href="#CMR17-71"/>
     </g>
    </g>
   </g>
  </g>
 </g>
 <defs>
  <clipPath id="pe47388b075">
   <rect height="221.76" width="334.8" x="52.294451" y="10.7"/>
  </clipPath>
 </defs>
</svg>
