<?xml version="1.0" encoding="utf-8" standalone="no"?>
<!DOCTYPE svg PUBLIC "-//W3C//DTD SVG 1.1//EN"
  "http://www.w3.org/Graphics/SVG/1.1/DTD/svg11.dtd">
<!-- Created with matplotlib (https://matplotlib.org/) -->
<svg height="268.371353pt" version="1.1" viewBox="0 0 507.791371 268.371353" width="507.791371pt" xmlns="http://www.w3.org/2000/svg" xmlns:xlink="http://www.w3.org/1999/xlink">
 <defs>
  <style type="text/css">
*{stroke-linecap:butt;stroke-linejoin:round;}
  </style>
 </defs>
 <g id="figure_1">
  <g id="patch_1">
   <path d="M -0 268.371353 
L 507.791371 268.371353 
L 507.791371 0 
L -0 0 
z
" style="fill:#ffffff;"/>
  </g>
  <g id="axes_1">
   <g id="patch_2">
    <path d="M 52.294451 232.46 
L 387.094451 232.46 
L 387.094451 10.7 
L 52.294451 10.7 
z
" style="fill:#ffffff;"/>
   </g>
   <g id="matplotlib.axis_1">
    <g id="xtick_1">
     <g id="line2d_1">
      <path clip-path="url(#p0481894723)" d="M 67.512633 232.46 
L 67.512633 10.7 
" style="fill:none;stroke:#b0b0b0;stroke-dasharray:0.8,1.32;stroke-dashoffset:0;stroke-width:0.8;"/>
     </g>
     <g id="line2d_2">
      <defs>
       <path d="M 0 0 
L 0 3.5 
" id="me6168a1f6a" style="stroke:#000000;stroke-width:0.8;"/>
      </defs>
      <g>
       <use style="stroke:#000000;stroke-width:0.8;" x="67.512633" xlink:href="#me6168a1f6a" y="232.46"/>
      </g>
     </g>
     <g id="text_1">
      <!-- $0$ -->
      <defs>
       <path d="M 42 31.84375 
C 42 37.96875 41.90625 48.421875 37.703125 56.453125 
C 34 63.484375 28.09375 66 22.90625 66 
C 18.09375 66 12 63.78125 8.203125 56.5625 
C 4.203125 49.015625 3.796875 39.671875 3.796875 31.84375 
C 3.796875 26.109375 3.90625 17.375 7 9.734375 
C 11.296875 -0.609375 19 -2 22.90625 -2 
C 27.5 -2 34.5 -0.109375 38.59375 9.4375 
C 41.59375 16.375 42 24.5 42 31.84375 
z
M 22.90625 -0.40625 
C 16.5 -0.40625 12.703125 5.125 11.296875 12.75 
C 10.203125 18.6875 10.203125 27.328125 10.203125 32.953125 
C 10.203125 40.6875 10.203125 47.109375 11.5 53.234375 
C 13.40625 61.78125 19 64.390625 22.90625 64.390625 
C 27 64.390625 32.296875 61.671875 34.203125 53.4375 
C 35.5 47.71875 35.59375 40.984375 35.59375 32.953125 
C 35.59375 26.421875 35.59375 18.375 34.40625 12.453125 
C 32.296875 1.5 26.40625 -0.40625 22.90625 -0.40625 
z
" id="CMR17-48"/>
      </defs>
      <g transform="translate(65.021965 246.378498)scale(0.1 -0.1)">
       <use transform="scale(0.996264)" xlink:href="#CMR17-48"/>
      </g>
     </g>
    </g>
    <g id="xtick_2">
     <g id="line2d_3">
      <path clip-path="url(#p0481894723)" d="M 128.446294 232.46 
L 128.446294 10.7 
" style="fill:none;stroke:#b0b0b0;stroke-dasharray:0.8,1.32;stroke-dashoffset:0;stroke-width:0.8;"/>
     </g>
     <g id="line2d_4">
      <g>
       <use style="stroke:#000000;stroke-width:0.8;" x="128.446294" xlink:href="#me6168a1f6a" y="232.46"/>
      </g>
     </g>
     <g id="text_2">
      <!-- $200$ -->
      <defs>
       <path d="M 41.703125 15.46875 
L 39.90625 15.46875 
C 38.90625 8.390625 38.09375 7.1875 37.703125 6.59375 
C 37.203125 5.796875 30 5.796875 28.59375 5.796875 
L 9.40625 5.796875 
C 13 9.6875 20 16.765625 28.5 24.9375 
C 34.59375 30.71875 41.703125 37.5 41.703125 47.390625 
C 41.703125 59.1875 32.296875 66 21.796875 66 
C 10.796875 66 4.09375 56.296875 4.09375 47.296875 
C 4.09375 43.390625 7 42.890625 8.203125 42.890625 
C 9.203125 42.890625 12.203125 43.484375 12.203125 46.984375 
C 12.203125 50.09375 9.59375 51 8.203125 51 
C 7.59375 51 7 50.890625 6.59375 50.6875 
C 8.5 59.1875 14.296875 63.390625 20.40625 63.390625 
C 29.09375 63.390625 34.796875 56.5 34.796875 47.390625 
C 34.796875 38.703125 29.703125 31.21875 24 24.734375 
L 4.09375 2.296875 
L 4.09375 0 
L 39.296875 0 
z
" id="CMR17-50"/>
      </defs>
      <g transform="translate(120.974291 246.378498)scale(0.1 -0.1)">
       <use transform="scale(0.996264)" xlink:href="#CMR17-50"/>
       <use transform="translate(45.690477 0)scale(0.996264)" xlink:href="#CMR17-48"/>
       <use transform="translate(91.380954 0)scale(0.996264)" xlink:href="#CMR17-48"/>
      </g>
     </g>
    </g>
    <g id="xtick_3">
     <g id="line2d_5">
      <path clip-path="url(#p0481894723)" d="M 189.379955 232.46 
L 189.379955 10.7 
" style="fill:none;stroke:#b0b0b0;stroke-dasharray:0.8,1.32;stroke-dashoffset:0;stroke-width:0.8;"/>
     </g>
     <g id="line2d_6">
      <g>
       <use style="stroke:#000000;stroke-width:0.8;" x="189.379955" xlink:href="#me6168a1f6a" y="232.46"/>
      </g>
     </g>
     <g id="text_3">
      <!-- $400$ -->
      <defs>
       <path d="M 33.59375 64.796875 
C 33.59375 66.890625 33.5 67 31.703125 67 
L 2 19.59375 
L 2 17 
L 27.796875 17 
L 27.796875 7.1875 
C 27.796875 3.59375 27.59375 2.59375 20.59375 2.59375 
L 18.703125 2.59375 
L 18.703125 0 
C 21.90625 0.1875 27.296875 0.1875 30.703125 0.1875 
C 34.09375 0.1875 39.5 0.1875 42.703125 0 
L 42.703125 2.59375 
L 40.796875 2.59375 
C 33.796875 2.59375 33.59375 3.59375 33.59375 7.1875 
L 33.59375 17 
L 43.796875 17 
L 43.796875 19.59375 
L 33.59375 19.59375 
z
M 28.09375 58.171875 
L 28.09375 19.59375 
L 4 19.59375 
z
" id="CMR17-52"/>
      </defs>
      <g transform="translate(181.907952 246.378498)scale(0.1 -0.1)">
       <use transform="scale(0.996264)" xlink:href="#CMR17-52"/>
       <use transform="translate(45.690477 0)scale(0.996264)" xlink:href="#CMR17-48"/>
       <use transform="translate(91.380954 0)scale(0.996264)" xlink:href="#CMR17-48"/>
      </g>
     </g>
    </g>
    <g id="xtick_4">
     <g id="line2d_7">
      <path clip-path="url(#p0481894723)" d="M 250.313616 232.46 
L 250.313616 10.7 
" style="fill:none;stroke:#b0b0b0;stroke-dasharray:0.8,1.32;stroke-dashoffset:0;stroke-width:0.8;"/>
     </g>
     <g id="line2d_8">
      <g>
       <use style="stroke:#000000;stroke-width:0.8;" x="250.313616" xlink:href="#me6168a1f6a" y="232.46"/>
      </g>
     </g>
     <g id="text_4">
      <!-- $600$ -->
      <defs>
       <path d="M 10.59375 34.34375 
C 10.59375 58 21.796875 63.6875 28.296875 63.6875 
C 30.40625 63.6875 35.5 63.265625 37.5 59.09375 
C 35.90625 59.09375 32.90625 59.09375 32.90625 55.59375 
C 32.90625 52.890625 35.09375 52 36.5 52 
C 37.40625 52 40.09375 52.390625 40.09375 55.796875 
C 40.09375 62.296875 35.09375 66 28.203125 66 
C 16.296875 66 3.796875 53.296875 3.796875 31.421875 
C 3.796875 4.015625 15.09375 -2 23.09375 -2 
C 32.796875 -2 42 6.734375 42 20.234375 
C 42 32.828125 33.90625 42 23.703125 42 
C 17.59375 42 13.09375 37.96875 10.59375 30.921875 
z
M 23.09375 0.390625 
C 10.796875 0.390625 10.796875 18.9375 10.796875 22.65625 
C 10.796875 29.90625 14.203125 40.390625 23.5 40.390625 
C 25.203125 40.390625 30.09375 40.390625 33.40625 33.4375 
C 35.203125 29.515625 35.203125 25.375 35.203125 20.34375 
C 35.203125 14.90625 35.203125 10.875 33.09375 6.84375 
C 30.90625 2.703125 27.703125 0.390625 23.09375 0.390625 
z
" id="CMR17-54"/>
      </defs>
      <g transform="translate(242.841613 246.378498)scale(0.1 -0.1)">
       <use transform="scale(0.996264)" xlink:href="#CMR17-54"/>
       <use transform="translate(45.690477 0)scale(0.996264)" xlink:href="#CMR17-48"/>
       <use transform="translate(91.380954 0)scale(0.996264)" xlink:href="#CMR17-48"/>
      </g>
     </g>
    </g>
    <g id="xtick_5">
     <g id="line2d_9">
      <path clip-path="url(#p0481894723)" d="M 311.247277 232.46 
L 311.247277 10.7 
" style="fill:none;stroke:#b0b0b0;stroke-dasharray:0.8,1.32;stroke-dashoffset:0;stroke-width:0.8;"/>
     </g>
     <g id="line2d_10">
      <g>
       <use style="stroke:#000000;stroke-width:0.8;" x="311.247277" xlink:href="#me6168a1f6a" y="232.46"/>
      </g>
     </g>
     <g id="text_5">
      <!-- $800$ -->
      <defs>
       <path d="M 27.203125 35.765625 
C 33.5 38.96875 39.90625 43.796875 39.90625 51.53125 
C 39.90625 60.6875 31.09375 66 23 66 
C 13.90625 66 5.90625 59.375 5.90625 50.234375 
C 5.90625 47.71875 6.5 43.390625 10.40625 39.578125 
C 11.40625 38.578125 15.59375 35.5625 18.296875 33.65625 
C 13.796875 31.34375 3.296875 25.8125 3.296875 14.765625 
C 3.296875 4.40625 13.09375 -2 22.796875 -2 
C 33.5 -2 42.5 5.71875 42.5 15.96875 
C 42.5 25.109375 36.40625 29.328125 32.40625 32.046875 
z
M 14.09375 44.609375 
C 13.296875 45.109375 9.296875 48.21875 9.296875 52.9375 
C 9.296875 59.078125 15.59375 63.6875 22.796875 63.6875 
C 30.703125 63.6875 36.5 58.0625 36.5 51.53125 
C 36.5 42.1875 26.09375 36.859375 25.59375 36.859375 
C 25.5 36.859375 25.40625 36.859375 24.59375 37.46875 
z
M 32.5 24 
C 34 22.90625 38.796875 19.578125 38.796875 13.453125 
C 38.796875 6.015625 31.40625 0.390625 23 0.390625 
C 13.90625 0.390625 7 6.921875 7 14.859375 
C 7 22.796875 13.09375 29.4375 20 32.546875 
z
" id="CMR17-56"/>
      </defs>
      <g transform="translate(303.775274 246.378498)scale(0.1 -0.1)">
       <use transform="scale(0.996264)" xlink:href="#CMR17-56"/>
       <use transform="translate(45.690477 0)scale(0.996264)" xlink:href="#CMR17-48"/>
       <use transform="translate(91.380954 0)scale(0.996264)" xlink:href="#CMR17-48"/>
      </g>
     </g>
    </g>
    <g id="xtick_6">
     <g id="line2d_11">
      <path clip-path="url(#p0481894723)" d="M 372.180938 232.46 
L 372.180938 10.7 
" style="fill:none;stroke:#b0b0b0;stroke-dasharray:0.8,1.32;stroke-dashoffset:0;stroke-width:0.8;"/>
     </g>
     <g id="line2d_12">
      <g>
       <use style="stroke:#000000;stroke-width:0.8;" x="372.180938" xlink:href="#me6168a1f6a" y="232.46"/>
      </g>
     </g>
     <g id="text_6">
      <!-- $1000$ -->
      <defs>
       <path d="M 26.59375 63.796875 
C 26.59375 65.890625 26.5 66 25.09375 66 
C 21.203125 61.359375 15.296875 59.890625 9.703125 59.6875 
C 9.40625 59.6875 8.90625 59.6875 8.796875 59.5 
C 8.703125 59.296875 8.703125 59.09375 8.703125 57 
C 11.796875 57 17 57.59375 21 59.984375 
L 21 7.296875 
C 21 3.796875 20.796875 2.59375 12.203125 2.59375 
L 9.203125 2.59375 
L 9.203125 0 
C 14 0.09375 19 0.1875 23.796875 0.1875 
C 28.59375 0.1875 33.59375 0.09375 38.40625 0 
L 38.40625 2.59375 
L 35.40625 2.59375 
C 26.796875 2.59375 26.59375 3.6875 26.59375 7.296875 
z
" id="CMR17-49"/>
      </defs>
      <g transform="translate(362.218267 246.378498)scale(0.1 -0.1)">
       <use transform="scale(0.996264)" xlink:href="#CMR17-49"/>
       <use transform="translate(45.690477 0)scale(0.996264)" xlink:href="#CMR17-48"/>
       <use transform="translate(91.380954 0)scale(0.996264)" xlink:href="#CMR17-48"/>
       <use transform="translate(137.071431 0)scale(0.996264)" xlink:href="#CMR17-48"/>
      </g>
     </g>
    </g>
    <g id="text_7">
     <!-- iteration $k$ -->
     <defs>
      <path d="M 15.5 61.890625 
C 15.5 64.09375 13.703125 66 11.40625 66 
C 9.203125 66 7.296875 64.1875 7.296875 61.890625 
C 7.296875 59.6875 9.09375 57.796875 11.40625 57.796875 
C 13.59375 57.796875 15.5 59.59375 15.5 61.890625 
z
M 3.796875 42.890625 
L 3.796875 40.296875 
C 9.40625 40.296875 10.203125 39.6875 10.203125 34.859375 
L 10.203125 6.921875 
C 10.203125 3.09375 9.796875 2.59375 3.40625 2.59375 
L 3.40625 0 
C 5.796875 0.1875 10.09375 0.1875 12.59375 0.1875 
C 15 0.1875 19.09375 0.1875 21.40625 0 
L 21.40625 2.59375 
C 15.5 2.59375 15.296875 3.203125 15.296875 6.8125 
L 15.296875 44 
z
" id="CMR17-105"/>
      <path d="M 15.09375 40.390625 
L 29.09375 40.390625 
L 29.09375 43 
L 15.09375 43 
L 15.09375 62 
L 13.296875 62 
C 13.09375 51.4375 9.59375 42.1875 1.09375 41.984375 
L 1.09375 40.390625 
L 9.796875 40.390625 
L 9.796875 12.15625 
C 9.796875 10.234375 9.796875 -1 21.40625 -1 
C 27.296875 -1 30.703125 4.8125 30.703125 12.25 
L 30.703125 17.984375 
L 28.90625 17.984375 
L 28.90625 12.34375 
C 28.90625 5.421875 26.203125 0.796875 22 0.796875 
C 19.09375 0.796875 15.09375 2.796875 15.09375 11.953125 
z
" id="CMR17-116"/>
      <path d="M 38.09375 23.484375 
C 38.5 23.890625 38.5 24.09375 38.5 25.09375 
C 38.5 35.171875 33.09375 44 21.703125 44 
C 11.09375 44 2.703125 33.984375 2.703125 21.78125 
C 2.703125 8.65625 12.203125 -1 22.796875 -1 
C 34 -1 38.40625 9.671875 38.40625 11.796875 
C 38.40625 12.5 37.796875 12.5 37.59375 12.5 
C 36.90625 12.5 36.796875 12.296875 36.40625 11.078125 
C 34.203125 4.21875 28.703125 0.796875 23.5 0.796875 
C 19.203125 0.796875 14.90625 3.21875 12.203125 7.65625 
C 9.09375 12.796875 9.09375 18.75 9.09375 23.484375 
z
M 9.203125 25 
C 9.90625 39.234375 17.59375 42.390625 21.59375 42.390625 
C 28.40625 42.390625 33 36.0625 33.09375 25 
z
" id="CMR17-101"/>
      <path d="M 15 23.703125 
C 15 33.34375 19.09375 42.390625 26.59375 42.390625 
C 27.296875 42.390625 28 42.296875 28.703125 41.984375 
C 28.703125 41.984375 26.5 41.28125 26.5 38.671875 
C 26.5 36.265625 28.40625 35.265625 29.90625 35.265625 
C 31.09375 35.265625 33.296875 35.96875 33.296875 38.78125 
C 33.296875 41.984375 30.09375 44 26.703125 44 
C 19.09375 44 15.796875 36.5625 14.796875 33.046875 
L 14.703125 33.046875 
L 14.703125 44 
L 3.09375 42.890625 
L 3.09375 40.28125 
C 9 40.28125 9.90625 39.6875 9.90625 34.859375 
L 9.90625 6.921875 
C 9.90625 3.09375 9.5 2.59375 3.09375 2.59375 
L 3.09375 0 
C 5.5 0.1875 10.09375 0.1875 12.703125 0.1875 
C 15.59375 0.1875 20.703125 0.1875 23.40625 0 
L 23.40625 2.59375 
C 16.203125 2.59375 15 2.59375 15 7.109375 
z
" id="CMR17-114"/>
      <path d="M 36 25.875 
C 36 32 36 35.546875 31.796875 39.59375 
C 28.09375 42.984375 23.796875 44 20.40625 44 
C 12.5 44 6.796875 37.625 6.796875 30.890625 
C 6.796875 27.1875 9.796875 27 10.40625 27 
C 11.703125 27 14 27.796875 14 30.59375 
C 14 33.09375 12.09375 34.1875 10.40625 34.1875 
C 10 34.1875 9.5 34.09375 9.203125 34 
C 11.296875 40.53125 16.703125 42.390625 20.203125 42.390625 
C 25.203125 42.390625 30.703125 37.828125 30.703125 29.296875 
L 30.703125 25.5 
C 24.796875 25.296875 17.703125 24.5 12.09375 21.453125 
C 5.796875 17.921875 4 12.84375 4 9 
C 4 1.203125 13 -1 18.296875 -1 
C 23.796875 -1 28.90625 2.109375 31.09375 7.890625 
C 31.296875 3.421875 34.09375 -0.609375 38.5 -0.609375 
C 40.59375 -0.609375 45.90625 0.796875 45.90625 8.796875 
L 45.90625 14.46875 
L 44.09375 14.46875 
L 44.09375 8.703125 
C 44.09375 2.515625 41.40625 1.703125 40.09375 1.703125 
C 36 1.703125 36 6.96875 36 11.4375 
z
M 30.703125 13.859375 
C 30.703125 5.046875 24.5 0.59375 19 0.59375 
C 14 0.59375 10.09375 4.34375 10.09375 9 
C 10.09375 12.046875 11.40625 17.40625 17.203125 20.65625 
C 22 23.390625 27.5 23.796875 30.703125 24 
z
" id="CMR17-97"/>
      <path d="M 43.09375 21.1875 
C 43.09375 34 33.796875 44 22.90625 44 
C 12 44 2.703125 34 2.703125 21.1875 
C 2.703125 8.59375 12 -1 22.90625 -1 
C 33.796875 -1 43.09375 8.59375 43.09375 21.1875 
z
M 22.90625 0.796875 
C 18.203125 0.796875 14.203125 3.59375 11.90625 7.5 
C 9.40625 12 9.09375 17.59375 9.09375 22 
C 9.09375 26.1875 9.296875 31.390625 11.90625 35.890625 
C 13.90625 39.1875 17.796875 42.390625 22.90625 42.390625 
C 27.40625 42.390625 31.203125 39.890625 33.59375 36.390625 
C 36.703125 31.6875 36.703125 25.09375 36.703125 22 
C 36.703125 18.09375 36.5 12.09375 33.796875 7.296875 
C 31 2.6875 26.703125 0.796875 22.90625 0.796875 
z
" id="CMR17-111"/>
      <path d="M 41.5 30.53125 
C 41.5 35.65625 40.5 44 28.703125 44 
C 20.796875 44 16.703125 37.875 15.203125 33.84375 
L 15.09375 33.84375 
L 15.09375 44 
L 3.296875 42.890625 
L 3.296875 40.28125 
C 9.203125 40.28125 10.09375 39.6875 10.09375 34.859375 
L 10.09375 6.921875 
C 10.09375 3.09375 9.703125 2.59375 3.296875 2.59375 
L 3.296875 0 
C 5.703125 0.1875 10.09375 0.1875 12.703125 0.1875 
C 15.296875 0.1875 19.796875 0.1875 22.203125 0 
L 22.203125 2.59375 
C 15.796875 2.59375 15.40625 3 15.40625 6.921875 
L 15.40625 26.21875 
C 15.40625 35.453125 21 42.390625 28 42.390625 
C 35.40625 42.390625 36.203125 35.765625 36.203125 30.9375 
L 36.203125 6.921875 
C 36.203125 3.09375 35.796875 2.59375 29.40625 2.59375 
L 29.40625 0 
C 31.796875 0.1875 36.203125 0.1875 38.796875 0.1875 
C 41.40625 0.1875 45.90625 0.1875 48.296875 0 
L 48.296875 2.59375 
C 41.90625 2.59375 41.5 3 41.5 6.921875 
z
" id="CMR17-110"/>
      <path d="M 28.09375 66.484375 
C 28.203125 66.890625 28.40625 67.484375 28.40625 67.984375 
C 28.40625 69 27.40625 69 27.203125 69 
C 27.09375 69 23.5 68.6875 21.703125 68.484375 
C 20 68.390625 18.5 68.1875 16.703125 68.09375 
C 14.296875 67.890625 13.59375 67.796875 13.59375 65.984375 
C 13.59375 64.984375 14.59375 64.984375 15.59375 64.984375 
C 20.703125 64.984375 20.703125 64.109375 20.703125 63.125 
C 20.703125 62.71875 20.703125 62.53125 20.203125 60.75 
L 5.90625 3.90625 
C 5.5 2.390625 5.5 2.203125 5.5 1.59375 
C 5.5 -0.609375 7.203125 -1 8.203125 -1 
C 11 -1 11.59375 1.1875 12.40625 4.296875 
L 17.09375 23.0625 
C 24.296875 22.265625 28.59375 19.25 28.59375 14.4375 
C 28.59375 13.828125 28.59375 13.4375 28.296875 11.921875 
C 27.90625 10.421875 27.90625 9.21875 27.90625 8.71875 
C 27.90625 2.890625 31.703125 -1 36.796875 -1 
C 41.40625 -1 43.796875 3.203125 44.59375 4.609375 
C 46.703125 8.3125 48 13.9375 48 14.328125 
C 48 14.828125 47.59375 15.234375 47 15.234375 
C 46.09375 15.234375 46 14.828125 45.59375 13.234375 
C 44.203125 8.015625 42.09375 1 37 1 
C 35 1 33.703125 2 33.703125 5.8125 
C 33.703125 7.71875 34.09375 9.921875 34.5 11.421875 
C 34.90625 13.234375 34.90625 13.328125 34.90625 14.53125 
C 34.90625 20.453125 29.59375 23.765625 20.40625 24.96875 
C 24 27.171875 27.59375 31.078125 29 32.59375 
C 34.703125 38.984375 38.59375 41.984375 43.203125 41.984375 
C 45.5 41.984375 46.09375 41.484375 46.796875 41 
C 43.09375 40.59375 41.703125 37.984375 41.703125 35.984375 
C 41.703125 33.59375 43.59375 32.796875 45 32.796875 
C 47.703125 32.796875 50.09375 35.09375 50.09375 38.296875 
C 50.09375 41.15625 47.796875 44 43.296875 44 
C 37.796875 44 33.296875 40.296875 26.203125 32.296875 
C 25.203125 31.078125 21.5 27.28125 17.796875 25.875 
z
" id="CMMI12-107"/>
     </defs>
     <g transform="translate(196.885256 259.234175)scale(0.1 -0.1)">
      <use transform="scale(0.996264)" xlink:href="#CMR17-105"/>
      <use transform="translate(24.871058 0)scale(0.996264)" xlink:href="#CMR17-116"/>
      <use transform="translate(60.151826 0)scale(0.996264)" xlink:href="#CMR17-101"/>
      <use transform="translate(100.637487 0)scale(0.996264)" xlink:href="#CMR17-114"/>
      <use transform="translate(135.918255 0)scale(0.996264)" xlink:href="#CMR17-97"/>
      <use transform="translate(181.608732 0)scale(0.996264)" xlink:href="#CMR17-116"/>
      <use transform="translate(216.889499 0)scale(0.996264)" xlink:href="#CMR17-105"/>
      <use transform="translate(241.760558 0)scale(0.996264)" xlink:href="#CMR17-111"/>
      <use transform="translate(287.451035 0)scale(0.996264)" xlink:href="#CMR17-110"/>
      <use transform="translate(368.422371 0)scale(0.996264)" xlink:href="#CMMI12-107"/>
     </g>
    </g>
   </g>
   <g id="matplotlib.axis_2">
    <g id="ytick_1">
     <g id="line2d_13">
      <path clip-path="url(#p0481894723)" d="M 52.294451 232.46 
L 387.094451 232.46 
" style="fill:none;stroke:#b0b0b0;stroke-dasharray:0.8,1.32;stroke-dashoffset:0;stroke-width:0.8;"/>
     </g>
     <g id="line2d_14">
      <defs>
       <path d="M 0 0 
L -3.5 0 
" id="mfc38cb7753" style="stroke:#000000;stroke-width:0.8;"/>
      </defs>
      <g>
       <use style="stroke:#000000;stroke-width:0.8;" x="52.294451" xlink:href="#mfc38cb7753" y="232.46"/>
      </g>
     </g>
     <g id="text_8">
      <!-- $10^{-16}$ -->
      <defs>
       <path d="M 65.90625 23 
C 67.59375 23 69.40625 23 69.40625 25 
C 69.40625 27 67.59375 27 65.90625 27 
L 11.796875 27 
C 10.09375 27 8.296875 27 8.296875 25 
C 8.296875 23 10.09375 23 11.796875 23 
z
" id="CMSY10-0"/>
      </defs>
      <g transform="translate(21.16264 235.919249)scale(0.1 -0.1)">
       <use transform="scale(0.996264)" xlink:href="#CMR17-49"/>
       <use transform="translate(45.690477 0)scale(0.996264)" xlink:href="#CMR17-48"/>
       <use transform="translate(91.380954 36.153639)scale(0.697382)" xlink:href="#CMSY10-0"/>
       <use transform="translate(145.621947 36.153639)scale(0.697382)" xlink:href="#CMR17-49"/>
       <use transform="translate(177.605129 36.153639)scale(0.697382)" xlink:href="#CMR17-54"/>
      </g>
     </g>
    </g>
    <g id="ytick_2">
     <g id="line2d_15">
      <path clip-path="url(#p0481894723)" d="M 52.294451 205.900278 
L 387.094451 205.900278 
" style="fill:none;stroke:#b0b0b0;stroke-dasharray:0.8,1.32;stroke-dashoffset:0;stroke-width:0.8;"/>
     </g>
     <g id="line2d_16">
      <g>
       <use style="stroke:#000000;stroke-width:0.8;" x="52.294451" xlink:href="#mfc38cb7753" y="205.900278"/>
      </g>
     </g>
     <g id="text_9">
      <!-- $10^{-14}$ -->
      <g transform="translate(21.16264 209.359527)scale(0.1 -0.1)">
       <use transform="scale(0.996264)" xlink:href="#CMR17-49"/>
       <use transform="translate(45.690477 0)scale(0.996264)" xlink:href="#CMR17-48"/>
       <use transform="translate(91.380954 36.153639)scale(0.697382)" xlink:href="#CMSY10-0"/>
       <use transform="translate(145.621947 36.153639)scale(0.697382)" xlink:href="#CMR17-49"/>
       <use transform="translate(177.605129 36.153639)scale(0.697382)" xlink:href="#CMR17-52"/>
      </g>
     </g>
    </g>
    <g id="ytick_3">
     <g id="line2d_17">
      <path clip-path="url(#p0481894723)" d="M 52.294451 179.340556 
L 387.094451 179.340556 
" style="fill:none;stroke:#b0b0b0;stroke-dasharray:0.8,1.32;stroke-dashoffset:0;stroke-width:0.8;"/>
     </g>
     <g id="line2d_18">
      <g>
       <use style="stroke:#000000;stroke-width:0.8;" x="52.294451" xlink:href="#mfc38cb7753" y="179.340556"/>
      </g>
     </g>
     <g id="text_10">
      <!-- $10^{-12}$ -->
      <g transform="translate(21.16264 182.799805)scale(0.1 -0.1)">
       <use transform="scale(0.996264)" xlink:href="#CMR17-49"/>
       <use transform="translate(45.690477 0)scale(0.996264)" xlink:href="#CMR17-48"/>
       <use transform="translate(91.380954 36.153639)scale(0.697382)" xlink:href="#CMSY10-0"/>
       <use transform="translate(145.621947 36.153639)scale(0.697382)" xlink:href="#CMR17-49"/>
       <use transform="translate(177.605129 36.153639)scale(0.697382)" xlink:href="#CMR17-50"/>
      </g>
     </g>
    </g>
    <g id="ytick_4">
     <g id="line2d_19">
      <path clip-path="url(#p0481894723)" d="M 52.294451 152.780834 
L 387.094451 152.780834 
" style="fill:none;stroke:#b0b0b0;stroke-dasharray:0.8,1.32;stroke-dashoffset:0;stroke-width:0.8;"/>
     </g>
     <g id="line2d_20">
      <g>
       <use style="stroke:#000000;stroke-width:0.8;" x="52.294451" xlink:href="#mfc38cb7753" y="152.780834"/>
      </g>
     </g>
     <g id="text_11">
      <!-- $10^{-10}$ -->
      <g transform="translate(21.16264 156.240083)scale(0.1 -0.1)">
       <use transform="scale(0.996264)" xlink:href="#CMR17-49"/>
       <use transform="translate(45.690477 0)scale(0.996264)" xlink:href="#CMR17-48"/>
       <use transform="translate(91.380954 36.153639)scale(0.697382)" xlink:href="#CMSY10-0"/>
       <use transform="translate(145.621947 36.153639)scale(0.697382)" xlink:href="#CMR17-49"/>
       <use transform="translate(177.605129 36.153639)scale(0.697382)" xlink:href="#CMR17-48"/>
      </g>
     </g>
    </g>
    <g id="ytick_5">
     <g id="line2d_21">
      <path clip-path="url(#p0481894723)" d="M 52.294451 126.221112 
L 387.094451 126.221112 
" style="fill:none;stroke:#b0b0b0;stroke-dasharray:0.8,1.32;stroke-dashoffset:0;stroke-width:0.8;"/>
     </g>
     <g id="line2d_22">
      <g>
       <use style="stroke:#000000;stroke-width:0.8;" x="52.294451" xlink:href="#mfc38cb7753" y="126.221112"/>
      </g>
     </g>
     <g id="text_12">
      <!-- $10^{-8}$ -->
      <g transform="translate(25.133878 129.680361)scale(0.1 -0.1)">
       <use transform="scale(0.996264)" xlink:href="#CMR17-49"/>
       <use transform="translate(45.690477 0)scale(0.996264)" xlink:href="#CMR17-48"/>
       <use transform="translate(91.380954 36.153639)scale(0.697382)" xlink:href="#CMSY10-0"/>
       <use transform="translate(145.621947 36.153639)scale(0.697382)" xlink:href="#CMR17-56"/>
      </g>
     </g>
    </g>
    <g id="ytick_6">
     <g id="line2d_23">
      <path clip-path="url(#p0481894723)" d="M 52.294451 99.66139 
L 387.094451 99.66139 
" style="fill:none;stroke:#b0b0b0;stroke-dasharray:0.8,1.32;stroke-dashoffset:0;stroke-width:0.8;"/>
     </g>
     <g id="line2d_24">
      <g>
       <use style="stroke:#000000;stroke-width:0.8;" x="52.294451" xlink:href="#mfc38cb7753" y="99.66139"/>
      </g>
     </g>
     <g id="text_13">
      <!-- $10^{-6}$ -->
      <g transform="translate(25.133878 103.120639)scale(0.1 -0.1)">
       <use transform="scale(0.996264)" xlink:href="#CMR17-49"/>
       <use transform="translate(45.690477 0)scale(0.996264)" xlink:href="#CMR17-48"/>
       <use transform="translate(91.380954 36.153639)scale(0.697382)" xlink:href="#CMSY10-0"/>
       <use transform="translate(145.621947 36.153639)scale(0.697382)" xlink:href="#CMR17-54"/>
      </g>
     </g>
    </g>
    <g id="ytick_7">
     <g id="line2d_25">
      <path clip-path="url(#p0481894723)" d="M 52.294451 73.101668 
L 387.094451 73.101668 
" style="fill:none;stroke:#b0b0b0;stroke-dasharray:0.8,1.32;stroke-dashoffset:0;stroke-width:0.8;"/>
     </g>
     <g id="line2d_26">
      <g>
       <use style="stroke:#000000;stroke-width:0.8;" x="52.294451" xlink:href="#mfc38cb7753" y="73.101668"/>
      </g>
     </g>
     <g id="text_14">
      <!-- $10^{-4}$ -->
      <g transform="translate(25.133878 76.560918)scale(0.1 -0.1)">
       <use transform="scale(0.996264)" xlink:href="#CMR17-49"/>
       <use transform="translate(45.690477 0)scale(0.996264)" xlink:href="#CMR17-48"/>
       <use transform="translate(91.380954 36.153639)scale(0.697382)" xlink:href="#CMSY10-0"/>
       <use transform="translate(145.621947 36.153639)scale(0.697382)" xlink:href="#CMR17-52"/>
      </g>
     </g>
    </g>
    <g id="ytick_8">
     <g id="line2d_27">
      <path clip-path="url(#p0481894723)" d="M 52.294451 46.541946 
L 387.094451 46.541946 
" style="fill:none;stroke:#b0b0b0;stroke-dasharray:0.8,1.32;stroke-dashoffset:0;stroke-width:0.8;"/>
     </g>
     <g id="line2d_28">
      <g>
       <use style="stroke:#000000;stroke-width:0.8;" x="52.294451" xlink:href="#mfc38cb7753" y="46.541946"/>
      </g>
     </g>
     <g id="text_15">
      <!-- $10^{-2}$ -->
      <g transform="translate(25.133878 50.001196)scale(0.1 -0.1)">
       <use transform="scale(0.996264)" xlink:href="#CMR17-49"/>
       <use transform="translate(45.690477 0)scale(0.996264)" xlink:href="#CMR17-48"/>
       <use transform="translate(91.380954 36.153639)scale(0.697382)" xlink:href="#CMSY10-0"/>
       <use transform="translate(145.621947 36.153639)scale(0.697382)" xlink:href="#CMR17-50"/>
      </g>
     </g>
    </g>
    <g id="ytick_9">
     <g id="line2d_29">
      <path clip-path="url(#p0481894723)" d="M 52.294451 19.982224 
L 387.094451 19.982224 
" style="fill:none;stroke:#b0b0b0;stroke-dasharray:0.8,1.32;stroke-dashoffset:0;stroke-width:0.8;"/>
     </g>
     <g id="line2d_30">
      <g>
       <use style="stroke:#000000;stroke-width:0.8;" x="52.294451" xlink:href="#mfc38cb7753" y="19.982224"/>
      </g>
     </g>
     <g id="text_16">
      <!-- $10^{0}$ -->
      <g transform="translate(31.360543 23.441474)scale(0.1 -0.1)">
       <use transform="scale(0.996264)" xlink:href="#CMR17-49"/>
       <use transform="translate(45.690477 0)scale(0.996264)" xlink:href="#CMR17-48"/>
       <use transform="translate(91.380954 36.153639)scale(0.697382)" xlink:href="#CMR17-48"/>
      </g>
     </g>
    </g>
    <g id="text_17">
     <!-- $\mathbf{A}$-norm of error: $\| \mathbf{x}-\mathbf{x}_k \|_\mathbf{A}$ -->
     <defs>
      <path d="M 45.796875 67.703125 
C 45.09375 69.5 44.90625 70 42.5 70 
C 40 70 39.796875 69.5 39.09375 67.703125 
L 14.296875 6.703125 
C 13.59375 5.09375 13.59375 4.890625 10.796875 4.59375 
C 8.296875 4.296875 7.90625 4.296875 5.703125 4.296875 
L 3.90625 4.296875 
L 3.90625 0 
C 6.5 0.1875 12.5 0.1875 15.40625 0.1875 
C 18.09375 0.1875 25.40625 0.1875 27.703125 0 
L 27.703125 4.296875 
C 25.5 4.296875 21.703125 4.296875 18.90625 5.40625 
C 19.203125 6.3125 19.203125 6.5 19.40625 6.90625 
L 24.703125 20 
L 51.5 20 
L 57.796875 4.296875 
L 48.40625 4.296875 
L 48.40625 0 
C 51.59375 0.1875 61.296875 0.1875 65.09375 0.1875 
C 68.296875 0.1875 78.5 0.1875 81 0 
L 81 4.296875 
L 71.5 4.296875 
z
M 38.09375 53.03125 
L 49.703125 24.296875 
L 26.40625 24.296875 
z
" id="CMBX12-65"/>
      <path d="M 25.5 19.59375 
L 25.5 24 
L 0.40625 24 
L 0.40625 19.59375 
z
" id="CMR17-45"/>
      <path d="M 67.59375 30.53125 
C 67.59375 35.5625 66.703125 44 54.796875 44 
C 48 44 43.296875 39.375 41.5 33.953125 
L 41.40625 33.953125 
C 40.203125 42.1875 34.296875 44 28.703125 44 
C 20.796875 44 16.703125 37.875 15.203125 33.84375 
L 15.09375 33.84375 
L 15.09375 44 
L 3.296875 42.890625 
L 3.296875 40.28125 
C 9.203125 40.28125 10.09375 39.6875 10.09375 34.859375 
L 10.09375 6.921875 
C 10.09375 3.09375 9.703125 2.59375 3.296875 2.59375 
L 3.296875 0 
C 5.703125 0.1875 10.09375 0.1875 12.703125 0.1875 
C 15.296875 0.1875 19.796875 0.1875 22.203125 0 
L 22.203125 2.59375 
C 15.796875 2.59375 15.40625 3 15.40625 6.921875 
L 15.40625 26.21875 
C 15.40625 35.453125 21 42.390625 28 42.390625 
C 35.40625 42.390625 36.203125 35.765625 36.203125 30.9375 
L 36.203125 6.921875 
C 36.203125 3.09375 35.796875 2.59375 29.40625 2.59375 
L 29.40625 0 
C 31.796875 0.1875 36.203125 0.1875 38.796875 0.1875 
C 41.40625 0.1875 45.90625 0.1875 48.296875 0 
L 48.296875 2.59375 
C 41.90625 2.59375 41.5 3 41.5 6.921875 
L 41.5 26.21875 
C 41.5 35.453125 47.09375 42.390625 54.09375 42.390625 
C 61.5 42.390625 62.296875 35.765625 62.296875 30.9375 
L 62.296875 6.921875 
C 62.296875 3.09375 61.90625 2.59375 55.5 2.59375 
L 55.5 0 
C 57.90625 0.1875 62.296875 0.1875 64.90625 0.1875 
C 67.5 0.1875 72 0.1875 74.40625 0 
L 74.40625 2.59375 
C 68 2.59375 67.59375 3 67.59375 6.921875 
z
" id="CMR17-109"/>
      <path d="M 15.296875 40.390625 
L 26.703125 40.390625 
L 26.703125 43 
L 15.09375 43 
L 15.09375 55.296875 
C 15.09375 63.6875 19.296875 68.390625 23.59375 68.390625 
C 24.90625 68.390625 26.40625 68.171875 27.40625 67.796875 
C 26.59375 67.59375 24.5 66.890625 24.5 64.390625 
C 24.5 61.796875 26.5 61 27.90625 61 
C 29.296875 61 31.296875 61.796875 31.296875 64.390625 
C 31.296875 68.015625 27.703125 70 23.703125 70 
C 18 70 10.203125 65.796875 10.203125 55.09375 
L 10.203125 43 
L 2.203125 43 
L 2.203125 40.390625 
L 10.203125 40.390625 
L 10.203125 6.890625 
C 10.203125 3.09375 9.796875 2.59375 3.40625 2.59375 
L 3.40625 0 
C 5.796875 0.1875 10.40625 0.1875 13 0.1875 
C 15.90625 0.1875 21 0.1875 23.703125 0 
L 23.703125 2.59375 
C 16.5 2.59375 15.296875 2.59375 15.296875 7.09375 
z
" id="CMR17-102"/>
      <path d="M 16.59375 38.890625 
C 16.59375 41.390625 14.59375 43 12.5 43 
C 10.5 43 8.40625 41.390625 8.40625 38.890625 
C 8.40625 36.390625 10.40625 34.796875 12.5 34.796875 
C 14.5 34.796875 16.59375 36.390625 16.59375 38.890625 
z
M 16.59375 4.09375 
C 16.59375 6.59375 14.59375 8.1875 12.5 8.1875 
C 10.5 8.1875 8.40625 6.59375 8.40625 4.09375 
C 8.40625 1.59375 10.40625 0 12.5 0 
C 14.5 0 16.59375 1.59375 16.59375 4.09375 
z
" id="CMR17-58"/>
      <path d="M 17.203125 71.59375 
C 17.203125 73.1875 17.203125 75 15.203125 75 
C 13.203125 75 13.203125 72.796875 13.203125 71.296875 
L 13.203125 -21.3125 
C 13.203125 -22.90625 13.203125 -25 15.203125 -25 
C 17.203125 -25 17.203125 -23.203125 17.203125 -21.609375 
z
M 36.703125 71.296875 
C 36.703125 72.890625 36.703125 75 34.703125 75 
C 32.703125 75 32.703125 73.1875 32.703125 71.59375 
L 32.703125 -21.609375 
C 32.703125 -23.203125 32.703125 -25 34.703125 -25 
C 36.703125 -25 36.703125 -22.8125 36.703125 -21.3125 
z
" id="CMSY10-107"/>
      <path d="M 33.703125 24.46875 
L 45.296875 37.609375 
C 46.40625 38.90625 47.296875 39.6875 55.59375 39.6875 
L 55.59375 44 
C 50 43.796875 49.796875 43.796875 46.40625 43.796875 
C 43.5 43.796875 39.203125 43.796875 36.40625 44 
L 36.40625 39.6875 
C 38.296875 39.6875 40.40625 39.203125 40.40625 38.5 
C 40.40625 38.3125 39.90625 37.609375 39.703125 37.421875 
L 31 27.71875 
L 21.09375 39.6875 
L 25.296875 39.6875 
L 25.296875 44 
C 23 43.796875 16.203125 43.796875 13.5 43.796875 
C 10.5 43.796875 5.09375 43.796875 2.296875 44 
L 2.296875 39.6875 
L 9.40625 39.6875 
L 25 20.90625 
L 12 6.375 
C 10.796875 4.984375 10.09375 4.296875 1.796875 4.296875 
L 1.796875 0 
C 7.796875 0.1875 8 0.1875 11.09375 0.1875 
C 14 0.1875 18.203125 0.1875 21 0 
L 21 4.296875 
C 19.09375 4.296875 17 4.78125 17 5.484375 
C 17 5.578125 17 5.671875 17.703125 6.46875 
L 27.703125 17.640625 
L 38.796875 4.296875 
L 34.59375 4.296875 
L 34.59375 0 
C 37 0.1875 43.703125 0.1875 46.5 0.1875 
C 49.5 0.1875 54.796875 0.1875 57.59375 0 
L 57.59375 4.296875 
L 50.59375 4.296875 
z
" id="CMBX12-120"/>
     </defs>
     <g transform="translate(15.225462 183.362537)rotate(-90)scale(0.1 -0.1)">
      <use transform="translate(0 14.943915)scale(0.996264)" xlink:href="#CMBX12-65"/>
      <use transform="translate(84.636395 14.943915)scale(0.996264)" xlink:href="#CMR17-45"/>
      <use transform="translate(114.712361 14.943915)scale(0.996264)" xlink:href="#CMR17-110"/>
      <use transform="translate(165.607731 14.943915)scale(0.996264)" xlink:href="#CMR17-111"/>
      <use transform="translate(211.298208 14.943915)scale(0.996264)" xlink:href="#CMR17-114"/>
      <use transform="translate(246.578976 14.943915)scale(0.996264)" xlink:href="#CMR17-109"/>
      <use transform="translate(353.574532 14.943915)scale(0.996264)" xlink:href="#CMR17-111"/>
      <use transform="translate(399.265009 14.943915)scale(0.996264)" xlink:href="#CMR17-102"/>
      <use transform="translate(456.814488 14.943915)scale(0.996264)" xlink:href="#CMR17-101"/>
      <use transform="translate(497.300148 14.943915)scale(0.996264)" xlink:href="#CMR17-114"/>
      <use transform="translate(532.580916 14.943915)scale(0.996264)" xlink:href="#CMR17-114"/>
      <use transform="translate(567.861684 14.943915)scale(0.996264)" xlink:href="#CMR17-111"/>
      <use transform="translate(613.552161 14.943915)scale(0.996264)" xlink:href="#CMR17-114"/>
      <use transform="translate(648.832929 14.943915)scale(0.996264)" xlink:href="#CMR17-58"/>
      <use transform="translate(714.189648 14.943915)scale(0.996264)" xlink:href="#CMSY10-107"/>
      <use transform="translate(764.003031 14.943915)scale(0.996264)" xlink:href="#CMBX12-120"/>
      <use transform="translate(845.295413 14.943915)scale(0.996264)" xlink:href="#CMSY10-0"/>
      <use transform="translate(944.922088 14.943915)scale(0.996264)" xlink:href="#CMBX12-120"/>
      <use transform="translate(1004.075263 0)scale(0.697382)" xlink:href="#CMMI12-107"/>
      <use transform="translate(1042.428646 14.943915)scale(0.996264)" xlink:href="#CMSY10-107"/>
      <use transform="translate(1092.242029 0)scale(0.697382)" xlink:href="#CMBX12-65"/>
     </g>
    </g>
   </g>
   <g id="line2d_31">
    <path clip-path="url(#p0481894723)" d="M 67.512633 19.982224 
L 68.12197 21.624248 
L 68.426638 21.825905 
L 68.731306 21.689435 
L 69.949979 21.813211 
L 70.863984 21.718076 
L 72.996662 21.665354 
L 74.520004 21.361259 
L 76.348014 21.072865 
L 77.566687 20.875405 
L 78.78536 20.80418 
L 80.004033 20.408132 
L 80.918038 20.330322 
L 83.964721 20.532443 
L 89.144083 21.266406 
L 101.330815 21.52829 
L 120.22025 21.610048 
L 135.148997 21.866374 
L 140.633026 22.160691 
L 145.507719 22.562518 
L 149.468407 22.981652 
L 150.68708 23.293261 
L 151.905753 23.774444 
L 153.429095 24.711293 
L 154.647768 25.354232 
L 157.389783 26.478681 
L 158.608456 26.921802 
L 161.655139 28.378846 
L 167.139169 31.902835 
L 169.881183 32.993415 
L 172.31853 33.648509 
L 187.247277 36.333327 
L 189.379955 36.731442 
L 191.512633 37.464165 
L 193.645311 38.829441 
L 194.559316 39.597554 
L 196.082657 41.17439 
L 197.301331 42.529709 
L 198.215336 43.257623 
L 200.652682 44.520296 
L 203.090029 45.525927 
L 204.308702 46.394159 
L 207.050716 48.672389 
L 208.26939 49.43431 
L 209.792731 50.173761 
L 212.839414 51.386007 
L 214.972092 51.880239 
L 218.323444 52.606112 
L 220.151454 53.127971 
L 221.370127 53.6499 
L 224.41681 55.291285 
L 225.940151 55.808645 
L 228.072829 56.472132 
L 230.205508 57.388563 
L 231.728849 58.369581 
L 232.642854 59.210319 
L 234.470864 61.254694 
L 237.212879 64.170507 
L 238.126884 65.20473 
L 239.040888 65.957082 
L 242.087571 67.752324 
L 243.306245 68.420276 
L 244.22025 69.031359 
L 247.571601 70.550683 
L 249.094943 71.771858 
L 250.313616 72.685699 
L 252.141626 74.377105 
L 253.664967 75.66559 
L 259.453665 78.933169 
L 262.805016 81.222197 
L 265.242363 83.309421 
L 271.640397 86.789018 
L 272.554402 87.678253 
L 273.468407 88.854708 
L 274.991748 91.428495 
L 276.210422 93.478249 
L 276.819758 94.277358 
L 279.866441 96.847923 
L 282.608456 100.007593 
L 284.131798 101.84134 
L 285.350471 103.505232 
L 286.264476 104.434231 
L 289.00649 107.066179 
L 291.139169 109.052363 
L 292.66251 110.002455 
L 295.099857 111.111003 
L 297.537203 113.013246 
L 298.755876 114.054196 
L 301.802559 116.455466 
L 305.458579 118.779117 
L 306.067915 119.455251 
L 310.028603 124.02109 
L 310.63794 124.704895 
L 312.161282 126.91251 
L 313.989291 130.202384 
L 314.903296 131.876183 
L 317.645311 138.343841 
L 319.473321 141.925436 
L 320.387326 143.61555 
L 321.301331 145.228468 
L 322.215336 147.189762 
L 323.129341 148.540812 
L 325.871355 151.681874 
L 328.308702 156.084697 
L 328.918038 157.434434 
L 331.355385 161.586951 
L 332.574058 163.498323 
L 336.839414 170.909836 
L 338.667424 174.104994 
L 339.276761 175.265393 
L 341.409439 178.552979 
L 342.323444 179.755208 
L 343.237449 180.78119 
L 344.456122 181.846857 
L 345.674795 182.658307 
L 346.893468 183.248998 
L 348.112142 183.537302 
L 349.635483 183.645051 
L 356.338186 183.7176 
L 371.876269 183.719006 
L 371.876269 183.719006 
" style="fill:none;stroke:#93a1a1;stroke-linecap:square;stroke-width:1.5;"/>
    <defs>
     <path d="M 0 3 
C 0.795609 3 1.55874 2.683901 2.12132 2.12132 
C 2.683901 1.55874 3 0.795609 3 0 
C 3 -0.795609 2.683901 -1.55874 2.12132 -2.12132 
C 1.55874 -2.683901 0.795609 -3 0 -3 
C -0.795609 -3 -1.55874 -2.683901 -2.12132 -2.12132 
C -2.683901 -1.55874 -3 -0.795609 -3 0 
C -3 0.795609 -2.683901 1.55874 -2.12132 2.12132 
C -1.55874 2.683901 -0.795609 3 0 3 
z
" id="me97abbaf7e" style="stroke:#93a1a1;"/>
    </defs>
    <g clip-path="url(#p0481894723)">
     <use style="fill:#93a1a1;stroke:#93a1a1;" x="67.512633" xlink:href="#me97abbaf7e" y="19.982224"/>
     <use style="fill:#93a1a1;stroke:#93a1a1;" x="128.446294" xlink:href="#me97abbaf7e" y="21.716589"/>
     <use style="fill:#93a1a1;stroke:#93a1a1;" x="189.379955" xlink:href="#me97abbaf7e" y="36.731442"/>
     <use style="fill:#93a1a1;stroke:#93a1a1;" x="250.313616" xlink:href="#me97abbaf7e" y="72.685699"/>
     <use style="fill:#93a1a1;stroke:#93a1a1;" x="311.247277" xlink:href="#me97abbaf7e" y="125.51099"/>
    </g>
   </g>
   <g id="line2d_32">
    <path clip-path="url(#p0481894723)" d="M 67.512633 19.982224 
L 68.12197 21.624248 
L 68.426638 21.825905 
L 68.731306 21.689435 
L 69.949979 21.813211 
L 70.863984 21.718076 
L 72.996662 21.665354 
L 74.520004 21.361259 
L 76.348014 21.072865 
L 77.566687 20.875405 
L 78.78536 20.80418 
L 80.004033 20.408132 
L 80.918038 20.330322 
L 83.964721 20.532443 
L 89.144083 21.266406 
L 101.330815 21.528292 
L 120.22025 21.610046 
L 135.148997 21.867857 
L 140.633026 22.160438 
L 150.68708 23.290994 
L 151.601085 23.599349 
L 152.819758 24.319758 
L 155.257105 25.602211 
L 160.741134 27.928383 
L 162.264476 28.79936 
L 167.443837 32.031745 
L 170.49052 33.1804 
L 173.232535 33.812832 
L 176.583886 34.353647 
L 186.028603 36.167659 
L 189.075286 36.666571 
L 191.207965 37.309924 
L 192.426638 38.053143 
L 194.254648 39.335272 
L 195.473321 40.554137 
L 197.301331 42.60322 
L 198.215336 43.29043 
L 200.95735 44.671375 
L 202.78536 45.440632 
L 203.699365 45.99515 
L 207.050716 48.69214 
L 208.574058 49.608154 
L 210.706736 50.530689 
L 213.144083 51.466357 
L 215.276761 51.952128 
L 218.628112 52.682114 
L 220.456122 53.278593 
L 222.5888 54.359109 
L 225.026146 55.575998 
L 228.986834 56.887691 
L 230.510176 57.599781 
L 231.728849 58.380612 
L 232.642854 59.155182 
L 233.861527 60.59207 
L 235.384869 62.149011 
L 236.298874 63.069501 
L 237.822215 64.927945 
L 239.040888 65.989441 
L 240.56423 67.009918 
L 241.782903 67.660688 
L 243.001576 68.315893 
L 243.915581 68.900129 
L 245.134255 69.489661 
L 246.962264 70.164356 
L 248.485606 71.277342 
L 249.399611 72.033939 
L 251.227621 73.492077 
L 253.05563 75.276172 
L 253.969635 75.846252 
L 258.53966 78.37753 
L 263.109685 81.505616 
L 265.242363 83.315839 
L 268.898382 85.394113 
L 270.421724 86.041218 
L 271.335729 86.655475 
L 272.554402 87.761481 
L 273.468407 89.031376 
L 274.382412 90.596167 
L 276.51509 94.08053 
L 277.429095 94.909317 
L 278.038431 95.291767 
L 279.866441 97.0221 
L 281.999119 99.501711 
L 283.522461 101.100137 
L 285.350471 103.592507 
L 286.264476 104.471006 
L 287.787817 105.740388 
L 291.139169 109.104581 
L 292.357842 109.872415 
L 293.271847 110.326122 
L 294.795188 110.915232 
L 296.623198 112.295339 
L 300.583886 115.530353 
L 301.802559 116.473181 
L 303.325901 117.349525 
L 305.763247 119.006777 
L 307.895925 121.692922 
L 308.80993 122.75348 
L 311.551945 125.995006 
L 314.598628 131.48656 
L 315.512633 133.553423 
L 317.035974 137.361796 
L 318.254648 140.017064 
L 319.473321 142.211172 
L 321.301331 145.326316 
L 322.520004 147.900522 
L 323.434009 148.999249 
L 324.652682 150.189446 
L 325.262019 150.872728 
L 326.78536 153.496622 
L 330.746048 160.795999 
L 332.878726 164.068839 
L 334.0974 166.285999 
L 337.753419 172.5164 
L 340.800102 178.16067 
L 342.323444 180.56321 
L 344.151454 182.645291 
L 345.370127 183.897898 
L 347.198137 185.155875 
L 348.41681 185.404932 
L 351.158825 185.487977 
L 359.994205 185.549043 
L 371.571601 185.662229 
L 371.876269 185.687548 
L 371.876269 185.687548 
" style="fill:none;stroke:#93a1a1;stroke-linecap:square;stroke-width:1.5;"/>
    <defs>
     <path d="M 0 -3 
L -3 3 
L 3 3 
z
" id="mde44de9a52" style="stroke:#93a1a1;stroke-linejoin:miter;"/>
    </defs>
    <g clip-path="url(#p0481894723)">
     <use style="fill:#93a1a1;stroke:#93a1a1;stroke-linejoin:miter;" x="82.746048" xlink:href="#mde44de9a52" y="20.444474"/>
     <use style="fill:#93a1a1;stroke:#93a1a1;stroke-linejoin:miter;" x="143.679709" xlink:href="#mde44de9a52" y="22.437924"/>
     <use style="fill:#93a1a1;stroke:#93a1a1;stroke-linejoin:miter;" x="204.61337" xlink:href="#mde44de9a52" y="46.804729"/>
     <use style="fill:#93a1a1;stroke:#93a1a1;stroke-linejoin:miter;" x="265.547031" xlink:href="#mde44de9a52" y="83.494314"/>
     <use style="fill:#93a1a1;stroke:#93a1a1;stroke-linejoin:miter;" x="326.480692" xlink:href="#mde44de9a52" y="152.943147"/>
    </g>
   </g>
   <g id="line2d_33">
    <path clip-path="url(#p0481894723)" d="M 67.512633 19.982224 
L 68.12197 21.624248 
L 68.426638 21.825905 
L 68.731306 21.689435 
L 69.949979 21.813211 
L 70.863984 21.718076 
L 72.996662 21.665354 
L 74.520004 21.361259 
L 76.348014 21.072865 
L 77.566687 20.875405 
L 78.78536 20.80418 
L 80.004033 20.408132 
L 80.918038 20.330322 
L 83.964721 20.532443 
L 89.144083 21.266406 
L 101.330815 21.528288 
L 120.22025 21.610046 
L 135.148997 21.865071 
L 140.937694 22.186533 
L 148.249734 22.822708 
L 150.077743 23.096368 
L 151.601085 23.596133 
L 152.819758 24.318364 
L 155.257105 25.608046 
L 160.741134 27.861135 
L 162.264476 28.716987 
L 164.092486 29.94974 
L 167.443837 32.006578 
L 170.185852 33.047826 
L 172.927866 33.734792 
L 178.411896 34.716093 
L 181.153911 35.339905 
L 187.551945 36.36234 
L 189.379955 36.724947 
L 191.207965 37.297452 
L 192.426638 37.993336 
L 193.949979 39.028257 
L 194.863984 39.779245 
L 195.777989 40.708668 
L 197.910667 42.937266 
L 198.824672 43.509544 
L 200.652682 44.468727 
L 203.090029 45.52674 
L 204.004033 46.134718 
L 206.136712 47.967122 
L 208.574058 49.517053 
L 210.0974 50.196664 
L 214.058087 51.648522 
L 219.846785 52.998183 
L 221.370127 53.595112 
L 224.112142 55.092505 
L 225.330815 55.620662 
L 228.377498 56.579368 
L 230.205508 57.321557 
L 231.728849 58.249457 
L 232.642854 58.968323 
L 235.0802 61.728211 
L 237.822215 64.606447 
L 238.73622 65.594124 
L 240.868898 67.020898 
L 242.696908 67.944665 
L 243.915581 68.660563 
L 244.829586 69.198575 
L 246.352928 69.753389 
L 247.266933 70.144762 
L 248.485606 71.098685 
L 250.008947 72.361463 
L 251.227621 73.41539 
L 254.274304 75.860959 
L 257.016318 77.352683 
L 260.672338 79.660151 
L 261.586343 80.274092 
L 262.805016 80.997463 
L 264.023689 81.987261 
L 265.242363 83.052184 
L 267.984377 84.756707 
L 271.945065 86.864146 
L 273.163739 88.096758 
L 274.68708 90.518905 
L 276.51509 93.672803 
L 277.429095 94.598923 
L 279.257105 96.015929 
L 280.17111 96.907702 
L 282.913124 99.984334 
L 283.827129 101.042106 
L 285.045802 102.730016 
L 286.264476 104.072724 
L 288.397154 106.017323 
L 292.053173 109.451669 
L 294.185852 110.494118 
L 295.099857 110.897079 
L 296.31853 111.709767 
L 299.974549 114.685016 
L 303.630569 117.201227 
L 305.153911 118.086758 
L 305.763247 118.528463 
L 307.286589 120.242366 
L 308.80993 122.070471 
L 311.856613 125.513136 
L 314.903296 130.728608 
L 315.817301 132.485243 
L 318.559316 138.957742 
L 319.777989 141.270828 
L 323.738677 148.50546 
L 326.480692 151.560634 
L 328.61337 155.310125 
L 330.136712 158.343763 
L 331.355385 160.410359 
L 333.183395 163.018555 
L 338.058087 171.359215 
L 341.714107 177.83356 
L 343.542117 180.295346 
L 345.674795 182.329707 
L 347.198137 183.399945 
L 348.41681 183.98998 
L 349.635483 184.246354 
L 351.463493 184.352673 
L 357.861527 184.427653 
L 371.876269 184.42917 
L 371.876269 184.42917 
" style="fill:none;stroke:#93a1a1;stroke-linecap:square;stroke-width:1.5;"/>
    <defs>
     <path d="M -0 3 
L 3 -3 
L -3 -3 
z
" id="m063779445c" style="stroke:#93a1a1;stroke-linejoin:miter;"/>
    </defs>
    <g clip-path="url(#p0481894723)">
     <use style="fill:#93a1a1;stroke:#93a1a1;stroke-linejoin:miter;" x="97.979463" xlink:href="#m063779445c" y="21.486349"/>
     <use style="fill:#93a1a1;stroke:#93a1a1;stroke-linejoin:miter;" x="158.913124" xlink:href="#m063779445c" y="27.00463"/>
     <use style="fill:#93a1a1;stroke:#93a1a1;stroke-linejoin:miter;" x="219.846785" xlink:href="#m063779445c" y="52.998183"/>
     <use style="fill:#93a1a1;stroke:#93a1a1;stroke-linejoin:miter;" x="280.780446" xlink:href="#m063779445c" y="97.653955"/>
     <use style="fill:#93a1a1;stroke:#93a1a1;stroke-linejoin:miter;" x="341.714107" xlink:href="#m063779445c" y="177.83356"/>
    </g>
   </g>
   <g id="line2d_34">
    <path clip-path="url(#p0481894723)" d="M 67.512633 19.982224 
L 68.12197 21.624248 
L 68.426638 21.825905 
L 68.731306 21.689435 
L 69.949979 21.813211 
L 70.863984 21.718076 
L 72.996662 21.665354 
L 74.520004 21.361259 
L 76.348014 21.072865 
L 77.566687 20.875405 
L 78.78536 20.80418 
L 80.004033 20.408132 
L 80.918038 20.330322 
L 83.964721 20.532443 
L 89.144083 21.266406 
L 101.330815 21.52834 
L 118.696908 21.592524 
L 134.844328 21.853568 
L 140.937694 22.181606 
L 144.593714 22.493091 
L 148.85907 22.883788 
L 150.382412 23.160823 
L 151.905753 23.687823 
L 155.866441 25.801732 
L 160.741134 27.809007 
L 162.873812 29.077217 
L 166.225164 31.378493 
L 168.967178 32.577017 
L 170.49052 33.093599 
L 173.841871 33.85651 
L 177.802559 34.541955 
L 183.895925 35.77682 
L 190.598628 37.016279 
L 191.512633 37.350528 
L 192.731306 38.054201 
L 194.559316 39.261492 
L 196.082657 40.796712 
L 197.605999 42.491192 
L 198.520004 43.208377 
L 200.043345 44.074436 
L 201.871355 44.877659 
L 203.394697 45.561037 
L 204.308702 46.158353 
L 207.964721 49.059854 
L 210.0974 50.089857 
L 213.753419 51.527355 
L 221.065458 53.327619 
L 222.284132 53.907626 
L 225.026146 55.382471 
L 225.940151 55.703731 
L 228.377498 56.432727 
L 230.205508 57.187693 
L 231.728849 58.049575 
L 232.947522 58.996862 
L 234.470864 60.711955 
L 236.298874 62.505989 
L 237.212879 63.45326 
L 239.040888 65.515312 
L 239.954893 66.160579 
L 242.696908 67.747137 
L 244.22025 68.625955 
L 245.134255 69.17524 
L 246.352928 69.651561 
L 247.571601 70.143853 
L 248.485606 70.804298 
L 250.008947 72.037039 
L 251.532289 73.185904 
L 253.664967 75.279115 
L 254.578972 75.808108 
L 256.406982 76.704833 
L 261.281675 79.738366 
L 261.891011 80.169452 
L 263.109685 80.857117 
L 266.461036 83.549851 
L 270.117056 85.521445 
L 271.640397 86.267757 
L 272.554402 86.966581 
L 273.163739 87.606216 
L 274.68708 89.678518 
L 276.819758 93.351357 
L 277.429095 94.141 
L 278.3431 94.880275 
L 279.866441 96.047193 
L 281.085114 97.3698 
L 282.303788 98.878688 
L 285.045802 101.979673 
L 285.959807 103.108364 
L 286.873812 104.053494 
L 288.092486 104.985797 
L 289.920495 106.542032 
L 291.748505 108.074897 
L 292.66251 108.652916 
L 294.49052 109.505466 
L 296.013861 110.037036 
L 299.365213 111.511455 
L 301.497891 112.202573 
L 304.239906 112.890641 
L 309.114599 113.649907 
L 311.551945 113.716053 
L 330.44138 113.671189 
L 335.011404 113.525147 
L 342.323444 113.112816 
L 358.470864 112.84332 
L 369.743591 111.155966 
L 371.571601 110.695724 
L 371.876269 110.599958 
L 371.876269 110.599958 
" style="fill:none;stroke:#93a1a1;stroke-linecap:square;stroke-width:1.5;"/>
    <defs>
     <path d="M -3 3 
L 3 3 
L 3 -3 
L -3 -3 
z
" id="ma3a91db13a" style="stroke:#93a1a1;stroke-linejoin:miter;"/>
    </defs>
    <g clip-path="url(#p0481894723)">
     <use style="fill:#93a1a1;stroke:#93a1a1;stroke-linejoin:miter;" x="113.212879" xlink:href="#ma3a91db13a" y="21.555749"/>
     <use style="fill:#93a1a1;stroke:#93a1a1;stroke-linejoin:miter;" x="174.14654" xlink:href="#ma3a91db13a" y="33.900819"/>
     <use style="fill:#93a1a1;stroke:#93a1a1;stroke-linejoin:miter;" x="235.0802" xlink:href="#ma3a91db13a" y="61.364034"/>
     <use style="fill:#93a1a1;stroke:#93a1a1;stroke-linejoin:miter;" x="296.013861" xlink:href="#ma3a91db13a" y="110.037036"/>
     <use style="fill:#93a1a1;stroke:#93a1a1;stroke-linejoin:miter;" x="356.947522" xlink:href="#ma3a91db13a" y="112.984473"/>
    </g>
   </g>
   <g id="line2d_35">
    <path clip-path="url(#p0481894723)" d="M 67.512633 19.982224 
L 68.12197 21.624248 
L 68.426638 21.825905 
L 68.731306 21.689435 
L 69.949979 21.813211 
L 70.863984 21.718076 
L 72.996662 21.665354 
L 74.520004 21.361259 
L 76.348014 21.072865 
L 77.566687 20.875405 
L 78.78536 20.80418 
L 80.004033 20.408132 
L 80.918038 20.330322 
L 83.964721 20.532443 
L 89.144083 21.266406 
L 101.330815 21.528292 
L 120.22025 21.608867 
L 135.148997 21.861343 
L 141.242363 22.19703 
L 145.203051 22.515155 
L 148.85907 22.860687 
L 150.382412 23.110446 
L 151.905753 23.611689 
L 153.124427 24.292422 
L 155.257105 25.475147 
L 161.655139 28.153459 
L 162.569144 28.698535 
L 163.787817 29.526812 
L 167.748505 31.936121 
L 170.49052 33.002054 
L 173.537203 33.762271 
L 179.935237 34.942932 
L 182.067915 35.390373 
L 187.551945 36.271075 
L 189.989291 36.700479 
L 192.12197 37.388147 
L 193.645311 38.34713 
L 195.168653 39.450478 
L 196.996662 41.376902 
L 198.215336 42.636096 
L 199.434009 43.473328 
L 201.566687 44.544659 
L 203.699365 45.436732 
L 204.61337 46.010814 
L 207.660053 48.476485 
L 210.0974 49.864126 
L 214.058087 51.433686 
L 216.800102 52.022652 
L 220.151454 52.783686 
L 221.979463 53.432142 
L 224.112142 54.535132 
L 225.940151 55.477699 
L 227.768161 55.995155 
L 229.291503 56.511614 
L 231.424181 57.398981 
L 233.252191 58.569381 
L 233.861527 59.111123 
L 236.298874 61.799263 
L 238.431552 63.965635 
L 239.650225 65.337034 
L 240.868898 66.220476 
L 243.610913 67.819157 
L 244.829586 68.512479 
L 245.743591 69.087596 
L 246.962264 69.583139 
L 248.180938 70.006682 
L 248.790274 70.329116 
L 252.446294 73.201821 
L 255.188309 75.599203 
L 260.36767 78.407217 
L 261.586343 79.220227 
L 265.242363 81.725959 
L 267.070372 83.259576 
L 270.726392 85.316039 
L 272.85907 86.276165 
L 273.773075 86.977437 
L 274.68708 87.957548 
L 275.905753 89.722635 
L 278.038431 93.352102 
L 278.952436 94.431522 
L 280.17111 95.318322 
L 281.389783 96.32054 
L 282.608456 97.780178 
L 283.827129 99.176928 
L 285.655139 101.056017 
L 287.787817 103.793396 
L 289.00649 104.864362 
L 290.529832 106.189963 
L 292.66251 108.307865 
L 293.881183 109.321692 
L 295.404525 110.166864 
L 297.841871 111.288839 
L 299.974549 112.902981 
L 302.107228 114.651428 
L 305.153911 116.835372 
L 307.591257 118.300255 
L 308.505262 119.090263 
L 314.903296 126.48976 
L 316.731306 129.384672 
L 318.863984 132.228146 
L 319.777989 133.034349 
L 320.691994 133.473831 
L 321.910667 133.701973 
L 324.043345 133.750678 
L 329.832043 133.559335 
L 333.183395 133.511812 
L 337.448751 133.511812 
L 337.448751 133.511812 
" style="fill:none;stroke:#6c71c4;stroke-linecap:square;stroke-width:1.5;"/>
   </g>
   <g id="line2d_36">
    <path clip-path="url(#p0481894723)" d="M 67.512633 19.982224 
L 68.12197 21.624248 
L 68.426638 21.825905 
L 68.731306 21.689435 
L 69.949979 21.813211 
L 70.863984 21.718076 
L 72.996662 21.665354 
L 74.520004 21.361259 
L 76.348014 21.072865 
L 77.566687 20.875405 
L 78.78536 20.80418 
L 80.004033 20.408132 
L 80.918038 20.330322 
L 83.964721 20.532443 
L 89.144083 21.266406 
L 101.330815 21.528288 
L 120.22025 21.610068 
L 135.148997 21.864272 
L 140.937694 22.180309 
L 144.593714 22.491789 
L 148.85907 22.883599 
L 150.382412 23.154444 
L 151.905753 23.697642 
L 153.429095 24.629361 
L 154.647768 25.300729 
L 156.780446 26.188612 
L 160.436466 27.653238 
L 162.569144 28.870833 
L 166.225164 31.396544 
L 167.748505 32.084531 
L 169.881183 32.912395 
L 172.927866 33.71538 
L 179.630569 34.967772 
L 182.372584 35.518317 
L 190.29396 36.925996 
L 191.512633 37.329419 
L 192.731306 38.070232 
L 194.863984 39.582123 
L 196.387326 41.189783 
L 197.605999 42.505155 
L 198.520004 43.263504 
L 200.95735 44.540541 
L 203.090029 45.44737 
L 204.308702 46.243918 
L 206.136712 47.798472 
L 208.26939 49.22118 
L 209.488063 49.828279 
L 212.230078 51.035116 
L 214.058087 51.615661 
L 220.151454 53.02117 
L 221.674795 53.615279 
L 225.330815 55.517496 
L 226.549488 55.883574 
L 228.377498 56.470233 
L 230.510176 57.327842 
L 231.728849 58.026195 
L 232.947522 58.999283 
L 237.822215 64.209864 
L 238.73622 65.283265 
L 240.259562 66.372926 
L 241.782903 67.378018 
L 244.22025 68.695324 
L 245.134255 69.216704 
L 246.352928 69.659873 
L 247.266933 70.01947 
L 248.180938 70.636435 
L 252.750962 74.444574 
L 253.664967 75.274062 
L 254.88364 75.987622 
L 256.102314 76.554667 
L 258.844328 78.125252 
L 262.19568 80.412762 
L 263.109685 80.971176 
L 264.328358 81.938917 
L 265.547031 83.077123 
L 269.203051 85.21422 
L 271.335729 86.162871 
L 272.249734 86.863141 
L 273.163739 87.71537 
L 274.077743 88.88379 
L 275.296417 90.916912 
L 276.819758 93.453296 
L 277.733763 94.527575 
L 280.17111 96.468553 
L 280.780446 97.095753 
L 281.999119 98.72096 
L 284.741134 101.700353 
L 286.264476 103.571788 
L 287.483149 104.763029 
L 289.00649 106.149996 
L 291.139169 108.307963 
L 292.357842 109.326789 
L 294.49052 110.400803 
L 295.709193 110.887742 
L 297.232535 111.938391 
L 301.802559 115.685153 
L 303.325901 116.729057 
L 306.372584 118.600069 
L 307.286589 119.574912 
L 309.114599 121.812926 
L 310.63794 123.44451 
L 312.161282 125.152957 
L 313.379955 127.052897 
L 316.426638 132.600127 
L 317.949979 136.339101 
L 319.168653 139.085639 
L 321.301331 143.070233 
L 322.520004 145.091908 
L 324.043345 148.048744 
L 324.95735 149.085482 
L 326.480692 150.627703 
L 327.090029 151.451411 
L 328.004033 153.009796 
L 331.660053 159.919006 
L 332.878726 161.646459 
L 334.402068 164.08112 
L 339.276761 172.277029 
L 342.323444 177.144741 
L 344.151454 179.217519 
L 345.370127 180.128511 
L 347.198137 181.09311 
L 348.721478 181.620154 
L 349.940151 181.860033 
L 351.768161 181.959803 
L 361.212879 182.031119 
L 371.876269 182.032076 
L 371.876269 182.032076 
" style="fill:none;stroke:#859900;stroke-dasharray:1.5,2.475;stroke-dashoffset:0;stroke-width:1.5;"/>
   </g>
   <g id="line2d_37">
    <path clip-path="url(#p0481894723)" d="M 67.512633 19.982224 
L 68.12197 21.624248 
L 68.426638 21.825905 
L 68.731306 21.689435 
L 69.949979 21.813211 
L 70.863984 21.718076 
L 72.996662 21.665354 
L 74.520004 21.361259 
L 76.348014 21.072865 
L 77.566687 20.875405 
L 78.78536 20.80418 
L 80.004033 20.408132 
L 80.918038 20.330322 
L 83.964721 20.532443 
L 89.144083 21.266406 
L 101.330815 21.528283 
L 120.524918 21.613036 
L 135.148997 21.86467 
L 140.937694 22.180932 
L 144.898382 22.512244 
L 148.554402 22.849006 
L 150.382412 23.155387 
L 151.905753 23.682183 
L 155.561773 25.688238 
L 160.131798 27.535977 
L 161.655139 28.288251 
L 162.873812 29.101765 
L 165.920495 31.24602 
L 167.443837 32.003709 
L 170.795188 33.196401 
L 173.232535 33.774697 
L 178.716564 34.757721 
L 181.458579 35.380054 
L 190.903296 37.12591 
L 192.12197 37.717197 
L 194.254648 39.130918 
L 194.863984 39.634003 
L 198.215336 43.091614 
L 199.434009 43.804455 
L 201.262019 44.671681 
L 203.090029 45.433673 
L 204.308702 46.278453 
L 206.44138 48.112491 
L 208.878726 49.633955 
L 213.448751 51.484729 
L 215.886097 51.999283 
L 218.628112 52.623548 
L 220.76079 53.288049 
L 222.5888 54.180562 
L 225.330815 55.577899 
L 230.205508 57.267693 
L 231.424181 57.996869 
L 232.947522 59.314414 
L 234.775532 61.305384 
L 236.90821 63.406027 
L 239.040888 65.676578 
L 241.173567 67.100614 
L 245.438923 69.453885 
L 247.571601 70.285259 
L 248.790274 71.217562 
L 253.05563 74.994713 
L 253.664967 75.453192 
L 254.88364 76.082421 
L 256.102314 76.667627 
L 258.53966 78.109847 
L 263.719021 81.62054 
L 265.547031 83.239501 
L 269.203051 85.282285 
L 271.03106 86.104939 
L 271.945065 86.720118 
L 272.85907 87.600679 
L 274.077743 89.213061 
L 275.296417 91.316042 
L 276.210422 92.840308 
L 276.819758 93.766222 
L 277.429095 94.450481 
L 280.475778 97.104421 
L 281.694451 98.669942 
L 283.827129 100.886617 
L 286.569144 104.203523 
L 288.701822 106.043891 
L 290.529832 107.910358 
L 291.748505 109.052468 
L 292.66251 109.676579 
L 293.881183 110.280445 
L 295.709193 111.07068 
L 297.232535 112.224357 
L 302.411896 116.396457 
L 306.372584 118.93362 
L 307.286589 120.001197 
L 309.723935 122.92546 
L 311.247277 124.480269 
L 312.161282 125.661214 
L 313.379955 127.63734 
L 316.12197 132.733113 
L 317.949979 137.268198 
L 319.168653 139.925934 
L 321.910667 144.751501 
L 322.520004 145.857931 
L 323.129341 147.229841 
L 323.738677 148.197647 
L 324.95735 149.443768 
L 326.176024 150.779122 
L 327.699365 153.202218 
L 332.26939 161.467009 
L 333.183395 162.741408 
L 334.0974 164.281539 
L 338.058087 171.068706 
L 339.581429 173.628441 
L 341.104771 176.34807 
L 343.237449 179.095642 
L 344.151454 179.997608 
L 345.065458 180.667169 
L 346.284132 181.399537 
L 347.502805 181.875391 
L 348.721478 182.192937 
L 350.549488 182.342133 
L 356.947522 182.402562 
L 371.876269 182.403612 
L 371.876269 182.403612 
" style="fill:none;stroke:#073642;stroke-dasharray:1.5,2.475;stroke-dashoffset:0;stroke-width:1.5;"/>
   </g>
   <g id="line2d_38">
    <path clip-path="url(#p0481894723)" d="M 67.512633 19.982224 
L 68.12197 21.624248 
L 68.426638 21.825905 
L 68.731306 21.689435 
L 69.949979 21.813211 
L 70.863984 21.718076 
L 72.996662 21.665354 
L 74.520004 21.361259 
L 76.348014 21.072865 
L 77.566687 20.875405 
L 78.78536 20.80418 
L 80.004033 20.408132 
L 80.918038 20.330322 
L 83.964721 20.532443 
L 89.144083 21.266406 
L 101.330815 21.52828 
L 120.524918 21.611589 
L 135.148997 21.861246 
L 141.547031 22.220844 
L 143.984377 22.437929 
L 147.640397 22.743941 
L 150.382412 23.108313 
L 151.905753 23.580335 
L 153.429095 24.466749 
L 155.561773 25.58666 
L 161.959807 28.268471 
L 163.787817 29.453279 
L 165.615827 30.713588 
L 166.8345 31.489056 
L 168.357842 32.158985 
L 170.795188 33.066245 
L 173.537203 33.757561 
L 179.021232 34.715763 
L 185.114599 35.918434 
L 190.598628 36.863426 
L 192.12197 37.375585 
L 193.035974 37.892865 
L 195.473321 39.589419 
L 196.387326 40.482111 
L 198.215336 42.501001 
L 199.129341 43.22895 
L 201.262019 44.369531 
L 204.308702 45.70238 
L 204.918038 46.13765 
L 207.355385 48.196926 
L 209.183395 49.368945 
L 211.316073 50.296285 
L 214.362756 51.469 
L 216.495434 51.93516 
L 219.237449 52.526525 
L 221.065458 53.030461 
L 222.893468 53.79674 
L 226.549488 55.632182 
L 229.900839 56.661224 
L 232.033517 57.663301 
L 233.252191 58.462708 
L 234.166196 59.264201 
L 236.298874 61.615071 
L 238.431552 63.776028 
L 239.954893 65.456036 
L 241.173567 66.329308 
L 243.306245 67.597768 
L 244.829586 68.371771 
L 246.048259 69.13738 
L 247.571601 69.693107 
L 248.485606 70.091072 
L 249.399611 70.693881 
L 254.274304 74.735453 
L 255.188309 75.514118 
L 260.36767 78.261712 
L 263.109685 80.17792 
L 264.937694 81.325428 
L 266.765704 82.916114 
L 267.679709 83.492197 
L 269.507719 84.531178 
L 270.726392 85.21661 
L 273.468407 86.544956 
L 274.382412 87.347373 
L 274.991748 87.96693 
L 276.210422 89.725845 
L 278.647768 93.877103 
L 279.257105 94.494008 
L 281.999119 96.729232 
L 282.913124 97.834035 
L 283.827129 98.888014 
L 285.350471 100.448284 
L 285.959807 101.136521 
L 287.178481 102.755353 
L 288.397154 104.10179 
L 289.311159 104.865769 
L 290.8345 106.239751 
L 293.271847 108.664933 
L 294.795188 109.750698 
L 295.709193 110.208736 
L 298.14654 111.330458 
L 300.888554 113.497197 
L 304.849242 116.514 
L 308.200594 118.584084 
L 309.114599 119.492548 
L 311.247277 122.174444 
L 313.075286 124.052886 
L 313.989291 124.982826 
L 314.903296 126.127982 
L 317.645311 129.890166 
L 318.863984 131.173899 
L 319.777989 131.842486 
L 320.691994 132.212097 
L 321.910667 132.398643 
L 324.348014 132.462977 
L 371.876269 132.251804 
L 371.876269 132.251804 
" style="fill:none;stroke:#2aa198;stroke-linecap:square;stroke-width:1.5;"/>
   </g>
   <g id="line2d_39">
    <path clip-path="url(#p0481894723)" d="M 67.512633 19.982224 
L 68.12197 21.624248 
L 68.426638 21.825905 
L 68.731306 21.689435 
L 69.949979 21.813211 
L 70.863984 21.718076 
L 72.996662 21.665354 
L 74.520004 21.361259 
L 76.348014 21.072865 
L 77.566687 20.875405 
L 78.78536 20.80418 
L 80.004033 20.408132 
L 80.918038 20.330322 
L 83.964721 20.532443 
L 89.144083 21.266406 
L 101.330815 21.528287 
L 120.22025 21.609739 
L 134.844328 21.850766 
L 140.937694 22.179013 
L 145.812387 22.567575 
L 149.773075 23.003512 
L 151.296417 23.420867 
L 152.210422 23.855625 
L 155.257105 25.537527 
L 161.350471 28.086555 
L 162.569144 28.842819 
L 165.920495 31.114561 
L 166.8345 31.645849 
L 169.576515 32.783785 
L 171.709193 33.40285 
L 172.927866 33.691554 
L 179.935237 35.013101 
L 182.98192 35.606614 
L 187.551945 36.322217 
L 189.684623 36.71921 
L 191.817301 37.414346 
L 193.035974 38.181004 
L 195.168653 39.717762 
L 198.520004 43.185193 
L 200.348014 44.203563 
L 201.871355 44.84967 
L 203.699365 45.694674 
L 204.61337 46.387596 
L 207.355385 48.618469 
L 209.183395 49.663146 
L 213.144083 51.317538 
L 215.276761 51.845805 
L 218.93278 52.617302 
L 220.76079 53.173074 
L 221.979463 53.703107 
L 225.330815 55.461719 
L 226.549488 55.833878 
L 228.377498 56.407347 
L 230.205508 57.112443 
L 231.424181 57.721559 
L 232.338186 58.344947 
L 233.252191 59.122902 
L 235.0802 61.167806 
L 239.650225 65.863028 
L 245.743591 69.459157 
L 247.876269 70.324122 
L 248.790274 70.992425 
L 252.750962 74.267707 
L 253.969635 75.369228 
L 254.88364 75.894274 
L 257.016318 76.990798 
L 260.063001 78.784272 
L 261.281675 79.698406 
L 262.500348 80.46695 
L 263.414353 81.014732 
L 264.633026 82.073447 
L 265.547031 82.890446 
L 266.461036 83.517725 
L 267.679709 84.234649 
L 269.812387 85.364067 
L 271.640397 86.200156 
L 272.554402 86.862101 
L 273.773075 88.210408 
L 274.68708 89.571174 
L 276.819758 93.295221 
L 277.733763 94.37293 
L 278.952436 95.23558 
L 280.475778 96.575945 
L 281.389783 97.627016 
L 282.303788 98.786004 
L 284.436466 101.019458 
L 286.264476 103.431301 
L 287.787817 104.821701 
L 289.00649 105.827075 
L 291.443837 108.330649 
L 292.967178 109.53901 
L 294.185852 110.21134 
L 296.623198 111.361437 
L 298.451208 112.766127 
L 300.279218 114.304168 
L 303.325901 116.627074 
L 306.372584 118.404394 
L 307.286589 119.302643 
L 310.942608 123.550401 
L 311.856613 124.547046 
L 312.46595 125.238777 
L 313.684623 127.161236 
L 314.903296 129.336647 
L 317.035974 133.529202 
L 319.777989 139.756128 
L 321.605999 143.037055 
L 323.434009 146.284253 
L 324.348014 148.025222 
L 325.262019 149.115784 
L 326.480692 150.316504 
L 327.090029 151.140383 
L 328.918038 154.145804 
L 331.660053 159.412417 
L 332.878726 161.30073 
L 333.792731 162.599503 
L 334.706736 164.076176 
L 338.058087 169.751361 
L 338.667424 170.711572 
L 341.714107 175.864041 
L 342.93278 177.498229 
L 344.456122 179.070541 
L 345.674795 180.009583 
L 347.198137 180.903709 
L 348.721478 181.514435 
L 349.940151 181.835429 
L 351.768161 181.97536 
L 358.470864 182.018153 
L 371.876269 182.0244 
L 371.876269 182.0244 
" style="fill:none;stroke:#073642;stroke-linecap:square;stroke-width:1.5;"/>
   </g>
   <g id="patch_3">
    <path d="M 52.294451 232.46 
L 52.294451 10.7 
" style="fill:none;stroke:#000000;stroke-linecap:square;stroke-linejoin:miter;stroke-width:0.8;"/>
   </g>
   <g id="patch_4">
    <path d="M 387.094451 232.46 
L 387.094451 10.7 
" style="fill:none;stroke:#000000;stroke-linecap:square;stroke-linejoin:miter;stroke-width:0.8;"/>
   </g>
   <g id="patch_5">
    <path d="M 52.294451 232.46 
L 387.094451 232.46 
" style="fill:none;stroke:#000000;stroke-linecap:square;stroke-linejoin:miter;stroke-width:0.8;"/>
   </g>
   <g id="patch_6">
    <path d="M 52.294451 10.7 
L 387.094451 10.7 
" style="fill:none;stroke:#000000;stroke-linecap:square;stroke-linejoin:miter;stroke-width:0.8;"/>
   </g>
   <g id="legend_1">
    <g id="patch_7">
     <path d="M 394.094451 144.134605 
L 498.591371 144.134605 
Q 500.591371 144.134605 500.591371 142.134605 
L 500.591371 17.7 
Q 500.591371 15.7 498.591371 15.7 
L 394.094451 15.7 
Q 392.094451 15.7 392.094451 17.7 
L 392.094451 142.134605 
Q 392.094451 144.134605 394.094451 144.134605 
z
" style="fill:#ffffff;opacity:0.8;stroke:#cccccc;stroke-linejoin:miter;"/>
    </g>
    <g id="line2d_40">
     <path d="M 396.094451 23.2 
L 416.094451 23.2 
" style="fill:none;stroke:#073642;stroke-linecap:square;stroke-width:1.5;"/>
    </g>
    <g id="line2d_41"/>
    <g id="text_18">
     <!-- \textsc{pipe-PR-CG} -->
     <defs>
      <path d="M 32.296875 23 
C 42.296875 23 50.703125 29.296875 50.703125 36.890625 
C 50.703125 44.09375 43.09375 51 31.59375 51 
L 4.5 51 
L 4.5 48.484375 
C 11.203125 48.484375 11.703125 47.890625 11.703125 43.796875 
L 11.703125 7.109375 
C 11.703125 3.078125 11.203125 2.5 4.5 2.5 
L 4.5 0 
C 7.40625 0.09375 13.09375 0.296875 15.296875 0.296875 
C 17.5 0.296875 23.09375 0.09375 26.09375 0 
L 26.09375 2.5 
C 19.40625 2.5 18.90625 3.078125 18.90625 7.109375 
L 18.90625 23 
z
M 18.59375 44.1875 
C 18.59375 48.1875 19.09375 48.484375 22.59375 48.484375 
L 29.5 48.484375 
C 42.09375 48.484375 42.09375 40.890625 42.09375 36.890625 
C 42.09375 33 42.09375 25.296875 29.5 25.296875 
L 18.59375 25.296875 
z
" id="CMCSC10-112"/>
      <path d="M 18.703125 43.734375 
C 18.703125 48 19.203125 48.484375 26.296875 48.484375 
L 26.296875 51 
C 22.90625 50.890625 17.703125 50.6875 15.09375 50.6875 
C 12.5 50.6875 7.296875 50.890625 3.90625 51 
L 3.90625 48.484375 
C 11 48.484375 11.5 48 11.5 43.734375 
L 11.5 7.25 
C 11.5 2.984375 11 2.5 3.90625 2.5 
L 3.90625 0 
C 7.296875 0.09375 12.5 0.296875 15.09375 0.296875 
C 17.703125 0.296875 22.90625 0.09375 26.296875 0 
L 26.296875 2.5 
C 19.203125 2.5 18.703125 2.984375 18.703125 7.25 
z
" id="CMCSC10-105"/>
      <path d="M 48.796875 50.6875 
L 4.296875 50.6875 
L 4.296875 48.1875 
C 11 48.1875 11.5 47.59375 11.5 43.515625 
L 11.5 7.125 
C 11.5 3.078125 11 2.5 4.296875 2.5 
L 4.296875 0 
L 50 0 
L 52.90625 19.171875 
L 50.40625 19.171875 
C 48.703125 7.234375 46.296875 2.5 33.5 2.5 
L 22.703125 2.5 
C 19.203125 2.5 18.703125 2.78125 18.703125 6.734375 
L 18.703125 25 
L 25.703125 25 
C 33.09375 25 34.296875 23.015625 34.296875 16.40625 
L 36.796875 16.40625 
L 36.796875 36.15625 
L 34.296875 36.15625 
C 34.296875 29.484375 33.09375 27.5 25.703125 27.5 
L 18.703125 27.5 
L 18.703125 43.90625 
C 18.703125 47.890625 19.203125 48.1875 22.703125 48.1875 
L 32.90625 48.1875 
C 44.5 48.1875 47.09375 44.703125 48.203125 33.859375 
L 50.703125 33.859375 
z
" id="CMCSC10-101"/>
      <path d="M 30.5 19 
L 30.5 24.796875 
L 2.59375 24.796875 
L 2.59375 19 
z
" id="CMCSC10-45"/>
      <path d="M 43 31.390625 
C 55.203125 31.390625 66.90625 39.171875 66.90625 49.4375 
C 66.90625 59.3125 56.296875 68 42.203125 68 
L 5.703125 68 
L 5.703125 64.890625 
L 8.09375 64.890625 
C 15.796875 64.890625 16 63.796875 16 60.203125 
L 16 7.765625 
C 16 4.1875 15.796875 3.09375 8.09375 3.09375 
L 5.703125 3.09375 
L 5.703125 0 
C 9.203125 0.296875 16.59375 0.296875 20.40625 0.296875 
C 24.203125 0.296875 31.703125 0.296875 35.203125 0 
L 35.203125 3.09375 
L 32.796875 3.09375 
C 25.09375 3.09375 24.90625 4.1875 24.90625 7.765625 
L 24.90625 31.390625 
z
M 24.59375 60.90625 
C 24.59375 64.1875 24.796875 64.890625 29.5 64.890625 
L 39.59375 64.890625 
C 56.59375 64.890625 56.59375 53.921875 56.59375 49.4375 
C 56.59375 45.15625 56.59375 34 39.59375 34 
L 24.59375 34 
z
" id="CMCSC10-80"/>
      <path d="M 24.59375 35.1875 
L 24.59375 60.921875 
C 24.59375 63.609375 24.796875 64.5 27.203125 64.796875 
C 28.09375 64.890625 31.203125 64.890625 33.203125 64.890625 
C 41.90625 64.890625 55.09375 64.890625 55.09375 50.09375 
C 55.09375 39.46875 48 35.1875 36.703125 35.1875 
z
M 47 33.890625 
C 59 36.78125 65.40625 43.34375 65.40625 50.09375 
C 65.40625 59.734375 53.203125 68 38.09375 68 
L 5.703125 68 
L 5.703125 64.890625 
L 8.09375 64.890625 
C 15.796875 64.890625 16 63.796875 16 60.21875 
L 16 7.921875 
C 16 4.359375 15.796875 3.265625 8.09375 3.265625 
L 5.703125 3.265625 
L 5.703125 0.1875 
C 9.296875 0.484375 16.40625 0.484375 20.296875 0.484375 
C 24.203125 0.484375 31.296875 0.484375 34.90625 0.1875 
L 34.90625 3.265625 
L 32.5 3.265625 
C 24.796875 3.265625 24.59375 4.359375 24.59375 7.921875 
L 24.59375 33 
L 37.09375 33 
C 42.5 33 45.703125 31.015625 47.40625 29.421875 
C 51.203125 25.75 51.203125 23.28125 51.203125 16.34375 
C 51.203125 9.5 51.203125 5.9375 55.5 2.078125 
C 59.203125 -1.109375 64.796875 -2 68.296875 -2 
C 76.296875 -2 78.203125 6.140625 78.203125 8.90625 
C 78.203125 9.5 78.203125 10.59375 76.90625 10.59375 
C 75.796875 10.59375 75.796875 9.703125 75.703125 9.015625 
C 74.90625 1.28125 70.796875 0.1875 68.703125 0.1875 
C 63.40625 0.1875 62.703125 4.65625 60.90625 16.140625 
C 59.796875 23.078125 59.40625 25.5625 56.203125 28.734375 
C 54.09375 30.90625 50.90625 32.796875 47 33.890625 
z
" id="CMCSC10-82"/>
      <path d="M 63.40625 62.0625 
C 60.09375 65.484375 54 71 43.703125 71 
C 24 71 7.203125 54.9375 7.203125 34.546875 
C 7.203125 14.046875 24 -2 43.796875 -2 
C 60.703125 -2 71.296875 11.640625 71.296875 23.59375 
C 71.296875 24.59375 71.296875 25.296875 70 25.296875 
C 68.90625 25.296875 68.90625 24.703125 68.796875 23.6875 
C 68 9.125 56.296875 1.09375 45.09375 1.09375 
C 36.296875 1.09375 17.5 6.3125 17.5 34.4375 
C 17.5 64.078125 38 67.890625 44.90625 67.890625 
C 55.59375 67.890625 65.796875 59.546875 68.09375 44.078125 
C 68.296875 42.671875 68.40625 42.375 69.703125 42.375 
C 71.296875 42.375 71.296875 42.671875 71.296875 44.78125 
L 71.296875 68.59375 
C 71.296875 70.296875 71.296875 71 70.203125 71 
C 69.796875 71 69.40625 71 68.59375 69.796875 
z
" id="CMCSC10-67"/>
      <path d="M 71.203125 68.59375 
C 71.203125 70.296875 71.203125 71 70.09375 71 
C 69.703125 71 69.296875 71 68.5 69.796875 
L 63.296875 62.125 
C 60.203125 65.109375 54.296875 71 43.703125 71 
C 23.796875 71 7.203125 54.859375 7.203125 34.859375 
C 7.203125 14.578125 23.59375 -2 43.90625 -2 
C 51.796875 -2 60.40625 0.59375 63.90625 6.609375 
C 65.203125 4.359375 69.203125 0.296875 70.296875 0.296875 
C 71.203125 0.296875 71.203125 1.09375 71.203125 2.625 
L 71.203125 20.390625 
C 71.203125 24.890625 72.296875 24.890625 78.5 24.890625 
L 78.5 28 
C 73.703125 27.796875 70.09375 27.6875 65.796875 27.6875 
C 61.703125 27.6875 52.796875 27.6875 49.203125 28 
L 49.203125 24.890625 
L 52.703125 24.890625 
C 62.296875 24.890625 62.296875 23.46875 62.296875 19.984375 
L 62.296875 13.453125 
C 62.296875 1.09375 46.796875 1.09375 45.59375 1.09375 
C 36.5 1.09375 17.5 6.40625 17.5 34.859375 
C 17.5 63.015625 36.703125 67.890625 44.90625 67.890625 
C 55.5 67.890625 65.703125 59.734375 68 44.3125 
C 68.203125 42.921875 68.296875 42.625 69.59375 42.625 
C 71.203125 42.625 71.203125 42.921875 71.203125 45 
z
" id="CMCSC10-71"/>
     </defs>
     <g transform="translate(424.094451 26.7)scale(0.1 -0.1)">
      <use transform="scale(0.996264)" xlink:href="#CMCSC10-112"/>
      <use transform="translate(55.569158 0)scale(0.996264)" xlink:href="#CMCSC10-105"/>
      <use transform="translate(85.67837 0)scale(0.996264)" xlink:href="#CMCSC10-112"/>
      <use transform="translate(141.247528 0)scale(0.996264)" xlink:href="#CMCSC10-101"/>
      <use transform="translate(196.816686 0)scale(0.996264)" xlink:href="#CMCSC10-45"/>
      <use transform="translate(234.45297 0)scale(0.996264)" xlink:href="#CMCSC10-80"/>
      <use transform="translate(308.341796 0)scale(0.996264)" xlink:href="#CMCSC10-82"/>
      <use transform="translate(388.042172 0)scale(0.996264)" xlink:href="#CMCSC10-45"/>
      <use transform="translate(425.678456 0)scale(0.996264)" xlink:href="#CMCSC10-67"/>
      <use transform="translate(503.99518 0)scale(0.996264)" xlink:href="#CMCSC10-71"/>
     </g>
    </g>
    <g id="line2d_42">
     <path d="M 396.094451 37.137178 
L 416.094451 37.137178 
" style="fill:none;stroke:#2aa198;stroke-linecap:square;stroke-width:1.5;"/>
    </g>
    <g id="line2d_43"/>
    <g id="text_19">
     <!-- \textsc{pipe-P-CG} -->
     <g transform="translate(424.094451 40.637178)scale(0.1 -0.1)">
      <use transform="scale(0.996264)" xlink:href="#CMCSC10-112"/>
      <use transform="translate(55.569158 0)scale(0.996264)" xlink:href="#CMCSC10-105"/>
      <use transform="translate(85.67837 0)scale(0.996264)" xlink:href="#CMCSC10-112"/>
      <use transform="translate(141.247528 0)scale(0.996264)" xlink:href="#CMCSC10-101"/>
      <use transform="translate(196.816686 0)scale(0.996264)" xlink:href="#CMCSC10-45"/>
      <use transform="translate(234.45297 0)scale(0.996264)" xlink:href="#CMCSC10-80"/>
      <use transform="translate(308.341796 0)scale(0.996264)" xlink:href="#CMCSC10-45"/>
      <use transform="translate(345.97808 0)scale(0.996264)" xlink:href="#CMCSC10-67"/>
      <use transform="translate(424.294805 0)scale(0.996264)" xlink:href="#CMCSC10-71"/>
     </g>
    </g>
    <g id="line2d_44">
     <path d="M 396.094451 51.074357 
L 416.094451 51.074357 
" style="fill:none;stroke:#073642;stroke-dasharray:1.5,2.475;stroke-dashoffset:0;stroke-width:1.5;"/>
    </g>
    <g id="line2d_45"/>
    <g id="text_20">
     <!-- PR-CG -->
     <defs>
      <path d="M 19.796875 32 
L 35.796875 32 
C 48.703125 32 58.09375 40.359375 58.09375 49.796875 
C 58.09375 59.234375 48.90625 68 35.796875 68 
L 5.203125 68 
L 5.203125 65.390625 
C 12.09375 65.390625 13.203125 65.390625 13.203125 60.921875 
L 13.203125 7.078125 
C 13.203125 2.59375 12.09375 2.59375 5.203125 2.59375 
L 5.203125 0 
C 8.09375 0.1875 13.40625 0.1875 16.5 0.1875 
C 19.59375 0.1875 24.90625 0.1875 27.796875 0 
L 27.796875 2.59375 
C 20.90625 2.59375 19.796875 2.59375 19.796875 7.078125 
z
M 19.59375 34.09375 
L 19.59375 61.515625 
C 19.59375 64.890625 19.796875 65.390625 23.796875 65.390625 
L 33.90625 65.390625 
C 46.796875 65.390625 50.5 58.046875 50.5 49.796875 
C 50.5 40.75 46.09375 34.09375 33.90625 34.09375 
z
" id="CMR17-80"/>
      <path d="M 39.203125 33.6875 
C 48.703125 35.59375 56.703125 42.015625 56.703125 50.046875 
C 56.703125 59.46875 46.09375 68 32.09375 68 
L 5.203125 68 
L 5.203125 65.390625 
C 12.09375 65.390625 13.203125 65.390625 13.203125 60.875 
L 13.203125 6.6875 
C 13.203125 2.1875 12.09375 2.1875 5.203125 2.1875 
L 5.203125 -0.40625 
C 8.09375 -0.203125 13.296875 -0.203125 16.40625 -0.203125 
C 19.5 -0.203125 24.703125 -0.203125 27.59375 -0.40625 
L 27.59375 2.1875 
C 20.703125 2.1875 19.59375 2.1875 19.59375 6.6875 
L 19.59375 33 
L 31.296875 33 
C 37 33 40.203125 30.6875 41.59375 29.390625 
C 45.59375 25.5 45.59375 22.796875 45.59375 16 
C 45.59375 9.296875 45.59375 5.890625 48.59375 2.5 
C 52.40625 -1.609375 57.5 -2 59.703125 -2 
C 67.09375 -2 68.203125 6.296875 68.203125 8 
C 68.203125 8.59375 68.203125 9.296875 67.296875 9.296875 
C 66.5 9.296875 66.40625 8.6875 66.40625 8.296875 
C 65.90625 1.796875 63 -0.40625 59.90625 -0.40625 
C 54.40625 -0.40625 53.796875 5.890625 53.203125 12 
C 52.90625 14.09375 52.703125 15.59375 52.5 17.796875 
C 51.90625 22.796875 51.09375 30.09375 39.203125 33.6875 
z
M 31 34.59375 
L 19.59375 34.59375 
L 19.59375 61.484375 
C 19.59375 64.890625 19.796875 65.390625 23.796875 65.390625 
L 31.09375 65.390625 
C 39.40625 65.390625 49.09375 62.484375 49.09375 50.046875 
C 49.09375 37.09375 38.5 34.59375 31 34.59375 
z
" id="CMR17-82"/>
      <path d="M 62.09375 67.984375 
C 62.09375 69.796875 62 69.890625 61.40625 69.890625 
C 61 69.890625 60.90625 69.796875 60.203125 68.59375 
L 55.796875 60.140625 
C 50.90625 66.390625 44.90625 70 37.203125 70 
C 20.09375 70 4.59375 54.796875 4.59375 34.046875 
C 4.59375 13.078125 20.09375 -2 37.296875 -2 
C 52.59375 -2 62.09375 11.578125 62.09375 23.15625 
C 62.09375 24.171875 62.09375 24.578125 61.203125 24.578125 
C 60.40625 24.578125 60.40625 24.265625 60.296875 23.359375 
C 59.5 9.25 49.5 0.59375 38.703125 0.59375 
C 28.5 0.59375 12.203125 7.84375 12.203125 34.046875 
C 12.203125 60.34375 28.796875 67.390625 38.5 67.390625 
C 49.796875 67.390625 58 57.515625 59.90625 43.515625 
C 60.09375 42.296875 60.09375 42.109375 61 42.109375 
C 62.09375 42.109375 62.09375 42.296875 62.09375 44.125 
z
" id="CMR17-67"/>
      <path d="M 62.09375 19.65625 
C 62.09375 23.484375 62.40625 24 68.59375 24 
L 68.59375 26.59375 
C 66.203125 26.390625 60.796875 26.390625 58.09375 26.390625 
C 55.296875 26.390625 47.5 26.5 43.703125 26.59375 
L 43.703125 24 
L 46.703125 24 
C 55.296875 24 55.5 22.875 55.5 19.25 
L 55.5 12.59375 
C 55.5 1.5 42.5 0.59375 39.40625 0.59375 
C 29.09375 0.59375 12.203125 7.75 12.203125 34.046875 
C 12.203125 60.34375 28.796875 67.390625 38.5 67.390625 
C 49.796875 67.390625 58 57.515625 59.90625 43.515625 
C 60.09375 42.3125 60.09375 42.109375 61 42.109375 
C 62.09375 42.109375 62.09375 42.3125 62.09375 44.125 
L 62.09375 67.984375 
C 62.09375 69.796875 62 69.890625 61.40625 69.890625 
C 61 69.890625 60.90625 69.796875 60.203125 68.59375 
L 55.796875 60.140625 
C 50.90625 66.390625 44.90625 70 37.203125 70 
C 20.09375 70 4.59375 54.796875 4.59375 34.046875 
C 4.59375 13.40625 19.796875 -2 37.40625 -2 
C 45.5 -2 53.40625 0.890625 56.5 6.640625 
C 58.203125 2.515625 61 -0.3125 61.5 -0.3125 
C 62 -0.3125 62.09375 -0.203125 62.09375 1.59375 
z
" id="CMR17-71"/>
     </defs>
     <g transform="translate(424.094451 54.574357)scale(0.1 -0.1)">
      <use transform="scale(0.996264)" xlink:href="#CMR17-80"/>
      <use transform="translate(62.586301 0)scale(0.996264)" xlink:href="#CMR17-82"/>
      <use transform="translate(130.377402 0)scale(0.996264)" xlink:href="#CMR17-45"/>
      <use transform="translate(160.453369 0)scale(0.996264)" xlink:href="#CMR17-67"/>
      <use transform="translate(226.963249 0)scale(0.996264)" xlink:href="#CMR17-71"/>
     </g>
    </g>
    <g id="line2d_46">
     <path d="M 396.094451 65.011535 
L 416.094451 65.011535 
" style="fill:none;stroke:#859900;stroke-dasharray:1.5,2.475;stroke-dashoffset:0;stroke-width:1.5;"/>
    </g>
    <g id="line2d_47"/>
    <g id="text_21">
     <!-- \textsc{pipe-PR-M-CG} -->
     <defs>
      <path d="M 74.40625 65.09375 
L 74.5 64.984375 
L 74.5 7.765625 
C 74.5 4.1875 74.296875 3.09375 66.59375 3.09375 
L 64.203125 3.09375 
L 64.203125 0 
C 67.90625 0.296875 74.703125 0.296875 78.59375 0.296875 
C 82.5 0.296875 89.203125 0.296875 92.90625 0 
L 92.90625 3.09375 
L 90.5 3.09375 
C 82.796875 3.09375 82.59375 4.1875 82.59375 7.765625 
L 82.59375 60.21875 
C 82.59375 63.796875 82.796875 64.890625 90.5 64.890625 
L 92.90625 64.890625 
L 92.90625 68 
L 76 68 
C 73.703125 68 73.40625 68 72.59375 66.09375 
L 49.40625 9.46875 
L 26.203125 66.1875 
C 25.5 68 24.90625 68 22.796875 68 
L 5.90625 68 
L 5.90625 64.890625 
L 8.296875 64.890625 
C 16 64.890625 16.203125 63.796875 16.203125 60.21875 
L 16.203125 10.453125 
C 16.203125 7.765625 16.203125 3.09375 5.90625 3.09375 
L 5.90625 0 
C 9.40625 0.09375 14.296875 0.296875 17.59375 0.296875 
C 20.90625 0.296875 25.796875 0.09375 29.296875 0 
L 29.296875 3.09375 
C 19 3.09375 19 7.765625 19 10.453125 
L 19 64.296875 
L 19.09375 64.390625 
L 44.703125 1.796875 
C 45.09375 0.890625 45.59375 0 46.59375 0 
C 47.59375 0 48.09375 0.890625 48.5 1.796875 
z
" id="CMCSC10-77"/>
     </defs>
     <g transform="translate(424.094451 68.511535)scale(0.1 -0.1)">
      <use transform="scale(0.996264)" xlink:href="#CMCSC10-112"/>
      <use transform="translate(55.569158 0)scale(0.996264)" xlink:href="#CMCSC10-105"/>
      <use transform="translate(85.67837 0)scale(0.996264)" xlink:href="#CMCSC10-112"/>
      <use transform="translate(141.247528 0)scale(0.996264)" xlink:href="#CMCSC10-101"/>
      <use transform="translate(196.816686 0)scale(0.996264)" xlink:href="#CMCSC10-45"/>
      <use transform="translate(234.45297 0)scale(0.996264)" xlink:href="#CMCSC10-80"/>
      <use transform="translate(308.341796 0)scale(0.996264)" xlink:href="#CMCSC10-82"/>
      <use transform="translate(388.042172 0)scale(0.996264)" xlink:href="#CMCSC10-45"/>
      <use transform="translate(425.678456 0)scale(0.996264)" xlink:href="#CMCSC10-77"/>
      <use transform="translate(524.19692 0)scale(0.996264)" xlink:href="#CMCSC10-45"/>
      <use transform="translate(561.833204 0)scale(0.996264)" xlink:href="#CMCSC10-67"/>
      <use transform="translate(640.149929 0)scale(0.996264)" xlink:href="#CMCSC10-71"/>
     </g>
    </g>
    <g id="line2d_48">
     <path d="M 396.094451 78.948713 
L 416.094451 78.948713 
" style="fill:none;stroke:#6c71c4;stroke-linecap:square;stroke-width:1.5;"/>
    </g>
    <g id="line2d_49"/>
    <g id="text_22">
     <!-- \textsc{pipe-P-M-CG} -->
     <g transform="translate(424.094451 82.448713)scale(0.1 -0.1)">
      <use transform="scale(0.996264)" xlink:href="#CMCSC10-112"/>
      <use transform="translate(55.569158 0)scale(0.996264)" xlink:href="#CMCSC10-105"/>
      <use transform="translate(85.67837 0)scale(0.996264)" xlink:href="#CMCSC10-112"/>
      <use transform="translate(141.247528 0)scale(0.996264)" xlink:href="#CMCSC10-101"/>
      <use transform="translate(196.816686 0)scale(0.996264)" xlink:href="#CMCSC10-45"/>
      <use transform="translate(234.45297 0)scale(0.996264)" xlink:href="#CMCSC10-80"/>
      <use transform="translate(308.341796 0)scale(0.996264)" xlink:href="#CMCSC10-45"/>
      <use transform="translate(345.97808 0)scale(0.996264)" xlink:href="#CMCSC10-77"/>
      <use transform="translate(444.496544 0)scale(0.996264)" xlink:href="#CMCSC10-45"/>
      <use transform="translate(482.132828 0)scale(0.996264)" xlink:href="#CMCSC10-67"/>
      <use transform="translate(560.449553 0)scale(0.996264)" xlink:href="#CMCSC10-71"/>
     </g>
    </g>
    <g id="line2d_50">
     <path d="M 396.094451 92.885892 
L 416.094451 92.885892 
" style="fill:none;stroke:#93a1a1;stroke-linecap:square;stroke-width:1.5;"/>
    </g>
    <g id="line2d_51">
     <g>
      <use style="fill:#93a1a1;stroke:#93a1a1;stroke-linejoin:miter;" x="406.094451" xlink:href="#ma3a91db13a" y="92.885892"/>
     </g>
    </g>
    <g id="text_23">
     <!-- GV-CG -->
     <defs>
      <path d="M 59 58.78125 
C 59.90625 60.984375 61.5 65.296875 68.203125 65.390625 
L 68.203125 68 
C 65.90625 67.796875 63.296875 67.796875 60.796875 67.796875 
C 58.40625 67.796875 54.296875 67.796875 52 68 
L 52 65.390625 
C 57 65.09375 57.203125 61.59375 57.203125 60.984375 
C 57.203125 59.890625 56.90625 59.1875 56.59375 58.390625 
L 36.90625 7 
L 16.296875 60.984375 
C 16 61.6875 15.796875 62.1875 15.796875 62.6875 
C 15.796875 65.390625 19.796875 65.390625 21.90625 65.390625 
L 21.90625 68 
C 18.703125 67.796875 14 67.796875 10.703125 67.796875 
C 8.09375 67.796875 3.40625 67.796875 1 68 
L 1 65.390625 
C 6.796875 65.390625 7.90625 65 9.09375 61.796875 
L 32.90625 -0.40625 
C 33.40625 -1.8125 33.5 -2 34.59375 -2 
C 35.703125 -2 35.796875 -1.8125 36.296875 -0.40625 
z
" id="CMR17-86"/>
     </defs>
     <g transform="translate(424.094451 96.385892)scale(0.1 -0.1)">
      <use transform="scale(0.996264)" xlink:href="#CMR17-71"/>
      <use transform="translate(72.355346 0)scale(0.996264)" xlink:href="#CMR17-86"/>
      <use transform="translate(141.427776 0)scale(0.996264)" xlink:href="#CMR17-45"/>
      <use transform="translate(171.503742 0)scale(0.996264)" xlink:href="#CMR17-67"/>
      <use transform="translate(238.013623 0)scale(0.996264)" xlink:href="#CMR17-71"/>
     </g>
    </g>
    <g id="line2d_52">
     <path d="M 396.094451 106.82307 
L 416.094451 106.82307 
" style="fill:none;stroke:#93a1a1;stroke-linecap:square;stroke-width:1.5;"/>
    </g>
    <g id="line2d_53">
     <g>
      <use style="fill:#93a1a1;stroke:#93a1a1;stroke-linejoin:miter;" x="406.094451" xlink:href="#m063779445c" y="106.82307"/>
     </g>
    </g>
    <g id="text_24">
     <!-- M-CG -->
     <defs>
      <path d="M 20.90625 66.390625 
C 20.296875 67.890625 20.203125 68 18.09375 68 
L 5.296875 68 
L 5.296875 65.390625 
C 12.203125 65.390625 13.296875 65.390625 13.296875 60.90625 
L 13.296875 9.75 
C 13.296875 7.265625 13.296875 2.59375 5.296875 2.59375 
L 5.296875 0 
C 7.59375 0.1875 11.796875 0.1875 14.296875 0.1875 
C 16.796875 0.1875 21 0.1875 23.296875 0 
L 23.296875 2.59375 
C 15.296875 2.59375 15.296875 7.265625 15.296875 9.75 
L 15.296875 64.984375 
L 15.40625 64.984375 
L 38.90625 1.59375 
C 39.296875 0.59375 39.5 0 40.296875 0 
C 41.09375 0 41.296875 0.59375 41.703125 1.59375 
L 65.40625 65.484375 
L 65.5 65.484375 
L 65.5 7.078125 
C 65.5 2.59375 64.40625 2.59375 57.5 2.59375 
L 57.5 0 
C 60.203125 0.1875 65.59375 0.1875 68.5 0.1875 
C 71.40625 0.1875 76.90625 0.1875 79.59375 0 
L 79.59375 2.59375 
C 72.703125 2.59375 71.59375 2.59375 71.59375 7.078125 
L 71.59375 60.90625 
C 71.59375 65.390625 72.703125 65.390625 79.59375 65.390625 
L 79.59375 68 
L 66.90625 68 
C 64.796875 68 64.703125 67.890625 64.09375 66.390625 
L 42.5 8.0625 
z
" id="CMR17-77"/>
     </defs>
     <g transform="translate(424.094451 110.32307)scale(0.1 -0.1)">
      <use transform="scale(0.996264)" xlink:href="#CMR17-77"/>
      <use transform="translate(84.686941 0)scale(0.996264)" xlink:href="#CMR17-45"/>
      <use transform="translate(114.762907 0)scale(0.996264)" xlink:href="#CMR17-67"/>
      <use transform="translate(181.272787 0)scale(0.996264)" xlink:href="#CMR17-71"/>
     </g>
    </g>
    <g id="line2d_54">
     <path d="M 396.094451 120.760248 
L 416.094451 120.760248 
" style="fill:none;stroke:#93a1a1;stroke-linecap:square;stroke-width:1.5;"/>
    </g>
    <g id="line2d_55">
     <g>
      <use style="fill:#93a1a1;stroke:#93a1a1;stroke-linejoin:miter;" x="406.094451" xlink:href="#mde44de9a52" y="120.760248"/>
     </g>
    </g>
    <g id="text_25">
     <!-- CG-CG -->
     <g transform="translate(424.094451 124.260248)scale(0.1 -0.1)">
      <use transform="scale(0.996264)" xlink:href="#CMR17-67"/>
      <use transform="translate(66.509881 0)scale(0.996264)" xlink:href="#CMR17-71"/>
      <use transform="translate(138.865226 0)scale(0.996264)" xlink:href="#CMR17-45"/>
      <use transform="translate(168.941193 0)scale(0.996264)" xlink:href="#CMR17-67"/>
      <use transform="translate(235.451073 0)scale(0.996264)" xlink:href="#CMR17-71"/>
     </g>
    </g>
    <g id="line2d_56">
     <path d="M 396.094451 134.697427 
L 416.094451 134.697427 
" style="fill:none;stroke:#93a1a1;stroke-linecap:square;stroke-width:1.5;"/>
    </g>
    <g id="line2d_57">
     <g>
      <use style="fill:#93a1a1;stroke:#93a1a1;" x="406.094451" xlink:href="#me97abbaf7e" y="134.697427"/>
     </g>
    </g>
    <g id="text_26">
     <!-- HS-CG -->
     <defs>
      <path d="M 56.09375 60.90625 
C 56.09375 65.390625 57.203125 65.390625 64.09375 65.390625 
L 64.09375 68 
C 61.203125 67.796875 55.90625 67.796875 52.796875 67.796875 
C 49.703125 67.796875 44.40625 67.796875 41.5 68 
L 41.5 65.390625 
C 48.40625 65.390625 49.5 65.390625 49.5 60.90625 
L 49.5 36.59375 
L 19.703125 36.59375 
L 19.703125 60.90625 
C 19.703125 65.390625 20.796875 65.390625 27.703125 65.390625 
L 27.703125 68 
C 24.796875 67.796875 19.5 67.796875 16.40625 67.796875 
C 13.296875 67.796875 8 67.796875 5.09375 68 
L 5.09375 65.390625 
C 12 65.390625 13.09375 65.390625 13.09375 60.90625 
L 13.09375 7.0625 
C 13.09375 2.59375 12 2.59375 5.09375 2.59375 
L 5.09375 0 
C 8 0.1875 13.296875 0.1875 16.40625 0.1875 
C 19.5 0.1875 24.796875 0.1875 27.703125 0 
L 27.703125 2.59375 
C 20.796875 2.59375 19.703125 2.59375 19.703125 7.0625 
L 19.703125 34 
L 49.5 34 
L 49.5 7.0625 
C 49.5 2.59375 48.40625 2.59375 41.5 2.59375 
L 41.5 0 
C 44.40625 0.1875 49.703125 0.1875 52.796875 0.1875 
C 55.90625 0.1875 61.203125 0.1875 64.09375 0 
L 64.09375 2.59375 
C 57.203125 2.59375 56.09375 2.59375 56.09375 7.0625 
z
" id="CMR17-72"/>
      <path d="M 43.796875 67.984375 
C 43.796875 69.796875 43.703125 69.890625 43.09375 69.890625 
C 42.5 69.890625 42.296875 69.484375 41.90625 68.59375 
L 38.90625 61.953125 
C 35.09375 67.5 29.296875 70 23 70 
C 12.796875 70 4.59375 61.84375 4.59375 51.578125 
C 4.59375 48.453125 5.296875 44.015625 8.703125 39.78125 
C 12.40625 35.15625 15.90625 34.34375 23.90625 32.234375 
C 26.90625 31.421875 31.90625 30.109375 32.90625 29.703125 
C 38.59375 27.296875 41.59375 21.25 41.59375 15.609375 
C 41.59375 8.34375 36.5 0.59375 27.796875 0.59375 
C 17.09375 0.59375 7.09375 6.640625 6.40625 20.75 
C 6.296875 22.359375 6.203125 22.453125 5.5 22.453125 
C 4.703125 22.453125 4.59375 22.359375 4.59375 20.34375 
L 4.59375 0 
C 4.59375 -1.8125 4.703125 -1.90625 5.296875 -1.90625 
C 6 -1.90625 6.203125 -1.40625 7.59375 1.703125 
C 7.703125 2 7.703125 2.203125 9.59375 6.03125 
C 14.59375 -0.609375 23 -2 27.796875 -2 
C 38.703125 -2 46.40625 7.140625 46.40625 17.828125 
C 46.40625 23.0625 44.5 27.09375 43.40625 28.90625 
C 39.203125 35.359375 34.703125 36.5625 29.90625 37.765625 
C 29.203125 38.078125 29 38.078125 23.40625 39.484375 
C 18 40.890625 15.703125 41.59375 13.203125 44.3125 
C 10.40625 47.4375 9.40625 50.671875 9.40625 53.890625 
C 9.40625 60.4375 14.59375 67.59375 23.09375 67.59375 
C 33.703125 67.59375 40.296875 60.03125 41.796875 47.4375 
C 42.09375 45.625 42.203125 45.53125 42.90625 45.53125 
C 43.796875 45.53125 43.796875 45.828125 43.796875 47.546875 
z
" id="CMR17-83"/>
     </defs>
     <g transform="translate(424.094451 138.197427)scale(0.1 -0.1)">
      <use transform="scale(0.996264)" xlink:href="#CMR17-72"/>
      <use transform="translate(69.07243 0)scale(0.996264)" xlink:href="#CMR17-83"/>
      <use transform="translate(119.9678 0)scale(0.996264)" xlink:href="#CMR17-45"/>
      <use transform="translate(150.043766 0)scale(0.996264)" xlink:href="#CMR17-67"/>
      <use transform="translate(216.553646 0)scale(0.996264)" xlink:href="#CMR17-71"/>
     </g>
    </g>
   </g>
  </g>
 </g>
 <defs>
  <clipPath id="p0481894723">
   <rect height="221.76" width="334.8" x="52.294451" y="10.7"/>
  </clipPath>
 </defs>
</svg>
