<?xml version="1.0" encoding="utf-8" standalone="no"?>
<!DOCTYPE svg PUBLIC "-//W3C//DTD SVG 1.1//EN"
  "http://www.w3.org/Graphics/SVG/1.1/DTD/svg11.dtd">
<!-- Created with matplotlib (https://matplotlib.org/) -->
<svg height="268.371353pt" version="1.1" viewBox="0 0 494.350183 268.371353" width="494.350183pt" xmlns="http://www.w3.org/2000/svg" xmlns:xlink="http://www.w3.org/1999/xlink">
 <defs>
  <style type="text/css">
*{stroke-linecap:butt;stroke-linejoin:round;}
  </style>
 </defs>
 <g id="figure_1">
  <g id="patch_1">
   <path d="M -0 268.371353 
L 494.350183 268.371353 
L 494.350183 0 
L -0 0 
z
" style="fill:#ffffff;"/>
  </g>
  <g id="axes_1">
   <g id="patch_2">
    <path d="M 52.294451 232.46 
L 387.094451 232.46 
L 387.094451 10.7 
L 52.294451 10.7 
z
" style="fill:#ffffff;"/>
   </g>
   <g id="matplotlib.axis_1">
    <g id="xtick_1">
     <g id="line2d_1">
      <path clip-path="url(#pcad5733d3b)" d="M 67.512633 232.46 
L 67.512633 10.7 
" style="fill:none;stroke:#b0b0b0;stroke-dasharray:0.8,1.32;stroke-dashoffset:0;stroke-width:0.8;"/>
     </g>
     <g id="line2d_2">
      <defs>
       <path d="M 0 0 
L 0 3.5 
" id="m0399fd3d28" style="stroke:#000000;stroke-width:0.8;"/>
      </defs>
      <g>
       <use style="stroke:#000000;stroke-width:0.8;" x="67.512633" xlink:href="#m0399fd3d28" y="232.46"/>
      </g>
     </g>
     <g id="text_1">
      <!-- $0$ -->
      <defs>
       <path d="M 42 31.84375 
C 42 37.96875 41.90625 48.421875 37.703125 56.453125 
C 34 63.484375 28.09375 66 22.90625 66 
C 18.09375 66 12 63.78125 8.203125 56.5625 
C 4.203125 49.015625 3.796875 39.671875 3.796875 31.84375 
C 3.796875 26.109375 3.90625 17.375 7 9.734375 
C 11.296875 -0.609375 19 -2 22.90625 -2 
C 27.5 -2 34.5 -0.109375 38.59375 9.4375 
C 41.59375 16.375 42 24.5 42 31.84375 
z
M 22.90625 -0.40625 
C 16.5 -0.40625 12.703125 5.125 11.296875 12.75 
C 10.203125 18.6875 10.203125 27.328125 10.203125 32.953125 
C 10.203125 40.6875 10.203125 47.109375 11.5 53.234375 
C 13.40625 61.78125 19 64.390625 22.90625 64.390625 
C 27 64.390625 32.296875 61.671875 34.203125 53.4375 
C 35.5 47.71875 35.59375 40.984375 35.59375 32.953125 
C 35.59375 26.421875 35.59375 18.375 34.40625 12.453125 
C 32.296875 1.5 26.40625 -0.40625 22.90625 -0.40625 
z
" id="CMR17-48"/>
      </defs>
      <g transform="translate(65.021965 246.378498)scale(0.1 -0.1)">
       <use transform="scale(0.996264)" xlink:href="#CMR17-48"/>
      </g>
     </g>
    </g>
    <g id="xtick_2">
     <g id="line2d_3">
      <path clip-path="url(#pcad5733d3b)" d="M 140.049248 232.46 
L 140.049248 10.7 
" style="fill:none;stroke:#b0b0b0;stroke-dasharray:0.8,1.32;stroke-dashoffset:0;stroke-width:0.8;"/>
     </g>
     <g id="line2d_4">
      <g>
       <use style="stroke:#000000;stroke-width:0.8;" x="140.049248" xlink:href="#m0399fd3d28" y="232.46"/>
      </g>
     </g>
     <g id="text_2">
      <!-- $500$ -->
      <defs>
       <path d="M 11.40625 58.59375 
C 12.40625 58.1875 16.5 56.890625 20.703125 56.890625 
C 30 56.890625 35.09375 61.890625 38 64.6875 
C 38 65.484375 38 66 37.40625 66 
C 37.296875 66 37.09375 66 36.296875 65.59375 
C 32.796875 64.09375 28.703125 63 23.703125 63 
C 20.703125 63 16.203125 63.359375 11.296875 65.484375 
C 10.203125 66 10 66 9.90625 66 
C 9.40625 66 9.296875 65.890625 9.296875 63.90625 
L 9.296875 34.859375 
C 9.296875 33.015625 9.296875 32.5 10.296875 32.5 
C 10.796875 32.5 11 32.703125 11.5 33.421875 
C 14.703125 38.046875 19.09375 40 24.09375 40 
C 27.59375 40 35.09375 37.734375 35.09375 20.203125 
C 35.09375 16.984375 35.09375 11.1875 32.09375 6.59375 
C 29.59375 2.484375 25.703125 0.390625 21.40625 0.390625 
C 14.796875 0.390625 8.09375 4.984375 6.296875 12.6875 
C 6.703125 12.59375 7.5 12.390625 7.90625 12.390625 
C 9.203125 12.390625 11.703125 13.09375 11.703125 16.1875 
C 11.703125 18.890625 9.796875 20 7.90625 20 
C 5.59375 20 4.09375 18.59375 4.09375 15.796875 
C 4.09375 7.09375 11 -2 21.59375 -2 
C 31.90625 -2 41.703125 6.890625 41.703125 19.796875 
C 41.703125 32.09375 33.90625 41.59375 24.203125 41.59375 
C 19.09375 41.59375 14.796875 39.6875 11.40625 36 
z
" id="CMR17-53"/>
      </defs>
      <g transform="translate(132.577245 246.378498)scale(0.1 -0.1)">
       <use transform="scale(0.996264)" xlink:href="#CMR17-53"/>
       <use transform="translate(45.690477 0)scale(0.996264)" xlink:href="#CMR17-48"/>
       <use transform="translate(91.380954 0)scale(0.996264)" xlink:href="#CMR17-48"/>
      </g>
     </g>
    </g>
    <g id="xtick_3">
     <g id="line2d_5">
      <path clip-path="url(#pcad5733d3b)" d="M 212.585863 232.46 
L 212.585863 10.7 
" style="fill:none;stroke:#b0b0b0;stroke-dasharray:0.8,1.32;stroke-dashoffset:0;stroke-width:0.8;"/>
     </g>
     <g id="line2d_6">
      <g>
       <use style="stroke:#000000;stroke-width:0.8;" x="212.585863" xlink:href="#m0399fd3d28" y="232.46"/>
      </g>
     </g>
     <g id="text_3">
      <!-- $1000$ -->
      <defs>
       <path d="M 26.59375 63.796875 
C 26.59375 65.890625 26.5 66 25.09375 66 
C 21.203125 61.359375 15.296875 59.890625 9.703125 59.6875 
C 9.40625 59.6875 8.90625 59.6875 8.796875 59.5 
C 8.703125 59.296875 8.703125 59.09375 8.703125 57 
C 11.796875 57 17 57.59375 21 59.984375 
L 21 7.296875 
C 21 3.796875 20.796875 2.59375 12.203125 2.59375 
L 9.203125 2.59375 
L 9.203125 0 
C 14 0.09375 19 0.1875 23.796875 0.1875 
C 28.59375 0.1875 33.59375 0.09375 38.40625 0 
L 38.40625 2.59375 
L 35.40625 2.59375 
C 26.796875 2.59375 26.59375 3.6875 26.59375 7.296875 
z
" id="CMR17-49"/>
      </defs>
      <g transform="translate(202.623192 246.378498)scale(0.1 -0.1)">
       <use transform="scale(0.996264)" xlink:href="#CMR17-49"/>
       <use transform="translate(45.690477 0)scale(0.996264)" xlink:href="#CMR17-48"/>
       <use transform="translate(91.380954 0)scale(0.996264)" xlink:href="#CMR17-48"/>
       <use transform="translate(137.071431 0)scale(0.996264)" xlink:href="#CMR17-48"/>
      </g>
     </g>
    </g>
    <g id="xtick_4">
     <g id="line2d_7">
      <path clip-path="url(#pcad5733d3b)" d="M 285.122478 232.46 
L 285.122478 10.7 
" style="fill:none;stroke:#b0b0b0;stroke-dasharray:0.8,1.32;stroke-dashoffset:0;stroke-width:0.8;"/>
     </g>
     <g id="line2d_8">
      <g>
       <use style="stroke:#000000;stroke-width:0.8;" x="285.122478" xlink:href="#m0399fd3d28" y="232.46"/>
      </g>
     </g>
     <g id="text_4">
      <!-- $1500$ -->
      <g transform="translate(275.159807 246.378498)scale(0.1 -0.1)">
       <use transform="scale(0.996264)" xlink:href="#CMR17-49"/>
       <use transform="translate(45.690477 0)scale(0.996264)" xlink:href="#CMR17-53"/>
       <use transform="translate(91.380954 0)scale(0.996264)" xlink:href="#CMR17-48"/>
       <use transform="translate(137.071431 0)scale(0.996264)" xlink:href="#CMR17-48"/>
      </g>
     </g>
    </g>
    <g id="xtick_5">
     <g id="line2d_9">
      <path clip-path="url(#pcad5733d3b)" d="M 357.659093 232.46 
L 357.659093 10.7 
" style="fill:none;stroke:#b0b0b0;stroke-dasharray:0.8,1.32;stroke-dashoffset:0;stroke-width:0.8;"/>
     </g>
     <g id="line2d_10">
      <g>
       <use style="stroke:#000000;stroke-width:0.8;" x="357.659093" xlink:href="#m0399fd3d28" y="232.46"/>
      </g>
     </g>
     <g id="text_5">
      <!-- $2000$ -->
      <defs>
       <path d="M 41.703125 15.46875 
L 39.90625 15.46875 
C 38.90625 8.390625 38.09375 7.1875 37.703125 6.59375 
C 37.203125 5.796875 30 5.796875 28.59375 5.796875 
L 9.40625 5.796875 
C 13 9.6875 20 16.765625 28.5 24.9375 
C 34.59375 30.71875 41.703125 37.5 41.703125 47.390625 
C 41.703125 59.1875 32.296875 66 21.796875 66 
C 10.796875 66 4.09375 56.296875 4.09375 47.296875 
C 4.09375 43.390625 7 42.890625 8.203125 42.890625 
C 9.203125 42.890625 12.203125 43.484375 12.203125 46.984375 
C 12.203125 50.09375 9.59375 51 8.203125 51 
C 7.59375 51 7 50.890625 6.59375 50.6875 
C 8.5 59.1875 14.296875 63.390625 20.40625 63.390625 
C 29.09375 63.390625 34.796875 56.5 34.796875 47.390625 
C 34.796875 38.703125 29.703125 31.21875 24 24.734375 
L 4.09375 2.296875 
L 4.09375 0 
L 39.296875 0 
z
" id="CMR17-50"/>
      </defs>
      <g transform="translate(347.696422 246.378498)scale(0.1 -0.1)">
       <use transform="scale(0.996264)" xlink:href="#CMR17-50"/>
       <use transform="translate(45.690477 0)scale(0.996264)" xlink:href="#CMR17-48"/>
       <use transform="translate(91.380954 0)scale(0.996264)" xlink:href="#CMR17-48"/>
       <use transform="translate(137.071431 0)scale(0.996264)" xlink:href="#CMR17-48"/>
      </g>
     </g>
    </g>
    <g id="text_6">
     <!-- iteration $k$ -->
     <defs>
      <path d="M 15.5 61.890625 
C 15.5 64.09375 13.703125 66 11.40625 66 
C 9.203125 66 7.296875 64.1875 7.296875 61.890625 
C 7.296875 59.6875 9.09375 57.796875 11.40625 57.796875 
C 13.59375 57.796875 15.5 59.59375 15.5 61.890625 
z
M 3.796875 42.890625 
L 3.796875 40.296875 
C 9.40625 40.296875 10.203125 39.6875 10.203125 34.859375 
L 10.203125 6.921875 
C 10.203125 3.09375 9.796875 2.59375 3.40625 2.59375 
L 3.40625 0 
C 5.796875 0.1875 10.09375 0.1875 12.59375 0.1875 
C 15 0.1875 19.09375 0.1875 21.40625 0 
L 21.40625 2.59375 
C 15.5 2.59375 15.296875 3.203125 15.296875 6.8125 
L 15.296875 44 
z
" id="CMR17-105"/>
      <path d="M 15.09375 40.390625 
L 29.09375 40.390625 
L 29.09375 43 
L 15.09375 43 
L 15.09375 62 
L 13.296875 62 
C 13.09375 51.4375 9.59375 42.1875 1.09375 41.984375 
L 1.09375 40.390625 
L 9.796875 40.390625 
L 9.796875 12.15625 
C 9.796875 10.234375 9.796875 -1 21.40625 -1 
C 27.296875 -1 30.703125 4.8125 30.703125 12.25 
L 30.703125 17.984375 
L 28.90625 17.984375 
L 28.90625 12.34375 
C 28.90625 5.421875 26.203125 0.796875 22 0.796875 
C 19.09375 0.796875 15.09375 2.796875 15.09375 11.953125 
z
" id="CMR17-116"/>
      <path d="M 38.09375 23.484375 
C 38.5 23.890625 38.5 24.09375 38.5 25.09375 
C 38.5 35.171875 33.09375 44 21.703125 44 
C 11.09375 44 2.703125 33.984375 2.703125 21.78125 
C 2.703125 8.65625 12.203125 -1 22.796875 -1 
C 34 -1 38.40625 9.671875 38.40625 11.796875 
C 38.40625 12.5 37.796875 12.5 37.59375 12.5 
C 36.90625 12.5 36.796875 12.296875 36.40625 11.078125 
C 34.203125 4.21875 28.703125 0.796875 23.5 0.796875 
C 19.203125 0.796875 14.90625 3.21875 12.203125 7.65625 
C 9.09375 12.796875 9.09375 18.75 9.09375 23.484375 
z
M 9.203125 25 
C 9.90625 39.234375 17.59375 42.390625 21.59375 42.390625 
C 28.40625 42.390625 33 36.0625 33.09375 25 
z
" id="CMR17-101"/>
      <path d="M 15 23.703125 
C 15 33.34375 19.09375 42.390625 26.59375 42.390625 
C 27.296875 42.390625 28 42.296875 28.703125 41.984375 
C 28.703125 41.984375 26.5 41.28125 26.5 38.671875 
C 26.5 36.265625 28.40625 35.265625 29.90625 35.265625 
C 31.09375 35.265625 33.296875 35.96875 33.296875 38.78125 
C 33.296875 41.984375 30.09375 44 26.703125 44 
C 19.09375 44 15.796875 36.5625 14.796875 33.046875 
L 14.703125 33.046875 
L 14.703125 44 
L 3.09375 42.890625 
L 3.09375 40.28125 
C 9 40.28125 9.90625 39.6875 9.90625 34.859375 
L 9.90625 6.921875 
C 9.90625 3.09375 9.5 2.59375 3.09375 2.59375 
L 3.09375 0 
C 5.5 0.1875 10.09375 0.1875 12.703125 0.1875 
C 15.59375 0.1875 20.703125 0.1875 23.40625 0 
L 23.40625 2.59375 
C 16.203125 2.59375 15 2.59375 15 7.109375 
z
" id="CMR17-114"/>
      <path d="M 36 25.875 
C 36 32 36 35.546875 31.796875 39.59375 
C 28.09375 42.984375 23.796875 44 20.40625 44 
C 12.5 44 6.796875 37.625 6.796875 30.890625 
C 6.796875 27.1875 9.796875 27 10.40625 27 
C 11.703125 27 14 27.796875 14 30.59375 
C 14 33.09375 12.09375 34.1875 10.40625 34.1875 
C 10 34.1875 9.5 34.09375 9.203125 34 
C 11.296875 40.53125 16.703125 42.390625 20.203125 42.390625 
C 25.203125 42.390625 30.703125 37.828125 30.703125 29.296875 
L 30.703125 25.5 
C 24.796875 25.296875 17.703125 24.5 12.09375 21.453125 
C 5.796875 17.921875 4 12.84375 4 9 
C 4 1.203125 13 -1 18.296875 -1 
C 23.796875 -1 28.90625 2.109375 31.09375 7.890625 
C 31.296875 3.421875 34.09375 -0.609375 38.5 -0.609375 
C 40.59375 -0.609375 45.90625 0.796875 45.90625 8.796875 
L 45.90625 14.46875 
L 44.09375 14.46875 
L 44.09375 8.703125 
C 44.09375 2.515625 41.40625 1.703125 40.09375 1.703125 
C 36 1.703125 36 6.96875 36 11.4375 
z
M 30.703125 13.859375 
C 30.703125 5.046875 24.5 0.59375 19 0.59375 
C 14 0.59375 10.09375 4.34375 10.09375 9 
C 10.09375 12.046875 11.40625 17.40625 17.203125 20.65625 
C 22 23.390625 27.5 23.796875 30.703125 24 
z
" id="CMR17-97"/>
      <path d="M 43.09375 21.1875 
C 43.09375 34 33.796875 44 22.90625 44 
C 12 44 2.703125 34 2.703125 21.1875 
C 2.703125 8.59375 12 -1 22.90625 -1 
C 33.796875 -1 43.09375 8.59375 43.09375 21.1875 
z
M 22.90625 0.796875 
C 18.203125 0.796875 14.203125 3.59375 11.90625 7.5 
C 9.40625 12 9.09375 17.59375 9.09375 22 
C 9.09375 26.1875 9.296875 31.390625 11.90625 35.890625 
C 13.90625 39.1875 17.796875 42.390625 22.90625 42.390625 
C 27.40625 42.390625 31.203125 39.890625 33.59375 36.390625 
C 36.703125 31.6875 36.703125 25.09375 36.703125 22 
C 36.703125 18.09375 36.5 12.09375 33.796875 7.296875 
C 31 2.6875 26.703125 0.796875 22.90625 0.796875 
z
" id="CMR17-111"/>
      <path d="M 41.5 30.53125 
C 41.5 35.65625 40.5 44 28.703125 44 
C 20.796875 44 16.703125 37.875 15.203125 33.84375 
L 15.09375 33.84375 
L 15.09375 44 
L 3.296875 42.890625 
L 3.296875 40.28125 
C 9.203125 40.28125 10.09375 39.6875 10.09375 34.859375 
L 10.09375 6.921875 
C 10.09375 3.09375 9.703125 2.59375 3.296875 2.59375 
L 3.296875 0 
C 5.703125 0.1875 10.09375 0.1875 12.703125 0.1875 
C 15.296875 0.1875 19.796875 0.1875 22.203125 0 
L 22.203125 2.59375 
C 15.796875 2.59375 15.40625 3 15.40625 6.921875 
L 15.40625 26.21875 
C 15.40625 35.453125 21 42.390625 28 42.390625 
C 35.40625 42.390625 36.203125 35.765625 36.203125 30.9375 
L 36.203125 6.921875 
C 36.203125 3.09375 35.796875 2.59375 29.40625 2.59375 
L 29.40625 0 
C 31.796875 0.1875 36.203125 0.1875 38.796875 0.1875 
C 41.40625 0.1875 45.90625 0.1875 48.296875 0 
L 48.296875 2.59375 
C 41.90625 2.59375 41.5 3 41.5 6.921875 
z
" id="CMR17-110"/>
      <path d="M 28.09375 66.484375 
C 28.203125 66.890625 28.40625 67.484375 28.40625 67.984375 
C 28.40625 69 27.40625 69 27.203125 69 
C 27.09375 69 23.5 68.6875 21.703125 68.484375 
C 20 68.390625 18.5 68.1875 16.703125 68.09375 
C 14.296875 67.890625 13.59375 67.796875 13.59375 65.984375 
C 13.59375 64.984375 14.59375 64.984375 15.59375 64.984375 
C 20.703125 64.984375 20.703125 64.109375 20.703125 63.125 
C 20.703125 62.71875 20.703125 62.53125 20.203125 60.75 
L 5.90625 3.90625 
C 5.5 2.390625 5.5 2.203125 5.5 1.59375 
C 5.5 -0.609375 7.203125 -1 8.203125 -1 
C 11 -1 11.59375 1.1875 12.40625 4.296875 
L 17.09375 23.0625 
C 24.296875 22.265625 28.59375 19.25 28.59375 14.4375 
C 28.59375 13.828125 28.59375 13.4375 28.296875 11.921875 
C 27.90625 10.421875 27.90625 9.21875 27.90625 8.71875 
C 27.90625 2.890625 31.703125 -1 36.796875 -1 
C 41.40625 -1 43.796875 3.203125 44.59375 4.609375 
C 46.703125 8.3125 48 13.9375 48 14.328125 
C 48 14.828125 47.59375 15.234375 47 15.234375 
C 46.09375 15.234375 46 14.828125 45.59375 13.234375 
C 44.203125 8.015625 42.09375 1 37 1 
C 35 1 33.703125 2 33.703125 5.8125 
C 33.703125 7.71875 34.09375 9.921875 34.5 11.421875 
C 34.90625 13.234375 34.90625 13.328125 34.90625 14.53125 
C 34.90625 20.453125 29.59375 23.765625 20.40625 24.96875 
C 24 27.171875 27.59375 31.078125 29 32.59375 
C 34.703125 38.984375 38.59375 41.984375 43.203125 41.984375 
C 45.5 41.984375 46.09375 41.484375 46.796875 41 
C 43.09375 40.59375 41.703125 37.984375 41.703125 35.984375 
C 41.703125 33.59375 43.59375 32.796875 45 32.796875 
C 47.703125 32.796875 50.09375 35.09375 50.09375 38.296875 
C 50.09375 41.15625 47.796875 44 43.296875 44 
C 37.796875 44 33.296875 40.296875 26.203125 32.296875 
C 25.203125 31.078125 21.5 27.28125 17.796875 25.875 
z
" id="CMMI12-107"/>
     </defs>
     <g transform="translate(196.885256 259.234175)scale(0.1 -0.1)">
      <use transform="scale(0.996264)" xlink:href="#CMR17-105"/>
      <use transform="translate(24.871058 0)scale(0.996264)" xlink:href="#CMR17-116"/>
      <use transform="translate(60.151826 0)scale(0.996264)" xlink:href="#CMR17-101"/>
      <use transform="translate(100.637487 0)scale(0.996264)" xlink:href="#CMR17-114"/>
      <use transform="translate(135.918255 0)scale(0.996264)" xlink:href="#CMR17-97"/>
      <use transform="translate(181.608732 0)scale(0.996264)" xlink:href="#CMR17-116"/>
      <use transform="translate(216.889499 0)scale(0.996264)" xlink:href="#CMR17-105"/>
      <use transform="translate(241.760558 0)scale(0.996264)" xlink:href="#CMR17-111"/>
      <use transform="translate(287.451035 0)scale(0.996264)" xlink:href="#CMR17-110"/>
      <use transform="translate(368.422371 0)scale(0.996264)" xlink:href="#CMMI12-107"/>
     </g>
    </g>
   </g>
   <g id="matplotlib.axis_2">
    <g id="ytick_1">
     <g id="line2d_11">
      <path clip-path="url(#pcad5733d3b)" d="M 52.294451 232.46 
L 387.094451 232.46 
" style="fill:none;stroke:#b0b0b0;stroke-dasharray:0.8,1.32;stroke-dashoffset:0;stroke-width:0.8;"/>
     </g>
     <g id="line2d_12">
      <defs>
       <path d="M 0 0 
L -3.5 0 
" id="m6a8418424f" style="stroke:#000000;stroke-width:0.8;"/>
      </defs>
      <g>
       <use style="stroke:#000000;stroke-width:0.8;" x="52.294451" xlink:href="#m6a8418424f" y="232.46"/>
      </g>
     </g>
     <g id="text_7">
      <!-- $10^{-16}$ -->
      <defs>
       <path d="M 65.90625 23 
C 67.59375 23 69.40625 23 69.40625 25 
C 69.40625 27 67.59375 27 65.90625 27 
L 11.796875 27 
C 10.09375 27 8.296875 27 8.296875 25 
C 8.296875 23 10.09375 23 11.796875 23 
z
" id="CMSY10-0"/>
       <path d="M 10.59375 34.34375 
C 10.59375 58 21.796875 63.6875 28.296875 63.6875 
C 30.40625 63.6875 35.5 63.265625 37.5 59.09375 
C 35.90625 59.09375 32.90625 59.09375 32.90625 55.59375 
C 32.90625 52.890625 35.09375 52 36.5 52 
C 37.40625 52 40.09375 52.390625 40.09375 55.796875 
C 40.09375 62.296875 35.09375 66 28.203125 66 
C 16.296875 66 3.796875 53.296875 3.796875 31.421875 
C 3.796875 4.015625 15.09375 -2 23.09375 -2 
C 32.796875 -2 42 6.734375 42 20.234375 
C 42 32.828125 33.90625 42 23.703125 42 
C 17.59375 42 13.09375 37.96875 10.59375 30.921875 
z
M 23.09375 0.390625 
C 10.796875 0.390625 10.796875 18.9375 10.796875 22.65625 
C 10.796875 29.90625 14.203125 40.390625 23.5 40.390625 
C 25.203125 40.390625 30.09375 40.390625 33.40625 33.4375 
C 35.203125 29.515625 35.203125 25.375 35.203125 20.34375 
C 35.203125 14.90625 35.203125 10.875 33.09375 6.84375 
C 30.90625 2.703125 27.703125 0.390625 23.09375 0.390625 
z
" id="CMR17-54"/>
      </defs>
      <g transform="translate(21.16264 235.919249)scale(0.1 -0.1)">
       <use transform="scale(0.996264)" xlink:href="#CMR17-49"/>
       <use transform="translate(45.690477 0)scale(0.996264)" xlink:href="#CMR17-48"/>
       <use transform="translate(91.380954 36.153639)scale(0.697382)" xlink:href="#CMSY10-0"/>
       <use transform="translate(145.621947 36.153639)scale(0.697382)" xlink:href="#CMR17-49"/>
       <use transform="translate(177.605129 36.153639)scale(0.697382)" xlink:href="#CMR17-54"/>
      </g>
     </g>
    </g>
    <g id="ytick_2">
     <g id="line2d_13">
      <path clip-path="url(#pcad5733d3b)" d="M 52.294451 205.900278 
L 387.094451 205.900278 
" style="fill:none;stroke:#b0b0b0;stroke-dasharray:0.8,1.32;stroke-dashoffset:0;stroke-width:0.8;"/>
     </g>
     <g id="line2d_14">
      <g>
       <use style="stroke:#000000;stroke-width:0.8;" x="52.294451" xlink:href="#m6a8418424f" y="205.900278"/>
      </g>
     </g>
     <g id="text_8">
      <!-- $10^{-14}$ -->
      <defs>
       <path d="M 33.59375 64.796875 
C 33.59375 66.890625 33.5 67 31.703125 67 
L 2 19.59375 
L 2 17 
L 27.796875 17 
L 27.796875 7.1875 
C 27.796875 3.59375 27.59375 2.59375 20.59375 2.59375 
L 18.703125 2.59375 
L 18.703125 0 
C 21.90625 0.1875 27.296875 0.1875 30.703125 0.1875 
C 34.09375 0.1875 39.5 0.1875 42.703125 0 
L 42.703125 2.59375 
L 40.796875 2.59375 
C 33.796875 2.59375 33.59375 3.59375 33.59375 7.1875 
L 33.59375 17 
L 43.796875 17 
L 43.796875 19.59375 
L 33.59375 19.59375 
z
M 28.09375 58.171875 
L 28.09375 19.59375 
L 4 19.59375 
z
" id="CMR17-52"/>
      </defs>
      <g transform="translate(21.16264 209.359527)scale(0.1 -0.1)">
       <use transform="scale(0.996264)" xlink:href="#CMR17-49"/>
       <use transform="translate(45.690477 0)scale(0.996264)" xlink:href="#CMR17-48"/>
       <use transform="translate(91.380954 36.153639)scale(0.697382)" xlink:href="#CMSY10-0"/>
       <use transform="translate(145.621947 36.153639)scale(0.697382)" xlink:href="#CMR17-49"/>
       <use transform="translate(177.605129 36.153639)scale(0.697382)" xlink:href="#CMR17-52"/>
      </g>
     </g>
    </g>
    <g id="ytick_3">
     <g id="line2d_15">
      <path clip-path="url(#pcad5733d3b)" d="M 52.294451 179.340556 
L 387.094451 179.340556 
" style="fill:none;stroke:#b0b0b0;stroke-dasharray:0.8,1.32;stroke-dashoffset:0;stroke-width:0.8;"/>
     </g>
     <g id="line2d_16">
      <g>
       <use style="stroke:#000000;stroke-width:0.8;" x="52.294451" xlink:href="#m6a8418424f" y="179.340556"/>
      </g>
     </g>
     <g id="text_9">
      <!-- $10^{-12}$ -->
      <g transform="translate(21.16264 182.799805)scale(0.1 -0.1)">
       <use transform="scale(0.996264)" xlink:href="#CMR17-49"/>
       <use transform="translate(45.690477 0)scale(0.996264)" xlink:href="#CMR17-48"/>
       <use transform="translate(91.380954 36.153639)scale(0.697382)" xlink:href="#CMSY10-0"/>
       <use transform="translate(145.621947 36.153639)scale(0.697382)" xlink:href="#CMR17-49"/>
       <use transform="translate(177.605129 36.153639)scale(0.697382)" xlink:href="#CMR17-50"/>
      </g>
     </g>
    </g>
    <g id="ytick_4">
     <g id="line2d_17">
      <path clip-path="url(#pcad5733d3b)" d="M 52.294451 152.780834 
L 387.094451 152.780834 
" style="fill:none;stroke:#b0b0b0;stroke-dasharray:0.8,1.32;stroke-dashoffset:0;stroke-width:0.8;"/>
     </g>
     <g id="line2d_18">
      <g>
       <use style="stroke:#000000;stroke-width:0.8;" x="52.294451" xlink:href="#m6a8418424f" y="152.780834"/>
      </g>
     </g>
     <g id="text_10">
      <!-- $10^{-10}$ -->
      <g transform="translate(21.16264 156.240083)scale(0.1 -0.1)">
       <use transform="scale(0.996264)" xlink:href="#CMR17-49"/>
       <use transform="translate(45.690477 0)scale(0.996264)" xlink:href="#CMR17-48"/>
       <use transform="translate(91.380954 36.153639)scale(0.697382)" xlink:href="#CMSY10-0"/>
       <use transform="translate(145.621947 36.153639)scale(0.697382)" xlink:href="#CMR17-49"/>
       <use transform="translate(177.605129 36.153639)scale(0.697382)" xlink:href="#CMR17-48"/>
      </g>
     </g>
    </g>
    <g id="ytick_5">
     <g id="line2d_19">
      <path clip-path="url(#pcad5733d3b)" d="M 52.294451 126.221112 
L 387.094451 126.221112 
" style="fill:none;stroke:#b0b0b0;stroke-dasharray:0.8,1.32;stroke-dashoffset:0;stroke-width:0.8;"/>
     </g>
     <g id="line2d_20">
      <g>
       <use style="stroke:#000000;stroke-width:0.8;" x="52.294451" xlink:href="#m6a8418424f" y="126.221112"/>
      </g>
     </g>
     <g id="text_11">
      <!-- $10^{-8}$ -->
      <defs>
       <path d="M 27.203125 35.765625 
C 33.5 38.96875 39.90625 43.796875 39.90625 51.53125 
C 39.90625 60.6875 31.09375 66 23 66 
C 13.90625 66 5.90625 59.375 5.90625 50.234375 
C 5.90625 47.71875 6.5 43.390625 10.40625 39.578125 
C 11.40625 38.578125 15.59375 35.5625 18.296875 33.65625 
C 13.796875 31.34375 3.296875 25.8125 3.296875 14.765625 
C 3.296875 4.40625 13.09375 -2 22.796875 -2 
C 33.5 -2 42.5 5.71875 42.5 15.96875 
C 42.5 25.109375 36.40625 29.328125 32.40625 32.046875 
z
M 14.09375 44.609375 
C 13.296875 45.109375 9.296875 48.21875 9.296875 52.9375 
C 9.296875 59.078125 15.59375 63.6875 22.796875 63.6875 
C 30.703125 63.6875 36.5 58.0625 36.5 51.53125 
C 36.5 42.1875 26.09375 36.859375 25.59375 36.859375 
C 25.5 36.859375 25.40625 36.859375 24.59375 37.46875 
z
M 32.5 24 
C 34 22.90625 38.796875 19.578125 38.796875 13.453125 
C 38.796875 6.015625 31.40625 0.390625 23 0.390625 
C 13.90625 0.390625 7 6.921875 7 14.859375 
C 7 22.796875 13.09375 29.4375 20 32.546875 
z
" id="CMR17-56"/>
      </defs>
      <g transform="translate(25.133878 129.680361)scale(0.1 -0.1)">
       <use transform="scale(0.996264)" xlink:href="#CMR17-49"/>
       <use transform="translate(45.690477 0)scale(0.996264)" xlink:href="#CMR17-48"/>
       <use transform="translate(91.380954 36.153639)scale(0.697382)" xlink:href="#CMSY10-0"/>
       <use transform="translate(145.621947 36.153639)scale(0.697382)" xlink:href="#CMR17-56"/>
      </g>
     </g>
    </g>
    <g id="ytick_6">
     <g id="line2d_21">
      <path clip-path="url(#pcad5733d3b)" d="M 52.294451 99.66139 
L 387.094451 99.66139 
" style="fill:none;stroke:#b0b0b0;stroke-dasharray:0.8,1.32;stroke-dashoffset:0;stroke-width:0.8;"/>
     </g>
     <g id="line2d_22">
      <g>
       <use style="stroke:#000000;stroke-width:0.8;" x="52.294451" xlink:href="#m6a8418424f" y="99.66139"/>
      </g>
     </g>
     <g id="text_12">
      <!-- $10^{-6}$ -->
      <g transform="translate(25.133878 103.120639)scale(0.1 -0.1)">
       <use transform="scale(0.996264)" xlink:href="#CMR17-49"/>
       <use transform="translate(45.690477 0)scale(0.996264)" xlink:href="#CMR17-48"/>
       <use transform="translate(91.380954 36.153639)scale(0.697382)" xlink:href="#CMSY10-0"/>
       <use transform="translate(145.621947 36.153639)scale(0.697382)" xlink:href="#CMR17-54"/>
      </g>
     </g>
    </g>
    <g id="ytick_7">
     <g id="line2d_23">
      <path clip-path="url(#pcad5733d3b)" d="M 52.294451 73.101668 
L 387.094451 73.101668 
" style="fill:none;stroke:#b0b0b0;stroke-dasharray:0.8,1.32;stroke-dashoffset:0;stroke-width:0.8;"/>
     </g>
     <g id="line2d_24">
      <g>
       <use style="stroke:#000000;stroke-width:0.8;" x="52.294451" xlink:href="#m6a8418424f" y="73.101668"/>
      </g>
     </g>
     <g id="text_13">
      <!-- $10^{-4}$ -->
      <g transform="translate(25.133878 76.560918)scale(0.1 -0.1)">
       <use transform="scale(0.996264)" xlink:href="#CMR17-49"/>
       <use transform="translate(45.690477 0)scale(0.996264)" xlink:href="#CMR17-48"/>
       <use transform="translate(91.380954 36.153639)scale(0.697382)" xlink:href="#CMSY10-0"/>
       <use transform="translate(145.621947 36.153639)scale(0.697382)" xlink:href="#CMR17-52"/>
      </g>
     </g>
    </g>
    <g id="ytick_8">
     <g id="line2d_25">
      <path clip-path="url(#pcad5733d3b)" d="M 52.294451 46.541946 
L 387.094451 46.541946 
" style="fill:none;stroke:#b0b0b0;stroke-dasharray:0.8,1.32;stroke-dashoffset:0;stroke-width:0.8;"/>
     </g>
     <g id="line2d_26">
      <g>
       <use style="stroke:#000000;stroke-width:0.8;" x="52.294451" xlink:href="#m6a8418424f" y="46.541946"/>
      </g>
     </g>
     <g id="text_14">
      <!-- $10^{-2}$ -->
      <g transform="translate(25.133878 50.001196)scale(0.1 -0.1)">
       <use transform="scale(0.996264)" xlink:href="#CMR17-49"/>
       <use transform="translate(45.690477 0)scale(0.996264)" xlink:href="#CMR17-48"/>
       <use transform="translate(91.380954 36.153639)scale(0.697382)" xlink:href="#CMSY10-0"/>
       <use transform="translate(145.621947 36.153639)scale(0.697382)" xlink:href="#CMR17-50"/>
      </g>
     </g>
    </g>
    <g id="ytick_9">
     <g id="line2d_27">
      <path clip-path="url(#pcad5733d3b)" d="M 52.294451 19.982224 
L 387.094451 19.982224 
" style="fill:none;stroke:#b0b0b0;stroke-dasharray:0.8,1.32;stroke-dashoffset:0;stroke-width:0.8;"/>
     </g>
     <g id="line2d_28">
      <g>
       <use style="stroke:#000000;stroke-width:0.8;" x="52.294451" xlink:href="#m6a8418424f" y="19.982224"/>
      </g>
     </g>
     <g id="text_15">
      <!-- $10^{0}$ -->
      <g transform="translate(31.360543 23.441474)scale(0.1 -0.1)">
       <use transform="scale(0.996264)" xlink:href="#CMR17-49"/>
       <use transform="translate(45.690477 0)scale(0.996264)" xlink:href="#CMR17-48"/>
       <use transform="translate(91.380954 36.153639)scale(0.697382)" xlink:href="#CMR17-48"/>
      </g>
     </g>
    </g>
    <g id="text_16">
     <!-- $A$-norm of error: $\| x-x_k \|_A$ -->
     <defs>
      <path d="M 17 11.25 
C 13.5 5.234375 10.09375 3.203125 5.296875 2.890625 
C 4.203125 2.796875 3.40625 2.796875 3.40625 1 
C 3.40625 0.390625 3.90625 0 4.59375 0 
C 6.40625 0 10.90625 0.1875 12.703125 0.1875 
C 15.59375 0.1875 18.796875 0 21.59375 0 
C 22.203125 0 23.40625 0 23.40625 1.890625 
C 23.40625 2.796875 22.59375 2.890625 22 2.890625 
C 19.703125 3.09375 17.796875 3.90625 17.796875 6.359375 
C 17.796875 7.78125 18.40625 8.90625 19.703125 11.15625 
L 27.296875 24 
L 52.796875 24 
C 52.90625 23.078125 52.90625 22.265625 53 21.34375 
C 53.296875 18.6875 54.5 8.09375 54.5 6.15625 
C 54.5 3.09375 49.40625 2.890625 47.796875 2.890625 
C 46.703125 2.890625 45.59375 2.890625 45.59375 1.09375 
C 45.59375 0 46.5 0 47.09375 0 
C 48.796875 0 50.796875 0.1875 52.5 0.1875 
L 58.203125 0.1875 
C 64.296875 0.1875 68.703125 0 68.796875 0 
C 69.5 0 70.59375 0 70.59375 1.890625 
C 70.59375 2.890625 69.703125 2.890625 68.203125 2.890625 
C 62.703125 2.890625 62.59375 3.8125 62.296875 6.875 
L 56.203125 68.796875 
C 56 70.796875 55.59375 71 54.5 71 
C 53.5 71 52.90625 70.796875 52 69.296875 
z
M 29 26.890625 
L 49.09375 59.859375 
L 52.5 26.890625 
z
" id="CMMI12-65"/>
      <path d="M 25.5 19.59375 
L 25.5 24 
L 0.40625 24 
L 0.40625 19.59375 
z
" id="CMR17-45"/>
      <path d="M 67.59375 30.53125 
C 67.59375 35.5625 66.703125 44 54.796875 44 
C 48 44 43.296875 39.375 41.5 33.953125 
L 41.40625 33.953125 
C 40.203125 42.1875 34.296875 44 28.703125 44 
C 20.796875 44 16.703125 37.875 15.203125 33.84375 
L 15.09375 33.84375 
L 15.09375 44 
L 3.296875 42.890625 
L 3.296875 40.28125 
C 9.203125 40.28125 10.09375 39.6875 10.09375 34.859375 
L 10.09375 6.921875 
C 10.09375 3.09375 9.703125 2.59375 3.296875 2.59375 
L 3.296875 0 
C 5.703125 0.1875 10.09375 0.1875 12.703125 0.1875 
C 15.296875 0.1875 19.796875 0.1875 22.203125 0 
L 22.203125 2.59375 
C 15.796875 2.59375 15.40625 3 15.40625 6.921875 
L 15.40625 26.21875 
C 15.40625 35.453125 21 42.390625 28 42.390625 
C 35.40625 42.390625 36.203125 35.765625 36.203125 30.9375 
L 36.203125 6.921875 
C 36.203125 3.09375 35.796875 2.59375 29.40625 2.59375 
L 29.40625 0 
C 31.796875 0.1875 36.203125 0.1875 38.796875 0.1875 
C 41.40625 0.1875 45.90625 0.1875 48.296875 0 
L 48.296875 2.59375 
C 41.90625 2.59375 41.5 3 41.5 6.921875 
L 41.5 26.21875 
C 41.5 35.453125 47.09375 42.390625 54.09375 42.390625 
C 61.5 42.390625 62.296875 35.765625 62.296875 30.9375 
L 62.296875 6.921875 
C 62.296875 3.09375 61.90625 2.59375 55.5 2.59375 
L 55.5 0 
C 57.90625 0.1875 62.296875 0.1875 64.90625 0.1875 
C 67.5 0.1875 72 0.1875 74.40625 0 
L 74.40625 2.59375 
C 68 2.59375 67.59375 3 67.59375 6.921875 
z
" id="CMR17-109"/>
      <path d="M 15.296875 40.390625 
L 26.703125 40.390625 
L 26.703125 43 
L 15.09375 43 
L 15.09375 55.296875 
C 15.09375 63.6875 19.296875 68.390625 23.59375 68.390625 
C 24.90625 68.390625 26.40625 68.171875 27.40625 67.796875 
C 26.59375 67.59375 24.5 66.890625 24.5 64.390625 
C 24.5 61.796875 26.5 61 27.90625 61 
C 29.296875 61 31.296875 61.796875 31.296875 64.390625 
C 31.296875 68.015625 27.703125 70 23.703125 70 
C 18 70 10.203125 65.796875 10.203125 55.09375 
L 10.203125 43 
L 2.203125 43 
L 2.203125 40.390625 
L 10.203125 40.390625 
L 10.203125 6.890625 
C 10.203125 3.09375 9.796875 2.59375 3.40625 2.59375 
L 3.40625 0 
C 5.796875 0.1875 10.40625 0.1875 13 0.1875 
C 15.90625 0.1875 21 0.1875 23.703125 0 
L 23.703125 2.59375 
C 16.5 2.59375 15.296875 2.59375 15.296875 7.09375 
z
" id="CMR17-102"/>
      <path d="M 16.59375 38.890625 
C 16.59375 41.390625 14.59375 43 12.5 43 
C 10.5 43 8.40625 41.390625 8.40625 38.890625 
C 8.40625 36.390625 10.40625 34.796875 12.5 34.796875 
C 14.5 34.796875 16.59375 36.390625 16.59375 38.890625 
z
M 16.59375 4.09375 
C 16.59375 6.59375 14.59375 8.1875 12.5 8.1875 
C 10.5 8.1875 8.40625 6.59375 8.40625 4.09375 
C 8.40625 1.59375 10.40625 0 12.5 0 
C 14.5 0 16.59375 1.59375 16.59375 4.09375 
z
" id="CMR17-58"/>
      <path d="M 17.203125 71.59375 
C 17.203125 73.1875 17.203125 75 15.203125 75 
C 13.203125 75 13.203125 72.796875 13.203125 71.296875 
L 13.203125 -21.3125 
C 13.203125 -22.90625 13.203125 -25 15.203125 -25 
C 17.203125 -25 17.203125 -23.203125 17.203125 -21.609375 
z
M 36.703125 71.296875 
C 36.703125 72.890625 36.703125 75 34.703125 75 
C 32.703125 75 32.703125 73.1875 32.703125 71.59375 
L 32.703125 -21.609375 
C 32.703125 -23.203125 32.703125 -25 34.703125 -25 
C 36.703125 -25 36.703125 -22.8125 36.703125 -21.3125 
z
" id="CMSY10-107"/>
      <path d="M 47.40625 41 
C 44.203125 40.390625 43 37.984375 43 36.09375 
C 43 33.6875 44.90625 32.890625 46.296875 32.890625 
C 49.296875 32.890625 51.40625 35.484375 51.40625 38.1875 
C 51.40625 42.09375 46.59375 44 42.40625 44 
C 36.296875 44 32.90625 38.296875 32 36.390625 
C 29.703125 43.59375 23.5 44 21.703125 44 
C 11.5 44 6.09375 31.140625 6.09375 28.890625 
C 6.09375 28.484375 6.5 27.96875 7.203125 27.96875 
C 8 27.96875 8.203125 28.578125 8.40625 28.984375 
C 11.796875 40.1875 18.5 41.984375 21.40625 41.984375 
C 25.90625 41.984375 26.796875 38.09375 26.796875 35.6875 
C 26.796875 33.484375 26.203125 31.140625 25 26.21875 
L 21.59375 12.15625 
C 20.09375 6.09375 17.203125 1 11.90625 1 
C 11.40625 1 8.90625 1 6.796875 1.96875 
C 10.40625 2.59375 11.203125 5.59375 11.203125 6.796875 
C 11.203125 8.796875 9.703125 10 7.796875 10 
C 5.40625 10 2.796875 7.890625 2.796875 4.6875 
C 2.796875 0.890625 7.5 -1 11.796875 -1 
C 16.59375 -1 20 2.390625 22.09375 6.484375 
C 23.703125 1 28.703125 -1 32.40625 -1 
C 42.59375 -1 48 11.734375 48 14 
C 48 14.515625 47.59375 14.921875 47 14.921875 
C 46.09375 14.921875 46 14.40625 45.703125 13.59375 
C 43 4.6875 37.203125 1 32.703125 1 
C 29.203125 1 27.296875 3.1875 27.296875 7.296875 
C 27.296875 9.484375 27.703125 11.125 29.296875 17.90625 
L 32.796875 31.859375 
C 34.296875 37.890625 37.703125 41.984375 42.296875 41.984375 
C 42.5 41.984375 45.296875 41.984375 47.40625 41 
z
" id="CMMI12-120"/>
     </defs>
     <g transform="translate(15.225462 182.035642)rotate(-90)scale(0.1 -0.1)">
      <use transform="translate(0 14.943915)scale(0.996264)" xlink:href="#CMMI12-65"/>
      <use transform="translate(73.127885 14.943915)scale(0.996264)" xlink:href="#CMR17-45"/>
      <use transform="translate(103.203852 14.943915)scale(0.996264)" xlink:href="#CMR17-110"/>
      <use transform="translate(154.099221 14.943915)scale(0.996264)" xlink:href="#CMR17-111"/>
      <use transform="translate(199.789699 14.943915)scale(0.996264)" xlink:href="#CMR17-114"/>
      <use transform="translate(235.070466 14.943915)scale(0.996264)" xlink:href="#CMR17-109"/>
      <use transform="translate(342.066023 14.943915)scale(0.996264)" xlink:href="#CMR17-111"/>
      <use transform="translate(387.7565 14.943915)scale(0.996264)" xlink:href="#CMR17-102"/>
      <use transform="translate(445.305978 14.943915)scale(0.996264)" xlink:href="#CMR17-101"/>
      <use transform="translate(485.791639 14.943915)scale(0.996264)" xlink:href="#CMR17-114"/>
      <use transform="translate(521.072407 14.943915)scale(0.996264)" xlink:href="#CMR17-114"/>
      <use transform="translate(556.353174 14.943915)scale(0.996264)" xlink:href="#CMR17-111"/>
      <use transform="translate(602.043652 14.943915)scale(0.996264)" xlink:href="#CMR17-114"/>
      <use transform="translate(637.324419 14.943915)scale(0.996264)" xlink:href="#CMR17-58"/>
      <use transform="translate(702.681138 14.943915)scale(0.996264)" xlink:href="#CMSY10-107"/>
      <use transform="translate(752.494521 14.943915)scale(0.996264)" xlink:href="#CMMI12-120"/>
      <use transform="translate(830.067788 14.943915)scale(0.996264)" xlink:href="#CMSY10-0"/>
      <use transform="translate(929.694462 14.943915)scale(0.996264)" xlink:href="#CMMI12-120"/>
      <use transform="translate(985.128522 0)scale(0.697382)" xlink:href="#CMMI12-107"/>
      <use transform="translate(1023.481904 14.943915)scale(0.996264)" xlink:href="#CMSY10-107"/>
      <use transform="translate(1073.295287 0)scale(0.697382)" xlink:href="#CMMI12-65"/>
     </g>
    </g>
   </g>
   <g id="line2d_29">
    <path clip-path="url(#pcad5733d3b)" d="M 67.512633 19.982224 
L 67.802779 22.986104 
L 68.383072 25.632262 
L 68.963365 27.306454 
L 70.123951 29.919028 
L 70.704244 30.492261 
L 72.154976 31.449726 
L 73.025416 33.244733 
L 73.605709 34.303257 
L 74.476148 35.353175 
L 75.346587 38.52681 
L 77.377613 42.193813 
L 78.248052 43.080106 
L 79.118491 43.586697 
L 81.149517 44.28712 
L 85.211567 45.134911 
L 86.082006 45.509487 
L 87.242592 46.237531 
L 88.403178 46.774607 
L 90.72435 47.327637 
L 99.428744 48.140451 
L 101.459769 48.33294 
L 104.941526 49.27928 
L 107.262698 50.509208 
L 107.842991 51.011329 
L 108.71343 52.090066 
L 109.293723 52.590898 
L 111.034602 53.646738 
L 112.485334 54.43881 
L 113.64592 54.835696 
L 115.676945 55.437356 
L 116.547385 55.783924 
L 117.70797 56.328657 
L 118.868556 56.709444 
L 120.319289 56.886773 
L 123.220753 57.0238 
L 138.888662 57.23048 
L 179.509166 57.552378 
L 185.021949 58.021804 
L 186.472681 58.367724 
L 188.21356 58.839449 
L 197.2081 60.970429 
L 201.850444 62.359149 
L 205.332201 63.278931 
L 206.782934 64.03265 
L 209.394252 65.651406 
L 209.974545 66.147148 
L 213.166156 69.673879 
L 214.326742 71.103597 
L 215.197181 71.765948 
L 216.93806 72.961767 
L 218.098646 73.886164 
L 219.259231 74.583638 
L 220.709964 75.011804 
L 223.031135 75.530275 
L 231.445383 76.695822 
L 232.605969 77.065278 
L 235.217287 77.544189 
L 237.828605 77.737424 
L 243.631534 77.876064 
L 250.595049 78.055038 
L 256.688125 78.472346 
L 257.848711 78.82104 
L 259.009296 79.429465 
L 262.200907 81.850564 
L 263.071347 82.768643 
L 268.003837 89.023541 
L 268.874276 90.07758 
L 270.034862 91.841247 
L 273.516619 99.253911 
L 276.127938 102.988881 
L 279.899842 110.371143 
L 281.64072 114.39032 
L 283.671745 118.452486 
L 284.542185 119.497356 
L 285.412624 120.515496 
L 286.283064 122.198235 
L 287.153503 123.825684 
L 288.023942 125.286214 
L 290.635261 131.196477 
L 291.795846 133.819671 
L 294.117018 138.117683 
L 295.277604 140.102883 
L 297.598776 144.510193 
L 298.759361 146.086517 
L 299.919947 147.376791 
L 300.790387 148.295304 
L 301.950972 149.794252 
L 303.401705 152.22188 
L 304.562291 154.389006 
L 308.914488 163.387366 
L 312.686391 172.030945 
L 313.556831 173.928795 
L 315.29771 177.463602 
L 319.069614 185.76127 
L 320.230199 187.854337 
L 322.841518 191.85161 
L 324.872543 195.253122 
L 325.452836 196.134612 
L 326.033129 196.702417 
L 326.903568 197.121677 
L 328.064154 197.317311 
L 330.675472 197.411517 
L 362.881729 197.414479 
L 371.876269 197.414479 
L 371.876269 197.414479 
" style="fill:none;stroke:#93a1a1;stroke-dasharray:1.5,2.475;stroke-dashoffset:0;stroke-width:1.5;"/>
   </g>
   <g id="line2d_30">
    <path clip-path="url(#pcad5733d3b)" d="M 67.512633 19.982224 
L 67.802779 22.986104 
L 68.383072 25.632262 
L 68.963365 27.306454 
L 70.123951 29.919028 
L 70.704244 30.492261 
L 72.154976 31.449726 
L 73.025416 33.244733 
L 73.605709 34.303257 
L 74.476148 35.353175 
L 75.346587 38.52681 
L 77.377613 42.193813 
L 78.248052 43.080106 
L 79.118491 43.586697 
L 81.149517 44.28712 
L 85.211567 45.134911 
L 86.082006 45.509487 
L 87.242592 46.237531 
L 88.403178 46.774607 
L 90.72435 47.327637 
L 99.428744 48.138717 
L 101.459769 48.328958 
L 104.65138 49.107207 
L 107.262698 50.445172 
L 107.842991 50.88701 
L 109.293723 52.510087 
L 112.485334 54.373651 
L 114.806506 55.127793 
L 116.837531 55.809182 
L 118.288263 56.445493 
L 119.448849 56.759654 
L 121.189728 56.930482 
L 124.381339 57.038686 
L 141.49998 57.240866 
L 181.830338 57.519995 
L 187.343121 57.915761 
L 189.084 58.179902 
L 192.565757 59.031701 
L 199.819419 60.520576 
L 206.492787 62.427581 
L 209.974545 63.290937 
L 212.00557 64.305883 
L 214.326742 65.681211 
L 215.197181 66.442976 
L 217.228206 68.360094 
L 218.388792 69.729481 
L 219.549378 71.0444 
L 220.419817 71.68791 
L 222.450842 72.974954 
L 223.611428 73.855307 
L 225.062161 74.632382 
L 226.803039 75.091676 
L 229.124211 75.544963 
L 237.538458 76.510429 
L 241.310362 77.420421 
L 243.341388 77.63794 
L 247.403438 77.800863 
L 263.941786 78.280367 
L 265.972811 78.509666 
L 267.133397 78.854724 
L 268.58413 79.585375 
L 272.64618 82.582583 
L 273.516619 83.643761 
L 274.387059 84.668406 
L 276.418084 86.911457 
L 278.158963 88.946228 
L 279.319549 90.239568 
L 280.480134 91.794426 
L 282.51116 95.834675 
L 283.381599 97.692055 
L 284.542185 99.490938 
L 286.863357 102.407514 
L 288.023942 104.323981 
L 291.795846 111.15164 
L 292.666286 113.006088 
L 296.148043 119.053628 
L 297.888922 120.969408 
L 301.950972 128.163132 
L 305.142584 134.663176 
L 311.525806 145.075358 
L 313.556831 147.234756 
L 314.717417 148.30212 
L 316.168149 149.976951 
L 318.199174 153.02038 
L 319.649907 155.598681 
L 321.100639 158.137072 
L 321.971078 159.612533 
L 324.002103 163.53651 
L 325.742982 167.164494 
L 328.934593 173.561717 
L 331.255765 177.670339 
L 332.416351 179.784317 
L 332.996644 180.957394 
L 334.15723 183.634295 
L 337.058694 188.068674 
L 339.379866 190.790347 
L 340.830598 192.502113 
L 342.571477 194.071052 
L 343.441916 194.447302 
L 344.602502 194.641112 
L 347.21382 194.728639 
L 360.850704 194.7336 
L 371.876269 194.73221 
L 371.876269 194.73221 
" style="fill:none;stroke:#93a1a1;stroke-linecap:square;stroke-width:1.5;"/>
    <defs>
     <path d="M 0 3 
C 0.795609 3 1.55874 2.683901 2.12132 2.12132 
C 2.683901 1.55874 3 0.795609 3 0 
C 3 -0.795609 2.683901 -1.55874 2.12132 -2.12132 
C 1.55874 -2.683901 0.795609 -3 0 -3 
C -0.795609 -3 -1.55874 -2.683901 -2.12132 -2.12132 
C -2.683901 -1.55874 -3 -0.795609 -3 0 
C -3 0.795609 -2.683901 1.55874 -2.12132 2.12132 
C -1.55874 2.683901 -0.795609 3 0 3 
z
" id="m30804ef57f" style="stroke:#93a1a1;"/>
    </defs>
    <g clip-path="url(#pcad5733d3b)">
     <use style="fill:#93a1a1;stroke:#93a1a1;" x="67.512633" xlink:href="#m30804ef57f" y="19.982224"/>
     <use style="fill:#93a1a1;stroke:#93a1a1;" x="128.443389" xlink:href="#m30804ef57f" y="57.11864"/>
     <use style="fill:#93a1a1;stroke:#93a1a1;" x="189.374146" xlink:href="#m30804ef57f" y="58.260002"/>
     <use style="fill:#93a1a1;stroke:#93a1a1;" x="250.304903" xlink:href="#m30804ef57f" y="77.859815"/>
     <use style="fill:#93a1a1;stroke:#93a1a1;" x="311.235659" xlink:href="#m30804ef57f" y="144.66155"/>
    </g>
   </g>
   <g id="line2d_31">
    <path clip-path="url(#pcad5733d3b)" d="M 67.512633 19.982224 
L 67.802779 22.986104 
L 68.383072 25.632262 
L 68.963365 27.306454 
L 70.123951 29.919028 
L 70.704244 30.492261 
L 72.154976 31.449726 
L 73.025416 33.244733 
L 73.605709 34.303257 
L 74.476148 35.353175 
L 75.346587 38.52681 
L 77.377613 42.193813 
L 78.248052 43.080106 
L 79.118491 43.586697 
L 81.149517 44.28712 
L 85.211567 45.134911 
L 86.082006 45.509487 
L 87.242592 46.237531 
L 88.403178 46.774607 
L 90.72435 47.327637 
L 99.428744 48.138717 
L 101.459769 48.329838 
L 104.65138 49.107845 
L 107.262698 50.43726 
L 107.842991 50.884101 
L 109.293723 52.510209 
L 112.485334 54.377626 
L 114.806506 55.124825 
L 116.837531 55.803002 
L 117.998117 56.332718 
L 119.448849 56.759627 
L 121.189728 56.930422 
L 124.381339 57.038688 
L 141.209834 57.239694 
L 181.540192 57.508011 
L 186.182535 57.805643 
L 188.793853 58.112858 
L 193.726343 59.292083 
L 197.2081 60.009606 
L 199.529272 60.4438 
L 202.14059 61.231449 
L 207.07308 62.557531 
L 210.264691 63.416646 
L 212.295716 64.465287 
L 214.907035 66.140208 
L 218.678938 70.107186 
L 219.549378 71.05431 
L 220.419817 71.701489 
L 222.450842 72.996328 
L 223.611428 73.857233 
L 224.772014 74.524384 
L 225.642454 74.803166 
L 229.124211 75.546748 
L 237.538458 76.519717 
L 240.439923 77.280771 
L 242.761095 77.59877 
L 246.532999 77.782243 
L 264.231933 78.306056 
L 265.972811 78.519376 
L 267.133397 78.873695 
L 268.58413 79.608604 
L 270.615155 80.998917 
L 271.775741 81.823192 
L 272.64618 82.640333 
L 275.257498 85.667784 
L 276.70823 87.329531 
L 277.868816 88.695289 
L 279.319549 90.292454 
L 280.480134 91.89699 
L 284.252038 99.242641 
L 285.122478 100.348657 
L 287.153503 102.958851 
L 289.184528 106.420798 
L 290.635261 108.904677 
L 291.795846 111.354974 
L 292.666286 113.18523 
L 293.826872 115.397392 
L 295.56775 118.449869 
L 296.43819 119.4174 
L 297.308629 120.288987 
L 297.888922 121.099701 
L 299.629801 124.094573 
L 300.50024 125.480169 
L 302.241119 128.936356 
L 305.722876 135.710867 
L 308.914488 140.895371 
L 310.075073 142.954587 
L 311.815952 145.505457 
L 313.266684 147.078745 
L 315.007563 148.704431 
L 315.878003 149.730989 
L 317.618881 152.253023 
L 319.649907 155.790995 
L 320.810492 157.846924 
L 321.971078 159.822209 
L 323.42181 162.667231 
L 324.582396 164.930898 
L 327.193714 170.18441 
L 330.675472 176.668225 
L 332.996644 180.965513 
L 333.867083 182.795801 
L 335.027669 184.2456 
L 336.188255 185.374884 
L 337.058694 185.955718 
L 339.670012 186.99895 
L 341.410891 187.317335 
L 343.15177 187.451982 
L 349.244845 187.497799 
L 352.14631 187.633856 
L 354.467482 187.809582 
L 360.850704 187.91818 
L 371.876269 187.92578 
L 371.876269 187.92578 
" style="fill:none;stroke:#93a1a1;stroke-linecap:square;stroke-width:1.5;"/>
    <defs>
     <path d="M 0 -3 
L -3 3 
L 3 3 
z
" id="m31ae3bf9cf" style="stroke:#93a1a1;stroke-linejoin:miter;"/>
    </defs>
    <g clip-path="url(#pcad5733d3b)">
     <use style="fill:#93a1a1;stroke:#93a1a1;stroke-linejoin:miter;" x="82.600249" xlink:href="#m31ae3bf9cf" y="44.595212"/>
     <use style="fill:#93a1a1;stroke:#93a1a1;stroke-linejoin:miter;" x="143.531005" xlink:href="#m31ae3bf9cf" y="57.248685"/>
     <use style="fill:#93a1a1;stroke:#93a1a1;stroke-linejoin:miter;" x="204.461762" xlink:href="#m31ae3bf9cf" y="61.900998"/>
     <use style="fill:#93a1a1;stroke:#93a1a1;stroke-linejoin:miter;" x="265.392519" xlink:href="#m31ae3bf9cf" y="78.424024"/>
     <use style="fill:#93a1a1;stroke:#93a1a1;stroke-linejoin:miter;" x="326.323275" xlink:href="#m31ae3bf9cf" y="168.489774"/>
    </g>
   </g>
   <g id="line2d_32">
    <path clip-path="url(#pcad5733d3b)" d="M 67.512633 19.982224 
L 67.802779 22.986104 
L 68.383072 25.632262 
L 68.963365 27.306454 
L 70.123951 29.919028 
L 70.704244 30.492261 
L 72.154976 31.449726 
L 73.025416 33.244733 
L 73.605709 34.303257 
L 74.476148 35.353175 
L 75.346587 38.52681 
L 77.377613 42.193813 
L 78.248052 43.080106 
L 79.118491 43.586697 
L 81.149517 44.28712 
L 85.211567 45.134911 
L 86.082006 45.509487 
L 87.242592 46.237531 
L 88.403178 46.774607 
L 90.72435 47.327637 
L 99.428744 48.138717 
L 101.459769 48.329935 
L 104.65138 49.107685 
L 107.262698 50.435083 
L 107.842991 50.883818 
L 109.293723 52.510088 
L 112.485334 54.373729 
L 114.516359 55.022413 
L 117.417824 56.091771 
L 118.868556 56.642384 
L 120.319289 56.858655 
L 123.5109 57.021894 
L 138.308369 57.221808 
L 183.28107 57.599192 
L 187.633267 57.937681 
L 189.374146 58.229682 
L 192.565757 59.022009 
L 199.819419 60.493242 
L 207.363227 62.606065 
L 210.264691 63.376812 
L 212.585863 64.582105 
L 214.616888 65.826784 
L 215.777474 66.87601 
L 217.808499 68.906132 
L 219.839524 71.234635 
L 221.00011 71.990466 
L 222.160696 72.680353 
L 223.901575 73.974004 
L 225.062161 74.5927 
L 226.222746 74.921822 
L 229.414358 75.567859 
L 237.538458 76.48806 
L 241.890655 77.490542 
L 244.79212 77.718135 
L 249.434463 77.843613 
L 261.910761 78.170459 
L 265.392519 78.402016 
L 266.553104 78.622255 
L 267.71369 79.066361 
L 268.874276 79.708221 
L 272.64618 82.492726 
L 273.806766 83.916936 
L 275.837791 86.133801 
L 276.998377 87.488752 
L 277.868816 88.522283 
L 279.609695 90.459389 
L 280.480134 91.609137 
L 281.64072 93.87928 
L 283.381599 97.477878 
L 284.542185 99.364434 
L 285.412624 100.463149 
L 287.443649 103.048725 
L 289.764821 106.988917 
L 290.925407 108.979108 
L 291.795846 110.819865 
L 292.956432 113.286544 
L 294.987457 117.084007 
L 295.857897 118.52198 
L 296.728336 119.476393 
L 297.598776 120.352599 
L 298.179068 121.200617 
L 299.629801 123.799597 
L 300.210094 124.603086 
L 301.660826 127.356486 
L 302.821412 129.698158 
L 304.272144 132.774587 
L 306.013023 135.853416 
L 308.914488 140.434803 
L 310.655366 143.436994 
L 312.106099 145.532085 
L 313.846977 147.328095 
L 315.007563 148.417569 
L 316.168149 149.735577 
L 317.909028 152.298578 
L 319.649907 155.227749 
L 321.100639 157.853123 
L 321.971078 159.238043 
L 324.002103 163.172506 
L 325.452836 166.155447 
L 329.514886 174.143157 
L 330.675472 176.12986 
L 333.576937 181.778585 
L 334.447376 183.751431 
L 337.348841 188.141114 
L 338.799573 189.766041 
L 340.830598 192.201178 
L 342.571477 193.814372 
L 343.441916 194.293103 
L 344.602502 194.538378 
L 346.343381 194.635473 
L 352.726603 194.663625 
L 371.876269 194.655831 
L 371.876269 194.655831 
" style="fill:none;stroke:#93a1a1;stroke-linecap:square;stroke-width:1.5;"/>
    <defs>
     <path d="M -0 3 
L 3 -3 
L -3 -3 
z
" id="m05af77c2a4" style="stroke:#93a1a1;stroke-linejoin:miter;"/>
    </defs>
    <g clip-path="url(#pcad5733d3b)">
     <use style="fill:#93a1a1;stroke:#93a1a1;stroke-linejoin:miter;" x="97.978011" xlink:href="#m05af77c2a4" y="48.065682"/>
     <use style="fill:#93a1a1;stroke:#93a1a1;stroke-linejoin:miter;" x="158.908768" xlink:href="#m05af77c2a4" y="57.290802"/>
     <use style="fill:#93a1a1;stroke:#93a1a1;stroke-linejoin:miter;" x="219.839524" xlink:href="#m05af77c2a4" y="71.234635"/>
     <use style="fill:#93a1a1;stroke:#93a1a1;stroke-linejoin:miter;" x="280.770281" xlink:href="#m05af77c2a4" y="92.130903"/>
     <use style="fill:#93a1a1;stroke:#93a1a1;stroke-linejoin:miter;" x="341.701037" xlink:href="#m05af77c2a4" y="193.048215"/>
    </g>
   </g>
   <g id="line2d_33">
    <path clip-path="url(#pcad5733d3b)" d="M 67.512633 19.982224 
L 67.802779 22.986104 
L 68.383072 25.632262 
L 68.963365 27.306454 
L 70.123951 29.919028 
L 70.704244 30.492261 
L 72.154976 31.449726 
L 73.025416 33.244733 
L 73.605709 34.303257 
L 74.476148 35.353175 
L 75.346587 38.52681 
L 77.377613 42.193813 
L 78.248052 43.080106 
L 79.118491 43.586697 
L 81.149517 44.28712 
L 85.211567 45.134911 
L 86.082006 45.509487 
L 87.242592 46.237531 
L 88.403178 46.774607 
L 90.72435 47.327637 
L 99.428744 48.138717 
L 101.459769 48.329512 
L 104.65138 49.104081 
L 107.262698 50.432988 
L 107.842991 50.883544 
L 109.293723 52.505137 
L 112.485334 54.371845 
L 114.516359 55.026366 
L 117.417824 56.082893 
L 119.158703 56.706505 
L 120.899582 56.908337 
L 123.801046 57.027774 
L 141.209834 57.239452 
L 181.830338 57.5149 
L 186.762828 57.845497 
L 189.084 58.142555 
L 196.337661 59.818025 
L 200.689858 60.74462 
L 204.171616 61.749198 
L 207.653373 62.647528 
L 210.264691 63.343127 
L 212.295716 64.363904 
L 214.616888 65.749411 
L 215.487327 66.507018 
L 217.518353 68.431515 
L 218.678938 69.803357 
L 219.839524 71.115027 
L 220.709964 71.736023 
L 222.740989 73.054874 
L 223.611428 73.712663 
L 225.062161 74.550585 
L 226.222746 74.889484 
L 229.124211 75.516025 
L 234.056701 76.030964 
L 236.958165 76.343359 
L 238.118751 76.605795 
L 239.85963 77.111609 
L 242.761095 77.575395 
L 245.952706 77.761696 
L 265.682665 78.419569 
L 266.843251 78.661095 
L 268.003837 79.129754 
L 269.164423 79.812911 
L 272.936326 82.588625 
L 277.57867 87.988689 
L 278.739256 89.189033 
L 279.609695 90.184748 
L 280.770281 91.719836 
L 282.801306 95.753004 
L 283.671745 97.561693 
L 284.542185 98.976542 
L 287.443649 102.229234 
L 289.184528 104.493483 
L 290.635261 105.838721 
L 291.795846 106.676749 
L 292.666286 107.094999 
L 293.826872 107.35628 
L 295.857897 107.531549 
L 302.531265 107.595069 
L 313.266684 107.73594 
L 317.909028 107.851617 
L 340.830598 107.865099 
L 356.788653 107.74702 
L 362.591583 107.546579 
L 363.171875 107.230243 
L 363.462022 106.642057 
L 363.752168 99.628659 
L 364.042315 108.153138 
L 364.332461 108.322369 
L 365.202901 108.100436 
L 366.943779 108.008756 
L 371.876269 107.992546 
L 371.876269 107.992546 
" style="fill:none;stroke:#93a1a1;stroke-linecap:square;stroke-width:1.5;"/>
    <defs>
     <path d="M -3 3 
L 3 3 
L 3 -3 
L -3 -3 
z
" id="m2a78d1075c" style="stroke:#93a1a1;stroke-linejoin:miter;"/>
    </defs>
    <g clip-path="url(#pcad5733d3b)">
     <use style="fill:#93a1a1;stroke:#93a1a1;stroke-linejoin:miter;" x="113.065627" xlink:href="#m2a78d1075c" y="54.602474"/>
     <use style="fill:#93a1a1;stroke:#93a1a1;stroke-linejoin:miter;" x="173.996384" xlink:href="#m2a78d1075c" y="57.347769"/>
     <use style="fill:#93a1a1;stroke:#93a1a1;stroke-linejoin:miter;" x="234.92714" xlink:href="#m2a78d1075c" y="76.104734"/>
     <use style="fill:#93a1a1;stroke:#93a1a1;stroke-linejoin:miter;" x="295.857897" xlink:href="#m2a78d1075c" y="107.531549"/>
     <use style="fill:#93a1a1;stroke:#93a1a1;stroke-linejoin:miter;" x="356.788653" xlink:href="#m2a78d1075c" y="107.74702"/>
    </g>
   </g>
   <g id="line2d_34">
    <path clip-path="url(#pcad5733d3b)" d="M 67.512633 19.982224 
L 67.802779 22.986104 
L 68.383072 25.632262 
L 68.963365 27.306454 
L 70.123951 29.919028 
L 70.704244 30.492261 
L 72.154976 31.449726 
L 73.025416 33.244733 
L 73.605709 34.303257 
L 74.476148 35.353175 
L 75.346587 38.52681 
L 77.377613 42.193813 
L 78.248052 43.080106 
L 79.118491 43.586697 
L 81.149517 44.28712 
L 85.211567 45.134911 
L 86.082006 45.509487 
L 87.242592 46.237531 
L 88.403178 46.774607 
L 90.72435 47.327637 
L 99.428744 48.138716 
L 101.459769 48.326176 
L 104.65138 49.102504 
L 107.262698 50.432934 
L 107.842991 50.883538 
L 109.293723 52.507085 
L 112.485334 54.371833 
L 114.516359 55.022179 
L 117.70797 56.208776 
L 119.158703 56.706553 
L 120.899582 56.908359 
L 123.801046 57.027894 
L 140.629541 57.235774 
L 163.841258 57.298609 
L 178.928873 57.435779 
L 183.861363 57.629948 
L 187.923414 57.965439 
L 189.374146 58.226765 
L 192.565757 59.013843 
L 199.819419 60.482264 
L 208.523812 62.843772 
L 209.974545 63.250019 
L 211.425277 63.927024 
L 214.616888 65.801644 
L 215.487327 66.577039 
L 217.228206 68.201975 
L 218.388792 69.53941 
L 219.839524 71.184662 
L 220.709964 71.785099 
L 222.740989 73.115452 
L 223.611428 73.761132 
L 225.062161 74.577208 
L 226.222746 74.905329 
L 229.414358 75.563199 
L 237.538458 76.474659 
L 241.890655 77.483102 
L 244.501973 77.701981 
L 249.434463 77.842457 
L 261.910761 78.168573 
L 265.392519 78.397036 
L 266.843251 78.685647 
L 268.003837 79.171811 
L 269.164423 79.88415 
L 272.065887 81.895194 
L 273.226473 83.077884 
L 275.257498 85.433359 
L 277.288523 87.790896 
L 278.158963 88.746068 
L 279.609695 90.342708 
L 280.770281 91.957107 
L 284.252038 98.852022 
L 285.702771 100.722402 
L 287.733796 103.440311 
L 289.764821 106.892459 
L 290.925407 108.881515 
L 292.085993 111.35101 
L 292.956432 113.16575 
L 296.148043 118.831602 
L 298.179068 121.107957 
L 299.919947 124.128223 
L 300.50024 125.015508 
L 301.950972 127.784741 
L 305.43273 134.783337 
L 312.396245 145.765754 
L 313.846977 147.258547 
L 315.007563 148.317728 
L 316.168149 149.607266 
L 318.199174 152.612297 
L 319.649907 155.105716 
L 321.100639 157.735279 
L 322.261225 159.693197 
L 324.002103 163.028879 
L 325.452836 165.980502 
L 328.3543 171.750455 
L 329.805033 174.462464 
L 330.965618 176.518528 
L 333.867083 182.290776 
L 334.447376 183.589941 
L 337.348841 188.09739 
L 339.379866 190.541256 
L 341.120745 192.770583 
L 342.861623 194.634566 
L 343.441916 195.029825 
L 344.312356 195.330464 
L 345.763088 195.508546 
L 349.244845 195.573679 
L 371.876269 195.629542 
L 371.876269 195.629542 
" style="fill:none;stroke:#073642;stroke-dasharray:1.5,2.475;stroke-dashoffset:0;stroke-width:1.5;"/>
   </g>
   <g id="line2d_35">
    <path clip-path="url(#pcad5733d3b)" d="M 67.512633 19.982224 
L 67.802779 22.986104 
L 68.383072 25.632262 
L 68.963365 27.306454 
L 70.123951 29.919028 
L 70.704244 30.492261 
L 72.154976 31.449726 
L 73.025416 33.244733 
L 73.605709 34.303257 
L 74.476148 35.353175 
L 75.346587 38.52681 
L 77.377613 42.193813 
L 78.248052 43.080106 
L 79.118491 43.586697 
L 81.149517 44.28712 
L 85.211567 45.134911 
L 86.082006 45.509487 
L 87.242592 46.237531 
L 88.403178 46.774607 
L 90.72435 47.327637 
L 99.428744 48.138702 
L 101.459769 48.325419 
L 104.65138 49.096769 
L 107.262698 50.426702 
L 107.842991 50.863943 
L 109.293723 52.487672 
L 112.485334 54.360919 
L 114.806506 55.108922 
L 116.837531 55.784018 
L 117.998117 56.317024 
L 119.158703 56.700415 
L 120.609435 56.880947 
L 123.5109 57.020324 
L 138.598516 57.222883 
L 183.571217 57.599419 
L 187.923414 57.937436 
L 189.664293 58.233532 
L 193.436196 59.131265 
L 197.2081 59.932114 
L 200.689858 60.65788 
L 203.591323 61.527031 
L 210.844984 63.46787 
L 212.876009 64.520662 
L 215.197181 65.948238 
L 217.518353 68.113777 
L 220.709964 71.55189 
L 223.321282 73.271863 
L 224.481868 74.055607 
L 225.642454 74.645949 
L 227.673479 75.163931 
L 229.99465 75.578208 
L 238.118751 76.499967 
L 241.890655 77.410188 
L 243.921681 77.63243 
L 248.273877 77.805099 
L 264.812226 78.286846 
L 266.843251 78.525973 
L 268.003837 78.886416 
L 269.454569 79.628143 
L 271.485594 81.013927 
L 272.64618 81.820569 
L 273.516619 82.618706 
L 277.868816 87.605383 
L 278.739256 88.610192 
L 280.189988 90.183412 
L 281.350574 91.761322 
L 282.221013 93.473365 
L 284.832331 98.626627 
L 285.412624 99.441566 
L 286.57321 100.899235 
L 288.314089 103.165931 
L 290.635261 107.043955 
L 291.795846 109.027529 
L 295.56775 116.226595 
L 296.43819 117.552669 
L 297.308629 118.398723 
L 298.759361 119.479298 
L 300.210094 120.883647 
L 301.080533 121.35479 
L 302.531265 122.000071 
L 303.981998 122.330418 
L 305.722876 122.470703 
L 310.075073 122.524383 
L 338.21928 122.532457 
L 338.21928 122.532457 
" style="fill:none;stroke:#6c71c4;stroke-linecap:square;stroke-width:1.5;"/>
   </g>
   <g id="line2d_36">
    <path clip-path="url(#pcad5733d3b)" d="M 67.512633 19.982224 
L 67.802779 22.986104 
L 68.383072 25.632262 
L 68.963365 27.306454 
L 70.123951 29.919028 
L 70.704244 30.492261 
L 72.154976 31.449726 
L 73.025416 33.244733 
L 73.605709 34.303257 
L 74.476148 35.353175 
L 75.346587 38.52681 
L 77.377613 42.193813 
L 78.248052 43.080106 
L 79.118491 43.586697 
L 81.149517 44.28712 
L 85.211567 45.134911 
L 86.082006 45.509487 
L 87.242592 46.237531 
L 88.403178 46.774607 
L 90.72435 47.327637 
L 99.428744 48.13867 
L 101.459769 48.325125 
L 104.65138 49.088279 
L 107.262698 50.412686 
L 108.133137 51.194984 
L 109.003577 52.206741 
L 109.58387 52.653801 
L 111.034602 53.509805 
L 112.195188 54.212025 
L 113.355774 54.68924 
L 116.837531 55.784746 
L 117.998117 56.320542 
L 119.448849 56.754607 
L 121.189728 56.925896 
L 124.381339 57.036911 
L 143.821152 57.249257 
L 181.830338 57.506119 
L 186.182535 57.771651 
L 189.084 58.092226 
L 190.534732 58.462189 
L 192.565757 58.944339 
L 201.850444 61.009591 
L 206.782934 62.375588 
L 210.554838 63.314411 
L 212.585863 64.33 
L 214.907035 65.70741 
L 215.777474 66.455386 
L 218.098646 68.681227 
L 219.259231 70.087398 
L 220.129671 71.043216 
L 221.00011 71.690122 
L 223.031135 72.976582 
L 224.191721 73.837208 
L 225.352307 74.510137 
L 226.222746 74.796164 
L 229.414358 75.502179 
L 233.766554 75.965163 
L 238.118751 76.48686 
L 242.470948 77.484893 
L 245.082266 77.700841 
L 250.014756 77.842359 
L 262.491054 78.165586 
L 265.972811 78.38396 
L 267.423544 78.647148 
L 268.58413 79.10262 
L 269.744715 79.777073 
L 273.226473 82.25225 
L 274.096912 83.193815 
L 275.547645 84.888146 
L 278.158963 87.893847 
L 279.029402 88.828442 
L 280.189988 90.060021 
L 281.64072 92.099875 
L 284.542185 97.934289 
L 285.412624 99.339905 
L 286.283064 100.439648 
L 288.314089 103.022559 
L 292.666286 110.663437 
L 293.826872 113.107748 
L 297.018483 118.50471 
L 298.179068 119.522033 
L 299.049508 120.496165 
L 300.790387 122.816387 
L 301.950972 123.980508 
L 303.111558 125.046143 
L 303.981998 125.591553 
L 304.852437 125.950454 
L 306.013023 126.201409 
L 307.753902 126.323126 
L 311.525806 126.396552 
L 317.038588 126.555654 
L 324.29225 126.921938 
L 330.675472 127.108107 
L 341.701037 127.128047 
L 371.876269 127.170814 
L 371.876269 127.170814 
" style="fill:none;stroke:#2aa198;stroke-linecap:square;stroke-width:1.5;"/>
   </g>
   <g id="line2d_37">
    <path clip-path="url(#pcad5733d3b)" d="M 67.512633 19.982224 
L 67.802779 22.986104 
L 68.383072 25.632262 
L 68.963365 27.306454 
L 70.123951 29.919028 
L 70.704244 30.492261 
L 72.154976 31.449726 
L 73.025416 33.244733 
L 73.605709 34.303257 
L 74.476148 35.353175 
L 75.346587 38.52681 
L 77.377613 42.193813 
L 78.248052 43.080106 
L 79.118491 43.586697 
L 81.149517 44.28712 
L 85.211567 45.134911 
L 86.082006 45.509487 
L 87.242592 46.237531 
L 88.403178 46.774607 
L 90.72435 47.327637 
L 99.428744 48.138717 
L 101.459769 48.328372 
L 104.65138 49.100706 
L 107.262698 50.433446 
L 107.842991 50.883599 
L 109.293723 52.505838 
L 112.485334 54.371824 
L 114.516359 55.02401 
L 117.417824 56.080215 
L 118.868556 56.639968 
L 120.319289 56.857721 
L 123.220753 57.01493 
L 136.277344 57.209668 
L 183.28107 57.595008 
L 187.923414 57.961031 
L 189.374146 58.215106 
L 192.565757 59.009881 
L 199.819419 60.473726 
L 210.844984 63.612982 
L 214.036595 65.341942 
L 215.197181 66.24731 
L 216.647913 67.594278 
L 217.808499 68.764504 
L 219.839524 71.133658 
L 220.709964 71.746788 
L 222.740989 73.060925 
L 223.611428 73.72276 
L 225.062161 74.553494 
L 226.222746 74.898018 
L 229.124211 75.521245 
L 234.056701 76.033443 
L 236.958165 76.346128 
L 238.118751 76.620978 
L 239.85963 77.119195 
L 242.761095 77.576103 
L 246.242852 77.769757 
L 264.812226 78.327783 
L 266.553104 78.580479 
L 267.71369 78.999145 
L 268.874276 79.623275 
L 271.485594 81.429278 
L 272.64618 82.353792 
L 273.806766 83.726952 
L 274.677205 84.705112 
L 276.998377 87.29116 
L 278.449109 88.949106 
L 279.609695 90.217754 
L 280.770281 91.794102 
L 282.801306 95.834775 
L 283.671745 97.684082 
L 284.832331 99.483774 
L 287.153503 102.35845 
L 288.314089 104.288962 
L 291.5057 109.808804 
L 293.826872 114.684938 
L 296.148043 118.70686 
L 297.018483 119.60391 
L 297.888922 120.512461 
L 298.469215 121.43369 
L 299.629801 123.592557 
L 300.790387 125.297127 
L 301.660826 127.014233 
L 306.303169 136.002549 
L 307.173609 137.491884 
L 308.044048 138.745937 
L 312.396245 145.631189 
L 313.846977 147.174577 
L 315.29771 148.516576 
L 316.168149 149.491576 
L 317.328735 151.120124 
L 318.779467 153.327018 
L 324.29225 163.348777 
L 325.452836 165.710407 
L 326.903568 168.618612 
L 328.3543 171.496634 
L 330.095179 174.720803 
L 331.545911 177.308691 
L 335.027669 183.75364 
L 336.768548 185.867455 
L 337.929133 186.733624 
L 340.830598 188.16421 
L 342.571477 188.584577 
L 344.312356 188.741715 
L 349.534992 189.005859 
L 350.405431 189.210001 
L 350.985724 189.486105 
L 351.566017 189.996714 
L 353.597042 192.512607 
L 354.757628 193.121637 
L 356.20836 193.451045 
L 357.949239 193.697127 
L 361.721143 193.833795 
L 371.876269 193.91121 
L 371.876269 193.91121 
" style="fill:none;stroke:#859900;stroke-dasharray:1.5,2.475;stroke-dashoffset:0;stroke-width:1.5;"/>
   </g>
   <g id="line2d_38">
    <path clip-path="url(#pcad5733d3b)" d="M 67.512633 19.982224 
L 67.802779 22.986104 
L 68.383072 25.632262 
L 68.963365 27.306454 
L 70.123951 29.919028 
L 70.704244 30.492261 
L 72.154976 31.449726 
L 73.025416 33.244733 
L 73.605709 34.303257 
L 74.476148 35.353175 
L 75.346587 38.52681 
L 77.377613 42.193813 
L 78.248052 43.080106 
L 79.118491 43.586697 
L 81.149517 44.28712 
L 85.211567 45.134911 
L 86.082006 45.509487 
L 87.242592 46.237531 
L 88.403178 46.774607 
L 90.72435 47.327637 
L 99.428744 48.138716 
L 101.459769 48.326336 
L 104.65138 49.099145 
L 107.262698 50.432902 
L 107.842991 50.883537 
L 109.293723 52.509284 
L 112.485334 54.370665 
L 114.806506 55.115854 
L 116.837531 55.788189 
L 117.998117 56.32779 
L 119.158703 56.703908 
L 120.899582 56.90829 
L 123.801046 57.027554 
L 140.629541 57.235697 
L 165.001843 57.300957 
L 179.509166 57.444606 
L 184.15151 57.643492 
L 187.633267 57.930779 
L 189.374146 58.208742 
L 192.565757 59.001955 
L 196.047515 59.759172 
L 200.689858 60.734 
L 203.591323 61.594234 
L 210.554838 63.447713 
L 213.166156 64.811095 
L 214.326742 65.50669 
L 215.487327 66.501396 
L 217.228206 68.123163 
L 218.678938 69.799362 
L 219.839524 71.123853 
L 220.709964 71.741953 
L 222.740989 73.050736 
L 223.901575 73.905318 
L 225.352307 74.660007 
L 227.673479 75.231852 
L 229.704504 75.581969 
L 237.538458 76.45037 
L 242.470948 77.538317 
L 245.082266 77.724412 
L 249.72461 77.845333 
L 261.620615 78.152634 
L 265.682665 78.417514 
L 266.843251 78.651977 
L 268.293983 79.263245 
L 269.744715 80.197546 
L 272.64618 82.293705 
L 273.806766 83.629831 
L 274.677205 84.640167 
L 276.70823 86.848301 
L 279.029402 89.444588 
L 279.899842 90.509013 
L 280.770281 91.708702 
L 281.930867 93.995676 
L 283.671745 97.582117 
L 284.832331 99.4288 
L 285.702771 100.528221 
L 287.733796 103.171963 
L 289.184528 105.692169 
L 291.215553 109.105626 
L 295.857897 118.216844 
L 296.728336 119.270056 
L 297.888922 120.44288 
L 298.469215 121.333668 
L 299.629801 123.486018 
L 301.080533 125.706385 
L 302.531265 128.576778 
L 305.43273 134.449931 
L 308.044048 138.646879 
L 309.49478 141.015335 
L 310.945513 143.474897 
L 312.396245 145.570766 
L 313.846977 147.118397 
L 315.007563 148.140334 
L 316.748442 150.181393 
L 319.069614 153.726917 
L 324.29225 163.200339 
L 331.255765 176.657569 
L 333.867083 181.643593 
L 334.737522 183.490812 
L 337.058694 186.579149 
L 337.929133 187.361365 
L 341.120745 189.365104 
L 342.861623 189.875808 
L 344.312356 190.037554 
L 348.08426 190.090948 
L 371.876269 190.089582 
L 371.876269 190.089582 
" style="fill:none;stroke:#073642;stroke-linecap:square;stroke-width:1.5;"/>
   </g>
   <g id="patch_3">
    <path d="M 52.294451 232.46 
L 52.294451 10.7 
" style="fill:none;stroke:#000000;stroke-linecap:square;stroke-linejoin:miter;stroke-width:0.8;"/>
   </g>
   <g id="patch_4">
    <path d="M 387.094451 232.46 
L 387.094451 10.7 
" style="fill:none;stroke:#000000;stroke-linecap:square;stroke-linejoin:miter;stroke-width:0.8;"/>
   </g>
   <g id="patch_5">
    <path d="M 52.294451 232.46 
L 387.094451 232.46 
" style="fill:none;stroke:#000000;stroke-linecap:square;stroke-linejoin:miter;stroke-width:0.8;"/>
   </g>
   <g id="patch_6">
    <path d="M 52.294451 10.7 
L 387.094451 10.7 
" style="fill:none;stroke:#000000;stroke-linecap:square;stroke-linejoin:miter;stroke-width:0.8;"/>
   </g>
   <g id="legend_1">
    <g id="patch_7">
     <path d="M 394.094451 158.071783 
L 485.150183 158.071783 
Q 487.150183 158.071783 487.150183 156.071783 
L 487.150183 17.7 
Q 487.150183 15.7 485.150183 15.7 
L 394.094451 15.7 
Q 392.094451 15.7 392.094451 17.7 
L 392.094451 156.071783 
Q 392.094451 158.071783 394.094451 158.071783 
z
" style="fill:#ffffff;opacity:0.8;stroke:#cccccc;stroke-linejoin:miter;"/>
    </g>
    <g id="line2d_39">
     <path d="M 396.094451 23.2 
L 416.094451 23.2 
" style="fill:none;stroke:#073642;stroke-linecap:square;stroke-width:1.5;"/>
    </g>
    <g id="line2d_40"/>
    <g id="text_17">
     <!-- \textsc{{PPR-CG}} -->
     <defs>
      <path d="M 43 31.390625 
C 55.203125 31.390625 66.90625 39.171875 66.90625 49.4375 
C 66.90625 59.3125 56.296875 68 42.203125 68 
L 5.703125 68 
L 5.703125 64.890625 
L 8.09375 64.890625 
C 15.796875 64.890625 16 63.796875 16 60.203125 
L 16 7.765625 
C 16 4.1875 15.796875 3.09375 8.09375 3.09375 
L 5.703125 3.09375 
L 5.703125 0 
C 9.203125 0.296875 16.59375 0.296875 20.40625 0.296875 
C 24.203125 0.296875 31.703125 0.296875 35.203125 0 
L 35.203125 3.09375 
L 32.796875 3.09375 
C 25.09375 3.09375 24.90625 4.1875 24.90625 7.765625 
L 24.90625 31.390625 
z
M 24.59375 60.90625 
C 24.59375 64.1875 24.796875 64.890625 29.5 64.890625 
L 39.59375 64.890625 
C 56.59375 64.890625 56.59375 53.921875 56.59375 49.4375 
C 56.59375 45.15625 56.59375 34 39.59375 34 
L 24.59375 34 
z
" id="CMCSC10-80"/>
      <path d="M 24.59375 35.1875 
L 24.59375 60.921875 
C 24.59375 63.609375 24.796875 64.5 27.203125 64.796875 
C 28.09375 64.890625 31.203125 64.890625 33.203125 64.890625 
C 41.90625 64.890625 55.09375 64.890625 55.09375 50.09375 
C 55.09375 39.46875 48 35.1875 36.703125 35.1875 
z
M 47 33.890625 
C 59 36.78125 65.40625 43.34375 65.40625 50.09375 
C 65.40625 59.734375 53.203125 68 38.09375 68 
L 5.703125 68 
L 5.703125 64.890625 
L 8.09375 64.890625 
C 15.796875 64.890625 16 63.796875 16 60.21875 
L 16 7.921875 
C 16 4.359375 15.796875 3.265625 8.09375 3.265625 
L 5.703125 3.265625 
L 5.703125 0.1875 
C 9.296875 0.484375 16.40625 0.484375 20.296875 0.484375 
C 24.203125 0.484375 31.296875 0.484375 34.90625 0.1875 
L 34.90625 3.265625 
L 32.5 3.265625 
C 24.796875 3.265625 24.59375 4.359375 24.59375 7.921875 
L 24.59375 33 
L 37.09375 33 
C 42.5 33 45.703125 31.015625 47.40625 29.421875 
C 51.203125 25.75 51.203125 23.28125 51.203125 16.34375 
C 51.203125 9.5 51.203125 5.9375 55.5 2.078125 
C 59.203125 -1.109375 64.796875 -2 68.296875 -2 
C 76.296875 -2 78.203125 6.140625 78.203125 8.90625 
C 78.203125 9.5 78.203125 10.59375 76.90625 10.59375 
C 75.796875 10.59375 75.796875 9.703125 75.703125 9.015625 
C 74.90625 1.28125 70.796875 0.1875 68.703125 0.1875 
C 63.40625 0.1875 62.703125 4.65625 60.90625 16.140625 
C 59.796875 23.078125 59.40625 25.5625 56.203125 28.734375 
C 54.09375 30.90625 50.90625 32.796875 47 33.890625 
z
" id="CMCSC10-82"/>
      <path d="M 30.5 19 
L 30.5 24.796875 
L 2.59375 24.796875 
L 2.59375 19 
z
" id="CMCSC10-45"/>
      <path d="M 63.40625 62.0625 
C 60.09375 65.484375 54 71 43.703125 71 
C 24 71 7.203125 54.9375 7.203125 34.546875 
C 7.203125 14.046875 24 -2 43.796875 -2 
C 60.703125 -2 71.296875 11.640625 71.296875 23.59375 
C 71.296875 24.59375 71.296875 25.296875 70 25.296875 
C 68.90625 25.296875 68.90625 24.703125 68.796875 23.6875 
C 68 9.125 56.296875 1.09375 45.09375 1.09375 
C 36.296875 1.09375 17.5 6.3125 17.5 34.4375 
C 17.5 64.078125 38 67.890625 44.90625 67.890625 
C 55.59375 67.890625 65.796875 59.546875 68.09375 44.078125 
C 68.296875 42.671875 68.40625 42.375 69.703125 42.375 
C 71.296875 42.375 71.296875 42.671875 71.296875 44.78125 
L 71.296875 68.59375 
C 71.296875 70.296875 71.296875 71 70.203125 71 
C 69.796875 71 69.40625 71 68.59375 69.796875 
z
" id="CMCSC10-67"/>
      <path d="M 71.203125 68.59375 
C 71.203125 70.296875 71.203125 71 70.09375 71 
C 69.703125 71 69.296875 71 68.5 69.796875 
L 63.296875 62.125 
C 60.203125 65.109375 54.296875 71 43.703125 71 
C 23.796875 71 7.203125 54.859375 7.203125 34.859375 
C 7.203125 14.578125 23.59375 -2 43.90625 -2 
C 51.796875 -2 60.40625 0.59375 63.90625 6.609375 
C 65.203125 4.359375 69.203125 0.296875 70.296875 0.296875 
C 71.203125 0.296875 71.203125 1.09375 71.203125 2.625 
L 71.203125 20.390625 
C 71.203125 24.890625 72.296875 24.890625 78.5 24.890625 
L 78.5 28 
C 73.703125 27.796875 70.09375 27.6875 65.796875 27.6875 
C 61.703125 27.6875 52.796875 27.6875 49.203125 28 
L 49.203125 24.890625 
L 52.703125 24.890625 
C 62.296875 24.890625 62.296875 23.46875 62.296875 19.984375 
L 62.296875 13.453125 
C 62.296875 1.09375 46.796875 1.09375 45.59375 1.09375 
C 36.5 1.09375 17.5 6.40625 17.5 34.859375 
C 17.5 63.015625 36.703125 67.890625 44.90625 67.890625 
C 55.5 67.890625 65.703125 59.734375 68 44.3125 
C 68.203125 42.921875 68.296875 42.625 69.59375 42.625 
C 71.203125 42.625 71.203125 42.921875 71.203125 45 
z
" id="CMCSC10-71"/>
     </defs>
     <g transform="translate(424.094451 26.7)scale(0.1 -0.1)">
      <use transform="scale(0.996264)" xlink:href="#CMCSC10-80"/>
      <use transform="translate(73.888826 0)scale(0.996264)" xlink:href="#CMCSC10-80"/>
      <use transform="translate(147.777651 0)scale(0.996264)" xlink:href="#CMCSC10-82"/>
      <use transform="translate(227.478027 0)scale(0.996264)" xlink:href="#CMCSC10-45"/>
      <use transform="translate(265.114311 0)scale(0.996264)" xlink:href="#CMCSC10-67"/>
      <use transform="translate(343.431036 0)scale(0.996264)" xlink:href="#CMCSC10-71"/>
     </g>
    </g>
    <g id="line2d_41">
     <path d="M 396.094451 37.137178 
L 416.094451 37.137178 
" style="fill:none;stroke:#859900;stroke-dasharray:1.5,2.475;stroke-dashoffset:0;stroke-width:1.5;"/>
    </g>
    <g id="line2d_42"/>
    <g id="text_18">
     <!-- \textsc{{PPR-M-CG}} -->
     <defs>
      <path d="M 74.40625 65.09375 
L 74.5 64.984375 
L 74.5 7.765625 
C 74.5 4.1875 74.296875 3.09375 66.59375 3.09375 
L 64.203125 3.09375 
L 64.203125 0 
C 67.90625 0.296875 74.703125 0.296875 78.59375 0.296875 
C 82.5 0.296875 89.203125 0.296875 92.90625 0 
L 92.90625 3.09375 
L 90.5 3.09375 
C 82.796875 3.09375 82.59375 4.1875 82.59375 7.765625 
L 82.59375 60.21875 
C 82.59375 63.796875 82.796875 64.890625 90.5 64.890625 
L 92.90625 64.890625 
L 92.90625 68 
L 76 68 
C 73.703125 68 73.40625 68 72.59375 66.09375 
L 49.40625 9.46875 
L 26.203125 66.1875 
C 25.5 68 24.90625 68 22.796875 68 
L 5.90625 68 
L 5.90625 64.890625 
L 8.296875 64.890625 
C 16 64.890625 16.203125 63.796875 16.203125 60.21875 
L 16.203125 10.453125 
C 16.203125 7.765625 16.203125 3.09375 5.90625 3.09375 
L 5.90625 0 
C 9.40625 0.09375 14.296875 0.296875 17.59375 0.296875 
C 20.90625 0.296875 25.796875 0.09375 29.296875 0 
L 29.296875 3.09375 
C 19 3.09375 19 7.765625 19 10.453125 
L 19 64.296875 
L 19.09375 64.390625 
L 44.703125 1.796875 
C 45.09375 0.890625 45.59375 0 46.59375 0 
C 47.59375 0 48.09375 0.890625 48.5 1.796875 
z
" id="CMCSC10-77"/>
     </defs>
     <g transform="translate(424.094451 40.637178)scale(0.1 -0.1)">
      <use transform="scale(0.996264)" xlink:href="#CMCSC10-80"/>
      <use transform="translate(73.888826 0)scale(0.996264)" xlink:href="#CMCSC10-80"/>
      <use transform="translate(147.777651 0)scale(0.996264)" xlink:href="#CMCSC10-82"/>
      <use transform="translate(227.478027 0)scale(0.996264)" xlink:href="#CMCSC10-45"/>
      <use transform="translate(265.114311 0)scale(0.996264)" xlink:href="#CMCSC10-77"/>
      <use transform="translate(363.632776 0)scale(0.996264)" xlink:href="#CMCSC10-45"/>
      <use transform="translate(401.26906 0)scale(0.996264)" xlink:href="#CMCSC10-67"/>
      <use transform="translate(479.585785 0)scale(0.996264)" xlink:href="#CMCSC10-71"/>
     </g>
    </g>
    <g id="line2d_43">
     <path d="M 396.094451 51.074357 
L 416.094451 51.074357 
" style="fill:none;stroke:#2aa198;stroke-linecap:square;stroke-width:1.5;"/>
    </g>
    <g id="line2d_44"/>
    <g id="text_19">
     <!-- \textsc{{PP-CG}} -->
     <g transform="translate(424.094451 54.574357)scale(0.1 -0.1)">
      <use transform="scale(0.996264)" xlink:href="#CMCSC10-80"/>
      <use transform="translate(73.888826 0)scale(0.996264)" xlink:href="#CMCSC10-80"/>
      <use transform="translate(147.777651 0)scale(0.996264)" xlink:href="#CMCSC10-45"/>
      <use transform="translate(185.413935 0)scale(0.996264)" xlink:href="#CMCSC10-67"/>
      <use transform="translate(263.73066 0)scale(0.996264)" xlink:href="#CMCSC10-71"/>
     </g>
    </g>
    <g id="line2d_45">
     <path d="M 396.094451 65.011535 
L 416.094451 65.011535 
" style="fill:none;stroke:#6c71c4;stroke-linecap:square;stroke-width:1.5;"/>
    </g>
    <g id="line2d_46"/>
    <g id="text_20">
     <!-- \textsc{{P-M-CG}} -->
     <g transform="translate(424.094451 68.511535)scale(0.1 -0.1)">
      <use transform="scale(0.996264)" xlink:href="#CMCSC10-80"/>
      <use transform="translate(73.888826 0)scale(0.996264)" xlink:href="#CMCSC10-45"/>
      <use transform="translate(111.52511 0)scale(0.996264)" xlink:href="#CMCSC10-77"/>
      <use transform="translate(210.043574 0)scale(0.996264)" xlink:href="#CMCSC10-45"/>
      <use transform="translate(247.679858 0)scale(0.996264)" xlink:href="#CMCSC10-67"/>
      <use transform="translate(325.996583 0)scale(0.996264)" xlink:href="#CMCSC10-71"/>
     </g>
    </g>
    <g id="line2d_47">
     <path d="M 396.094451 78.948713 
L 416.094451 78.948713 
" style="fill:none;stroke:#073642;stroke-dasharray:1.5,2.475;stroke-dashoffset:0;stroke-width:1.5;"/>
    </g>
    <g id="line2d_48"/>
    <g id="text_21">
     <!-- \textsc{{PR-CG}} -->
     <g transform="translate(424.094451 82.448713)scale(0.1 -0.1)">
      <use transform="scale(0.996264)" xlink:href="#CMCSC10-80"/>
      <use transform="translate(73.888826 0)scale(0.996264)" xlink:href="#CMCSC10-82"/>
      <use transform="translate(153.589202 0)scale(0.996264)" xlink:href="#CMCSC10-45"/>
      <use transform="translate(191.225486 0)scale(0.996264)" xlink:href="#CMCSC10-67"/>
      <use transform="translate(269.54221 0)scale(0.996264)" xlink:href="#CMCSC10-71"/>
     </g>
    </g>
    <g id="line2d_49">
     <path d="M 396.094451 92.885892 
L 416.094451 92.885892 
" style="fill:none;stroke:#93a1a1;stroke-linecap:square;stroke-width:1.5;"/>
    </g>
    <g id="line2d_50">
     <g>
      <use style="fill:#93a1a1;stroke:#93a1a1;stroke-linejoin:miter;" x="406.094451" xlink:href="#m2a78d1075c" y="92.885892"/>
     </g>
    </g>
    <g id="text_22">
     <!-- \textsc{GV-CG} -->
     <defs>
      <path d="M 22.90625 60.328125 
C 22.703125 60.71875 22.40625 61.609375 22.40625 62.015625 
C 22.40625 64.890625 27.703125 64.890625 30.5 64.890625 
L 30.5 68 
C 27 67.6875 19.90625 67.6875 16.09375 67.6875 
C 11.296875 67.6875 7 67.890625 3.40625 68 
L 3.40625 64.890625 
C 11.09375 64.890625 11.90625 64.484375 13.296875 61.125 
L 38.203125 0 
C 38.796875 -1.40625 39 -2 40.59375 -2 
C 42.296875 -2 42.5 -1.5 43.09375 0 
L 66.796875 58.4375 
C 69.40625 64.890625 76 64.890625 77.90625 64.890625 
L 77.90625 68 
C 74.796875 67.796875 70.796875 67.6875 68.203125 67.6875 
C 65.203125 67.6875 59.40625 67.890625 56.796875 68 
L 56.796875 64.890625 
C 62.5 64.78125 63.90625 61.8125 63.90625 60.03125 
C 63.90625 59.53125 63.90625 59.328125 63.296875 58.046875 
L 43.59375 9.421875 
z
" id="CMCSC10-86"/>
     </defs>
     <g transform="translate(424.094451 96.385892)scale(0.1 -0.1)">
      <use transform="scale(0.996264)" xlink:href="#CMCSC10-71"/>
      <use transform="translate(84.820047 0)scale(0.996264)" xlink:href="#CMCSC10-86"/>
      <use transform="translate(165.904074 0)scale(0.996264)" xlink:href="#CMCSC10-45"/>
      <use transform="translate(203.540358 0)scale(0.996264)" xlink:href="#CMCSC10-67"/>
      <use transform="translate(281.857083 0)scale(0.996264)" xlink:href="#CMCSC10-71"/>
     </g>
    </g>
    <g id="line2d_51">
     <path d="M 396.094451 106.82307 
L 416.094451 106.82307 
" style="fill:none;stroke:#93a1a1;stroke-linecap:square;stroke-width:1.5;"/>
    </g>
    <g id="line2d_52">
     <g>
      <use style="fill:#93a1a1;stroke:#93a1a1;stroke-linejoin:miter;" x="406.094451" xlink:href="#m05af77c2a4" y="106.82307"/>
     </g>
    </g>
    <g id="text_23">
     <!-- \textsc{M-CG} -->
     <g transform="translate(424.094451 110.32307)scale(0.1 -0.1)">
      <use transform="scale(0.996264)" xlink:href="#CMCSC10-77"/>
      <use transform="translate(98.518465 0)scale(0.996264)" xlink:href="#CMCSC10-45"/>
      <use transform="translate(136.154749 0)scale(0.996264)" xlink:href="#CMCSC10-67"/>
      <use transform="translate(214.471474 0)scale(0.996264)" xlink:href="#CMCSC10-71"/>
     </g>
    </g>
    <g id="line2d_53">
     <path d="M 396.094451 120.760248 
L 416.094451 120.760248 
" style="fill:none;stroke:#93a1a1;stroke-linecap:square;stroke-width:1.5;"/>
    </g>
    <g id="line2d_54">
     <g>
      <use style="fill:#93a1a1;stroke:#93a1a1;stroke-linejoin:miter;" x="406.094451" xlink:href="#m31ae3bf9cf" y="120.760248"/>
     </g>
    </g>
    <g id="text_24">
     <!-- \textsc{CG-CG} -->
     <g transform="translate(424.094451 124.260248)scale(0.1 -0.1)">
      <use transform="scale(0.996264)" xlink:href="#CMCSC10-67"/>
      <use transform="translate(78.316725 0)scale(0.996264)" xlink:href="#CMCSC10-71"/>
      <use transform="translate(163.136772 0)scale(0.996264)" xlink:href="#CMCSC10-45"/>
      <use transform="translate(200.773056 0)scale(0.996264)" xlink:href="#CMCSC10-67"/>
      <use transform="translate(279.089781 0)scale(0.996264)" xlink:href="#CMCSC10-71"/>
     </g>
    </g>
    <g id="line2d_55">
     <path d="M 396.094451 134.697427 
L 416.094451 134.697427 
" style="fill:none;stroke:#93a1a1;stroke-linecap:square;stroke-width:1.5;"/>
    </g>
    <g id="line2d_56">
     <g>
      <use style="fill:#93a1a1;stroke:#93a1a1;" x="406.094451" xlink:href="#m30804ef57f" y="134.697427"/>
     </g>
    </g>
    <g id="text_25">
     <!-- \textsc{HS-CG} -->
     <defs>
      <path d="M 56.59375 37 
L 24.703125 37 
L 24.703125 60.21875 
C 24.703125 63.796875 24.90625 64.890625 32.59375 64.890625 
L 35 64.890625 
L 35 68 
C 31.5 67.6875 24.09375 67.6875 20.296875 67.6875 
C 16.5 67.6875 9 67.6875 5.5 68 
L 5.5 64.890625 
L 7.90625 64.890625 
C 15.59375 64.890625 15.796875 63.796875 15.796875 60.21875 
L 15.796875 7.78125 
C 15.796875 4.1875 15.59375 3.09375 7.90625 3.09375 
L 5.5 3.09375 
L 5.5 0 
C 9 0.296875 16.40625 0.296875 20.203125 0.296875 
C 24 0.296875 31.5 0.296875 35 0 
L 35 3.09375 
L 32.59375 3.09375 
C 24.90625 3.09375 24.703125 4.1875 24.703125 7.78125 
L 24.703125 33.890625 
L 56.59375 33.890625 
L 56.59375 7.78125 
C 56.59375 4.1875 56.40625 3.09375 48.703125 3.09375 
L 46.296875 3.09375 
L 46.296875 0 
C 49.796875 0.296875 57.203125 0.296875 61 0.296875 
C 64.796875 0.296875 72.296875 0.296875 75.796875 0 
L 75.796875 3.09375 
L 73.40625 3.09375 
C 65.703125 3.09375 65.5 4.1875 65.5 7.78125 
L 65.5 60.21875 
C 65.5 63.796875 65.703125 64.890625 73.40625 64.890625 
L 75.796875 64.890625 
L 75.796875 68 
C 72.296875 67.6875 64.90625 67.6875 61.09375 67.6875 
C 57.296875 67.6875 49.796875 67.6875 46.296875 68 
L 46.296875 64.890625 
L 48.703125 64.890625 
C 56.40625 64.890625 56.59375 63.796875 56.59375 60.21875 
z
" id="CMCSC10-72"/>
      <path d="M 24.40625 42.375 
C 15.703125 44.484375 13.59375 51.421875 13.59375 55.03125 
C 13.59375 61.859375 19.296875 68.1875 27.796875 68.1875 
C 41.59375 68.1875 46.90625 58.046875 48.296875 47.796875 
C 48.5 46.5 48.5 46 49.59375 46 
C 50.90625 46 50.90625 46.5 50.90625 48.40625 
L 50.90625 68.59375 
C 50.90625 70.296875 50.90625 71 49.796875 71 
C 49.09375 71 49.09375 70.890625 48.296875 69.6875 
L 44.59375 63.765625 
C 41.90625 66.484375 37.296875 71 27.703125 71 
C 16.09375 71 7.203125 62.171875 7.203125 51.515625 
C 7.203125 45.09375 10.59375 40.5625 11.90625 39.0625 
C 16.59375 34.140625 19.59375 33.4375 27.90625 31.421875 
C 29.5 31.03125 31.203125 30.71875 32.796875 30.328125 
C 38.703125 28.921875 40.703125 28.421875 43.796875 25 
C 44.40625 24.296875 47.40625 20.875 47.40625 15.453125 
C 47.40625 8.328125 42.09375 1.09375 33 1.09375 
C 28.796875 1.09375 22.09375 1.890625 16.59375 6.21875 
C 10.09375 11.34375 9.796875 18.671875 9.703125 22.09375 
C 9.59375 22.796875 9 22.984375 8.5 22.984375 
C 7.203125 22.984375 7.203125 22.28125 7.203125 20.484375 
L 7.203125 0.390625 
C 7.203125 -1.3125 7.203125 -2 8.296875 -2 
C 9 -2 9.203125 -1.703125 9.796875 -0.8125 
L 13.5 5.203125 
C 16.296875 2.296875 22.796875 -2 33.09375 -2 
C 45.59375 -2 53.796875 8.125 53.796875 18.765625 
C 53.796875 26.8125 49 36.34375 38 39.0625 
z
" id="CMCSC10-83"/>
     </defs>
     <g transform="translate(424.094451 138.197427)scale(0.1 -0.1)">
      <use transform="scale(0.996264)" xlink:href="#CMCSC10-72"/>
      <use transform="translate(81.084027 0)scale(0.996264)" xlink:href="#CMCSC10-83"/>
      <use transform="translate(141.966208 0)scale(0.996264)" xlink:href="#CMCSC10-45"/>
      <use transform="translate(179.602492 0)scale(0.996264)" xlink:href="#CMCSC10-67"/>
      <use transform="translate(257.919217 0)scale(0.996264)" xlink:href="#CMCSC10-71"/>
     </g>
    </g>
    <g id="line2d_57">
     <path d="M 396.094451 148.634605 
L 416.094451 148.634605 
" style="fill:none;stroke:#93a1a1;stroke-dasharray:1.5,2.475;stroke-dashoffset:0;stroke-width:1.5;"/>
    </g>
    <g id="line2d_58"/>
    <g id="text_26">
     <!-- \textsc{EXACT-CG} -->
     <defs>
      <path d="M 64.09375 67.6875 
L 5.5 67.6875 
L 5.5 64.59375 
L 7.90625 64.59375 
C 15.59375 64.59375 15.796875 63.515625 15.796875 59.953125 
L 15.796875 7.8125 
C 15.796875 4.203125 15.59375 3.09375 7.90625 3.09375 
L 5.5 3.09375 
L 5.5 0 
L 65.59375 0 
L 69.796875 25.859375 
L 67.296875 25.859375 
C 64.796875 10.515625 62.40625 3.09375 44.703125 3.09375 
L 29.59375 3.09375 
C 24.90625 3.09375 24.703125 3.796875 24.703125 7.109375 
L 24.703125 33.890625 
L 34.5 33.890625 
C 44.40625 33.890625 45.796875 30.890625 45.796875 22.15625 
L 48.296875 22.15625 
L 48.296875 48.53125 
L 45.796875 48.53125 
C 45.796875 39.953125 44.40625 37 34.5 37 
L 24.703125 37 
L 24.703125 60.65625 
C 24.703125 63.90625 24.90625 64.59375 29.59375 64.59375 
L 43.90625 64.59375 
C 59.59375 64.59375 62.796875 59.5625 64.40625 45.46875 
L 66.90625 45.46875 
z
" id="CMCSC10-69"/>
      <path d="M 58.203125 58.625 
C 62.703125 64.890625 71 64.890625 73 64.890625 
L 73 68 
C 69.40625 67.890625 65.203125 67.6875 61.90625 67.6875 
C 58.203125 67.6875 52.703125 67.6875 49.09375 68 
L 49.09375 64.890625 
C 53.296875 64.796875 55 62.40625 55 60.515625 
C 55 60.015625 55 59.3125 53.90625 57.828125 
L 41.59375 40.90625 
L 27.5 60.515625 
C 26.796875 61.40625 26.796875 61.90625 26.796875 62 
C 26.796875 63.296875 29.296875 64.890625 33.09375 64.890625 
L 33.09375 68 
C 29.5 67.6875 22.203125 67.6875 18.296875 67.6875 
C 14.09375 67.6875 9.5 67.796875 5.296875 68 
L 5.296875 64.890625 
L 7.203125 64.890625 
C 13.40625 64.890625 14.90625 64 16.703125 61.40625 
L 36.40625 33.84375 
L 18.796875 9.46875 
C 14.296875 3.1875 6.40625 3.09375 3.90625 3.09375 
L 3.90625 0 
C 7.5 0.09375 11.703125 0.296875 15 0.296875 
C 19 0.296875 23.796875 0.296875 27.796875 0 
L 27.796875 3.09375 
C 23.296875 3.296875 21.90625 5.875 21.90625 7.46875 
C 21.90625 8.359375 22.203125 8.96875 22.90625 9.953125 
L 38.296875 31.15625 
L 55.09375 7.46875 
C 55.90625 6.375 55.90625 6.171875 55.90625 5.984375 
C 55.90625 5.078125 54.203125 3.1875 49.703125 3.09375 
L 49.703125 0 
C 53.203125 0.296875 60.59375 0.296875 64.40625 0.296875 
C 67.5 0.296875 73.703125 0.1875 77.40625 0 
L 77.40625 3.09375 
L 75.5 3.09375 
C 70.5 3.09375 68.203125 3.484375 65.90625 6.671875 
L 43.5 38.21875 
z
" id="CMCSC10-88"/>
      <path d="M 43.09375 69.796875 
C 42.40625 71.59375 42.296875 72 40.59375 72 
C 39 72 38.796875 71.390625 38.296875 70.09375 
L 16.203125 9.953125 
C 15.296875 7.671875 13.703125 3.1875 4.796875 3.09375 
L 4.796875 0 
C 6.90625 0.09375 10.90625 0.296875 14.90625 0.296875 
C 19.09375 0.296875 24.796875 0.09375 26.5 0 
L 26.5 3.09375 
C 21.40625 3.09375 19.09375 5.671875 19.09375 8.0625 
C 19.09375 8.671875 19.09375 8.859375 19.59375 10.0625 
L 24.40625 23 
L 51 23 
L 56.703125 7.765625 
C 57.203125 6.46875 57.203125 6.28125 57.203125 5.984375 
C 57.203125 3.09375 51.59375 3.09375 49 3.09375 
L 49 0 
C 52.59375 0.296875 59.59375 0.296875 63.40625 0.296875 
C 67.703125 0.296875 72.296875 0.1875 76.5 0 
L 76.5 3.09375 
L 74.703125 3.09375 
C 68.296875 3.09375 67.296875 3.984375 66.296875 6.78125 
z
M 49.90625 26.09375 
L 25.5 26.09375 
L 37.703125 59.46875 
z
" id="CMCSC10-65"/>
      <path d="M 71.40625 67.390625 
L 7.09375 67.390625 
L 5.203125 44.984375 
L 7.703125 44.984375 
C 9.09375 61.703125 11.09375 64.296875 26.796875 64.296875 
C 28.703125 64.296875 31.59375 64.296875 32.59375 64.09375 
C 34.796875 63.796875 34.796875 62.609375 34.796875 60.3125 
L 34.796875 7.875 
C 34.796875 4.484375 34.796875 3.09375 24.296875 3.09375 
L 20.296875 3.09375 
L 20.296875 0 
C 24.40625 0.296875 34.59375 0.296875 39.203125 0.296875 
C 43.796875 0.296875 54.09375 0.296875 58.203125 0 
L 58.203125 3.09375 
L 54.203125 3.09375 
C 43.703125 3.09375 43.703125 4.484375 43.703125 7.875 
L 43.703125 60.3125 
C 43.703125 62.609375 43.703125 63.796875 45.90625 64.09375 
C 46.90625 64.296875 49.796875 64.296875 51.703125 64.296875 
C 67.296875 64.296875 69.40625 61.703125 70.796875 44.984375 
L 73.296875 44.984375 
z
" id="CMCSC10-84"/>
     </defs>
     <g transform="translate(424.094451 152.134605)scale(0.1 -0.1)">
      <use transform="scale(0.996264)" xlink:href="#CMCSC10-69"/>
      <use transform="translate(73.888826 0)scale(0.996264)" xlink:href="#CMCSC10-88"/>
      <use transform="translate(154.972853 0)scale(0.996264)" xlink:href="#CMCSC10-65"/>
      <use transform="translate(233.151059 0)scale(0.996264)" xlink:href="#CMCSC10-67"/>
      <use transform="translate(311.467784 0)scale(0.996264)" xlink:href="#CMCSC10-84"/>
      <use transform="translate(389.784509 0)scale(0.996264)" xlink:href="#CMCSC10-45"/>
      <use transform="translate(427.420793 0)scale(0.996264)" xlink:href="#CMCSC10-67"/>
      <use transform="translate(505.737518 0)scale(0.996264)" xlink:href="#CMCSC10-71"/>
     </g>
    </g>
   </g>
  </g>
 </g>
 <defs>
  <clipPath id="pcad5733d3b">
   <rect height="221.76" width="334.8" x="52.294451" y="10.7"/>
  </clipPath>
 </defs>
</svg>
