<?xml version="1.0" encoding="utf-8" standalone="no"?>
<!DOCTYPE svg PUBLIC "-//W3C//DTD SVG 1.1//EN"
  "http://www.w3.org/Graphics/SVG/1.1/DTD/svg11.dtd">
<!-- Created with matplotlib (https://matplotlib.org/) -->
<svg height="268.371353pt" version="1.1" viewBox="0 0 397.794451 268.371353" width="397.794451pt" xmlns="http://www.w3.org/2000/svg" xmlns:xlink="http://www.w3.org/1999/xlink">
 <defs>
  <style type="text/css">
*{stroke-linecap:butt;stroke-linejoin:round;}
  </style>
 </defs>
 <g id="figure_1">
  <g id="patch_1">
   <path d="M -0 268.371353 
L 397.794451 268.371353 
L 397.794451 0 
L -0 0 
z
" style="fill:#ffffff;"/>
  </g>
  <g id="axes_1">
   <g id="patch_2">
    <path d="M 52.294451 232.46 
L 387.094451 232.46 
L 387.094451 10.7 
L 52.294451 10.7 
z
" style="fill:#ffffff;"/>
   </g>
   <g id="matplotlib.axis_1">
    <g id="xtick_1">
     <g id="line2d_1">
      <path clip-path="url(#pe1c2e21cdb)" d="M 67.512633 232.46 
L 67.512633 10.7 
" style="fill:none;stroke:#b0b0b0;stroke-dasharray:0.8,1.32;stroke-dashoffset:0;stroke-width:0.8;"/>
     </g>
     <g id="line2d_2">
      <defs>
       <path d="M 0 0 
L 0 3.5 
" id="mdb10480bb5" style="stroke:#000000;stroke-width:0.8;"/>
      </defs>
      <g>
       <use style="stroke:#000000;stroke-width:0.8;" x="67.512633" xlink:href="#mdb10480bb5" y="232.46"/>
      </g>
     </g>
     <g id="text_1">
      <!-- $0$ -->
      <defs>
       <path d="M 42 31.84375 
C 42 37.96875 41.90625 48.421875 37.703125 56.453125 
C 34 63.484375 28.09375 66 22.90625 66 
C 18.09375 66 12 63.78125 8.203125 56.5625 
C 4.203125 49.015625 3.796875 39.671875 3.796875 31.84375 
C 3.796875 26.109375 3.90625 17.375 7 9.734375 
C 11.296875 -0.609375 19 -2 22.90625 -2 
C 27.5 -2 34.5 -0.109375 38.59375 9.4375 
C 41.59375 16.375 42 24.5 42 31.84375 
z
M 22.90625 -0.40625 
C 16.5 -0.40625 12.703125 5.125 11.296875 12.75 
C 10.203125 18.6875 10.203125 27.328125 10.203125 32.953125 
C 10.203125 40.6875 10.203125 47.109375 11.5 53.234375 
C 13.40625 61.78125 19 64.390625 22.90625 64.390625 
C 27 64.390625 32.296875 61.671875 34.203125 53.4375 
C 35.5 47.71875 35.59375 40.984375 35.59375 32.953125 
C 35.59375 26.421875 35.59375 18.375 34.40625 12.453125 
C 32.296875 1.5 26.40625 -0.40625 22.90625 -0.40625 
z
" id="CMR17-48"/>
      </defs>
      <g transform="translate(65.021965 246.378498)scale(0.1 -0.1)">
       <use transform="scale(0.996264)" xlink:href="#CMR17-48"/>
      </g>
     </g>
    </g>
    <g id="xtick_2">
     <g id="line2d_3">
      <path clip-path="url(#pe1c2e21cdb)" d="M 108.135074 232.46 
L 108.135074 10.7 
" style="fill:none;stroke:#b0b0b0;stroke-dasharray:0.8,1.32;stroke-dashoffset:0;stroke-width:0.8;"/>
     </g>
     <g id="line2d_4">
      <g>
       <use style="stroke:#000000;stroke-width:0.8;" x="108.135074" xlink:href="#mdb10480bb5" y="232.46"/>
      </g>
     </g>
     <g id="text_2">
      <!-- $10000$ -->
      <defs>
       <path d="M 26.59375 63.796875 
C 26.59375 65.890625 26.5 66 25.09375 66 
C 21.203125 61.359375 15.296875 59.890625 9.703125 59.6875 
C 9.40625 59.6875 8.90625 59.6875 8.796875 59.5 
C 8.703125 59.296875 8.703125 59.09375 8.703125 57 
C 11.796875 57 17 57.59375 21 59.984375 
L 21 7.296875 
C 21 3.796875 20.796875 2.59375 12.203125 2.59375 
L 9.203125 2.59375 
L 9.203125 0 
C 14 0.09375 19 0.1875 23.796875 0.1875 
C 28.59375 0.1875 33.59375 0.09375 38.40625 0 
L 38.40625 2.59375 
L 35.40625 2.59375 
C 26.796875 2.59375 26.59375 3.6875 26.59375 7.296875 
z
" id="CMR17-49"/>
      </defs>
      <g transform="translate(95.681735 246.378498)scale(0.1 -0.1)">
       <use transform="scale(0.996264)" xlink:href="#CMR17-49"/>
       <use transform="translate(45.690477 0)scale(0.996264)" xlink:href="#CMR17-48"/>
       <use transform="translate(91.380954 0)scale(0.996264)" xlink:href="#CMR17-48"/>
       <use transform="translate(137.071431 0)scale(0.996264)" xlink:href="#CMR17-48"/>
       <use transform="translate(182.761908 0)scale(0.996264)" xlink:href="#CMR17-48"/>
      </g>
     </g>
    </g>
    <g id="xtick_3">
     <g id="line2d_5">
      <path clip-path="url(#pe1c2e21cdb)" d="M 148.757514 232.46 
L 148.757514 10.7 
" style="fill:none;stroke:#b0b0b0;stroke-dasharray:0.8,1.32;stroke-dashoffset:0;stroke-width:0.8;"/>
     </g>
     <g id="line2d_6">
      <g>
       <use style="stroke:#000000;stroke-width:0.8;" x="148.757514" xlink:href="#mdb10480bb5" y="232.46"/>
      </g>
     </g>
     <g id="text_3">
      <!-- $20000$ -->
      <defs>
       <path d="M 41.703125 15.46875 
L 39.90625 15.46875 
C 38.90625 8.390625 38.09375 7.1875 37.703125 6.59375 
C 37.203125 5.796875 30 5.796875 28.59375 5.796875 
L 9.40625 5.796875 
C 13 9.6875 20 16.765625 28.5 24.9375 
C 34.59375 30.71875 41.703125 37.5 41.703125 47.390625 
C 41.703125 59.1875 32.296875 66 21.796875 66 
C 10.796875 66 4.09375 56.296875 4.09375 47.296875 
C 4.09375 43.390625 7 42.890625 8.203125 42.890625 
C 9.203125 42.890625 12.203125 43.484375 12.203125 46.984375 
C 12.203125 50.09375 9.59375 51 8.203125 51 
C 7.59375 51 7 50.890625 6.59375 50.6875 
C 8.5 59.1875 14.296875 63.390625 20.40625 63.390625 
C 29.09375 63.390625 34.796875 56.5 34.796875 47.390625 
C 34.796875 38.703125 29.703125 31.21875 24 24.734375 
L 4.09375 2.296875 
L 4.09375 0 
L 39.296875 0 
z
" id="CMR17-50"/>
      </defs>
      <g transform="translate(136.304176 246.378498)scale(0.1 -0.1)">
       <use transform="scale(0.996264)" xlink:href="#CMR17-50"/>
       <use transform="translate(45.690477 0)scale(0.996264)" xlink:href="#CMR17-48"/>
       <use transform="translate(91.380954 0)scale(0.996264)" xlink:href="#CMR17-48"/>
       <use transform="translate(137.071431 0)scale(0.996264)" xlink:href="#CMR17-48"/>
       <use transform="translate(182.761908 0)scale(0.996264)" xlink:href="#CMR17-48"/>
      </g>
     </g>
    </g>
    <g id="xtick_4">
     <g id="line2d_7">
      <path clip-path="url(#pe1c2e21cdb)" d="M 189.379955 232.46 
L 189.379955 10.7 
" style="fill:none;stroke:#b0b0b0;stroke-dasharray:0.8,1.32;stroke-dashoffset:0;stroke-width:0.8;"/>
     </g>
     <g id="line2d_8">
      <g>
       <use style="stroke:#000000;stroke-width:0.8;" x="189.379955" xlink:href="#mdb10480bb5" y="232.46"/>
      </g>
     </g>
     <g id="text_4">
      <!-- $30000$ -->
      <defs>
       <path d="M 22.09375 34 
C 31 34 34.90625 26.140625 34.90625 17.09375 
C 34.90625 5.03125 28.5 0.390625 22.703125 0.390625 
C 17.40625 0.390625 8.796875 3.015625 6.09375 10.796875 
C 6.59375 10.59375 7.09375 10.59375 7.59375 10.59375 
C 10 10.59375 11.796875 12.1875 11.796875 14.796875 
C 11.796875 17.6875 9.59375 19 7.59375 19 
C 5.90625 19 3.296875 18.1875 3.296875 14.484375 
C 3.296875 5.234375 12.296875 -2 22.90625 -2 
C 34 -2 42.5 6.75 42.5 16.984375 
C 42.5 26.84375 34.5 34 25 35.09375 
C 32.59375 36.671875 39.90625 43.375 39.90625 52.390625 
C 39.90625 60.25 32 66 23 66 
C 13.90625 66 5.90625 60.34375 5.90625 52.296875 
C 5.90625 48.796875 8.5 48.1875 9.796875 48.1875 
C 11.90625 48.1875 13.703125 49.484375 13.703125 52.09375 
C 13.703125 54.6875 11.90625 56 9.796875 56 
C 9.40625 56 8.90625 56 8.5 55.796875 
C 11.40625 62.484375 19.296875 63.6875 22.796875 63.6875 
C 26.296875 63.6875 32.90625 61.96875 32.90625 52.296875 
C 32.90625 49.484375 32.5 44.546875 29.09375 40.21875 
C 26.09375 36.390625 22.703125 36.1875 19.40625 35.890625 
C 18.90625 35.890625 16.59375 35.6875 16.203125 35.6875 
C 15.5 35.59375 15.09375 35.5 15.09375 34.796875 
C 15.09375 34.09375 15.203125 34 17.203125 34 
z
" id="CMR17-51"/>
      </defs>
      <g transform="translate(176.926617 246.378498)scale(0.1 -0.1)">
       <use transform="scale(0.996264)" xlink:href="#CMR17-51"/>
       <use transform="translate(45.690477 0)scale(0.996264)" xlink:href="#CMR17-48"/>
       <use transform="translate(91.380954 0)scale(0.996264)" xlink:href="#CMR17-48"/>
       <use transform="translate(137.071431 0)scale(0.996264)" xlink:href="#CMR17-48"/>
       <use transform="translate(182.761908 0)scale(0.996264)" xlink:href="#CMR17-48"/>
      </g>
     </g>
    </g>
    <g id="xtick_5">
     <g id="line2d_9">
      <path clip-path="url(#pe1c2e21cdb)" d="M 230.002395 232.46 
L 230.002395 10.7 
" style="fill:none;stroke:#b0b0b0;stroke-dasharray:0.8,1.32;stroke-dashoffset:0;stroke-width:0.8;"/>
     </g>
     <g id="line2d_10">
      <g>
       <use style="stroke:#000000;stroke-width:0.8;" x="230.002395" xlink:href="#mdb10480bb5" y="232.46"/>
      </g>
     </g>
     <g id="text_5">
      <!-- $40000$ -->
      <defs>
       <path d="M 33.59375 64.796875 
C 33.59375 66.890625 33.5 67 31.703125 67 
L 2 19.59375 
L 2 17 
L 27.796875 17 
L 27.796875 7.1875 
C 27.796875 3.59375 27.59375 2.59375 20.59375 2.59375 
L 18.703125 2.59375 
L 18.703125 0 
C 21.90625 0.1875 27.296875 0.1875 30.703125 0.1875 
C 34.09375 0.1875 39.5 0.1875 42.703125 0 
L 42.703125 2.59375 
L 40.796875 2.59375 
C 33.796875 2.59375 33.59375 3.59375 33.59375 7.1875 
L 33.59375 17 
L 43.796875 17 
L 43.796875 19.59375 
L 33.59375 19.59375 
z
M 28.09375 58.171875 
L 28.09375 19.59375 
L 4 19.59375 
z
" id="CMR17-52"/>
      </defs>
      <g transform="translate(217.549057 246.378498)scale(0.1 -0.1)">
       <use transform="scale(0.996264)" xlink:href="#CMR17-52"/>
       <use transform="translate(45.690477 0)scale(0.996264)" xlink:href="#CMR17-48"/>
       <use transform="translate(91.380954 0)scale(0.996264)" xlink:href="#CMR17-48"/>
       <use transform="translate(137.071431 0)scale(0.996264)" xlink:href="#CMR17-48"/>
       <use transform="translate(182.761908 0)scale(0.996264)" xlink:href="#CMR17-48"/>
      </g>
     </g>
    </g>
    <g id="xtick_6">
     <g id="line2d_11">
      <path clip-path="url(#pe1c2e21cdb)" d="M 270.624836 232.46 
L 270.624836 10.7 
" style="fill:none;stroke:#b0b0b0;stroke-dasharray:0.8,1.32;stroke-dashoffset:0;stroke-width:0.8;"/>
     </g>
     <g id="line2d_12">
      <g>
       <use style="stroke:#000000;stroke-width:0.8;" x="270.624836" xlink:href="#mdb10480bb5" y="232.46"/>
      </g>
     </g>
     <g id="text_6">
      <!-- $50000$ -->
      <defs>
       <path d="M 11.40625 58.59375 
C 12.40625 58.1875 16.5 56.890625 20.703125 56.890625 
C 30 56.890625 35.09375 61.890625 38 64.6875 
C 38 65.484375 38 66 37.40625 66 
C 37.296875 66 37.09375 66 36.296875 65.59375 
C 32.796875 64.09375 28.703125 63 23.703125 63 
C 20.703125 63 16.203125 63.359375 11.296875 65.484375 
C 10.203125 66 10 66 9.90625 66 
C 9.40625 66 9.296875 65.890625 9.296875 63.90625 
L 9.296875 34.859375 
C 9.296875 33.015625 9.296875 32.5 10.296875 32.5 
C 10.796875 32.5 11 32.703125 11.5 33.421875 
C 14.703125 38.046875 19.09375 40 24.09375 40 
C 27.59375 40 35.09375 37.734375 35.09375 20.203125 
C 35.09375 16.984375 35.09375 11.1875 32.09375 6.59375 
C 29.59375 2.484375 25.703125 0.390625 21.40625 0.390625 
C 14.796875 0.390625 8.09375 4.984375 6.296875 12.6875 
C 6.703125 12.59375 7.5 12.390625 7.90625 12.390625 
C 9.203125 12.390625 11.703125 13.09375 11.703125 16.1875 
C 11.703125 18.890625 9.796875 20 7.90625 20 
C 5.59375 20 4.09375 18.59375 4.09375 15.796875 
C 4.09375 7.09375 11 -2 21.59375 -2 
C 31.90625 -2 41.703125 6.890625 41.703125 19.796875 
C 41.703125 32.09375 33.90625 41.59375 24.203125 41.59375 
C 19.09375 41.59375 14.796875 39.6875 11.40625 36 
z
" id="CMR17-53"/>
      </defs>
      <g transform="translate(258.171498 246.378498)scale(0.1 -0.1)">
       <use transform="scale(0.996264)" xlink:href="#CMR17-53"/>
       <use transform="translate(45.690477 0)scale(0.996264)" xlink:href="#CMR17-48"/>
       <use transform="translate(91.380954 0)scale(0.996264)" xlink:href="#CMR17-48"/>
       <use transform="translate(137.071431 0)scale(0.996264)" xlink:href="#CMR17-48"/>
       <use transform="translate(182.761908 0)scale(0.996264)" xlink:href="#CMR17-48"/>
      </g>
     </g>
    </g>
    <g id="xtick_7">
     <g id="line2d_13">
      <path clip-path="url(#pe1c2e21cdb)" d="M 311.247277 232.46 
L 311.247277 10.7 
" style="fill:none;stroke:#b0b0b0;stroke-dasharray:0.8,1.32;stroke-dashoffset:0;stroke-width:0.8;"/>
     </g>
     <g id="line2d_14">
      <g>
       <use style="stroke:#000000;stroke-width:0.8;" x="311.247277" xlink:href="#mdb10480bb5" y="232.46"/>
      </g>
     </g>
     <g id="text_7">
      <!-- $60000$ -->
      <defs>
       <path d="M 10.59375 34.34375 
C 10.59375 58 21.796875 63.6875 28.296875 63.6875 
C 30.40625 63.6875 35.5 63.265625 37.5 59.09375 
C 35.90625 59.09375 32.90625 59.09375 32.90625 55.59375 
C 32.90625 52.890625 35.09375 52 36.5 52 
C 37.40625 52 40.09375 52.390625 40.09375 55.796875 
C 40.09375 62.296875 35.09375 66 28.203125 66 
C 16.296875 66 3.796875 53.296875 3.796875 31.421875 
C 3.796875 4.015625 15.09375 -2 23.09375 -2 
C 32.796875 -2 42 6.734375 42 20.234375 
C 42 32.828125 33.90625 42 23.703125 42 
C 17.59375 42 13.09375 37.96875 10.59375 30.921875 
z
M 23.09375 0.390625 
C 10.796875 0.390625 10.796875 18.9375 10.796875 22.65625 
C 10.796875 29.90625 14.203125 40.390625 23.5 40.390625 
C 25.203125 40.390625 30.09375 40.390625 33.40625 33.4375 
C 35.203125 29.515625 35.203125 25.375 35.203125 20.34375 
C 35.203125 14.90625 35.203125 10.875 33.09375 6.84375 
C 30.90625 2.703125 27.703125 0.390625 23.09375 0.390625 
z
" id="CMR17-54"/>
      </defs>
      <g transform="translate(298.793939 246.378498)scale(0.1 -0.1)">
       <use transform="scale(0.996264)" xlink:href="#CMR17-54"/>
       <use transform="translate(45.690477 0)scale(0.996264)" xlink:href="#CMR17-48"/>
       <use transform="translate(91.380954 0)scale(0.996264)" xlink:href="#CMR17-48"/>
       <use transform="translate(137.071431 0)scale(0.996264)" xlink:href="#CMR17-48"/>
       <use transform="translate(182.761908 0)scale(0.996264)" xlink:href="#CMR17-48"/>
      </g>
     </g>
    </g>
    <g id="xtick_8">
     <g id="line2d_15">
      <path clip-path="url(#pe1c2e21cdb)" d="M 351.869717 232.46 
L 351.869717 10.7 
" style="fill:none;stroke:#b0b0b0;stroke-dasharray:0.8,1.32;stroke-dashoffset:0;stroke-width:0.8;"/>
     </g>
     <g id="line2d_16">
      <g>
       <use style="stroke:#000000;stroke-width:0.8;" x="351.869717" xlink:href="#mdb10480bb5" y="232.46"/>
      </g>
     </g>
     <g id="text_8">
      <!-- $70000$ -->
      <defs>
       <path d="M 45.09375 61.796875 
L 45.09375 64 
L 21.59375 64 
C 9.90625 64 9.703125 65.09375 9.296875 67 
L 7.5 67 
L 4.59375 48.5 
L 6.40625 48.5 
C 6.703125 50.40625 7.40625 55.5 8.59375 57.390625 
C 9.203125 58.1875 16.59375 58.1875 18.296875 58.1875 
L 40.296875 58.1875 
L 29.203125 41.71875 
C 21.796875 30.640625 16.703125 15.671875 16.703125 2.59375 
C 16.703125 1.390625 16.703125 -2 20.296875 -2 
C 23.90625 -2 23.90625 1.390625 23.90625 2.6875 
L 23.90625 7.28125 
C 23.90625 23.65625 26.703125 34.4375 31.296875 41.3125 
z
" id="CMR17-55"/>
      </defs>
      <g transform="translate(339.416379 246.378498)scale(0.1 -0.1)">
       <use transform="scale(0.996264)" xlink:href="#CMR17-55"/>
       <use transform="translate(45.690477 0)scale(0.996264)" xlink:href="#CMR17-48"/>
       <use transform="translate(91.380954 0)scale(0.996264)" xlink:href="#CMR17-48"/>
       <use transform="translate(137.071431 0)scale(0.996264)" xlink:href="#CMR17-48"/>
       <use transform="translate(182.761908 0)scale(0.996264)" xlink:href="#CMR17-48"/>
      </g>
     </g>
    </g>
    <g id="text_9">
     <!-- iteration $k$ -->
     <defs>
      <path d="M 15.5 61.890625 
C 15.5 64.09375 13.703125 66 11.40625 66 
C 9.203125 66 7.296875 64.1875 7.296875 61.890625 
C 7.296875 59.6875 9.09375 57.796875 11.40625 57.796875 
C 13.59375 57.796875 15.5 59.59375 15.5 61.890625 
z
M 3.796875 42.890625 
L 3.796875 40.296875 
C 9.40625 40.296875 10.203125 39.6875 10.203125 34.859375 
L 10.203125 6.921875 
C 10.203125 3.09375 9.796875 2.59375 3.40625 2.59375 
L 3.40625 0 
C 5.796875 0.1875 10.09375 0.1875 12.59375 0.1875 
C 15 0.1875 19.09375 0.1875 21.40625 0 
L 21.40625 2.59375 
C 15.5 2.59375 15.296875 3.203125 15.296875 6.8125 
L 15.296875 44 
z
" id="CMR17-105"/>
      <path d="M 15.09375 40.390625 
L 29.09375 40.390625 
L 29.09375 43 
L 15.09375 43 
L 15.09375 62 
L 13.296875 62 
C 13.09375 51.4375 9.59375 42.1875 1.09375 41.984375 
L 1.09375 40.390625 
L 9.796875 40.390625 
L 9.796875 12.15625 
C 9.796875 10.234375 9.796875 -1 21.40625 -1 
C 27.296875 -1 30.703125 4.8125 30.703125 12.25 
L 30.703125 17.984375 
L 28.90625 17.984375 
L 28.90625 12.34375 
C 28.90625 5.421875 26.203125 0.796875 22 0.796875 
C 19.09375 0.796875 15.09375 2.796875 15.09375 11.953125 
z
" id="CMR17-116"/>
      <path d="M 38.09375 23.484375 
C 38.5 23.890625 38.5 24.09375 38.5 25.09375 
C 38.5 35.171875 33.09375 44 21.703125 44 
C 11.09375 44 2.703125 33.984375 2.703125 21.78125 
C 2.703125 8.65625 12.203125 -1 22.796875 -1 
C 34 -1 38.40625 9.671875 38.40625 11.796875 
C 38.40625 12.5 37.796875 12.5 37.59375 12.5 
C 36.90625 12.5 36.796875 12.296875 36.40625 11.078125 
C 34.203125 4.21875 28.703125 0.796875 23.5 0.796875 
C 19.203125 0.796875 14.90625 3.21875 12.203125 7.65625 
C 9.09375 12.796875 9.09375 18.75 9.09375 23.484375 
z
M 9.203125 25 
C 9.90625 39.234375 17.59375 42.390625 21.59375 42.390625 
C 28.40625 42.390625 33 36.0625 33.09375 25 
z
" id="CMR17-101"/>
      <path d="M 15 23.703125 
C 15 33.34375 19.09375 42.390625 26.59375 42.390625 
C 27.296875 42.390625 28 42.296875 28.703125 41.984375 
C 28.703125 41.984375 26.5 41.28125 26.5 38.671875 
C 26.5 36.265625 28.40625 35.265625 29.90625 35.265625 
C 31.09375 35.265625 33.296875 35.96875 33.296875 38.78125 
C 33.296875 41.984375 30.09375 44 26.703125 44 
C 19.09375 44 15.796875 36.5625 14.796875 33.046875 
L 14.703125 33.046875 
L 14.703125 44 
L 3.09375 42.890625 
L 3.09375 40.28125 
C 9 40.28125 9.90625 39.6875 9.90625 34.859375 
L 9.90625 6.921875 
C 9.90625 3.09375 9.5 2.59375 3.09375 2.59375 
L 3.09375 0 
C 5.5 0.1875 10.09375 0.1875 12.703125 0.1875 
C 15.59375 0.1875 20.703125 0.1875 23.40625 0 
L 23.40625 2.59375 
C 16.203125 2.59375 15 2.59375 15 7.109375 
z
" id="CMR17-114"/>
      <path d="M 36 25.875 
C 36 32 36 35.546875 31.796875 39.59375 
C 28.09375 42.984375 23.796875 44 20.40625 44 
C 12.5 44 6.796875 37.625 6.796875 30.890625 
C 6.796875 27.1875 9.796875 27 10.40625 27 
C 11.703125 27 14 27.796875 14 30.59375 
C 14 33.09375 12.09375 34.1875 10.40625 34.1875 
C 10 34.1875 9.5 34.09375 9.203125 34 
C 11.296875 40.53125 16.703125 42.390625 20.203125 42.390625 
C 25.203125 42.390625 30.703125 37.828125 30.703125 29.296875 
L 30.703125 25.5 
C 24.796875 25.296875 17.703125 24.5 12.09375 21.453125 
C 5.796875 17.921875 4 12.84375 4 9 
C 4 1.203125 13 -1 18.296875 -1 
C 23.796875 -1 28.90625 2.109375 31.09375 7.890625 
C 31.296875 3.421875 34.09375 -0.609375 38.5 -0.609375 
C 40.59375 -0.609375 45.90625 0.796875 45.90625 8.796875 
L 45.90625 14.46875 
L 44.09375 14.46875 
L 44.09375 8.703125 
C 44.09375 2.515625 41.40625 1.703125 40.09375 1.703125 
C 36 1.703125 36 6.96875 36 11.4375 
z
M 30.703125 13.859375 
C 30.703125 5.046875 24.5 0.59375 19 0.59375 
C 14 0.59375 10.09375 4.34375 10.09375 9 
C 10.09375 12.046875 11.40625 17.40625 17.203125 20.65625 
C 22 23.390625 27.5 23.796875 30.703125 24 
z
" id="CMR17-97"/>
      <path d="M 43.09375 21.1875 
C 43.09375 34 33.796875 44 22.90625 44 
C 12 44 2.703125 34 2.703125 21.1875 
C 2.703125 8.59375 12 -1 22.90625 -1 
C 33.796875 -1 43.09375 8.59375 43.09375 21.1875 
z
M 22.90625 0.796875 
C 18.203125 0.796875 14.203125 3.59375 11.90625 7.5 
C 9.40625 12 9.09375 17.59375 9.09375 22 
C 9.09375 26.1875 9.296875 31.390625 11.90625 35.890625 
C 13.90625 39.1875 17.796875 42.390625 22.90625 42.390625 
C 27.40625 42.390625 31.203125 39.890625 33.59375 36.390625 
C 36.703125 31.6875 36.703125 25.09375 36.703125 22 
C 36.703125 18.09375 36.5 12.09375 33.796875 7.296875 
C 31 2.6875 26.703125 0.796875 22.90625 0.796875 
z
" id="CMR17-111"/>
      <path d="M 41.5 30.53125 
C 41.5 35.65625 40.5 44 28.703125 44 
C 20.796875 44 16.703125 37.875 15.203125 33.84375 
L 15.09375 33.84375 
L 15.09375 44 
L 3.296875 42.890625 
L 3.296875 40.28125 
C 9.203125 40.28125 10.09375 39.6875 10.09375 34.859375 
L 10.09375 6.921875 
C 10.09375 3.09375 9.703125 2.59375 3.296875 2.59375 
L 3.296875 0 
C 5.703125 0.1875 10.09375 0.1875 12.703125 0.1875 
C 15.296875 0.1875 19.796875 0.1875 22.203125 0 
L 22.203125 2.59375 
C 15.796875 2.59375 15.40625 3 15.40625 6.921875 
L 15.40625 26.21875 
C 15.40625 35.453125 21 42.390625 28 42.390625 
C 35.40625 42.390625 36.203125 35.765625 36.203125 30.9375 
L 36.203125 6.921875 
C 36.203125 3.09375 35.796875 2.59375 29.40625 2.59375 
L 29.40625 0 
C 31.796875 0.1875 36.203125 0.1875 38.796875 0.1875 
C 41.40625 0.1875 45.90625 0.1875 48.296875 0 
L 48.296875 2.59375 
C 41.90625 2.59375 41.5 3 41.5 6.921875 
z
" id="CMR17-110"/>
      <path d="M 28.09375 66.484375 
C 28.203125 66.890625 28.40625 67.484375 28.40625 67.984375 
C 28.40625 69 27.40625 69 27.203125 69 
C 27.09375 69 23.5 68.6875 21.703125 68.484375 
C 20 68.390625 18.5 68.1875 16.703125 68.09375 
C 14.296875 67.890625 13.59375 67.796875 13.59375 65.984375 
C 13.59375 64.984375 14.59375 64.984375 15.59375 64.984375 
C 20.703125 64.984375 20.703125 64.109375 20.703125 63.125 
C 20.703125 62.71875 20.703125 62.53125 20.203125 60.75 
L 5.90625 3.90625 
C 5.5 2.390625 5.5 2.203125 5.5 1.59375 
C 5.5 -0.609375 7.203125 -1 8.203125 -1 
C 11 -1 11.59375 1.1875 12.40625 4.296875 
L 17.09375 23.0625 
C 24.296875 22.265625 28.59375 19.25 28.59375 14.4375 
C 28.59375 13.828125 28.59375 13.4375 28.296875 11.921875 
C 27.90625 10.421875 27.90625 9.21875 27.90625 8.71875 
C 27.90625 2.890625 31.703125 -1 36.796875 -1 
C 41.40625 -1 43.796875 3.203125 44.59375 4.609375 
C 46.703125 8.3125 48 13.9375 48 14.328125 
C 48 14.828125 47.59375 15.234375 47 15.234375 
C 46.09375 15.234375 46 14.828125 45.59375 13.234375 
C 44.203125 8.015625 42.09375 1 37 1 
C 35 1 33.703125 2 33.703125 5.8125 
C 33.703125 7.71875 34.09375 9.921875 34.5 11.421875 
C 34.90625 13.234375 34.90625 13.328125 34.90625 14.53125 
C 34.90625 20.453125 29.59375 23.765625 20.40625 24.96875 
C 24 27.171875 27.59375 31.078125 29 32.59375 
C 34.703125 38.984375 38.59375 41.984375 43.203125 41.984375 
C 45.5 41.984375 46.09375 41.484375 46.796875 41 
C 43.09375 40.59375 41.703125 37.984375 41.703125 35.984375 
C 41.703125 33.59375 43.59375 32.796875 45 32.796875 
C 47.703125 32.796875 50.09375 35.09375 50.09375 38.296875 
C 50.09375 41.15625 47.796875 44 43.296875 44 
C 37.796875 44 33.296875 40.296875 26.203125 32.296875 
C 25.203125 31.078125 21.5 27.28125 17.796875 25.875 
z
" id="CMMI12-107"/>
     </defs>
     <g transform="translate(196.885256 259.234175)scale(0.1 -0.1)">
      <use transform="scale(0.996264)" xlink:href="#CMR17-105"/>
      <use transform="translate(24.871058 0)scale(0.996264)" xlink:href="#CMR17-116"/>
      <use transform="translate(60.151826 0)scale(0.996264)" xlink:href="#CMR17-101"/>
      <use transform="translate(100.637487 0)scale(0.996264)" xlink:href="#CMR17-114"/>
      <use transform="translate(135.918255 0)scale(0.996264)" xlink:href="#CMR17-97"/>
      <use transform="translate(181.608732 0)scale(0.996264)" xlink:href="#CMR17-116"/>
      <use transform="translate(216.889499 0)scale(0.996264)" xlink:href="#CMR17-105"/>
      <use transform="translate(241.760558 0)scale(0.996264)" xlink:href="#CMR17-111"/>
      <use transform="translate(287.451035 0)scale(0.996264)" xlink:href="#CMR17-110"/>
      <use transform="translate(368.422371 0)scale(0.996264)" xlink:href="#CMMI12-107"/>
     </g>
    </g>
   </g>
   <g id="matplotlib.axis_2">
    <g id="ytick_1">
     <g id="line2d_17">
      <path clip-path="url(#pe1c2e21cdb)" d="M 52.294451 232.46 
L 387.094451 232.46 
" style="fill:none;stroke:#b0b0b0;stroke-dasharray:0.8,1.32;stroke-dashoffset:0;stroke-width:0.8;"/>
     </g>
     <g id="line2d_18">
      <defs>
       <path d="M 0 0 
L -3.5 0 
" id="m5af7dedac6" style="stroke:#000000;stroke-width:0.8;"/>
      </defs>
      <g>
       <use style="stroke:#000000;stroke-width:0.8;" x="52.294451" xlink:href="#m5af7dedac6" y="232.46"/>
      </g>
     </g>
     <g id="text_10">
      <!-- $10^{-16}$ -->
      <defs>
       <path d="M 65.90625 23 
C 67.59375 23 69.40625 23 69.40625 25 
C 69.40625 27 67.59375 27 65.90625 27 
L 11.796875 27 
C 10.09375 27 8.296875 27 8.296875 25 
C 8.296875 23 10.09375 23 11.796875 23 
z
" id="CMSY10-0"/>
      </defs>
      <g transform="translate(21.16264 235.919249)scale(0.1 -0.1)">
       <use transform="scale(0.996264)" xlink:href="#CMR17-49"/>
       <use transform="translate(45.690477 0)scale(0.996264)" xlink:href="#CMR17-48"/>
       <use transform="translate(91.380954 36.153639)scale(0.697382)" xlink:href="#CMSY10-0"/>
       <use transform="translate(145.621947 36.153639)scale(0.697382)" xlink:href="#CMR17-49"/>
       <use transform="translate(177.605129 36.153639)scale(0.697382)" xlink:href="#CMR17-54"/>
      </g>
     </g>
    </g>
    <g id="ytick_2">
     <g id="line2d_19">
      <path clip-path="url(#pe1c2e21cdb)" d="M 52.294451 205.900278 
L 387.094451 205.900278 
" style="fill:none;stroke:#b0b0b0;stroke-dasharray:0.8,1.32;stroke-dashoffset:0;stroke-width:0.8;"/>
     </g>
     <g id="line2d_20">
      <g>
       <use style="stroke:#000000;stroke-width:0.8;" x="52.294451" xlink:href="#m5af7dedac6" y="205.900278"/>
      </g>
     </g>
     <g id="text_11">
      <!-- $10^{-14}$ -->
      <g transform="translate(21.16264 209.359527)scale(0.1 -0.1)">
       <use transform="scale(0.996264)" xlink:href="#CMR17-49"/>
       <use transform="translate(45.690477 0)scale(0.996264)" xlink:href="#CMR17-48"/>
       <use transform="translate(91.380954 36.153639)scale(0.697382)" xlink:href="#CMSY10-0"/>
       <use transform="translate(145.621947 36.153639)scale(0.697382)" xlink:href="#CMR17-49"/>
       <use transform="translate(177.605129 36.153639)scale(0.697382)" xlink:href="#CMR17-52"/>
      </g>
     </g>
    </g>
    <g id="ytick_3">
     <g id="line2d_21">
      <path clip-path="url(#pe1c2e21cdb)" d="M 52.294451 179.340556 
L 387.094451 179.340556 
" style="fill:none;stroke:#b0b0b0;stroke-dasharray:0.8,1.32;stroke-dashoffset:0;stroke-width:0.8;"/>
     </g>
     <g id="line2d_22">
      <g>
       <use style="stroke:#000000;stroke-width:0.8;" x="52.294451" xlink:href="#m5af7dedac6" y="179.340556"/>
      </g>
     </g>
     <g id="text_12">
      <!-- $10^{-12}$ -->
      <g transform="translate(21.16264 182.799805)scale(0.1 -0.1)">
       <use transform="scale(0.996264)" xlink:href="#CMR17-49"/>
       <use transform="translate(45.690477 0)scale(0.996264)" xlink:href="#CMR17-48"/>
       <use transform="translate(91.380954 36.153639)scale(0.697382)" xlink:href="#CMSY10-0"/>
       <use transform="translate(145.621947 36.153639)scale(0.697382)" xlink:href="#CMR17-49"/>
       <use transform="translate(177.605129 36.153639)scale(0.697382)" xlink:href="#CMR17-50"/>
      </g>
     </g>
    </g>
    <g id="ytick_4">
     <g id="line2d_23">
      <path clip-path="url(#pe1c2e21cdb)" d="M 52.294451 152.780834 
L 387.094451 152.780834 
" style="fill:none;stroke:#b0b0b0;stroke-dasharray:0.8,1.32;stroke-dashoffset:0;stroke-width:0.8;"/>
     </g>
     <g id="line2d_24">
      <g>
       <use style="stroke:#000000;stroke-width:0.8;" x="52.294451" xlink:href="#m5af7dedac6" y="152.780834"/>
      </g>
     </g>
     <g id="text_13">
      <!-- $10^{-10}$ -->
      <g transform="translate(21.16264 156.240083)scale(0.1 -0.1)">
       <use transform="scale(0.996264)" xlink:href="#CMR17-49"/>
       <use transform="translate(45.690477 0)scale(0.996264)" xlink:href="#CMR17-48"/>
       <use transform="translate(91.380954 36.153639)scale(0.697382)" xlink:href="#CMSY10-0"/>
       <use transform="translate(145.621947 36.153639)scale(0.697382)" xlink:href="#CMR17-49"/>
       <use transform="translate(177.605129 36.153639)scale(0.697382)" xlink:href="#CMR17-48"/>
      </g>
     </g>
    </g>
    <g id="ytick_5">
     <g id="line2d_25">
      <path clip-path="url(#pe1c2e21cdb)" d="M 52.294451 126.221112 
L 387.094451 126.221112 
" style="fill:none;stroke:#b0b0b0;stroke-dasharray:0.8,1.32;stroke-dashoffset:0;stroke-width:0.8;"/>
     </g>
     <g id="line2d_26">
      <g>
       <use style="stroke:#000000;stroke-width:0.8;" x="52.294451" xlink:href="#m5af7dedac6" y="126.221112"/>
      </g>
     </g>
     <g id="text_14">
      <!-- $10^{-8}$ -->
      <defs>
       <path d="M 27.203125 35.765625 
C 33.5 38.96875 39.90625 43.796875 39.90625 51.53125 
C 39.90625 60.6875 31.09375 66 23 66 
C 13.90625 66 5.90625 59.375 5.90625 50.234375 
C 5.90625 47.71875 6.5 43.390625 10.40625 39.578125 
C 11.40625 38.578125 15.59375 35.5625 18.296875 33.65625 
C 13.796875 31.34375 3.296875 25.8125 3.296875 14.765625 
C 3.296875 4.40625 13.09375 -2 22.796875 -2 
C 33.5 -2 42.5 5.71875 42.5 15.96875 
C 42.5 25.109375 36.40625 29.328125 32.40625 32.046875 
z
M 14.09375 44.609375 
C 13.296875 45.109375 9.296875 48.21875 9.296875 52.9375 
C 9.296875 59.078125 15.59375 63.6875 22.796875 63.6875 
C 30.703125 63.6875 36.5 58.0625 36.5 51.53125 
C 36.5 42.1875 26.09375 36.859375 25.59375 36.859375 
C 25.5 36.859375 25.40625 36.859375 24.59375 37.46875 
z
M 32.5 24 
C 34 22.90625 38.796875 19.578125 38.796875 13.453125 
C 38.796875 6.015625 31.40625 0.390625 23 0.390625 
C 13.90625 0.390625 7 6.921875 7 14.859375 
C 7 22.796875 13.09375 29.4375 20 32.546875 
z
" id="CMR17-56"/>
      </defs>
      <g transform="translate(25.133878 129.680361)scale(0.1 -0.1)">
       <use transform="scale(0.996264)" xlink:href="#CMR17-49"/>
       <use transform="translate(45.690477 0)scale(0.996264)" xlink:href="#CMR17-48"/>
       <use transform="translate(91.380954 36.153639)scale(0.697382)" xlink:href="#CMSY10-0"/>
       <use transform="translate(145.621947 36.153639)scale(0.697382)" xlink:href="#CMR17-56"/>
      </g>
     </g>
    </g>
    <g id="ytick_6">
     <g id="line2d_27">
      <path clip-path="url(#pe1c2e21cdb)" d="M 52.294451 99.66139 
L 387.094451 99.66139 
" style="fill:none;stroke:#b0b0b0;stroke-dasharray:0.8,1.32;stroke-dashoffset:0;stroke-width:0.8;"/>
     </g>
     <g id="line2d_28">
      <g>
       <use style="stroke:#000000;stroke-width:0.8;" x="52.294451" xlink:href="#m5af7dedac6" y="99.66139"/>
      </g>
     </g>
     <g id="text_15">
      <!-- $10^{-6}$ -->
      <g transform="translate(25.133878 103.120639)scale(0.1 -0.1)">
       <use transform="scale(0.996264)" xlink:href="#CMR17-49"/>
       <use transform="translate(45.690477 0)scale(0.996264)" xlink:href="#CMR17-48"/>
       <use transform="translate(91.380954 36.153639)scale(0.697382)" xlink:href="#CMSY10-0"/>
       <use transform="translate(145.621947 36.153639)scale(0.697382)" xlink:href="#CMR17-54"/>
      </g>
     </g>
    </g>
    <g id="ytick_7">
     <g id="line2d_29">
      <path clip-path="url(#pe1c2e21cdb)" d="M 52.294451 73.101668 
L 387.094451 73.101668 
" style="fill:none;stroke:#b0b0b0;stroke-dasharray:0.8,1.32;stroke-dashoffset:0;stroke-width:0.8;"/>
     </g>
     <g id="line2d_30">
      <g>
       <use style="stroke:#000000;stroke-width:0.8;" x="52.294451" xlink:href="#m5af7dedac6" y="73.101668"/>
      </g>
     </g>
     <g id="text_16">
      <!-- $10^{-4}$ -->
      <g transform="translate(25.133878 76.560918)scale(0.1 -0.1)">
       <use transform="scale(0.996264)" xlink:href="#CMR17-49"/>
       <use transform="translate(45.690477 0)scale(0.996264)" xlink:href="#CMR17-48"/>
       <use transform="translate(91.380954 36.153639)scale(0.697382)" xlink:href="#CMSY10-0"/>
       <use transform="translate(145.621947 36.153639)scale(0.697382)" xlink:href="#CMR17-52"/>
      </g>
     </g>
    </g>
    <g id="ytick_8">
     <g id="line2d_31">
      <path clip-path="url(#pe1c2e21cdb)" d="M 52.294451 46.541946 
L 387.094451 46.541946 
" style="fill:none;stroke:#b0b0b0;stroke-dasharray:0.8,1.32;stroke-dashoffset:0;stroke-width:0.8;"/>
     </g>
     <g id="line2d_32">
      <g>
       <use style="stroke:#000000;stroke-width:0.8;" x="52.294451" xlink:href="#m5af7dedac6" y="46.541946"/>
      </g>
     </g>
     <g id="text_17">
      <!-- $10^{-2}$ -->
      <g transform="translate(25.133878 50.001196)scale(0.1 -0.1)">
       <use transform="scale(0.996264)" xlink:href="#CMR17-49"/>
       <use transform="translate(45.690477 0)scale(0.996264)" xlink:href="#CMR17-48"/>
       <use transform="translate(91.380954 36.153639)scale(0.697382)" xlink:href="#CMSY10-0"/>
       <use transform="translate(145.621947 36.153639)scale(0.697382)" xlink:href="#CMR17-50"/>
      </g>
     </g>
    </g>
    <g id="ytick_9">
     <g id="line2d_33">
      <path clip-path="url(#pe1c2e21cdb)" d="M 52.294451 19.982224 
L 387.094451 19.982224 
" style="fill:none;stroke:#b0b0b0;stroke-dasharray:0.8,1.32;stroke-dashoffset:0;stroke-width:0.8;"/>
     </g>
     <g id="line2d_34">
      <g>
       <use style="stroke:#000000;stroke-width:0.8;" x="52.294451" xlink:href="#m5af7dedac6" y="19.982224"/>
      </g>
     </g>
     <g id="text_18">
      <!-- $10^{0}$ -->
      <g transform="translate(31.360543 23.441474)scale(0.1 -0.1)">
       <use transform="scale(0.996264)" xlink:href="#CMR17-49"/>
       <use transform="translate(45.690477 0)scale(0.996264)" xlink:href="#CMR17-48"/>
       <use transform="translate(91.380954 36.153639)scale(0.697382)" xlink:href="#CMR17-48"/>
      </g>
     </g>
    </g>
    <g id="text_19">
     <!-- $A$-norm of error: $\| x-x_k \|_A$ -->
     <defs>
      <path d="M 17 11.25 
C 13.5 5.234375 10.09375 3.203125 5.296875 2.890625 
C 4.203125 2.796875 3.40625 2.796875 3.40625 1 
C 3.40625 0.390625 3.90625 0 4.59375 0 
C 6.40625 0 10.90625 0.1875 12.703125 0.1875 
C 15.59375 0.1875 18.796875 0 21.59375 0 
C 22.203125 0 23.40625 0 23.40625 1.890625 
C 23.40625 2.796875 22.59375 2.890625 22 2.890625 
C 19.703125 3.09375 17.796875 3.90625 17.796875 6.359375 
C 17.796875 7.78125 18.40625 8.90625 19.703125 11.15625 
L 27.296875 24 
L 52.796875 24 
C 52.90625 23.078125 52.90625 22.265625 53 21.34375 
C 53.296875 18.6875 54.5 8.09375 54.5 6.15625 
C 54.5 3.09375 49.40625 2.890625 47.796875 2.890625 
C 46.703125 2.890625 45.59375 2.890625 45.59375 1.09375 
C 45.59375 0 46.5 0 47.09375 0 
C 48.796875 0 50.796875 0.1875 52.5 0.1875 
L 58.203125 0.1875 
C 64.296875 0.1875 68.703125 0 68.796875 0 
C 69.5 0 70.59375 0 70.59375 1.890625 
C 70.59375 2.890625 69.703125 2.890625 68.203125 2.890625 
C 62.703125 2.890625 62.59375 3.8125 62.296875 6.875 
L 56.203125 68.796875 
C 56 70.796875 55.59375 71 54.5 71 
C 53.5 71 52.90625 70.796875 52 69.296875 
z
M 29 26.890625 
L 49.09375 59.859375 
L 52.5 26.890625 
z
" id="CMMI12-65"/>
      <path d="M 25.5 19.59375 
L 25.5 24 
L 0.40625 24 
L 0.40625 19.59375 
z
" id="CMR17-45"/>
      <path d="M 67.59375 30.53125 
C 67.59375 35.5625 66.703125 44 54.796875 44 
C 48 44 43.296875 39.375 41.5 33.953125 
L 41.40625 33.953125 
C 40.203125 42.1875 34.296875 44 28.703125 44 
C 20.796875 44 16.703125 37.875 15.203125 33.84375 
L 15.09375 33.84375 
L 15.09375 44 
L 3.296875 42.890625 
L 3.296875 40.28125 
C 9.203125 40.28125 10.09375 39.6875 10.09375 34.859375 
L 10.09375 6.921875 
C 10.09375 3.09375 9.703125 2.59375 3.296875 2.59375 
L 3.296875 0 
C 5.703125 0.1875 10.09375 0.1875 12.703125 0.1875 
C 15.296875 0.1875 19.796875 0.1875 22.203125 0 
L 22.203125 2.59375 
C 15.796875 2.59375 15.40625 3 15.40625 6.921875 
L 15.40625 26.21875 
C 15.40625 35.453125 21 42.390625 28 42.390625 
C 35.40625 42.390625 36.203125 35.765625 36.203125 30.9375 
L 36.203125 6.921875 
C 36.203125 3.09375 35.796875 2.59375 29.40625 2.59375 
L 29.40625 0 
C 31.796875 0.1875 36.203125 0.1875 38.796875 0.1875 
C 41.40625 0.1875 45.90625 0.1875 48.296875 0 
L 48.296875 2.59375 
C 41.90625 2.59375 41.5 3 41.5 6.921875 
L 41.5 26.21875 
C 41.5 35.453125 47.09375 42.390625 54.09375 42.390625 
C 61.5 42.390625 62.296875 35.765625 62.296875 30.9375 
L 62.296875 6.921875 
C 62.296875 3.09375 61.90625 2.59375 55.5 2.59375 
L 55.5 0 
C 57.90625 0.1875 62.296875 0.1875 64.90625 0.1875 
C 67.5 0.1875 72 0.1875 74.40625 0 
L 74.40625 2.59375 
C 68 2.59375 67.59375 3 67.59375 6.921875 
z
" id="CMR17-109"/>
      <path d="M 15.296875 40.390625 
L 26.703125 40.390625 
L 26.703125 43 
L 15.09375 43 
L 15.09375 55.296875 
C 15.09375 63.6875 19.296875 68.390625 23.59375 68.390625 
C 24.90625 68.390625 26.40625 68.171875 27.40625 67.796875 
C 26.59375 67.59375 24.5 66.890625 24.5 64.390625 
C 24.5 61.796875 26.5 61 27.90625 61 
C 29.296875 61 31.296875 61.796875 31.296875 64.390625 
C 31.296875 68.015625 27.703125 70 23.703125 70 
C 18 70 10.203125 65.796875 10.203125 55.09375 
L 10.203125 43 
L 2.203125 43 
L 2.203125 40.390625 
L 10.203125 40.390625 
L 10.203125 6.890625 
C 10.203125 3.09375 9.796875 2.59375 3.40625 2.59375 
L 3.40625 0 
C 5.796875 0.1875 10.40625 0.1875 13 0.1875 
C 15.90625 0.1875 21 0.1875 23.703125 0 
L 23.703125 2.59375 
C 16.5 2.59375 15.296875 2.59375 15.296875 7.09375 
z
" id="CMR17-102"/>
      <path d="M 16.59375 38.890625 
C 16.59375 41.390625 14.59375 43 12.5 43 
C 10.5 43 8.40625 41.390625 8.40625 38.890625 
C 8.40625 36.390625 10.40625 34.796875 12.5 34.796875 
C 14.5 34.796875 16.59375 36.390625 16.59375 38.890625 
z
M 16.59375 4.09375 
C 16.59375 6.59375 14.59375 8.1875 12.5 8.1875 
C 10.5 8.1875 8.40625 6.59375 8.40625 4.09375 
C 8.40625 1.59375 10.40625 0 12.5 0 
C 14.5 0 16.59375 1.59375 16.59375 4.09375 
z
" id="CMR17-58"/>
      <path d="M 17.203125 71.59375 
C 17.203125 73.1875 17.203125 75 15.203125 75 
C 13.203125 75 13.203125 72.796875 13.203125 71.296875 
L 13.203125 -21.3125 
C 13.203125 -22.90625 13.203125 -25 15.203125 -25 
C 17.203125 -25 17.203125 -23.203125 17.203125 -21.609375 
z
M 36.703125 71.296875 
C 36.703125 72.890625 36.703125 75 34.703125 75 
C 32.703125 75 32.703125 73.1875 32.703125 71.59375 
L 32.703125 -21.609375 
C 32.703125 -23.203125 32.703125 -25 34.703125 -25 
C 36.703125 -25 36.703125 -22.8125 36.703125 -21.3125 
z
" id="CMSY10-107"/>
      <path d="M 47.40625 41 
C 44.203125 40.390625 43 37.984375 43 36.09375 
C 43 33.6875 44.90625 32.890625 46.296875 32.890625 
C 49.296875 32.890625 51.40625 35.484375 51.40625 38.1875 
C 51.40625 42.09375 46.59375 44 42.40625 44 
C 36.296875 44 32.90625 38.296875 32 36.390625 
C 29.703125 43.59375 23.5 44 21.703125 44 
C 11.5 44 6.09375 31.140625 6.09375 28.890625 
C 6.09375 28.484375 6.5 27.96875 7.203125 27.96875 
C 8 27.96875 8.203125 28.578125 8.40625 28.984375 
C 11.796875 40.1875 18.5 41.984375 21.40625 41.984375 
C 25.90625 41.984375 26.796875 38.09375 26.796875 35.6875 
C 26.796875 33.484375 26.203125 31.140625 25 26.21875 
L 21.59375 12.15625 
C 20.09375 6.09375 17.203125 1 11.90625 1 
C 11.40625 1 8.90625 1 6.796875 1.96875 
C 10.40625 2.59375 11.203125 5.59375 11.203125 6.796875 
C 11.203125 8.796875 9.703125 10 7.796875 10 
C 5.40625 10 2.796875 7.890625 2.796875 4.6875 
C 2.796875 0.890625 7.5 -1 11.796875 -1 
C 16.59375 -1 20 2.390625 22.09375 6.484375 
C 23.703125 1 28.703125 -1 32.40625 -1 
C 42.59375 -1 48 11.734375 48 14 
C 48 14.515625 47.59375 14.921875 47 14.921875 
C 46.09375 14.921875 46 14.40625 45.703125 13.59375 
C 43 4.6875 37.203125 1 32.703125 1 
C 29.203125 1 27.296875 3.1875 27.296875 7.296875 
C 27.296875 9.484375 27.703125 11.125 29.296875 17.90625 
L 32.796875 31.859375 
C 34.296875 37.890625 37.703125 41.984375 42.296875 41.984375 
C 42.5 41.984375 45.296875 41.984375 47.40625 41 
z
" id="CMMI12-120"/>
     </defs>
     <g transform="translate(15.225462 182.035642)rotate(-90)scale(0.1 -0.1)">
      <use transform="translate(0 14.943915)scale(0.996264)" xlink:href="#CMMI12-65"/>
      <use transform="translate(73.127885 14.943915)scale(0.996264)" xlink:href="#CMR17-45"/>
      <use transform="translate(103.203852 14.943915)scale(0.996264)" xlink:href="#CMR17-110"/>
      <use transform="translate(154.099221 14.943915)scale(0.996264)" xlink:href="#CMR17-111"/>
      <use transform="translate(199.789699 14.943915)scale(0.996264)" xlink:href="#CMR17-114"/>
      <use transform="translate(235.070466 14.943915)scale(0.996264)" xlink:href="#CMR17-109"/>
      <use transform="translate(342.066023 14.943915)scale(0.996264)" xlink:href="#CMR17-111"/>
      <use transform="translate(387.7565 14.943915)scale(0.996264)" xlink:href="#CMR17-102"/>
      <use transform="translate(445.305978 14.943915)scale(0.996264)" xlink:href="#CMR17-101"/>
      <use transform="translate(485.791639 14.943915)scale(0.996264)" xlink:href="#CMR17-114"/>
      <use transform="translate(521.072407 14.943915)scale(0.996264)" xlink:href="#CMR17-114"/>
      <use transform="translate(556.353174 14.943915)scale(0.996264)" xlink:href="#CMR17-111"/>
      <use transform="translate(602.043652 14.943915)scale(0.996264)" xlink:href="#CMR17-114"/>
      <use transform="translate(637.324419 14.943915)scale(0.996264)" xlink:href="#CMR17-58"/>
      <use transform="translate(702.681138 14.943915)scale(0.996264)" xlink:href="#CMSY10-107"/>
      <use transform="translate(752.494521 14.943915)scale(0.996264)" xlink:href="#CMMI12-120"/>
      <use transform="translate(830.067788 14.943915)scale(0.996264)" xlink:href="#CMSY10-0"/>
      <use transform="translate(929.694462 14.943915)scale(0.996264)" xlink:href="#CMMI12-120"/>
      <use transform="translate(985.128522 0)scale(0.697382)" xlink:href="#CMMI12-107"/>
      <use transform="translate(1023.481904 14.943915)scale(0.996264)" xlink:href="#CMSY10-107"/>
      <use transform="translate(1073.295287 0)scale(0.697382)" xlink:href="#CMMI12-65"/>
     </g>
    </g>
   </g>
   <g id="line2d_35">
    <path clip-path="url(#pe1c2e21cdb)" d="M 67.512633 19.982224 
L 67.817301 32.587474 
L 68.426638 37.545872 
L 69.035974 47.112491 
L 69.340643 48.357006 
L 69.645311 49.12658 
L 69.949979 49.446169 
L 71.168653 51.567386 
L 72.996662 53.41145 
L 76.043345 55.510121 
L 76.95735 55.954563 
L 77.566687 56.301805 
L 79.090029 56.889643 
L 80.004033 57.434438 
L 81.222707 57.69878 
L 82.746048 58.646473 
L 85.183395 59.108214 
L 87.316073 60.300425 
L 89.144083 60.605889 
L 92.495434 60.908191 
L 93.714107 61.38979 
L 94.323444 61.807101 
L 95.542117 62.785311 
L 96.76079 63.334018 
L 98.5888 63.676309 
L 100.721478 63.841709 
L 107.119513 63.985308 
L 110.775532 64.19415 
L 112.90821 64.526462 
L 114.431552 64.96727 
L 115.650225 65.366971 
L 118.087571 66.56665 
L 121.438923 68.756507 
L 124.790274 70.130688 
L 126.313616 70.9879 
L 128.750962 72.360277 
L 129.969635 73.027415 
L 130.88364 73.272529 
L 133.016318 73.485821 
L 142.765704 74.008823 
L 155.257105 74.053212 
L 172.013861 74.166786 
L 174.14654 74.282348 
L 178.107228 74.982855 
L 181.153911 75.261931 
L 184.505262 75.797066 
L 185.419267 76.072609 
L 186.028603 76.406328 
L 187.247277 77.344262 
L 189.379955 78.342367 
L 189.989291 78.679915 
L 191.207965 79.137727 
L 191.817301 79.72445 
L 193.949979 81.887418 
L 194.863984 82.714667 
L 196.691994 83.618533 
L 197.910667 83.896732 
L 201.262019 84.527954 
L 203.090029 84.805709 
L 207.050716 85.145843 
L 211.316073 85.531844 
L 212.839414 85.837472 
L 214.667424 86.460335 
L 215.276761 87.100266 
L 216.190766 88.525573 
L 217.104771 90.27217 
L 217.714107 91.985429 
L 218.323444 93.440079 
L 218.93278 94.148564 
L 219.542117 94.492353 
L 220.76079 94.820087 
L 223.502805 95.445583 
L 224.41681 96.12451 
L 225.330815 97.271504 
L 225.940151 98.400039 
L 226.854156 100.38804 
L 228.072829 102.8454 
L 229.291503 105.201515 
L 230.205508 107.603258 
L 231.424181 111.260636 
L 233.252191 115.556288 
L 233.861527 116.338978 
L 234.470864 117.05045 
L 236.298874 119.713593 
L 237.517547 120.694041 
L 238.431552 120.996251 
L 239.650225 121.417592 
L 240.56423 121.843266 
L 241.478235 121.968266 
L 247.876269 122.141477 
L 255.797645 122.274463 
L 256.406982 122.391941 
L 257.016318 122.731688 
L 259.453665 125.287174 
L 260.063001 126.82692 
L 260.672338 128.36595 
L 261.281675 129.240442 
L 262.19568 130.327918 
L 262.805016 131.407314 
L 263.109685 132.135304 
L 263.414353 133.165341 
L 264.328358 137.167996 
L 265.547031 141.619937 
L 266.461036 145.414242 
L 267.070372 147.335067 
L 267.984377 150.131315 
L 268.593714 153.015053 
L 269.203051 156.174452 
L 271.03106 164.120843 
L 271.945065 167.565536 
L 272.85907 169.742962 
L 273.468407 170.493431 
L 274.077743 170.838723 
L 274.991748 171.047994 
L 276.819758 171.138281 
L 299.669881 171.177379 
L 371.876269 171.176699 
L 371.876269 171.176699 
" style="fill:none;stroke:#93a1a1;stroke-linecap:square;stroke-width:1.5;"/>
    <defs>
     <path d="M 0 3 
C 0.795609 3 1.55874 2.683901 2.12132 2.12132 
C 2.683901 1.55874 3 0.795609 3 0 
C 3 -0.795609 2.683901 -1.55874 2.12132 -2.12132 
C 1.55874 -2.683901 0.795609 -3 0 -3 
C -0.795609 -3 -1.55874 -2.683901 -2.12132 -2.12132 
C -2.683901 -1.55874 -3 -0.795609 -3 0 
C -3 0.795609 -2.683901 1.55874 -2.12132 2.12132 
C -1.55874 2.683901 -0.795609 3 0 3 
z
" id="m7e6047e420" style="stroke:#93a1a1;"/>
    </defs>
    <g clip-path="url(#pe1c2e21cdb)">
     <use style="fill:#93a1a1;stroke:#93a1a1;" x="67.512633" xlink:href="#m7e6047e420" y="19.982224"/>
     <use style="fill:#93a1a1;stroke:#93a1a1;" x="128.446294" xlink:href="#m7e6047e420" y="72.171924"/>
     <use style="fill:#93a1a1;stroke:#93a1a1;" x="189.379955" xlink:href="#m7e6047e420" y="78.342367"/>
     <use style="fill:#93a1a1;stroke:#93a1a1;" x="250.313616" xlink:href="#m7e6047e420" y="122.151324"/>
     <use style="fill:#93a1a1;stroke:#93a1a1;" x="311.247277" xlink:href="#m7e6047e420" y="171.178749"/>
    </g>
   </g>
   <g id="line2d_36">
    <path clip-path="url(#pe1c2e21cdb)" d="M 67.512633 19.982224 
L 67.817301 32.587474 
L 68.426638 37.545 
L 69.035974 47.111038 
L 69.340643 48.355936 
L 69.645311 49.12513 
L 69.949979 49.444051 
L 71.168653 51.566264 
L 72.996662 53.410133 
L 76.043345 55.508828 
L 76.95735 55.953097 
L 77.566687 56.301203 
L 79.090029 56.887863 
L 80.004033 57.433841 
L 81.222707 57.69685 
L 82.746048 58.646138 
L 85.183395 59.105987 
L 87.316073 60.29991 
L 89.144083 60.605735 
L 92.495434 60.907604 
L 93.714107 61.389371 
L 94.323444 61.807382 
L 95.542117 62.78546 
L 96.76079 63.334523 
L 98.5888 63.676625 
L 100.721478 63.841821 
L 107.119513 63.985504 
L 110.775532 64.194982 
L 112.90821 64.528224 
L 114.431552 64.970105 
L 115.650225 65.371352 
L 118.087571 66.574961 
L 121.438923 68.763937 
L 124.790274 70.143164 
L 126.313616 70.999805 
L 128.750962 72.375826 
L 129.969635 73.038454 
L 130.88364 73.277184 
L 133.016318 73.487728 
L 142.765704 74.009347 
L 155.561773 74.053269 
L 171.709193 74.160796 
L 174.14654 74.292501 
L 177.802559 74.968912 
L 181.153911 75.272447 
L 184.200594 75.750979 
L 185.419267 76.115945 
L 186.028603 76.467719 
L 186.942608 77.234595 
L 190.29396 78.806701 
L 191.207965 79.206637 
L 192.426638 80.451028 
L 194.863984 82.784111 
L 196.996662 83.748557 
L 204.004033 84.89503 
L 210.0974 85.399084 
L 212.230078 85.72033 
L 214.058087 86.236829 
L 214.667424 86.60858 
L 215.276761 87.343508 
L 216.190766 88.831678 
L 216.800102 90.019439 
L 217.409439 91.573113 
L 218.018775 93.237779 
L 218.628112 94.038874 
L 219.237449 94.443584 
L 220.151454 94.738495 
L 223.198137 95.396598 
L 224.112142 96.03437 
L 224.721478 96.705036 
L 225.330815 97.58745 
L 226.549488 100.154054 
L 227.463493 102.118057 
L 229.291503 105.719169 
L 229.900839 107.354539 
L 231.119513 111.06018 
L 232.947522 115.424695 
L 233.556859 116.268174 
L 234.166196 116.959462 
L 236.298874 119.929344 
L 237.212879 120.660952 
L 238.126884 120.980886 
L 239.345557 121.389772 
L 240.259562 121.825988 
L 241.173567 121.966761 
L 247.571601 122.142237 
L 255.492977 122.273628 
L 256.102314 122.389427 
L 256.71165 122.724769 
L 259.148997 125.281416 
L 259.758333 126.820261 
L 260.36767 128.358233 
L 260.977006 129.234617 
L 261.891011 130.320069 
L 262.500348 131.400212 
L 262.805016 132.128108 
L 263.109685 133.161529 
L 264.023689 137.047261 
L 266.156368 143.493543 
L 266.765704 144.306005 
L 267.679709 145.030829 
L 268.593714 145.476372 
L 269.812387 145.604091 
L 272.249734 145.848078 
L 272.85907 146.105678 
L 273.468407 146.612592 
L 274.077743 147.536126 
L 275.296417 149.722421 
L 275.905753 150.356156 
L 276.819758 150.920075 
L 277.733763 151.215332 
L 279.561773 151.595905 
L 280.17111 152.062893 
L 281.085114 153.23768 
L 281.694451 154.476495 
L 283.217793 157.899374 
L 283.827129 158.763951 
L 284.741134 160.732953 
L 285.655139 162.481916 
L 286.264476 163.10982 
L 286.873812 163.396189 
L 287.787817 163.542787 
L 290.225164 163.585478 
L 353.596171 163.929501 
L 361.212879 164.323265 
L 369.438923 164.49203 
L 370.962264 164.638979 
L 371.876269 164.846084 
L 371.876269 164.846084 
" style="fill:none;stroke:#93a1a1;stroke-linecap:square;stroke-width:1.5;"/>
    <defs>
     <path d="M 0 -3 
L -3 3 
L 3 3 
z
" id="m1641e8be72" style="stroke:#93a1a1;stroke-linejoin:miter;"/>
    </defs>
    <g clip-path="url(#pe1c2e21cdb)">
     <use style="fill:#93a1a1;stroke:#93a1a1;stroke-linejoin:miter;" x="82.746048" xlink:href="#m1641e8be72" y="58.646138"/>
     <use style="fill:#93a1a1;stroke:#93a1a1;stroke-linejoin:miter;" x="143.679709" xlink:href="#m1641e8be72" y="74.019329"/>
     <use style="fill:#93a1a1;stroke:#93a1a1;stroke-linejoin:miter;" x="204.61337" xlink:href="#m1641e8be72" y="84.940764"/>
     <use style="fill:#93a1a1;stroke:#93a1a1;stroke-linejoin:miter;" x="265.547031" xlink:href="#m1641e8be72" y="142.017618"/>
     <use style="fill:#93a1a1;stroke:#93a1a1;stroke-linejoin:miter;" x="326.480692" xlink:href="#m1641e8be72" y="163.73874"/>
    </g>
   </g>
   <g id="line2d_37">
    <path clip-path="url(#pe1c2e21cdb)" d="M 67.512633 19.982224 
L 67.817301 32.587474 
L 68.426638 37.546024 
L 69.035974 47.113051 
L 69.340643 48.356961 
L 69.645311 49.125501 
L 69.949979 49.44382 
L 71.168653 51.565781 
L 72.996662 53.40974 
L 76.043345 55.506962 
L 76.95735 55.94981 
L 77.566687 56.299274 
L 79.090029 56.882936 
L 80.004033 57.43174 
L 81.222707 57.693311 
L 82.746048 58.643359 
L 85.183395 59.097251 
L 87.316073 60.295283 
L 89.144083 60.604361 
L 92.495434 60.900089 
L 93.714107 61.37485 
L 94.323444 61.783098 
L 95.542117 62.769473 
L 96.76079 63.324191 
L 98.5888 63.672334 
L 100.721478 63.840349 
L 107.119513 63.984114 
L 110.775532 64.189304 
L 112.90821 64.516668 
L 114.126884 64.865334 
L 115.954893 65.477087 
L 118.39224 66.734207 
L 121.743591 68.849462 
L 125.094943 70.283877 
L 129.969635 72.996971 
L 130.88364 73.261141 
L 133.016318 73.481194 
L 142.765704 74.007621 
L 154.647768 74.053107 
L 172.013861 74.163 
L 174.451208 74.307501 
L 177.497891 74.924508 
L 183.591257 75.560577 
L 185.723935 76.134505 
L 186.333272 76.496326 
L 187.247277 77.25131 
L 190.598628 78.813521 
L 191.512633 79.217422 
L 193.035974 80.75964 
L 194.863984 82.593536 
L 196.082657 83.254124 
L 196.996662 83.659354 
L 198.215336 83.916775 
L 200.652682 84.327258 
L 202.176024 84.655542 
L 206.44138 85.101061 
L 211.011404 85.46447 
L 212.839414 85.775472 
L 214.972092 86.532807 
L 215.581429 87.223512 
L 216.495434 88.683736 
L 217.409439 90.474904 
L 218.628112 93.567177 
L 219.237449 94.214373 
L 220.151454 94.629774 
L 221.979463 95.029421 
L 223.502805 95.348882 
L 224.112142 95.713599 
L 224.721478 96.201529 
L 225.635483 97.3862 
L 226.549488 99.149623 
L 228.377498 102.971427 
L 229.596171 105.371777 
L 230.205508 106.905838 
L 232.033517 112.165741 
L 233.556859 115.664479 
L 234.166196 116.406698 
L 234.775532 117.138281 
L 236.298874 119.467904 
L 237.517547 120.555858 
L 238.431552 120.93547 
L 239.650225 121.303089 
L 241.173567 121.922628 
L 243.306245 122.045612 
L 246.657596 122.130077 
L 256.406982 122.317205 
L 257.016318 122.51845 
L 257.625655 123.01896 
L 258.844328 124.164096 
L 259.453665 124.773118 
L 260.063001 125.890564 
L 260.977006 128.292027 
L 261.586343 129.193942 
L 262.500348 130.266556 
L 263.109685 131.313362 
L 263.719021 132.963292 
L 264.633026 136.961034 
L 265.851699 141.357761 
L 267.070372 146.284643 
L 268.289046 149.844129 
L 268.898382 152.557163 
L 269.812387 156.956279 
L 271.640397 163.28385 
L 272.249734 164.27133 
L 272.85907 164.755226 
L 273.468407 165.003584 
L 274.68708 165.162703 
L 277.733763 165.398098 
L 278.3431 165.641608 
L 278.952436 166.31847 
L 280.475778 168.028195 
L 282.303788 169.646946 
L 283.827129 170.484098 
L 284.741134 170.613458 
L 288.092486 170.890724 
L 290.225164 171.226538 
L 295.099857 171.276828 
L 371.876269 171.286099 
L 371.876269 171.286099 
" style="fill:none;stroke:#93a1a1;stroke-linecap:square;stroke-width:1.5;"/>
    <defs>
     <path d="M -0 3 
L 3 -3 
L -3 -3 
z
" id="mb4ebc2f303" style="stroke:#93a1a1;stroke-linejoin:miter;"/>
    </defs>
    <g clip-path="url(#pe1c2e21cdb)">
     <use style="fill:#93a1a1;stroke:#93a1a1;stroke-linejoin:miter;" x="97.979463" xlink:href="#mb4ebc2f303" y="63.581528"/>
     <use style="fill:#93a1a1;stroke:#93a1a1;stroke-linejoin:miter;" x="158.913124" xlink:href="#mb4ebc2f303" y="74.054186"/>
     <use style="fill:#93a1a1;stroke:#93a1a1;stroke-linejoin:miter;" x="219.846785" xlink:href="#mb4ebc2f303" y="94.525656"/>
     <use style="fill:#93a1a1;stroke:#93a1a1;stroke-linejoin:miter;" x="280.780446" xlink:href="#mb4ebc2f303" y="168.314576"/>
     <use style="fill:#93a1a1;stroke:#93a1a1;stroke-linejoin:miter;" x="341.714107" xlink:href="#mb4ebc2f303" y="171.29754"/>
    </g>
   </g>
   <g id="line2d_38">
    <path clip-path="url(#pe1c2e21cdb)" d="M 67.512633 19.982224 
L 67.817301 32.587474 
L 68.426638 37.544212 
L 69.035974 47.102748 
L 69.340643 48.350584 
L 69.645311 49.121473 
L 69.949979 49.441529 
L 71.168653 51.561507 
L 73.301331 53.613612 
L 74.215336 54.3448 
L 78.480692 56.639723 
L 79.394697 57.078409 
L 80.004033 57.425568 
L 81.222707 57.681018 
L 83.050716 58.691832 
L 85.183395 59.072105 
L 87.620741 60.34975 
L 89.448751 60.619495 
L 92.800102 60.968668 
L 94.018775 61.497882 
L 94.93278 62.266113 
L 95.542117 62.732343 
L 97.065458 63.383238 
L 99.198137 63.730989 
L 101.330815 63.85368 
L 111.689537 64.288294 
L 113.517547 64.630746 
L 116.56423 65.694217 
L 118.087571 66.457472 
L 121.438923 68.394197 
L 123.266933 68.828947 
L 125.094943 69.203307 
L 126.618284 69.589525 
L 130.274304 70.200932 
L 133.016318 70.28932 
L 150.991748 70.403118 
L 152.210422 70.251833 
L 153.124427 69.974488 
L 153.733763 69.686752 
L 154.3431 69.127219 
L 155.257105 67.966018 
L 155.561773 67.443669 
L 155.866441 66.436287 
L 156.17111 64.173 
L 156.475778 57.868729 
L 156.780446 58.575652 
L 157.085114 64.450413 
L 157.389783 67.514057 
L 157.694451 69.395774 
L 157.999119 70.395833 
L 158.608456 71.414586 
L 159.217793 71.707896 
L 160.741134 71.842982 
L 165.311159 71.778623 
L 173.232535 71.622961 
L 175.060544 71.393106 
L 177.802559 71.122871 
L 178.716564 70.964715 
L 179.325901 70.657657 
L 180.544574 69.370672 
L 181.153911 68.522744 
L 182.067915 66.460981 
L 182.98192 64.384489 
L 183.286589 63.398858 
L 183.895925 59.781911 
L 184.200594 56.767599 
L 184.80993 46.323004 
L 185.114599 54.487905 
L 185.723935 60.43602 
L 186.333272 63.818065 
L 186.942608 65.88859 
L 187.551945 67.017432 
L 188.46595 68.199093 
L 189.989291 70.512604 
L 190.598628 70.990342 
L 192.731306 71.753121 
L 196.082657 71.938728 
L 203.090029 72.383567 
L 204.61337 72.332231 
L 205.527375 72.115848 
L 206.746048 71.706349 
L 207.964721 71.340745 
L 211.011404 69.892188 
L 212.534746 68.536922 
L 213.144083 67.750352 
L 214.362756 65.666702 
L 214.667424 65.040699 
L 214.972092 64.137794 
L 215.276761 62.646808 
L 215.886097 58.216067 
L 216.495434 52.12326 
L 216.800102 43.454677 
L 217.714107 56.451359 
L 218.323444 60.156043 
L 218.93278 62.040741 
L 220.456122 65.454657 
L 221.065458 66.19037 
L 221.979463 66.716599 
L 223.198137 67.221336 
L 224.112142 68.068769 
L 225.330815 69.745061 
L 226.24482 71.378509 
L 226.854156 72.026291 
L 227.463493 72.281915 
L 228.377498 72.386245 
L 231.119513 72.360032 
L 232.338186 72.172943 
L 234.166196 71.424994 
L 235.994205 70.762856 
L 238.431552 70.166202 
L 239.954893 69.856371 
L 240.868898 69.491081 
L 241.478235 68.979899 
L 242.696908 67.657433 
L 243.915581 66.873161 
L 244.22025 66.458298 
L 245.134255 64.244078 
L 246.048259 62.11951 
L 246.962264 60.345168 
L 247.266933 59.381936 
L 247.571601 57.515636 
L 247.876269 53.492195 
L 248.180938 33.593583 
L 248.485606 54.366709 
L 248.790274 58.322787 
L 249.094943 60.526534 
L 249.704279 62.927983 
L 250.313616 64.390516 
L 252.446294 67.923568 
L 253.360299 68.953032 
L 253.969635 69.674532 
L 254.88364 70.893768 
L 255.797645 71.559078 
L 257.320987 72.36764 
L 257.930323 72.372432 
L 260.672338 71.741544 
L 264.023689 71.184445 
L 267.375041 70.80121 
L 268.593714 70.36096 
L 270.421724 69.510938 
L 272.85907 67.346134 
L 274.382412 65.323641 
L 274.68708 64.682569 
L 275.296417 62.599717 
L 275.905753 60.620508 
L 276.819758 58.448426 
L 277.124427 57.29868 
L 277.429095 55.174237 
L 277.733763 49.800114 
L 278.038431 49.801944 
L 278.3431 56.621122 
L 278.952436 61.483045 
L 279.866441 65.601104 
L 281.085114 69.804594 
L 281.694451 70.796169 
L 282.303788 71.555229 
L 283.217793 72.146384 
L 284.131798 72.384063 
L 285.350471 72.398247 
L 286.569144 72.182403 
L 289.311159 71.56057 
L 291.443837 71.073978 
L 293.576515 70.535021 
L 298.451208 69.738631 
L 300.888554 68.650989 
L 301.193223 68.411625 
L 301.802559 67.424854 
L 302.107228 66.472764 
L 302.411896 64.920346 
L 302.716564 62.077238 
L 303.021232 49.262627 
L 303.325901 61.401887 
L 303.630569 65.366313 
L 304.239906 69.146543 
L 304.849242 70.664135 
L 305.458579 71.773905 
L 306.067915 72.347904 
L 306.677252 72.478805 
L 310.333272 72.137396 
L 317.645311 71.588247 
L 320.082657 70.549493 
L 321.605999 69.703662 
L 322.215336 69.352455 
L 322.824672 68.574699 
L 323.129341 67.879501 
L 323.738677 65.75519 
L 324.043345 64.31664 
L 324.348014 62.232139 
L 324.652682 57.385477 
L 324.95735 57.221625 
L 325.262019 64.979714 
L 325.566687 68.273273 
L 325.871355 69.936879 
L 326.176024 70.866649 
L 326.78536 71.705008 
L 327.394697 72.149363 
L 328.004033 72.409682 
L 329.222707 72.537505 
L 332.574058 72.599826 
L 336.839414 72.381456 
L 342.93278 71.750007 
L 344.76079 71.16468 
L 345.979463 70.571578 
L 346.5888 69.832655 
L 347.502805 67.670888 
L 348.112142 65.712067 
L 348.41681 63.72979 
L 348.721478 59.812131 
L 349.026146 48.868084 
L 349.330815 61.452109 
L 349.635483 64.180224 
L 350.24482 66.977995 
L 350.854156 69.208806 
L 351.463493 71.330968 
L 352.072829 72.153047 
L 352.682166 72.401159 
L 354.205508 72.578487 
L 357.556859 72.699813 
L 359.689537 72.617865 
L 360.603542 72.358188 
L 361.822215 71.71651 
L 363.040888 71.164354 
L 364.259562 70.660076 
L 366.087571 69.826311 
L 367.001576 69.375089 
L 367.915581 68.691995 
L 369.743591 66.41083 
L 370.048259 65.573945 
L 370.352928 63.979989 
L 370.657596 60.181745 
L 370.962264 43.282649 
L 371.266933 61.159758 
L 371.571601 64.44673 
L 371.876269 66.494243 
L 371.876269 66.494243 
" style="fill:none;stroke:#93a1a1;stroke-linecap:square;stroke-width:1.5;"/>
    <defs>
     <path d="M -3 3 
L 3 3 
L 3 -3 
L -3 -3 
z
" id="m5254910a6a" style="stroke:#93a1a1;stroke-linejoin:miter;"/>
    </defs>
    <g clip-path="url(#pe1c2e21cdb)">
     <use style="fill:#93a1a1;stroke:#93a1a1;stroke-linejoin:miter;" x="113.212879" xlink:href="#m5254910a6a" y="64.556498"/>
     <use style="fill:#93a1a1;stroke:#93a1a1;stroke-linejoin:miter;" x="174.14654" xlink:href="#m5254910a6a" y="71.535372"/>
     <use style="fill:#93a1a1;stroke:#93a1a1;stroke-linejoin:miter;" x="235.0802" xlink:href="#m5254910a6a" y="71.032468"/>
     <use style="fill:#93a1a1;stroke:#93a1a1;stroke-linejoin:miter;" x="296.013861" xlink:href="#m5254910a6a" y="70.232331"/>
     <use style="fill:#93a1a1;stroke:#93a1a1;stroke-linejoin:miter;" x="356.947522" xlink:href="#m5254910a6a" y="72.694103"/>
    </g>
   </g>
   <g id="line2d_39">
    <path clip-path="url(#pe1c2e21cdb)" d="M 67.512633 19.982224 
L 67.817301 32.587474 
L 68.426638 37.544908 
L 69.035974 47.105911 
L 69.340643 48.35219 
L 69.645311 49.124936 
L 69.949979 49.443057 
L 71.168653 51.564437 
L 72.996662 53.408434 
L 76.043345 55.504871 
L 76.95735 55.946895 
L 77.566687 56.297842 
L 79.090029 56.879713 
L 80.004033 57.430917 
L 81.222707 57.690625 
L 82.746048 58.64175 
L 85.183395 59.092147 
L 87.316073 60.292941 
L 89.144083 60.603523 
L 92.495434 60.896845 
L 93.714107 61.367814 
L 94.323444 61.772499 
L 95.542117 62.761974 
L 96.76079 63.3199 
L 98.284132 63.629061 
L 100.41681 63.828795 
L 111.994205 64.350055 
L 114.126884 64.856201 
L 116.259562 65.607194 
L 118.39224 66.712443 
L 121.743591 68.837979 
L 124.790274 70.07211 
L 126.618284 71.094575 
L 130.578972 73.19169 
L 132.102314 73.400571 
L 136.36767 73.655834 
L 147.335729 74.048126 
L 173.841871 74.233724 
L 174.755876 74.363636 
L 176.888554 74.822055 
L 178.411896 74.98738 
L 181.458579 75.271748 
L 184.80993 75.81171 
L 185.723935 76.104396 
L 186.333272 76.449341 
L 187.551945 77.374694 
L 189.684623 78.381152 
L 190.29396 78.700665 
L 191.512633 79.173051 
L 192.12197 79.789403 
L 194.863984 82.545971 
L 196.082657 83.219925 
L 196.996662 83.636602 
L 198.215336 83.90575 
L 200.95735 84.393753 
L 202.480692 84.686169 
L 206.44138 85.096373 
L 211.316073 85.495078 
L 213.144083 85.847611 
L 214.972092 86.480853 
L 215.581429 87.137234 
L 216.495434 88.575686 
L 217.409439 90.331448 
L 218.018775 92.072955 
L 218.628112 93.478394 
L 219.237449 94.167675 
L 219.846785 94.501174 
L 221.065458 94.824196 
L 223.807473 95.454642 
L 224.721478 96.139597 
L 225.635483 97.294558 
L 226.24482 98.428293 
L 227.158825 100.417579 
L 228.377498 102.862092 
L 229.596171 105.221511 
L 230.510176 107.62711 
L 231.728849 111.278672 
L 233.556859 115.559186 
L 234.166196 116.340188 
L 234.775532 117.049618 
L 236.603542 119.709123 
L 237.822215 120.689488 
L 238.73622 120.993006 
L 239.954893 121.409468 
L 240.868898 121.837288 
L 241.782903 121.967186 
L 248.180938 122.141129 
L 256.102314 122.262606 
L 257.016318 122.474961 
L 257.625655 122.935171 
L 258.844328 124.095598 
L 259.453665 124.664853 
L 260.063001 125.692745 
L 261.281675 128.670893 
L 263.109685 131.141974 
L 263.719021 132.662965 
L 264.937694 137.741909 
L 265.851699 140.988691 
L 267.070372 145.98959 
L 268.593714 150.708122 
L 270.726392 159.896534 
L 271.640397 163.2459 
L 272.249734 164.409384 
L 272.85907 164.99048 
L 273.468407 165.299088 
L 274.382412 165.46585 
L 278.3431 165.867214 
L 278.952436 166.398784 
L 280.780446 168.380476 
L 281.999119 169.675591 
L 283.827129 170.915829 
L 284.741134 171.087683 
L 287.483149 171.141062 
L 323.129341 171.263599 
L 371.876269 171.283257 
L 371.876269 171.283257 
" style="fill:none;stroke:#073642;stroke-dasharray:1.5,2.475;stroke-dashoffset:0;stroke-width:1.5;"/>
   </g>
   <g id="line2d_40">
    <path clip-path="url(#pe1c2e21cdb)" d="M 67.512633 19.982224 
L 67.817301 32.587474 
L 68.426638 37.525014 
L 69.035974 47.089635 
L 69.340643 48.342189 
L 69.645311 49.117138 
L 69.949979 49.437109 
L 71.168653 51.554778 
L 73.605999 53.881829 
L 74.824672 54.738479 
L 77.566687 56.282213 
L 79.090029 56.850048 
L 80.004033 57.413352 
L 81.527375 57.822848 
L 82.44138 58.485445 
L 83.050716 58.683073 
L 85.183395 59.039087 
L 87.925409 60.393581 
L 89.144083 60.592833 
L 92.800102 60.933646 
L 94.018775 61.432728 
L 94.628112 61.868727 
L 95.542117 62.652415 
L 97.065458 63.348754 
L 99.198137 63.71844 
L 101.330815 63.853794 
L 112.298874 64.340134 
L 114.431552 64.832288 
L 116.868898 65.702123 
L 118.39224 66.444371 
L 119.915581 67.497424 
L 121.438923 68.500183 
L 122.962264 69.12559 
L 125.094943 69.944829 
L 126.922952 70.983572 
L 129.360299 72.336217 
L 130.578972 73.000093 
L 131.492977 73.254666 
L 133.625655 73.472368 
L 143.375041 74.008068 
L 154.952436 74.055138 
L 171.404525 74.005484 
L 172.013861 73.828247 
L 172.623198 73.482405 
L 173.232535 72.846141 
L 173.537203 72.321034 
L 173.841871 71.483472 
L 174.14654 69.957895 
L 174.451208 66.532632 
L 174.755876 30.360457 
L 175.060544 59.961874 
L 175.669881 63.724906 
L 176.279218 65.288705 
L 177.193223 66.417726 
L 178.107228 67.250129 
L 179.021232 67.866195 
L 180.544574 68.465561 
L 182.067915 68.813107 
L 186.028603 69.354346 
L 190.598628 69.711495 
L 196.996662 69.988991 
L 202.176024 70.099423 
L 218.628112 70.355279 
L 225.635483 70.555968 
L 233.861527 70.597997 
L 239.040888 70.430633 
L 247.571601 69.989278 
L 250.618284 69.699499 
L 257.930323 68.912348 
L 261.586343 68.705379 
L 269.812387 68.631244 
L 302.411896 68.501673 
L 359.384869 68.694567 
L 371.876269 68.842201 
L 371.876269 68.842201 
" style="fill:none;stroke:#6c71c4;stroke-linecap:square;stroke-width:1.5;"/>
   </g>
   <g id="line2d_41">
    <path clip-path="url(#pe1c2e21cdb)" d="M 67.512633 19.982224 
L 67.817301 32.587474 
L 68.426638 37.524198 
L 69.035974 47.080368 
L 69.340643 48.338035 
L 69.645311 49.115538 
L 69.949979 49.435982 
L 71.473321 51.856065 
L 72.996662 53.392022 
L 73.910667 54.123889 
L 76.043345 55.480482 
L 76.95735 55.915253 
L 77.871355 56.380978 
L 79.394697 57.031176 
L 80.004033 57.410564 
L 81.527375 57.812667 
L 82.44138 58.476799 
L 83.050716 58.681064 
L 85.183395 59.034015 
L 87.925409 60.390815 
L 89.144083 60.591339 
L 92.800102 60.927949 
L 94.018775 61.42208 
L 94.628112 61.851343 
L 95.846785 62.803831 
L 97.065458 63.341857 
L 99.198137 63.715008 
L 101.330815 63.852763 
L 112.298874 64.334399 
L 114.431552 64.822109 
L 116.868898 65.68754 
L 118.39224 66.427285 
L 119.610913 67.227315 
L 120.829586 68.118603 
L 122.048259 68.772649 
L 125.399611 70.126405 
L 126.922952 70.972411 
L 129.664967 72.508425 
L 130.88364 73.109977 
L 132.102314 73.344419 
L 135.453665 73.588712 
L 143.984377 74.013079 
L 158.608456 74.053898 
L 175.365213 74.163985 
L 176.583886 74.09488 
L 177.497891 73.609703 
L 178.107228 72.975219 
L 180.849242 69.187237 
L 181.763247 65.824603 
L 182.372584 62.93395 
L 182.677252 60.450048 
L 182.98192 54.176625 
L 183.286589 23.533782 
L 183.591257 62.987797 
L 183.895925 60.160269 
L 184.200594 52.423433 
L 184.80993 57.429268 
L 185.419267 58.75513 
L 186.63794 60.7046 
L 187.551945 61.653578 
L 188.770618 62.631174 
L 190.29396 63.88674 
L 192.731306 65.004812 
L 194.863984 65.529662 
L 197.910667 66.133979 
L 201.262019 66.415098 
L 206.136712 66.650731 
L 211.620741 66.698916 
L 303.630569 66.73744 
L 371.876269 66.736598 
L 371.876269 66.736598 
" style="fill:none;stroke:#2aa198;stroke-linecap:square;stroke-width:1.5;"/>
   </g>
   <g id="line2d_42">
    <path clip-path="url(#pe1c2e21cdb)" d="M 67.512633 19.982224 
L 67.817301 32.587474 
L 68.426638 37.544856 
L 69.035974 47.10625 
L 69.340643 48.351809 
L 69.645311 49.123193 
L 69.949979 49.442253 
L 71.168653 51.562799 
L 73.301331 53.618231 
L 74.215336 54.347309 
L 78.480692 56.643419 
L 79.394697 57.08684 
L 80.004033 57.427667 
L 81.222707 57.685118 
L 82.746048 58.637614 
L 85.183395 59.079224 
L 87.316073 60.287018 
L 89.144083 60.601327 
L 92.495434 60.887688 
L 93.714107 61.349913 
L 94.323444 61.74102 
L 95.542117 62.741341 
L 97.065458 63.388849 
L 99.198137 63.739169 
L 101.330815 63.861351 
L 111.689537 64.290766 
L 113.517547 64.637239 
L 116.56423 65.715976 
L 118.087571 66.469169 
L 119.610913 67.536185 
L 121.134255 68.543214 
L 122.657596 69.159712 
L 124.485606 69.820909 
L 126.618284 71.051034 
L 130.88364 73.237729 
L 132.71165 73.444478 
L 136.36767 73.651588 
L 148.249734 74.049643 
L 172.927866 74.180739 
L 174.755876 74.322013 
L 177.497891 74.892723 
L 180.239906 75.133122 
L 183.286589 75.460322 
L 185.419267 75.91529 
L 186.333272 76.318948 
L 186.942608 76.807174 
L 187.551945 77.270816 
L 192.12197 79.535144 
L 193.035974 80.485513 
L 195.473321 82.795293 
L 197.605999 83.749714 
L 204.61337 84.892574 
L 210.706736 85.392292 
L 212.839414 85.700379 
L 214.667424 86.204062 
L 215.276761 86.515574 
L 215.886097 87.194612 
L 216.800102 88.643627 
L 217.714107 90.417531 
L 218.93278 93.528952 
L 219.542117 94.193782 
L 220.151454 94.514289 
L 221.370127 94.831046 
L 224.112142 95.4693 
L 225.026146 96.163429 
L 225.940151 97.329366 
L 226.549488 98.473509 
L 227.463493 100.473387 
L 228.682166 102.893515 
L 229.900839 105.258832 
L 230.510176 106.768728 
L 232.642854 112.739499 
L 233.556859 115.027443 
L 234.166196 116.026289 
L 235.0802 117.056604 
L 236.90821 119.71126 
L 238.126884 120.690473 
L 239.040888 120.994105 
L 240.259562 121.40868 
L 241.173567 121.837027 
L 242.087571 121.969268 
L 248.790274 122.145404 
L 256.71165 122.300241 
L 257.320987 122.456657 
L 257.930323 122.888266 
L 259.148997 124.057188 
L 259.758333 124.60594 
L 260.36767 125.576068 
L 261.586343 128.577931 
L 262.500348 129.709596 
L 263.109685 130.49746 
L 263.719021 131.62733 
L 264.023689 132.427348 
L 265.547031 138.217424 
L 267.375041 143.319995 
L 267.984377 143.98306 
L 268.898382 144.594186 
L 269.812387 144.953732 
L 271.640397 145.100887 
L 273.163739 145.249349 
L 274.077743 145.573578 
L 276.51509 146.718851 
L 278.3431 146.862476 
L 280.475778 147.021897 
L 281.085114 147.237536 
L 283.522461 148.539008 
L 284.436466 148.694504 
L 290.529832 149.092563 
L 292.66251 149.172165 
L 296.31853 149.311802 
L 299.060544 149.488047 
L 300.888554 149.626294 
L 305.153911 150.625799 
L 305.763247 151.014392 
L 306.372584 151.812933 
L 307.591257 153.645175 
L 308.200594 154.081973 
L 309.114599 154.342955 
L 310.028603 154.616987 
L 311.856613 155.461734 
L 313.684623 156.031766 
L 315.817301 157.579746 
L 317.340643 159.914789 
L 318.254648 160.244301 
L 319.168653 160.638577 
L 320.082657 161.173555 
L 321.301331 161.637715 
L 322.215336 162.346801 
L 322.824672 162.791597 
L 324.043345 163.342362 
L 325.566687 164.007278 
L 326.480692 164.811502 
L 327.090029 165.284975 
L 330.136712 166.528259 
L 331.050716 166.719332 
L 335.620741 167.0727 
L 339.886097 167.129889 
L 371.876269 167.236492 
L 371.876269 167.236492 
" style="fill:none;stroke:#859900;stroke-dasharray:1.5,2.475;stroke-dashoffset:0;stroke-width:1.5;"/>
   </g>
   <g id="line2d_43">
    <path clip-path="url(#pe1c2e21cdb)" d="M 67.512633 19.982224 
L 67.817301 32.587474 
L 68.426638 37.53952 
L 69.035974 47.101978 
L 69.340643 48.351331 
L 69.645311 49.121101 
L 69.949979 49.441512 
L 71.168653 51.56097 
L 73.301331 53.61408 
L 74.215336 54.344985 
L 78.480692 56.640617 
L 79.394697 57.081014 
L 80.004033 57.425861 
L 81.222707 57.681801 
L 83.050716 58.691805 
L 85.183395 59.073392 
L 87.316073 60.28443 
L 89.144083 60.600295 
L 92.495434 60.883233 
L 93.714107 61.341719 
L 94.323444 61.726811 
L 95.846785 62.88361 
L 96.76079 63.300347 
L 98.284132 63.620129 
L 100.41681 63.826352 
L 111.994205 64.332576 
L 114.126884 64.824741 
L 116.56423 65.699666 
L 118.087571 66.449358 
L 119.610913 67.513156 
L 121.134255 68.52204 
L 122.657596 69.14588 
L 124.790274 69.98959 
L 126.618284 71.030578 
L 129.05563 72.403738 
L 130.274304 73.053293 
L 131.188309 73.28301 
L 133.320987 73.489411 
L 143.070372 74.009008 
L 155.866441 74.053251 
L 172.31853 74.163278 
L 174.755876 74.308313 
L 177.802559 74.92395 
L 183.895925 75.556212 
L 186.028603 76.120454 
L 186.63794 76.471878 
L 187.551945 77.234677 
L 190.903296 78.799462 
L 191.817301 79.186146 
L 192.426638 79.809446 
L 195.168653 82.55289 
L 196.387326 83.223868 
L 197.301331 83.638887 
L 198.520004 83.906322 
L 201.262019 84.392495 
L 202.78536 84.68505 
L 206.746048 85.095051 
L 211.620741 85.490901 
L 213.448751 85.836119 
L 215.276761 86.451639 
L 215.886097 87.080849 
L 216.800102 88.493399 
L 217.714107 90.228468 
L 218.323444 91.902855 
L 218.93278 93.398124 
L 219.542117 94.123003 
L 220.151454 94.479142 
L 221.065458 94.754621 
L 224.112142 95.421633 
L 225.026146 96.077164 
L 225.940151 97.188867 
L 226.549488 98.276731 
L 230.205508 105.750873 
L 230.814844 107.376022 
L 232.033517 111.059044 
L 233.861527 115.401229 
L 234.470864 116.252104 
L 235.0802 116.929983 
L 237.212879 119.894066 
L 238.126884 120.636033 
L 239.040888 120.969722 
L 240.259562 121.360813 
L 241.478235 121.891788 
L 242.696908 121.99296 
L 247.876269 122.140894 
L 256.71165 122.285582 
L 257.320987 122.412117 
L 257.930323 122.77287 
L 260.36767 125.315067 
L 261.891011 128.766559 
L 263.414353 130.596953 
L 264.023689 131.772572 
L 264.633026 133.841092 
L 265.242363 135.538601 
L 265.851699 136.538117 
L 266.461036 137.310836 
L 267.070372 137.760823 
L 267.984377 138.002244 
L 270.421724 138.228094 
L 271.640397 138.372809 
L 272.554402 138.661465 
L 273.163739 139.137131 
L 274.077743 140.556614 
L 274.991748 141.913118 
L 275.601085 142.45877 
L 276.210422 142.748473 
L 277.429095 142.988187 
L 278.952436 143.31357 
L 279.866441 143.665248 
L 280.17111 143.93506 
L 280.475778 144.377569 
L 281.085114 145.931711 
L 282.608456 150.499651 
L 283.217793 151.883961 
L 283.827129 152.98114 
L 284.436466 153.493155 
L 287.178481 154.795641 
L 288.701822 155.058497 
L 290.8345 155.459846 
L 292.053173 155.616671 
L 306.067915 156.149246 
L 307.286589 156.48956 
L 308.505262 156.841065 
L 309.723935 157.093584 
L 312.161282 157.958292 
L 313.989291 158.205768 
L 316.426638 158.880406 
L 317.645311 159.371272 
L 318.559316 159.66259 
L 319.168653 160.145479 
L 320.082657 161.053057 
L 320.996662 161.383093 
L 322.520004 161.966917 
L 324.043345 162.342338 
L 327.090029 162.970715 
L 329.527375 163.283638 
L 331.050716 163.48192 
L 337.144083 163.611167 
L 371.876269 163.624548 
L 371.876269 163.624548 
" style="fill:none;stroke:#073642;stroke-linecap:square;stroke-width:1.5;"/>
   </g>
   <g id="patch_3">
    <path d="M 52.294451 232.46 
L 52.294451 10.7 
" style="fill:none;stroke:#000000;stroke-linecap:square;stroke-linejoin:miter;stroke-width:0.8;"/>
   </g>
   <g id="patch_4">
    <path d="M 387.094451 232.46 
L 387.094451 10.7 
" style="fill:none;stroke:#000000;stroke-linecap:square;stroke-linejoin:miter;stroke-width:0.8;"/>
   </g>
   <g id="patch_5">
    <path d="M 52.294451 232.46 
L 387.094451 232.46 
" style="fill:none;stroke:#000000;stroke-linecap:square;stroke-linejoin:miter;stroke-width:0.8;"/>
   </g>
   <g id="patch_6">
    <path d="M 52.294451 10.7 
L 387.094451 10.7 
" style="fill:none;stroke:#000000;stroke-linecap:square;stroke-linejoin:miter;stroke-width:0.8;"/>
   </g>
   <g id="legend_1">
    <g id="patch_7">
     <path d="M 59.294451 227.46 
L 147.73499 227.46 
Q 149.73499 227.46 149.73499 225.46 
L 149.73499 101.025395 
Q 149.73499 99.025395 147.73499 99.025395 
L 59.294451 99.025395 
Q 57.294451 99.025395 57.294451 101.025395 
L 57.294451 225.46 
Q 57.294451 227.46 59.294451 227.46 
z
" style="fill:#ffffff;opacity:0.8;stroke:#cccccc;stroke-linejoin:miter;"/>
    </g>
    <g id="line2d_44">
     <path d="M 61.294451 106.525395 
L 81.294451 106.525395 
" style="fill:none;stroke:#073642;stroke-linecap:square;stroke-width:1.5;"/>
    </g>
    <g id="line2d_45"/>
    <g id="text_20">
     <!-- \textsc{{PPR-CG}} -->
     <defs>
      <path d="M 43 31.390625 
C 55.203125 31.390625 66.90625 39.171875 66.90625 49.4375 
C 66.90625 59.3125 56.296875 68 42.203125 68 
L 5.703125 68 
L 5.703125 64.890625 
L 8.09375 64.890625 
C 15.796875 64.890625 16 63.796875 16 60.203125 
L 16 7.765625 
C 16 4.1875 15.796875 3.09375 8.09375 3.09375 
L 5.703125 3.09375 
L 5.703125 0 
C 9.203125 0.296875 16.59375 0.296875 20.40625 0.296875 
C 24.203125 0.296875 31.703125 0.296875 35.203125 0 
L 35.203125 3.09375 
L 32.796875 3.09375 
C 25.09375 3.09375 24.90625 4.1875 24.90625 7.765625 
L 24.90625 31.390625 
z
M 24.59375 60.90625 
C 24.59375 64.1875 24.796875 64.890625 29.5 64.890625 
L 39.59375 64.890625 
C 56.59375 64.890625 56.59375 53.921875 56.59375 49.4375 
C 56.59375 45.15625 56.59375 34 39.59375 34 
L 24.59375 34 
z
" id="CMCSC10-80"/>
      <path d="M 24.59375 35.1875 
L 24.59375 60.921875 
C 24.59375 63.609375 24.796875 64.5 27.203125 64.796875 
C 28.09375 64.890625 31.203125 64.890625 33.203125 64.890625 
C 41.90625 64.890625 55.09375 64.890625 55.09375 50.09375 
C 55.09375 39.46875 48 35.1875 36.703125 35.1875 
z
M 47 33.890625 
C 59 36.78125 65.40625 43.34375 65.40625 50.09375 
C 65.40625 59.734375 53.203125 68 38.09375 68 
L 5.703125 68 
L 5.703125 64.890625 
L 8.09375 64.890625 
C 15.796875 64.890625 16 63.796875 16 60.21875 
L 16 7.921875 
C 16 4.359375 15.796875 3.265625 8.09375 3.265625 
L 5.703125 3.265625 
L 5.703125 0.1875 
C 9.296875 0.484375 16.40625 0.484375 20.296875 0.484375 
C 24.203125 0.484375 31.296875 0.484375 34.90625 0.1875 
L 34.90625 3.265625 
L 32.5 3.265625 
C 24.796875 3.265625 24.59375 4.359375 24.59375 7.921875 
L 24.59375 33 
L 37.09375 33 
C 42.5 33 45.703125 31.015625 47.40625 29.421875 
C 51.203125 25.75 51.203125 23.28125 51.203125 16.34375 
C 51.203125 9.5 51.203125 5.9375 55.5 2.078125 
C 59.203125 -1.109375 64.796875 -2 68.296875 -2 
C 76.296875 -2 78.203125 6.140625 78.203125 8.90625 
C 78.203125 9.5 78.203125 10.59375 76.90625 10.59375 
C 75.796875 10.59375 75.796875 9.703125 75.703125 9.015625 
C 74.90625 1.28125 70.796875 0.1875 68.703125 0.1875 
C 63.40625 0.1875 62.703125 4.65625 60.90625 16.140625 
C 59.796875 23.078125 59.40625 25.5625 56.203125 28.734375 
C 54.09375 30.90625 50.90625 32.796875 47 33.890625 
z
" id="CMCSC10-82"/>
      <path d="M 30.5 19 
L 30.5 24.796875 
L 2.59375 24.796875 
L 2.59375 19 
z
" id="CMCSC10-45"/>
      <path d="M 63.40625 62.0625 
C 60.09375 65.484375 54 71 43.703125 71 
C 24 71 7.203125 54.9375 7.203125 34.546875 
C 7.203125 14.046875 24 -2 43.796875 -2 
C 60.703125 -2 71.296875 11.640625 71.296875 23.59375 
C 71.296875 24.59375 71.296875 25.296875 70 25.296875 
C 68.90625 25.296875 68.90625 24.703125 68.796875 23.6875 
C 68 9.125 56.296875 1.09375 45.09375 1.09375 
C 36.296875 1.09375 17.5 6.3125 17.5 34.4375 
C 17.5 64.078125 38 67.890625 44.90625 67.890625 
C 55.59375 67.890625 65.796875 59.546875 68.09375 44.078125 
C 68.296875 42.671875 68.40625 42.375 69.703125 42.375 
C 71.296875 42.375 71.296875 42.671875 71.296875 44.78125 
L 71.296875 68.59375 
C 71.296875 70.296875 71.296875 71 70.203125 71 
C 69.796875 71 69.40625 71 68.59375 69.796875 
z
" id="CMCSC10-67"/>
      <path d="M 71.203125 68.59375 
C 71.203125 70.296875 71.203125 71 70.09375 71 
C 69.703125 71 69.296875 71 68.5 69.796875 
L 63.296875 62.125 
C 60.203125 65.109375 54.296875 71 43.703125 71 
C 23.796875 71 7.203125 54.859375 7.203125 34.859375 
C 7.203125 14.578125 23.59375 -2 43.90625 -2 
C 51.796875 -2 60.40625 0.59375 63.90625 6.609375 
C 65.203125 4.359375 69.203125 0.296875 70.296875 0.296875 
C 71.203125 0.296875 71.203125 1.09375 71.203125 2.625 
L 71.203125 20.390625 
C 71.203125 24.890625 72.296875 24.890625 78.5 24.890625 
L 78.5 28 
C 73.703125 27.796875 70.09375 27.6875 65.796875 27.6875 
C 61.703125 27.6875 52.796875 27.6875 49.203125 28 
L 49.203125 24.890625 
L 52.703125 24.890625 
C 62.296875 24.890625 62.296875 23.46875 62.296875 19.984375 
L 62.296875 13.453125 
C 62.296875 1.09375 46.796875 1.09375 45.59375 1.09375 
C 36.5 1.09375 17.5 6.40625 17.5 34.859375 
C 17.5 63.015625 36.703125 67.890625 44.90625 67.890625 
C 55.5 67.890625 65.703125 59.734375 68 44.3125 
C 68.203125 42.921875 68.296875 42.625 69.59375 42.625 
C 71.203125 42.625 71.203125 42.921875 71.203125 45 
z
" id="CMCSC10-71"/>
     </defs>
     <g transform="translate(89.294451 110.025395)scale(0.1 -0.1)">
      <use transform="scale(0.996264)" xlink:href="#CMCSC10-80"/>
      <use transform="translate(73.888826 0)scale(0.996264)" xlink:href="#CMCSC10-80"/>
      <use transform="translate(147.777651 0)scale(0.996264)" xlink:href="#CMCSC10-82"/>
      <use transform="translate(227.478027 0)scale(0.996264)" xlink:href="#CMCSC10-45"/>
      <use transform="translate(265.114311 0)scale(0.996264)" xlink:href="#CMCSC10-67"/>
      <use transform="translate(343.431036 0)scale(0.996264)" xlink:href="#CMCSC10-71"/>
     </g>
    </g>
    <g id="line2d_46">
     <path d="M 61.294451 120.462573 
L 81.294451 120.462573 
" style="fill:none;stroke:#859900;stroke-dasharray:1.5,2.475;stroke-dashoffset:0;stroke-width:1.5;"/>
    </g>
    <g id="line2d_47"/>
    <g id="text_21">
     <!-- \textsc{{PPR-M-CG}} -->
     <defs>
      <path d="M 74.40625 65.09375 
L 74.5 64.984375 
L 74.5 7.765625 
C 74.5 4.1875 74.296875 3.09375 66.59375 3.09375 
L 64.203125 3.09375 
L 64.203125 0 
C 67.90625 0.296875 74.703125 0.296875 78.59375 0.296875 
C 82.5 0.296875 89.203125 0.296875 92.90625 0 
L 92.90625 3.09375 
L 90.5 3.09375 
C 82.796875 3.09375 82.59375 4.1875 82.59375 7.765625 
L 82.59375 60.21875 
C 82.59375 63.796875 82.796875 64.890625 90.5 64.890625 
L 92.90625 64.890625 
L 92.90625 68 
L 76 68 
C 73.703125 68 73.40625 68 72.59375 66.09375 
L 49.40625 9.46875 
L 26.203125 66.1875 
C 25.5 68 24.90625 68 22.796875 68 
L 5.90625 68 
L 5.90625 64.890625 
L 8.296875 64.890625 
C 16 64.890625 16.203125 63.796875 16.203125 60.21875 
L 16.203125 10.453125 
C 16.203125 7.765625 16.203125 3.09375 5.90625 3.09375 
L 5.90625 0 
C 9.40625 0.09375 14.296875 0.296875 17.59375 0.296875 
C 20.90625 0.296875 25.796875 0.09375 29.296875 0 
L 29.296875 3.09375 
C 19 3.09375 19 7.765625 19 10.453125 
L 19 64.296875 
L 19.09375 64.390625 
L 44.703125 1.796875 
C 45.09375 0.890625 45.59375 0 46.59375 0 
C 47.59375 0 48.09375 0.890625 48.5 1.796875 
z
" id="CMCSC10-77"/>
     </defs>
     <g transform="translate(89.294451 123.962573)scale(0.1 -0.1)">
      <use transform="scale(0.996264)" xlink:href="#CMCSC10-80"/>
      <use transform="translate(73.888826 0)scale(0.996264)" xlink:href="#CMCSC10-80"/>
      <use transform="translate(147.777651 0)scale(0.996264)" xlink:href="#CMCSC10-82"/>
      <use transform="translate(227.478027 0)scale(0.996264)" xlink:href="#CMCSC10-45"/>
      <use transform="translate(265.114311 0)scale(0.996264)" xlink:href="#CMCSC10-77"/>
      <use transform="translate(363.632776 0)scale(0.996264)" xlink:href="#CMCSC10-45"/>
      <use transform="translate(401.26906 0)scale(0.996264)" xlink:href="#CMCSC10-67"/>
      <use transform="translate(479.585785 0)scale(0.996264)" xlink:href="#CMCSC10-71"/>
     </g>
    </g>
    <g id="line2d_48">
     <path d="M 61.294451 134.399752 
L 81.294451 134.399752 
" style="fill:none;stroke:#2aa198;stroke-linecap:square;stroke-width:1.5;"/>
    </g>
    <g id="line2d_49"/>
    <g id="text_22">
     <!-- \textsc{{PP-CG}} -->
     <g transform="translate(89.294451 137.899752)scale(0.1 -0.1)">
      <use transform="scale(0.996264)" xlink:href="#CMCSC10-80"/>
      <use transform="translate(73.888826 0)scale(0.996264)" xlink:href="#CMCSC10-80"/>
      <use transform="translate(147.777651 0)scale(0.996264)" xlink:href="#CMCSC10-45"/>
      <use transform="translate(185.413935 0)scale(0.996264)" xlink:href="#CMCSC10-67"/>
      <use transform="translate(263.73066 0)scale(0.996264)" xlink:href="#CMCSC10-71"/>
     </g>
    </g>
    <g id="line2d_50">
     <path d="M 61.294451 148.33693 
L 81.294451 148.33693 
" style="fill:none;stroke:#6c71c4;stroke-linecap:square;stroke-width:1.5;"/>
    </g>
    <g id="line2d_51"/>
    <g id="text_23">
     <!-- \textsc{{P-M-CG}} -->
     <g transform="translate(89.294451 151.83693)scale(0.1 -0.1)">
      <use transform="scale(0.996264)" xlink:href="#CMCSC10-80"/>
      <use transform="translate(73.888826 0)scale(0.996264)" xlink:href="#CMCSC10-45"/>
      <use transform="translate(111.52511 0)scale(0.996264)" xlink:href="#CMCSC10-77"/>
      <use transform="translate(210.043574 0)scale(0.996264)" xlink:href="#CMCSC10-45"/>
      <use transform="translate(247.679858 0)scale(0.996264)" xlink:href="#CMCSC10-67"/>
      <use transform="translate(325.996583 0)scale(0.996264)" xlink:href="#CMCSC10-71"/>
     </g>
    </g>
    <g id="line2d_52">
     <path d="M 61.294451 162.274108 
L 81.294451 162.274108 
" style="fill:none;stroke:#073642;stroke-dasharray:1.5,2.475;stroke-dashoffset:0;stroke-width:1.5;"/>
    </g>
    <g id="line2d_53"/>
    <g id="text_24">
     <!-- \textsc{{PR-CG}} -->
     <g transform="translate(89.294451 165.774108)scale(0.1 -0.1)">
      <use transform="scale(0.996264)" xlink:href="#CMCSC10-80"/>
      <use transform="translate(73.888826 0)scale(0.996264)" xlink:href="#CMCSC10-82"/>
      <use transform="translate(153.589202 0)scale(0.996264)" xlink:href="#CMCSC10-45"/>
      <use transform="translate(191.225486 0)scale(0.996264)" xlink:href="#CMCSC10-67"/>
      <use transform="translate(269.54221 0)scale(0.996264)" xlink:href="#CMCSC10-71"/>
     </g>
    </g>
    <g id="line2d_54">
     <path d="M 61.294451 176.211287 
L 81.294451 176.211287 
" style="fill:none;stroke:#93a1a1;stroke-linecap:square;stroke-width:1.5;"/>
    </g>
    <g id="line2d_55">
     <g>
      <use style="fill:#93a1a1;stroke:#93a1a1;stroke-linejoin:miter;" x="71.294451" xlink:href="#m5254910a6a" y="176.211287"/>
     </g>
    </g>
    <g id="text_25">
     <!-- \textsc{GV-CG} -->
     <defs>
      <path d="M 22.90625 60.328125 
C 22.703125 60.71875 22.40625 61.609375 22.40625 62.015625 
C 22.40625 64.890625 27.703125 64.890625 30.5 64.890625 
L 30.5 68 
C 27 67.6875 19.90625 67.6875 16.09375 67.6875 
C 11.296875 67.6875 7 67.890625 3.40625 68 
L 3.40625 64.890625 
C 11.09375 64.890625 11.90625 64.484375 13.296875 61.125 
L 38.203125 0 
C 38.796875 -1.40625 39 -2 40.59375 -2 
C 42.296875 -2 42.5 -1.5 43.09375 0 
L 66.796875 58.4375 
C 69.40625 64.890625 76 64.890625 77.90625 64.890625 
L 77.90625 68 
C 74.796875 67.796875 70.796875 67.6875 68.203125 67.6875 
C 65.203125 67.6875 59.40625 67.890625 56.796875 68 
L 56.796875 64.890625 
C 62.5 64.78125 63.90625 61.8125 63.90625 60.03125 
C 63.90625 59.53125 63.90625 59.328125 63.296875 58.046875 
L 43.59375 9.421875 
z
" id="CMCSC10-86"/>
     </defs>
     <g transform="translate(89.294451 179.711287)scale(0.1 -0.1)">
      <use transform="scale(0.996264)" xlink:href="#CMCSC10-71"/>
      <use transform="translate(84.820047 0)scale(0.996264)" xlink:href="#CMCSC10-86"/>
      <use transform="translate(165.904074 0)scale(0.996264)" xlink:href="#CMCSC10-45"/>
      <use transform="translate(203.540358 0)scale(0.996264)" xlink:href="#CMCSC10-67"/>
      <use transform="translate(281.857083 0)scale(0.996264)" xlink:href="#CMCSC10-71"/>
     </g>
    </g>
    <g id="line2d_56">
     <path d="M 61.294451 190.148465 
L 81.294451 190.148465 
" style="fill:none;stroke:#93a1a1;stroke-linecap:square;stroke-width:1.5;"/>
    </g>
    <g id="line2d_57">
     <g>
      <use style="fill:#93a1a1;stroke:#93a1a1;stroke-linejoin:miter;" x="71.294451" xlink:href="#mb4ebc2f303" y="190.148465"/>
     </g>
    </g>
    <g id="text_26">
     <!-- \textsc{M-CG} -->
     <g transform="translate(89.294451 193.648465)scale(0.1 -0.1)">
      <use transform="scale(0.996264)" xlink:href="#CMCSC10-77"/>
      <use transform="translate(98.518465 0)scale(0.996264)" xlink:href="#CMCSC10-45"/>
      <use transform="translate(136.154749 0)scale(0.996264)" xlink:href="#CMCSC10-67"/>
      <use transform="translate(214.471474 0)scale(0.996264)" xlink:href="#CMCSC10-71"/>
     </g>
    </g>
    <g id="line2d_58">
     <path d="M 61.294451 204.085643 
L 81.294451 204.085643 
" style="fill:none;stroke:#93a1a1;stroke-linecap:square;stroke-width:1.5;"/>
    </g>
    <g id="line2d_59">
     <g>
      <use style="fill:#93a1a1;stroke:#93a1a1;stroke-linejoin:miter;" x="71.294451" xlink:href="#m1641e8be72" y="204.085643"/>
     </g>
    </g>
    <g id="text_27">
     <!-- \textsc{CG-CG} -->
     <g transform="translate(89.294451 207.585643)scale(0.1 -0.1)">
      <use transform="scale(0.996264)" xlink:href="#CMCSC10-67"/>
      <use transform="translate(78.316725 0)scale(0.996264)" xlink:href="#CMCSC10-71"/>
      <use transform="translate(163.136772 0)scale(0.996264)" xlink:href="#CMCSC10-45"/>
      <use transform="translate(200.773056 0)scale(0.996264)" xlink:href="#CMCSC10-67"/>
      <use transform="translate(279.089781 0)scale(0.996264)" xlink:href="#CMCSC10-71"/>
     </g>
    </g>
    <g id="line2d_60">
     <path d="M 61.294451 218.022822 
L 81.294451 218.022822 
" style="fill:none;stroke:#93a1a1;stroke-linecap:square;stroke-width:1.5;"/>
    </g>
    <g id="line2d_61">
     <g>
      <use style="fill:#93a1a1;stroke:#93a1a1;" x="71.294451" xlink:href="#m7e6047e420" y="218.022822"/>
     </g>
    </g>
    <g id="text_28">
     <!-- \textsc{HS-CG} -->
     <defs>
      <path d="M 56.59375 37 
L 24.703125 37 
L 24.703125 60.21875 
C 24.703125 63.796875 24.90625 64.890625 32.59375 64.890625 
L 35 64.890625 
L 35 68 
C 31.5 67.6875 24.09375 67.6875 20.296875 67.6875 
C 16.5 67.6875 9 67.6875 5.5 68 
L 5.5 64.890625 
L 7.90625 64.890625 
C 15.59375 64.890625 15.796875 63.796875 15.796875 60.21875 
L 15.796875 7.78125 
C 15.796875 4.1875 15.59375 3.09375 7.90625 3.09375 
L 5.5 3.09375 
L 5.5 0 
C 9 0.296875 16.40625 0.296875 20.203125 0.296875 
C 24 0.296875 31.5 0.296875 35 0 
L 35 3.09375 
L 32.59375 3.09375 
C 24.90625 3.09375 24.703125 4.1875 24.703125 7.78125 
L 24.703125 33.890625 
L 56.59375 33.890625 
L 56.59375 7.78125 
C 56.59375 4.1875 56.40625 3.09375 48.703125 3.09375 
L 46.296875 3.09375 
L 46.296875 0 
C 49.796875 0.296875 57.203125 0.296875 61 0.296875 
C 64.796875 0.296875 72.296875 0.296875 75.796875 0 
L 75.796875 3.09375 
L 73.40625 3.09375 
C 65.703125 3.09375 65.5 4.1875 65.5 7.78125 
L 65.5 60.21875 
C 65.5 63.796875 65.703125 64.890625 73.40625 64.890625 
L 75.796875 64.890625 
L 75.796875 68 
C 72.296875 67.6875 64.90625 67.6875 61.09375 67.6875 
C 57.296875 67.6875 49.796875 67.6875 46.296875 68 
L 46.296875 64.890625 
L 48.703125 64.890625 
C 56.40625 64.890625 56.59375 63.796875 56.59375 60.21875 
z
" id="CMCSC10-72"/>
      <path d="M 24.40625 42.375 
C 15.703125 44.484375 13.59375 51.421875 13.59375 55.03125 
C 13.59375 61.859375 19.296875 68.1875 27.796875 68.1875 
C 41.59375 68.1875 46.90625 58.046875 48.296875 47.796875 
C 48.5 46.5 48.5 46 49.59375 46 
C 50.90625 46 50.90625 46.5 50.90625 48.40625 
L 50.90625 68.59375 
C 50.90625 70.296875 50.90625 71 49.796875 71 
C 49.09375 71 49.09375 70.890625 48.296875 69.6875 
L 44.59375 63.765625 
C 41.90625 66.484375 37.296875 71 27.703125 71 
C 16.09375 71 7.203125 62.171875 7.203125 51.515625 
C 7.203125 45.09375 10.59375 40.5625 11.90625 39.0625 
C 16.59375 34.140625 19.59375 33.4375 27.90625 31.421875 
C 29.5 31.03125 31.203125 30.71875 32.796875 30.328125 
C 38.703125 28.921875 40.703125 28.421875 43.796875 25 
C 44.40625 24.296875 47.40625 20.875 47.40625 15.453125 
C 47.40625 8.328125 42.09375 1.09375 33 1.09375 
C 28.796875 1.09375 22.09375 1.890625 16.59375 6.21875 
C 10.09375 11.34375 9.796875 18.671875 9.703125 22.09375 
C 9.59375 22.796875 9 22.984375 8.5 22.984375 
C 7.203125 22.984375 7.203125 22.28125 7.203125 20.484375 
L 7.203125 0.390625 
C 7.203125 -1.3125 7.203125 -2 8.296875 -2 
C 9 -2 9.203125 -1.703125 9.796875 -0.8125 
L 13.5 5.203125 
C 16.296875 2.296875 22.796875 -2 33.09375 -2 
C 45.59375 -2 53.796875 8.125 53.796875 18.765625 
C 53.796875 26.8125 49 36.34375 38 39.0625 
z
" id="CMCSC10-83"/>
     </defs>
     <g transform="translate(89.294451 221.522822)scale(0.1 -0.1)">
      <use transform="scale(0.996264)" xlink:href="#CMCSC10-72"/>
      <use transform="translate(81.084027 0)scale(0.996264)" xlink:href="#CMCSC10-83"/>
      <use transform="translate(141.966208 0)scale(0.996264)" xlink:href="#CMCSC10-45"/>
      <use transform="translate(179.602492 0)scale(0.996264)" xlink:href="#CMCSC10-67"/>
      <use transform="translate(257.919217 0)scale(0.996264)" xlink:href="#CMCSC10-71"/>
     </g>
    </g>
   </g>
  </g>
 </g>
 <defs>
  <clipPath id="pe1c2e21cdb">
   <rect height="221.76" width="334.8" x="52.294451" y="10.7"/>
  </clipPath>
 </defs>
</svg>
