<?xml version="1.0" encoding="utf-8" standalone="no"?>
<!DOCTYPE svg PUBLIC "-//W3C//DTD SVG 1.1//EN"
  "http://www.w3.org/Graphics/SVG/1.1/DTD/svg11.dtd">
<!-- Created with matplotlib (https://matplotlib.org/) -->
<svg height="268.371353pt" version="1.1" viewBox="0 0 507.791371 268.371353" width="507.791371pt" xmlns="http://www.w3.org/2000/svg" xmlns:xlink="http://www.w3.org/1999/xlink">
 <defs>
  <style type="text/css">
*{stroke-linecap:butt;stroke-linejoin:round;}
  </style>
 </defs>
 <g id="figure_1">
  <g id="patch_1">
   <path d="M -0 268.371353 
L 507.791371 268.371353 
L 507.791371 0 
L -0 0 
z
" style="fill:#ffffff;"/>
  </g>
  <g id="axes_1">
   <g id="patch_2">
    <path d="M 52.294451 232.46 
L 387.094451 232.46 
L 387.094451 10.7 
L 52.294451 10.7 
z
" style="fill:#ffffff;"/>
   </g>
   <g id="matplotlib.axis_1">
    <g id="xtick_1">
     <g id="line2d_1">
      <path clip-path="url(#p613fef0762)" d="M 67.512633 232.46 
L 67.512633 10.7 
" style="fill:none;stroke:#b0b0b0;stroke-dasharray:0.8,1.32;stroke-dashoffset:0;stroke-width:0.8;"/>
     </g>
     <g id="line2d_2">
      <defs>
       <path d="M 0 0 
L 0 3.5 
" id="mb1e30e60d5" style="stroke:#000000;stroke-width:0.8;"/>
      </defs>
      <g>
       <use style="stroke:#000000;stroke-width:0.8;" x="67.512633" xlink:href="#mb1e30e60d5" y="232.46"/>
      </g>
     </g>
     <g id="text_1">
      <!-- $0$ -->
      <defs>
       <path d="M 42 31.84375 
C 42 37.96875 41.90625 48.421875 37.703125 56.453125 
C 34 63.484375 28.09375 66 22.90625 66 
C 18.09375 66 12 63.78125 8.203125 56.5625 
C 4.203125 49.015625 3.796875 39.671875 3.796875 31.84375 
C 3.796875 26.109375 3.90625 17.375 7 9.734375 
C 11.296875 -0.609375 19 -2 22.90625 -2 
C 27.5 -2 34.5 -0.109375 38.59375 9.4375 
C 41.59375 16.375 42 24.5 42 31.84375 
z
M 22.90625 -0.40625 
C 16.5 -0.40625 12.703125 5.125 11.296875 12.75 
C 10.203125 18.6875 10.203125 27.328125 10.203125 32.953125 
C 10.203125 40.6875 10.203125 47.109375 11.5 53.234375 
C 13.40625 61.78125 19 64.390625 22.90625 64.390625 
C 27 64.390625 32.296875 61.671875 34.203125 53.4375 
C 35.5 47.71875 35.59375 40.984375 35.59375 32.953125 
C 35.59375 26.421875 35.59375 18.375 34.40625 12.453125 
C 32.296875 1.5 26.40625 -0.40625 22.90625 -0.40625 
z
" id="CMR17-48"/>
      </defs>
      <g transform="translate(65.021965 246.378498)scale(0.1 -0.1)">
       <use transform="scale(0.996264)" xlink:href="#CMR17-48"/>
      </g>
     </g>
    </g>
    <g id="xtick_2">
     <g id="line2d_3">
      <path clip-path="url(#p613fef0762)" d="M 118.290684 232.46 
L 118.290684 10.7 
" style="fill:none;stroke:#b0b0b0;stroke-dasharray:0.8,1.32;stroke-dashoffset:0;stroke-width:0.8;"/>
     </g>
     <g id="line2d_4">
      <g>
       <use style="stroke:#000000;stroke-width:0.8;" x="118.290684" xlink:href="#mb1e30e60d5" y="232.46"/>
      </g>
     </g>
     <g id="text_2">
      <!-- $2000$ -->
      <defs>
       <path d="M 41.703125 15.46875 
L 39.90625 15.46875 
C 38.90625 8.390625 38.09375 7.1875 37.703125 6.59375 
C 37.203125 5.796875 30 5.796875 28.59375 5.796875 
L 9.40625 5.796875 
C 13 9.6875 20 16.765625 28.5 24.9375 
C 34.59375 30.71875 41.703125 37.5 41.703125 47.390625 
C 41.703125 59.1875 32.296875 66 21.796875 66 
C 10.796875 66 4.09375 56.296875 4.09375 47.296875 
C 4.09375 43.390625 7 42.890625 8.203125 42.890625 
C 9.203125 42.890625 12.203125 43.484375 12.203125 46.984375 
C 12.203125 50.09375 9.59375 51 8.203125 51 
C 7.59375 51 7 50.890625 6.59375 50.6875 
C 8.5 59.1875 14.296875 63.390625 20.40625 63.390625 
C 29.09375 63.390625 34.796875 56.5 34.796875 47.390625 
C 34.796875 38.703125 29.703125 31.21875 24 24.734375 
L 4.09375 2.296875 
L 4.09375 0 
L 39.296875 0 
z
" id="CMR17-50"/>
      </defs>
      <g transform="translate(108.328013 246.378498)scale(0.1 -0.1)">
       <use transform="scale(0.996264)" xlink:href="#CMR17-50"/>
       <use transform="translate(45.690477 0)scale(0.996264)" xlink:href="#CMR17-48"/>
       <use transform="translate(91.380954 0)scale(0.996264)" xlink:href="#CMR17-48"/>
       <use transform="translate(137.071431 0)scale(0.996264)" xlink:href="#CMR17-48"/>
      </g>
     </g>
    </g>
    <g id="xtick_3">
     <g id="line2d_5">
      <path clip-path="url(#p613fef0762)" d="M 169.068734 232.46 
L 169.068734 10.7 
" style="fill:none;stroke:#b0b0b0;stroke-dasharray:0.8,1.32;stroke-dashoffset:0;stroke-width:0.8;"/>
     </g>
     <g id="line2d_6">
      <g>
       <use style="stroke:#000000;stroke-width:0.8;" x="169.068734" xlink:href="#mb1e30e60d5" y="232.46"/>
      </g>
     </g>
     <g id="text_3">
      <!-- $4000$ -->
      <defs>
       <path d="M 33.59375 64.796875 
C 33.59375 66.890625 33.5 67 31.703125 67 
L 2 19.59375 
L 2 17 
L 27.796875 17 
L 27.796875 7.1875 
C 27.796875 3.59375 27.59375 2.59375 20.59375 2.59375 
L 18.703125 2.59375 
L 18.703125 0 
C 21.90625 0.1875 27.296875 0.1875 30.703125 0.1875 
C 34.09375 0.1875 39.5 0.1875 42.703125 0 
L 42.703125 2.59375 
L 40.796875 2.59375 
C 33.796875 2.59375 33.59375 3.59375 33.59375 7.1875 
L 33.59375 17 
L 43.796875 17 
L 43.796875 19.59375 
L 33.59375 19.59375 
z
M 28.09375 58.171875 
L 28.09375 19.59375 
L 4 19.59375 
z
" id="CMR17-52"/>
      </defs>
      <g transform="translate(159.106064 246.378498)scale(0.1 -0.1)">
       <use transform="scale(0.996264)" xlink:href="#CMR17-52"/>
       <use transform="translate(45.690477 0)scale(0.996264)" xlink:href="#CMR17-48"/>
       <use transform="translate(91.380954 0)scale(0.996264)" xlink:href="#CMR17-48"/>
       <use transform="translate(137.071431 0)scale(0.996264)" xlink:href="#CMR17-48"/>
      </g>
     </g>
    </g>
    <g id="xtick_4">
     <g id="line2d_7">
      <path clip-path="url(#p613fef0762)" d="M 219.846785 232.46 
L 219.846785 10.7 
" style="fill:none;stroke:#b0b0b0;stroke-dasharray:0.8,1.32;stroke-dashoffset:0;stroke-width:0.8;"/>
     </g>
     <g id="line2d_8">
      <g>
       <use style="stroke:#000000;stroke-width:0.8;" x="219.846785" xlink:href="#mb1e30e60d5" y="232.46"/>
      </g>
     </g>
     <g id="text_4">
      <!-- $6000$ -->
      <defs>
       <path d="M 10.59375 34.34375 
C 10.59375 58 21.796875 63.6875 28.296875 63.6875 
C 30.40625 63.6875 35.5 63.265625 37.5 59.09375 
C 35.90625 59.09375 32.90625 59.09375 32.90625 55.59375 
C 32.90625 52.890625 35.09375 52 36.5 52 
C 37.40625 52 40.09375 52.390625 40.09375 55.796875 
C 40.09375 62.296875 35.09375 66 28.203125 66 
C 16.296875 66 3.796875 53.296875 3.796875 31.421875 
C 3.796875 4.015625 15.09375 -2 23.09375 -2 
C 32.796875 -2 42 6.734375 42 20.234375 
C 42 32.828125 33.90625 42 23.703125 42 
C 17.59375 42 13.09375 37.96875 10.59375 30.921875 
z
M 23.09375 0.390625 
C 10.796875 0.390625 10.796875 18.9375 10.796875 22.65625 
C 10.796875 29.90625 14.203125 40.390625 23.5 40.390625 
C 25.203125 40.390625 30.09375 40.390625 33.40625 33.4375 
C 35.203125 29.515625 35.203125 25.375 35.203125 20.34375 
C 35.203125 14.90625 35.203125 10.875 33.09375 6.84375 
C 30.90625 2.703125 27.703125 0.390625 23.09375 0.390625 
z
" id="CMR17-54"/>
      </defs>
      <g transform="translate(209.884115 246.378498)scale(0.1 -0.1)">
       <use transform="scale(0.996264)" xlink:href="#CMR17-54"/>
       <use transform="translate(45.690477 0)scale(0.996264)" xlink:href="#CMR17-48"/>
       <use transform="translate(91.380954 0)scale(0.996264)" xlink:href="#CMR17-48"/>
       <use transform="translate(137.071431 0)scale(0.996264)" xlink:href="#CMR17-48"/>
      </g>
     </g>
    </g>
    <g id="xtick_5">
     <g id="line2d_9">
      <path clip-path="url(#p613fef0762)" d="M 270.624836 232.46 
L 270.624836 10.7 
" style="fill:none;stroke:#b0b0b0;stroke-dasharray:0.8,1.32;stroke-dashoffset:0;stroke-width:0.8;"/>
     </g>
     <g id="line2d_10">
      <g>
       <use style="stroke:#000000;stroke-width:0.8;" x="270.624836" xlink:href="#mb1e30e60d5" y="232.46"/>
      </g>
     </g>
     <g id="text_5">
      <!-- $8000$ -->
      <defs>
       <path d="M 27.203125 35.765625 
C 33.5 38.96875 39.90625 43.796875 39.90625 51.53125 
C 39.90625 60.6875 31.09375 66 23 66 
C 13.90625 66 5.90625 59.375 5.90625 50.234375 
C 5.90625 47.71875 6.5 43.390625 10.40625 39.578125 
C 11.40625 38.578125 15.59375 35.5625 18.296875 33.65625 
C 13.796875 31.34375 3.296875 25.8125 3.296875 14.765625 
C 3.296875 4.40625 13.09375 -2 22.796875 -2 
C 33.5 -2 42.5 5.71875 42.5 15.96875 
C 42.5 25.109375 36.40625 29.328125 32.40625 32.046875 
z
M 14.09375 44.609375 
C 13.296875 45.109375 9.296875 48.21875 9.296875 52.9375 
C 9.296875 59.078125 15.59375 63.6875 22.796875 63.6875 
C 30.703125 63.6875 36.5 58.0625 36.5 51.53125 
C 36.5 42.1875 26.09375 36.859375 25.59375 36.859375 
C 25.5 36.859375 25.40625 36.859375 24.59375 37.46875 
z
M 32.5 24 
C 34 22.90625 38.796875 19.578125 38.796875 13.453125 
C 38.796875 6.015625 31.40625 0.390625 23 0.390625 
C 13.90625 0.390625 7 6.921875 7 14.859375 
C 7 22.796875 13.09375 29.4375 20 32.546875 
z
" id="CMR17-56"/>
      </defs>
      <g transform="translate(260.662166 246.378498)scale(0.1 -0.1)">
       <use transform="scale(0.996264)" xlink:href="#CMR17-56"/>
       <use transform="translate(45.690477 0)scale(0.996264)" xlink:href="#CMR17-48"/>
       <use transform="translate(91.380954 0)scale(0.996264)" xlink:href="#CMR17-48"/>
       <use transform="translate(137.071431 0)scale(0.996264)" xlink:href="#CMR17-48"/>
      </g>
     </g>
    </g>
    <g id="xtick_6">
     <g id="line2d_11">
      <path clip-path="url(#p613fef0762)" d="M 321.402887 232.46 
L 321.402887 10.7 
" style="fill:none;stroke:#b0b0b0;stroke-dasharray:0.8,1.32;stroke-dashoffset:0;stroke-width:0.8;"/>
     </g>
     <g id="line2d_12">
      <g>
       <use style="stroke:#000000;stroke-width:0.8;" x="321.402887" xlink:href="#mb1e30e60d5" y="232.46"/>
      </g>
     </g>
     <g id="text_6">
      <!-- $10000$ -->
      <defs>
       <path d="M 26.59375 63.796875 
C 26.59375 65.890625 26.5 66 25.09375 66 
C 21.203125 61.359375 15.296875 59.890625 9.703125 59.6875 
C 9.40625 59.6875 8.90625 59.6875 8.796875 59.5 
C 8.703125 59.296875 8.703125 59.09375 8.703125 57 
C 11.796875 57 17 57.59375 21 59.984375 
L 21 7.296875 
C 21 3.796875 20.796875 2.59375 12.203125 2.59375 
L 9.203125 2.59375 
L 9.203125 0 
C 14 0.09375 19 0.1875 23.796875 0.1875 
C 28.59375 0.1875 33.59375 0.09375 38.40625 0 
L 38.40625 2.59375 
L 35.40625 2.59375 
C 26.796875 2.59375 26.59375 3.6875 26.59375 7.296875 
z
" id="CMR17-49"/>
      </defs>
      <g transform="translate(308.949549 246.378498)scale(0.1 -0.1)">
       <use transform="scale(0.996264)" xlink:href="#CMR17-49"/>
       <use transform="translate(45.690477 0)scale(0.996264)" xlink:href="#CMR17-48"/>
       <use transform="translate(91.380954 0)scale(0.996264)" xlink:href="#CMR17-48"/>
       <use transform="translate(137.071431 0)scale(0.996264)" xlink:href="#CMR17-48"/>
       <use transform="translate(182.761908 0)scale(0.996264)" xlink:href="#CMR17-48"/>
      </g>
     </g>
    </g>
    <g id="xtick_7">
     <g id="line2d_13">
      <path clip-path="url(#p613fef0762)" d="M 372.180938 232.46 
L 372.180938 10.7 
" style="fill:none;stroke:#b0b0b0;stroke-dasharray:0.8,1.32;stroke-dashoffset:0;stroke-width:0.8;"/>
     </g>
     <g id="line2d_14">
      <g>
       <use style="stroke:#000000;stroke-width:0.8;" x="372.180938" xlink:href="#mb1e30e60d5" y="232.46"/>
      </g>
     </g>
     <g id="text_7">
      <!-- $12000$ -->
      <g transform="translate(359.727599 246.378498)scale(0.1 -0.1)">
       <use transform="scale(0.996264)" xlink:href="#CMR17-49"/>
       <use transform="translate(45.690477 0)scale(0.996264)" xlink:href="#CMR17-50"/>
       <use transform="translate(91.380954 0)scale(0.996264)" xlink:href="#CMR17-48"/>
       <use transform="translate(137.071431 0)scale(0.996264)" xlink:href="#CMR17-48"/>
       <use transform="translate(182.761908 0)scale(0.996264)" xlink:href="#CMR17-48"/>
      </g>
     </g>
    </g>
    <g id="text_8">
     <!-- iteration $k$ -->
     <defs>
      <path d="M 15.5 61.890625 
C 15.5 64.09375 13.703125 66 11.40625 66 
C 9.203125 66 7.296875 64.1875 7.296875 61.890625 
C 7.296875 59.6875 9.09375 57.796875 11.40625 57.796875 
C 13.59375 57.796875 15.5 59.59375 15.5 61.890625 
z
M 3.796875 42.890625 
L 3.796875 40.296875 
C 9.40625 40.296875 10.203125 39.6875 10.203125 34.859375 
L 10.203125 6.921875 
C 10.203125 3.09375 9.796875 2.59375 3.40625 2.59375 
L 3.40625 0 
C 5.796875 0.1875 10.09375 0.1875 12.59375 0.1875 
C 15 0.1875 19.09375 0.1875 21.40625 0 
L 21.40625 2.59375 
C 15.5 2.59375 15.296875 3.203125 15.296875 6.8125 
L 15.296875 44 
z
" id="CMR17-105"/>
      <path d="M 15.09375 40.390625 
L 29.09375 40.390625 
L 29.09375 43 
L 15.09375 43 
L 15.09375 62 
L 13.296875 62 
C 13.09375 51.4375 9.59375 42.1875 1.09375 41.984375 
L 1.09375 40.390625 
L 9.796875 40.390625 
L 9.796875 12.15625 
C 9.796875 10.234375 9.796875 -1 21.40625 -1 
C 27.296875 -1 30.703125 4.8125 30.703125 12.25 
L 30.703125 17.984375 
L 28.90625 17.984375 
L 28.90625 12.34375 
C 28.90625 5.421875 26.203125 0.796875 22 0.796875 
C 19.09375 0.796875 15.09375 2.796875 15.09375 11.953125 
z
" id="CMR17-116"/>
      <path d="M 38.09375 23.484375 
C 38.5 23.890625 38.5 24.09375 38.5 25.09375 
C 38.5 35.171875 33.09375 44 21.703125 44 
C 11.09375 44 2.703125 33.984375 2.703125 21.78125 
C 2.703125 8.65625 12.203125 -1 22.796875 -1 
C 34 -1 38.40625 9.671875 38.40625 11.796875 
C 38.40625 12.5 37.796875 12.5 37.59375 12.5 
C 36.90625 12.5 36.796875 12.296875 36.40625 11.078125 
C 34.203125 4.21875 28.703125 0.796875 23.5 0.796875 
C 19.203125 0.796875 14.90625 3.21875 12.203125 7.65625 
C 9.09375 12.796875 9.09375 18.75 9.09375 23.484375 
z
M 9.203125 25 
C 9.90625 39.234375 17.59375 42.390625 21.59375 42.390625 
C 28.40625 42.390625 33 36.0625 33.09375 25 
z
" id="CMR17-101"/>
      <path d="M 15 23.703125 
C 15 33.34375 19.09375 42.390625 26.59375 42.390625 
C 27.296875 42.390625 28 42.296875 28.703125 41.984375 
C 28.703125 41.984375 26.5 41.28125 26.5 38.671875 
C 26.5 36.265625 28.40625 35.265625 29.90625 35.265625 
C 31.09375 35.265625 33.296875 35.96875 33.296875 38.78125 
C 33.296875 41.984375 30.09375 44 26.703125 44 
C 19.09375 44 15.796875 36.5625 14.796875 33.046875 
L 14.703125 33.046875 
L 14.703125 44 
L 3.09375 42.890625 
L 3.09375 40.28125 
C 9 40.28125 9.90625 39.6875 9.90625 34.859375 
L 9.90625 6.921875 
C 9.90625 3.09375 9.5 2.59375 3.09375 2.59375 
L 3.09375 0 
C 5.5 0.1875 10.09375 0.1875 12.703125 0.1875 
C 15.59375 0.1875 20.703125 0.1875 23.40625 0 
L 23.40625 2.59375 
C 16.203125 2.59375 15 2.59375 15 7.109375 
z
" id="CMR17-114"/>
      <path d="M 36 25.875 
C 36 32 36 35.546875 31.796875 39.59375 
C 28.09375 42.984375 23.796875 44 20.40625 44 
C 12.5 44 6.796875 37.625 6.796875 30.890625 
C 6.796875 27.1875 9.796875 27 10.40625 27 
C 11.703125 27 14 27.796875 14 30.59375 
C 14 33.09375 12.09375 34.1875 10.40625 34.1875 
C 10 34.1875 9.5 34.09375 9.203125 34 
C 11.296875 40.53125 16.703125 42.390625 20.203125 42.390625 
C 25.203125 42.390625 30.703125 37.828125 30.703125 29.296875 
L 30.703125 25.5 
C 24.796875 25.296875 17.703125 24.5 12.09375 21.453125 
C 5.796875 17.921875 4 12.84375 4 9 
C 4 1.203125 13 -1 18.296875 -1 
C 23.796875 -1 28.90625 2.109375 31.09375 7.890625 
C 31.296875 3.421875 34.09375 -0.609375 38.5 -0.609375 
C 40.59375 -0.609375 45.90625 0.796875 45.90625 8.796875 
L 45.90625 14.46875 
L 44.09375 14.46875 
L 44.09375 8.703125 
C 44.09375 2.515625 41.40625 1.703125 40.09375 1.703125 
C 36 1.703125 36 6.96875 36 11.4375 
z
M 30.703125 13.859375 
C 30.703125 5.046875 24.5 0.59375 19 0.59375 
C 14 0.59375 10.09375 4.34375 10.09375 9 
C 10.09375 12.046875 11.40625 17.40625 17.203125 20.65625 
C 22 23.390625 27.5 23.796875 30.703125 24 
z
" id="CMR17-97"/>
      <path d="M 43.09375 21.1875 
C 43.09375 34 33.796875 44 22.90625 44 
C 12 44 2.703125 34 2.703125 21.1875 
C 2.703125 8.59375 12 -1 22.90625 -1 
C 33.796875 -1 43.09375 8.59375 43.09375 21.1875 
z
M 22.90625 0.796875 
C 18.203125 0.796875 14.203125 3.59375 11.90625 7.5 
C 9.40625 12 9.09375 17.59375 9.09375 22 
C 9.09375 26.1875 9.296875 31.390625 11.90625 35.890625 
C 13.90625 39.1875 17.796875 42.390625 22.90625 42.390625 
C 27.40625 42.390625 31.203125 39.890625 33.59375 36.390625 
C 36.703125 31.6875 36.703125 25.09375 36.703125 22 
C 36.703125 18.09375 36.5 12.09375 33.796875 7.296875 
C 31 2.6875 26.703125 0.796875 22.90625 0.796875 
z
" id="CMR17-111"/>
      <path d="M 41.5 30.53125 
C 41.5 35.65625 40.5 44 28.703125 44 
C 20.796875 44 16.703125 37.875 15.203125 33.84375 
L 15.09375 33.84375 
L 15.09375 44 
L 3.296875 42.890625 
L 3.296875 40.28125 
C 9.203125 40.28125 10.09375 39.6875 10.09375 34.859375 
L 10.09375 6.921875 
C 10.09375 3.09375 9.703125 2.59375 3.296875 2.59375 
L 3.296875 0 
C 5.703125 0.1875 10.09375 0.1875 12.703125 0.1875 
C 15.296875 0.1875 19.796875 0.1875 22.203125 0 
L 22.203125 2.59375 
C 15.796875 2.59375 15.40625 3 15.40625 6.921875 
L 15.40625 26.21875 
C 15.40625 35.453125 21 42.390625 28 42.390625 
C 35.40625 42.390625 36.203125 35.765625 36.203125 30.9375 
L 36.203125 6.921875 
C 36.203125 3.09375 35.796875 2.59375 29.40625 2.59375 
L 29.40625 0 
C 31.796875 0.1875 36.203125 0.1875 38.796875 0.1875 
C 41.40625 0.1875 45.90625 0.1875 48.296875 0 
L 48.296875 2.59375 
C 41.90625 2.59375 41.5 3 41.5 6.921875 
z
" id="CMR17-110"/>
      <path d="M 28.09375 66.484375 
C 28.203125 66.890625 28.40625 67.484375 28.40625 67.984375 
C 28.40625 69 27.40625 69 27.203125 69 
C 27.09375 69 23.5 68.6875 21.703125 68.484375 
C 20 68.390625 18.5 68.1875 16.703125 68.09375 
C 14.296875 67.890625 13.59375 67.796875 13.59375 65.984375 
C 13.59375 64.984375 14.59375 64.984375 15.59375 64.984375 
C 20.703125 64.984375 20.703125 64.109375 20.703125 63.125 
C 20.703125 62.71875 20.703125 62.53125 20.203125 60.75 
L 5.90625 3.90625 
C 5.5 2.390625 5.5 2.203125 5.5 1.59375 
C 5.5 -0.609375 7.203125 -1 8.203125 -1 
C 11 -1 11.59375 1.1875 12.40625 4.296875 
L 17.09375 23.0625 
C 24.296875 22.265625 28.59375 19.25 28.59375 14.4375 
C 28.59375 13.828125 28.59375 13.4375 28.296875 11.921875 
C 27.90625 10.421875 27.90625 9.21875 27.90625 8.71875 
C 27.90625 2.890625 31.703125 -1 36.796875 -1 
C 41.40625 -1 43.796875 3.203125 44.59375 4.609375 
C 46.703125 8.3125 48 13.9375 48 14.328125 
C 48 14.828125 47.59375 15.234375 47 15.234375 
C 46.09375 15.234375 46 14.828125 45.59375 13.234375 
C 44.203125 8.015625 42.09375 1 37 1 
C 35 1 33.703125 2 33.703125 5.8125 
C 33.703125 7.71875 34.09375 9.921875 34.5 11.421875 
C 34.90625 13.234375 34.90625 13.328125 34.90625 14.53125 
C 34.90625 20.453125 29.59375 23.765625 20.40625 24.96875 
C 24 27.171875 27.59375 31.078125 29 32.59375 
C 34.703125 38.984375 38.59375 41.984375 43.203125 41.984375 
C 45.5 41.984375 46.09375 41.484375 46.796875 41 
C 43.09375 40.59375 41.703125 37.984375 41.703125 35.984375 
C 41.703125 33.59375 43.59375 32.796875 45 32.796875 
C 47.703125 32.796875 50.09375 35.09375 50.09375 38.296875 
C 50.09375 41.15625 47.796875 44 43.296875 44 
C 37.796875 44 33.296875 40.296875 26.203125 32.296875 
C 25.203125 31.078125 21.5 27.28125 17.796875 25.875 
z
" id="CMMI12-107"/>
     </defs>
     <g transform="translate(196.885256 259.234175)scale(0.1 -0.1)">
      <use transform="scale(0.996264)" xlink:href="#CMR17-105"/>
      <use transform="translate(24.871058 0)scale(0.996264)" xlink:href="#CMR17-116"/>
      <use transform="translate(60.151826 0)scale(0.996264)" xlink:href="#CMR17-101"/>
      <use transform="translate(100.637487 0)scale(0.996264)" xlink:href="#CMR17-114"/>
      <use transform="translate(135.918255 0)scale(0.996264)" xlink:href="#CMR17-97"/>
      <use transform="translate(181.608732 0)scale(0.996264)" xlink:href="#CMR17-116"/>
      <use transform="translate(216.889499 0)scale(0.996264)" xlink:href="#CMR17-105"/>
      <use transform="translate(241.760558 0)scale(0.996264)" xlink:href="#CMR17-111"/>
      <use transform="translate(287.451035 0)scale(0.996264)" xlink:href="#CMR17-110"/>
      <use transform="translate(368.422371 0)scale(0.996264)" xlink:href="#CMMI12-107"/>
     </g>
    </g>
   </g>
   <g id="matplotlib.axis_2">
    <g id="ytick_1">
     <g id="line2d_15">
      <path clip-path="url(#p613fef0762)" d="M 52.294451 232.46 
L 387.094451 232.46 
" style="fill:none;stroke:#b0b0b0;stroke-dasharray:0.8,1.32;stroke-dashoffset:0;stroke-width:0.8;"/>
     </g>
     <g id="line2d_16">
      <defs>
       <path d="M 0 0 
L -3.5 0 
" id="m4d4a14a744" style="stroke:#000000;stroke-width:0.8;"/>
      </defs>
      <g>
       <use style="stroke:#000000;stroke-width:0.8;" x="52.294451" xlink:href="#m4d4a14a744" y="232.46"/>
      </g>
     </g>
     <g id="text_9">
      <!-- $10^{-16}$ -->
      <defs>
       <path d="M 65.90625 23 
C 67.59375 23 69.40625 23 69.40625 25 
C 69.40625 27 67.59375 27 65.90625 27 
L 11.796875 27 
C 10.09375 27 8.296875 27 8.296875 25 
C 8.296875 23 10.09375 23 11.796875 23 
z
" id="CMSY10-0"/>
      </defs>
      <g transform="translate(21.16264 235.919249)scale(0.1 -0.1)">
       <use transform="scale(0.996264)" xlink:href="#CMR17-49"/>
       <use transform="translate(45.690477 0)scale(0.996264)" xlink:href="#CMR17-48"/>
       <use transform="translate(91.380954 36.153639)scale(0.697382)" xlink:href="#CMSY10-0"/>
       <use transform="translate(145.621947 36.153639)scale(0.697382)" xlink:href="#CMR17-49"/>
       <use transform="translate(177.605129 36.153639)scale(0.697382)" xlink:href="#CMR17-54"/>
      </g>
     </g>
    </g>
    <g id="ytick_2">
     <g id="line2d_17">
      <path clip-path="url(#p613fef0762)" d="M 52.294451 205.900278 
L 387.094451 205.900278 
" style="fill:none;stroke:#b0b0b0;stroke-dasharray:0.8,1.32;stroke-dashoffset:0;stroke-width:0.8;"/>
     </g>
     <g id="line2d_18">
      <g>
       <use style="stroke:#000000;stroke-width:0.8;" x="52.294451" xlink:href="#m4d4a14a744" y="205.900278"/>
      </g>
     </g>
     <g id="text_10">
      <!-- $10^{-14}$ -->
      <g transform="translate(21.16264 209.359527)scale(0.1 -0.1)">
       <use transform="scale(0.996264)" xlink:href="#CMR17-49"/>
       <use transform="translate(45.690477 0)scale(0.996264)" xlink:href="#CMR17-48"/>
       <use transform="translate(91.380954 36.153639)scale(0.697382)" xlink:href="#CMSY10-0"/>
       <use transform="translate(145.621947 36.153639)scale(0.697382)" xlink:href="#CMR17-49"/>
       <use transform="translate(177.605129 36.153639)scale(0.697382)" xlink:href="#CMR17-52"/>
      </g>
     </g>
    </g>
    <g id="ytick_3">
     <g id="line2d_19">
      <path clip-path="url(#p613fef0762)" d="M 52.294451 179.340556 
L 387.094451 179.340556 
" style="fill:none;stroke:#b0b0b0;stroke-dasharray:0.8,1.32;stroke-dashoffset:0;stroke-width:0.8;"/>
     </g>
     <g id="line2d_20">
      <g>
       <use style="stroke:#000000;stroke-width:0.8;" x="52.294451" xlink:href="#m4d4a14a744" y="179.340556"/>
      </g>
     </g>
     <g id="text_11">
      <!-- $10^{-12}$ -->
      <g transform="translate(21.16264 182.799805)scale(0.1 -0.1)">
       <use transform="scale(0.996264)" xlink:href="#CMR17-49"/>
       <use transform="translate(45.690477 0)scale(0.996264)" xlink:href="#CMR17-48"/>
       <use transform="translate(91.380954 36.153639)scale(0.697382)" xlink:href="#CMSY10-0"/>
       <use transform="translate(145.621947 36.153639)scale(0.697382)" xlink:href="#CMR17-49"/>
       <use transform="translate(177.605129 36.153639)scale(0.697382)" xlink:href="#CMR17-50"/>
      </g>
     </g>
    </g>
    <g id="ytick_4">
     <g id="line2d_21">
      <path clip-path="url(#p613fef0762)" d="M 52.294451 152.780834 
L 387.094451 152.780834 
" style="fill:none;stroke:#b0b0b0;stroke-dasharray:0.8,1.32;stroke-dashoffset:0;stroke-width:0.8;"/>
     </g>
     <g id="line2d_22">
      <g>
       <use style="stroke:#000000;stroke-width:0.8;" x="52.294451" xlink:href="#m4d4a14a744" y="152.780834"/>
      </g>
     </g>
     <g id="text_12">
      <!-- $10^{-10}$ -->
      <g transform="translate(21.16264 156.240083)scale(0.1 -0.1)">
       <use transform="scale(0.996264)" xlink:href="#CMR17-49"/>
       <use transform="translate(45.690477 0)scale(0.996264)" xlink:href="#CMR17-48"/>
       <use transform="translate(91.380954 36.153639)scale(0.697382)" xlink:href="#CMSY10-0"/>
       <use transform="translate(145.621947 36.153639)scale(0.697382)" xlink:href="#CMR17-49"/>
       <use transform="translate(177.605129 36.153639)scale(0.697382)" xlink:href="#CMR17-48"/>
      </g>
     </g>
    </g>
    <g id="ytick_5">
     <g id="line2d_23">
      <path clip-path="url(#p613fef0762)" d="M 52.294451 126.221112 
L 387.094451 126.221112 
" style="fill:none;stroke:#b0b0b0;stroke-dasharray:0.8,1.32;stroke-dashoffset:0;stroke-width:0.8;"/>
     </g>
     <g id="line2d_24">
      <g>
       <use style="stroke:#000000;stroke-width:0.8;" x="52.294451" xlink:href="#m4d4a14a744" y="126.221112"/>
      </g>
     </g>
     <g id="text_13">
      <!-- $10^{-8}$ -->
      <g transform="translate(25.133878 129.680361)scale(0.1 -0.1)">
       <use transform="scale(0.996264)" xlink:href="#CMR17-49"/>
       <use transform="translate(45.690477 0)scale(0.996264)" xlink:href="#CMR17-48"/>
       <use transform="translate(91.380954 36.153639)scale(0.697382)" xlink:href="#CMSY10-0"/>
       <use transform="translate(145.621947 36.153639)scale(0.697382)" xlink:href="#CMR17-56"/>
      </g>
     </g>
    </g>
    <g id="ytick_6">
     <g id="line2d_25">
      <path clip-path="url(#p613fef0762)" d="M 52.294451 99.66139 
L 387.094451 99.66139 
" style="fill:none;stroke:#b0b0b0;stroke-dasharray:0.8,1.32;stroke-dashoffset:0;stroke-width:0.8;"/>
     </g>
     <g id="line2d_26">
      <g>
       <use style="stroke:#000000;stroke-width:0.8;" x="52.294451" xlink:href="#m4d4a14a744" y="99.66139"/>
      </g>
     </g>
     <g id="text_14">
      <!-- $10^{-6}$ -->
      <g transform="translate(25.133878 103.120639)scale(0.1 -0.1)">
       <use transform="scale(0.996264)" xlink:href="#CMR17-49"/>
       <use transform="translate(45.690477 0)scale(0.996264)" xlink:href="#CMR17-48"/>
       <use transform="translate(91.380954 36.153639)scale(0.697382)" xlink:href="#CMSY10-0"/>
       <use transform="translate(145.621947 36.153639)scale(0.697382)" xlink:href="#CMR17-54"/>
      </g>
     </g>
    </g>
    <g id="ytick_7">
     <g id="line2d_27">
      <path clip-path="url(#p613fef0762)" d="M 52.294451 73.101668 
L 387.094451 73.101668 
" style="fill:none;stroke:#b0b0b0;stroke-dasharray:0.8,1.32;stroke-dashoffset:0;stroke-width:0.8;"/>
     </g>
     <g id="line2d_28">
      <g>
       <use style="stroke:#000000;stroke-width:0.8;" x="52.294451" xlink:href="#m4d4a14a744" y="73.101668"/>
      </g>
     </g>
     <g id="text_15">
      <!-- $10^{-4}$ -->
      <g transform="translate(25.133878 76.560918)scale(0.1 -0.1)">
       <use transform="scale(0.996264)" xlink:href="#CMR17-49"/>
       <use transform="translate(45.690477 0)scale(0.996264)" xlink:href="#CMR17-48"/>
       <use transform="translate(91.380954 36.153639)scale(0.697382)" xlink:href="#CMSY10-0"/>
       <use transform="translate(145.621947 36.153639)scale(0.697382)" xlink:href="#CMR17-52"/>
      </g>
     </g>
    </g>
    <g id="ytick_8">
     <g id="line2d_29">
      <path clip-path="url(#p613fef0762)" d="M 52.294451 46.541946 
L 387.094451 46.541946 
" style="fill:none;stroke:#b0b0b0;stroke-dasharray:0.8,1.32;stroke-dashoffset:0;stroke-width:0.8;"/>
     </g>
     <g id="line2d_30">
      <g>
       <use style="stroke:#000000;stroke-width:0.8;" x="52.294451" xlink:href="#m4d4a14a744" y="46.541946"/>
      </g>
     </g>
     <g id="text_16">
      <!-- $10^{-2}$ -->
      <g transform="translate(25.133878 50.001196)scale(0.1 -0.1)">
       <use transform="scale(0.996264)" xlink:href="#CMR17-49"/>
       <use transform="translate(45.690477 0)scale(0.996264)" xlink:href="#CMR17-48"/>
       <use transform="translate(91.380954 36.153639)scale(0.697382)" xlink:href="#CMSY10-0"/>
       <use transform="translate(145.621947 36.153639)scale(0.697382)" xlink:href="#CMR17-50"/>
      </g>
     </g>
    </g>
    <g id="ytick_9">
     <g id="line2d_31">
      <path clip-path="url(#p613fef0762)" d="M 52.294451 19.982224 
L 387.094451 19.982224 
" style="fill:none;stroke:#b0b0b0;stroke-dasharray:0.8,1.32;stroke-dashoffset:0;stroke-width:0.8;"/>
     </g>
     <g id="line2d_32">
      <g>
       <use style="stroke:#000000;stroke-width:0.8;" x="52.294451" xlink:href="#m4d4a14a744" y="19.982224"/>
      </g>
     </g>
     <g id="text_17">
      <!-- $10^{0}$ -->
      <g transform="translate(31.360543 23.441474)scale(0.1 -0.1)">
       <use transform="scale(0.996264)" xlink:href="#CMR17-49"/>
       <use transform="translate(45.690477 0)scale(0.996264)" xlink:href="#CMR17-48"/>
       <use transform="translate(91.380954 36.153639)scale(0.697382)" xlink:href="#CMR17-48"/>
      </g>
     </g>
    </g>
    <g id="text_18">
     <!-- $\mathbf{A}$-norm of error: $\| \mathbf{x}-\mathbf{x}_k \|_\mathbf{A}$ -->
     <defs>
      <path d="M 45.796875 67.703125 
C 45.09375 69.5 44.90625 70 42.5 70 
C 40 70 39.796875 69.5 39.09375 67.703125 
L 14.296875 6.703125 
C 13.59375 5.09375 13.59375 4.890625 10.796875 4.59375 
C 8.296875 4.296875 7.90625 4.296875 5.703125 4.296875 
L 3.90625 4.296875 
L 3.90625 0 
C 6.5 0.1875 12.5 0.1875 15.40625 0.1875 
C 18.09375 0.1875 25.40625 0.1875 27.703125 0 
L 27.703125 4.296875 
C 25.5 4.296875 21.703125 4.296875 18.90625 5.40625 
C 19.203125 6.3125 19.203125 6.5 19.40625 6.90625 
L 24.703125 20 
L 51.5 20 
L 57.796875 4.296875 
L 48.40625 4.296875 
L 48.40625 0 
C 51.59375 0.1875 61.296875 0.1875 65.09375 0.1875 
C 68.296875 0.1875 78.5 0.1875 81 0 
L 81 4.296875 
L 71.5 4.296875 
z
M 38.09375 53.03125 
L 49.703125 24.296875 
L 26.40625 24.296875 
z
" id="CMBX12-65"/>
      <path d="M 25.5 19.59375 
L 25.5 24 
L 0.40625 24 
L 0.40625 19.59375 
z
" id="CMR17-45"/>
      <path d="M 67.59375 30.53125 
C 67.59375 35.5625 66.703125 44 54.796875 44 
C 48 44 43.296875 39.375 41.5 33.953125 
L 41.40625 33.953125 
C 40.203125 42.1875 34.296875 44 28.703125 44 
C 20.796875 44 16.703125 37.875 15.203125 33.84375 
L 15.09375 33.84375 
L 15.09375 44 
L 3.296875 42.890625 
L 3.296875 40.28125 
C 9.203125 40.28125 10.09375 39.6875 10.09375 34.859375 
L 10.09375 6.921875 
C 10.09375 3.09375 9.703125 2.59375 3.296875 2.59375 
L 3.296875 0 
C 5.703125 0.1875 10.09375 0.1875 12.703125 0.1875 
C 15.296875 0.1875 19.796875 0.1875 22.203125 0 
L 22.203125 2.59375 
C 15.796875 2.59375 15.40625 3 15.40625 6.921875 
L 15.40625 26.21875 
C 15.40625 35.453125 21 42.390625 28 42.390625 
C 35.40625 42.390625 36.203125 35.765625 36.203125 30.9375 
L 36.203125 6.921875 
C 36.203125 3.09375 35.796875 2.59375 29.40625 2.59375 
L 29.40625 0 
C 31.796875 0.1875 36.203125 0.1875 38.796875 0.1875 
C 41.40625 0.1875 45.90625 0.1875 48.296875 0 
L 48.296875 2.59375 
C 41.90625 2.59375 41.5 3 41.5 6.921875 
L 41.5 26.21875 
C 41.5 35.453125 47.09375 42.390625 54.09375 42.390625 
C 61.5 42.390625 62.296875 35.765625 62.296875 30.9375 
L 62.296875 6.921875 
C 62.296875 3.09375 61.90625 2.59375 55.5 2.59375 
L 55.5 0 
C 57.90625 0.1875 62.296875 0.1875 64.90625 0.1875 
C 67.5 0.1875 72 0.1875 74.40625 0 
L 74.40625 2.59375 
C 68 2.59375 67.59375 3 67.59375 6.921875 
z
" id="CMR17-109"/>
      <path d="M 15.296875 40.390625 
L 26.703125 40.390625 
L 26.703125 43 
L 15.09375 43 
L 15.09375 55.296875 
C 15.09375 63.6875 19.296875 68.390625 23.59375 68.390625 
C 24.90625 68.390625 26.40625 68.171875 27.40625 67.796875 
C 26.59375 67.59375 24.5 66.890625 24.5 64.390625 
C 24.5 61.796875 26.5 61 27.90625 61 
C 29.296875 61 31.296875 61.796875 31.296875 64.390625 
C 31.296875 68.015625 27.703125 70 23.703125 70 
C 18 70 10.203125 65.796875 10.203125 55.09375 
L 10.203125 43 
L 2.203125 43 
L 2.203125 40.390625 
L 10.203125 40.390625 
L 10.203125 6.890625 
C 10.203125 3.09375 9.796875 2.59375 3.40625 2.59375 
L 3.40625 0 
C 5.796875 0.1875 10.40625 0.1875 13 0.1875 
C 15.90625 0.1875 21 0.1875 23.703125 0 
L 23.703125 2.59375 
C 16.5 2.59375 15.296875 2.59375 15.296875 7.09375 
z
" id="CMR17-102"/>
      <path d="M 16.59375 38.890625 
C 16.59375 41.390625 14.59375 43 12.5 43 
C 10.5 43 8.40625 41.390625 8.40625 38.890625 
C 8.40625 36.390625 10.40625 34.796875 12.5 34.796875 
C 14.5 34.796875 16.59375 36.390625 16.59375 38.890625 
z
M 16.59375 4.09375 
C 16.59375 6.59375 14.59375 8.1875 12.5 8.1875 
C 10.5 8.1875 8.40625 6.59375 8.40625 4.09375 
C 8.40625 1.59375 10.40625 0 12.5 0 
C 14.5 0 16.59375 1.59375 16.59375 4.09375 
z
" id="CMR17-58"/>
      <path d="M 17.203125 71.59375 
C 17.203125 73.1875 17.203125 75 15.203125 75 
C 13.203125 75 13.203125 72.796875 13.203125 71.296875 
L 13.203125 -21.3125 
C 13.203125 -22.90625 13.203125 -25 15.203125 -25 
C 17.203125 -25 17.203125 -23.203125 17.203125 -21.609375 
z
M 36.703125 71.296875 
C 36.703125 72.890625 36.703125 75 34.703125 75 
C 32.703125 75 32.703125 73.1875 32.703125 71.59375 
L 32.703125 -21.609375 
C 32.703125 -23.203125 32.703125 -25 34.703125 -25 
C 36.703125 -25 36.703125 -22.8125 36.703125 -21.3125 
z
" id="CMSY10-107"/>
      <path d="M 33.703125 24.46875 
L 45.296875 37.609375 
C 46.40625 38.90625 47.296875 39.6875 55.59375 39.6875 
L 55.59375 44 
C 50 43.796875 49.796875 43.796875 46.40625 43.796875 
C 43.5 43.796875 39.203125 43.796875 36.40625 44 
L 36.40625 39.6875 
C 38.296875 39.6875 40.40625 39.203125 40.40625 38.5 
C 40.40625 38.3125 39.90625 37.609375 39.703125 37.421875 
L 31 27.71875 
L 21.09375 39.6875 
L 25.296875 39.6875 
L 25.296875 44 
C 23 43.796875 16.203125 43.796875 13.5 43.796875 
C 10.5 43.796875 5.09375 43.796875 2.296875 44 
L 2.296875 39.6875 
L 9.40625 39.6875 
L 25 20.90625 
L 12 6.375 
C 10.796875 4.984375 10.09375 4.296875 1.796875 4.296875 
L 1.796875 0 
C 7.796875 0.1875 8 0.1875 11.09375 0.1875 
C 14 0.1875 18.203125 0.1875 21 0 
L 21 4.296875 
C 19.09375 4.296875 17 4.78125 17 5.484375 
C 17 5.578125 17 5.671875 17.703125 6.46875 
L 27.703125 17.640625 
L 38.796875 4.296875 
L 34.59375 4.296875 
L 34.59375 0 
C 37 0.1875 43.703125 0.1875 46.5 0.1875 
C 49.5 0.1875 54.796875 0.1875 57.59375 0 
L 57.59375 4.296875 
L 50.59375 4.296875 
z
" id="CMBX12-120"/>
     </defs>
     <g transform="translate(15.225462 183.362537)rotate(-90)scale(0.1 -0.1)">
      <use transform="translate(0 14.943915)scale(0.996264)" xlink:href="#CMBX12-65"/>
      <use transform="translate(84.636395 14.943915)scale(0.996264)" xlink:href="#CMR17-45"/>
      <use transform="translate(114.712361 14.943915)scale(0.996264)" xlink:href="#CMR17-110"/>
      <use transform="translate(165.607731 14.943915)scale(0.996264)" xlink:href="#CMR17-111"/>
      <use transform="translate(211.298208 14.943915)scale(0.996264)" xlink:href="#CMR17-114"/>
      <use transform="translate(246.578976 14.943915)scale(0.996264)" xlink:href="#CMR17-109"/>
      <use transform="translate(353.574532 14.943915)scale(0.996264)" xlink:href="#CMR17-111"/>
      <use transform="translate(399.265009 14.943915)scale(0.996264)" xlink:href="#CMR17-102"/>
      <use transform="translate(456.814488 14.943915)scale(0.996264)" xlink:href="#CMR17-101"/>
      <use transform="translate(497.300148 14.943915)scale(0.996264)" xlink:href="#CMR17-114"/>
      <use transform="translate(532.580916 14.943915)scale(0.996264)" xlink:href="#CMR17-114"/>
      <use transform="translate(567.861684 14.943915)scale(0.996264)" xlink:href="#CMR17-111"/>
      <use transform="translate(613.552161 14.943915)scale(0.996264)" xlink:href="#CMR17-114"/>
      <use transform="translate(648.832929 14.943915)scale(0.996264)" xlink:href="#CMR17-58"/>
      <use transform="translate(714.189648 14.943915)scale(0.996264)" xlink:href="#CMSY10-107"/>
      <use transform="translate(764.003031 14.943915)scale(0.996264)" xlink:href="#CMBX12-120"/>
      <use transform="translate(845.295413 14.943915)scale(0.996264)" xlink:href="#CMSY10-0"/>
      <use transform="translate(944.922088 14.943915)scale(0.996264)" xlink:href="#CMBX12-120"/>
      <use transform="translate(1004.075263 0)scale(0.697382)" xlink:href="#CMMI12-107"/>
      <use transform="translate(1042.428646 14.943915)scale(0.996264)" xlink:href="#CMSY10-107"/>
      <use transform="translate(1092.242029 0)scale(0.697382)" xlink:href="#CMBX12-65"/>
     </g>
    </g>
   </g>
   <g id="line2d_33">
    <path clip-path="url(#p613fef0762)" d="M 67.512633 19.982224 
L 67.817301 2.301451 
L 68.12197 3.098973 
L 68.426638 4.943317 
L 68.731306 5.283026 
L 69.340643 6.311371 
L 69.949979 6.533083 
L 70.863984 7.350965 
L 71.168653 7.996658 
L 72.691994 9.011908 
L 72.996662 9.236453 
L 73.910667 9.579992 
L 74.520004 9.945615 
L 75.434009 10.269212 
L 77.262019 10.861448 
L 82.136712 11.989449 
L 83.050716 12.324827 
L 85.488063 12.683148 
L 86.706736 13.187651 
L 87.925409 13.351312 
L 93.104771 13.810873 
L 94.018775 14.192501 
L 94.93278 14.664791 
L 96.151454 14.957753 
L 98.284132 15.093656 
L 110.166196 15.484906 
L 112.298874 15.916326 
L 113.822215 16.386214 
L 119.306245 18.374871 
L 120.829586 18.675563 
L 124.180938 18.90016 
L 128.446294 19.054155 
L 138.19568 19.086986 
L 167.139169 19.225636 
L 170.49052 19.602754 
L 173.232535 19.974444 
L 177.193223 20.585548 
L 179.630569 21.083228 
L 182.067915 21.819012 
L 183.286589 22.491511 
L 184.200594 23.271704 
L 184.505262 23.582112 
L 185.114599 24.478914 
L 187.856613 31.413748 
L 188.770618 32.838054 
L 189.684623 33.671794 
L 190.598628 34.134377 
L 192.12197 34.318401 
L 195.473321 34.711429 
L 199.434009 35.224462 
L 200.348014 35.416248 
L 201.262019 35.852079 
L 205.222707 38.504972 
L 206.136712 39.443912 
L 206.746048 40.238342 
L 211.316073 46.048426 
L 212.839414 47.84282 
L 214.058087 49.370026 
L 215.276761 50.923115 
L 215.886097 52.218174 
L 216.495434 54.411323 
L 216.800102 55.739082 
L 217.714107 61.319393 
L 218.93278 66.829173 
L 219.542117 68.154919 
L 220.456122 69.434025 
L 221.065458 69.861163 
L 221.979463 70.097203 
L 223.502805 70.158259 
L 231.424181 70.344902 
L 235.994205 70.406039 
L 243.001576 70.517282 
L 244.829586 70.99206 
L 246.048259 71.421296 
L 246.657596 71.845457 
L 247.571601 72.845758 
L 249.704279 76.33629 
L 250.313616 78.069925 
L 251.227621 81.887699 
L 252.141626 86.748335 
L 253.360299 92.983102 
L 253.969635 95.304053 
L 254.578972 96.94749 
L 256.102314 100.168404 
L 257.016318 102.024283 
L 258.234992 103.606357 
L 260.063001 105.131241 
L 260.672338 105.973893 
L 263.414353 111.826048 
L 265.242363 117.269556 
L 267.070372 121.210436 
L 268.289046 124.260675 
L 269.507719 125.793589 
L 271.03106 127.893445 
L 271.640397 128.848035 
L 272.249734 129.305445 
L 272.85907 129.535397 
L 274.077743 129.645448 
L 280.17111 129.668135 
L 336.839414 129.686613 
L 371.876269 129.686581 
L 371.876269 129.686581 
" style="fill:none;stroke:#93a1a1;stroke-linecap:square;stroke-width:1.5;"/>
    <defs>
     <path d="M 0 3 
C 0.795609 3 1.55874 2.683901 2.12132 2.12132 
C 2.683901 1.55874 3 0.795609 3 0 
C 3 -0.795609 2.683901 -1.55874 2.12132 -2.12132 
C 1.55874 -2.683901 0.795609 -3 0 -3 
C -0.795609 -3 -1.55874 -2.683901 -2.12132 -2.12132 
C -2.683901 -1.55874 -3 -0.795609 -3 0 
C -3 0.795609 -2.683901 1.55874 -2.12132 2.12132 
C -1.55874 2.683901 -0.795609 3 0 3 
z
" id="ma2e2b08caa" style="stroke:#93a1a1;"/>
    </defs>
    <g clip-path="url(#p613fef0762)">
     <use style="fill:#93a1a1;stroke:#93a1a1;" x="67.512633" xlink:href="#ma2e2b08caa" y="19.982224"/>
     <use style="fill:#93a1a1;stroke:#93a1a1;" x="128.446294" xlink:href="#ma2e2b08caa" y="19.054155"/>
     <use style="fill:#93a1a1;stroke:#93a1a1;" x="189.379955" xlink:href="#ma2e2b08caa" y="33.430397"/>
     <use style="fill:#93a1a1;stroke:#93a1a1;" x="250.313616" xlink:href="#ma2e2b08caa" y="78.069925"/>
     <use style="fill:#93a1a1;stroke:#93a1a1;" x="311.247277" xlink:href="#ma2e2b08caa" y="129.686679"/>
    </g>
   </g>
   <g id="line2d_34">
    <path clip-path="url(#p613fef0762)" d="M 67.512633 19.982224 
L 67.817301 2.301451 
L 68.12197 3.098973 
L 68.426638 4.943317 
L 68.731306 5.283026 
L 69.340643 6.311371 
L 69.949979 6.53322 
L 70.863984 7.355848 
L 71.168653 7.996458 
L 74.520004 9.945782 
L 75.434009 10.27129 
L 77.262019 10.861935 
L 82.44138 12.139666 
L 83.050716 12.326996 
L 85.488063 12.688567 
L 86.706736 13.188269 
L 87.925409 13.352104 
L 93.104771 13.812797 
L 94.018775 14.208175 
L 94.93278 14.673977 
L 96.151454 14.960387 
L 98.284132 15.093895 
L 110.166196 15.489551 
L 112.603542 16.002901 
L 114.126884 16.511146 
L 118.39224 18.145342 
L 120.524918 18.650187 
L 124.180938 18.905264 
L 129.360299 19.066877 
L 145.812387 19.092807 
L 166.529832 19.19511 
L 169.576515 19.487254 
L 172.927866 19.965817 
L 176.279218 20.473668 
L 179.935237 21.227094 
L 181.763247 21.808349 
L 182.677252 22.274309 
L 183.591257 22.925272 
L 184.505262 24.009659 
L 184.80993 24.435005 
L 185.723935 26.633364 
L 186.333272 28.470816 
L 187.247277 30.755856 
L 188.770618 33.131995 
L 189.684623 33.818855 
L 190.29396 34.110826 
L 191.512633 34.294408 
L 194.559316 34.623759 
L 200.043345 35.451109 
L 200.95735 35.91886 
L 202.78536 37.004537 
L 204.308702 38.057527 
L 205.222707 38.91329 
L 207.355385 41.527234 
L 209.488063 44.586457 
L 212.230078 47.647516 
L 213.448751 49.234591 
L 214.058087 49.929531 
L 214.972092 51.234875 
L 215.581429 52.803273 
L 216.190766 55.264352 
L 217.104771 60.850283 
L 218.628112 67.422289 
L 219.542117 68.977663 
L 220.151454 69.624477 
L 220.76079 69.951172 
L 221.674795 70.125454 
L 226.24482 70.198123 
L 237.822215 70.407782 
L 242.087571 70.499635 
L 243.610913 70.853732 
L 245.438923 71.532433 
L 246.352928 72.350964 
L 246.962264 73.244699 
L 248.790274 76.190566 
L 249.704279 79.11048 
L 250.618284 83.490146 
L 251.532289 88.346015 
L 253.360299 96.109805 
L 253.969635 97.568509 
L 256.406982 102.517387 
L 257.016318 103.308081 
L 257.625655 103.850825 
L 258.844328 104.839388 
L 259.758333 106.012154 
L 260.977006 108.396421 
L 262.500348 111.904649 
L 264.328358 117.189706 
L 264.937694 118.486075 
L 265.242363 118.972868 
L 266.765704 122.737911 
L 267.375041 123.928071 
L 267.984377 124.671034 
L 271.03106 127.824312 
L 271.945065 128.08973 
L 273.773075 128.190433 
L 276.819758 128.359483 
L 278.038431 128.62597 
L 279.257105 128.96822 
L 280.780446 129.067367 
L 287.178481 129.23144 
L 288.397154 129.492373 
L 289.615827 129.846219 
L 291.748505 129.941586 
L 296.31853 130.086674 
L 297.232535 130.354658 
L 298.451208 130.697653 
L 299.974549 130.826422 
L 301.802559 130.990578 
L 302.716564 131.27863 
L 303.935237 131.863554 
L 305.153911 132.010044 
L 310.333272 132.031579 
L 345.370127 132.199951 
L 353.900839 132.707079 
L 363.345557 133.05733 
L 366.696908 133.685535 
L 367.610913 134.157162 
L 368.524918 134.798319 
L 369.438923 135.231149 
L 370.657596 135.530815 
L 371.571601 135.76146 
L 371.876269 135.907147 
L 371.876269 135.907147 
" style="fill:none;stroke:#93a1a1;stroke-linecap:square;stroke-width:1.5;"/>
    <defs>
     <path d="M 0 -3 
L -3 3 
L 3 3 
z
" id="m71a04fa034" style="stroke:#93a1a1;stroke-linejoin:miter;"/>
    </defs>
    <g clip-path="url(#p613fef0762)">
     <use style="fill:#93a1a1;stroke:#93a1a1;stroke-linejoin:miter;" x="82.746048" xlink:href="#m71a04fa034" y="12.271747"/>
     <use style="fill:#93a1a1;stroke:#93a1a1;stroke-linejoin:miter;" x="143.679709" xlink:href="#m71a04fa034" y="19.092423"/>
     <use style="fill:#93a1a1;stroke:#93a1a1;stroke-linejoin:miter;" x="204.61337" xlink:href="#m71a04fa034" y="38.309589"/>
     <use style="fill:#93a1a1;stroke:#93a1a1;stroke-linejoin:miter;" x="265.547031" xlink:href="#m71a04fa034" y="119.785944"/>
     <use style="fill:#93a1a1;stroke:#93a1a1;stroke-linejoin:miter;" x="326.480692" xlink:href="#m71a04fa034" y="132.040235"/>
    </g>
   </g>
   <g id="line2d_35">
    <path clip-path="url(#p613fef0762)" d="M 67.512633 19.982224 
L 67.817301 2.301451 
L 68.12197 3.098973 
L 68.426638 4.943317 
L 68.731306 5.283026 
L 69.340643 6.311371 
L 69.949979 6.53315 
L 70.863984 7.355449 
L 71.168653 7.996842 
L 72.691994 9.011647 
L 72.996662 9.23638 
L 73.910667 9.579992 
L 74.520004 9.944648 
L 75.434009 10.269156 
L 77.262019 10.858722 
L 82.44138 12.125365 
L 83.050716 12.32327 
L 85.488063 12.673414 
L 86.706736 13.181334 
L 87.925409 13.348136 
L 91.276761 13.507558 
L 92.800102 13.712248 
L 94.018775 14.167017 
L 94.93278 14.654268 
L 96.151454 14.951346 
L 97.979463 15.083818 
L 110.470864 15.518294 
L 113.212879 16.145953 
L 116.56423 17.406094 
L 118.39224 18.098028 
L 119.915581 18.49923 
L 121.134255 18.69241 
L 125.704279 18.972443 
L 130.274304 19.071131 
L 162.569144 19.10458 
L 167.443837 19.214033 
L 170.795188 19.581798 
L 173.537203 19.961398 
L 176.583886 20.387871 
L 182.067915 21.604363 
L 183.286589 22.138662 
L 184.200594 22.721723 
L 185.114599 23.610085 
L 185.723935 24.51069 
L 186.333272 25.909017 
L 187.551945 29.394654 
L 188.46595 31.333853 
L 189.379955 32.81147 
L 190.598628 33.833593 
L 191.207965 34.108059 
L 192.426638 34.287556 
L 196.082657 34.700193 
L 199.434009 35.15334 
L 200.95735 35.38661 
L 201.871355 35.792864 
L 204.918038 37.666084 
L 206.136712 38.705727 
L 209.183395 42.407096 
L 210.402068 44.209469 
L 212.534746 46.57696 
L 215.886097 50.641391 
L 216.495434 51.721897 
L 217.104771 53.652377 
L 217.714107 56.511127 
L 218.628112 61.985684 
L 219.542117 66.14292 
L 219.846785 67.238524 
L 220.76079 68.817982 
L 221.370127 69.556312 
L 221.979463 69.915722 
L 222.5888 70.080867 
L 224.112142 70.154237 
L 233.252191 70.381491 
L 238.73622 70.407079 
L 243.915581 70.496024 
L 245.134255 70.741066 
L 247.266933 71.460484 
L 247.876269 71.896061 
L 248.790274 72.90099 
L 249.704279 74.323636 
L 250.618284 75.906014 
L 250.922952 76.472488 
L 251.532289 78.193974 
L 252.446294 82.141266 
L 254.274304 91.66652 
L 254.88364 94.331266 
L 255.797645 96.999252 
L 258.234992 102.042503 
L 259.148997 103.324621 
L 260.36767 104.280702 
L 260.977006 104.810941 
L 261.586343 105.486873 
L 262.500348 107.05794 
L 264.633026 111.494517 
L 265.851699 115.218397 
L 266.765704 117.447836 
L 269.812387 123.455628 
L 270.726392 124.252765 
L 273.163739 126.067372 
L 274.077743 126.319112 
L 275.601085 126.420294 
L 279.866441 126.614581 
L 280.780446 126.894431 
L 281.389783 127.359174 
L 282.608456 128.750691 
L 283.217793 129.044189 
L 284.436466 129.14657 
L 289.311159 129.176975 
L 371.876269 129.288671 
L 371.876269 129.288671 
" style="fill:none;stroke:#93a1a1;stroke-linecap:square;stroke-width:1.5;"/>
    <defs>
     <path d="M -0 3 
L 3 -3 
L -3 -3 
z
" id="m54d6aab568" style="stroke:#93a1a1;stroke-linejoin:miter;"/>
    </defs>
    <g clip-path="url(#p613fef0762)">
     <use style="fill:#93a1a1;stroke:#93a1a1;stroke-linejoin:miter;" x="97.979463" xlink:href="#m54d6aab568" y="15.083818"/>
     <use style="fill:#93a1a1;stroke:#93a1a1;stroke-linejoin:miter;" x="158.913124" xlink:href="#m54d6aab568" y="19.097033"/>
     <use style="fill:#93a1a1;stroke:#93a1a1;stroke-linejoin:miter;" x="219.846785" xlink:href="#m54d6aab568" y="67.238524"/>
     <use style="fill:#93a1a1;stroke:#93a1a1;stroke-linejoin:miter;" x="280.780446" xlink:href="#m54d6aab568" y="126.894431"/>
     <use style="fill:#93a1a1;stroke:#93a1a1;stroke-linejoin:miter;" x="341.714107" xlink:href="#m54d6aab568" y="129.287655"/>
    </g>
   </g>
   <g id="line2d_36">
    <path clip-path="url(#p613fef0762)" d="M 67.512633 19.982224 
L 67.817301 2.301451 
L 68.12197 3.098973 
L 68.426638 4.943317 
L 68.731306 5.283026 
L 69.340643 6.311371 
L 69.949979 6.533076 
L 70.863984 7.345467 
L 71.168653 7.994437 
L 74.520004 9.942228 
L 75.434009 10.265501 
L 77.262019 10.854245 
L 82.136712 11.977264 
L 83.050716 12.319051 
L 85.488063 12.655166 
L 86.706736 13.165731 
L 87.925409 13.344377 
L 90.972092 13.489302 
L 92.495434 13.633443 
L 93.409439 13.88237 
L 94.323444 14.324827 
L 95.237449 14.73056 
L 96.456122 14.980224 
L 98.893468 15.105486 
L 109.861527 15.42221 
L 111.384869 15.684368 
L 113.517547 16.197016 
L 116.868898 17.466236 
L 119.306245 18.297674 
L 121.438923 18.698452 
L 127.532289 19.021055 
L 133.625655 19.075506 
L 169.881183 19.251048 
L 179.021232 19.601396 
L 197.910667 19.896901 
L 274.382412 19.805646 
L 275.296417 19.615204 
L 275.601085 19.171395 
L 275.905753 20.931235 
L 276.51509 20.220692 
L 277.124427 20.058947 
L 278.952436 19.964457 
L 288.397154 19.939225 
L 340.495434 19.836263 
L 342.018775 19.704333 
L 342.628112 19.410236 
L 342.93278 18.509568 
L 343.237449 9.492815 
L 343.542117 19.537973 
L 343.846785 20.067639 
L 344.456122 20.082879 
L 347.502805 19.96824 
L 367.915581 19.946056 
L 371.876269 19.945811 
L 371.876269 19.945811 
" style="fill:none;stroke:#93a1a1;stroke-linecap:square;stroke-width:1.5;"/>
    <defs>
     <path d="M -3 3 
L 3 3 
L 3 -3 
L -3 -3 
z
" id="m6d1e80046e" style="stroke:#93a1a1;stroke-linejoin:miter;"/>
    </defs>
    <g clip-path="url(#p613fef0762)">
     <use style="fill:#93a1a1;stroke:#93a1a1;stroke-linejoin:miter;" x="113.212879" xlink:href="#m6d1e80046e" y="16.095084"/>
     <use style="fill:#93a1a1;stroke:#93a1a1;stroke-linejoin:miter;" x="174.14654" xlink:href="#m6d1e80046e" y="19.466238"/>
     <use style="fill:#93a1a1;stroke:#93a1a1;stroke-linejoin:miter;" x="235.0802" xlink:href="#m6d1e80046e" y="19.898522"/>
     <use style="fill:#93a1a1;stroke:#93a1a1;stroke-linejoin:miter;" x="296.013861" xlink:href="#m6d1e80046e" y="19.93906"/>
     <use style="fill:#93a1a1;stroke:#93a1a1;stroke-linejoin:miter;" x="356.947522" xlink:href="#m6d1e80046e" y="19.947935"/>
    </g>
   </g>
   <g id="line2d_37">
    <path clip-path="url(#p613fef0762)" d="M 67.512633 19.982224 
L 67.817301 2.301451 
L 68.12197 3.098973 
L 68.426638 4.943317 
L 68.731306 5.283026 
L 69.340643 6.311371 
L 69.949979 6.532856 
L 70.559316 6.956808 
L 70.863984 7.335543 
L 71.168653 7.993792 
L 74.520004 9.935764 
L 75.434009 10.251088 
L 77.566687 10.916309 
L 83.964721 12.39787 
L 85.183395 12.525509 
L 86.0974 12.88193 
L 87.011404 13.215199 
L 88.230078 13.359879 
L 93.104771 13.727168 
L 94.323444 14.199193 
L 95.237449 14.664282 
L 96.456122 14.95496 
L 98.284132 15.084013 
L 111.0802 15.542368 
L 113.822215 16.169203 
L 117.173567 17.406993 
L 119.001576 18.086008 
L 121.134255 18.595943 
L 122.657596 18.744136 
L 130.274304 19.063071 
L 144.289046 19.092007 
L 169.881183 19.21245 
L 173.232535 19.563556 
L 175.669881 19.926003 
L 180.239906 20.599136 
L 182.98192 21.136746 
L 186.028603 22.185937 
L 187.247277 23.034807 
L 187.856613 23.641457 
L 188.46595 24.549374 
L 189.075286 25.876267 
L 189.684623 28.231653 
L 189.989291 29.551331 
L 190.903296 34.853154 
L 191.207965 36.253938 
L 191.512633 36.43524 
L 191.817301 35.94392 
L 192.731306 33.922669 
L 193.340643 33.127791 
L 193.949979 32.62687 
L 194.559316 32.306236 
L 195.777989 32.115883 
L 205.222707 31.418954 
L 211.925409 30.257738 
L 215.581429 29.82617 
L 222.893468 29.53651 
L 232.642854 29.524583 
L 371.876269 29.526001 
L 371.876269 29.526001 
" style="fill:none;stroke:#6c71c4;stroke-linecap:square;stroke-width:1.5;"/>
   </g>
   <g id="line2d_38">
    <path clip-path="url(#p613fef0762)" d="M 67.512633 19.982224 
L 67.817301 2.301451 
L 68.12197 3.098973 
L 68.426638 4.943317 
L 68.731306 5.283026 
L 69.340643 6.311371 
L 69.949979 6.532901 
L 70.863984 7.345991 
L 71.168653 7.996592 
L 74.520004 9.94441 
L 75.434009 10.264837 
L 77.262019 10.856048 
L 82.136712 11.975382 
L 83.050716 12.320074 
L 85.488063 12.65996 
L 86.706736 13.167214 
L 87.925409 13.34527 
L 90.972092 13.490526 
L 92.495434 13.637737 
L 93.409439 13.888809 
L 94.323444 14.329635 
L 95.237449 14.736243 
L 96.456122 14.98096 
L 98.5888 15.098684 
L 110.166196 15.459614 
L 112.298874 15.87894 
L 113.822215 16.315584 
L 119.610913 18.393832 
L 121.134255 18.680768 
L 124.790274 18.917963 
L 129.360299 19.062596 
L 143.070372 19.09204 
L 167.748505 19.207618 
L 171.404525 19.610973 
L 174.14654 19.978568 
L 178.107228 20.576278 
L 180.239906 20.968691 
L 183.591257 22.054552 
L 184.505262 22.581373 
L 185.419267 23.404199 
L 186.028603 24.248158 
L 186.333272 24.744339 
L 187.856613 28.743985 
L 188.770618 31.012338 
L 189.989291 32.927604 
L 191.207965 33.888892 
L 191.817301 34.137885 
L 193.340643 34.321506 
L 196.691994 34.714401 
L 199.738677 35.137102 
L 201.262019 35.329034 
L 201.871355 35.538516 
L 203.090029 36.189963 
L 205.832043 37.934993 
L 206.746048 38.747966 
L 210.0974 42.839426 
L 211.620741 44.939186 
L 213.448751 46.884496 
L 216.495434 50.641066 
L 217.104771 51.76096 
L 217.714107 53.518297 
L 218.323444 56.59414 
L 219.846785 64.837293 
L 220.456122 67.125304 
L 221.674795 69.240729 
L 222.284132 69.769315 
L 222.893468 70.001462 
L 223.807473 70.128977 
L 227.158825 70.178661 
L 245.134255 70.556775 
L 246.657596 70.936987 
L 248.180938 71.483059 
L 249.094943 72.253439 
L 249.704279 73.063711 
L 251.227621 75.385579 
L 251.836957 76.676167 
L 252.750962 79.741166 
L 253.664967 84.139602 
L 254.578972 88.887574 
L 255.492977 93.551313 
L 256.71165 97.064345 
L 258.234992 100.265941 
L 259.453665 102.432841 
L 260.063001 103.173454 
L 260.672338 103.669867 
L 261.891011 104.573095 
L 262.805016 105.676706 
L 263.414353 106.611915 
L 264.328358 108.103718 
L 265.547031 109.945244 
L 266.461036 111.261445 
L 267.070372 111.846638 
L 267.679709 112.140996 
L 268.898382 112.467416 
L 270.726392 112.733634 
L 276.210422 113.166367 
L 277.429095 113.416552 
L 278.038431 113.747858 
L 278.647768 114.300408 
L 279.561773 115.29504 
L 280.780446 115.890382 
L 281.999119 116.134388 
L 284.436466 116.511699 
L 285.045802 116.784576 
L 285.959807 117.194395 
L 286.873812 117.269288 
L 295.709193 117.434048 
L 298.14654 117.789145 
L 302.107228 118.146069 
L 303.021232 118.475567 
L 305.458579 120.108335 
L 307.286589 120.861143 
L 307.895925 121.384263 
L 309.723935 123.332377 
L 310.333272 123.624113 
L 311.856613 123.919087 
L 313.075286 124.175492 
L 313.684623 124.493156 
L 314.29396 125.103759 
L 315.512633 126.746637 
L 316.12197 127.27957 
L 318.863984 128.334665 
L 319.777989 128.607095 
L 320.996662 128.70887 
L 331.050716 128.901785 
L 345.674795 128.958378 
L 371.876269 128.951894 
L 371.876269 128.951894 
" style="fill:none;stroke:#859900;stroke-dasharray:1.5,2.475;stroke-dashoffset:0;stroke-width:1.5;"/>
   </g>
   <g id="line2d_39">
    <path clip-path="url(#p613fef0762)" d="M 67.512633 19.982224 
L 67.817301 2.301451 
L 68.12197 3.098973 
L 68.426638 4.943317 
L 68.731306 5.283026 
L 69.340643 6.311371 
L 69.949979 6.532921 
L 70.863984 7.342448 
L 71.168653 7.995282 
L 74.520004 9.944351 
L 75.434009 10.265899 
L 77.262019 10.856517 
L 82.44138 12.121088 
L 83.050716 12.322016 
L 85.488063 12.666716 
L 86.706736 13.178874 
L 87.925409 13.346536 
L 91.276761 13.506832 
L 92.800102 13.706031 
L 94.018775 14.156025 
L 94.93278 14.644881 
L 96.151454 14.946923 
L 97.979463 15.083099 
L 110.470864 15.513868 
L 113.212879 16.132895 
L 116.868898 17.518442 
L 118.39224 18.080441 
L 120.22025 18.558992 
L 122.048259 18.750239 
L 128.446294 19.05066 
L 136.977006 19.083882 
L 168.053173 19.254737 
L 171.099857 19.611863 
L 174.14654 20.018303 
L 177.497891 20.533573 
L 180.239906 21.067957 
L 182.98192 21.919806 
L 184.200594 22.618705 
L 185.419267 23.854457 
L 186.028603 24.869058 
L 188.770618 31.64186 
L 189.684623 32.981347 
L 190.29396 33.522049 
L 191.207965 34.064973 
L 192.12197 34.251183 
L 196.082657 34.680989 
L 201.566687 35.566685 
L 202.78536 36.218304 
L 206.44138 38.842429 
L 208.26939 41.089982 
L 209.488063 42.652037 
L 211.620741 45.443892 
L 212.839414 46.77273 
L 213.753419 47.832836 
L 214.667424 49.020878 
L 215.886097 50.462159 
L 216.495434 51.390675 
L 217.104771 52.968329 
L 218.018775 57.392948 
L 219.237449 64.200544 
L 219.846785 66.738044 
L 220.456122 68.033295 
L 221.065458 69.038421 
L 221.674795 69.690778 
L 222.284132 69.970227 
L 223.198137 70.125526 
L 226.24482 70.174128 
L 232.947522 70.367979 
L 237.212879 70.406168 
L 243.915581 70.485698 
L 245.134255 70.718187 
L 246.962264 71.274976 
L 247.571601 71.543447 
L 248.485606 72.373467 
L 249.094943 73.221248 
L 250.922952 76.21751 
L 251.227621 76.856622 
L 251.836957 78.784423 
L 254.274304 91.01064 
L 254.88364 93.84886 
L 255.492977 95.87634 
L 256.71165 98.652851 
L 259.148997 103.164725 
L 260.063001 103.931047 
L 260.977006 104.618108 
L 261.891011 105.65364 
L 262.805016 107.282571 
L 264.937694 111.741874 
L 265.547031 113.742081 
L 267.070372 117.670236 
L 270.117056 123.981659 
L 271.335729 125.13038 
L 273.468407 127.028291 
L 274.382412 127.325913 
L 275.905753 127.426982 
L 280.780446 127.588559 
L 281.694451 127.830149 
L 283.522461 128.864542 
L 284.741134 128.998393 
L 287.787817 129.054495 
L 321.605999 129.399847 
L 371.876269 129.403165 
L 371.876269 129.403165 
" style="fill:none;stroke:#073642;stroke-dasharray:1.5,2.475;stroke-dashoffset:0;stroke-width:1.5;"/>
   </g>
   <g id="line2d_40">
    <path clip-path="url(#p613fef0762)" d="M 67.512633 19.982224 
L 67.817301 2.301451 
L 68.12197 3.098973 
L 68.426638 4.943317 
L 68.731306 5.283026 
L 69.340643 6.311371 
L 69.949979 6.533782 
L 70.863984 7.333211 
L 71.168653 7.993318 
L 74.520004 9.935234 
L 75.434009 10.253382 
L 77.871355 10.987527 
L 81.222707 11.788752 
L 82.136712 11.950222 
L 83.355385 12.350108 
L 85.488063 12.603966 
L 87.011404 13.211854 
L 88.230078 13.358143 
L 93.409439 13.810078 
L 94.323444 14.185725 
L 95.237449 14.65642 
L 96.456122 14.950653 
L 98.284132 15.082891 
L 111.0802 15.530427 
L 113.822215 16.150781 
L 117.478235 17.504965 
L 119.306245 18.157689 
L 121.438923 18.632871 
L 123.571601 18.793228 
L 128.750962 19.035254 
L 136.36767 19.081276 
L 170.185852 19.222166 
L 173.841871 19.634908 
L 177.802559 20.13819 
L 181.763247 20.775586 
L 184.200594 21.364089 
L 186.028603 21.979901 
L 186.942608 22.479821 
L 187.856613 23.211272 
L 188.46595 23.84891 
L 189.075286 24.9731 
L 189.684623 26.490988 
L 192.12197 35.006319 
L 192.731306 36.094633 
L 193.035974 36.358312 
L 193.645311 36.488245 
L 197.910667 36.171524 
L 207.964721 35.899065 
L 210.402068 35.428971 
L 216.190766 34.109394 
L 220.151454 33.773536 
L 225.940151 33.591561 
L 349.026146 33.580233 
L 371.876269 33.580298 
L 371.876269 33.580298 
" style="fill:none;stroke:#2aa198;stroke-linecap:square;stroke-width:1.5;"/>
   </g>
   <g id="line2d_41">
    <path clip-path="url(#p613fef0762)" d="M 67.512633 19.982224 
L 67.817301 2.301451 
L 68.12197 3.098973 
L 68.426638 4.943317 
L 68.731306 5.283026 
L 69.340643 6.311371 
L 69.949979 6.532869 
L 70.863984 7.344996 
L 71.168653 7.995821 
L 74.520004 9.94218 
L 75.434009 10.263551 
L 77.566687 10.92169 
L 83.964721 12.403494 
L 85.183395 12.547686 
L 87.620741 13.317091 
L 90.667424 13.474512 
L 92.495434 13.632245 
L 93.409439 13.882371 
L 94.323444 14.314077 
L 95.237449 14.72736 
L 96.456122 14.979473 
L 98.5888 15.09774 
L 110.470864 15.499316 
L 112.90821 16.009967 
L 114.431552 16.519583 
L 118.087571 17.956627 
L 120.22025 18.522635 
L 121.438923 18.704888 
L 129.360299 19.061549 
L 141.547031 19.091016 
L 168.053173 19.220289 
L 171.404525 19.59233 
L 180.239906 20.941989 
L 183.286589 21.823992 
L 184.200594 22.3024 
L 185.114599 22.973523 
L 185.723935 23.562836 
L 186.333272 24.455925 
L 186.942608 25.888935 
L 187.551945 27.51677 
L 188.46595 30.014613 
L 189.379955 31.783762 
L 190.29396 33.056669 
L 191.207965 33.79596 
L 192.12197 34.164736 
L 193.645311 34.330031 
L 197.301331 34.782503 
L 200.348014 35.169967 
L 201.566687 35.360916 
L 202.176024 35.582982 
L 205.222707 37.392131 
L 206.746048 38.59324 
L 207.660053 39.548838 
L 211.925409 45.065985 
L 214.058087 47.40237 
L 215.581429 49.315927 
L 216.495434 50.386694 
L 217.104771 51.29014 
L 217.714107 52.879865 
L 218.323444 55.272723 
L 220.151454 65.158229 
L 220.76079 67.301278 
L 221.674795 68.981617 
L 222.5888 69.823384 
L 223.502805 70.086157 
L 225.330815 70.159522 
L 232.642854 70.326682 
L 239.954893 70.408165 
L 245.134255 70.51502 
L 246.657596 70.870153 
L 247.876269 71.233756 
L 248.485606 71.522286 
L 249.399611 72.323729 
L 250.008947 73.144119 
L 251.836957 76.143999 
L 252.141626 76.786271 
L 252.750962 78.637653 
L 253.969635 84.32491 
L 254.578972 87.559157 
L 256.406982 95.751213 
L 257.625655 98.451788 
L 258.234992 99.670836 
L 258.844328 100.945696 
L 259.453665 102.040924 
L 260.36767 103.212543 
L 262.500348 104.864744 
L 262.805016 105.182952 
L 267.375041 112.473462 
L 267.984377 112.91712 
L 270.117056 113.790215 
L 271.335729 114.118347 
L 272.85907 114.467759 
L 274.077743 115.046505 
L 274.991748 115.465599 
L 277.124427 116.420255 
L 277.733763 116.984879 
L 278.647768 118.004989 
L 279.257105 118.37222 
L 280.17111 118.536891 
L 282.913124 118.594311 
L 286.569144 118.709243 
L 287.787817 118.934418 
L 289.311159 119.240012 
L 292.357842 119.308767 
L 297.841871 119.522839 
L 303.325901 119.82293 
L 303.935237 120.084022 
L 304.544574 120.616715 
L 305.153911 121.51875 
L 306.372584 123.614242 
L 306.98192 124.113967 
L 307.895925 124.445836 
L 309.723935 124.901277 
L 310.63794 125.380785 
L 312.770618 126.759626 
L 314.29396 127.453968 
L 314.903296 128.03635 
L 315.512633 128.977162 
L 316.731306 131.288148 
L 317.340643 131.732186 
L 320.691994 133.083779 
L 321.605999 133.264443 
L 323.738677 133.385583 
L 331.355385 133.591554 
L 350.549488 133.630199 
L 371.876269 133.604285 
L 371.876269 133.604285 
" style="fill:none;stroke:#073642;stroke-linecap:square;stroke-width:1.5;"/>
   </g>
   <g id="patch_3">
    <path d="M 52.294451 232.46 
L 52.294451 10.7 
" style="fill:none;stroke:#000000;stroke-linecap:square;stroke-linejoin:miter;stroke-width:0.8;"/>
   </g>
   <g id="patch_4">
    <path d="M 387.094451 232.46 
L 387.094451 10.7 
" style="fill:none;stroke:#000000;stroke-linecap:square;stroke-linejoin:miter;stroke-width:0.8;"/>
   </g>
   <g id="patch_5">
    <path d="M 52.294451 232.46 
L 387.094451 232.46 
" style="fill:none;stroke:#000000;stroke-linecap:square;stroke-linejoin:miter;stroke-width:0.8;"/>
   </g>
   <g id="patch_6">
    <path d="M 52.294451 10.7 
L 387.094451 10.7 
" style="fill:none;stroke:#000000;stroke-linecap:square;stroke-linejoin:miter;stroke-width:0.8;"/>
   </g>
   <g id="legend_1">
    <g id="patch_7">
     <path d="M 394.094451 144.134605 
L 498.591371 144.134605 
Q 500.591371 144.134605 500.591371 142.134605 
L 500.591371 17.7 
Q 500.591371 15.7 498.591371 15.7 
L 394.094451 15.7 
Q 392.094451 15.7 392.094451 17.7 
L 392.094451 142.134605 
Q 392.094451 144.134605 394.094451 144.134605 
z
" style="fill:#ffffff;opacity:0.8;stroke:#cccccc;stroke-linejoin:miter;"/>
    </g>
    <g id="line2d_42">
     <path d="M 396.094451 23.2 
L 416.094451 23.2 
" style="fill:none;stroke:#073642;stroke-linecap:square;stroke-width:1.5;"/>
    </g>
    <g id="line2d_43"/>
    <g id="text_19">
     <!-- \textsc{pipe-PR-CG} -->
     <defs>
      <path d="M 32.296875 23 
C 42.296875 23 50.703125 29.296875 50.703125 36.890625 
C 50.703125 44.09375 43.09375 51 31.59375 51 
L 4.5 51 
L 4.5 48.484375 
C 11.203125 48.484375 11.703125 47.890625 11.703125 43.796875 
L 11.703125 7.109375 
C 11.703125 3.078125 11.203125 2.5 4.5 2.5 
L 4.5 0 
C 7.40625 0.09375 13.09375 0.296875 15.296875 0.296875 
C 17.5 0.296875 23.09375 0.09375 26.09375 0 
L 26.09375 2.5 
C 19.40625 2.5 18.90625 3.078125 18.90625 7.109375 
L 18.90625 23 
z
M 18.59375 44.1875 
C 18.59375 48.1875 19.09375 48.484375 22.59375 48.484375 
L 29.5 48.484375 
C 42.09375 48.484375 42.09375 40.890625 42.09375 36.890625 
C 42.09375 33 42.09375 25.296875 29.5 25.296875 
L 18.59375 25.296875 
z
" id="CMCSC10-112"/>
      <path d="M 18.703125 43.734375 
C 18.703125 48 19.203125 48.484375 26.296875 48.484375 
L 26.296875 51 
C 22.90625 50.890625 17.703125 50.6875 15.09375 50.6875 
C 12.5 50.6875 7.296875 50.890625 3.90625 51 
L 3.90625 48.484375 
C 11 48.484375 11.5 48 11.5 43.734375 
L 11.5 7.25 
C 11.5 2.984375 11 2.5 3.90625 2.5 
L 3.90625 0 
C 7.296875 0.09375 12.5 0.296875 15.09375 0.296875 
C 17.703125 0.296875 22.90625 0.09375 26.296875 0 
L 26.296875 2.5 
C 19.203125 2.5 18.703125 2.984375 18.703125 7.25 
z
" id="CMCSC10-105"/>
      <path d="M 48.796875 50.6875 
L 4.296875 50.6875 
L 4.296875 48.1875 
C 11 48.1875 11.5 47.59375 11.5 43.515625 
L 11.5 7.125 
C 11.5 3.078125 11 2.5 4.296875 2.5 
L 4.296875 0 
L 50 0 
L 52.90625 19.171875 
L 50.40625 19.171875 
C 48.703125 7.234375 46.296875 2.5 33.5 2.5 
L 22.703125 2.5 
C 19.203125 2.5 18.703125 2.78125 18.703125 6.734375 
L 18.703125 25 
L 25.703125 25 
C 33.09375 25 34.296875 23.015625 34.296875 16.40625 
L 36.796875 16.40625 
L 36.796875 36.15625 
L 34.296875 36.15625 
C 34.296875 29.484375 33.09375 27.5 25.703125 27.5 
L 18.703125 27.5 
L 18.703125 43.90625 
C 18.703125 47.890625 19.203125 48.1875 22.703125 48.1875 
L 32.90625 48.1875 
C 44.5 48.1875 47.09375 44.703125 48.203125 33.859375 
L 50.703125 33.859375 
z
" id="CMCSC10-101"/>
      <path d="M 30.5 19 
L 30.5 24.796875 
L 2.59375 24.796875 
L 2.59375 19 
z
" id="CMCSC10-45"/>
      <path d="M 43 31.390625 
C 55.203125 31.390625 66.90625 39.171875 66.90625 49.4375 
C 66.90625 59.3125 56.296875 68 42.203125 68 
L 5.703125 68 
L 5.703125 64.890625 
L 8.09375 64.890625 
C 15.796875 64.890625 16 63.796875 16 60.203125 
L 16 7.765625 
C 16 4.1875 15.796875 3.09375 8.09375 3.09375 
L 5.703125 3.09375 
L 5.703125 0 
C 9.203125 0.296875 16.59375 0.296875 20.40625 0.296875 
C 24.203125 0.296875 31.703125 0.296875 35.203125 0 
L 35.203125 3.09375 
L 32.796875 3.09375 
C 25.09375 3.09375 24.90625 4.1875 24.90625 7.765625 
L 24.90625 31.390625 
z
M 24.59375 60.90625 
C 24.59375 64.1875 24.796875 64.890625 29.5 64.890625 
L 39.59375 64.890625 
C 56.59375 64.890625 56.59375 53.921875 56.59375 49.4375 
C 56.59375 45.15625 56.59375 34 39.59375 34 
L 24.59375 34 
z
" id="CMCSC10-80"/>
      <path d="M 24.59375 35.1875 
L 24.59375 60.921875 
C 24.59375 63.609375 24.796875 64.5 27.203125 64.796875 
C 28.09375 64.890625 31.203125 64.890625 33.203125 64.890625 
C 41.90625 64.890625 55.09375 64.890625 55.09375 50.09375 
C 55.09375 39.46875 48 35.1875 36.703125 35.1875 
z
M 47 33.890625 
C 59 36.78125 65.40625 43.34375 65.40625 50.09375 
C 65.40625 59.734375 53.203125 68 38.09375 68 
L 5.703125 68 
L 5.703125 64.890625 
L 8.09375 64.890625 
C 15.796875 64.890625 16 63.796875 16 60.21875 
L 16 7.921875 
C 16 4.359375 15.796875 3.265625 8.09375 3.265625 
L 5.703125 3.265625 
L 5.703125 0.1875 
C 9.296875 0.484375 16.40625 0.484375 20.296875 0.484375 
C 24.203125 0.484375 31.296875 0.484375 34.90625 0.1875 
L 34.90625 3.265625 
L 32.5 3.265625 
C 24.796875 3.265625 24.59375 4.359375 24.59375 7.921875 
L 24.59375 33 
L 37.09375 33 
C 42.5 33 45.703125 31.015625 47.40625 29.421875 
C 51.203125 25.75 51.203125 23.28125 51.203125 16.34375 
C 51.203125 9.5 51.203125 5.9375 55.5 2.078125 
C 59.203125 -1.109375 64.796875 -2 68.296875 -2 
C 76.296875 -2 78.203125 6.140625 78.203125 8.90625 
C 78.203125 9.5 78.203125 10.59375 76.90625 10.59375 
C 75.796875 10.59375 75.796875 9.703125 75.703125 9.015625 
C 74.90625 1.28125 70.796875 0.1875 68.703125 0.1875 
C 63.40625 0.1875 62.703125 4.65625 60.90625 16.140625 
C 59.796875 23.078125 59.40625 25.5625 56.203125 28.734375 
C 54.09375 30.90625 50.90625 32.796875 47 33.890625 
z
" id="CMCSC10-82"/>
      <path d="M 63.40625 62.0625 
C 60.09375 65.484375 54 71 43.703125 71 
C 24 71 7.203125 54.9375 7.203125 34.546875 
C 7.203125 14.046875 24 -2 43.796875 -2 
C 60.703125 -2 71.296875 11.640625 71.296875 23.59375 
C 71.296875 24.59375 71.296875 25.296875 70 25.296875 
C 68.90625 25.296875 68.90625 24.703125 68.796875 23.6875 
C 68 9.125 56.296875 1.09375 45.09375 1.09375 
C 36.296875 1.09375 17.5 6.3125 17.5 34.4375 
C 17.5 64.078125 38 67.890625 44.90625 67.890625 
C 55.59375 67.890625 65.796875 59.546875 68.09375 44.078125 
C 68.296875 42.671875 68.40625 42.375 69.703125 42.375 
C 71.296875 42.375 71.296875 42.671875 71.296875 44.78125 
L 71.296875 68.59375 
C 71.296875 70.296875 71.296875 71 70.203125 71 
C 69.796875 71 69.40625 71 68.59375 69.796875 
z
" id="CMCSC10-67"/>
      <path d="M 71.203125 68.59375 
C 71.203125 70.296875 71.203125 71 70.09375 71 
C 69.703125 71 69.296875 71 68.5 69.796875 
L 63.296875 62.125 
C 60.203125 65.109375 54.296875 71 43.703125 71 
C 23.796875 71 7.203125 54.859375 7.203125 34.859375 
C 7.203125 14.578125 23.59375 -2 43.90625 -2 
C 51.796875 -2 60.40625 0.59375 63.90625 6.609375 
C 65.203125 4.359375 69.203125 0.296875 70.296875 0.296875 
C 71.203125 0.296875 71.203125 1.09375 71.203125 2.625 
L 71.203125 20.390625 
C 71.203125 24.890625 72.296875 24.890625 78.5 24.890625 
L 78.5 28 
C 73.703125 27.796875 70.09375 27.6875 65.796875 27.6875 
C 61.703125 27.6875 52.796875 27.6875 49.203125 28 
L 49.203125 24.890625 
L 52.703125 24.890625 
C 62.296875 24.890625 62.296875 23.46875 62.296875 19.984375 
L 62.296875 13.453125 
C 62.296875 1.09375 46.796875 1.09375 45.59375 1.09375 
C 36.5 1.09375 17.5 6.40625 17.5 34.859375 
C 17.5 63.015625 36.703125 67.890625 44.90625 67.890625 
C 55.5 67.890625 65.703125 59.734375 68 44.3125 
C 68.203125 42.921875 68.296875 42.625 69.59375 42.625 
C 71.203125 42.625 71.203125 42.921875 71.203125 45 
z
" id="CMCSC10-71"/>
     </defs>
     <g transform="translate(424.094451 26.7)scale(0.1 -0.1)">
      <use transform="scale(0.996264)" xlink:href="#CMCSC10-112"/>
      <use transform="translate(55.569158 0)scale(0.996264)" xlink:href="#CMCSC10-105"/>
      <use transform="translate(85.67837 0)scale(0.996264)" xlink:href="#CMCSC10-112"/>
      <use transform="translate(141.247528 0)scale(0.996264)" xlink:href="#CMCSC10-101"/>
      <use transform="translate(196.816686 0)scale(0.996264)" xlink:href="#CMCSC10-45"/>
      <use transform="translate(234.45297 0)scale(0.996264)" xlink:href="#CMCSC10-80"/>
      <use transform="translate(308.341796 0)scale(0.996264)" xlink:href="#CMCSC10-82"/>
      <use transform="translate(388.042172 0)scale(0.996264)" xlink:href="#CMCSC10-45"/>
      <use transform="translate(425.678456 0)scale(0.996264)" xlink:href="#CMCSC10-67"/>
      <use transform="translate(503.99518 0)scale(0.996264)" xlink:href="#CMCSC10-71"/>
     </g>
    </g>
    <g id="line2d_44">
     <path d="M 396.094451 37.137178 
L 416.094451 37.137178 
" style="fill:none;stroke:#2aa198;stroke-linecap:square;stroke-width:1.5;"/>
    </g>
    <g id="line2d_45"/>
    <g id="text_20">
     <!-- \textsc{pipe-P-CG} -->
     <g transform="translate(424.094451 40.637178)scale(0.1 -0.1)">
      <use transform="scale(0.996264)" xlink:href="#CMCSC10-112"/>
      <use transform="translate(55.569158 0)scale(0.996264)" xlink:href="#CMCSC10-105"/>
      <use transform="translate(85.67837 0)scale(0.996264)" xlink:href="#CMCSC10-112"/>
      <use transform="translate(141.247528 0)scale(0.996264)" xlink:href="#CMCSC10-101"/>
      <use transform="translate(196.816686 0)scale(0.996264)" xlink:href="#CMCSC10-45"/>
      <use transform="translate(234.45297 0)scale(0.996264)" xlink:href="#CMCSC10-80"/>
      <use transform="translate(308.341796 0)scale(0.996264)" xlink:href="#CMCSC10-45"/>
      <use transform="translate(345.97808 0)scale(0.996264)" xlink:href="#CMCSC10-67"/>
      <use transform="translate(424.294805 0)scale(0.996264)" xlink:href="#CMCSC10-71"/>
     </g>
    </g>
    <g id="line2d_46">
     <path d="M 396.094451 51.074357 
L 416.094451 51.074357 
" style="fill:none;stroke:#073642;stroke-dasharray:1.5,2.475;stroke-dashoffset:0;stroke-width:1.5;"/>
    </g>
    <g id="line2d_47"/>
    <g id="text_21">
     <!-- PR-CG -->
     <defs>
      <path d="M 19.796875 32 
L 35.796875 32 
C 48.703125 32 58.09375 40.359375 58.09375 49.796875 
C 58.09375 59.234375 48.90625 68 35.796875 68 
L 5.203125 68 
L 5.203125 65.390625 
C 12.09375 65.390625 13.203125 65.390625 13.203125 60.921875 
L 13.203125 7.078125 
C 13.203125 2.59375 12.09375 2.59375 5.203125 2.59375 
L 5.203125 0 
C 8.09375 0.1875 13.40625 0.1875 16.5 0.1875 
C 19.59375 0.1875 24.90625 0.1875 27.796875 0 
L 27.796875 2.59375 
C 20.90625 2.59375 19.796875 2.59375 19.796875 7.078125 
z
M 19.59375 34.09375 
L 19.59375 61.515625 
C 19.59375 64.890625 19.796875 65.390625 23.796875 65.390625 
L 33.90625 65.390625 
C 46.796875 65.390625 50.5 58.046875 50.5 49.796875 
C 50.5 40.75 46.09375 34.09375 33.90625 34.09375 
z
" id="CMR17-80"/>
      <path d="M 39.203125 33.6875 
C 48.703125 35.59375 56.703125 42.015625 56.703125 50.046875 
C 56.703125 59.46875 46.09375 68 32.09375 68 
L 5.203125 68 
L 5.203125 65.390625 
C 12.09375 65.390625 13.203125 65.390625 13.203125 60.875 
L 13.203125 6.6875 
C 13.203125 2.1875 12.09375 2.1875 5.203125 2.1875 
L 5.203125 -0.40625 
C 8.09375 -0.203125 13.296875 -0.203125 16.40625 -0.203125 
C 19.5 -0.203125 24.703125 -0.203125 27.59375 -0.40625 
L 27.59375 2.1875 
C 20.703125 2.1875 19.59375 2.1875 19.59375 6.6875 
L 19.59375 33 
L 31.296875 33 
C 37 33 40.203125 30.6875 41.59375 29.390625 
C 45.59375 25.5 45.59375 22.796875 45.59375 16 
C 45.59375 9.296875 45.59375 5.890625 48.59375 2.5 
C 52.40625 -1.609375 57.5 -2 59.703125 -2 
C 67.09375 -2 68.203125 6.296875 68.203125 8 
C 68.203125 8.59375 68.203125 9.296875 67.296875 9.296875 
C 66.5 9.296875 66.40625 8.6875 66.40625 8.296875 
C 65.90625 1.796875 63 -0.40625 59.90625 -0.40625 
C 54.40625 -0.40625 53.796875 5.890625 53.203125 12 
C 52.90625 14.09375 52.703125 15.59375 52.5 17.796875 
C 51.90625 22.796875 51.09375 30.09375 39.203125 33.6875 
z
M 31 34.59375 
L 19.59375 34.59375 
L 19.59375 61.484375 
C 19.59375 64.890625 19.796875 65.390625 23.796875 65.390625 
L 31.09375 65.390625 
C 39.40625 65.390625 49.09375 62.484375 49.09375 50.046875 
C 49.09375 37.09375 38.5 34.59375 31 34.59375 
z
" id="CMR17-82"/>
      <path d="M 62.09375 67.984375 
C 62.09375 69.796875 62 69.890625 61.40625 69.890625 
C 61 69.890625 60.90625 69.796875 60.203125 68.59375 
L 55.796875 60.140625 
C 50.90625 66.390625 44.90625 70 37.203125 70 
C 20.09375 70 4.59375 54.796875 4.59375 34.046875 
C 4.59375 13.078125 20.09375 -2 37.296875 -2 
C 52.59375 -2 62.09375 11.578125 62.09375 23.15625 
C 62.09375 24.171875 62.09375 24.578125 61.203125 24.578125 
C 60.40625 24.578125 60.40625 24.265625 60.296875 23.359375 
C 59.5 9.25 49.5 0.59375 38.703125 0.59375 
C 28.5 0.59375 12.203125 7.84375 12.203125 34.046875 
C 12.203125 60.34375 28.796875 67.390625 38.5 67.390625 
C 49.796875 67.390625 58 57.515625 59.90625 43.515625 
C 60.09375 42.296875 60.09375 42.109375 61 42.109375 
C 62.09375 42.109375 62.09375 42.296875 62.09375 44.125 
z
" id="CMR17-67"/>
      <path d="M 62.09375 19.65625 
C 62.09375 23.484375 62.40625 24 68.59375 24 
L 68.59375 26.59375 
C 66.203125 26.390625 60.796875 26.390625 58.09375 26.390625 
C 55.296875 26.390625 47.5 26.5 43.703125 26.59375 
L 43.703125 24 
L 46.703125 24 
C 55.296875 24 55.5 22.875 55.5 19.25 
L 55.5 12.59375 
C 55.5 1.5 42.5 0.59375 39.40625 0.59375 
C 29.09375 0.59375 12.203125 7.75 12.203125 34.046875 
C 12.203125 60.34375 28.796875 67.390625 38.5 67.390625 
C 49.796875 67.390625 58 57.515625 59.90625 43.515625 
C 60.09375 42.3125 60.09375 42.109375 61 42.109375 
C 62.09375 42.109375 62.09375 42.3125 62.09375 44.125 
L 62.09375 67.984375 
C 62.09375 69.796875 62 69.890625 61.40625 69.890625 
C 61 69.890625 60.90625 69.796875 60.203125 68.59375 
L 55.796875 60.140625 
C 50.90625 66.390625 44.90625 70 37.203125 70 
C 20.09375 70 4.59375 54.796875 4.59375 34.046875 
C 4.59375 13.40625 19.796875 -2 37.40625 -2 
C 45.5 -2 53.40625 0.890625 56.5 6.640625 
C 58.203125 2.515625 61 -0.3125 61.5 -0.3125 
C 62 -0.3125 62.09375 -0.203125 62.09375 1.59375 
z
" id="CMR17-71"/>
     </defs>
     <g transform="translate(424.094451 54.574357)scale(0.1 -0.1)">
      <use transform="scale(0.996264)" xlink:href="#CMR17-80"/>
      <use transform="translate(62.586301 0)scale(0.996264)" xlink:href="#CMR17-82"/>
      <use transform="translate(130.377402 0)scale(0.996264)" xlink:href="#CMR17-45"/>
      <use transform="translate(160.453369 0)scale(0.996264)" xlink:href="#CMR17-67"/>
      <use transform="translate(226.963249 0)scale(0.996264)" xlink:href="#CMR17-71"/>
     </g>
    </g>
    <g id="line2d_48">
     <path d="M 396.094451 65.011535 
L 416.094451 65.011535 
" style="fill:none;stroke:#859900;stroke-dasharray:1.5,2.475;stroke-dashoffset:0;stroke-width:1.5;"/>
    </g>
    <g id="line2d_49"/>
    <g id="text_22">
     <!-- \textsc{pipe-PR-M-CG} -->
     <defs>
      <path d="M 74.40625 65.09375 
L 74.5 64.984375 
L 74.5 7.765625 
C 74.5 4.1875 74.296875 3.09375 66.59375 3.09375 
L 64.203125 3.09375 
L 64.203125 0 
C 67.90625 0.296875 74.703125 0.296875 78.59375 0.296875 
C 82.5 0.296875 89.203125 0.296875 92.90625 0 
L 92.90625 3.09375 
L 90.5 3.09375 
C 82.796875 3.09375 82.59375 4.1875 82.59375 7.765625 
L 82.59375 60.21875 
C 82.59375 63.796875 82.796875 64.890625 90.5 64.890625 
L 92.90625 64.890625 
L 92.90625 68 
L 76 68 
C 73.703125 68 73.40625 68 72.59375 66.09375 
L 49.40625 9.46875 
L 26.203125 66.1875 
C 25.5 68 24.90625 68 22.796875 68 
L 5.90625 68 
L 5.90625 64.890625 
L 8.296875 64.890625 
C 16 64.890625 16.203125 63.796875 16.203125 60.21875 
L 16.203125 10.453125 
C 16.203125 7.765625 16.203125 3.09375 5.90625 3.09375 
L 5.90625 0 
C 9.40625 0.09375 14.296875 0.296875 17.59375 0.296875 
C 20.90625 0.296875 25.796875 0.09375 29.296875 0 
L 29.296875 3.09375 
C 19 3.09375 19 7.765625 19 10.453125 
L 19 64.296875 
L 19.09375 64.390625 
L 44.703125 1.796875 
C 45.09375 0.890625 45.59375 0 46.59375 0 
C 47.59375 0 48.09375 0.890625 48.5 1.796875 
z
" id="CMCSC10-77"/>
     </defs>
     <g transform="translate(424.094451 68.511535)scale(0.1 -0.1)">
      <use transform="scale(0.996264)" xlink:href="#CMCSC10-112"/>
      <use transform="translate(55.569158 0)scale(0.996264)" xlink:href="#CMCSC10-105"/>
      <use transform="translate(85.67837 0)scale(0.996264)" xlink:href="#CMCSC10-112"/>
      <use transform="translate(141.247528 0)scale(0.996264)" xlink:href="#CMCSC10-101"/>
      <use transform="translate(196.816686 0)scale(0.996264)" xlink:href="#CMCSC10-45"/>
      <use transform="translate(234.45297 0)scale(0.996264)" xlink:href="#CMCSC10-80"/>
      <use transform="translate(308.341796 0)scale(0.996264)" xlink:href="#CMCSC10-82"/>
      <use transform="translate(388.042172 0)scale(0.996264)" xlink:href="#CMCSC10-45"/>
      <use transform="translate(425.678456 0)scale(0.996264)" xlink:href="#CMCSC10-77"/>
      <use transform="translate(524.19692 0)scale(0.996264)" xlink:href="#CMCSC10-45"/>
      <use transform="translate(561.833204 0)scale(0.996264)" xlink:href="#CMCSC10-67"/>
      <use transform="translate(640.149929 0)scale(0.996264)" xlink:href="#CMCSC10-71"/>
     </g>
    </g>
    <g id="line2d_50">
     <path d="M 396.094451 78.948713 
L 416.094451 78.948713 
" style="fill:none;stroke:#6c71c4;stroke-linecap:square;stroke-width:1.5;"/>
    </g>
    <g id="line2d_51"/>
    <g id="text_23">
     <!-- \textsc{pipe-P-M-CG} -->
     <g transform="translate(424.094451 82.448713)scale(0.1 -0.1)">
      <use transform="scale(0.996264)" xlink:href="#CMCSC10-112"/>
      <use transform="translate(55.569158 0)scale(0.996264)" xlink:href="#CMCSC10-105"/>
      <use transform="translate(85.67837 0)scale(0.996264)" xlink:href="#CMCSC10-112"/>
      <use transform="translate(141.247528 0)scale(0.996264)" xlink:href="#CMCSC10-101"/>
      <use transform="translate(196.816686 0)scale(0.996264)" xlink:href="#CMCSC10-45"/>
      <use transform="translate(234.45297 0)scale(0.996264)" xlink:href="#CMCSC10-80"/>
      <use transform="translate(308.341796 0)scale(0.996264)" xlink:href="#CMCSC10-45"/>
      <use transform="translate(345.97808 0)scale(0.996264)" xlink:href="#CMCSC10-77"/>
      <use transform="translate(444.496544 0)scale(0.996264)" xlink:href="#CMCSC10-45"/>
      <use transform="translate(482.132828 0)scale(0.996264)" xlink:href="#CMCSC10-67"/>
      <use transform="translate(560.449553 0)scale(0.996264)" xlink:href="#CMCSC10-71"/>
     </g>
    </g>
    <g id="line2d_52">
     <path d="M 396.094451 92.885892 
L 416.094451 92.885892 
" style="fill:none;stroke:#93a1a1;stroke-linecap:square;stroke-width:1.5;"/>
    </g>
    <g id="line2d_53">
     <g>
      <use style="fill:#93a1a1;stroke:#93a1a1;stroke-linejoin:miter;" x="406.094451" xlink:href="#m6d1e80046e" y="92.885892"/>
     </g>
    </g>
    <g id="text_24">
     <!-- GV-CG -->
     <defs>
      <path d="M 59 58.78125 
C 59.90625 60.984375 61.5 65.296875 68.203125 65.390625 
L 68.203125 68 
C 65.90625 67.796875 63.296875 67.796875 60.796875 67.796875 
C 58.40625 67.796875 54.296875 67.796875 52 68 
L 52 65.390625 
C 57 65.09375 57.203125 61.59375 57.203125 60.984375 
C 57.203125 59.890625 56.90625 59.1875 56.59375 58.390625 
L 36.90625 7 
L 16.296875 60.984375 
C 16 61.6875 15.796875 62.1875 15.796875 62.6875 
C 15.796875 65.390625 19.796875 65.390625 21.90625 65.390625 
L 21.90625 68 
C 18.703125 67.796875 14 67.796875 10.703125 67.796875 
C 8.09375 67.796875 3.40625 67.796875 1 68 
L 1 65.390625 
C 6.796875 65.390625 7.90625 65 9.09375 61.796875 
L 32.90625 -0.40625 
C 33.40625 -1.8125 33.5 -2 34.59375 -2 
C 35.703125 -2 35.796875 -1.8125 36.296875 -0.40625 
z
" id="CMR17-86"/>
     </defs>
     <g transform="translate(424.094451 96.385892)scale(0.1 -0.1)">
      <use transform="scale(0.996264)" xlink:href="#CMR17-71"/>
      <use transform="translate(72.355346 0)scale(0.996264)" xlink:href="#CMR17-86"/>
      <use transform="translate(141.427776 0)scale(0.996264)" xlink:href="#CMR17-45"/>
      <use transform="translate(171.503742 0)scale(0.996264)" xlink:href="#CMR17-67"/>
      <use transform="translate(238.013623 0)scale(0.996264)" xlink:href="#CMR17-71"/>
     </g>
    </g>
    <g id="line2d_54">
     <path d="M 396.094451 106.82307 
L 416.094451 106.82307 
" style="fill:none;stroke:#93a1a1;stroke-linecap:square;stroke-width:1.5;"/>
    </g>
    <g id="line2d_55">
     <g>
      <use style="fill:#93a1a1;stroke:#93a1a1;stroke-linejoin:miter;" x="406.094451" xlink:href="#m54d6aab568" y="106.82307"/>
     </g>
    </g>
    <g id="text_25">
     <!-- M-CG -->
     <defs>
      <path d="M 20.90625 66.390625 
C 20.296875 67.890625 20.203125 68 18.09375 68 
L 5.296875 68 
L 5.296875 65.390625 
C 12.203125 65.390625 13.296875 65.390625 13.296875 60.90625 
L 13.296875 9.75 
C 13.296875 7.265625 13.296875 2.59375 5.296875 2.59375 
L 5.296875 0 
C 7.59375 0.1875 11.796875 0.1875 14.296875 0.1875 
C 16.796875 0.1875 21 0.1875 23.296875 0 
L 23.296875 2.59375 
C 15.296875 2.59375 15.296875 7.265625 15.296875 9.75 
L 15.296875 64.984375 
L 15.40625 64.984375 
L 38.90625 1.59375 
C 39.296875 0.59375 39.5 0 40.296875 0 
C 41.09375 0 41.296875 0.59375 41.703125 1.59375 
L 65.40625 65.484375 
L 65.5 65.484375 
L 65.5 7.078125 
C 65.5 2.59375 64.40625 2.59375 57.5 2.59375 
L 57.5 0 
C 60.203125 0.1875 65.59375 0.1875 68.5 0.1875 
C 71.40625 0.1875 76.90625 0.1875 79.59375 0 
L 79.59375 2.59375 
C 72.703125 2.59375 71.59375 2.59375 71.59375 7.078125 
L 71.59375 60.90625 
C 71.59375 65.390625 72.703125 65.390625 79.59375 65.390625 
L 79.59375 68 
L 66.90625 68 
C 64.796875 68 64.703125 67.890625 64.09375 66.390625 
L 42.5 8.0625 
z
" id="CMR17-77"/>
     </defs>
     <g transform="translate(424.094451 110.32307)scale(0.1 -0.1)">
      <use transform="scale(0.996264)" xlink:href="#CMR17-77"/>
      <use transform="translate(84.686941 0)scale(0.996264)" xlink:href="#CMR17-45"/>
      <use transform="translate(114.762907 0)scale(0.996264)" xlink:href="#CMR17-67"/>
      <use transform="translate(181.272787 0)scale(0.996264)" xlink:href="#CMR17-71"/>
     </g>
    </g>
    <g id="line2d_56">
     <path d="M 396.094451 120.760248 
L 416.094451 120.760248 
" style="fill:none;stroke:#93a1a1;stroke-linecap:square;stroke-width:1.5;"/>
    </g>
    <g id="line2d_57">
     <g>
      <use style="fill:#93a1a1;stroke:#93a1a1;stroke-linejoin:miter;" x="406.094451" xlink:href="#m71a04fa034" y="120.760248"/>
     </g>
    </g>
    <g id="text_26">
     <!-- CG-CG -->
     <g transform="translate(424.094451 124.260248)scale(0.1 -0.1)">
      <use transform="scale(0.996264)" xlink:href="#CMR17-67"/>
      <use transform="translate(66.509881 0)scale(0.996264)" xlink:href="#CMR17-71"/>
      <use transform="translate(138.865226 0)scale(0.996264)" xlink:href="#CMR17-45"/>
      <use transform="translate(168.941193 0)scale(0.996264)" xlink:href="#CMR17-67"/>
      <use transform="translate(235.451073 0)scale(0.996264)" xlink:href="#CMR17-71"/>
     </g>
    </g>
    <g id="line2d_58">
     <path d="M 396.094451 134.697427 
L 416.094451 134.697427 
" style="fill:none;stroke:#93a1a1;stroke-linecap:square;stroke-width:1.5;"/>
    </g>
    <g id="line2d_59">
     <g>
      <use style="fill:#93a1a1;stroke:#93a1a1;" x="406.094451" xlink:href="#ma2e2b08caa" y="134.697427"/>
     </g>
    </g>
    <g id="text_27">
     <!-- HS-CG -->
     <defs>
      <path d="M 56.09375 60.90625 
C 56.09375 65.390625 57.203125 65.390625 64.09375 65.390625 
L 64.09375 68 
C 61.203125 67.796875 55.90625 67.796875 52.796875 67.796875 
C 49.703125 67.796875 44.40625 67.796875 41.5 68 
L 41.5 65.390625 
C 48.40625 65.390625 49.5 65.390625 49.5 60.90625 
L 49.5 36.59375 
L 19.703125 36.59375 
L 19.703125 60.90625 
C 19.703125 65.390625 20.796875 65.390625 27.703125 65.390625 
L 27.703125 68 
C 24.796875 67.796875 19.5 67.796875 16.40625 67.796875 
C 13.296875 67.796875 8 67.796875 5.09375 68 
L 5.09375 65.390625 
C 12 65.390625 13.09375 65.390625 13.09375 60.90625 
L 13.09375 7.0625 
C 13.09375 2.59375 12 2.59375 5.09375 2.59375 
L 5.09375 0 
C 8 0.1875 13.296875 0.1875 16.40625 0.1875 
C 19.5 0.1875 24.796875 0.1875 27.703125 0 
L 27.703125 2.59375 
C 20.796875 2.59375 19.703125 2.59375 19.703125 7.0625 
L 19.703125 34 
L 49.5 34 
L 49.5 7.0625 
C 49.5 2.59375 48.40625 2.59375 41.5 2.59375 
L 41.5 0 
C 44.40625 0.1875 49.703125 0.1875 52.796875 0.1875 
C 55.90625 0.1875 61.203125 0.1875 64.09375 0 
L 64.09375 2.59375 
C 57.203125 2.59375 56.09375 2.59375 56.09375 7.0625 
z
" id="CMR17-72"/>
      <path d="M 43.796875 67.984375 
C 43.796875 69.796875 43.703125 69.890625 43.09375 69.890625 
C 42.5 69.890625 42.296875 69.484375 41.90625 68.59375 
L 38.90625 61.953125 
C 35.09375 67.5 29.296875 70 23 70 
C 12.796875 70 4.59375 61.84375 4.59375 51.578125 
C 4.59375 48.453125 5.296875 44.015625 8.703125 39.78125 
C 12.40625 35.15625 15.90625 34.34375 23.90625 32.234375 
C 26.90625 31.421875 31.90625 30.109375 32.90625 29.703125 
C 38.59375 27.296875 41.59375 21.25 41.59375 15.609375 
C 41.59375 8.34375 36.5 0.59375 27.796875 0.59375 
C 17.09375 0.59375 7.09375 6.640625 6.40625 20.75 
C 6.296875 22.359375 6.203125 22.453125 5.5 22.453125 
C 4.703125 22.453125 4.59375 22.359375 4.59375 20.34375 
L 4.59375 0 
C 4.59375 -1.8125 4.703125 -1.90625 5.296875 -1.90625 
C 6 -1.90625 6.203125 -1.40625 7.59375 1.703125 
C 7.703125 2 7.703125 2.203125 9.59375 6.03125 
C 14.59375 -0.609375 23 -2 27.796875 -2 
C 38.703125 -2 46.40625 7.140625 46.40625 17.828125 
C 46.40625 23.0625 44.5 27.09375 43.40625 28.90625 
C 39.203125 35.359375 34.703125 36.5625 29.90625 37.765625 
C 29.203125 38.078125 29 38.078125 23.40625 39.484375 
C 18 40.890625 15.703125 41.59375 13.203125 44.3125 
C 10.40625 47.4375 9.40625 50.671875 9.40625 53.890625 
C 9.40625 60.4375 14.59375 67.59375 23.09375 67.59375 
C 33.703125 67.59375 40.296875 60.03125 41.796875 47.4375 
C 42.09375 45.625 42.203125 45.53125 42.90625 45.53125 
C 43.796875 45.53125 43.796875 45.828125 43.796875 47.546875 
z
" id="CMR17-83"/>
     </defs>
     <g transform="translate(424.094451 138.197427)scale(0.1 -0.1)">
      <use transform="scale(0.996264)" xlink:href="#CMR17-72"/>
      <use transform="translate(69.07243 0)scale(0.996264)" xlink:href="#CMR17-83"/>
      <use transform="translate(119.9678 0)scale(0.996264)" xlink:href="#CMR17-45"/>
      <use transform="translate(150.043766 0)scale(0.996264)" xlink:href="#CMR17-67"/>
      <use transform="translate(216.553646 0)scale(0.996264)" xlink:href="#CMR17-71"/>
     </g>
    </g>
   </g>
  </g>
 </g>
 <defs>
  <clipPath id="p613fef0762">
   <rect height="221.76" width="334.8" x="52.294451" y="10.7"/>
  </clipPath>
 </defs>
</svg>
