<?xml version="1.0" encoding="utf-8" standalone="no"?>
<!DOCTYPE svg PUBLIC "-//W3C//DTD SVG 1.1//EN"
  "http://www.w3.org/Graphics/SVG/1.1/DTD/svg11.dtd">
<!-- Created with matplotlib (https://matplotlib.org/) -->
<svg height="269.478317pt" version="1.1" viewBox="0 0 829.015213 269.478317" width="829.015213pt" xmlns="http://www.w3.org/2000/svg" xmlns:xlink="http://www.w3.org/1999/xlink">
 <defs>
  <style type="text/css">
*{stroke-linecap:butt;stroke-linejoin:round;}
  </style>
 </defs>
 <g id="figure_1">
  <g id="patch_1">
   <path d="M 0 269.478317 
L 829.015213 269.478317 
L 829.015213 0 
L 0 0 
z
" style="fill:#ffffff;"/>
  </g>
  <g id="axes_1">
   <g id="patch_2">
    <path d="M 37.115213 232.46 
L 384.315213 232.46 
L 384.315213 10.7 
L 37.115213 10.7 
z
" style="fill:#ffffff;"/>
   </g>
   <g id="matplotlib.axis_1">
    <g id="xtick_1">
     <g id="line2d_1">
      <path clip-path="url(#pe2f78de93c)" d="M 52.897031 232.46 
L 52.897031 10.7 
" style="fill:none;stroke:#b0b0b0;stroke-dasharray:0.8,1.32;stroke-dashoffset:0;stroke-width:0.8;"/>
     </g>
     <g id="line2d_2">
      <defs>
       <path d="M 0 0 
L 0 3.5 
" id="m07c752c1a0" style="stroke:#000000;stroke-width:0.8;"/>
      </defs>
      <g>
       <use style="stroke:#000000;stroke-width:0.8;" x="52.897031" xlink:href="#m07c752c1a0" y="232.46"/>
      </g>
     </g>
     <g id="text_1">
      <!-- $2^{0}$ -->
      <defs>
       <path d="M 41.703125 15.46875 
L 39.90625 15.46875 
C 38.90625 8.390625 38.09375 7.1875 37.703125 6.59375 
C 37.203125 5.796875 30 5.796875 28.59375 5.796875 
L 9.40625 5.796875 
C 13 9.6875 20 16.765625 28.5 24.9375 
C 34.59375 30.71875 41.703125 37.5 41.703125 47.390625 
C 41.703125 59.1875 32.296875 66 21.796875 66 
C 10.796875 66 4.09375 56.296875 4.09375 47.296875 
C 4.09375 43.390625 7 42.890625 8.203125 42.890625 
C 9.203125 42.890625 12.203125 43.484375 12.203125 46.984375 
C 12.203125 50.09375 9.59375 51 8.203125 51 
C 7.59375 51 7 50.890625 6.59375 50.6875 
C 8.5 59.1875 14.296875 63.390625 20.40625 63.390625 
C 29.09375 63.390625 34.796875 56.5 34.796875 47.390625 
C 34.796875 38.703125 29.703125 31.21875 24 24.734375 
L 4.09375 2.296875 
L 4.09375 0 
L 39.296875 0 
z
" id="CMR17-50"/>
       <path d="M 42 31.84375 
C 42 37.96875 41.90625 48.421875 37.703125 56.453125 
C 34 63.484375 28.09375 66 22.90625 66 
C 18.09375 66 12 63.78125 8.203125 56.5625 
C 4.203125 49.015625 3.796875 39.671875 3.796875 31.84375 
C 3.796875 26.109375 3.90625 17.375 7 9.734375 
C 11.296875 -0.609375 19 -2 22.90625 -2 
C 27.5 -2 34.5 -0.109375 38.59375 9.4375 
C 41.59375 16.375 42 24.5 42 31.84375 
z
M 22.90625 -0.40625 
C 16.5 -0.40625 12.703125 5.125 11.296875 12.75 
C 10.203125 18.6875 10.203125 27.328125 10.203125 32.953125 
C 10.203125 40.6875 10.203125 47.109375 11.5 53.234375 
C 13.40625 61.78125 19 64.390625 22.90625 64.390625 
C 27 64.390625 32.296875 61.671875 34.203125 53.4375 
C 35.5 47.71875 35.59375 40.984375 35.59375 32.953125 
C 35.59375 26.421875 35.59375 18.375 34.40625 12.453125 
C 32.296875 1.5 26.40625 -0.40625 22.90625 -0.40625 
z
" id="CMR17-48"/>
      </defs>
      <g transform="translate(48.420745 246.378498)scale(0.1 -0.1)">
       <use transform="scale(0.996264)" xlink:href="#CMR17-50"/>
       <use transform="translate(45.690477 36.153639)scale(0.697382)" xlink:href="#CMR17-48"/>
      </g>
     </g>
    </g>
    <g id="xtick_2">
     <g id="line2d_3">
      <path clip-path="url(#pe2f78de93c)" d="M 116.024304 232.46 
L 116.024304 10.7 
" style="fill:none;stroke:#b0b0b0;stroke-dasharray:0.8,1.32;stroke-dashoffset:0;stroke-width:0.8;"/>
     </g>
     <g id="line2d_4">
      <g>
       <use style="stroke:#000000;stroke-width:0.8;" x="116.024304" xlink:href="#m07c752c1a0" y="232.46"/>
      </g>
     </g>
     <g id="text_2">
      <!-- $2^{1}$ -->
      <defs>
       <path d="M 26.59375 63.796875 
C 26.59375 65.890625 26.5 66 25.09375 66 
C 21.203125 61.359375 15.296875 59.890625 9.703125 59.6875 
C 9.40625 59.6875 8.90625 59.6875 8.796875 59.5 
C 8.703125 59.296875 8.703125 59.09375 8.703125 57 
C 11.796875 57 17 57.59375 21 59.984375 
L 21 7.296875 
C 21 3.796875 20.796875 2.59375 12.203125 2.59375 
L 9.203125 2.59375 
L 9.203125 0 
C 14 0.09375 19 0.1875 23.796875 0.1875 
C 28.59375 0.1875 33.59375 0.09375 38.40625 0 
L 38.40625 2.59375 
L 35.40625 2.59375 
C 26.796875 2.59375 26.59375 3.6875 26.59375 7.296875 
z
" id="CMR17-49"/>
      </defs>
      <g transform="translate(111.548017 246.378498)scale(0.1 -0.1)">
       <use transform="scale(0.996264)" xlink:href="#CMR17-50"/>
       <use transform="translate(45.690477 36.153639)scale(0.697382)" xlink:href="#CMR17-49"/>
      </g>
     </g>
    </g>
    <g id="xtick_3">
     <g id="line2d_5">
      <path clip-path="url(#pe2f78de93c)" d="M 179.151577 232.46 
L 179.151577 10.7 
" style="fill:none;stroke:#b0b0b0;stroke-dasharray:0.8,1.32;stroke-dashoffset:0;stroke-width:0.8;"/>
     </g>
     <g id="line2d_6">
      <g>
       <use style="stroke:#000000;stroke-width:0.8;" x="179.151577" xlink:href="#m07c752c1a0" y="232.46"/>
      </g>
     </g>
     <g id="text_3">
      <!-- $2^{2}$ -->
      <g transform="translate(174.67529 246.378498)scale(0.1 -0.1)">
       <use transform="scale(0.996264)" xlink:href="#CMR17-50"/>
       <use transform="translate(45.690477 36.153639)scale(0.697382)" xlink:href="#CMR17-50"/>
      </g>
     </g>
    </g>
    <g id="xtick_4">
     <g id="line2d_7">
      <path clip-path="url(#pe2f78de93c)" d="M 242.278849 232.46 
L 242.278849 10.7 
" style="fill:none;stroke:#b0b0b0;stroke-dasharray:0.8,1.32;stroke-dashoffset:0;stroke-width:0.8;"/>
     </g>
     <g id="line2d_8">
      <g>
       <use style="stroke:#000000;stroke-width:0.8;" x="242.278849" xlink:href="#m07c752c1a0" y="232.46"/>
      </g>
     </g>
     <g id="text_4">
      <!-- $2^{3}$ -->
      <defs>
       <path d="M 22.09375 34 
C 31 34 34.90625 26.140625 34.90625 17.09375 
C 34.90625 5.03125 28.5 0.390625 22.703125 0.390625 
C 17.40625 0.390625 8.796875 3.015625 6.09375 10.796875 
C 6.59375 10.59375 7.09375 10.59375 7.59375 10.59375 
C 10 10.59375 11.796875 12.1875 11.796875 14.796875 
C 11.796875 17.6875 9.59375 19 7.59375 19 
C 5.90625 19 3.296875 18.1875 3.296875 14.484375 
C 3.296875 5.234375 12.296875 -2 22.90625 -2 
C 34 -2 42.5 6.75 42.5 16.984375 
C 42.5 26.84375 34.5 34 25 35.09375 
C 32.59375 36.671875 39.90625 43.375 39.90625 52.390625 
C 39.90625 60.25 32 66 23 66 
C 13.90625 66 5.90625 60.34375 5.90625 52.296875 
C 5.90625 48.796875 8.5 48.1875 9.796875 48.1875 
C 11.90625 48.1875 13.703125 49.484375 13.703125 52.09375 
C 13.703125 54.6875 11.90625 56 9.796875 56 
C 9.40625 56 8.90625 56 8.5 55.796875 
C 11.40625 62.484375 19.296875 63.6875 22.796875 63.6875 
C 26.296875 63.6875 32.90625 61.96875 32.90625 52.296875 
C 32.90625 49.484375 32.5 44.546875 29.09375 40.21875 
C 26.09375 36.390625 22.703125 36.1875 19.40625 35.890625 
C 18.90625 35.890625 16.59375 35.6875 16.203125 35.6875 
C 15.5 35.59375 15.09375 35.5 15.09375 34.796875 
C 15.09375 34.09375 15.203125 34 17.203125 34 
z
" id="CMR17-51"/>
      </defs>
      <g transform="translate(237.802563 246.378498)scale(0.1 -0.1)">
       <use transform="scale(0.996264)" xlink:href="#CMR17-50"/>
       <use transform="translate(45.690477 36.153639)scale(0.697382)" xlink:href="#CMR17-51"/>
      </g>
     </g>
    </g>
    <g id="xtick_5">
     <g id="line2d_9">
      <path clip-path="url(#pe2f78de93c)" d="M 305.406122 232.46 
L 305.406122 10.7 
" style="fill:none;stroke:#b0b0b0;stroke-dasharray:0.8,1.32;stroke-dashoffset:0;stroke-width:0.8;"/>
     </g>
     <g id="line2d_10">
      <g>
       <use style="stroke:#000000;stroke-width:0.8;" x="305.406122" xlink:href="#m07c752c1a0" y="232.46"/>
      </g>
     </g>
     <g id="text_5">
      <!-- $2^{4}$ -->
      <defs>
       <path d="M 33.59375 64.796875 
C 33.59375 66.890625 33.5 67 31.703125 67 
L 2 19.59375 
L 2 17 
L 27.796875 17 
L 27.796875 7.1875 
C 27.796875 3.59375 27.59375 2.59375 20.59375 2.59375 
L 18.703125 2.59375 
L 18.703125 0 
C 21.90625 0.1875 27.296875 0.1875 30.703125 0.1875 
C 34.09375 0.1875 39.5 0.1875 42.703125 0 
L 42.703125 2.59375 
L 40.796875 2.59375 
C 33.796875 2.59375 33.59375 3.59375 33.59375 7.1875 
L 33.59375 17 
L 43.796875 17 
L 43.796875 19.59375 
L 33.59375 19.59375 
z
M 28.09375 58.171875 
L 28.09375 19.59375 
L 4 19.59375 
z
" id="CMR17-52"/>
      </defs>
      <g transform="translate(300.929836 246.378498)scale(0.1 -0.1)">
       <use transform="scale(0.996264)" xlink:href="#CMR17-50"/>
       <use transform="translate(45.690477 36.153639)scale(0.697382)" xlink:href="#CMR17-52"/>
      </g>
     </g>
    </g>
    <g id="xtick_6">
     <g id="line2d_11">
      <path clip-path="url(#pe2f78de93c)" d="M 368.533395 232.46 
L 368.533395 10.7 
" style="fill:none;stroke:#b0b0b0;stroke-dasharray:0.8,1.32;stroke-dashoffset:0;stroke-width:0.8;"/>
     </g>
     <g id="line2d_12">
      <g>
       <use style="stroke:#000000;stroke-width:0.8;" x="368.533395" xlink:href="#m07c752c1a0" y="232.46"/>
      </g>
     </g>
     <g id="text_6">
      <!-- $2^{5}$ -->
      <defs>
       <path d="M 11.40625 58.59375 
C 12.40625 58.1875 16.5 56.890625 20.703125 56.890625 
C 30 56.890625 35.09375 61.890625 38 64.6875 
C 38 65.484375 38 66 37.40625 66 
C 37.296875 66 37.09375 66 36.296875 65.59375 
C 32.796875 64.09375 28.703125 63 23.703125 63 
C 20.703125 63 16.203125 63.359375 11.296875 65.484375 
C 10.203125 66 10 66 9.90625 66 
C 9.40625 66 9.296875 65.890625 9.296875 63.90625 
L 9.296875 34.859375 
C 9.296875 33.015625 9.296875 32.5 10.296875 32.5 
C 10.796875 32.5 11 32.703125 11.5 33.421875 
C 14.703125 38.046875 19.09375 40 24.09375 40 
C 27.59375 40 35.09375 37.734375 35.09375 20.203125 
C 35.09375 16.984375 35.09375 11.1875 32.09375 6.59375 
C 29.59375 2.484375 25.703125 0.390625 21.40625 0.390625 
C 14.796875 0.390625 8.09375 4.984375 6.296875 12.6875 
C 6.703125 12.59375 7.5 12.390625 7.90625 12.390625 
C 9.203125 12.390625 11.703125 13.09375 11.703125 16.1875 
C 11.703125 18.890625 9.796875 20 7.90625 20 
C 5.59375 20 4.09375 18.59375 4.09375 15.796875 
C 4.09375 7.09375 11 -2 21.59375 -2 
C 31.90625 -2 41.703125 6.890625 41.703125 19.796875 
C 41.703125 32.09375 33.90625 41.59375 24.203125 41.59375 
C 19.09375 41.59375 14.796875 39.6875 11.40625 36 
z
" id="CMR17-53"/>
      </defs>
      <g transform="translate(364.057108 246.378498)scale(0.1 -0.1)">
       <use transform="scale(0.996264)" xlink:href="#CMR17-50"/>
       <use transform="translate(45.690477 36.153639)scale(0.697382)" xlink:href="#CMR17-53"/>
      </g>
     </g>
    </g>
    <g id="text_7">
     <!-- number of nodes ($\times 14$ MPI processes/node) -->
     <defs>
      <path d="M 41.5 30.53125 
C 41.5 35.65625 40.5 44 28.703125 44 
C 20.796875 44 16.703125 37.875 15.203125 33.84375 
L 15.09375 33.84375 
L 15.09375 44 
L 3.296875 42.890625 
L 3.296875 40.28125 
C 9.203125 40.28125 10.09375 39.6875 10.09375 34.859375 
L 10.09375 6.921875 
C 10.09375 3.09375 9.703125 2.59375 3.296875 2.59375 
L 3.296875 0 
C 5.703125 0.1875 10.09375 0.1875 12.703125 0.1875 
C 15.296875 0.1875 19.796875 0.1875 22.203125 0 
L 22.203125 2.59375 
C 15.796875 2.59375 15.40625 3 15.40625 6.921875 
L 15.40625 26.21875 
C 15.40625 35.453125 21 42.390625 28 42.390625 
C 35.40625 42.390625 36.203125 35.765625 36.203125 30.9375 
L 36.203125 6.921875 
C 36.203125 3.09375 35.796875 2.59375 29.40625 2.59375 
L 29.40625 0 
C 31.796875 0.1875 36.203125 0.1875 38.796875 0.1875 
C 41.40625 0.1875 45.90625 0.1875 48.296875 0 
L 48.296875 2.59375 
C 41.90625 2.59375 41.5 3 41.5 6.921875 
z
" id="CMR17-110"/>
      <path d="M 29.40625 42.890625 
L 29.40625 40.296875 
C 35.296875 40.296875 36.203125 39.6875 36.203125 34.828125 
L 36.203125 16.453125 
C 36.203125 7.96875 31.703125 0.59375 24.296875 0.59375 
C 16.09375 0.59375 15.40625 5.546875 15.40625 10.796875 
L 15.40625 44 
L 3.296875 42.890625 
L 3.296875 40.296875 
C 7.296875 40.296875 10 40.296875 10.09375 36.25 
L 10.09375 16.859375 
C 10.09375 10.09375 10.09375 5.75 12.703125 2.921875 
C 14 1.609375 16.5 -1 23.703125 -1 
C 32.203125 -1 35.5 6.25 36.296875 8.375 
L 36.40625 8.375 
L 36.40625 -1 
L 48.296875 -0.203125 
L 48.296875 2.40625 
C 42.40625 2.40625 41.5 3.015625 41.5 7.859375 
L 41.5 44 
z
" id="CMR17-117"/>
      <path d="M 67.59375 30.53125 
C 67.59375 35.5625 66.703125 44 54.796875 44 
C 48 44 43.296875 39.375 41.5 33.953125 
L 41.40625 33.953125 
C 40.203125 42.1875 34.296875 44 28.703125 44 
C 20.796875 44 16.703125 37.875 15.203125 33.84375 
L 15.09375 33.84375 
L 15.09375 44 
L 3.296875 42.890625 
L 3.296875 40.28125 
C 9.203125 40.28125 10.09375 39.6875 10.09375 34.859375 
L 10.09375 6.921875 
C 10.09375 3.09375 9.703125 2.59375 3.296875 2.59375 
L 3.296875 0 
C 5.703125 0.1875 10.09375 0.1875 12.703125 0.1875 
C 15.296875 0.1875 19.796875 0.1875 22.203125 0 
L 22.203125 2.59375 
C 15.796875 2.59375 15.40625 3 15.40625 6.921875 
L 15.40625 26.21875 
C 15.40625 35.453125 21 42.390625 28 42.390625 
C 35.40625 42.390625 36.203125 35.765625 36.203125 30.9375 
L 36.203125 6.921875 
C 36.203125 3.09375 35.796875 2.59375 29.40625 2.59375 
L 29.40625 0 
C 31.796875 0.1875 36.203125 0.1875 38.796875 0.1875 
C 41.40625 0.1875 45.90625 0.1875 48.296875 0 
L 48.296875 2.59375 
C 41.90625 2.59375 41.5 3 41.5 6.921875 
L 41.5 26.21875 
C 41.5 35.453125 47.09375 42.390625 54.09375 42.390625 
C 61.5 42.390625 62.296875 35.765625 62.296875 30.9375 
L 62.296875 6.921875 
C 62.296875 3.09375 61.90625 2.59375 55.5 2.59375 
L 55.5 0 
C 57.90625 0.1875 62.296875 0.1875 64.90625 0.1875 
C 67.5 0.1875 72 0.1875 74.40625 0 
L 74.40625 2.59375 
C 68 2.59375 67.59375 3 67.59375 6.921875 
z
" id="CMR17-109"/>
      <path d="M 15 69 
L 3.09375 67.890625 
L 3.09375 65.296875 
C 9 65.296875 9.90625 64.703125 9.90625 60.046875 
L 9.90625 -0.203125 
L 11.703125 -0.203125 
L 14.59375 6.953125 
C 17.5 2.203125 21.796875 -1 27.59375 -1 
C 37.59375 -1 47.703125 7.859375 47.703125 21.59375 
C 47.703125 34.515625 38.703125 44 28.59375 44 
C 22.40625 44 18 40.671875 15 36.734375 
z
M 15.203125 31.59375 
C 15.203125 33.40625 15.203125 33.703125 16.59375 35.828125 
C 20.5 41.890625 26.09375 42.390625 28 42.390625 
C 31 42.390625 41.296875 40.78125 41.296875 21.6875 
C 41.296875 1.703125 29.5 0.59375 27.09375 0.59375 
C 24 0.59375 19.5 1.796875 16.296875 7.65625 
C 15.203125 9.578125 15.203125 9.78125 15.203125 11.59375 
z
" id="CMR17-98"/>
      <path d="M 38.09375 23.484375 
C 38.5 23.890625 38.5 24.09375 38.5 25.09375 
C 38.5 35.171875 33.09375 44 21.703125 44 
C 11.09375 44 2.703125 33.984375 2.703125 21.78125 
C 2.703125 8.65625 12.203125 -1 22.796875 -1 
C 34 -1 38.40625 9.671875 38.40625 11.796875 
C 38.40625 12.5 37.796875 12.5 37.59375 12.5 
C 36.90625 12.5 36.796875 12.296875 36.40625 11.078125 
C 34.203125 4.21875 28.703125 0.796875 23.5 0.796875 
C 19.203125 0.796875 14.90625 3.21875 12.203125 7.65625 
C 9.09375 12.796875 9.09375 18.75 9.09375 23.484375 
z
M 9.203125 25 
C 9.90625 39.234375 17.59375 42.390625 21.59375 42.390625 
C 28.40625 42.390625 33 36.0625 33.09375 25 
z
" id="CMR17-101"/>
      <path d="M 15 23.703125 
C 15 33.34375 19.09375 42.390625 26.59375 42.390625 
C 27.296875 42.390625 28 42.296875 28.703125 41.984375 
C 28.703125 41.984375 26.5 41.28125 26.5 38.671875 
C 26.5 36.265625 28.40625 35.265625 29.90625 35.265625 
C 31.09375 35.265625 33.296875 35.96875 33.296875 38.78125 
C 33.296875 41.984375 30.09375 44 26.703125 44 
C 19.09375 44 15.796875 36.5625 14.796875 33.046875 
L 14.703125 33.046875 
L 14.703125 44 
L 3.09375 42.890625 
L 3.09375 40.28125 
C 9 40.28125 9.90625 39.6875 9.90625 34.859375 
L 9.90625 6.921875 
C 9.90625 3.09375 9.5 2.59375 3.09375 2.59375 
L 3.09375 0 
C 5.5 0.1875 10.09375 0.1875 12.703125 0.1875 
C 15.59375 0.1875 20.703125 0.1875 23.40625 0 
L 23.40625 2.59375 
C 16.203125 2.59375 15 2.59375 15 7.109375 
z
" id="CMR17-114"/>
      <path d="M 43.09375 21.1875 
C 43.09375 34 33.796875 44 22.90625 44 
C 12 44 2.703125 34 2.703125 21.1875 
C 2.703125 8.59375 12 -1 22.90625 -1 
C 33.796875 -1 43.09375 8.59375 43.09375 21.1875 
z
M 22.90625 0.796875 
C 18.203125 0.796875 14.203125 3.59375 11.90625 7.5 
C 9.40625 12 9.09375 17.59375 9.09375 22 
C 9.09375 26.1875 9.296875 31.390625 11.90625 35.890625 
C 13.90625 39.1875 17.796875 42.390625 22.90625 42.390625 
C 27.40625 42.390625 31.203125 39.890625 33.59375 36.390625 
C 36.703125 31.6875 36.703125 25.09375 36.703125 22 
C 36.703125 18.09375 36.5 12.09375 33.796875 7.296875 
C 31 2.6875 26.703125 0.796875 22.90625 0.796875 
z
" id="CMR17-111"/>
      <path d="M 15.296875 40.390625 
L 26.703125 40.390625 
L 26.703125 43 
L 15.09375 43 
L 15.09375 55.296875 
C 15.09375 63.6875 19.296875 68.390625 23.59375 68.390625 
C 24.90625 68.390625 26.40625 68.171875 27.40625 67.796875 
C 26.59375 67.59375 24.5 66.890625 24.5 64.390625 
C 24.5 61.796875 26.5 61 27.90625 61 
C 29.296875 61 31.296875 61.796875 31.296875 64.390625 
C 31.296875 68.015625 27.703125 70 23.703125 70 
C 18 70 10.203125 65.796875 10.203125 55.09375 
L 10.203125 43 
L 2.203125 43 
L 2.203125 40.390625 
L 10.203125 40.390625 
L 10.203125 6.890625 
C 10.203125 3.09375 9.796875 2.59375 3.40625 2.59375 
L 3.40625 0 
C 5.796875 0.1875 10.40625 0.1875 13 0.1875 
C 15.90625 0.1875 21 0.1875 23.703125 0 
L 23.703125 2.59375 
C 16.5 2.59375 15.296875 2.59375 15.296875 7.09375 
z
" id="CMR17-102"/>
      <path d="M 29.203125 67.890625 
L 29.203125 65.296875 
C 35.09375 65.296875 36 64.703125 36 60.046875 
L 36 37.046875 
C 35.59375 37.546875 31.5 44 23.40625 44 
C 13.203125 44 3.296875 34.8125 3.296875 21.5 
C 3.296875 8.265625 12.59375 -1 22.40625 -1 
C 30.90625 -1 35.296875 5.640625 35.796875 6.34375 
L 35.796875 -1 
L 47.90625 -0.203125 
L 47.90625 2.40625 
C 42 2.40625 41.09375 3.015625 41.09375 7.859375 
L 41.09375 69 
z
M 35.796875 11.90625 
C 35.796875 8.875 34 6.140625 31.703125 4.125 
C 28.296875 1.09375 24.90625 0.59375 23 0.59375 
C 20.09375 0.59375 9.703125 2.109375 9.703125 21.390625 
C 9.703125 41.1875 21.296875 42.390625 23.90625 42.390625 
C 28.5 42.390625 32.203125 39.765625 34.5 36.140625 
C 35.796875 34.015625 35.796875 33.703125 35.796875 31.890625 
z
" id="CMR17-100"/>
      <path d="M 30.90625 42 
C 30.90625 43.796875 30.796875 43.890625 30.203125 43.890625 
C 29.796875 43.890625 29.703125 43.796875 28.5 42.296875 
C 28.203125 41.890625 27.296875 40.890625 27 40.5 
C 23.796875 43.890625 19.296875 44 17.59375 44 
C 6.5 44 2.5 38.1875 2.5 32.390625 
C 2.5 23.390625 12.703125 21.296875 15.59375 20.6875 
C 21.90625 19.390625 24.09375 19 26.203125 17.1875 
C 27.5 16 29.703125 13.796875 29.703125 10.1875 
C 29.703125 6 27.296875 0.59375 18.09375 0.59375 
C 9.40625 0.59375 6.296875 7.1875 4.5 16 
C 4.203125 17.390625 4.203125 17.5 3.40625 17.5 
C 2.59375 17.5 2.5 17.390625 2.5 15.390625 
L 2.5 1 
C 2.5 -0.8125 2.59375 -0.90625 3.203125 -0.90625 
C 3.703125 -0.90625 3.796875 -0.8125 4.296875 0 
C 4.90625 0.890625 6.40625 3.296875 7 4.296875 
C 9 1.59375 12.5 -1 18.09375 -1 
C 28 -1 33.296875 4.390625 33.296875 12.1875 
C 33.296875 17.296875 30.59375 20 29.296875 21.1875 
C 26.296875 24.296875 22.796875 25 18.59375 25.796875 
C 13.09375 27 6.09375 28.390625 6.09375 34.5 
C 6.09375 37.09375 7.5 42.59375 17.59375 42.59375 
C 28.296875 42.59375 28.90625 32.59375 29.09375 29.390625 
C 29.203125 28.890625 29.703125 28.796875 30 28.796875 
C 30.90625 28.796875 30.90625 29.09375 30.90625 30.796875 
z
" id="CMR17-115"/>
      <path d="M 30.59375 -24.40625 
C 30.59375 -24.3125 30.59375 -24.109375 30.296875 -23.8125 
C 25.703125 -19.109375 13.40625 -6.296875 13.40625 24.9375 
C 13.40625 56.171875 25.5 68.875 30.40625 73.890625 
C 30.40625 73.984375 30.59375 74.1875 30.59375 74.484375 
C 30.59375 74.796875 30.296875 75 29.90625 75 
C 28.796875 75 20.296875 67.578125 15.40625 56.5625 
C 10.40625 45.453125 9 34.65625 9 25.046875 
C 9 17.828125 9.703125 5.625 15.703125 -7.296875 
C 20.5 -17.703125 28.703125 -25 29.90625 -25 
C 30.40625 -25 30.59375 -24.8125 30.59375 -24.40625 
z
" id="CMR17-40"/>
      <path d="M 38.90625 27.734375 
L 18.90625 47.59375 
C 17.703125 48.796875 17.5 49 16.703125 49 
C 15.703125 49 14.703125 48.09375 14.703125 47 
C 14.703125 46.296875 14.90625 46.09375 16 45 
L 36 24.9375 
L 16 4.890625 
C 14.90625 3.796875 14.703125 3.59375 14.703125 2.890625 
C 14.703125 1.796875 15.703125 0.890625 16.703125 0.890625 
C 17.5 0.890625 17.703125 1.09375 18.90625 2.296875 
L 38.796875 22.15625 
L 59.5 1.484375 
C 59.703125 1.390625 60.40625 0.890625 61 0.890625 
C 62.203125 0.890625 63 1.796875 63 2.890625 
C 63 3.09375 63 3.484375 62.703125 3.984375 
C 62.59375 4.1875 46.703125 19.859375 41.703125 24.9375 
L 60 43.203125 
C 60.5 43.796875 62 45.09375 62.5 45.703125 
C 62.59375 45.890625 63 46.296875 63 47 
C 63 48.09375 62.203125 49 61 49 
C 60.203125 49 59.796875 48.59375 58.703125 47.5 
z
" id="CMSY10-2"/>
      <path d="M 20.90625 66.390625 
C 20.296875 67.890625 20.203125 68 18.09375 68 
L 5.296875 68 
L 5.296875 65.390625 
C 12.203125 65.390625 13.296875 65.390625 13.296875 60.90625 
L 13.296875 9.75 
C 13.296875 7.265625 13.296875 2.59375 5.296875 2.59375 
L 5.296875 0 
C 7.59375 0.1875 11.796875 0.1875 14.296875 0.1875 
C 16.796875 0.1875 21 0.1875 23.296875 0 
L 23.296875 2.59375 
C 15.296875 2.59375 15.296875 7.265625 15.296875 9.75 
L 15.296875 64.984375 
L 15.40625 64.984375 
L 38.90625 1.59375 
C 39.296875 0.59375 39.5 0 40.296875 0 
C 41.09375 0 41.296875 0.59375 41.703125 1.59375 
L 65.40625 65.484375 
L 65.5 65.484375 
L 65.5 7.078125 
C 65.5 2.59375 64.40625 2.59375 57.5 2.59375 
L 57.5 0 
C 60.203125 0.1875 65.59375 0.1875 68.5 0.1875 
C 71.40625 0.1875 76.90625 0.1875 79.59375 0 
L 79.59375 2.59375 
C 72.703125 2.59375 71.59375 2.59375 71.59375 7.078125 
L 71.59375 60.90625 
C 71.59375 65.390625 72.703125 65.390625 79.59375 65.390625 
L 79.59375 68 
L 66.90625 68 
C 64.796875 68 64.703125 67.890625 64.09375 66.390625 
L 42.5 8.0625 
z
" id="CMR17-77"/>
      <path d="M 19.796875 32 
L 35.796875 32 
C 48.703125 32 58.09375 40.359375 58.09375 49.796875 
C 58.09375 59.234375 48.90625 68 35.796875 68 
L 5.203125 68 
L 5.203125 65.390625 
C 12.09375 65.390625 13.203125 65.390625 13.203125 60.921875 
L 13.203125 7.078125 
C 13.203125 2.59375 12.09375 2.59375 5.203125 2.59375 
L 5.203125 0 
C 8.09375 0.1875 13.40625 0.1875 16.5 0.1875 
C 19.59375 0.1875 24.90625 0.1875 27.796875 0 
L 27.796875 2.59375 
C 20.90625 2.59375 19.796875 2.59375 19.796875 7.078125 
z
M 19.59375 34.09375 
L 19.59375 61.515625 
C 19.59375 64.890625 19.796875 65.390625 23.796875 65.390625 
L 33.90625 65.390625 
C 46.796875 65.390625 50.5 58.046875 50.5 49.796875 
C 50.5 40.75 46.09375 34.09375 33.90625 34.09375 
z
" id="CMR17-80"/>
      <path d="M 19.703125 60.90625 
C 19.703125 65.390625 20.90625 65.390625 28.09375 65.390625 
L 28.09375 68 
C 24.90625 67.796875 19.796875 67.796875 16.40625 67.796875 
C 13 67.796875 7.90625 67.796875 4.703125 68 
L 4.703125 65.390625 
C 11.90625 65.390625 13.09375 65.390625 13.09375 60.90625 
L 13.09375 7.078125 
C 13.09375 2.59375 11.90625 2.59375 4.703125 2.59375 
L 4.703125 0 
C 7.90625 0.1875 13 0.1875 16.40625 0.1875 
C 19.796875 0.1875 24.90625 0.1875 28.09375 0 
L 28.09375 2.59375 
C 20.90625 2.59375 19.703125 2.59375 19.703125 7.078125 
z
" id="CMR17-73"/>
      <path d="M 22 -17.40625 
C 15.59375 -17.40625 15.203125 -17 15.203125 -13.03125 
L 15.203125 5.9375 
C 18.09375 1.703125 22.296875 -1 27.59375 -1 
C 37.59375 -1 47.703125 7.859375 47.703125 21.59375 
C 47.703125 34.3125 39 44 28.703125 44 
C 22.703125 44 17.796875 40.671875 15 36.640625 
L 15 44 
L 3.09375 42.890625 
L 3.09375 40.265625 
C 9 40.265625 9.90625 39.671875 9.90625 34.8125 
L 9.90625 -13.03125 
C 9.90625 -16.890625 9.5 -17.40625 3.09375 -17.40625 
L 3.09375 -20 
C 5.5 -19.8125 9.90625 -19.8125 12.5 -19.8125 
C 15.09375 -19.8125 19.59375 -19.8125 22 -20 
z
M 15.203125 31.484375 
C 15.203125 32.90625 15.203125 35.015625 19.09375 38.765625 
C 19.59375 39.15625 23 42.1875 28 42.1875 
C 35.296875 42.1875 41.296875 33 41.296875 21.5 
C 41.296875 9.984375 34.90625 0.59375 27 0.59375 
C 23.40625 0.59375 19.5 2.3125 16.5 7.046875 
C 15.203125 9.28125 15.203125 9.875 15.203125 11.5 
z
" id="CMR17-112"/>
      <path d="M 34.90625 35 
C 33 35 30.203125 35 30.203125 31.484375 
C 30.203125 28.6875 32.5 27.890625 33.796875 27.890625 
C 34.5 27.890625 37.40625 28.1875 37.40625 31.6875 
C 37.40625 38.6875 30.59375 44 22.90625 44 
C 12.296875 44 3.296875 34.390625 3.296875 21.546875 
C 3.296875 8.140625 12.703125 -1 22.90625 -1 
C 35.296875 -1 38.40625 10.5625 38.40625 11.671875 
C 38.40625 12.078125 38.296875 12.375 37.59375 12.375 
C 36.90625 12.375 36.796875 12.28125 36.40625 10.96875 
C 33.796875 2.8125 28.09375 0.796875 23.796875 0.796875 
C 17.40625 0.796875 9.703125 6.734375 9.703125 21.640625 
C 9.703125 36.84375 17.09375 42.1875 23 42.1875 
C 26.90625 42.1875 32.703125 40.34375 34.90625 35 
z
" id="CMR17-99"/>
      <path d="M 40.703125 71.484375 
C 41.203125 72.78125 41.203125 72.984375 41.203125 73.1875 
C 41.203125 74.390625 40.296875 75 39.5 75 
C 38.296875 75 37.90625 74.1875 37.5 72.984375 
L 5.09375 -21.5 
C 4.59375 -22.8125 4.59375 -23 4.59375 -23.203125 
C 4.59375 -24.40625 5.5 -25 6.296875 -25 
C 7.5 -25 7.90625 -24.203125 8.296875 -23 
z
" id="CMR17-47"/>
      <path d="M 26.296875 24.9375 
C 26.296875 32.140625 25.59375 44.359375 19.59375 57.265625 
C 14.796875 67.6875 6.59375 75 5.40625 75 
C 5.09375 75 4.703125 74.890625 4.703125 74.390625 
C 4.703125 74.1875 4.796875 74.09375 4.90625 73.890625 
C 9.703125 68.875 21.90625 56.171875 21.90625 25.046875 
C 21.90625 -6.1875 9.796875 -18.90625 4.90625 -23.90625 
C 4.796875 -24.109375 4.703125 -24.203125 4.703125 -24.40625 
C 4.703125 -24.90625 5.09375 -25 5.40625 -25 
C 6.5 -25 15 -17.609375 19.90625 -6.59375 
C 24.90625 4.515625 26.296875 15.328125 26.296875 24.9375 
z
" id="CMR17-41"/>
     </defs>
     <g transform="translate(114.340329 259.787657)scale(0.1 -0.1)">
      <use transform="scale(0.996264)" xlink:href="#CMR17-110"/>
      <use transform="translate(48.292916 0)scale(0.996264)" xlink:href="#CMR17-117"/>
      <use transform="translate(99.188286 0)scale(0.996264)" xlink:href="#CMR17-109"/>
      <use transform="translate(173.505422 0)scale(0.996264)" xlink:href="#CMR17-98"/>
      <use transform="translate(227.00323 0)scale(0.996264)" xlink:href="#CMR17-101"/>
      <use transform="translate(267.488891 0)scale(0.996264)" xlink:href="#CMR17-114"/>
      <use transform="translate(332.845625 0)scale(0.996264)" xlink:href="#CMR17-111"/>
      <use transform="translate(378.536102 0)scale(0.996264)" xlink:href="#CMR17-102"/>
      <use transform="translate(436.085581 0)scale(0.996264)" xlink:href="#CMR17-110"/>
      <use transform="translate(486.98095 0)scale(0.996264)" xlink:href="#CMR17-111"/>
      <use transform="translate(535.273866 0)scale(0.996264)" xlink:href="#CMR17-100"/>
      <use transform="translate(586.169236 0)scale(0.996264)" xlink:href="#CMR17-101"/>
      <use transform="translate(626.654896 0)scale(0.996264)" xlink:href="#CMR17-115"/>
      <use transform="translate(692.5322 0)scale(0.996264)" xlink:href="#CMR17-40"/>
      <use transform="translate(727.812968 0)scale(0.996264)" xlink:href="#CMSY10-2"/>
      <use transform="translate(805.300436 0)scale(0.996264)" xlink:href="#CMR17-49"/>
      <use transform="translate(850.990913 0)scale(0.996264)" xlink:href="#CMR17-52"/>
      <use transform="translate(926.757356 0)scale(0.996264)" xlink:href="#CMR17-77"/>
      <use transform="translate(1011.444297 0)scale(0.996264)" xlink:href="#CMR17-80"/>
      <use transform="translate(1074.030598 0)scale(0.996264)" xlink:href="#CMR17-73"/>
      <use transform="translate(1136.744973 0)scale(0.996264)" xlink:href="#CMR17-112"/>
      <use transform="translate(1187.640343 0)scale(0.996264)" xlink:href="#CMR17-114"/>
      <use transform="translate(1222.921111 0)scale(0.996264)" xlink:href="#CMR17-111"/>
      <use transform="translate(1271.214027 0)scale(0.996264)" xlink:href="#CMR17-99"/>
      <use transform="translate(1311.699687 0)scale(0.996264)" xlink:href="#CMR17-101"/>
      <use transform="translate(1352.185347 0)scale(0.996264)" xlink:href="#CMR17-115"/>
      <use transform="translate(1387.986685 0)scale(0.996264)" xlink:href="#CMR17-115"/>
      <use transform="translate(1423.788023 0)scale(0.996264)" xlink:href="#CMR17-101"/>
      <use transform="translate(1464.273683 0)scale(0.996264)" xlink:href="#CMR17-115"/>
      <use transform="translate(1500.075021 0)scale(0.996264)" xlink:href="#CMR17-47"/>
      <use transform="translate(1545.765498 0)scale(0.996264)" xlink:href="#CMR17-110"/>
      <use transform="translate(1596.660868 0)scale(0.996264)" xlink:href="#CMR17-111"/>
      <use transform="translate(1644.953784 0)scale(0.996264)" xlink:href="#CMR17-100"/>
      <use transform="translate(1695.849153 0)scale(0.996264)" xlink:href="#CMR17-101"/>
      <use transform="translate(1736.334814 0)scale(0.996264)" xlink:href="#CMR17-41"/>
     </g>
    </g>
   </g>
   <g id="matplotlib.axis_2">
    <g id="ytick_1">
     <g id="line2d_13">
      <path clip-path="url(#pe2f78de93c)" d="M 37.115213 195.309481 
L 384.315213 195.309481 
" style="fill:none;stroke:#b0b0b0;stroke-dasharray:0.8,1.32;stroke-dashoffset:0;stroke-width:0.8;"/>
     </g>
     <g id="line2d_14">
      <defs>
       <path d="M 0 0 
L -3.5 0 
" id="meb7cbce522" style="stroke:#000000;stroke-width:0.8;"/>
      </defs>
      <g>
       <use style="stroke:#000000;stroke-width:0.8;" x="37.115213" xlink:href="#meb7cbce522" y="195.309481"/>
      </g>
     </g>
     <g id="text_8">
      <!-- $2^{2}$ -->
      <g transform="translate(21.16264 198.768731)scale(0.1 -0.1)">
       <use transform="scale(0.996264)" xlink:href="#CMR17-50"/>
       <use transform="translate(45.690477 36.153639)scale(0.697382)" xlink:href="#CMR17-50"/>
      </g>
     </g>
    </g>
    <g id="ytick_2">
     <g id="line2d_15">
      <path clip-path="url(#pe2f78de93c)" d="M 37.115213 146.113386 
L 384.315213 146.113386 
" style="fill:none;stroke:#b0b0b0;stroke-dasharray:0.8,1.32;stroke-dashoffset:0;stroke-width:0.8;"/>
     </g>
     <g id="line2d_16">
      <g>
       <use style="stroke:#000000;stroke-width:0.8;" x="37.115213" xlink:href="#meb7cbce522" y="146.113386"/>
      </g>
     </g>
     <g id="text_9">
      <!-- $2^{3}$ -->
      <g transform="translate(21.16264 149.572635)scale(0.1 -0.1)">
       <use transform="scale(0.996264)" xlink:href="#CMR17-50"/>
       <use transform="translate(45.690477 36.153639)scale(0.697382)" xlink:href="#CMR17-51"/>
      </g>
     </g>
    </g>
    <g id="ytick_3">
     <g id="line2d_17">
      <path clip-path="url(#pe2f78de93c)" d="M 37.115213 96.91729 
L 384.315213 96.91729 
" style="fill:none;stroke:#b0b0b0;stroke-dasharray:0.8,1.32;stroke-dashoffset:0;stroke-width:0.8;"/>
     </g>
     <g id="line2d_18">
      <g>
       <use style="stroke:#000000;stroke-width:0.8;" x="37.115213" xlink:href="#meb7cbce522" y="96.91729"/>
      </g>
     </g>
     <g id="text_10">
      <!-- $2^{4}$ -->
      <g transform="translate(21.16264 100.376539)scale(0.1 -0.1)">
       <use transform="scale(0.996264)" xlink:href="#CMR17-50"/>
       <use transform="translate(45.690477 36.153639)scale(0.697382)" xlink:href="#CMR17-52"/>
      </g>
     </g>
    </g>
    <g id="ytick_4">
     <g id="line2d_19">
      <path clip-path="url(#pe2f78de93c)" d="M 37.115213 47.721194 
L 384.315213 47.721194 
" style="fill:none;stroke:#b0b0b0;stroke-dasharray:0.8,1.32;stroke-dashoffset:0;stroke-width:0.8;"/>
     </g>
     <g id="line2d_20">
      <g>
       <use style="stroke:#000000;stroke-width:0.8;" x="37.115213" xlink:href="#meb7cbce522" y="47.721194"/>
      </g>
     </g>
     <g id="text_11">
      <!-- $2^{5}$ -->
      <g transform="translate(21.16264 51.180443)scale(0.1 -0.1)">
       <use transform="scale(0.996264)" xlink:href="#CMR17-50"/>
       <use transform="translate(45.690477 36.153639)scale(0.697382)" xlink:href="#CMR17-53"/>
      </g>
     </g>
    </g>
    <g id="text_12">
     <!-- runtime (seconds) -->
     <defs>
      <path d="M 15.09375 40.390625 
L 29.09375 40.390625 
L 29.09375 43 
L 15.09375 43 
L 15.09375 62 
L 13.296875 62 
C 13.09375 51.4375 9.59375 42.1875 1.09375 41.984375 
L 1.09375 40.390625 
L 9.796875 40.390625 
L 9.796875 12.15625 
C 9.796875 10.234375 9.796875 -1 21.40625 -1 
C 27.296875 -1 30.703125 4.8125 30.703125 12.25 
L 30.703125 17.984375 
L 28.90625 17.984375 
L 28.90625 12.34375 
C 28.90625 5.421875 26.203125 0.796875 22 0.796875 
C 19.09375 0.796875 15.09375 2.796875 15.09375 11.953125 
z
" id="CMR17-116"/>
      <path d="M 15.5 61.890625 
C 15.5 64.09375 13.703125 66 11.40625 66 
C 9.203125 66 7.296875 64.1875 7.296875 61.890625 
C 7.296875 59.6875 9.09375 57.796875 11.40625 57.796875 
C 13.59375 57.796875 15.5 59.59375 15.5 61.890625 
z
M 3.796875 42.890625 
L 3.796875 40.296875 
C 9.40625 40.296875 10.203125 39.6875 10.203125 34.859375 
L 10.203125 6.921875 
C 10.203125 3.09375 9.796875 2.59375 3.40625 2.59375 
L 3.40625 0 
C 5.796875 0.1875 10.09375 0.1875 12.59375 0.1875 
C 15 0.1875 19.09375 0.1875 21.40625 0 
L 21.40625 2.59375 
C 15.5 2.59375 15.296875 3.203125 15.296875 6.8125 
L 15.296875 44 
z
" id="CMR17-105"/>
     </defs>
     <g transform="translate(14.67198 160.531223)rotate(-90)scale(0.1 -0.1)">
      <use transform="scale(0.996264)" xlink:href="#CMR17-114"/>
      <use transform="translate(35.280768 0)scale(0.996264)" xlink:href="#CMR17-117"/>
      <use transform="translate(86.176138 0)scale(0.996264)" xlink:href="#CMR17-110"/>
      <use transform="translate(134.469053 0)scale(0.996264)" xlink:href="#CMR17-116"/>
      <use transform="translate(169.749821 0)scale(0.996264)" xlink:href="#CMR17-105"/>
      <use transform="translate(194.62088 0)scale(0.996264)" xlink:href="#CMR17-109"/>
      <use transform="translate(271.54047 0)scale(0.996264)" xlink:href="#CMR17-101"/>
      <use transform="translate(342.102096 0)scale(0.996264)" xlink:href="#CMR17-40"/>
      <use transform="translate(377.382864 0)scale(0.996264)" xlink:href="#CMR17-115"/>
      <use transform="translate(413.184202 0)scale(0.996264)" xlink:href="#CMR17-101"/>
      <use transform="translate(453.669862 0)scale(0.996264)" xlink:href="#CMR17-99"/>
      <use transform="translate(494.155523 0)scale(0.996264)" xlink:href="#CMR17-111"/>
      <use transform="translate(539.846 0)scale(0.996264)" xlink:href="#CMR17-110"/>
      <use transform="translate(590.74137 0)scale(0.996264)" xlink:href="#CMR17-100"/>
      <use transform="translate(641.636739 0)scale(0.996264)" xlink:href="#CMR17-115"/>
      <use transform="translate(677.438077 0)scale(0.996264)" xlink:href="#CMR17-41"/>
     </g>
    </g>
   </g>
   <g id="line2d_21">
    <path clip-path="url(#pe2f78de93c)" d="M 52.897031 64.613146 
L 116.024304 104.105965 
L 152.951391 125.758053 
L 179.151577 141.272655 
L 199.474019 153.465348 
L 216.078664 157.690362 
L 230.117691 157.186471 
L 242.278849 158.211479 
L 262.601292 156.66235 
L 279.205937 152.34719 
L 293.244964 153.758609 
L 305.406122 159.61614 
L 325.728565 153.118505 
L 342.333209 153.021882 
L 356.372236 150.177319 
L 368.533395 151.866365 
" style="fill:none;stroke:#93a1a1;stroke-linecap:square;stroke-width:1.5;"/>
    <defs>
     <path d="M 0 3 
C 0.795609 3 1.55874 2.683901 2.12132 2.12132 
C 2.683901 1.55874 3 0.795609 3 0 
C 3 -0.795609 2.683901 -1.55874 2.12132 -2.12132 
C 1.55874 -2.683901 0.795609 -3 0 -3 
C -0.795609 -3 -1.55874 -2.683901 -2.12132 -2.12132 
C -2.683901 -1.55874 -3 -0.795609 -3 0 
C -3 0.795609 -2.683901 1.55874 -2.12132 2.12132 
C -1.55874 2.683901 -0.795609 3 0 3 
z
" id="mfabe2c0152" style="stroke:#93a1a1;"/>
    </defs>
    <g clip-path="url(#pe2f78de93c)">
     <use style="fill:#93a1a1;stroke:#93a1a1;" x="52.897031" xlink:href="#mfabe2c0152" y="64.613146"/>
     <use style="fill:#93a1a1;stroke:#93a1a1;" x="116.024304" xlink:href="#mfabe2c0152" y="104.105965"/>
     <use style="fill:#93a1a1;stroke:#93a1a1;" x="152.951391" xlink:href="#mfabe2c0152" y="125.758053"/>
     <use style="fill:#93a1a1;stroke:#93a1a1;" x="179.151577" xlink:href="#mfabe2c0152" y="141.272655"/>
     <use style="fill:#93a1a1;stroke:#93a1a1;" x="199.474019" xlink:href="#mfabe2c0152" y="153.465348"/>
     <use style="fill:#93a1a1;stroke:#93a1a1;" x="216.078664" xlink:href="#mfabe2c0152" y="157.690362"/>
     <use style="fill:#93a1a1;stroke:#93a1a1;" x="230.117691" xlink:href="#mfabe2c0152" y="157.186471"/>
     <use style="fill:#93a1a1;stroke:#93a1a1;" x="242.278849" xlink:href="#mfabe2c0152" y="158.211479"/>
     <use style="fill:#93a1a1;stroke:#93a1a1;" x="262.601292" xlink:href="#mfabe2c0152" y="156.66235"/>
     <use style="fill:#93a1a1;stroke:#93a1a1;" x="279.205937" xlink:href="#mfabe2c0152" y="152.34719"/>
     <use style="fill:#93a1a1;stroke:#93a1a1;" x="293.244964" xlink:href="#mfabe2c0152" y="153.758609"/>
     <use style="fill:#93a1a1;stroke:#93a1a1;" x="305.406122" xlink:href="#mfabe2c0152" y="159.61614"/>
     <use style="fill:#93a1a1;stroke:#93a1a1;" x="325.728565" xlink:href="#mfabe2c0152" y="153.118505"/>
     <use style="fill:#93a1a1;stroke:#93a1a1;" x="342.333209" xlink:href="#mfabe2c0152" y="153.021882"/>
     <use style="fill:#93a1a1;stroke:#93a1a1;" x="356.372236" xlink:href="#mfabe2c0152" y="150.177319"/>
     <use style="fill:#93a1a1;stroke:#93a1a1;" x="368.533395" xlink:href="#mfabe2c0152" y="151.866365"/>
    </g>
   </g>
   <g id="line2d_22">
    <path clip-path="url(#pe2f78de93c)" d="M 52.897031 59.239303 
L 116.024304 113.094523 
L 152.951391 123.266001 
L 179.151577 139.679933 
L 199.474019 148.349405 
L 216.078664 160.504371 
L 230.117691 170.660954 
L 242.278849 175.195276 
L 262.601292 181.553933 
L 279.205937 180.372921 
L 293.244964 183.285312 
L 305.406122 183.72963 
L 325.728565 179.610085 
L 342.333209 177.819558 
L 356.372236 180.921958 
L 368.533395 181.756016 
" style="fill:none;stroke:#073642;stroke-dasharray:1.5,2.475;stroke-dashoffset:0;stroke-width:1.5;"/>
    <defs>
     <path d="M 0 1.5 
C 0.397805 1.5 0.77937 1.341951 1.06066 1.06066 
C 1.341951 0.77937 1.5 0.397805 1.5 0 
C 1.5 -0.397805 1.341951 -0.77937 1.06066 -1.06066 
C 0.77937 -1.341951 0.397805 -1.5 0 -1.5 
C -0.397805 -1.5 -0.77937 -1.341951 -1.06066 -1.06066 
C -1.341951 -0.77937 -1.5 -0.397805 -1.5 0 
C -1.5 0.397805 -1.341951 0.77937 -1.06066 1.06066 
C -0.77937 1.341951 -0.397805 1.5 0 1.5 
z
" id="m368ff46e46" style="stroke:#073642;"/>
    </defs>
    <g clip-path="url(#pe2f78de93c)">
     <use style="fill:#073642;stroke:#073642;" x="52.897031" xlink:href="#m368ff46e46" y="59.239303"/>
     <use style="fill:#073642;stroke:#073642;" x="116.024304" xlink:href="#m368ff46e46" y="113.094523"/>
     <use style="fill:#073642;stroke:#073642;" x="152.951391" xlink:href="#m368ff46e46" y="123.266001"/>
     <use style="fill:#073642;stroke:#073642;" x="179.151577" xlink:href="#m368ff46e46" y="139.679933"/>
     <use style="fill:#073642;stroke:#073642;" x="199.474019" xlink:href="#m368ff46e46" y="148.349405"/>
     <use style="fill:#073642;stroke:#073642;" x="216.078664" xlink:href="#m368ff46e46" y="160.504371"/>
     <use style="fill:#073642;stroke:#073642;" x="230.117691" xlink:href="#m368ff46e46" y="170.660954"/>
     <use style="fill:#073642;stroke:#073642;" x="242.278849" xlink:href="#m368ff46e46" y="175.195276"/>
     <use style="fill:#073642;stroke:#073642;" x="262.601292" xlink:href="#m368ff46e46" y="181.553933"/>
     <use style="fill:#073642;stroke:#073642;" x="279.205937" xlink:href="#m368ff46e46" y="180.372921"/>
     <use style="fill:#073642;stroke:#073642;" x="293.244964" xlink:href="#m368ff46e46" y="183.285312"/>
     <use style="fill:#073642;stroke:#073642;" x="305.406122" xlink:href="#m368ff46e46" y="183.72963"/>
     <use style="fill:#073642;stroke:#073642;" x="325.728565" xlink:href="#m368ff46e46" y="179.610085"/>
     <use style="fill:#073642;stroke:#073642;" x="342.333209" xlink:href="#m368ff46e46" y="177.819558"/>
     <use style="fill:#073642;stroke:#073642;" x="356.372236" xlink:href="#m368ff46e46" y="180.921958"/>
     <use style="fill:#073642;stroke:#073642;" x="368.533395" xlink:href="#m368ff46e46" y="181.756016"/>
    </g>
   </g>
   <g id="line2d_23">
    <path clip-path="url(#pe2f78de93c)" d="M 52.897031 57.145802 
L 116.024304 107.121974 
L 152.951391 125.573072 
L 179.151577 136.444795 
L 199.474019 155.943174 
L 216.078664 164.212848 
L 230.117691 178.733432 
L 242.278849 181.849942 
L 262.601292 197.829551 
L 279.205937 203.617956 
L 293.244964 213.303806 
L 305.406122 222.38 
L 325.728565 209.965049 
L 342.333209 196.943448 
L 356.372236 200.551136 
L 368.533395 192.288441 
" style="fill:none;stroke:#93a1a1;stroke-linecap:square;stroke-width:1.5;"/>
    <defs>
     <path d="M -3 3 
L 3 3 
L 3 -3 
L -3 -3 
z
" id="m205283f967" style="stroke:#93a1a1;stroke-linejoin:miter;"/>
    </defs>
    <g clip-path="url(#pe2f78de93c)">
     <use style="fill:#93a1a1;stroke:#93a1a1;stroke-linejoin:miter;" x="52.897031" xlink:href="#m205283f967" y="57.145802"/>
     <use style="fill:#93a1a1;stroke:#93a1a1;stroke-linejoin:miter;" x="116.024304" xlink:href="#m205283f967" y="107.121974"/>
     <use style="fill:#93a1a1;stroke:#93a1a1;stroke-linejoin:miter;" x="152.951391" xlink:href="#m205283f967" y="125.573072"/>
     <use style="fill:#93a1a1;stroke:#93a1a1;stroke-linejoin:miter;" x="179.151577" xlink:href="#m205283f967" y="136.444795"/>
     <use style="fill:#93a1a1;stroke:#93a1a1;stroke-linejoin:miter;" x="199.474019" xlink:href="#m205283f967" y="155.943174"/>
     <use style="fill:#93a1a1;stroke:#93a1a1;stroke-linejoin:miter;" x="216.078664" xlink:href="#m205283f967" y="164.212848"/>
     <use style="fill:#93a1a1;stroke:#93a1a1;stroke-linejoin:miter;" x="230.117691" xlink:href="#m205283f967" y="178.733432"/>
     <use style="fill:#93a1a1;stroke:#93a1a1;stroke-linejoin:miter;" x="242.278849" xlink:href="#m205283f967" y="181.849942"/>
     <use style="fill:#93a1a1;stroke:#93a1a1;stroke-linejoin:miter;" x="262.601292" xlink:href="#m205283f967" y="197.829551"/>
     <use style="fill:#93a1a1;stroke:#93a1a1;stroke-linejoin:miter;" x="279.205937" xlink:href="#m205283f967" y="203.617956"/>
     <use style="fill:#93a1a1;stroke:#93a1a1;stroke-linejoin:miter;" x="293.244964" xlink:href="#m205283f967" y="213.303806"/>
     <use style="fill:#93a1a1;stroke:#93a1a1;stroke-linejoin:miter;" x="305.406122" xlink:href="#m205283f967" y="222.38"/>
     <use style="fill:#93a1a1;stroke:#93a1a1;stroke-linejoin:miter;" x="325.728565" xlink:href="#m205283f967" y="209.965049"/>
     <use style="fill:#93a1a1;stroke:#93a1a1;stroke-linejoin:miter;" x="342.333209" xlink:href="#m205283f967" y="196.943448"/>
     <use style="fill:#93a1a1;stroke:#93a1a1;stroke-linejoin:miter;" x="356.372236" xlink:href="#m205283f967" y="200.551136"/>
     <use style="fill:#93a1a1;stroke:#93a1a1;stroke-linejoin:miter;" x="368.533395" xlink:href="#m205283f967" y="192.288441"/>
    </g>
   </g>
   <g id="line2d_24">
    <path clip-path="url(#pe2f78de93c)" d="M 52.897031 60.00367 
L 116.024304 108.081532 
L 152.951391 123.220536 
L 179.151577 140.294832 
L 199.474019 151.139438 
L 216.078664 160.953319 
L 230.117691 171.820046 
L 242.278849 180.796256 
L 262.601292 194.058843 
L 279.205937 207.897303 
L 293.244964 213.200148 
L 305.406122 212.092959 
L 325.728565 201.111073 
L 342.333209 200.290124 
L 356.372236 191.939809 
L 368.533395 185.20254 
" style="fill:none;stroke:#073642;stroke-dasharray:5.55,2.4;stroke-dashoffset:0;stroke-width:1.5;"/>
    <g clip-path="url(#pe2f78de93c)">
     <use style="fill:#073642;stroke:#073642;" x="52.897031" xlink:href="#m368ff46e46" y="60.00367"/>
     <use style="fill:#073642;stroke:#073642;" x="116.024304" xlink:href="#m368ff46e46" y="108.081532"/>
     <use style="fill:#073642;stroke:#073642;" x="152.951391" xlink:href="#m368ff46e46" y="123.220536"/>
     <use style="fill:#073642;stroke:#073642;" x="179.151577" xlink:href="#m368ff46e46" y="140.294832"/>
     <use style="fill:#073642;stroke:#073642;" x="199.474019" xlink:href="#m368ff46e46" y="151.139438"/>
     <use style="fill:#073642;stroke:#073642;" x="216.078664" xlink:href="#m368ff46e46" y="160.953319"/>
     <use style="fill:#073642;stroke:#073642;" x="230.117691" xlink:href="#m368ff46e46" y="171.820046"/>
     <use style="fill:#073642;stroke:#073642;" x="242.278849" xlink:href="#m368ff46e46" y="180.796256"/>
     <use style="fill:#073642;stroke:#073642;" x="262.601292" xlink:href="#m368ff46e46" y="194.058843"/>
     <use style="fill:#073642;stroke:#073642;" x="279.205937" xlink:href="#m368ff46e46" y="207.897303"/>
     <use style="fill:#073642;stroke:#073642;" x="293.244964" xlink:href="#m368ff46e46" y="213.200148"/>
     <use style="fill:#073642;stroke:#073642;" x="305.406122" xlink:href="#m368ff46e46" y="212.092959"/>
     <use style="fill:#073642;stroke:#073642;" x="325.728565" xlink:href="#m368ff46e46" y="201.111073"/>
     <use style="fill:#073642;stroke:#073642;" x="342.333209" xlink:href="#m368ff46e46" y="200.290124"/>
     <use style="fill:#073642;stroke:#073642;" x="356.372236" xlink:href="#m368ff46e46" y="191.939809"/>
     <use style="fill:#073642;stroke:#073642;" x="368.533395" xlink:href="#m368ff46e46" y="185.20254"/>
    </g>
   </g>
   <g id="line2d_25">
    <path clip-path="url(#pe2f78de93c)" d="M 52.897031 20.78 
L 116.024304 63.745365 
L 152.951391 81.858319 
L 179.151577 101.401954 
L 199.474019 114.201989 
L 216.078664 125.192365 
L 230.117691 141.250681 
L 242.278849 149.950003 
L 262.601292 171.113365 
L 279.205937 179.909634 
L 293.244964 189.401614 
L 305.406122 196.272785 
L 325.728565 188.695229 
L 342.333209 190.610018 
L 356.372236 191.742817 
L 368.533395 186.246952 
" style="fill:none;stroke:#073642;stroke-linecap:square;stroke-width:1.5;"/>
    <g clip-path="url(#pe2f78de93c)">
     <use style="fill:#073642;stroke:#073642;" x="52.897031" xlink:href="#m368ff46e46" y="20.78"/>
     <use style="fill:#073642;stroke:#073642;" x="116.024304" xlink:href="#m368ff46e46" y="63.745365"/>
     <use style="fill:#073642;stroke:#073642;" x="152.951391" xlink:href="#m368ff46e46" y="81.858319"/>
     <use style="fill:#073642;stroke:#073642;" x="179.151577" xlink:href="#m368ff46e46" y="101.401954"/>
     <use style="fill:#073642;stroke:#073642;" x="199.474019" xlink:href="#m368ff46e46" y="114.201989"/>
     <use style="fill:#073642;stroke:#073642;" x="216.078664" xlink:href="#m368ff46e46" y="125.192365"/>
     <use style="fill:#073642;stroke:#073642;" x="230.117691" xlink:href="#m368ff46e46" y="141.250681"/>
     <use style="fill:#073642;stroke:#073642;" x="242.278849" xlink:href="#m368ff46e46" y="149.950003"/>
     <use style="fill:#073642;stroke:#073642;" x="262.601292" xlink:href="#m368ff46e46" y="171.113365"/>
     <use style="fill:#073642;stroke:#073642;" x="279.205937" xlink:href="#m368ff46e46" y="179.909634"/>
     <use style="fill:#073642;stroke:#073642;" x="293.244964" xlink:href="#m368ff46e46" y="189.401614"/>
     <use style="fill:#073642;stroke:#073642;" x="305.406122" xlink:href="#m368ff46e46" y="196.272785"/>
     <use style="fill:#073642;stroke:#073642;" x="325.728565" xlink:href="#m368ff46e46" y="188.695229"/>
     <use style="fill:#073642;stroke:#073642;" x="342.333209" xlink:href="#m368ff46e46" y="190.610018"/>
     <use style="fill:#073642;stroke:#073642;" x="356.372236" xlink:href="#m368ff46e46" y="191.742817"/>
     <use style="fill:#073642;stroke:#073642;" x="368.533395" xlink:href="#m368ff46e46" y="186.246952"/>
    </g>
   </g>
   <g id="patch_3">
    <path d="M 37.115213 232.46 
L 37.115213 10.7 
" style="fill:none;stroke:#000000;stroke-linecap:square;stroke-linejoin:miter;stroke-width:0.8;"/>
   </g>
   <g id="patch_4">
    <path d="M 384.315213 232.46 
L 384.315213 10.7 
" style="fill:none;stroke:#000000;stroke-linecap:square;stroke-linejoin:miter;stroke-width:0.8;"/>
   </g>
   <g id="patch_5">
    <path d="M 37.115213 232.46 
L 384.315213 232.46 
" style="fill:none;stroke:#000000;stroke-linecap:square;stroke-linejoin:miter;stroke-width:0.8;"/>
   </g>
   <g id="patch_6">
    <path d="M 37.115213 10.7 
L 384.315213 10.7 
" style="fill:none;stroke:#000000;stroke-linecap:square;stroke-linejoin:miter;stroke-width:0.8;"/>
   </g>
   <g id="legend_1">
    <g id="patch_7">
     <path d="M 298.408213 88.385892 
L 377.315213 88.385892 
Q 379.315213 88.385892 379.315213 86.385892 
L 379.315213 17.7 
Q 379.315213 15.7 377.315213 15.7 
L 298.408213 15.7 
Q 296.408213 15.7 296.408213 17.7 
L 296.408213 86.385892 
Q 296.408213 88.385892 298.408213 88.385892 
z
" style="fill:#ffffff;opacity:0.8;stroke:#cccccc;stroke-linejoin:miter;"/>
    </g>
    <g id="line2d_26">
     <path d="M 300.408213 23.2 
L 320.408213 23.2 
" style="fill:none;stroke:#073642;stroke-linecap:square;stroke-width:1.5;"/>
    </g>
    <g id="line2d_27">
     <g>
      <use style="fill:#073642;stroke:#073642;" x="310.408213" xlink:href="#m368ff46e46" y="23.2"/>
     </g>
    </g>
    <g id="text_13">
     <!-- \textsc{PPR-CG$^*$} -->
     <defs>
      <path d="M 43 31.390625 
C 55.203125 31.390625 66.90625 39.171875 66.90625 49.4375 
C 66.90625 59.3125 56.296875 68 42.203125 68 
L 5.703125 68 
L 5.703125 64.890625 
L 8.09375 64.890625 
C 15.796875 64.890625 16 63.796875 16 60.203125 
L 16 7.765625 
C 16 4.1875 15.796875 3.09375 8.09375 3.09375 
L 5.703125 3.09375 
L 5.703125 0 
C 9.203125 0.296875 16.59375 0.296875 20.40625 0.296875 
C 24.203125 0.296875 31.703125 0.296875 35.203125 0 
L 35.203125 3.09375 
L 32.796875 3.09375 
C 25.09375 3.09375 24.90625 4.1875 24.90625 7.765625 
L 24.90625 31.390625 
z
M 24.59375 60.90625 
C 24.59375 64.1875 24.796875 64.890625 29.5 64.890625 
L 39.59375 64.890625 
C 56.59375 64.890625 56.59375 53.921875 56.59375 49.4375 
C 56.59375 45.15625 56.59375 34 39.59375 34 
L 24.59375 34 
z
" id="CMCSC10-80"/>
      <path d="M 24.59375 35.1875 
L 24.59375 60.921875 
C 24.59375 63.609375 24.796875 64.5 27.203125 64.796875 
C 28.09375 64.890625 31.203125 64.890625 33.203125 64.890625 
C 41.90625 64.890625 55.09375 64.890625 55.09375 50.09375 
C 55.09375 39.46875 48 35.1875 36.703125 35.1875 
z
M 47 33.890625 
C 59 36.78125 65.40625 43.34375 65.40625 50.09375 
C 65.40625 59.734375 53.203125 68 38.09375 68 
L 5.703125 68 
L 5.703125 64.890625 
L 8.09375 64.890625 
C 15.796875 64.890625 16 63.796875 16 60.21875 
L 16 7.921875 
C 16 4.359375 15.796875 3.265625 8.09375 3.265625 
L 5.703125 3.265625 
L 5.703125 0.1875 
C 9.296875 0.484375 16.40625 0.484375 20.296875 0.484375 
C 24.203125 0.484375 31.296875 0.484375 34.90625 0.1875 
L 34.90625 3.265625 
L 32.5 3.265625 
C 24.796875 3.265625 24.59375 4.359375 24.59375 7.921875 
L 24.59375 33 
L 37.09375 33 
C 42.5 33 45.703125 31.015625 47.40625 29.421875 
C 51.203125 25.75 51.203125 23.28125 51.203125 16.34375 
C 51.203125 9.5 51.203125 5.9375 55.5 2.078125 
C 59.203125 -1.109375 64.796875 -2 68.296875 -2 
C 76.296875 -2 78.203125 6.140625 78.203125 8.90625 
C 78.203125 9.5 78.203125 10.59375 76.90625 10.59375 
C 75.796875 10.59375 75.796875 9.703125 75.703125 9.015625 
C 74.90625 1.28125 70.796875 0.1875 68.703125 0.1875 
C 63.40625 0.1875 62.703125 4.65625 60.90625 16.140625 
C 59.796875 23.078125 59.40625 25.5625 56.203125 28.734375 
C 54.09375 30.90625 50.90625 32.796875 47 33.890625 
z
" id="CMCSC10-82"/>
      <path d="M 30.5 19 
L 30.5 24.796875 
L 2.59375 24.796875 
L 2.59375 19 
z
" id="CMCSC10-45"/>
      <path d="M 63.40625 62.0625 
C 60.09375 65.484375 54 71 43.703125 71 
C 24 71 7.203125 54.9375 7.203125 34.546875 
C 7.203125 14.046875 24 -2 43.796875 -2 
C 60.703125 -2 71.296875 11.640625 71.296875 23.59375 
C 71.296875 24.59375 71.296875 25.296875 70 25.296875 
C 68.90625 25.296875 68.90625 24.703125 68.796875 23.6875 
C 68 9.125 56.296875 1.09375 45.09375 1.09375 
C 36.296875 1.09375 17.5 6.3125 17.5 34.4375 
C 17.5 64.078125 38 67.890625 44.90625 67.890625 
C 55.59375 67.890625 65.796875 59.546875 68.09375 44.078125 
C 68.296875 42.671875 68.40625 42.375 69.703125 42.375 
C 71.296875 42.375 71.296875 42.671875 71.296875 44.78125 
L 71.296875 68.59375 
C 71.296875 70.296875 71.296875 71 70.203125 71 
C 69.796875 71 69.40625 71 68.59375 69.796875 
z
" id="CMCSC10-67"/>
      <path d="M 71.203125 68.59375 
C 71.203125 70.296875 71.203125 71 70.09375 71 
C 69.703125 71 69.296875 71 68.5 69.796875 
L 63.296875 62.125 
C 60.203125 65.109375 54.296875 71 43.703125 71 
C 23.796875 71 7.203125 54.859375 7.203125 34.859375 
C 7.203125 14.578125 23.59375 -2 43.90625 -2 
C 51.796875 -2 60.40625 0.59375 63.90625 6.609375 
C 65.203125 4.359375 69.203125 0.296875 70.296875 0.296875 
C 71.203125 0.296875 71.203125 1.09375 71.203125 2.625 
L 71.203125 20.390625 
C 71.203125 24.890625 72.296875 24.890625 78.5 24.890625 
L 78.5 28 
C 73.703125 27.796875 70.09375 27.6875 65.796875 27.6875 
C 61.703125 27.6875 52.796875 27.6875 49.203125 28 
L 49.203125 24.890625 
L 52.703125 24.890625 
C 62.296875 24.890625 62.296875 23.46875 62.296875 19.984375 
L 62.296875 13.453125 
C 62.296875 1.09375 46.796875 1.09375 45.59375 1.09375 
C 36.5 1.09375 17.5 6.40625 17.5 34.859375 
C 17.5 63.015625 36.703125 67.890625 44.90625 67.890625 
C 55.5 67.890625 65.703125 59.734375 68 44.3125 
C 68.203125 42.921875 68.296875 42.625 69.59375 42.625 
C 71.203125 42.625 71.203125 42.921875 71.203125 45 
z
" id="CMCSC10-71"/>
      <path d="M 27.5 43.15625 
C 27.59375 44.578125 27.59375 47 25 47 
C 23.40625 47 22.09375 45.6875 22.40625 44.375 
L 22.40625 43.046875 
L 23.796875 27.1875 
L 11 36.703125 
C 10.09375 37.21875 9.90625 37.421875 9.203125 37.421875 
C 7.796875 37.421875 6.5 35.984375 6.5 34.5625 
C 6.5 32.921875 7.5 32.515625 8.5 32 
L 22.703125 25.046875 
L 8.90625 18.1875 
C 7.296875 17.375 6.5 16.953125 6.5 15.421875 
C 6.5 13.890625 7.796875 12.5625 9.203125 12.5625 
C 9.90625 12.5625 10.09375 12.5625 12.59375 14.5 
L 23.796875 22.796875 
L 22.296875 5.609375 
C 22.296875 3.5 24.09375 3 24.90625 3 
C 26.09375 3 27.59375 3.6875 27.59375 5.609375 
L 26.09375 22.796875 
L 38.90625 13.28125 
C 39.796875 12.765625 40 12.5625 40.703125 12.5625 
C 42.09375 12.5625 43.40625 14 43.40625 15.421875 
C 43.40625 16.953125 42.5 17.46875 41.296875 18.078125 
C 35.296875 21.15625 35.09375 21.15625 27.203125 24.9375 
L 41 31.796875 
C 42.59375 32.609375 43.40625 33.015625 43.40625 34.5625 
C 43.40625 36.09375 42.09375 37.421875 40.703125 37.421875 
C 40 37.421875 39.796875 37.421875 37.296875 35.484375 
L 26.09375 27.1875 
z
" id="CMSY10-3"/>
     </defs>
     <g transform="translate(328.408213 26.7)scale(0.1 -0.1)">
      <use transform="scale(0.996264)" xlink:href="#CMCSC10-80"/>
      <use transform="translate(73.888826 0)scale(0.996264)" xlink:href="#CMCSC10-80"/>
      <use transform="translate(147.777651 0)scale(0.996264)" xlink:href="#CMCSC10-82"/>
      <use transform="translate(227.478027 0)scale(0.996264)" xlink:href="#CMCSC10-45"/>
      <use transform="translate(265.114311 0)scale(0.996264)" xlink:href="#CMCSC10-67"/>
      <use transform="translate(343.431036 0)scale(0.996264)" xlink:href="#CMCSC10-71"/>
      <use transform="translate(428.251084 36.153639)scale(0.697382)" xlink:href="#CMSY10-3"/>
     </g>
    </g>
    <g id="line2d_28">
     <path d="M 300.408213 37.137178 
L 320.408213 37.137178 
" style="fill:none;stroke:#073642;stroke-dasharray:5.55,2.4;stroke-dashoffset:0;stroke-width:1.5;"/>
    </g>
    <g id="line2d_29">
     <g>
      <use style="fill:#073642;stroke:#073642;" x="310.408213" xlink:href="#m368ff46e46" y="37.137178"/>
     </g>
    </g>
    <g id="text_14">
     <!-- \textsc{PP-CG} -->
     <g transform="translate(328.408213 40.637178)scale(0.1 -0.1)">
      <use transform="scale(0.996264)" xlink:href="#CMCSC10-80"/>
      <use transform="translate(73.888826 0)scale(0.996264)" xlink:href="#CMCSC10-80"/>
      <use transform="translate(147.777651 0)scale(0.996264)" xlink:href="#CMCSC10-45"/>
      <use transform="translate(185.413935 0)scale(0.996264)" xlink:href="#CMCSC10-67"/>
      <use transform="translate(263.73066 0)scale(0.996264)" xlink:href="#CMCSC10-71"/>
     </g>
    </g>
    <g id="line2d_30">
     <path d="M 300.408213 51.074357 
L 320.408213 51.074357 
" style="fill:none;stroke:#93a1a1;stroke-linecap:square;stroke-width:1.5;"/>
    </g>
    <g id="line2d_31">
     <g>
      <use style="fill:#93a1a1;stroke:#93a1a1;stroke-linejoin:miter;" x="310.408213" xlink:href="#m205283f967" y="51.074357"/>
     </g>
    </g>
    <g id="text_15">
     <!-- \textsc{GV-CG} -->
     <defs>
      <path d="M 22.90625 60.328125 
C 22.703125 60.71875 22.40625 61.609375 22.40625 62.015625 
C 22.40625 64.890625 27.703125 64.890625 30.5 64.890625 
L 30.5 68 
C 27 67.6875 19.90625 67.6875 16.09375 67.6875 
C 11.296875 67.6875 7 67.890625 3.40625 68 
L 3.40625 64.890625 
C 11.09375 64.890625 11.90625 64.484375 13.296875 61.125 
L 38.203125 0 
C 38.796875 -1.40625 39 -2 40.59375 -2 
C 42.296875 -2 42.5 -1.5 43.09375 0 
L 66.796875 58.4375 
C 69.40625 64.890625 76 64.890625 77.90625 64.890625 
L 77.90625 68 
C 74.796875 67.796875 70.796875 67.6875 68.203125 67.6875 
C 65.203125 67.6875 59.40625 67.890625 56.796875 68 
L 56.796875 64.890625 
C 62.5 64.78125 63.90625 61.8125 63.90625 60.03125 
C 63.90625 59.53125 63.90625 59.328125 63.296875 58.046875 
L 43.59375 9.421875 
z
" id="CMCSC10-86"/>
     </defs>
     <g transform="translate(328.408213 54.574357)scale(0.1 -0.1)">
      <use transform="scale(0.996264)" xlink:href="#CMCSC10-71"/>
      <use transform="translate(84.820047 0)scale(0.996264)" xlink:href="#CMCSC10-86"/>
      <use transform="translate(165.904074 0)scale(0.996264)" xlink:href="#CMCSC10-45"/>
      <use transform="translate(203.540358 0)scale(0.996264)" xlink:href="#CMCSC10-67"/>
      <use transform="translate(281.857083 0)scale(0.996264)" xlink:href="#CMCSC10-71"/>
     </g>
    </g>
    <g id="line2d_32">
     <path d="M 300.408213 65.011535 
L 320.408213 65.011535 
" style="fill:none;stroke:#073642;stroke-dasharray:1.5,2.475;stroke-dashoffset:0;stroke-width:1.5;"/>
    </g>
    <g id="line2d_33">
     <g>
      <use style="fill:#073642;stroke:#073642;" x="310.408213" xlink:href="#m368ff46e46" y="65.011535"/>
     </g>
    </g>
    <g id="text_16">
     <!-- \textsc{PR-CG} -->
     <g transform="translate(328.408213 68.511535)scale(0.1 -0.1)">
      <use transform="scale(0.996264)" xlink:href="#CMCSC10-80"/>
      <use transform="translate(73.888826 0)scale(0.996264)" xlink:href="#CMCSC10-82"/>
      <use transform="translate(153.589202 0)scale(0.996264)" xlink:href="#CMCSC10-45"/>
      <use transform="translate(191.225486 0)scale(0.996264)" xlink:href="#CMCSC10-67"/>
      <use transform="translate(269.54221 0)scale(0.996264)" xlink:href="#CMCSC10-71"/>
     </g>
    </g>
    <g id="line2d_34">
     <path d="M 300.408213 78.948713 
L 320.408213 78.948713 
" style="fill:none;stroke:#93a1a1;stroke-linecap:square;stroke-width:1.5;"/>
    </g>
    <g id="line2d_35">
     <g>
      <use style="fill:#93a1a1;stroke:#93a1a1;" x="310.408213" xlink:href="#mfabe2c0152" y="78.948713"/>
     </g>
    </g>
    <g id="text_17">
     <!-- \textsc{CG} -->
     <g transform="translate(328.408213 82.448713)scale(0.1 -0.1)">
      <use transform="scale(0.996264)" xlink:href="#CMCSC10-67"/>
      <use transform="translate(78.316725 0)scale(0.996264)" xlink:href="#CMCSC10-71"/>
     </g>
    </g>
   </g>
  </g>
  <g id="axes_2">
   <g id="patch_8">
    <path d="M 471.115213 232.46 
L 818.315213 232.46 
L 818.315213 10.7 
L 471.115213 10.7 
z
" style="fill:#ffffff;"/>
   </g>
   <g id="matplotlib.axis_3">
    <g id="xtick_7">
     <g id="line2d_36">
      <path clip-path="url(#p23d9145677)" d="M 486.897031 232.46 
L 486.897031 10.7 
" style="fill:none;stroke:#b0b0b0;stroke-dasharray:0.8,1.32;stroke-dashoffset:0;stroke-width:0.8;"/>
     </g>
     <g id="line2d_37">
      <g>
       <use style="stroke:#000000;stroke-width:0.8;" x="486.897031" xlink:href="#m07c752c1a0" y="232.46"/>
      </g>
     </g>
     <g id="text_18">
      <!-- $2^{0}$ -->
      <g transform="translate(482.420745 246.378498)scale(0.1 -0.1)">
       <use transform="scale(0.996264)" xlink:href="#CMR17-50"/>
       <use transform="translate(45.690477 36.153639)scale(0.697382)" xlink:href="#CMR17-48"/>
      </g>
     </g>
    </g>
    <g id="xtick_8">
     <g id="line2d_38">
      <path clip-path="url(#p23d9145677)" d="M 550.024304 232.46 
L 550.024304 10.7 
" style="fill:none;stroke:#b0b0b0;stroke-dasharray:0.8,1.32;stroke-dashoffset:0;stroke-width:0.8;"/>
     </g>
     <g id="line2d_39">
      <g>
       <use style="stroke:#000000;stroke-width:0.8;" x="550.024304" xlink:href="#m07c752c1a0" y="232.46"/>
      </g>
     </g>
     <g id="text_19">
      <!-- $2^{1}$ -->
      <g transform="translate(545.548017 246.378498)scale(0.1 -0.1)">
       <use transform="scale(0.996264)" xlink:href="#CMR17-50"/>
       <use transform="translate(45.690477 36.153639)scale(0.697382)" xlink:href="#CMR17-49"/>
      </g>
     </g>
    </g>
    <g id="xtick_9">
     <g id="line2d_40">
      <path clip-path="url(#p23d9145677)" d="M 613.151577 232.46 
L 613.151577 10.7 
" style="fill:none;stroke:#b0b0b0;stroke-dasharray:0.8,1.32;stroke-dashoffset:0;stroke-width:0.8;"/>
     </g>
     <g id="line2d_41">
      <g>
       <use style="stroke:#000000;stroke-width:0.8;" x="613.151577" xlink:href="#m07c752c1a0" y="232.46"/>
      </g>
     </g>
     <g id="text_20">
      <!-- $2^{2}$ -->
      <g transform="translate(608.67529 246.378498)scale(0.1 -0.1)">
       <use transform="scale(0.996264)" xlink:href="#CMR17-50"/>
       <use transform="translate(45.690477 36.153639)scale(0.697382)" xlink:href="#CMR17-50"/>
      </g>
     </g>
    </g>
    <g id="xtick_10">
     <g id="line2d_42">
      <path clip-path="url(#p23d9145677)" d="M 676.278849 232.46 
L 676.278849 10.7 
" style="fill:none;stroke:#b0b0b0;stroke-dasharray:0.8,1.32;stroke-dashoffset:0;stroke-width:0.8;"/>
     </g>
     <g id="line2d_43">
      <g>
       <use style="stroke:#000000;stroke-width:0.8;" x="676.278849" xlink:href="#m07c752c1a0" y="232.46"/>
      </g>
     </g>
     <g id="text_21">
      <!-- $2^{3}$ -->
      <g transform="translate(671.802563 246.378498)scale(0.1 -0.1)">
       <use transform="scale(0.996264)" xlink:href="#CMR17-50"/>
       <use transform="translate(45.690477 36.153639)scale(0.697382)" xlink:href="#CMR17-51"/>
      </g>
     </g>
    </g>
    <g id="xtick_11">
     <g id="line2d_44">
      <path clip-path="url(#p23d9145677)" d="M 739.406122 232.46 
L 739.406122 10.7 
" style="fill:none;stroke:#b0b0b0;stroke-dasharray:0.8,1.32;stroke-dashoffset:0;stroke-width:0.8;"/>
     </g>
     <g id="line2d_45">
      <g>
       <use style="stroke:#000000;stroke-width:0.8;" x="739.406122" xlink:href="#m07c752c1a0" y="232.46"/>
      </g>
     </g>
     <g id="text_22">
      <!-- $2^{4}$ -->
      <g transform="translate(734.929836 246.378498)scale(0.1 -0.1)">
       <use transform="scale(0.996264)" xlink:href="#CMR17-50"/>
       <use transform="translate(45.690477 36.153639)scale(0.697382)" xlink:href="#CMR17-52"/>
      </g>
     </g>
    </g>
    <g id="xtick_12">
     <g id="line2d_46">
      <path clip-path="url(#p23d9145677)" d="M 802.533395 232.46 
L 802.533395 10.7 
" style="fill:none;stroke:#b0b0b0;stroke-dasharray:0.8,1.32;stroke-dashoffset:0;stroke-width:0.8;"/>
     </g>
     <g id="line2d_47">
      <g>
       <use style="stroke:#000000;stroke-width:0.8;" x="802.533395" xlink:href="#m07c752c1a0" y="232.46"/>
      </g>
     </g>
     <g id="text_23">
      <!-- $2^{5}$ -->
      <g transform="translate(798.057108 246.378498)scale(0.1 -0.1)">
       <use transform="scale(0.996264)" xlink:href="#CMR17-50"/>
       <use transform="translate(45.690477 36.153639)scale(0.697382)" xlink:href="#CMR17-53"/>
      </g>
     </g>
    </g>
    <g id="text_24">
     <!-- number of nodes ($\times 14$ MPI processes/node) -->
     <g transform="translate(548.340329 259.787657)scale(0.1 -0.1)">
      <use transform="scale(0.996264)" xlink:href="#CMR17-110"/>
      <use transform="translate(48.292916 0)scale(0.996264)" xlink:href="#CMR17-117"/>
      <use transform="translate(99.188286 0)scale(0.996264)" xlink:href="#CMR17-109"/>
      <use transform="translate(173.505422 0)scale(0.996264)" xlink:href="#CMR17-98"/>
      <use transform="translate(227.00323 0)scale(0.996264)" xlink:href="#CMR17-101"/>
      <use transform="translate(267.488891 0)scale(0.996264)" xlink:href="#CMR17-114"/>
      <use transform="translate(332.845625 0)scale(0.996264)" xlink:href="#CMR17-111"/>
      <use transform="translate(378.536102 0)scale(0.996264)" xlink:href="#CMR17-102"/>
      <use transform="translate(436.085581 0)scale(0.996264)" xlink:href="#CMR17-110"/>
      <use transform="translate(486.98095 0)scale(0.996264)" xlink:href="#CMR17-111"/>
      <use transform="translate(535.273866 0)scale(0.996264)" xlink:href="#CMR17-100"/>
      <use transform="translate(586.169236 0)scale(0.996264)" xlink:href="#CMR17-101"/>
      <use transform="translate(626.654896 0)scale(0.996264)" xlink:href="#CMR17-115"/>
      <use transform="translate(692.5322 0)scale(0.996264)" xlink:href="#CMR17-40"/>
      <use transform="translate(727.812968 0)scale(0.996264)" xlink:href="#CMSY10-2"/>
      <use transform="translate(805.300436 0)scale(0.996264)" xlink:href="#CMR17-49"/>
      <use transform="translate(850.990913 0)scale(0.996264)" xlink:href="#CMR17-52"/>
      <use transform="translate(926.757356 0)scale(0.996264)" xlink:href="#CMR17-77"/>
      <use transform="translate(1011.444297 0)scale(0.996264)" xlink:href="#CMR17-80"/>
      <use transform="translate(1074.030598 0)scale(0.996264)" xlink:href="#CMR17-73"/>
      <use transform="translate(1136.744973 0)scale(0.996264)" xlink:href="#CMR17-112"/>
      <use transform="translate(1187.640343 0)scale(0.996264)" xlink:href="#CMR17-114"/>
      <use transform="translate(1222.921111 0)scale(0.996264)" xlink:href="#CMR17-111"/>
      <use transform="translate(1271.214027 0)scale(0.996264)" xlink:href="#CMR17-99"/>
      <use transform="translate(1311.699687 0)scale(0.996264)" xlink:href="#CMR17-101"/>
      <use transform="translate(1352.185347 0)scale(0.996264)" xlink:href="#CMR17-115"/>
      <use transform="translate(1387.986685 0)scale(0.996264)" xlink:href="#CMR17-115"/>
      <use transform="translate(1423.788023 0)scale(0.996264)" xlink:href="#CMR17-101"/>
      <use transform="translate(1464.273683 0)scale(0.996264)" xlink:href="#CMR17-115"/>
      <use transform="translate(1500.075021 0)scale(0.996264)" xlink:href="#CMR17-47"/>
      <use transform="translate(1545.765498 0)scale(0.996264)" xlink:href="#CMR17-110"/>
      <use transform="translate(1596.660868 0)scale(0.996264)" xlink:href="#CMR17-111"/>
      <use transform="translate(1644.953784 0)scale(0.996264)" xlink:href="#CMR17-100"/>
      <use transform="translate(1695.849153 0)scale(0.996264)" xlink:href="#CMR17-101"/>
      <use transform="translate(1736.334814 0)scale(0.996264)" xlink:href="#CMR17-41"/>
     </g>
    </g>
   </g>
   <g id="matplotlib.axis_4">
    <g id="ytick_5">
     <g id="line2d_48">
      <path clip-path="url(#p23d9145677)" d="M 471.115213 213.578207 
L 818.315213 213.578207 
" style="fill:none;stroke:#b0b0b0;stroke-dasharray:0.8,1.32;stroke-dashoffset:0;stroke-width:0.8;"/>
     </g>
     <g id="line2d_49">
      <g>
       <use style="stroke:#000000;stroke-width:0.8;" x="471.115213" xlink:href="#meb7cbce522" y="213.578207"/>
      </g>
     </g>
     <g id="text_25">
      <!-- $2^{0}$ -->
      <g transform="translate(455.16264 217.037456)scale(0.1 -0.1)">
       <use transform="scale(0.996264)" xlink:href="#CMR17-50"/>
       <use transform="translate(45.690477 36.153639)scale(0.697382)" xlink:href="#CMR17-48"/>
      </g>
     </g>
    </g>
    <g id="ytick_6">
     <g id="line2d_50">
      <path clip-path="url(#p23d9145677)" d="M 471.115213 168.084022 
L 818.315213 168.084022 
" style="fill:none;stroke:#b0b0b0;stroke-dasharray:0.8,1.32;stroke-dashoffset:0;stroke-width:0.8;"/>
     </g>
     <g id="line2d_51">
      <g>
       <use style="stroke:#000000;stroke-width:0.8;" x="471.115213" xlink:href="#meb7cbce522" y="168.084022"/>
      </g>
     </g>
     <g id="text_26">
      <!-- $2^{1}$ -->
      <g transform="translate(455.16264 171.543271)scale(0.1 -0.1)">
       <use transform="scale(0.996264)" xlink:href="#CMR17-50"/>
       <use transform="translate(45.690477 36.153639)scale(0.697382)" xlink:href="#CMR17-49"/>
      </g>
     </g>
    </g>
    <g id="ytick_7">
     <g id="line2d_52">
      <path clip-path="url(#p23d9145677)" d="M 471.115213 122.589837 
L 818.315213 122.589837 
" style="fill:none;stroke:#b0b0b0;stroke-dasharray:0.8,1.32;stroke-dashoffset:0;stroke-width:0.8;"/>
     </g>
     <g id="line2d_53">
      <g>
       <use style="stroke:#000000;stroke-width:0.8;" x="471.115213" xlink:href="#meb7cbce522" y="122.589837"/>
      </g>
     </g>
     <g id="text_27">
      <!-- $2^{2}$ -->
      <g transform="translate(455.16264 126.049086)scale(0.1 -0.1)">
       <use transform="scale(0.996264)" xlink:href="#CMR17-50"/>
       <use transform="translate(45.690477 36.153639)scale(0.697382)" xlink:href="#CMR17-50"/>
      </g>
     </g>
    </g>
    <g id="ytick_8">
     <g id="line2d_54">
      <path clip-path="url(#p23d9145677)" d="M 471.115213 77.095652 
L 818.315213 77.095652 
" style="fill:none;stroke:#b0b0b0;stroke-dasharray:0.8,1.32;stroke-dashoffset:0;stroke-width:0.8;"/>
     </g>
     <g id="line2d_55">
      <g>
       <use style="stroke:#000000;stroke-width:0.8;" x="471.115213" xlink:href="#meb7cbce522" y="77.095652"/>
      </g>
     </g>
     <g id="text_28">
      <!-- $2^{3}$ -->
      <g transform="translate(455.16264 80.554901)scale(0.1 -0.1)">
       <use transform="scale(0.996264)" xlink:href="#CMR17-50"/>
       <use transform="translate(45.690477 36.153639)scale(0.697382)" xlink:href="#CMR17-51"/>
      </g>
     </g>
    </g>
    <g id="ytick_9">
     <g id="line2d_56">
      <path clip-path="url(#p23d9145677)" d="M 471.115213 31.601467 
L 818.315213 31.601467 
" style="fill:none;stroke:#b0b0b0;stroke-dasharray:0.8,1.32;stroke-dashoffset:0;stroke-width:0.8;"/>
     </g>
     <g id="line2d_57">
      <g>
       <use style="stroke:#000000;stroke-width:0.8;" x="471.115213" xlink:href="#meb7cbce522" y="31.601467"/>
      </g>
     </g>
     <g id="text_29">
      <!-- $2^{4}$ -->
      <g transform="translate(455.16264 35.060716)scale(0.1 -0.1)">
       <use transform="scale(0.996264)" xlink:href="#CMR17-50"/>
       <use transform="translate(45.690477 36.153639)scale(0.697382)" xlink:href="#CMR17-52"/>
      </g>
     </g>
    </g>
    <g id="text_30">
     <!-- $\times$ speedup over single node -->
     <defs>
      <path d="M 39.09375 33.953125 
C 40 36.171875 41.59375 40.1875 47.40625 40.390625 
L 47.40625 43 
C 45.5 42.890625 43 42.796875 41.09375 42.796875 
C 39 42.796875 35.703125 42.796875 33.703125 43 
L 33.703125 40.390625 
C 36.203125 40.1875 37.59375 38.984375 37.59375 36.375 
C 37.59375 35.46875 37.59375 35.265625 37 33.859375 
L 26 5.921875 
L 14.09375 36.0625 
C 13.5 37.375 13.5 37.578125 13.5 37.984375 
C 13.5 40.390625 16.796875 40.390625 18.296875 40.390625 
L 18.296875 43 
C 15.90625 42.796875 11.5 42.796875 9 42.796875 
C 6.296875 42.796875 3.203125 42.796875 1 43 
L 1 40.390625 
C 4.796875 40.390625 6.90625 40.390625 8.09375 37.28125 
L 22.59375 0.6875 
C 23.203125 -0.8125 23.296875 -1 24.203125 -1 
C 25.09375 -1 25.203125 -0.8125 25.796875 0.6875 
z
" id="CMR17-118"/>
      <path d="M 11.09375 18.203125 
C 13 16.6875 16.296875 15 20.296875 15 
C 28.203125 15 35 21.234375 35 29.609375 
C 35 32.234375 34.203125 36.265625 31.203125 39.390625 
C 34 42.390625 38.09375 43.390625 40.40625 43.390625 
C 40.796875 43.390625 41.40625 43.390625 41.90625 43.09375 
C 41.5 42.984375 40.59375 42.59375 40.59375 40.984375 
C 40.59375 39.6875 41.5 38.796875 42.796875 38.796875 
C 44.296875 38.796875 45.09375 39.796875 45.09375 41.09375 
C 45.09375 42.984375 43.59375 45 40.40625 45 
C 36.40625 45 32.90625 43.09375 30.09375 40.484375 
C 27.09375 43.1875 23.5 44.1875 20.296875 44.1875 
C 12.40625 44.1875 5.59375 37.984375 5.59375 29.609375 
C 5.59375 23.859375 8.90625 20.21875 9.90625 19.21875 
C 6.90625 15.6875 6.90625 11.59375 6.90625 11.09375 
C 6.90625 8.5 7.90625 4.6875 11.296875 2.59375 
C 6.09375 1.28125 2 -2.875 2 -8.078125 
C 2 -15.5625 11.5 -21 22.90625 -21 
C 33.90625 -21 43.796875 -15.765625 43.796875 -7.96875 
C 43.796875 6 29 6 21.296875 6 
C 19 6 14.90625 6 14.40625 6.09375 
C 11.296875 6.59375 9.203125 9.390625 9.203125 12.890625 
C 9.203125 13.796875 9.203125 16 11.09375 18.203125 
z
M 20.296875 16.6875 
C 11.5 16.6875 11.5 27.59375 11.5 29.609375 
C 11.5 31.625 11.5 42.484375 20.296875 42.484375 
C 29.09375 42.484375 29.09375 31.625 29.09375 29.609375 
C 29.09375 27.59375 29.09375 16.6875 20.296875 16.6875 
z
M 22.90625 -19.3125 
C 12.90625 -19.3125 6 -13.796875 6 -8.078125 
C 6 -4.859375 7.703125 -1.84375 9.90625 -0.171875 
C 12.40625 1.59375 13.40625 1.59375 20.203125 1.59375 
C 28.40625 1.59375 39.796875 1.59375 39.796875 -8.078125 
C 39.796875 -13.796875 32.90625 -19.3125 22.90625 -19.3125 
z
" id="CMR17-103"/>
      <path d="M 15.296875 69 
L 3.40625 67.890625 
L 3.40625 65.296875 
C 9.296875 65.296875 10.203125 64.703125 10.203125 59.921875 
L 10.203125 6.859375 
C 10.203125 3.09375 9.796875 2.59375 3.40625 2.59375 
L 3.40625 0 
C 5.796875 0.1875 10.203125 0.1875 12.703125 0.1875 
C 15.296875 0.1875 19.703125 0.1875 22.09375 0 
L 22.09375 2.59375 
C 15.703125 2.59375 15.296875 2.984375 15.296875 6.859375 
z
" id="CMR17-108"/>
     </defs>
     <g transform="translate(449.225462 181.286756)rotate(-90)scale(0.1 -0.1)">
      <use transform="scale(0.996264)" xlink:href="#CMSY10-2"/>
      <use transform="translate(107.563434 0)scale(0.996264)" xlink:href="#CMR17-115"/>
      <use transform="translate(143.364772 0)scale(0.996264)" xlink:href="#CMR17-112"/>
      <use transform="translate(196.86258 0)scale(0.996264)" xlink:href="#CMR17-101"/>
      <use transform="translate(237.348241 0)scale(0.996264)" xlink:href="#CMR17-101"/>
      <use transform="translate(277.833901 0)scale(0.996264)" xlink:href="#CMR17-100"/>
      <use transform="translate(328.729271 0)scale(0.996264)" xlink:href="#CMR17-117"/>
      <use transform="translate(379.624641 0)scale(0.996264)" xlink:href="#CMR17-112"/>
      <use transform="translate(460.595977 0)scale(0.996264)" xlink:href="#CMR17-111"/>
      <use transform="translate(503.684 0)scale(0.996264)" xlink:href="#CMR17-118"/>
      <use transform="translate(549.374462 0)scale(0.996264)" xlink:href="#CMR17-101"/>
      <use transform="translate(589.860122 0)scale(0.996264)" xlink:href="#CMR17-114"/>
      <use transform="translate(655.216856 0)scale(0.996264)" xlink:href="#CMR17-115"/>
      <use transform="translate(691.018194 0)scale(0.996264)" xlink:href="#CMR17-105"/>
      <use transform="translate(715.889253 0)scale(0.996264)" xlink:href="#CMR17-110"/>
      <use transform="translate(766.784622 0)scale(0.996264)" xlink:href="#CMR17-103"/>
      <use transform="translate(812.475099 0)scale(0.996264)" xlink:href="#CMR17-108"/>
      <use transform="translate(837.346158 0)scale(0.996264)" xlink:href="#CMR17-101"/>
      <use transform="translate(907.907785 0)scale(0.996264)" xlink:href="#CMR17-110"/>
      <use transform="translate(958.803155 0)scale(0.996264)" xlink:href="#CMR17-111"/>
      <use transform="translate(1007.09607 0)scale(0.996264)" xlink:href="#CMR17-100"/>
      <use transform="translate(1057.99144 0)scale(0.996264)" xlink:href="#CMR17-101"/>
     </g>
    </g>
   </g>
   <g id="line2d_58">
    <path clip-path="url(#p23d9145677)" d="M 486.897031 213.578207 
L 550.024304 177.057146 
L 586.951391 157.034336 
L 613.151577 142.687177 
L 633.474019 131.411961 
L 650.078664 127.504871 
L 664.117691 127.970845 
L 676.278849 127.022967 
L 696.601292 128.455527 
L 713.205937 132.44598 
L 727.244964 131.140767 
L 739.406122 125.724004 
L 759.728565 131.732705 
L 776.333209 131.822056 
L 790.372236 134.452572 
L 802.533395 132.890623 
" style="fill:none;stroke:#93a1a1;stroke-linecap:square;stroke-width:1.5;"/>
    <g clip-path="url(#p23d9145677)">
     <use style="fill:#93a1a1;stroke:#93a1a1;" x="486.897031" xlink:href="#mfabe2c0152" y="213.578207"/>
     <use style="fill:#93a1a1;stroke:#93a1a1;" x="550.024304" xlink:href="#mfabe2c0152" y="177.057146"/>
     <use style="fill:#93a1a1;stroke:#93a1a1;" x="586.951391" xlink:href="#mfabe2c0152" y="157.034336"/>
     <use style="fill:#93a1a1;stroke:#93a1a1;" x="613.151577" xlink:href="#mfabe2c0152" y="142.687177"/>
     <use style="fill:#93a1a1;stroke:#93a1a1;" x="633.474019" xlink:href="#mfabe2c0152" y="131.411961"/>
     <use style="fill:#93a1a1;stroke:#93a1a1;" x="650.078664" xlink:href="#mfabe2c0152" y="127.504871"/>
     <use style="fill:#93a1a1;stroke:#93a1a1;" x="664.117691" xlink:href="#mfabe2c0152" y="127.970845"/>
     <use style="fill:#93a1a1;stroke:#93a1a1;" x="676.278849" xlink:href="#mfabe2c0152" y="127.022967"/>
     <use style="fill:#93a1a1;stroke:#93a1a1;" x="696.601292" xlink:href="#mfabe2c0152" y="128.455527"/>
     <use style="fill:#93a1a1;stroke:#93a1a1;" x="713.205937" xlink:href="#mfabe2c0152" y="132.44598"/>
     <use style="fill:#93a1a1;stroke:#93a1a1;" x="727.244964" xlink:href="#mfabe2c0152" y="131.140767"/>
     <use style="fill:#93a1a1;stroke:#93a1a1;" x="739.406122" xlink:href="#mfabe2c0152" y="125.724004"/>
     <use style="fill:#93a1a1;stroke:#93a1a1;" x="759.728565" xlink:href="#mfabe2c0152" y="131.732705"/>
     <use style="fill:#93a1a1;stroke:#93a1a1;" x="776.333209" xlink:href="#mfabe2c0152" y="131.822056"/>
     <use style="fill:#93a1a1;stroke:#93a1a1;" x="790.372236" xlink:href="#mfabe2c0152" y="134.452572"/>
     <use style="fill:#93a1a1;stroke:#93a1a1;" x="802.533395" xlink:href="#mfabe2c0152" y="132.890623"/>
    </g>
   </g>
   <g id="line2d_59">
    <path clip-path="url(#p23d9145677)" d="M 486.897031 213.578207 
L 550.024304 163.775487 
L 586.951391 154.369394 
L 613.151577 139.190578 
L 633.474019 131.173467 
L 650.078664 119.933138 
L 664.117691 110.540819 
L 676.278849 106.347695 
L 696.601292 100.467515 
L 713.205937 101.559659 
L 727.244964 98.866419 
L 739.406122 98.455535 
L 759.728565 102.265092 
L 776.333209 103.920886 
L 790.372236 101.051935 
L 802.533395 100.280638 
" style="fill:none;stroke:#073642;stroke-dasharray:1.5,2.475;stroke-dashoffset:0;stroke-width:1.5;"/>
    <g clip-path="url(#p23d9145677)">
     <use style="fill:#073642;stroke:#073642;" x="486.897031" xlink:href="#m368ff46e46" y="213.578207"/>
     <use style="fill:#073642;stroke:#073642;" x="550.024304" xlink:href="#m368ff46e46" y="163.775487"/>
     <use style="fill:#073642;stroke:#073642;" x="586.951391" xlink:href="#m368ff46e46" y="154.369394"/>
     <use style="fill:#073642;stroke:#073642;" x="613.151577" xlink:href="#m368ff46e46" y="139.190578"/>
     <use style="fill:#073642;stroke:#073642;" x="633.474019" xlink:href="#m368ff46e46" y="131.173467"/>
     <use style="fill:#073642;stroke:#073642;" x="650.078664" xlink:href="#m368ff46e46" y="119.933138"/>
     <use style="fill:#073642;stroke:#073642;" x="664.117691" xlink:href="#m368ff46e46" y="110.540819"/>
     <use style="fill:#073642;stroke:#073642;" x="676.278849" xlink:href="#m368ff46e46" y="106.347695"/>
     <use style="fill:#073642;stroke:#073642;" x="696.601292" xlink:href="#m368ff46e46" y="100.467515"/>
     <use style="fill:#073642;stroke:#073642;" x="713.205937" xlink:href="#m368ff46e46" y="101.559659"/>
     <use style="fill:#073642;stroke:#073642;" x="727.244964" xlink:href="#m368ff46e46" y="98.866419"/>
     <use style="fill:#073642;stroke:#073642;" x="739.406122" xlink:href="#m368ff46e46" y="98.455535"/>
     <use style="fill:#073642;stroke:#073642;" x="759.728565" xlink:href="#m368ff46e46" y="102.265092"/>
     <use style="fill:#073642;stroke:#073642;" x="776.333209" xlink:href="#m368ff46e46" y="103.920886"/>
     <use style="fill:#073642;stroke:#073642;" x="790.372236" xlink:href="#m368ff46e46" y="101.051935"/>
     <use style="fill:#073642;stroke:#073642;" x="802.533395" xlink:href="#m368ff46e46" y="100.280638"/>
    </g>
   </g>
   <g id="line2d_60">
    <path clip-path="url(#p23d9145677)" d="M 486.897031 213.578207 
L 550.024304 167.362645 
L 586.951391 150.299956 
L 613.151577 140.246309 
L 633.474019 122.215146 
L 650.078664 114.567748 
L 664.117691 101.13981 
L 676.278849 98.257812 
L 696.601292 83.480637 
L 713.205937 78.127798 
L 727.244964 69.170789 
L 739.406122 60.777562 
L 759.728565 72.258312 
L 776.333209 84.300063 
L 790.372236 80.963846 
L 802.533395 88.604789 
" style="fill:none;stroke:#93a1a1;stroke-linecap:square;stroke-width:1.5;"/>
    <g clip-path="url(#p23d9145677)">
     <use style="fill:#93a1a1;stroke:#93a1a1;stroke-linejoin:miter;" x="486.897031" xlink:href="#m205283f967" y="213.578207"/>
     <use style="fill:#93a1a1;stroke:#93a1a1;stroke-linejoin:miter;" x="550.024304" xlink:href="#m205283f967" y="167.362645"/>
     <use style="fill:#93a1a1;stroke:#93a1a1;stroke-linejoin:miter;" x="586.951391" xlink:href="#m205283f967" y="150.299956"/>
     <use style="fill:#93a1a1;stroke:#93a1a1;stroke-linejoin:miter;" x="613.151577" xlink:href="#m205283f967" y="140.246309"/>
     <use style="fill:#93a1a1;stroke:#93a1a1;stroke-linejoin:miter;" x="633.474019" xlink:href="#m205283f967" y="122.215146"/>
     <use style="fill:#93a1a1;stroke:#93a1a1;stroke-linejoin:miter;" x="650.078664" xlink:href="#m205283f967" y="114.567748"/>
     <use style="fill:#93a1a1;stroke:#93a1a1;stroke-linejoin:miter;" x="664.117691" xlink:href="#m205283f967" y="101.13981"/>
     <use style="fill:#93a1a1;stroke:#93a1a1;stroke-linejoin:miter;" x="676.278849" xlink:href="#m205283f967" y="98.257812"/>
     <use style="fill:#93a1a1;stroke:#93a1a1;stroke-linejoin:miter;" x="696.601292" xlink:href="#m205283f967" y="83.480637"/>
     <use style="fill:#93a1a1;stroke:#93a1a1;stroke-linejoin:miter;" x="713.205937" xlink:href="#m205283f967" y="78.127798"/>
     <use style="fill:#93a1a1;stroke:#93a1a1;stroke-linejoin:miter;" x="727.244964" xlink:href="#m205283f967" y="69.170789"/>
     <use style="fill:#93a1a1;stroke:#93a1a1;stroke-linejoin:miter;" x="739.406122" xlink:href="#m205283f967" y="60.777562"/>
     <use style="fill:#93a1a1;stroke:#93a1a1;stroke-linejoin:miter;" x="759.728565" xlink:href="#m205283f967" y="72.258312"/>
     <use style="fill:#93a1a1;stroke:#93a1a1;stroke-linejoin:miter;" x="776.333209" xlink:href="#m205283f967" y="84.300063"/>
     <use style="fill:#93a1a1;stroke:#93a1a1;stroke-linejoin:miter;" x="790.372236" xlink:href="#m205283f967" y="80.963846"/>
     <use style="fill:#93a1a1;stroke:#93a1a1;stroke-linejoin:miter;" x="802.533395" xlink:href="#m205283f967" y="88.604789"/>
    </g>
   </g>
   <g id="line2d_61">
    <path clip-path="url(#p23d9145677)" d="M 486.897031 213.578207 
L 550.024304 169.118111 
L 586.951391 155.118288 
L 613.151577 139.328799 
L 633.474019 129.300229 
L 650.078664 120.224823 
L 664.117691 110.175796 
L 676.278849 101.875029 
L 696.601292 89.610425 
L 713.205937 76.813282 
L 727.244964 71.909467 
L 739.406122 72.933341 
L 759.728565 83.088862 
L 776.333209 83.848036 
L 790.372236 91.570007 
L 802.533395 97.800309 
" style="fill:none;stroke:#073642;stroke-dasharray:5.55,2.4;stroke-dashoffset:0;stroke-width:1.5;"/>
    <g clip-path="url(#p23d9145677)">
     <use style="fill:#073642;stroke:#073642;" x="486.897031" xlink:href="#m368ff46e46" y="213.578207"/>
     <use style="fill:#073642;stroke:#073642;" x="550.024304" xlink:href="#m368ff46e46" y="169.118111"/>
     <use style="fill:#073642;stroke:#073642;" x="586.951391" xlink:href="#m368ff46e46" y="155.118288"/>
     <use style="fill:#073642;stroke:#073642;" x="613.151577" xlink:href="#m368ff46e46" y="139.328799"/>
     <use style="fill:#073642;stroke:#073642;" x="633.474019" xlink:href="#m368ff46e46" y="129.300229"/>
     <use style="fill:#073642;stroke:#073642;" x="650.078664" xlink:href="#m368ff46e46" y="120.224823"/>
     <use style="fill:#073642;stroke:#073642;" x="664.117691" xlink:href="#m368ff46e46" y="110.175796"/>
     <use style="fill:#073642;stroke:#073642;" x="676.278849" xlink:href="#m368ff46e46" y="101.875029"/>
     <use style="fill:#073642;stroke:#073642;" x="696.601292" xlink:href="#m368ff46e46" y="89.610425"/>
     <use style="fill:#073642;stroke:#073642;" x="713.205937" xlink:href="#m368ff46e46" y="76.813282"/>
     <use style="fill:#073642;stroke:#073642;" x="727.244964" xlink:href="#m368ff46e46" y="71.909467"/>
     <use style="fill:#073642;stroke:#073642;" x="739.406122" xlink:href="#m368ff46e46" y="72.933341"/>
     <use style="fill:#073642;stroke:#073642;" x="759.728565" xlink:href="#m368ff46e46" y="83.088862"/>
     <use style="fill:#073642;stroke:#073642;" x="776.333209" xlink:href="#m368ff46e46" y="83.848036"/>
     <use style="fill:#073642;stroke:#073642;" x="790.372236" xlink:href="#m368ff46e46" y="91.570007"/>
     <use style="fill:#073642;stroke:#073642;" x="802.533395" xlink:href="#m368ff46e46" y="97.800309"/>
    </g>
   </g>
   <g id="line2d_62">
    <path clip-path="url(#p23d9145677)" d="M 486.897031 213.578207 
L 550.024304 173.845903 
L 586.951391 157.095913 
L 613.151577 139.022898 
L 633.474019 127.186042 
L 650.078664 117.02267 
L 664.117691 102.172711 
L 676.278849 94.127996 
L 696.601292 74.557136 
L 713.205937 66.422769 
L 727.244964 57.645042 
L 739.406122 51.290914 
L 759.728565 58.298273 
L 776.333209 56.527569 
L 790.372236 55.48001 
L 802.533395 60.562322 
" style="fill:none;stroke:#073642;stroke-linecap:square;stroke-width:1.5;"/>
    <g clip-path="url(#p23d9145677)">
     <use style="fill:#073642;stroke:#073642;" x="486.897031" xlink:href="#m368ff46e46" y="213.578207"/>
     <use style="fill:#073642;stroke:#073642;" x="550.024304" xlink:href="#m368ff46e46" y="173.845903"/>
     <use style="fill:#073642;stroke:#073642;" x="586.951391" xlink:href="#m368ff46e46" y="157.095913"/>
     <use style="fill:#073642;stroke:#073642;" x="613.151577" xlink:href="#m368ff46e46" y="139.022898"/>
     <use style="fill:#073642;stroke:#073642;" x="633.474019" xlink:href="#m368ff46e46" y="127.186042"/>
     <use style="fill:#073642;stroke:#073642;" x="650.078664" xlink:href="#m368ff46e46" y="117.02267"/>
     <use style="fill:#073642;stroke:#073642;" x="664.117691" xlink:href="#m368ff46e46" y="102.172711"/>
     <use style="fill:#073642;stroke:#073642;" x="676.278849" xlink:href="#m368ff46e46" y="94.127996"/>
     <use style="fill:#073642;stroke:#073642;" x="696.601292" xlink:href="#m368ff46e46" y="74.557136"/>
     <use style="fill:#073642;stroke:#073642;" x="713.205937" xlink:href="#m368ff46e46" y="66.422769"/>
     <use style="fill:#073642;stroke:#073642;" x="727.244964" xlink:href="#m368ff46e46" y="57.645042"/>
     <use style="fill:#073642;stroke:#073642;" x="739.406122" xlink:href="#m368ff46e46" y="51.290914"/>
     <use style="fill:#073642;stroke:#073642;" x="759.728565" xlink:href="#m368ff46e46" y="58.298273"/>
     <use style="fill:#073642;stroke:#073642;" x="776.333209" xlink:href="#m368ff46e46" y="56.527569"/>
     <use style="fill:#073642;stroke:#073642;" x="790.372236" xlink:href="#m368ff46e46" y="55.48001"/>
     <use style="fill:#073642;stroke:#073642;" x="802.533395" xlink:href="#m368ff46e46" y="60.562322"/>
    </g>
   </g>
   <g id="patch_9">
    <path d="M 471.115213 232.46 
L 471.115213 10.7 
" style="fill:none;stroke:#000000;stroke-linecap:square;stroke-linejoin:miter;stroke-width:0.8;"/>
   </g>
   <g id="patch_10">
    <path d="M 818.315213 232.46 
L 818.315213 10.7 
" style="fill:none;stroke:#000000;stroke-linecap:square;stroke-linejoin:miter;stroke-width:0.8;"/>
   </g>
   <g id="patch_11">
    <path d="M 471.115213 232.46 
L 818.315213 232.46 
" style="fill:none;stroke:#000000;stroke-linecap:square;stroke-linejoin:miter;stroke-width:0.8;"/>
   </g>
   <g id="patch_12">
    <path d="M 471.115213 10.7 
L 818.315213 10.7 
" style="fill:none;stroke:#000000;stroke-linecap:square;stroke-linejoin:miter;stroke-width:0.8;"/>
   </g>
  </g>
 </g>
 <defs>
  <clipPath id="pe2f78de93c">
   <rect height="221.76" width="347.2" x="37.115213" y="10.7"/>
  </clipPath>
  <clipPath id="p23d9145677">
   <rect height="221.76" width="347.2" x="471.115213" y="10.7"/>
  </clipPath>
 </defs>
</svg>
